<?xml version="1.0" encoding="UTF-8"?>
<svg id="Layer_2" data-name="Layer 2" xmlns="http://www.w3.org/2000/svg" viewBox="0 0 15.09 15">
  <defs>
    <style>
      .cls-1 {
        fill: #2e2d2d;
      }
    </style>
  </defs>
  <g id="Layer_1-2" data-name="Layer 1">
    <g id="Group_296" data-name="Group 296">
      <path id="Path_76" data-name="Path 76" class="cls-1" d="M5.37,5.01v9.98h3.08v-.58c0-1.47-.02-2.94.01-4.41,0-.5.09-1,.23-1.48.27-.76,1.06-1.2,1.84-1.03.69,0,1.25.54,1.31,1.22.08.44.12.88.11,1.33.01,1.45,0,2.9,0,4.35,0,.2.02.39.03.58h3.04c0-.99.02-1.97.03-3.13.01-1.13.02-2.42-.06-3.72-.17-2.86-2.1-3.71-4.54-3.3-.89.19-1.66.74-2.14,1.51v-1.34h-2.97ZM.29,15h3.07V5.02H.29v9.98ZM1.8,3.61c1,0,1.8-.8,1.81-1.8S2.8,0,1.81,0,0,.8,0,1.8s.8,1.8,1.8,1.81"/>
    </g>
  </g>
</svg>