<svg id="Layer_1" data-name="Layer 1" xmlns="http://www.w3.org/2000/svg" xmlns:xlink="http://www.w3.org/1999/xlink" viewBox="0 0 223.88 195.99"><defs><style>.cls-1{fill:none;}.cls-2{clip-path:url(#clip-path);}.cls-3{fill:#e2574c;}.cls-4{fill:#cb4e44;}</style><clipPath id="clip-path" transform="translate(-571 -285.85)"><rect class="cls-1" x="571" y="286" width="223.92" height="196.8"/></clipPath></defs><title>heart_inactive</title><g class="cls-2"><path class="cls-3" d="M775.29,305.37c-33.16-33.16-66-18.67-92.35,5-26.33-23.66-58.93-38.41-92.35-5a65.93,65.93,0,0,0,0,93.8c92.07,82.82,92,82.67,92,82.67s.13.27,92.65-82.67a65.92,65.92,0,0,0,0-93.8Zm0,0" transform="translate(-571 -285.85)"/><path class="cls-4" d="M682.94,310.35l-.07,0V481.64c1.48-1.25,12.34-10.68,92.41-82.47a65.91,65.91,0,0,0,0-93.79c-33.16-33.16-66-18.67-92.34,5Zm0,0" transform="translate(-571 -285.85)"/></g></svg>