<svg xmlns="http://www.w3.org/2000/svg" width="434.723" height="459.503" viewBox="0 0 434.723 459.503">
  <path id="Subtraction_2" data-name="Subtraction 2" d="M-1556.778,562.221h0V532H-1711.54a106.327,106.327,0,0,1-16.581-30.286,106.049,106.049,0,0,1-5.982-35.23,106.744,106.744,0,0,1,106.626-106.621v54.9a51.3,51.3,0,0,0-20.114,4.072,51.648,51.648,0,0,0-16.443,11.094,51.655,51.655,0,0,0-11.1,16.441,51.281,51.281,0,0,0-4.071,20.112,51.781,51.781,0,0,0,51.724,51.72v.257a180.328,180.328,0,0,0,35.99-3.854,178.83,178.83,0,0,0,33.528-10.614c.554-.238,1.12-.484,1.682-.732v58.8l-.372.12-.128.041ZM-1928.215,532h-55.953c-1.932-10.638-3.4-21.524-4.371-32.356S-1990,477.737-1990,466.753a360.547,360.547,0,0,1,28.521-141.224,361.52,361.52,0,0,1,77.738-115.309,361.553,361.553,0,0,1,115.308-77.738,360.6,360.6,0,0,1,139.8-28.514v-.008c.165,0,.327,0,.477.008h.042c.275,0,.587-.008.905-.008v.019a237.639,237.639,0,0,1,45.747,4.707,233.889,233.889,0,0,1,25.185,6.6v58.792c-.631-.279-1.3-.568-1.981-.86a178.616,178.616,0,0,0-33.608-10.566,180.359,180.359,0,0,0-36.069-3.778,311.87,311.87,0,0,0-60.332,6.016,305.519,305.519,0,0,0-57.156,17.4,305.462,305.462,0,0,0-52.657,28.234,311.89,311.89,0,0,0-46.837,38.522A305.876,305.876,0,0,0-1935.1,466.753,311.407,311.407,0,0,0-1928.215,532Z" transform="translate(1990.5 -103.457)" fill="#ffffff0d" stroke="rgba(0,0,0,0)" stroke-miterlimit="10" stroke-width="1"/>
</svg>
