<?xml version="1.0" encoding="UTF-8"?>
<svg id="Layer_2" data-name="Layer 2" xmlns="http://www.w3.org/2000/svg" viewBox="0 0 199.05 50.91">
  <defs>
    <style>
      .cls-1 {
        fill: #bbc3d0;
      }
    </style>
  </defs>
  <g id="Layer_1-2" data-name="Layer 1">
    <g>
      <path id="Path_1480" data-name="Path 1480" class="cls-1" d="M107.83,1.67h8.85v12.99h5.25v7.62h-5.25v27.64h-8.85v-27.64h-4.53v-7.62h4.53V1.67Z"/>
      <path id="Path_1481" data-name="Path 1481" class="cls-1" d="M124.59,14.67h7.58v4.44c.7-1.6,1.83-2.98,3.27-3.99,1.32-.89,2.88-1.37,4.47-1.36,1.25.03,2.48.34,3.6.91l-2.76,7.62c-.78-.45-1.66-.71-2.56-.78-1.36,0-2.51.84-3.45,2.53-.94,1.69-1.41,4.99-1.41,9.92l.03,1.72v14.26h-8.78V14.67h0Z"/>
      <path id="Path_1482" data-name="Path 1482" class="cls-1" d="M151.34.15c1.51-.02,2.95.59,3.99,1.69,1.09,1.07,1.7,2.55,1.67,4.08.03,1.51-.57,2.97-1.65,4.03-1.02,1.08-2.45,1.69-3.94,1.67-1.52.01-2.97-.6-4.02-1.7-1.1-1.09-1.7-2.58-1.67-4.13-.04-1.5.56-2.95,1.65-3.98,1.04-1.08,2.48-1.67,3.97-1.65M146.91,14.67h8.85v35.25h-8.85V14.67h0Z"/>
      <path id="Path_1483" data-name="Path 1483" class="cls-1" d="M180.35,13.76c3.29,0,6.53.85,9.38,2.5,5.77,3.25,9.34,9.37,9.32,16,.01,3.27-.84,6.49-2.48,9.33-1.59,2.84-3.93,5.18-6.76,6.79-2.87,1.64-6.12,2.48-9.43,2.45-4.88.07-9.57-1.88-12.95-5.4-3.51-3.44-5.45-8.18-5.36-13.1-.05-10.16,8.11-18.46,18.28-18.57M180.5,22.08c-2.59-.06-5.09.98-6.86,2.87-1.86,1.98-2.84,4.62-2.74,7.34-.1,2.74.87,5.42,2.71,7.45,1.78,1.89,4.27,2.93,6.86,2.85,2.61.07,5.13-.98,6.91-2.88,1.87-2.01,2.87-4.68,2.76-7.42.11-2.72-.86-5.37-2.71-7.37-1.8-1.89-4.32-2.92-6.93-2.83"/>
      <path id="Path_1484" data-name="Path 1484" class="cls-1" d="M74.05,0c-8.92.01-17.18,4.69-21.77,12.34l5.49,9.51.14-.55c2.28-8.92,11.36-14.3,20.28-12.02,8.92,2.28,14.3,11.36,12.02,20.28-.65,2.54-1.89,4.88-3.61,6.85l-8.33-14.43-7.6,4.39,13.08,22.67,1.42-.69c12.65-6.14,17.92-21.36,11.78-34.01C92.7,5.57,83.81,0,74.05,0"/>
      <path id="Path_1485" data-name="Path 1485" class="cls-1" d="M74.57,42.11c-.17,0-.34.01-.51.01-6.03-.01-11.58-3.27-14.54-8.52l-12.85-22.19-.04-.06C38.84-.33,23.04-3.5,11.34,4.29-.35,12.08-3.52,27.88,4.27,39.57c4.72,7.09,12.67,11.34,21.18,11.34,5.48.02,10.81-1.75,15.19-5.04v4.17h8.78v-7.52l-7.72-13.37c-2.04,8.98-10.97,14.61-19.95,12.57-8.98-2.04-14.61-10.97-12.57-19.95,2.04-8.98,10.97-14.61,19.95-12.57,4.06.92,7.63,3.33,10,6.74l4.57,7.88h0l.8,1.39,7.4,12.76c4.52,7.98,12.98,12.91,22.15,12.93,1.3,0,2.59-.1,3.87-.3l1.52-.23-4.77-8.27h-.1Z"/>
    </g>
  </g>
</svg>