<?xml version="1.0" encoding="UTF-8"?>
<svg id="Layer_2" data-name="Layer 2" xmlns="http://www.w3.org/2000/svg" viewBox="0 0 271.7 42.68">
  <defs>
    <style>
      .cls-1 {
        fill: #bbc3d0;
      }
    </style>
  </defs>
  <g id="Layer_2-2" data-name="Layer 2">
    <g>
      <path class="cls-1" d="M27.34,36.53c.25-.25,9.56-16.33,9.68-16.71h-9.31c.06.12.09.23.15.32.71,1.24,1.41,2.48,2.13,3.71.5.87.4,1.8-.28,2.44-.32.3-.71.44-1.14.48-.12,0-.24,0-.35,0-8.62,0-17.25,0-25.87,0-.3,0-.61-.01-.9-.07-1.12-.23-1.72-1.35-1.31-2.41.07-.18.17-.36.26-.53C4.69,16.28,8.98,8.8,13.28,1.32c.1-.18.21-.36.34-.53.78-.97,2.21-.99,3.02-.03.11.13.2.28.29.42,2.02,3.43,4.04,6.86,6.06,10.28.22.38.38.77.37,1.22-.02.86-.58,1.58-1.42,1.83-.8.24-1.68-.06-2.15-.75-.26-.38-.48-.78-.71-1.18-1.22-2.08-2.44-4.16-3.66-6.23-.06-.11-.14-.21-.19-.3-.05,0-.06,0-.08,0-.01,0-.03.01-.03.02-.04.05-.08.1-.12.16-3.19,5.54-6.37,11.07-9.56,16.61-.01.02,0,.05,0,.11h9.27c-.07-.14-.12-.27-.19-.38-.66-1.16-1.32-2.32-1.99-3.48-.31-.54-.43-1.1-.25-1.7.22-.72.68-1.22,1.43-1.36.49-.09.99-.12,1.49-.12,2.68-.01,5.36-.01,8.03,0,5.7.01,11.39.04,17.09.05.58,0,1.09.16,1.51.55.72.66.88,1.67.37,2.54-.76,1.32-1.53,2.63-2.29,3.94-2.82,4.85-5.64,9.71-8.47,14.56-.78,1.34-1.56,2.67-2.33,4.01-.32.56-.76.96-1.42,1.09-.7.14-1.3-.08-1.78-.6-.15-.16-.27-.35-.38-.54-2.03-3.54-4.05-7.09-6.08-10.64-.22-.38-.31-.77-.3-1.2.03-.85.58-1.55,1.4-1.79.83-.23,1.7.06,2.15.76.39.61.74,1.24,1.1,1.86,1.08,1.87,2.17,3.74,3.25,5.61.08.14.18.28.27.43ZM17.65,19.84c.01.08,0,.11.02.13.49.92.99,1.84,1.48,2.77.1.18.24.21.43.21,1.68,0,3.36,0,5.04,0,.08,0,.17-.03.26-.04-.01-.07,0-.11-.03-.14-.49-.91-.99-1.82-1.47-2.73-.1-.19-.24-.2-.43-.2-1.59,0-3.18,0-4.76.01-.17,0-.34,0-.53,0Z"/>
      <g>
        <path class="cls-1" d="M178.84,8.22s.07,0,.1,0c.43,2.36.84,4.72,1.26,7.08.42,2.38.84,4.75,1.27,7.13h2.77c-1.47-7.48-2.93-14.92-4.39-22.36-.03,0-.06,0-.09,0-.41.93-.81,1.86-1.22,2.79-.41.93-.82,1.87-1.23,2.8-.41.93-.82,1.87-1.23,2.81-.41.93-.82,1.87-1.23,2.8-.41.93-.81,1.87-1.23,2.8-.41.92-.79,1.86-1.22,2.77-.03,0-.06,0-.09,0-2.45-5.6-4.9-11.19-7.34-16.79l-.07.02c-1.46,7.45-2.93,14.9-4.4,22.37h2.77c.08-.44.15-.86.23-1.28.52-2.92,1.04-5.84,1.56-8.77.23-1.29.46-2.57.69-3.86.02-.1.06-.2.09-.3.5.98.93,1.94,1.36,2.91.43.98.87,1.96,1.3,2.94.43.97.86,1.94,1.28,2.91.43.98.86,1.97,1.3,2.94.43.95.82,1.93,1.31,2.93,2.18-4.94,4.32-9.79,6.46-14.64Z"/>
        <path class="cls-1" d="M123.37,9.51c0-.22,0-.39,0-.56,0-2.55,0-5.1,0-7.65,0-.15-.02-.3-.03-.44-.73-.09-2.38-.05-2.66.06-.08.76-.05,21.25.04,21.51h2.66c0-1.18,0-2.33,0-3.48,0-1.14,0-2.28,0-3.42,0-1.14-.02-2.29.02-3.47,3.45-.03,6.84-.04,10.27,0,.02.24.04.45.04.65,0,3.14,0,6.28-.01,9.42,0,.1.02.2.03.29h2.66V.85h-2.68v8.66h-10.31Z"/>
        <path class="cls-1" d="M271.64.86c-.15-.01-.27-.03-.39-.03-3.61,0-7.22,0-10.83,0-.12,0-.25.02-.36.04-.09.86-.05,21.29.03,21.56h11.51c.08-.46.06-2.13-.02-2.42-.13,0-.27-.02-.42-.02-.64,0-1.29,0-1.93,0-1.92,0-3.83,0-5.75,0-.23,0-.46-.02-.71-.03v-8.12h8.66c.02-.85.02-1.65,0-2.48-.23,0-.42,0-.6,0-2.51,0-5.01,0-7.52,0-.18,0-.35-.03-.52-.04-.09-.64-.06-5.65.04-6.01h8.8V.86Z"/>
        <path class="cls-1" d="M143.78.85v21.59h11.61v-2.45c-.16,0-.3,0-.44,0-.8,0-1.6,0-2.4,0-1.88,0-3.75,0-5.63-.01-.14,0-.28-.02-.4-.03-.08-.5-.06-7.78.02-8.12h8.54c.08-.46.07-2.17-.02-2.48-.4,0-.8,0-1.21,0-.41,0-.81,0-1.22,0s-.81,0-1.22,0c-.42,0-.84,0-1.26,0-.41,0-.81,0-1.22,0-.41,0-.81,0-1.22,0-.4,0-.8.01-1.19-.02-.1-.63-.07-5.72.04-6.03h1.75c.59,0,1.18,0,1.77,0,.59,0,1.18,0,1.77,0s1.18,0,1.77,0c.58,0,1.17,0,1.74,0,.08-.51.06-2.15-.02-2.44h-11.57Z"/>
        <path class="cls-1" d="M114.21,4.85c0-.14.02-.28.02-.42,0-.71-.02-1.41,0-2.12.01-.35-.12-.54-.42-.7-2.05-1.08-4.23-1.42-6.52-1.13-3.01.37-5.55,1.67-7.45,4.03-2.81,3.5-3.42,7.41-1.73,11.57,1.69,4.18,6.01,7.1,11.09,6.79,1.67-.1,3.25-.55,4.74-1.33.22-.11.3-.25.3-.49-.01-.84,0-1.67-.01-2.51,0-.08-.03-.16-.05-.29-.11.09-.17.14-.24.2-1.37,1.08-2.9,1.8-4.65,1.96-2.31.21-4.39-.41-6.19-1.89-3.05-2.52-4.06-6.85-2.4-10.51,1.41-3.11,3.85-4.86,7.28-5.16,1.52-.13,2.98.2,4.35.87.64.31,1.23.73,1.9,1.13Z"/>
        <path class="cls-1" d="M254.73.88c-.11-.02-.16-.04-.21-.04-.81,0-1.63,0-2.44,0-.22,0-.32.09-.4.29-.51,1.29-1.03,2.57-1.55,3.86-1.53,3.8-3.06,7.6-4.59,11.39-.05.12-.11.24-.2.43-.08-.16-.12-.24-.15-.33-2.07-5.12-4.14-10.23-6.2-15.35-.09-.22-.21-.29-.44-.29-.75.01-1.5,0-2.24,0-.11,0-.23.01-.38.02,3.14,7.57,6.26,15.11,9.42,22.72,3.14-7.61,6.25-15.14,9.37-22.7Z"/>
        <path class="cls-1" d="M222.44,3.32V.83c-4.32,0-8.62,0-12.94,0v2.47h5.12c.01.5.04.95.04,1.41,0,4.38,0,8.77,0,13.15,0,1.45-.02,2.9-.03,4.36,0,.07.03.15.04.21h2.67v-2.42c0-.78,0-1.57,0-2.35,0-.8,0-1.6,0-2.39,0-.8,0-1.6,0-2.39v-2.39c0-.78,0-1.57,0-2.35,0-.8,0-1.6,0-2.39,0-.79,0-1.58,0-2.42h5.09Z"/>
        <path class="cls-1" d="M83.92,22.45h9.21c.09-.36.09-2.12-.02-2.47h-6.54V.85h-2.66v21.59Z"/>
        <path class="cls-1" d="M230.63,22.44c.08-.73.05-21.28-.04-21.58h-2.58v21.58h2.62Z"/>
        <path class="cls-1" d="M183.97,37.49s-.05-.03-.06-.06c-.59-1.06-1.18-2.13-1.77-3.19-.38-.69-.77-1.37-1.17-2.04-.09-.15-.23-.33-.38-.36-.35-.08-.72-.06-1.06-.02v8.28c.39,0,.74.03,1.09-.02v-6.35c.13.22.23.39.33.55.81,1.44,1.62,2.87,2.41,4.32.16.3.38.39.71.37.28-.02.41-.19.53-.41.8-1.45,1.61-2.9,2.42-4.36.07-.12.14-.23.21-.35.07,1.05.07,2.08.07,3.11,0,1.04-.01,2.08,0,3.14.39.01.72.06,1.05-.03v-8.25c-.27,0-.51,0-.76,0-.31-.02-.51.11-.67.38-.98,1.77-1.97,3.54-2.95,5.31Z"/>
        <path class="cls-1" d="M131.75,40.09v-6.11c.24.28.43.49.61.71,1.3,1.64,2.6,3.28,3.88,4.94.35.45.74.56,1.29.43v-8.25c-.38,0-.74-.04-1.09.02v6.13c-.12-.12-.2-.2-.27-.28-.35-.44-.7-.88-1.04-1.33-1.11-1.41-2.22-2.82-3.33-4.23-.12-.15-.23-.3-.43-.31-.23-.01-.46,0-.7,0v8.27h1.09Z"/>
        <path class="cls-1" d="M251.2,36.4v1.26c0,.41,0,.81,0,1.22,0,.4-.04.8.03,1.19.53.07.94.06,1.22-.04v-8.2h-1.26v3.57h-4.4v-3.57h-1.24v8.24h1.26v-3.68h4.39Z"/>
        <path class="cls-1" d="M224.03,32.79c-.44-.4-.9-.67-1.42-.83-.89-.29-1.81-.32-2.72-.13-1.47.31-2.49,1.17-3,2.6-.24.68-.26,1.39-.19,2.09.13,1.37.76,2.46,1.99,3.1,1.72.89,3.46.81,5.15-.14.19-.11.27-.25.27-.47-.01-.88,0-1.75,0-2.63,0-.1-.02-.2-.03-.28h-2.64c0,.22,0,.42,0,.61,0,.19.1.3.28.31.26.01.52.02.79.03.14,0,.28.01.42.02v1.69c-.8.45-1.65.55-2.52.4-1.29-.23-2.08-1-2.34-2.28-.09-.45-.11-.94-.07-1.4.1-1.32.99-2.34,2.24-2.6.9-.18,1.77-.06,2.59.39.1.06.2.12.31.17.26.12.37.1.55-.12.12-.15.22-.32.35-.51Z"/>
        <path class="cls-1" d="M229.09,39.1v-2.7h3.12v-.98h-3.13v-2.58c1.33-.03,2.63,0,3.93-.02v-.98c-.48-.09-4.96-.07-5.21.02v8.21h5.22v-.98h-3.92Z"/>
        <path class="cls-1" d="M68.14,32.83h3.95v-.97c-.4-.09-4.93-.08-5.22,0-.07.69-.04,7.94.04,8.21.56.08,4.88.05,5.17-.03v-.95h-3.94v-2.69h3.16v-.98h-3.16v-2.59Z"/>
        <path class="cls-1" d="M261.81,39.09h-3.95v-2.68c.15,0,.29-.02.43-.02.8,0,1.6,0,2.4,0,.11,0,.22-.02.36-.03-.05-.34.05-.64-.09-.96h-3.09c-.08-.56-.06-2.28.04-2.59h3.89v-.99h-5.2c-.08.54-.05,7.96.02,8.24.61.08,4.9.05,5.19-.04v-.94Z"/>
        <path class="cls-1" d="M88.48,39.1c.04.06.06.1.09.13,1.1.94,2.36,1.24,3.74.79,1.27-.41,1.87-1.64,1.68-2.86-.11-.71-.57-1.17-1.2-1.45-.47-.2-.96-.34-1.44-.53-.3-.12-.61-.24-.89-.41-.48-.3-.59-.85-.31-1.34.24-.43.62-.62,1.09-.66.57-.05,1.09.07,1.57.39.08.05.15.1.24.14.22.1.35.07.48-.12.12-.18.21-.38.3-.54-.04-.07-.05-.1-.06-.12-.02-.02-.03-.04-.05-.06-1.05-.78-2.2-.96-3.42-.51-.94.35-1.48,1.19-1.46,2.12.02,1,.47,1.63,1.5,2.02.35.14.72.24,1.08.36.26.09.52.17.77.3.64.34.83.94.53,1.6-.19.41-.52.65-.95.75-.63.15-1.22.07-1.78-.26-.2-.12-.4-.25-.6-.37-.27-.15-.4-.13-.57.11-.12.17-.22.35-.32.52Z"/>
        <path class="cls-1" d="M140.96,39.1c.05.06.08.11.12.14.87.75,1.89,1.06,3.02.93.78-.09,1.46-.41,1.93-1.08.35-.5.46-1.06.45-1.67-.01-.63-.27-1.12-.78-1.46-.29-.2-.62-.34-.94-.47-.39-.16-.8-.25-1.19-.41-.26-.11-.52-.25-.75-.42-.19-.13-.28-.33-.31-.57-.1-.83.58-1.3,1.17-1.34.56-.04,1.1.04,1.57.37.09.06.18.11.27.15.25.1.34.07.49-.16.11-.17.2-.36.29-.52-.89-.98-2.87-1.15-3.9-.49-.74.48-1.13,1.15-1.1,2.03.03.92.5,1.55,1.35,1.89.39.15.79.26,1.19.41.32.12.64.24.94.4.28.14.46.38.51.71.11.75-.32,1.38-1.06,1.56-.64.15-1.25.06-1.82-.28-.18-.11-.35-.23-.53-.34-.31-.18-.43-.16-.63.12-.1.15-.19.31-.3.49Z"/>
        <path class="cls-1" d="M151.34,36.59h3.34v-1.01c-1.13-.02-2.23.01-3.32,0v-2.75h3.9v-.99c-.87-.08-4.94-.04-5.2.04v8.18c.43.09.97.08,1.28-.03v-3.42Z"/>
        <path class="cls-1" d="M78.73,40.08c0-1.25,0-2.45,0-3.65,0-1.2-.01-2.39.01-3.6.92-.03,1.78.02,2.67-.04v-.95c-.53-.09-6.36-.07-6.64,0v.97h2.65c.05,2.44,0,4.84.03,7.25h1.28Z"/>
        <path class="cls-1" d="M198.91,32.83v7.25h1.27c.01-2.42-.01-4.82.01-7.25h2.65v-1h-6.59c-.02.35-.06.67.03,1h2.63Z"/>
        <path class="cls-1" d="M105.3,40.09v-7.25c.47,0,.9,0,1.33,0,.44,0,.88.02,1.33,0,.02-.37.04-.69-.01-1.01h-6.58v1c.89.04,1.77-.02,2.67.03v7.23h1.27Z"/>
        <path class="cls-1" d="M242.31,31.83h-6.58v1c.9.02,1.78-.01,2.69.02v7.23h1.23c0-.43,0-.84,0-1.24,0-.39,0-.78,0-1.18,0-.41,0-.81,0-1.22s0-.81,0-1.22,0-.78,0-1.18c0-.4-.02-.8.02-1.23h2.65v-1Z"/>
        <path class="cls-1" d="M58.78,40.05c.5.09,4.53.07,4.82-.02v-1h-3.55v-7.21h-1.26v8.23Z"/>
        <path class="cls-1" d="M84.16,34.32c.38.42.47.42.79.04.35-.42.58-.91.61-1.46.04-.58-.06-1.14-.41-1.65-.23.1-.44.18-.64.27-.17.08-.23.21-.15.39.04.08.07.17.11.25.26.64.21,1.25-.14,1.84-.06.1-.11.2-.18.32Z"/>
        <path class="cls-1" d="M178.84,8.22c-2.14,4.85-4.28,9.71-6.46,14.64-.49-1-.88-1.97-1.31-2.93-.44-.98-.87-1.96-1.3-2.94-.43-.97-.85-1.94-1.28-2.91-.43-.98-.87-1.96-1.3-2.94-.43-.97-.85-1.93-1.36-2.91-.03.1-.07.2-.09.3-.23,1.29-.46,2.57-.69,3.86-.52,2.92-1.04,5.84-1.56,8.77-.08.42-.15.84-.23,1.28h-2.77c1.47-7.47,2.93-14.92,4.4-22.37l.07-.02c2.45,5.6,4.9,11.19,7.34,16.79.03,0,.06,0,.09,0,.43-.91.81-1.85,1.22-2.77.41-.93.82-1.87,1.23-2.8.41-.93.82-1.87,1.23-2.8.41-.93.82-1.87,1.23-2.81.41-.93.82-1.87,1.23-2.8.41-.93.81-1.86,1.22-2.79.03,0,.06,0,.09,0,1.46,7.44,2.92,14.88,4.39,22.36h-2.77c-.42-2.38-.84-4.75-1.27-7.13-.42-2.36-.83-4.72-1.26-7.08-.03,0-.07,0-.1,0Z"/>
        <path class="cls-1" d="M123.37,9.51h10.31V.85h2.68v21.58h-2.66c0-.09-.03-.19-.03-.29,0-3.14.01-6.28.01-9.42,0-.21-.02-.41-.04-.65-3.43-.05-6.82-.04-10.27,0-.03,1.18-.01,2.33-.02,3.47,0,1.14,0,2.28,0,3.42,0,1.15,0,2.3,0,3.48h-2.66c-.08-.26-.12-20.75-.04-21.51.28-.1,1.93-.14,2.66-.06,0,.14.03.29.03.44,0,2.55,0,5.1,0,7.65,0,.17,0,.34,0,.56Z"/>
        <path class="cls-1" d="M68.31.03c3.43,7.46,6.85,14.91,10.3,22.43-.6,0-1.12,0-1.65,0-.29,0-.58-.02-.87,0-.27.02-.42-.08-.54-.34-.54-1.23-1.11-2.46-1.67-3.68-.16-.36-.35-.71-.49-1.07-.1-.26-.26-.34-.53-.34-2.78,0-5.56,0-8.35,0-.3,0-.6.02-.91,0-.26-.02-.39.08-.5.32-.56,1.27-1.15,2.53-1.72,3.79-.16.36-.32.71-.49,1.07-.06.14-.13.25-.31.24-.85,0-1.71,0-2.56,0-.02,0-.04-.02-.1-.05,3.42-7.45,6.85-14.91,10.27-22.37.03,0,.06,0,.09,0ZM68.3,5.88c-.07.08-.11.11-.12.14-1.22,2.76-2.44,5.53-3.66,8.29-.02.05-.03.1-.04.15,0,.01,0,.03.01.04,0,.01.01.02.02.03.53.07,7.25.05,7.58-.04-1.26-2.86-2.52-5.71-3.79-8.61Z"/>
        <path class="cls-1" d="M208.52,22.45h-2.88c-.82-1.79-1.64-3.59-2.47-5.39h-9.97c-.06.13-.13.25-.19.38-.72,1.57-1.44,3.14-2.14,4.72-.1.22-.22.32-.47.31-.83-.01-1.65,0-2.46,0-.02-.03-.03-.04-.04-.05,0-.01-.01-.03,0-.04.01-.05.02-.1.04-.15,3.39-7.38,6.78-14.76,10.18-22.14,0-.02.04-.03.1-.08,3.43,7.47,6.86,14.92,10.31,22.45ZM198.21,5.89c-.28.38-3.78,8.34-3.81,8.64.57.08,7.29.05,7.59-.05-1.26-2.86-2.52-5.71-3.78-8.59Z"/>
        <path class="cls-1" d="M271.64.86v2.44h-8.8c-.1.35-.12,5.37-.04,6.01.16.01.34.04.52.04,2.51,0,5.01,0,7.52,0,.18,0,.36,0,.6,0,.03.83.02,1.63,0,2.48h-8.66v8.12c.25.01.48.03.71.03,1.92,0,3.83,0,5.75,0,.64,0,1.29,0,1.93,0,.14,0,.28.01.42.02.09.29.1,1.97.02,2.42h-11.51c-.08-.27-.12-20.7-.03-21.56.11-.01.24-.04.36-.04,3.61,0,7.22,0,10.83,0,.12,0,.23.02.39.03Z"/>
        <path class="cls-1" d="M143.78.85h11.57c.08.29.1,1.94.02,2.44-.57.01-1.16,0-1.74,0-.59,0-1.18,0-1.77,0s-1.18,0-1.77,0c-.59,0-1.18,0-1.77,0h-1.75c-.11.31-.14,5.4-.04,6.03.39.03.79.02,1.19.02.41,0,.81,0,1.22,0,.41,0,.81,0,1.22,0,.42,0,.84,0,1.26,0,.41,0,.81,0,1.22,0s.81,0,1.22,0c.41,0,.81,0,1.21,0,.09.31.1,2.02.02,2.48h-8.54c-.09.34-.1,7.61-.02,8.12.13,0,.26.03.4.03,1.88,0,3.75,0,5.63.01.8,0,1.6,0,2.4,0,.14,0,.28,0,.44,0v2.45h-11.61V.85Z"/>
        <path class="cls-1" d="M114.21,4.85c-.67-.4-1.26-.82-1.9-1.13-1.37-.67-2.83-1-4.35-.87-3.43.29-5.87,2.05-7.28,5.16-1.66,3.66-.65,7.99,2.4,10.51,1.8,1.48,3.87,2.11,6.19,1.89,1.75-.16,3.28-.88,4.65-1.96.07-.05.14-.11.24-.2.02.13.05.21.05.29,0,.84,0,1.67.01,2.51,0,.24-.08.37-.3.49-1.49.77-3.06,1.22-4.74,1.33-5.08.3-9.4-2.61-11.09-6.79-1.68-4.16-1.08-8.07,1.73-11.57,1.9-2.36,4.44-3.66,7.45-4.03,2.29-.28,4.47.06,6.52,1.13.31.16.44.35.42.7-.03.71,0,1.41,0,2.12,0,.14-.01.28-.02.42Z"/>
        <path class="cls-1" d="M254.73.88c-3.12,7.56-6.23,15.09-9.37,22.7-3.16-7.61-6.28-15.15-9.42-22.72.15,0,.26-.02.38-.02.75,0,1.5,0,2.24,0,.23,0,.35.06.44.29,2.06,5.12,4.13,10.24,6.2,15.35.03.08.07.16.15.33.09-.19.15-.3.2-.43,1.53-3.8,3.06-7.6,4.59-11.39.52-1.29,1.04-2.57,1.55-3.86.08-.2.18-.29.4-.29.81,0,1.63,0,2.44,0,.05,0,.1.02.21.04Z"/>
        <path class="cls-1" d="M222.44,3.32h-5.09c0,.83,0,1.62,0,2.42,0,.8,0,1.6,0,2.39,0,.78,0,1.57,0,2.35v2.39c0,.8,0,1.6,0,2.39,0,.8,0,1.6,0,2.39,0,.78,0,1.57,0,2.35v2.42h-2.67c-.01-.07-.04-.14-.04-.21,0-1.45.03-2.9.03-4.36,0-4.38,0-8.77,0-13.15,0-.45-.02-.91-.04-1.41h-5.12V.84c4.32-.01,8.62,0,12.94,0v2.49Z"/>
        <path class="cls-1" d="M83.92,22.45V.85h2.66v19.12h6.54c.1.35.11,2.11.02,2.47h-9.21Z"/>
        <path class="cls-1" d="M230.63,22.44h-2.62V.86h2.58c.08.3.12,20.85.04,21.58Z"/>
        <path class="cls-1" d="M183.97,37.49c.99-1.77,1.97-3.54,2.95-5.31.15-.27.36-.4.67-.38.25.01.49,0,.76,0v8.25c-.33.09-.66.05-1.05.03-.02-1.06,0-2.1,0-3.14,0-1.03,0-2.06-.07-3.11-.07.12-.15.23-.21.35-.81,1.45-1.62,2.9-2.42,4.36-.12.21-.24.39-.53.41-.32.02-.54-.07-.71-.37-.79-1.44-1.61-2.88-2.41-4.32-.09-.17-.19-.33-.33-.55v6.35c-.35.06-.7.03-1.09.02v-8.28c.34-.04.71-.06,1.06.02.15.03.29.21.38.36.4.67.79,1.36,1.17,2.04.59,1.06,1.18,2.13,1.77,3.19.02.03.06.05.06.06Z"/>
        <path class="cls-1" d="M131.75,40.09h-1.09v-8.27c.24,0,.47,0,.7,0,.2,0,.32.16.43.31,1.11,1.41,2.22,2.82,3.33,4.23.35.44.69.89,1.04,1.33.07.09.15.16.27.28v-6.13c.34-.06.7-.02,1.09-.02v8.25c-.54.13-.94.02-1.29-.43-1.28-1.66-2.58-3.3-3.88-4.94-.17-.22-.37-.43-.61-.71v6.11Z"/>
        <path class="cls-1" d="M209.39,31.72c1.28-.02,2.37.4,3.22,1.36.49.55.77,1.21.91,1.93.18.91.13,1.8-.22,2.66-.61,1.51-1.77,2.33-3.38,2.5-1.57.17-3.33-.37-4.2-2.07-.76-1.47-.72-2.98.08-4.43.7-1.27,2-1.94,3.58-1.95ZM212.3,35.97c0-.11,0-.21,0-.32-.04-1.48-.96-2.73-2.62-2.85-1.34-.1-2.45.49-2.92,1.72-.34.89-.35,1.79-.07,2.69.32,1.04,1.04,1.68,2.12,1.86.34.06.71.06,1.06.02.97-.11,1.69-.6,2.11-1.49.25-.52.35-1.07.32-1.63Z"/>
        <path class="cls-1" d="M166.5,35.9c-.01.76-.11,1.4-.4,2-.7,1.46-1.9,2.17-3.49,2.3-.66.05-1.31-.03-1.93-.28-1.56-.62-2.36-1.81-2.55-3.43-.09-.73-.02-1.47.25-2.16.6-1.55,1.76-2.39,3.4-2.59.64-.08,1.28-.03,1.91.17,1.55.48,2.64,1.85,2.78,3.5.02.2.02.39.03.49ZM165.24,36.07c-.05-.41-.06-.71-.12-1.01-.18-.83-.58-1.51-1.35-1.93-.41-.23-.86-.33-1.32-.35-1.37-.05-2.47.6-2.89,1.94-.24.78-.26,1.57-.03,2.36.32,1.09,1.03,1.77,2.16,1.98.31.05.63.06.94.03,1.16-.1,1.97-.69,2.35-1.79.15-.43.19-.89.26-1.23Z"/>
        <path class="cls-1" d="M265.35,40.07v-8.25c.12-.01.22-.03.32-.03.79,0,1.58-.02,2.36.02.47.02.94.09,1.39.23.83.25,1.36.8,1.5,1.69.14.95-.15,1.73-.94,2.29-.27.19-.6.32-.92.48.42.57.86,1.17,1.3,1.76.43.58.86,1.17,1.34,1.82-.48,0-.87.01-1.25,0-.22,0-.33-.19-.44-.35-.56-.77-1.16-1.52-1.67-2.33-.37-.59-.84-.77-1.48-.7-.05,0-.1.01-.2.03v3.34h-1.29ZM266.64,32.75c0,1.07-.02,2.05.02,3.05.49,0,.94.02,1.38,0,.23-.01.47-.07.69-.15.67-.24,1.05-.86.99-1.56-.06-.67-.48-1.13-1.22-1.23-.59-.08-1.19-.07-1.85-.1Z"/>
        <path class="cls-1" d="M114.85,36.5c.88,1.19,1.74,2.36,2.65,3.59-.48.03-.91.07-1.32-.02-.14-.03-.27-.2-.37-.33-.6-.81-1.21-1.61-1.77-2.45-.29-.44-.65-.61-1.15-.58-.14,0-.28,0-.46,0v3.37h-1.24v-8.23c.09-.01.18-.04.26-.04.81,0,1.63-.03,2.44.01.47.02.94.1,1.39.24.9.29,1.41.93,1.47,1.88.06.94-.3,1.69-1.12,2.18-.24.15-.51.25-.78.37ZM112.45,35.8c.5,0,.94.02,1.39,0,.4-.02.78-.12,1.1-.37.51-.38.63-.91.55-1.5-.08-.54-.43-.86-.93-1.01-.69-.21-1.4-.13-2.11-.12v3.01Z"/>
        <path class="cls-1" d="M173.77,36.51c.87,1.18,1.74,2.35,2.65,3.59-.46,0-.83,0-1.21,0-.2,0-.33-.14-.44-.29-.27-.37-.54-.74-.81-1.11-.38-.53-.78-1.05-1.15-1.59-.18-.26-.41-.39-.72-.39-.23,0-.47,0-.73,0v3.35c-.43.07-.83.04-1.25.03v-8.26c.09,0,.17-.02.24-.02.83,0,1.65,0,2.48,0,.49,0,.96.09,1.42.27.84.32,1.32.92,1.4,1.82.07.87-.2,1.6-.94,2.11-.29.2-.62.33-.94.5ZM171.36,35.8c.49,0,.94.01,1.38,0,.36-.01.7-.12,1-.31.54-.33.72-.85.66-1.45-.05-.59-.39-.95-.95-1.12-.69-.22-1.39-.12-2.11-.13v3.01Z"/>
        <path class="cls-1" d="M251.2,36.4h-4.39v3.68h-1.26v-8.24h1.24v3.57h4.4v-3.57h1.26v8.2c-.28.09-.69.11-1.22.04-.07-.39-.02-.79-.03-1.19,0-.41,0-.81,0-1.22v-1.26Z"/>
        <path class="cls-1" d="M224.03,32.79c-.13.19-.23.36-.35.51-.18.22-.29.24-.55.12-.11-.05-.21-.11-.31-.17-.81-.45-1.69-.57-2.59-.39-1.26.26-2.14,1.28-2.24,2.6-.04.46-.02.95.07,1.4.25,1.27,1.05,2.05,2.34,2.28.88.16,1.72.05,2.52-.4v-1.69c-.14,0-.28-.01-.42-.02-.26,0-.52-.01-.79-.03-.19-.01-.28-.11-.28-.31,0-.2,0-.39,0-.61h2.64c.01.09.03.18.03.28,0,.88,0,1.75,0,2.63,0,.23-.08.37-.27.47-1.69.95-3.43,1.03-5.15.14-1.23-.63-1.86-1.73-1.99-3.1-.07-.71-.05-1.41.19-2.09.5-1.43,1.53-2.29,3-2.6.91-.19,1.82-.16,2.72.13.52.17.98.43,1.42.83Z"/>
        <path class="cls-1" d="M119.56,40.11c1.14-2.81,2.25-5.54,3.36-8.29h1.29c1.11,2.74,2.22,5.47,3.34,8.24-.38.07-.73.07-1.07.01-.21-.03-.29-.21-.36-.38-.18-.44-.34-.88-.52-1.31-.06-.15-.12-.29-.18-.45h-3.72c-.21.53-.41,1.05-.61,1.57-.21.56-.29.61-.9.61-.18,0-.37,0-.63,0ZM122.09,36.96c.62.07,2.65.05,2.95-.03-.49-1.26-.97-2.52-1.48-3.81-.5,1.29-.98,2.55-1.48,3.85Z"/>
        <path class="cls-1" d="M229.09,39.1h3.92v.98h-5.22v-8.21c.25-.08,4.73-.11,5.21-.02v.98c-1.3.02-2.6-.01-3.93.02v2.58h3.13v.98h-3.12v2.7Z"/>
        <path class="cls-1" d="M68.14,32.83v2.59h3.16v.98h-3.16v2.69h3.94v.95c-.29.08-4.61.11-5.17.03-.07-.27-.11-7.52-.04-8.21.29-.08,4.82-.08,5.22,0v.97h-3.95Z"/>
        <path class="cls-1" d="M261.81,39.09v.94c-.29.09-4.58.12-5.19.04-.08-.28-.1-7.7-.02-8.24h5.2v.99h-3.89c-.1.31-.12,2.03-.04,2.59h3.09c.14.32.04.62.09.96-.14.01-.25.03-.36.03-.8,0-1.6,0-2.4,0-.14,0-.28.01-.43.02v2.68h3.95Z"/>
        <path class="cls-1" d="M88.48,39.1c.1-.17.2-.35.32-.52.17-.24.3-.26.57-.11.2.12.4.25.6.37.56.33,1.15.42,1.78.26.43-.11.76-.34.95-.75.3-.66.11-1.26-.53-1.6-.24-.13-.51-.21-.77-.3-.36-.13-.73-.22-1.08-.36-1.02-.39-1.48-1.02-1.5-2.02-.02-.93.52-1.77,1.46-2.12,1.22-.45,2.37-.28,3.42.51.02.02.04.04.05.06.02.02.02.05.06.12-.09.16-.18.36-.3.54-.13.19-.25.22-.48.12-.08-.04-.16-.09-.24-.14-.47-.33-1-.44-1.57-.39-.47.04-.85.24-1.09.66-.27.49-.16,1.04.31,1.34.27.17.58.29.89.41.48.19.97.33,1.44.53.63.28,1.09.74,1.2,1.45.19,1.22-.41,2.45-1.68,2.86-1.38.45-2.64.14-3.74-.79-.03-.02-.04-.06-.09-.13Z"/>
        <path class="cls-1" d="M140.96,39.1c.11-.18.2-.34.3-.49.2-.28.32-.3.63-.12.18.11.35.23.53.34.57.34,1.17.43,1.82.28.74-.18,1.16-.81,1.06-1.56-.05-.32-.23-.56-.51-.71-.3-.16-.62-.28-.94-.4-.39-.15-.8-.26-1.19-.41-.85-.34-1.32-.96-1.35-1.89-.02-.88.36-1.55,1.1-2.03,1.03-.67,3.01-.49,3.9.49-.09.17-.18.35-.29.52-.15.23-.24.26-.49.16-.1-.04-.19-.09-.27-.15-.48-.33-1.01-.41-1.57-.37-.59.05-1.27.51-1.17,1.34.03.24.12.44.31.57.23.16.49.31.75.42.39.16.8.25,1.19.41.33.13.65.28.94.47.51.34.76.83.78,1.46.01.61-.09,1.17-.45,1.67-.47.67-1.15.99-1.93,1.08-1.14.13-2.15-.18-3.02-.93-.04-.03-.06-.08-.12-.14Z"/>
        <path class="cls-1" d="M151.34,36.59v3.42c-.31.11-.85.13-1.28.03v-8.18c.26-.08,4.33-.11,5.2-.04v.99h-3.9v2.75c1.09.02,2.18-.01,3.32,0v1.01h-3.34Z"/>
        <path class="cls-1" d="M78.73,40.08h-1.28c-.02-2.42.02-4.81-.03-7.25h-2.65c0-.35,0-.66,0-.97.27-.08,6.1-.1,6.64,0v.95c-.89.06-1.75,0-2.67.04-.02,1.2,0,2.4-.01,3.6,0,1.2,0,2.4,0,3.65Z"/>
        <path class="cls-1" d="M198.91,32.83h-2.63c-.09-.34-.05-.66-.03-1h6.59v1h-2.65c-.03,2.43,0,4.83-.01,7.25h-1.27v-7.25Z"/>
        <path class="cls-1" d="M105.3,40.09h-1.27v-7.23c-.9-.05-1.77,0-2.67-.03v-1h6.58c.05.32.03.64.01,1.01-.45.02-.89,0-1.33,0-.43,0-.86,0-1.33,0v7.25Z"/>
        <path class="cls-1" d="M242.31,31.83v1h-2.65c-.03.43-.01.83-.02,1.23,0,.39,0,.78,0,1.18s0,.81,0,1.22,0,.81,0,1.22c0,.39,0,.78,0,1.18,0,.4,0,.81,0,1.24h-1.23v-7.23c-.91-.04-1.79,0-2.69-.02v-1h6.58Z"/>
        <path class="cls-1" d="M58.78,40.05v-8.23h1.26v7.21h3.55v1c-.28.08-4.32.1-4.82.02Z"/>
        <path class="cls-1" d="M84.16,34.32c.07-.11.12-.22.18-.32.35-.59.4-1.21.14-1.84-.03-.08-.07-.17-.11-.25-.08-.18-.02-.31.15-.39.2-.09.41-.17.64-.27.35.51.45,1.06.41,1.65-.04.55-.26,1.03-.61,1.46-.32.38-.41.38-.79-.04Z"/>
      </g>
    </g>
  </g>
</svg>