<svg id="Group_294" data-name="Group 294" xmlns="http://www.w3.org/2000/svg" xmlns:xlink="http://www.w3.org/1999/xlink" width="199.108" height="36.776" viewBox="0 0 199.108 36.776">
  <defs>
    <clipPath id="clip-path">
      <rect id="Rectangle_220" data-name="Rectangle 220" width="199.108" height="36.776" fill="#bbc3d0"/>
    </clipPath>
  </defs>
  <g id="Group_293" data-name="Group 293" clip-path="url(#clip-path)">
    <path id="Path_1452" data-name="Path 1452" d="M17.079,17.21H5.541l-3,5.883a1.08,1.08,0,0,0,.607,1.632v.19H0v-.152a2.78,2.78,0,0,0,1.9-1.67L12.714,1.8l10.74,21.291a2.781,2.781,0,0,0,1.9,1.67v.152H19.431v-.19a1.08,1.08,0,0,0,.607-1.632ZM5.807,16.641H16.775L11.31,5.825Z" transform="translate(0 -1.233)" fill="#bbc3d0"/>
    <path id="Path_1453" data-name="Path 1453" d="M95.621,41.154a3.332,3.332,0,0,0,1.366-2.429v-8.35a3.638,3.638,0,0,0-3.719-3.757A4.881,4.881,0,0,0,89.434,28.9v9.83A3.332,3.332,0,0,0,90.8,41.154v.19H85.032v-.19A3.331,3.331,0,0,0,86.4,38.725V29.009a3.33,3.33,0,0,0-1.366-2.429v-.19l4.4-.569v2.163a6.19,6.19,0,0,1,4.782-2.163c3.074,0,5.807,2.049,5.807,4.9v8.008a3.33,3.33,0,0,0,1.366,2.429v.19H95.621Z" transform="translate(-58.161 -17.661)" fill="#bbc3d0"/>
    <path id="Path_1454" data-name="Path 1454" d="M144.908,23.1c-.038,2.467.721,4.934,2.125,6.11.114.114.152.19.114.3a.443.443,0,0,1-.607.152A6.983,6.983,0,0,1,141.8,23.1c.038-3.339,2.5-6.566,7.059-6.566,3.3,0,5.731-1.366,6.642-4.289v3.036a10.02,10.02,0,0,1-4.137,1.594,5.833,5.833,0,0,1,4.061,5.921c0,8.729-11.424,9.753-11.424,15.978,0,3.8,3.112,5.731,6.224,5.731,4.44,0,6.414-3.074,6.414-5.958a4.854,4.854,0,0,0-4.441-5.086c-.228,0-.3-.228-.152-.341a2.941,2.941,0,0,1,1.708-.532c2.049,0,4.44,1.822,4.44,5.124,0,3.492-2.543,7.439-8.729,7.439-4.25,0-8.463-2.429-8.463-7.173,0-7.439,11.462-7.7,11.462-16.281,0-2.467-1.1-4.592-3.605-4.592-2.695,0-3.947,2.922-3.947,6" transform="translate(-96.441 -8.379)" fill="#bbc3d0"/>
    <path id="Path_1455" data-name="Path 1455" d="M207.354,36.713v3.036a8.062,8.062,0,0,1-5.769,2.163c-5.086,0-8.463-3.188-8.463-8.007,0-4.858,3.112-8.084,7.78-8.084,3.871,0,6.452,2.163,6.452,6.262H196.272a13.615,13.615,0,0,0-.152,1.822c0,4.44,2.277,7.438,5.655,7.438a5.882,5.882,0,0,0,5.579-4.63m-5.579-10.171c-2.619,0-4.782,1.973-5.427,4.972h9.26c.683,0,1.139-.455.987-1.1a4.882,4.882,0,0,0-4.82-3.871" transform="translate(-132.093 -17.661)" fill="#bbc3d0"/>
    <path id="Path_1456" data-name="Path 1456" d="M245.565,0V21.063a3.331,3.331,0,0,0,1.366,2.429v.19h-5.769v-.19a3.331,3.331,0,0,0,1.366-2.429V3.188A3.332,3.332,0,0,0,241.163.759V.569Z" transform="translate(-164.952)" fill="#bbc3d0"/>
    <path id="Path_1457" data-name="Path 1457" d="M302.632,1.708V4.744c-1.784-2.429-4.061-4.175-7.439-4.175-2.581,0-4.061,1.594-4.061,3.416,0,7.211,14.384,5.313,14.46,13.511.038,5.048-5.047,6.755-8.767,6.755a17.134,17.134,0,0,1-9.185-2.77V18.444c2.24,3.074,5.807,5.2,9,5.238,3.871.038,6.034-2.391,6.072-4.9,0-6.831-14.574-5.655-14.574-13.207,0-3.947,3.757-5.579,7.135-5.579a17.77,17.77,0,0,1,7.363,1.708" transform="translate(-196.742)" fill="#bbc3d0"/>
    <path id="Path_1458" data-name="Path 1458" d="M355.946,41.685c-3.074,0-5.807-2.049-5.807-4.9v-7.78a3.331,3.331,0,0,0-1.366-2.429v-.19l4.4-.569v11.31a3.638,3.638,0,0,0,3.719,3.757,4.983,4.983,0,0,0,3.833-2.277v-9.6a3.233,3.233,0,0,0-1.366-2.429v-.19l4.4-.569v12.9c0,1.594.835,2.125,1.595,2.125a1.588,1.588,0,0,0,.607-.152v.19a4.383,4.383,0,0,1-2.619.8c-1.329,0-2.619-.569-2.619-2.049v-.114a6.189,6.189,0,0,1-4.782,2.163" transform="translate(-238.556 -17.661)" fill="#bbc3d0"/>
    <path id="Path_1459" data-name="Path 1459" d="M410.029,41.343a5.882,5.882,0,0,0,5.579-4.63v3.036a8.061,8.061,0,0,1-5.768,2.163c-4.061,0-8.464-2.315-8.464-8.007,0-5.617,4.479-8.084,8.425-8.084a8.063,8.063,0,0,1,5.769,2.163V31.02a5.977,5.977,0,0,0-5.617-4.63c-2.808,0-5.579,2.391-5.579,7.515,0,5.009,2.808,7.438,5.655,7.438" transform="translate(-274.535 -17.661)" fill="#bbc3d0"/>
    <path id="Path_1460" data-name="Path 1460" d="M458.672,41.343a5.882,5.882,0,0,0,5.579-4.63v3.036a8.063,8.063,0,0,1-5.769,2.163c-4.06,0-8.463-2.315-8.463-8.007,0-5.617,4.478-8.084,8.425-8.084a8.062,8.062,0,0,1,5.768,2.163V31.02a5.976,5.976,0,0,0-5.616-4.63c-2.809,0-5.58,2.391-5.58,7.515,0,5.009,2.809,7.438,5.655,7.438" transform="translate(-307.807 -17.661)" fill="#bbc3d0"/>
    <path id="Path_1461" data-name="Path 1461" d="M514.091,36.713v3.036a8.061,8.061,0,0,1-5.768,2.163c-5.086,0-8.464-3.188-8.464-8.007,0-4.858,3.112-8.084,7.78-8.084,3.871,0,6.451,2.163,6.451,6.262H503.009a13.615,13.615,0,0,0-.152,1.822c0,4.44,2.277,7.438,5.655,7.438a5.882,5.882,0,0,0,5.579-4.63m-5.579-10.171c-2.618,0-4.782,1.973-5.427,4.972h9.26c.683,0,1.139-.455.987-1.1a4.883,4.883,0,0,0-4.82-3.871" transform="translate(-341.896 -17.661)" fill="#bbc3d0"/>
    <path id="Path_1462" data-name="Path 1462" d="M554.421,41.912a11.969,11.969,0,0,1-5.921-1.784V37.092c2.012,2.543,4.479,4.251,6.187,4.251,1.973,0,3.264-1.139,3.264-2.847,0-3.909-9.45-3.3-9.45-8.235,0-2.657,2.391-4.441,6-4.441a10.322,10.322,0,0,1,5.124,1.253v3.036c-1.214-2.239-3.3-3.719-5.162-3.719s-3.074,1.063-3.074,2.694c0,3.719,9.222,2.961,9.412,8.16.114,2.808-2.429,4.668-6.375,4.668" transform="translate(-375.166 -17.661)" fill="#bbc3d0"/>
    <path id="Path_1463" data-name="Path 1463" d="M597.057,41.912a11.965,11.965,0,0,1-5.92-1.784V37.092c2.011,2.543,4.478,4.251,6.186,4.251,1.974,0,3.264-1.139,3.264-2.847,0-3.909-9.45-3.3-9.45-8.235,0-2.657,2.391-4.441,6-4.441a10.32,10.32,0,0,1,5.124,1.253v3.036c-1.214-2.239-3.3-3.719-5.161-3.719s-3.074,1.063-3.074,2.694c0,3.719,9.222,2.961,9.412,8.16.114,2.808-2.429,4.668-6.376,4.668" transform="translate(-404.329 -17.661)" fill="#bbc3d0"/>
    <path id="Path_1464" data-name="Path 1464" d="M269.517,92.929a3.065,3.065,0,0,1,3.2-3.308,2.81,2.81,0,0,1,2.212.959l-.329.448h-.128a2.079,2.079,0,0,0-1.755-.859c-1.069,0-1.763.557-1.763,1.919v1.7c0,1.316.649,1.9,1.763,1.9a2.307,2.307,0,0,0,1.791-.777h.128l.293.366a2.837,2.837,0,0,1-2.212.959,3.075,3.075,0,0,1-3.2-3.308" transform="translate(-184.346 -61.299)" fill="#bbc3d0"/>
    <path id="Path_1465" data-name="Path 1465" d="M304.612,97.8a2.478,2.478,0,1,1,2.476,2.394,2.272,2.272,0,0,1-2.476-2.394m3.692.575v-1.16a1.218,1.218,0,1,0-2.43,0v1.17a1.218,1.218,0,1,0,2.43-.009" transform="translate(-208.35 -65.256)" fill="#bbc3d0"/>
    <path id="Path_1466" data-name="Path 1466" d="M344.538,96.7v3.381h-1.216V96.739c0-.448-.192-.685-.6-.685a2.347,2.347,0,0,0-1.389.667v3.362h-1.215V95.515h1.215v.667a2.844,2.844,0,0,1,1.818-.777,1.212,1.212,0,0,1,1.389,1.3" transform="translate(-232.634 -65.256)" fill="#bbc3d0"/>
    <path id="Path_1467" data-name="Path 1467" d="M373.677,99.544l.247-.439h.1a2.617,2.617,0,0,0,1.681.576c.649,0,.987-.247.987-.649,0-1.078-2.805-.567-2.805-2.294,0-.8.777-1.334,1.965-1.334a2.831,2.831,0,0,1,1.672.494l-.21.448h-.1a2.18,2.18,0,0,0-1.361-.429c-.612,0-.959.21-.959.539,0,.959,2.942.539,2.942,2.248,0,1.023-.969,1.49-2.12,1.49a3.25,3.25,0,0,1-2.038-.649" transform="translate(-255.59 -65.256)" fill="#bbc3d0"/>
    <path id="Path_1468" data-name="Path 1468" d="M411.086,95.753v4.569H409.87v-.667a2.843,2.843,0,0,1-1.809.777c-.9,0-1.4-.448-1.4-1.3V95.753h1.215V99.1c0,.457.2.685.612.685a2.351,2.351,0,0,0,1.38-.667V95.753Z" transform="translate(-278.152 -65.494)" fill="#bbc3d0"/>
    <rect id="Rectangle_219" data-name="Rectangle 219" width="1.215" height="6.396" transform="translate(139.565 28.431)" fill="#bbc3d0"/>
    <path id="Path_1469" data-name="Path 1469" d="M468.246,97.406a2.514,2.514,0,0,1-1.188.256c-1.069,0-1.636-.475-1.636-1.362V93.5h-.74v-.32a3.073,3.073,0,0,0,1.59-1.471h.356v1.28H468.1V93.5h-1.471v3.015c0,.5.21.639.658.639a1.278,1.278,0,0,0,.7-.2h.091Z" transform="translate(-317.837 -62.724)" fill="#bbc3d0"/>
    <path id="Path_1470" data-name="Path 1470" d="M494.575,90.493a.7.7,0,1,1,.695.64.64.64,0,0,1-.695-.64m.092,1.225h1.215v4.569h-1.215Z" transform="translate(-338.282 -61.458)" fill="#bbc3d0"/>
    <path id="Path_1471" data-name="Path 1471" d="M524.122,96.7v3.381h-1.216V96.739c0-.448-.191-.685-.6-.685a2.348,2.348,0,0,0-1.389.667v3.362H519.7V95.515h1.216v.667a2.844,2.844,0,0,1,1.818-.777,1.212,1.212,0,0,1,1.389,1.3" transform="translate(-355.467 -65.256)" fill="#bbc3d0"/>
    <path id="Path_1472" data-name="Path 1472" d="M558.564,100.275c0,1.069-1.1,1.471-2.632,1.471-1.727,0-2.412-.4-2.412-1.16a1.052,1.052,0,0,1,.347-.74.818.818,0,0,1-.246-.621,1.334,1.334,0,0,1,.667-1.033,1.365,1.365,0,0,1-.667-1.225c0-1.06.877-1.562,2.038-1.562a2.43,2.43,0,0,1,1.443.393l1.371-.393h.082V96.2h-1.078a1.541,1.541,0,0,1,.192.768c0,1.051-.868,1.544-2.01,1.544a3.179,3.179,0,0,1-.969-.137.517.517,0,0,0-.265.411c0,.228.128.4.6.4h2.029c.877,0,1.508.356,1.508,1.087m-.951.311c0-.283-.21-.411-.8-.411h-1.737a2.6,2.6,0,0,1-.822-.109.728.728,0,0,0-.137.429c0,.484.521.74,1.818.74,1.27,0,1.681-.265,1.681-.649m-2.851-3.381c0,.512.247.8.9.8.63,0,.859-.293.859-.8v-.457a.747.747,0,0,0-.859-.841c-.649,0-.9.329-.9.841Z" transform="translate(-378.6 -65.256)" fill="#bbc3d0"/>
  </g>
</svg>
