<?xml version="1.0" encoding="UTF-8"?>
<svg id="Layer_2" data-name="Layer 2" xmlns="http://www.w3.org/2000/svg" viewBox="0 0 196.7 297.43">
  <defs>
    <style>
      .cls-1 {
        fill: #17ce17;
        opacity: .53;
      }

      .cls-2 {
        fill: #fff;
        isolation: isolate;
      }

      .cls-3 {
        fill: #bbc3d0;
      }
    </style>
  </defs>
  <g id="Layer_2-2" data-name="Layer 2">
    <g>
      <path class="cls-3" d="M52.35,52.01h0s-16.49-6.19-16.49-6.19c-1.11-.42-2.35-.27-3.33.38l-23.82,15.88c-1.35.9-1.95,2.57-1.48,4.12l8.66,28.91,9.39,31.37,7.57,25.27c.27.91.89,1.68,1.72,2.15l22.08,12.4,24.89,13.99,26.68,14.99c1.27.71,2.85.61,4.01-.27l23.23-17.47c1.16-.87,1.7-2.34,1.38-3.75l-2.84-12.64,9.16-6.75,21.34-15.7c.51-.38.92-.88,1.18-1.46l7.45-16.66,9.35-20.92,10.49-23.45c.65-1.46.29-3.18-.91-4.24l-27.04-24.17-28.6-25.56L112.56.94c-1.21-1.08-2.98-1.24-4.37-.4l-23.77,14.5-28.4,17.33c-.97.59-1.61,1.6-1.74,2.72l-1.92,16.86h0s0,.06,0,.06Z"/>
      <path class="cls-2" d="M59.52,32.33l23.51-14.34c.7-.42,1.59-.34,2.19.21l21.46,19.41c.88.8.79,2.21-.2,2.88l-22.69,15.49c-.71.48-1.65.41-2.28-.17l-22.28-20.56c-.9-.83-.75-2.29.29-2.92Z"/>
      <path class="cls-2" d="M89.5,14.04l19.65-11.99c.69-.42,1.58-.34,2.18.2l20.41,18.24c.89.8.8,2.22-.19,2.89l-18.89,12.89c-.7.48-1.64.41-2.27-.16l-21.17-19.15c-.91-.82-.77-2.29.28-2.93Z"/>
      <path class="cls-2" d="M116.13,38.25l18.93-12.92c.7-.48,1.63-.42,2.26.15l23.17,20.7c.87.77.81,2.15-.13,2.85l-18.35,13.7c-.7.53-1.68.48-2.33-.11l-23.74-21.48c-.88-.8-.79-2.21.2-2.88Z"/>
      <path class="cls-2" d="M145.3,64.74l18.39-13.72c.7-.52,1.67-.48,2.33.1l23.53,21.03c.87.77.81,2.15-.12,2.84l-18.5,13.88c-.7.53-1.68.48-2.34-.11l-23.42-21.18c-.86-.78-.79-2.15.13-2.84Z"/>
      <path class="cls-2" d="M120.13,91.44l-1.53-6.78,20.77-15.49c.7-.53,1.68-.48,2.33.11l23.43,21.2c.86.78.79,2.14-.13,2.84l-22.41,16.81c-.71.53-1.7.48-2.35-.12l-20.12-18.56Z"/>
      <path class="cls-2" d="M169.79,93.97l18-13.27c.48-.36,1.13.15.89.71l-8.43,19.04c-.04.09-.1.17-.18.23l-16.93,12.8c-.48.36-1.13-.14-.89-.7l7.36-18.57c.04-.1.11-.18.19-.24Z"/>
      <path class="cls-2" d="M142.89,114.38l20.73-15.55c.48-.36,1.12.15.89.7l-7.93,18.78c-.04.1-.1.18-.19.24l-19.45,14.68c-.47.35-1.11-.12-.9-.67l6.65-17.91c.04-.11.11-.2.2-.26Z"/>
      <path class="cls-2" d="M160.15,117.42c4.81-3.64,13.39-9.98,16.83-12.59.48-.37,1.13.15.89.71l-6.14,13.77c-.04.09-.1.17-.18.23l-16.34,12.48c-.49.37-1.15-.16-.89-.71l5.66-13.66c.04-.09.1-.16.18-.22Z"/>
      <path class="cls-2" d="M152.87,135.32l16.15-12.33c.49-.37,1.14.15.89.71l-6.01,13.15c-.04.09-.1.17-.18.23l-15.23,11.37c-.48.36-1.12-.15-.89-.7l5.1-12.19c.04-.09.1-.18.18-.24Z"/>
      <path class="cls-2" d="M54.29,50.79l1.16-10.16c.17-1.5,1.97-2.16,3.07-1.14l24.17,22.3-28.4-10.99Z"/>
      <path class="cls-2" d="M13.08,61.33l20.46-13.64c.49-.33,1.11-.4,1.67-.19l14.21,5.33c1.4.52,1.62,2.41.38,3.25l-20.88,14.07c-.51.35-1.17.41-1.74.17l-13.79-5.76c-1.35-.57-1.53-2.41-.31-3.23Z"/>
      <path class="cls-2" d="M34.89,70.44l21.19-14.28c.5-.34,1.13-.41,1.69-.19l17.75,6.87c1.36.53,1.6,2.36.41,3.21l-20.84,14.96c-.52.37-1.19.45-1.78.2l-18.09-7.56c-1.35-.56-1.53-2.4-.32-3.22Z"/>
      <path class="cls-2" d="M60.81,81.32l21.06-15.12c.5-.36,1.16-.45,1.74-.22l24.17,9.36c1.38.53,1.6,2.4.38,3.23l-22.33,15.32c-.51.35-1.17.42-1.75.18l-22.9-9.56c-1.33-.55-1.53-2.35-.36-3.19Z"/>
      <path class="cls-2" d="M17.24,93.39l-7.39-24.66c-.24-.81.56-1.53,1.34-1.21l14.77,6.17c.54.23.96.69,1.13,1.25l7.58,25.01c.25.82-.59,1.56-1.37,1.2l-15.52-7.14c-.26-.12-.46-.35-.54-.62Z"/>
      <path class="cls-2" d="M26.65,124.81l-7.28-24.3c-.25-.82.59-1.55,1.37-1.19l15.15,6.97c.51.24.9.68,1.06,1.22l7.46,24.61c.25.84-.62,1.57-1.4,1.18l-15.86-7.9c-.25-.12-.43-.34-.51-.61Z"/>
      <path class="cls-2" d="M34.67,151.59l-5.83-19.45c-.25-.84.62-1.57,1.4-1.18l15.51,7.72c.49.24.85.68,1.01,1.2l6.15,20.31c.26.86-.66,1.6-1.44,1.16l-16.34-9.18c-.23-.13-.39-.34-.47-.58Z"/>
      <path class="cls-2" d="M58.04,164.72l-6.44-21.25c-.25-.84.62-1.57,1.4-1.18l17.84,8.88c.5.25.87.7,1.02,1.24l6.13,21.89c.24.86-.67,1.57-1.45,1.14l-18.04-10.14c-.22-.13-.39-.33-.47-.58Z"/>
      <path class="cls-2" d="M82.95,178.7l-6.39-22.82c-.23-.83.63-1.55,1.41-1.16l22.06,10.98c.52.26.9.73,1.04,1.29l5.93,23.63c.21.85-.69,1.54-1.46,1.11l-22.11-12.42c-.23-.13-.4-.35-.47-.6Z"/>
      <path class="cls-2" d="M88.3,96.54l23.14-15.87c1.07-.74,2.55-.16,2.83,1.11l2.47,11,3.66,16.25c.16.73-.13,1.49-.75,1.92l-22.5,15.6c-1.06.73-2.52.18-2.83-1.06l-6.77-26.97c-.19-.75.11-1.53.74-1.96Z"/>
      <path class="cls-2" d="M39.54,103.65l-7.81-25.78c-.24-.81.56-1.53,1.34-1.21l19.03,7.95c.56.23.98.71,1.14,1.29l7.27,25.97c.23.82-.61,1.53-1.38,1.18l-19.06-8.77c-.26-.12-.45-.34-.54-.62Z"/>
      <path class="cls-2" d="M65.27,115.48l-7.5-26.75c-.23-.8.58-1.51,1.34-1.19l23.66,9.88c.58.24,1,.74,1.15,1.34l6.79,27.03c.2.81-.62,1.5-1.38,1.15l-23.52-10.82c-.27-.12-.46-.36-.54-.64Z"/>
      <path class="cls-2" d="M121.51,97.6l16.74,15.44c.55.5.74,1.29.48,1.99l-7.6,20.65h0l-.64,1.75-8.97-39.83Z"/>
      <path class="cls-2" d="M96.96,131.04l22.33-15.48c1.07-.74,2.56-.16,2.84,1.11l5.92,26.34c.16.72-.12,1.47-.73,1.9l-21.66,15.41c-1.06.75-2.53.21-2.85-1.05l-6.59-26.26c-.19-.74.11-1.52.74-1.96Z"/>
      <path class="cls-2" d="M74.53,148.63l-7.31-26.11c-.23-.82.61-1.53,1.38-1.18l22.88,10.53c.54.25.94.73,1.09,1.31l6.59,26.23c.21.83-.65,1.52-1.41,1.14l-22.7-11.3c-.25-.13-.44-.35-.52-.62Z"/>
      <path class="cls-2" d="M49.38,136.13l-7.67-25.34c-.25-.82.59-1.56,1.37-1.2l18.46,8.5c.53.24.92.7,1.08,1.26l7.11,25.39c.23.83-.63,1.55-1.41,1.16l-18.43-9.17c-.25-.12-.43-.34-.51-.6Z"/>
      <path class="cls-2" d="M114.56,74.11l-22.75-8.81-4.81-4.44c-.87-.8-.77-2.2.21-2.87l22.76-15.53c.7-.48,1.64-.41,2.27.16l23.98,21.69c.86.78.79,2.15-.13,2.84l-18.34,13.68-.92-4.09c-.27-1.2-1.12-2.18-2.26-2.62Z"/>
      <path class="cls-2" d="M131.93,143.88l2.57-6.78c2.07-1.52,11.05-8.21,20.5-15.35.16-.12.37.05.29.23l-6.09,14.48-16.17,12.35-1.11-4.92Z"/>
      <path class="cls-2" d="M105.44,164.89l21.49-15.29c1.07-.76,2.57-.19,2.86,1.09l5.3,23.53c.16.71-.11,1.44-.69,1.87l-20.8,15.64c-1.05.79-2.57.25-2.89-1.02l-6-23.88c-.18-.73.1-1.51.72-1.95Z"/>
      <path class="cls-2" d="M133.39,150.07l14.16-10.82c.3-.23.71.09.56.43l-5.48,12.89-7.49,5.51-1.74-8.02Z"/>
      <g>
        <path class="cls-3" d="M192.84,236.35c.05-4.09.11-8.19.16-12.28-2.15.02-4.29.05-6.44.07-.11,4.58-.22,8.24-.32,12.81.04.89-.4,1.71-1.07,2.26-1.09.89-2.18.76-2.53.79h-25.11c-.12-2.03-.73-7.75-5.22-12.02-.31-.3-1.59-1.49-3.37-2.43-7.48-3.96-16.72.21-18.38.99,1.02,1.69,2.04,3.38,3.05,5.08,1.11-.63,3.08-1.55,5.67-1.79,1.32-.12,4.36-.41,7.16,1.27,4.44,2.66,4.92,8.21,4.97,8.87-11.8.01-23.6.02-35.41.03.06-.75.56-8.54-5.25-13.02-3.63-2.8-7.67-2.72-8.93-2.68-6.72.22-12.97,5.26-16.43,12.69-.03-2.4-.05-4.79-.08-7.19h-6.44c0,3.62.02,7.25.03,10.87-3.62,0-7.25.02-10.87.02-.57,0-1.14-.12-1.65-.36-.57-.27-1.21-.68-1.82-1.28-2.22-2.21-2.06-5.23-2.02-5.76v-8.89h-6.44v10.84c.02.31.07,2.08-1.25,3.6-1.39,1.6-4.31,1.45-4.54,1.45-8.05.06-16.09.13-24.14.19-.53,0-1.06-.07-1.57-.24-.59-.2-1.29-.54-1.96-1.11-2.18-1.86-2.17-4.63-2.17-5.05-.02-1.45-.04-2.89-.06-4.34-.02-1.78-.05-3.56-.08-5.33h-6.44c0,.4-.05,15.99-.06,18.48-.1,1.2-.54,4.48-3.11,7.4-3.74,4.23-8.98,4.3-9.82,4.3,1.42,1.55,2.83,3.1,4.25,4.65,1.31-.08,3.43-.36,5.79-1.46.47-.22,2.8-1.33,4.87-3.52,4.21-4.45,4.43-10.28,4.44-11.84.21.51.66,1.43,1.59,2.27.4.37.82.64,1.2.85.68.37,1.45.54,2.23.55,9.67.04,19.35.09,29.02.13.62,0,2.63-.11,4.45-1.61,1.41-1.16,1.98-2.57,2.2-3.2.14.56.52,1.82,1.64,2.98.73.75,1.52,1.2,2.12,1.45.41.18.86.26,1.31.26,14.29.14,113.75,1.06,121.13.03.68-.09,2.53-.35,3.94-1.76,1.96-1.96,1.73-5.41,1.73-8.01ZM109.83,240.67h-21.18c.57-1.28,4.28-9.24,11.56-10.47,1.18-.2,3.47-.55,5.64.69,2.88,1.65,4.38,5.46,3.98,9.78Z"/>
        <rect class="cls-3" x="98.64" y="213.53" width="5.97" height="5.97"/>
        <rect class="cls-3" x="177.76" y="213.53" width="5.97" height="5.97"/>
        <rect class="cls-3" x="186.5" y="213.53" width="5.97" height="5.97"/>
        <rect class="cls-3" x="50.36" y="249.49" width="5.97" height="5.97"/>
        <rect class="cls-3" x="59.11" y="249.49" width="5.97" height="5.97"/>
      </g>
      <path class="cls-1" d="M186.22,267.31h-.24c.1,0,.2,0,.3,0-.02,0-.04,0-.06,0Z"/>
      <g>
        <polygon class="cls-3" points="24.1 267.31 24.1 273.49 15.45 273.49 15.45 297.43 8.81 297.43 8.81 273.49 0 273.49 0 267.31 24.1 267.31"/>
        <polygon class="cls-3" points="80.36 267.31 80.36 297.43 73.72 297.43 73.72 285.43 64.14 285.43 64.14 297.43 57.5 297.43 57.5 267.31 64.14 267.31 64.14 279.25 73.72 279.25 73.72 267.31 80.36 267.31"/>
        <polygon class="cls-3" points="139.41 291.38 139.41 297.43 118.95 297.43 118.95 267.31 138.72 267.31 138.72 273.49 125.59 273.49 125.59 279.25 137.26 279.25 137.26 285.43 125.59 285.43 125.59 291.38 139.41 291.38"/>
        <polygon class="cls-3" points="166.51 291.38 166.51 297.43 146.05 297.43 146.05 267.31 165.82 267.31 165.82 273.49 152.69 273.49 152.69 279.25 164.36 279.25 164.36 285.43 152.69 285.43 152.69 291.38 166.51 291.38"/>
        <path class="cls-3" d="M49.95,291.38l-1.95-5.95-1.25-3.8-.78-2.38-1.89-5.76-2.02-6.18h-7.91l-2.02,6.18-1.88,5.76-.78,2.38-1.24,3.8-1.95,5.95-1.98,6.05h6.52l1.98-6.05h10.62l1.98,6.05h6.53l-1.98-6.05ZM34.75,285.43l1.24-3.8.78-2.38,1.33-4.09,1.34,4.09.78,2.38,1.24,3.8h-6.72Z"/>
        <path class="cls-3" d="M88.76,267.31v30.12h13.3c5.28,0,9.56-4.28,9.56-9.56v-11.01c0-5.28-4.28-9.56-9.56-9.56h-13.3ZM100.99,291.38h-5.59v-17.89h5.59c2.2,0,3.98,1.78,3.98,3.98v9.92c0,2.2-1.78,3.98-3.98,3.98Z"/>
        <path class="cls-3" d="M189.44,286.39c6.03-2.75,6.21-7.5,6.21-9.42,0-5.23-4.17-9.5-9.37-9.65-.1,0-.2,0-.3,0h-12.83v30.12h6.64v-10.01h2.91l2.62,3.96,4.01,6.05h7.37l-7.26-11.04ZM185.3,281.63h-5.51v-8.14h5.51c.26,0,1.89.09,2.8,1.35.52.73.55,1.51.57,2.19.02.69.07,2.22-1.05,3.41-.82.86-1.83,1.11-2.31,1.19Z"/>
      </g>
    </g>
  </g>
</svg>