<svg id="Group_328" data-name="Group 328" xmlns="http://www.w3.org/2000/svg" xmlns:xlink="http://www.w3.org/1999/xlink" width="132.267" height="57.94" viewBox="0 0 132.267 57.94">
  <defs>
    <clipPath id="clip-path">
      <rect id="Rectangle_247" data-name="Rectangle 247" width="132.267" height="57.94" fill="#bbc3d0"/>
    </clipPath>
  </defs>
  <path id="Path_1510" data-name="Path 1510" d="M5.759,109.342l1.632,10.9H4.127Zm-2.31-3.82L0,127.078H3.11l.585-3.911H7.853l.585,3.911h3.418L8.407,105.522Z" transform="translate(0 -69.416)" fill="#bbc3d0"/>
  <g id="Group_327" data-name="Group 327">
    <g id="Group_326" data-name="Group 326" clip-path="url(#clip-path)">
      <path id="Path_1511" data-name="Path 1511" d="M42.178,105.525v16.629c0,1.54.677,2.094,1.755,2.094s1.755-.554,1.755-2.094V105.525h3.2v16.413c0,3.449-1.724,5.42-5.05,5.42s-5.05-1.971-5.05-5.42V105.525Z" transform="translate(-25.518 -69.418)" fill="#bbc3d0"/>
      <path id="Path_1512" data-name="Path 1512" d="M72.181,105.525h10.47V108.6H79.11v18.477H75.722V108.6H72.181Z" transform="translate(-47.483 -69.418)" fill="#bbc3d0"/>
      <path id="Path_1513" data-name="Path 1513" d="M106.29,110.224c0-3.449,1.817-5.42,5.142-5.42s5.142,1.971,5.142,5.42v11.209c0,3.449-1.817,5.42-5.142,5.42s-5.142-1.971-5.142-5.42Zm3.387,11.425c0,1.54.677,2.125,1.755,2.125s1.755-.585,1.755-2.125v-11.64c0-1.54-.677-2.125-1.755-2.125s-1.755.585-1.755,2.125Z" transform="translate(-69.921 -68.944)" fill="#bbc3d0"/>
      <path id="Path_1514" data-name="Path 1514" d="M146.04,118.508l-1.048,1.974v6.63H141.6V105.527h3.392v9.4l4.44-9.4h3.392l-4.718,9.62,4.718,11.965h-3.484Z" transform="translate(-93.149 -69.419)" fill="#bbc3d0"/>
      <path id="Path_1515" data-name="Path 1515" d="M177.47,110.231c0-3.454,1.819-5.427,5.15-5.427s5.15,1.974,5.15,5.427v11.223c0,3.453-1.819,5.427-5.15,5.427s-5.15-1.974-5.15-5.427Zm3.392,11.44c0,1.542.678,2.128,1.757,2.128s1.758-.586,1.758-2.128V110.016c0-1.542-.679-2.128-1.758-2.128s-1.757.586-1.757,2.128Z" transform="translate(-116.746 -68.944)" fill="#bbc3d0"/>
      <path id="Path_1516" data-name="Path 1516" d="M213.158,110.231c0-3.454,1.819-5.427,5.15-5.427s5.15,1.974,5.15,5.427v11.223c0,3.453-1.819,5.427-5.15,5.427s-5.15-1.974-5.15-5.427Zm3.392,11.441c0,1.542.678,2.128,1.758,2.128s1.758-.586,1.758-2.128V110.016c0-1.542-.678-2.128-1.758-2.128s-1.758.586-1.758,2.128Z" transform="translate(-140.223 -68.944)" fill="#bbc3d0"/>
      <path id="Path_1517" data-name="Path 1517" d="M256.749,127.112a6.64,6.64,0,0,1-.308-2.652v-3.392c0-2-.679-2.745-2.22-2.745h-1.173v8.789h-3.392V105.526h5.119c3.515,0,5.026,1.635,5.026,4.965v1.7c0,2.22-.709,3.67-2.22,4.38,1.7.709,2.251,2.343,2.251,4.595v3.33a6.353,6.353,0,0,0,.37,2.621Zm-3.7-18.5v6.63h1.326c1.266,0,2.035-.555,2.035-2.282V110.83c0-1.542-.524-2.22-1.727-2.22Z" transform="translate(-164.232 -69.419)" fill="#bbc3d0"/>
      <path id="Path_1518" data-name="Path 1518" d="M285.078,110.231c0-3.454,1.819-5.427,5.15-5.427s5.15,1.974,5.15,5.427v11.223c0,3.453-1.819,5.427-5.15,5.427s-5.15-1.974-5.15-5.427Zm3.392,11.44c0,1.542.678,2.128,1.758,2.128s1.759-.588,1.759-2.127V110.016c0-1.542-.679-2.128-1.758-2.128s-1.758.586-1.758,2.128Z" transform="translate(-187.534 -68.944)" fill="#bbc3d0"/>
      <path id="Path_1519" data-name="Path 1519" d="M325.134,104.8c3.3,0,5,1.974,5,5.427v.678h-3.207v-.894c0-1.542-.616-2.128-1.7-2.128s-1.7.586-1.7,2.128c0,4.44,6.63,5.273,6.63,11.44,0,3.454-1.727,5.427-5.057,5.427s-5.057-1.973-5.057-5.427v-1.326h3.207v1.543c0,1.542.678,2.1,1.757,2.1s1.758-.555,1.758-2.1c0-4.441-6.629-5.273-6.629-11.44,0-3.454,1.7-5.427,5-5.427" transform="translate(-210.537 -68.943)" fill="#bbc3d0"/>
      <path id="Path_1520" data-name="Path 1520" d="M358.676,127.112h-3.392V105.526h3.392v9.251h3.855v-9.251h3.454v21.586h-3.454V117.86h-3.855Z" transform="translate(-233.718 -69.419)" fill="#bbc3d0"/>
      <path id="Path_1521" data-name="Path 1521" d="M154.091,69.592a1.958,1.958,0,1,0,1.958,1.958,1.958,1.958,0,0,0-1.958-1.958" transform="translate(-100.078 -45.78)" fill="#bbc3d0"/>
      <path id="Path_1522" data-name="Path 1522" d="M141.2,5.779c-4.633,2.327-9.615,3.63-14.59,4.951-3.713.985-7.326,2.067-8.818,6.371a.007.007,0,0,1-.007-.007s-.123.332-.257.777L113.1,15.593a6.49,6.49,0,0,0-5.937,0l-4.421,2.279c-.137-.445-.26-.777-.26-.777a.012.012,0,0,1,0,.007c-1.492-4.3-5.109-5.386-8.821-6.371C88.687,9.41,83.705,8.106,79.076,5.779A24.42,24.42,0,0,1,71.011,0c.089.479.144.958.27,1.423a11.963,11.963,0,0,0,5.591,7.271A43.649,43.649,0,0,0,88.54,13.156c1.5.4,3.018.749,4.5,1.239a85.043,85.043,0,0,1-16.27-3.127c4.14,5.786,10.364,5.187,16.369,5.588-1.707.175-3.411.4-5.122.51s-3.446.1-5.43.154a8.68,8.68,0,0,0,6.279,2.34c2.214-.14,4.4-.712,6.676-.944-2.313,1.064-4.63,2.125-6.922,3.179,2.139,1.923,4.4,1.642,8.185-1.006a5.759,5.759,0,0,0-2.039,3.446c-.027.133-.044.27-.062.407,0,.024-.01.051-.014.079a6.076,6.076,0,0,0,9.7,5.6c.024-.021.051-.038.075-.058.123-.1.236-.2.352-.3.048-.044.1-.089.147-.133.075-.075.147-.154.219-.233s.151-.157.222-.24c.024-.031.044-.065.072-.1.089-.113.181-.222.267-.342a5.48,5.48,0,0,0,8.78,0c.082.12.174.229.267.342.024.031.048.065.072.1.068.082.144.161.219.24s.144.157.222.233c.048.044.1.089.147.133q.169.154.349.3c.027.021.051.038.075.058a6.064,6.064,0,0,0,9.7-5.6.549.549,0,0,0-.01-.079c-.021-.137-.034-.274-.062-.407a5.748,5.748,0,0,0-2.043-3.446c3.791,2.648,6.046,2.929,8.188,1.006-2.3-1.054-4.609-2.115-6.922-3.179,2.279.233,4.462.8,6.672.944a8.675,8.675,0,0,0,6.279-2.34c-1.985-.051-3.706-.041-5.43-.154s-3.411-.335-5.119-.51c6-.4,12.229.2,16.369-5.588a85.077,85.077,0,0,1-16.273,3.127c1.485-.489,3-.835,4.5-1.239A43.561,43.561,0,0,0,143.4,8.694a11.963,11.963,0,0,0,5.591-7.271c.13-.465.181-.944.274-1.423A24.455,24.455,0,0,1,141.2,5.779M100.725,29.532a3.762,3.762,0,1,1,3.764-3.76,3.763,3.763,0,0,1-3.764,3.76m9.413-2.084a5.124,5.124,0,1,1,5.126-5.126,5.127,5.127,0,0,1-5.126,5.126m9.41,2.084a3.762,3.762,0,1,1,3.76-3.76,3.763,3.763,0,0,1-3.76,3.76m-9.41-10.378a3.168,3.168,0,1,0,3.168,3.168,3.168,3.168,0,0,0-3.168-3.168" transform="translate(-46.713)" fill="#bbc3d0"/>
      <path id="Path_1523" data-name="Path 1523" d="M209.1,69.59a1.959,1.959,0,1,0,1.957,1.957A1.964,1.964,0,0,0,209.1,69.59" transform="translate(-136.264 -45.779)" fill="#bbc3d0"/>
    </g>
  </g>
</svg>
