<?xml version="1.0" encoding="UTF-8"?>
<svg id="Layer_2" data-name="Layer 2" xmlns="http://www.w3.org/2000/svg" viewBox="0 0 175.33 57.97">
  <defs>
    <style>
      .cls-1 {
        fill: #bbc3d0;
      }
    </style>
  </defs>
  <g id="Layer_1-2" data-name="Layer 1">
    <g id="Group_338" data-name="Group 338">
      <path id="Path_1559" data-name="Path 1559" class="cls-1" d="M103.79,17.1v35.23c0,1.06-.41,2.08-1.12,2.86-.81.91-1.82,1.61-2.96,2.04-1.24.5-2.56.75-3.9.74-1.31,0-2.62-.23-3.85-.69-1.14-.41-2.17-1.09-3-1.97-.76-.81-1.21-1.86-1.26-2.97v-9.65c-.87.19-1.75.29-2.64.28-1.99.05-3.94-.48-5.63-1.53-1.51-.86-2.43-2.48-2.39-4.22V0c2.95,0,5.33,2.39,5.33,5.33h0v34.15c-.03.67.27,1.32.8,1.73,1.11.84,2.64.85,3.76.02.47-.38.75-.95.77-1.55v-19.91c-.03-.6-.31-1.17-.79-1.54-.52-.42-1.18-.65-1.85-.64h0c-.73,0-1.32-.59-1.32-1.32h1.32c.67,0,1.32-.22,1.85-.64.53-.42.83-1.06.8-1.73V3.47c.04-.68-.25-1.33-.78-1.75-.53-.42-1.19-.63-1.87-.62-.08,0-.15,0-.23,0-.57.04-1.06-.39-1.1-.96,0-.02,0-.05,0-.07.44-.05.88-.07,1.32-.07,1.97-.05,3.92.47,5.61,1.5,1.51.87,2.42,2.5,2.37,4.24v5.66c.04,1.29-.43,2.54-1.3,3.49-.94.97-2.13,1.67-3.44,2.03.58.17,1.14.4,1.67.68.75.35,1.41.87,1.92,1.52.53.62.89,1.38,1.04,2.18.08.38.13.77.13,1.16v32.3c-.01.64.3,1.24.82,1.6.56.41,1.23.62,1.93.61.66.01,1.3-.19,1.83-.58.51-.38.81-.99.78-1.63V22.46c0-2.96,2.4-5.36,5.36-5.36Z"/>
      <path id="Path_1560" data-name="Path 1560" class="cls-1" d="M24.77,28h-7.08c-1.95,0-3.54-1.58-3.54-3.54h0v-1.77c0-1.95,1.58-3.54,3.54-3.54h8.84c0,.98-.79,1.77-1.77,1.77h-7.08c-.98,0-1.77.79-1.77,1.77h0v1.77c0,.98.79,1.77,1.77,1.77h8.85c0,.98-.79,1.77-1.76,1.77,0,0,0,0,0,0M26.54,22.7h0c0,.98-.79,1.77-1.77,1.77h-5.31c-.98,0-1.77-.79-1.77-1.77h8.84Z"/>
      <path id="Path_1561" data-name="Path 1561" class="cls-1" d="M28.31,19.15h0c.98,0,1.77.79,1.77,1.77h0c0,.98.79,1.77,1.77,1.77h7.08v-1.77c0-.98.79-1.77,1.77-1.77h0v5.31c0,1.95-1.58,3.54-3.53,3.54,0,0,0,0,0,0h-7.08c-.98,0-1.77-.79-1.77-1.77h0s8.85,0,8.85,0c.86.12,1.65-.47,1.77-1.33.02-.15.02-.29,0-.44h-7.08c-1.95,0-3.54-1.58-3.54-3.54h0v-1.77Z"/>
      <path id="Path_1562" data-name="Path 1562" class="cls-1" d="M46,19.15h5.3c1.95,0,3.54,1.58,3.54,3.54v1.77c0,1.95-1.58,3.54-3.53,3.54,0,0,0,0,0,0h-5.3c-1.95,0-3.54-1.58-3.54-3.54h0v-1.77c0-1.95,1.58-3.54,3.54-3.54h0M44.23,22.69v1.77c0,.98.79,1.77,1.77,1.77h5.3c.98,0,1.77-.79,1.77-1.77h0v-1.77c0-.98-.79-1.77-1.77-1.77h-5.3c-.98,0-1.77.79-1.77,1.77h0"/>
      <path id="Path_1563" data-name="Path 1563" class="cls-1" d="M58.38,20.92v3.54c0,.98.79,1.77,1.77,1.77h7.08v-5.31c0-.98.79-1.77,1.77-1.77v8.85h-8.84c-1.95,0-3.54-1.58-3.54-3.54v-5.31c.98,0,1.77.79,1.77,1.77h0"/>
      <path id="Path_1564" data-name="Path 1564" class="cls-1" d="M2.32,34.31c0,.13-.02.27-.07.39-.05.11-.13.21-.23.29-.12.09-.25.15-.39.18-.18.04-.37.07-.56.06h-.53c-.1,0-.19-.02-.29-.03L0,35.19v-3.26c.07,0,.14-.01.22-.02s.16-.01.24-.01h.24s.24,0,.24,0c.17,0,.34.01.5.05.14.02.27.07.39.14.1.06.19.14.25.24.06.11.09.23.09.36,0,.1-.01.2-.05.3-.06.16-.17.29-.32.38-.07.04-.15.07-.23.09h0c.12.03.24.07.34.13.09.05.17.12.23.19.06.07.11.16.13.25.03.1.04.2.04.3M1.48,32.75c0-.08-.01-.17-.04-.25-.03-.06-.07-.12-.12-.16-.06-.04-.13-.07-.2-.09-.09-.02-.18-.03-.27-.03h-.09s-.05,0-.08,0v1.06h.22c.08,0,.16,0,.23-.02.06,0,.13-.03.18-.06.02-.01.04-.03.06-.05.02-.02.04-.05.05-.08.02-.04.03-.09.04-.13.01-.07.02-.13.01-.2M1.63,34.28c.01-.18-.06-.36-.19-.49-.16-.12-.36-.18-.56-.16h-.21v1.26h.05s.03.01.04.01h.16s.09,0,.13,0,.1,0,.14-.01c.04,0,.09-.01.13-.02.03,0,.06-.02.09-.03.03-.02.05-.03.07-.06.03-.03.05-.06.07-.1.02-.05.04-.1.05-.16.01-.08.02-.16.02-.24"/>
      <path id="Path_1565" data-name="Path 1565" class="cls-1" d="M6.87,35.2h-1.99v-3.3h1.92l-.03.34-1.21.02v1.07h1.14s-.03.32-.03.32l-1.11.03v1.18l1.34.03-.03.33Z"/>
      <path id="Path_1566" data-name="Path 1566" class="cls-1" d="M11.53,35.2l-.39-1.11h-1.24s-.41,1.11-.41,1.11h-.42l1.31-3.27.65-.11,1.22,3.38h-.72ZM11.04,33.78l-.5-1.42-.52,1.42h1.02Z"/>
      <path id="Path_1567" data-name="Path 1567" class="cls-1" d="M17.39,34.5c-.06.15-.16.28-.28.38-.14.12-.3.2-.47.26-.21.07-.43.1-.65.1-.19,0-.37-.02-.55-.06-.15-.04-.3-.1-.42-.2-.12-.1-.21-.22-.27-.36-.07-.17-.1-.36-.1-.54v-2.18h.67v2.24c0,.13.01.27.05.39.02.09.07.16.14.22.06.05.14.09.22.1.1.02.2.02.3.02.12,0,.25-.01.37-.04.09-.02.18-.06.26-.11.07-.06.12-.14.13-.23.02-.12.03-.25.03-.37v-2.23h.67v2.13c0,.16-.03.32-.1.47"/>
      <path id="Path_1568" data-name="Path 1568" class="cls-1" d="M20.93,35.2v-2.95l-1.01-.02.03-.33h2.67l-.03.33-.98.03v2.95h-.67Z"/>
      <rect id="Rectangle_254" data-name="Rectangle 254" class="cls-1" x="25.07" y="31.91" width=".67" height="3.3"/>
      <path id="Path_1569" data-name="Path 1569" class="cls-1" d="M29.21,35.2h-.67v-3.3h1.95l-.03.33-1.25.02v1.17h1.2s-.03.32-.03.32l-1.17.03v1.44Z"/>
      <path id="Path_1570" data-name="Path 1570" class="cls-1" d="M34.34,35.2h-.67v-1.27l-1.08-2.03h.77l.81,1.62.84-1.62h.41l-1.08,2.03v1.27Z"/>
      <rect id="Rectangle_255" data-name="Rectangle 255" class="cls-1" x="37.78" y="31.91" width=".67" height="3.3"/>
      <path id="Path_1571" data-name="Path 1571" class="cls-1" d="M43.95,35.22l-2.33-2.31h0c0,.19,0,.37.01.53v1.76h-.39v-3.32h.29l2.33,2.3h0c0-.18,0-.35,0-.5v-1.78h.39v3.31h-.29Z"/>
      <path id="Path_1572" data-name="Path 1572" class="cls-1" d="M49.11,33.93l-.73-.04.03-.27h1.38v1.35c-.09.04-.18.07-.28.1-.11.03-.23.06-.36.09s-.26.05-.4.07c-.13.02-.27.03-.4.03-.23,0-.45-.04-.66-.12-.17-.08-.33-.2-.44-.35-.12-.16-.2-.35-.25-.54-.05-.23-.08-.46-.08-.7,0-.24.04-.47.13-.69.08-.2.21-.38.37-.52.17-.15.36-.26.58-.33.24-.08.49-.12.74-.11.07,0,.14,0,.22,0s.16.01.24.02.16.02.23.03c.06,0,.12.02.18.03l-.12.48c-.06-.02-.13-.03-.21-.05s-.17-.03-.27-.05-.19-.03-.28-.04-.18-.01-.25-.01c-.11,0-.23,0-.34.03-.11.02-.21.06-.3.13-.05.04-.1.1-.12.17-.03.09-.06.17-.07.26-.02.11-.03.21-.03.32,0,.12,0,.23,0,.34-.02.35.04.69.17,1.01.09.22.31.36.55.35.06,0,.13,0,.2,0s.14-.01.21-.02l.19-.03c.06,0,.11-.02.15-.03v-.89Z"/>
      <path id="Path_1573" data-name="Path 1573" class="cls-1" d="M56.86,35.2h-.67v-1.27l-1.08-2.03h.77l.81,1.62.84-1.62h.41l-1.08,2.03v1.27Z"/>
      <path id="Path_1574" data-name="Path 1574" class="cls-1" d="M63.48,33.54c0,.24-.03.48-.1.71-.06.2-.17.38-.31.54-.15.15-.32.27-.52.34-.23.08-.48.12-.73.12-.25,0-.5-.04-.73-.12-.19-.07-.36-.19-.5-.35-.13-.16-.23-.34-.29-.54-.06-.23-.09-.46-.09-.7,0-.24.03-.47.1-.7.06-.19.16-.37.29-.53.14-.15.31-.26.5-.33.23-.08.48-.12.73-.12.25,0,.49.03.73.12.2.07.37.18.52.33.14.15.25.33.31.53.07.23.1.46.1.7M62.77,33.54c0-.18-.02-.36-.05-.54-.03-.14-.09-.28-.17-.41-.08-.11-.18-.2-.3-.26-.13-.06-.28-.09-.43-.09-.14,0-.27.01-.41.04-.11.02-.21.07-.3.13-.09.1-.15.23-.16.36-.04.25-.06.5-.05.76,0,.18.01.36.04.54.02.15.08.29.15.42.07.11.16.21.28.27.13.07.28.1.44.1.15,0,.3-.01.44-.05.1-.03.2-.07.29-.12.05-.04.08-.09.1-.14.03-.09.05-.17.07-.26.02-.1.03-.22.04-.35s.01-.26.01-.39"/>
      <path id="Path_1575" data-name="Path 1575" class="cls-1" d="M68.9,34.5c-.06.15-.16.28-.29.38-.14.12-.3.2-.47.26-.21.07-.43.1-.65.1-.19,0-.37-.02-.55-.06-.15-.04-.3-.1-.42-.2-.12-.1-.21-.22-.27-.36-.07-.17-.1-.36-.1-.54v-2.18h.67v2.24c0,.13.01.27.05.39.02.09.07.16.14.22.06.05.14.09.22.1.1.02.2.02.31.02.12,0,.25-.01.37-.04.09-.02.18-.06.26-.11.07-.06.12-.14.13-.23.02-.12.03-.25.03-.37v-2.23h.68v2.13c0,.16-.03.32-.1.47"/>
      <path id="Path_1576" data-name="Path 1576" class="cls-1" d="M12.07,23.08c.23-.38.34-.83.32-1.27,0-1.77-1.18-2.65-3.54-2.65H.89c-.49,0-.89.39-.89.88,0,0,0,0,0,0v7.08c0,.49.39.89.88.89,0,0,0,0,0,0h7.96c2.36,0,3.54-.88,3.54-2.65.02-.45-.09-.89-.32-1.27-.2-.3-.2-.69,0-.99M8.69,26.23H3.38c-.98,0-1.77-.79-1.77-1.77h8.84c0,.98-.79,1.77-1.77,1.77M1.61,22.69c0-.98.79-1.77,1.77-1.77h5.31c.98,0,1.77.79,1.77,1.77h0s-8.84,0-8.84,0Z"/>
      <path id="Path_1577" data-name="Path 1577" class="cls-1" d="M135.77,23.22c-.22,0-.42.08-.57.24-.31.32-.31.83,0,1.15.15.16.35.24.57.24.45.02.83-.34.85-.79.02-.45-.34-.83-.79-.85-.02,0-.04,0-.06,0"/>
      <path id="Path_1578" data-name="Path 1578" class="cls-1" d="M133.92,23.22c-.22,0-.42.08-.57.24-.32.32-.32.83,0,1.15.31.32.82.32,1.13.01,0,0,0,0,.01-.01.32-.32.32-.83,0-1.15-.15-.16-.36-.24-.57-.24"/>
      <path id="Path_1579" data-name="Path 1579" class="cls-1" d="M150.19,26.48c-.21,0-.42.08-.57.24-.31.32-.31.83,0,1.15.15.16.35.24.57.24.45.02.83-.34.85-.79.02-.45-.34-.83-.79-.85-.02,0-.04,0-.06,0"/>
      <path id="Path_1580" data-name="Path 1580" class="cls-1" d="M148.34,26.48c-.22,0-.42.08-.57.24-.32.32-.32.83,0,1.15.31.32.82.32,1.13.01,0,0,0,0,.01-.01.32-.32.32-.83,0-1.15-.15-.16-.36-.24-.57-.24"/>
      <path id="Path_1581" data-name="Path 1581" class="cls-1" d="M140.51,20.04c0,.36-.1.58-.3.67-.24.06-.48.08-.73.06h-22.65v-1.98c0-.8-.43-1.2-1.3-1.19h-2.4c-.87,0-1.3.4-1.3,1.19v2.39c0,.79.43,1.19,1.29,1.19h2.05v1.21c.03.27-.16.52-.43.56-.04,0-.09,0-.13,0h-1.18c-.88,0-1.59.71-1.59,1.59h0s3.43,0,3.43,0c.76.1,1.46-.43,1.57-1.2.02-.13.02-.26,0-.39v-1.77h23.65c.79.12,1.53-.42,1.65-1.2.02-.13.02-.27,0-.41v-3.16c-.9,0-1.63.73-1.63,1.62h0s0,.82,0,.82ZM115.18,20.37c0,.27-.14.4-.43.4h-.84c-.29,0-.44-.13-.44-.4v-.8c0-.26.15-.39.44-.39h.84c.29,0,.43.13.43.39v.8Z"/>
      <path id="Path_1582" data-name="Path 1582" class="cls-1" d="M167.27,23.2c-.22,0-.42.08-.57.24-.32.32-.32.83,0,1.15.32.32.83.32,1.15,0,0,0,0,0,0,0,.32-.31.33-.83.01-1.15-.16-.16-.37-.25-.59-.25"/>
      <path id="Path_1583" data-name="Path 1583" class="cls-1" d="M175.32,17.6c-.9,0-1.63.73-1.63,1.62h0v.82c0,.36-.1.58-.3.67-.09.05-19.69.06-20.08.06h-3.74v1.17c0,.24.19.43.43.43.75,0,1.13.23,1.13.68-.02.37-.28.69-.64.8-.34.15-.71.23-1.08.22-1.13,0-1.69-.54-1.69-1.62v-3.22c0-.9-.73-1.63-1.63-1.63v4.9c-.04.87.28,1.72.9,2.34.64.6,1.5.92,2.38.88.91.03,1.79-.31,2.45-.93.53-.44.85-1.09.88-1.79,0-.17-.06-.33-.17-.45-.11-.12-.26-.19-.43-.19h21.55c.79.12,1.53-.41,1.65-1.2.02-.13.02-.27,0-.41v-3.16Z"/>
      <path id="Path_1584" data-name="Path 1584" class="cls-1" d="M119.63,34.48c0,1.01-.64,1.92-1.59,2.26-.85.38-1.77.56-2.69.54-.73.02-1.46-.1-2.16-.35-.87-.33-1.31-.84-1.31-1.53.04-.7.5-1.3,1.17-1.53.92-.4,1.93-.59,2.93-.55.2,0,.41,0,.62.02.37.02.55.09.55.22,0,.12-.18.19-.54.21-1.08,0-2.14.21-3.15.59-.63.28-.94.63-.94,1.05,0,.47.39.81,1.15,1.03.55.15,1.11.23,1.68.22.83.02,1.66-.14,2.43-.48.72-.25,1.21-.92,1.23-1.69,0-.22-.12-1.55-.37-4v-.05c0-.2.11-.3.32-.3.16-.02.29.1.31.25,0,.01,0,.02,0,.03.25,2.47.37,3.83.37,4.07M120.07,34.8c-.58,0-.93-.22-1.04-.65,0-.03-.01-.06-.01-.09,0-.2.11-.31.33-.31.15-.01.28.09.3.24.03.12.17.17.43.17.17,0,.31.16.3.33,0,.16-.14.29-.3.3"/>
      <path id="Path_1585" data-name="Path 1585" class="cls-1" d="M122.48,34.8c-.38.03-.75-.15-.96-.47-.38.3-.85.46-1.34.47-.17,0-.32-.14-.32-.32,0-.17.14-.32.32-.32h0c.52-.02,1.01-.27,1.34-.68.07-.09.17-.14.28-.14.19,0,.28.1.28.3,0,.04,0,.08-.02.12-.01.03-.02.07-.02.11,0,.2.15.3.45.3.17,0,.32.14.32.32,0,.17-.14.32-.32.32M122.17,36.49c-.34.13-.7.2-1.07.19-.38,0-.56-.08-.56-.24,0-.11.16-.19.48-.24.31-.06.61-.16.9-.29.04-.02.09-.03.14-.03.2,0,.31.11.31.33,0,.13-.07.24-.19.28"/>
      <path id="Path_1586" data-name="Path 1586" class="cls-1" d="M125.51,33.1c.03.72.09,1.09.18,1.09h.02c.15-.01.28-.02.36-.02h.02s.05.02.05.04v.5s-.19.07-.56.09c-.37-.07-.55-.25-.55-.52,0-.09,0-.18,0-.26,0-.78-.19-1.19-.57-1.22-.06,0-.12,0-.17,0-.3-.01-.6.09-.83.28-.06.05-.1.12-.12.2,0,.04.11.15.34.32,0,0,.02.08.07.23,0,.37-.21.71-.54.87-.35.05-.71.08-1.07.09l-.02-.04v-.51s.03-.03.06-.03c.05,0,.09,0,.14.02,0,0,.02,0,.03,0,.08,0,.12-.06.12-.17,0-.04,0-.08-.01-.13,0-.57.43-1.14,1.29-1.7.19-.11.4-.18.62-.18.14,0,.27.03.4.07.39.19.66.56.72.99"/>
      <path id="Path_1587" data-name="Path 1587" class="cls-1" d="M130.91,32.8c.12.4.21.8.28,1.21,0,.1.11.15.31.16h.04s.02.01.02.02v.61s0,.02-.02.02c0,0,0,0,0,0h-.05c-.4.05-.79-.18-.93-.56-.21-1.17-.48-1.78-.82-1.85-.07-.01-.14-.02-.21-.01-.46.03-.92.15-1.34.35-.07.06-.14.13-.21.2.26.02.52.07.77.15.2.04.37.15.5.31.05.09.09.19.1.3v.06c0,.26-.17.45-.5.58-.66.29-1.36.45-2.08.48-.1,0-.2,0-.29-.02h-.48s-.03,0-.03-.02v-.61s.01-.02.03-.02h.44c.08.01.17.02.25.02.69-.05,1.36-.18,2.01-.41h0c-.48-.12-.97-.21-1.46-.27-.1-.04-.17-.13-.17-.23v-.12c.05-.22.17-.41.34-.55.29-.27.61-.49.97-.65.38-.18.8-.28,1.23-.27.07,0,.14,0,.22,0,.54.03.91.4,1.09,1.11M128.39,35.76l-.18.29c-.05.09-.15.15-.26.15-.09,0-.17-.03-.23-.09-.06-.06-.1-.14-.1-.22,0-.06.02-.12.05-.17l.18-.29c.05-.09.15-.15.26-.15.09,0,.17.03.23.09.06.06.1.14.1.22,0,.06-.02.12-.05.17"/>
      <path id="Path_1588" data-name="Path 1588" class="cls-1" d="M133.83,34.8c-.38.03-.75-.15-.96-.47-.38.3-.85.46-1.34.47-.17,0-.32-.12-.33-.3,0-.17.12-.32.3-.33.01,0,.02,0,.04,0,.52-.02,1.01-.27,1.34-.68.07-.09.17-.14.28-.14.19,0,.28.1.28.3,0,.04,0,.08-.02.12-.01.03-.02.07-.02.11,0,.2.15.3.45.29.17,0,.31.16.3.33,0,.16-.14.29-.3.3M133.19,32.65c-.34.13-.7.2-1.07.19-.38,0-.56-.08-.56-.24,0-.11.16-.19.48-.24.31-.06.61-.16.9-.29.04-.02.09-.03.14-.03.2,0,.31.11.31.33,0,.13-.07.24-.2.28"/>
      <path id="Path_1589" data-name="Path 1589" class="cls-1" d="M135.26,33.4c0,.08.01.16.01.24,0,.43-.28.8-.69.91-.34.14-.71.23-1.08.25-.17,0-.32-.14-.32-.32s.14-.32.32-.32h0c.28,0,.55-.06.8-.17.12-.04.22-.11.3-.2.03-.08.05-.17.04-.26,0-.03,0-.07,0-.12-.07-.67-.16-1.7-.27-3.11v-.04c0-.11.04-.21.12-.28.07-.08.17-.13.28-.14.13,0,.2.07.21.22.15,1.78.24,2.9.29,3.33"/>
      <path id="Path_1590" data-name="Path 1590" class="cls-1" d="M136.64,33.49c0,.08.01.15.01.23,0,.47-.08.7-.23.7-.11,0-.21-.18-.28-.54-.04-.19-.1-.64-.18-1.33-.05-.46-.11-1.03-.18-1.73v-.04c0-.14.04-.28.12-.4.06-.09.16-.15.26-.16.12,0,.19.08.2.24.07.71.16,1.72.27,3.04"/>
      <path id="Path_1591" data-name="Path 1591" class="cls-1" d="M147.13,32.73c0,.62-.47,1.13-1.42,1.53-.9.37-1.87.56-2.84.54-.67.01-1.34-.05-1.99-.2-.91-.23-1.37-.63-1.37-1.21,0-.66.46-1.19,1.37-1.59.7-.31,1.46-.47,2.23-.47.37,0,.55.04.55.12s-.2.15-.59.22c-1.95.34-2.92.88-2.92,1.62,0,.31.36.55,1.09.71.54.12,1.09.18,1.64.17.89.02,1.77-.15,2.59-.49.7-.3,1.04-.62,1.04-.95-.06-.32-.18-.62-.37-.88-.03-.05-.05-.11-.05-.16,0-.09.04-.17.1-.22.06-.06.15-.09.23-.09.11,0,.21.06.26.16.25.36.4.77.45,1.2M145.59,30.62c-.34.13-.7.2-1.07.19-.38,0-.56-.08-.56-.24,0-.11.16-.19.48-.24.31-.06.61-.16.9-.29.04-.02.09-.03.14-.03.2,0,.31.11.31.33,0,.13-.08.24-.2.28"/>
      <path id="Path_1592" data-name="Path 1592" class="cls-1" d="M148.54,33.49c0,.08.01.15.01.23,0,.47-.08.7-.23.7-.11,0-.21-.18-.28-.54-.04-.19-.1-.64-.18-1.33-.05-.46-.11-1.03-.18-1.73v-.04c0-.14.04-.28.12-.4.06-.09.16-.15.26-.16.12,0,.19.08.2.24.07.71.16,1.72.27,3.04"/>
      <path id="Path_1593" data-name="Path 1593" class="cls-1" d="M156.22,31.1c.45,0,.74.11.87.34.03.08.05.16.05.24v.05c-.04.34-.22.65-.5.85-.41.28-.85.5-1.32.65-.38.13-.76.23-1.16.28,0,.35.24.57.72.63.37.05.74.07,1.11.06.35,0,.74-.01,1.18-.04.08,0,.15.04.19.11v.38s-.06.08-.19.11c-.4.03-.8.05-1.21.05-.3,0-.61,0-.91-.03-.59.04-1.15-.28-1.41-.81-.03-.13-.05-.27-.05-.41h-.05c-.44,0-.7-.12-.8-.36-.05-.1-.08-.2-.11-.3-.27.06-.54.15-.79.26-.41.22-.73.57-.9,1-.16.29-.41.51-.72.62-.46.13-.94.19-1.42.18h-.19c-.15,0-.24-.05-.26-.14v-.07c0-.13.22-.22.66-.26.42-.07.83-.19,1.21-.37.07-.03.16-.16.27-.4.37-.66.97-1.16,1.69-1.39.17-.06.35-.09.54-.1h.12c.25,0,.37.13.37.4-.02.16.09.3.25.33.03,0,.05,0,.08,0h.18s.09-.06.15-.18c.21-.29.46-.55.74-.78.2-.22.43-.41.69-.57.28-.19.6-.3.94-.34M154.54,30.45l-.18.29c-.05.09-.15.15-.26.15-.09,0-.17-.03-.23-.09-.06-.06-.1-.14-.1-.22,0-.06.02-.12.05-.17l.18-.29c.05-.09.15-.15.26-.15.09,0,.17.03.23.09.06.06.1.14.1.23,0,.06-.02.12-.05.17M154.53,32.82h0c.51-.12,1.01-.3,1.48-.53.3-.18.45-.34.45-.48,0-.1-.1-.16-.32-.16h-.06c-.29.02-.79.38-1.5,1.08l-.07.08Z"/>
      <path id="Path_1594" data-name="Path 1594" class="cls-1" d="M162.07,32.8c.12.4.21.8.29,1.21,0,.1.11.15.31.16h.04s.02,0,.02.02v.61s0,.02-.02.02c0,0,0,0,0,0h-.05c-.4.05-.79-.18-.93-.56-.21-1.17-.49-1.78-.82-1.85-.07-.01-.14-.02-.21-.02-.46.03-.92.15-1.34.35-.07.06-.14.13-.21.2.26.02.52.07.76.15.2.04.37.15.5.31.05.09.09.19.1.3v.06c0,.26-.17.45-.5.58-.66.29-1.36.45-2.08.48-.1,0-.2,0-.3-.02h-.48s-.03,0-.03-.02v-.61s.01-.02.03-.02h.44c.08.01.17.02.25.02.69-.04,1.36-.18,2.01-.41h0c-.48-.12-.97-.21-1.46-.27-.1-.04-.17-.13-.17-.23v-.12c.04-.22.17-.41.34-.55.28-.27.61-.49.97-.65.38-.18.8-.28,1.23-.27h.22c.54.03.91.4,1.09,1.11"/>
      <path id="Path_1595" data-name="Path 1595" class="cls-1" d="M164.96,34.8c-.38.03-.75-.15-.96-.47-.38.3-.85.46-1.34.47-.17,0-.32-.12-.33-.3,0-.17.12-.32.3-.33.01,0,.02,0,.04,0,.52-.02,1.01-.27,1.34-.68.07-.09.17-.14.28-.14.19,0,.28.1.28.3,0,.04,0,.08-.02.12-.01.03-.02.07-.02.11,0,.2.15.3.45.29.17,0,.31.16.3.33,0,.16-.14.29-.3.3M164.33,32.65c-.34.13-.7.2-1.07.19-.38,0-.56-.08-.56-.24,0-.11.16-.19.48-.24.31-.06.61-.16.9-.29.04-.02.09-.03.14-.03.2,0,.31.11.31.33,0,.13-.08.24-.2.28"/>
      <path id="Path_1596" data-name="Path 1596" class="cls-1" d="M165.43,34.8h-.79c-.17,0-.31-.16-.3-.33,0-.16.14-.29.3-.3h.79c.17,0,.31.16.3.33,0,.16-.14.29-.3.3"/>
      <path id="Path_1597" data-name="Path 1597" class="cls-1" d="M167.7,33.88c-.47.61-1.22.96-1.99.92-.09,0-.18,0-.27-.01-.17,0-.32-.12-.33-.3,0-.17.12-.32.3-.33.01,0,.02,0,.04,0,.09,0,.18.01.27.01.58.03,1.13-.22,1.49-.68.06-.08.15-.13.25-.13.09,0,.17.04.23.1.06.06.1.14.1.23,0,.07-.02.14-.07.2M169.09,33.8c-.13.31-.34.58-.6.79-.25.22-.57.35-.91.35-.42.02-.8-.27-.9-.67-.01-.04-.02-.08-.02-.12,0-.2.11-.31.33-.31.13,0,.26.08.29.21.03.16.17.27.33.27.21-.01.41-.11.54-.27.15-.14.27-.32.35-.51.04-.12.15-.2.28-.19.22,0,.33.1.33.31,0,.04,0,.09-.03.13M170.34,33.64c-.09.31-.26.58-.5.79-.24.23-.57.37-.91.37-.24,0-.47-.06-.68-.18-.1-.04-.17-.15-.17-.26,0-.09.04-.17.1-.24.06-.06.14-.1.22-.1.06,0,.11.02.16.05.12.07.25.11.38.12.38,0,.63-.24.77-.72.03-.14.16-.24.3-.23.22,0,.33.1.33.31,0,.03,0,.07,0,.1M170.55,34.76c-.42.05-.82-.17-1.01-.55-.02-.05-.03-.1-.03-.15,0-.09.04-.17.1-.23.06-.06.13-.09.22-.09.11,0,.21.07.25.18.06.14.22.21.48.21.17,0,.31.16.3.33,0,.16-.14.29-.3.3"/>
      <path id="Path_1598" data-name="Path 1598" class="cls-1" d="M174.39,33.1c-.02.25-.16.48-.37.61-.51.32-1.07.55-1.65.71-.59.2-1.2.32-1.82.35-.17,0-.31-.16-.3-.33,0-.16.14-.29.3-.3.82-.05,1.63-.27,2.36-.63-.01-.06-.02-.12-.02-.19,0-.2.06-.4.16-.57.07-.13.2-.2.35-.19h.05c.06,0,.12,0,.18,0,.5.06.75.22.75.5v.04Z"/>
    </g>
  </g>
</svg>