<svg id="Group_263" data-name="Group 263" xmlns="http://www.w3.org/2000/svg" xmlns:xlink="http://www.w3.org/1999/xlink" width="93.815" height="57.564" viewBox="0 0 93.815 57.564">
  <defs>
    <clipPath id="clip-path">
      <rect id="Rectangle_203" data-name="Rectangle 203" width="93.815" height="57.564" fill="#bbc3d0"/>
    </clipPath>
  </defs>
  <path id="Path_1403" data-name="Path 1403" d="M64.749,0V17.812L50.738,0H39.87V35.945H50.738V16.871L65.856,35.945h9.7V0Z" transform="translate(-3.795 0)" fill="#bbc3d0"/>
  <g id="Group_262" data-name="Group 262" transform="translate(0 0)">
    <g id="Group_261" data-name="Group 261" clip-path="url(#clip-path)">
      <path id="Path_1404" data-name="Path 1404" d="M0,35.936l14.815.02,4.227-.012a16.21,16.21,0,0,0,8.388-1.953,9.167,9.167,0,0,0,2.06-14.566,10.347,10.347,0,0,0-4.669-2.555,11.589,11.589,0,0,0,3.741-2.838,7.448,7.448,0,0,0,1.591-5.056C29.91,1.557,23.377,0,18.2,0H13.045L0,.031ZM11.111,8.3H15.3c2.233,0,3.845.627,3.785,2.942-.052,2-1.8,2.775-3.785,2.775H11.111Zm0,13.724h5.727c2.574,0,4.311.938,4.253,2.9-.054,1.876-1.574,2.74-3.617,2.74H11.107Z" transform="translate(0 0)" fill="#bbc3d0" fill-rule="evenodd"/>
      <path id="Path_1405" data-name="Path 1405" d="M95.482,4.726,84.442,15.651V36.394h11.04Z" transform="translate(-8.038 -0.45)" fill="#bbc3d0" fill-rule="evenodd"/>
      <path id="Path_1406" data-name="Path 1406" d="M84.441,10.991,95.482,0H84.441Z" transform="translate(-8.038 0)" fill="#bbc3d0" fill-rule="evenodd"/>
      <path id="Path_1407" data-name="Path 1407" d="M102.417,36.038a1.7,1.7,0,1,0,.5,1.2,1.691,1.691,0,0,0-.5-1.2m-1.2-.839a2.039,2.039,0,1,1-1.442.6,2.033,2.033,0,0,1,1.442-.6" transform="translate(-9.441 -3.351)" fill="#bbc3d0"/>
      <path id="Path_1408" data-name="Path 1408" d="M100.854,36.532h.429c.3,0,.621.047.621.366,0,.366-.439.366-.777.366h-.272Zm-.3,1.971h.3v-1h.393l.7,1h.376l-.729-1.019c.4-.055.641-.264.641-.586,0-.547-.526-.61-1.023-.61h-.657Z" transform="translate(-9.571 -3.455)" fill="#bbc3d0"/>
      <path id="Path_1409" data-name="Path 1409" d="M23.163,48.5a.414.414,0,0,0-.495.375c-.711,2.761-1.442,5.518-2.17,8.274-.038.146-.09.289-.169.543-.072-.191-.1-.259-.125-.331-.237-.874-.475-1.747-.708-2.622q-.782-2.94-1.554-5.88c-.068-.262-.17-.379-.464-.361-.472.03-.948.008-1.422.008h-2.2v13.44H16.3V51.591a.209.209,0,0,1,.148.162q.562,2.219,1.123,4.44c.461,1.82.916,3.643,1.387,5.461.031.119.184.29.284.294.77.024,1.542.013,2.345.013q1.325-5.239,2.638-10.442l.106.012V61.936h2.442V48.5c-1.226,0-2.419.01-3.61-.007" transform="translate(-1.32 -4.616)" fill="#bbc3d0"/>
      <path id="Path_1410" data-name="Path 1410" d="M100.036,58.221A6.294,6.294,0,0,0,98.017,56.2a1.564,1.564,0,0,1-.2-.186c.127-.032.2-.052.272-.067a4.35,4.35,0,0,0,1.961-.831,3.589,3.589,0,0,0,1.154-3.819,3.156,3.156,0,0,0-2.759-2.61,13.9,13.9,0,0,0-2.06-.171c-1.869-.023-3.74-.008-5.609-.007-.132,0-.263.012-.408.019V61.928H93V61.41q0-2.337,0-4.674c0-.178-.061-.418.233-.427,1.108-.034,2.186.019,2.881,1.088.14.215.309.413.453.625.826,1.222,1.647,2.449,2.48,3.667a.57.57,0,0,0,.357.261c.973.021,1.946.012,3.016.012-.828-1.3-1.6-2.524-2.381-3.74M93.25,54.2a.337.337,0,0,1-.241-.227C92.993,52.917,93,51.863,93,50.737c1.022,0,1.982-.009,2.941,0a7.587,7.587,0,0,1,1.45.1,1.51,1.51,0,0,1,1.171,1.781,1.442,1.442,0,0,1-1.376,1.484c-1.309.076-2.622.077-3.934.092" transform="translate(-8.602 -4.617)" fill="#bbc3d0"/>
      <path id="Path_1411" data-name="Path 1411" d="M66.776,56.227c-.07-.066-.143-.127-.262-.232l.273-.052A3.656,3.656,0,0,0,69.8,53.7a4.331,4.331,0,0,0,.2-2.119,3.257,3.257,0,0,0-2.584-2.835,13.479,13.479,0,0,0-2.255-.233c-1.883-.033-3.767-.012-5.651-.013h-.428v13.44h2.637V61.3c0-1.531,0-3.062.011-4.593,0-.135.131-.38.211-.384,1.089-.054,2.16-.021,2.86,1.026.136.2.295.389.432.59.843,1.245,1.68,2.493,2.527,3.734.077.112.2.268.311.27.994.021,1.989.013,3.085.013-.925-1.429-1.751-2.811-2.692-4.111a12.584,12.584,0,0,0-1.681-1.621M65.27,54.185c-1.056.021-2.113.008-3.17.03-.3.006-.4-.094-.394-.394q.023-1.36,0-2.722c0-.286.094-.376.376-.368.582.019,1.164.005,1.747.005v.011c.609,0,1.22-.022,1.828.005a1.587,1.587,0,0,1,1.609,1.328,1.627,1.627,0,0,1-1.076,1.976,3.584,3.584,0,0,1-.92.128" transform="translate(-5.623 -4.617)" fill="#bbc3d0"/>
      <path id="Path_1412" data-name="Path 1412" d="M82.9,48.819a7.526,7.526,0,0,0-3.738-.52,5.824,5.824,0,0,0-5.237,4.035,9.427,9.427,0,0,0-.32,4.415,5.835,5.835,0,0,0,3.865,4.995,7.575,7.575,0,0,0,3.4.369,5.856,5.856,0,0,0,4.288-2.259,7.339,7.339,0,0,0,1.387-4.624c-.046-.538-.059-1.082-.144-1.615a5.9,5.9,0,0,0-3.5-4.8m.6,8.393a3.486,3.486,0,0,1-3.284,2.667,3.55,3.55,0,0,1-3.647-2.472,7.157,7.157,0,0,1-.043-4.319,3.656,3.656,0,0,1,7.056.308c.128.576.159,1.175.246,1.851-.1.611-.154,1.3-.328,1.964" transform="translate(-6.995 -4.594)" fill="#bbc3d0"/>
      <path id="Path_1413" data-name="Path 1413" d="M48.191,59.737c-.294,0-.409-.073-.4-.384.015-.975.019-1.952,0-2.927-.007-.355.135-.424.455-.423,1.952.013,3.9.006,5.856,0,.157,0,.315-.018.461-.027v-2.2h-6.73V50.733h7.223v-2.21H45.158V61.94H55.3V59.732h-.48c-2.21,0-4.419-.005-6.629.005" transform="translate(-4.299 -4.619)" fill="#bbc3d0"/>
      <path id="Path_1414" data-name="Path 1414" d="M2.651,56h6.7V53.771H2.643V50.75h7.2V48.528H0V61.937H10.1V59.719H2.651Z" transform="translate(0 -4.62)" fill="#bbc3d0"/>
      <path id="Path_1415" data-name="Path 1415" d="M37.849,48.585c-2.046-.046-4.092-.056-6.138-.082H31.28V61.928h2.627c0-1.566.01-3.1-.008-4.627,0-.348.082-.463.449-.463,1.164,0,2.33-.026,3.493-.081A3.691,3.691,0,0,0,41.263,54.2a6.71,6.71,0,0,0,.213-2,3.605,3.605,0,0,0-3.626-3.613m-.668,5.92c-1.06.1-2.131.1-3.25.154V50.808c.026-.021.047-.052.068-.052,1.054.019,2.112-.009,3.16.076a1.723,1.723,0,0,1,1.6,1.782,1.759,1.759,0,0,1-1.576,1.892" transform="translate(-2.978 -4.617)" fill="#bbc3d0"/>
    </g>
  </g>
</svg>
