<?xml version="1.0" encoding="UTF-8"?>
<svg id="Layer_2" data-name="Layer 2" xmlns="http://www.w3.org/2000/svg" viewBox="0 0 254.91 140.63">
  <defs>
    <style>
      .cls-1 {
        fill: #bbc3d0;
      }
    </style>
  </defs>
  <g id="Layer_2-2" data-name="Layer 2">
    <g>
      <g>
        <path class="cls-1" d="M159.95,64.9c-.68,0-1.36.26-1.88.78-3.55,3.54-7.85,6.34-12.56,8.08-3.66,1.36-7.54,2.1-11.44,2.21-10.16.36-20.2-4.02-27.04-11.5-3.94-4.29-6.79-9.57-8.2-15.22-.22-.86-1.04-3.51-.49-5.73.26-1.06.79-2.01,1.5-2.74,2.01-2.05,4.55-1.29,4.94-1.19,0,0,.02,0,.03,0,.28-.41.46-1.15.66-2.63.12-1,.26-1.77.44-2.54-.63-.14-1.28-.23-1.94-.28-.47-.03-1.51-.11-2.8.14-4.08.76-7.09,4.14-8.04,8.16-.1.41-.24,1.35-.24,1.36-.12,1.06-.1,2.14.06,3.19,2,13.09,10.83,24.9,22.88,30.45,15.44,7.27,33.92,4.04,45.99-8.02,1.68-1.67.43-4.55-1.88-4.53Z"/>
        <path class="cls-1" d="M151.2,21.89c-4.88-4.82-11.37-7.25-17.89-7.29-7.16-.04-14.33,2.81-19.36,8.42-2.83,3.09-4.94,6.86-6.01,10.92-.29,1.1-.48,1.96-.63,3.25-.29,2.07-.57,3.44-1.78,4.24-1.48.98-3.71.29-3.88.23-.72.47-1.27,1.28-1.52,2.28-.21.86-.13,1.88.02,2.78,0,.02.02.03.02.05.22.07.44.13.66.18,0,0,0,0,0,0,1.19.28,2.43.29,3.64.17,5.16-.46,7.51-4.08,8.09-9.22,0-.02,0-.05,0-.07h0c.35-2.78,1.27-5.28,2.54-7.49,1.18-2.04,2.65-3.84,4.4-5.32,7.67-6.52,19.88-7.28,28,.69.25.24.55.43.87.56.98.4,2.16.14,2.89-.63,1.02-1.06.99-2.74-.07-3.75Z"/>
        <path class="cls-1" d="M162.36,12.66c-.08-.18-.18-.34-.29-.49-.04-.06-.14-.17-.22-.26-.04-.04-.08-.08-.12-.12-.12-.12-.24-.23-.34-.34-4.56-4.42-10.17-7.76-16.25-9.6-8.9-2.81-18.28-2.33-26.58.87-7.49,2.89-14.1,8.02-18.8,14.77-1.24,1.78-2.36,3.67-3.31,5.67-.44.9-.96,2.09-1.45,3.42-.59,1.62-1.15,3.45-1.57,5.22-.17.73-.31,1.46-.42,2.16-.15.97-.26,1.86-.24,2.67,0,.52.09,1.02.18,1.44,1.36-2.25,3.33-3.98,5.65-4.95,3.83-17.92,21.36-30.15,39.5-27.47,3.94.53,7.74,1.79,11.25,3.62,1.39.72,2.74,1.52,4.03,2.41,1.4.98,2.72,2.07,3.98,3.23.22.21.45.45.67.65.08.07.15.15.23.21.05.04.08.07.14.11.02.01.03.02.05.03,1.05.73,2.48.62,3.4-.3.86-.88.98-2.01.53-2.98Z"/>
        <path class="cls-1" d="M150.96,55.4c-.95-.72-2.3-.71-3.24.03-.07.06-.14.12-.2.18-.28.28-.6.56-.89.81-1.32,1.13-2.73,2.06-4.22,2.81-2.41,1.21-4.97,1.92-7.55,2.1-2.27.16-4.58,0-6.77-.55-4.63-1.18-8.79-3.91-11.68-7.85-1.84-2.51-3.22-5.51-3.75-8.91-1.19,2.11-2.8,3.37-4.5,4.1.79,2.65,2.02,5.17,3.6,7.43,3.91,5.68,9.59,9.26,15.82,10.58,3.38.72,6.94.78,10.37.14,4.84-.89,9.48-3.16,13.26-6.85,1.17-1.11,1.05-3.07-.24-4.03Z"/>
      </g>
      <g>
        <path class="cls-1" d="M155.31,118.59c-.44,4-1.7,6.93-3.76,8.69-1.91,1.63-4.32,2.46-7.17,2.46-3.23-.08-5.87-1.36-7.83-3.81-1.98-2.45-2.98-5.74-2.98-9.78s1.02-7.32,3.02-9.76c1.99-2.43,4.69-3.66,8.03-3.66,2.35,0,4.4.63,6.09,1.87,1.7,1.24,2.84,3.03,3.4,5.33l.03.11h.62l-.8-5.98-.05-.04c-2.68-1.86-5.81-2.81-9.28-2.81-4.26,0-7.74,1.39-10.34,4.13-2.59,2.74-3.9,6.39-3.9,10.86s1.31,8.13,3.9,10.86h0c2.59,2.74,5.99,4.14,10.11,4.17,4.95,0,8.66-2.07,11.04-6.16l.5-6.62h-.59v.13Z"/>
        <path class="cls-1" d="M208.79,129.36c-.6-.42-1.07-1.02-1.43-1.85l-10.44-26.28h-.59v.14c0,.58-.48,1.98-1.42,4.16l-8.78,21.98c-.37.82-.87,1.44-1.47,1.86-.38.27-.76.44-1.16.54-.49-.09-.97-.24-1.42-.47-.33-.16-.66-.37-.99-.64-.32-.25-.63-.53-.92-.82-.3-.3-.79-.85-1.43-1.59-.68-.78-2.14-2.86-4.34-6.18-.43-.61-.91-1.2-1.43-1.75-.37-.39-.71-.69-1-.9,1.67-.13,3.12-.94,4.31-2.43,1.3-1.61,1.96-3.55,1.96-5.77s-.69-4.05-2.06-5.44c-1.37-1.39-3.27-2.1-5.65-2.1h-10.63v.69h.65c.64,0,1.17.23,1.63.71.45.48.69,1.06.72,1.72v22.67c-.02.68-.26,1.23-.72,1.7-.46.47-.99.69-1.63.69h-.65v.69h8.8l-.07-.69h-.59c-.66,0-1.22-.24-1.67-.71-.45-.47-.68-1.05-.68-1.72v-24.2h2.35c.87,0,1.65.01,2.32.04,1.4.08,2.52.67,3.35,1.74.83,1.09,1.28,2.55,1.33,4.32v.92c0,.46-.07.95-.23,1.49-.81,2.71-2.75,4.07-5.93,4.15-1.02.06-1.62.06-2.03,0l-.16-.02v.71h.14c.79,0,1.59.45,2.38,1.34.28.33.56.66.81,1,.25.32,1.12,1.62,2.75,4.1,1.64,2.48,2.56,3.82,2.91,4.23.36.44.78.88,1.25,1.32.5.46,1.23.91,2.2,1.33.97.43,2.03.64,3.16.64h8.15v-.69h-.49c-.5,0-.87-.17-1.11-.49-.26-.35-.38-.66-.38-.94,0-.3.05-.61.15-.92l2.56-6.89h10.3l2.45,6.85c.1.32.15.63.15.94,0,.29-.13.6-.38.96-.25.33-.61.49-1.11.49h-.49v.69h9.02v-.69h-.45c-.65,0-1.28-.21-1.86-.63ZM191.73,119.24l4.69-12.55,4.46,12.55h-9.16Z"/>
        <path class="cls-1" d="M226.8,101.56c-.98.17-1.83.25-2.6.25h-11.54l.06.69h.6c.62,0,1.17.21,1.64.64.48.43.71.94.71,1.55v22.87c-.03.67-.27,1.25-.72,1.72-.46.48-.99.71-1.63.71h-.64v.69h8.79v-.69h-.64c-.63,0-1.19-.24-1.65-.71-.47-.47-.7-1.05-.7-1.71v-10.36h6.45c.48.03.89.21,1.2.56.33.37.49.8.49,1.3v.76h.66v-6.74h-.66v.75c0,.51-.17.94-.51,1.29-.34.36-.75.55-1.21.57h-6.43v-12.33h8.05c.52,0,.93.18,1.26.55.34.36.51.8.51,1.31v.76h.67v-4.98l-.2.08c-.37.16-1.03.32-1.96.48Z"/>
        <path class="cls-1" d="M254.71,101.04c-.19.09-.75.24-1.5.42-.83.2-1.88.31-3.13.31h-13.13c-.8,0-1.68-.08-2.61-.24-.95-.16-1.61-.32-1.98-.48l-.2-.08v5.52l.67-.06v-.83c0-.63.2-1.15.61-1.6.41-.45.89-.68,1.47-.71h7.23v24.37c-.02.65-.25,1.19-.71,1.66-.46.47-.99.69-1.63.69h-.65v.69h8.79v-.69h-.65c-.64,0-1.17-.23-1.62-.69-.46-.47-.7-1.03-.72-1.7v-24.33h7.23c.56.03,1.05.27,1.46.71.42.45.63.99.63,1.6v.83l.66.06v-5.52l-.2.09Z"/>
        <path class="cls-1" d="M79.8,129.43c-.74,0-1.45-.17-2.11-.5-.3-.14-.59-.33-.88-.57-.31-.25-.6-.51-.87-.78-.27-.27-.74-.79-1.39-1.54-.45-.52-1.56-2-4.26-6.07-.42-.61-.92-1.22-1.47-1.8-.05-.06-.11-.11-.16-.17,1.31-.36,2.47-1.15,3.47-2.39,1.36-1.7,2.05-3.73,2.05-6.06s-.74-4.29-2.19-5.78c-1.45-1.48-3.45-2.23-5.95-2.23h-11.02v1.77h1.15c.49,0,.9.18,1.25.55.36.38.54.82.56,1.32v22.4c-.02.52-.2.95-.55,1.32-.35.36-.76.53-1.26.53h-1.15v1.77h9.77l-.16-1.77h-1.05c-.52,0-.94-.18-1.29-.55-.35-.37-.52-.8-.52-1.32v-10.19h.62c.63,0,1.3.39,1.98,1.15.28.32.54.63.78.96.24.32,1.15,1.67,2.7,4.02,1.59,2.41,2.54,3.79,2.91,4.24.36.43.79.89,1.29,1.36.54.5,1.29.96,2.31,1.41,1.02.45,2.14.68,3.32.68h2.76v-1.77h-.65ZM61.77,115.53v-11.36h1.81c.91,0,1.67.01,2.27.04,1.25.07,2.22.57,2.95,1.52.75.98,1.15,2.31,1.2,3.94v.91c0,.4-.07.84-.2,1.31-.73,2.43-2.5,3.65-5.41,3.73-.92.05-1.56.05-1.92,0l-.7-.09Z"/>
        <path class="cls-1" d="M24.67,118.64c-.41,3.81-1.6,6.58-3.53,8.24-1.79,1.54-4.07,2.31-6.76,2.31-3.09-.08-5.5-1.25-7.38-3.58-1.87-2.32-2.82-5.46-2.82-9.32s.96-6.98,2.86-9.3c1.9-2.31,4.37-3.44,7.56-3.44,2.21,0,4.14.59,5.74,1.76,1.58,1.15,2.64,2.82,3.16,4.96l.12.51h1.59l-.92-6.78-.24-.17c-2.73-1.9-5.92-2.86-9.46-2.86-4.36,0-7.92,1.43-10.58,4.24-2.66,2.82-4.01,6.56-4.01,11.13s1.35,8.31,4.01,11.13c2.66,2.81,6.14,4.25,10.35,4.28,5.08,0,8.9-2.13,11.35-6.35l.08-.14.52-7.24h-1.58l-.07.6Z"/>
        <path class="cls-1" d="M105.33,128.9c-.51-.36-.92-.9-1.22-1.6l-10.46-26.32h-1.43v.68c0,.22-.13,1.04-1.37,3.9l-8.67,21.71c-.33.72-.76,1.27-1.27,1.63-.51.36-1.01.53-1.52.53h-.99v1.76h9.02v-1.76h-.99c-.44,0-.61-.16-.7-.29-.17-.23-.27-.44-.27-.59,0-.24.04-.48.11-.7l2.41-6.48h9.48l2.29,6.4c.08.26.12.5.12.76,0,.16-.09.37-.27.61-.09.12-.26.28-.7.28h-.99v1.76h9.94v-1.76h-.96c-.54,0-1.05-.17-1.56-.53M88.94,118.81l3.88-10.39,3.69,10.39h-7.57Z"/>
        <path class="cls-1" d="M126.81,100.84c-.06.03-.33.13-1.41.39-.78.19-1.78.28-2.99.28h-12.99c-.75,0-1.6-.08-2.51-.23-1.12-.19-1.63-.35-1.86-.45l-.89-.37v6.85l1.68-.17v-1.3c0-.47.15-.87.45-1.21.31-.35.67-.52,1.09-.53h6.65v23.54c-.02.5-.2.91-.55,1.27-.35.36-.76.53-1.26.53h-1.14v1.76h9.71v-1.76h-1.15c-.5,0-.91-.18-1.26-.54-.35-.36-.53-.79-.55-1.29v-23.52h6.63c.43.02.78.19,1.1.54.32.34.47.74.47,1.2v1.3l1.68.17v-6.87l-.9.4Z"/>
        <path class="cls-1" d="M64.53,137.68s-.04.03-.06.04c-.73.47-2.24,1.25-4.36.84-1.57-.35-2.67-1.3-3.52-2.21-.59-.7-1.2-1.68-1.61-2.4-.63-1.16-1.55-3.17-1.68-3.47-.13-.31-1.32-3.39-1.43-3.69-.42-1.17-5.53-16.72-5.53-16.72-.96-2.86-1.76-4.87-2.4-5.99-.98-1.66-1.85-2.75-2.68-3.35-1.46-1.08-2.91-1.62-4.33-1.62-1.61,0-3.31.39-5.05,1.15l-.54.23.48,1.68.64-.25c1.51-.58,2.86-.72,4.06-.39.01,0,.04.01.05.01,1.15.34,2.16,1.1,3.04,2.33l-9.37,23.6c-.33.67-.74,1.17-1.22,1.49-.49.33-.97.48-1.46.48h-.99v1.76h9.01v-1.76h-.95c-.47,0-.65-.16-.74-.28-.17-.23-.26-.45-.26-.61,0-.24.04-.47.14-.73l2.49-6.76h9.63s2.42,7.23,3.18,9.16c.49,1.27,1.52,3.59,2.77,5.5.25.39.52.76.78,1.12,1.75,2.28,4.52,3.77,7.64,3.77.98,0,1.92-.15,2.8-.42.73-.24,1.02-.36,1.49-.59.38-.2.56-.3.56-.3-.19-.55-.37-1.09-.58-1.63ZM37.17,118.48l4.17-11.22c.18.47.37.98.57,1.54l.02.07c.12.35.25.71.37,1.09l.2.62,2.55,7.9h-7.87Z"/>
      </g>
    </g>
  </g>
</svg>