<svg xmlns="http://www.w3.org/2000/svg" xmlns:xlink="http://www.w3.org/1999/xlink" width="193.334" height="33.331" viewBox="0 0 193.334 33.331">
  <defs>
    <clipPath id="clip-path">
      <rect id="Rectangle_202" data-name="Rectangle 202" width="193.334" height="33.331" fill="#bbc3d0"/>
    </clipPath>
  </defs>
  <g id="Group_260" data-name="Group 260" transform="translate(0)">
    <g id="Group_259" data-name="Group 259" transform="translate(0 0)" clip-path="url(#clip-path)">
      <path id="Path_1373" data-name="Path 1373" d="M59.718.872a10.208,10.208,0,0,0-2.5-.31C50.957.537,44.7.551,38.436.551h-.38Q37.479,3.282,36.9,6H54.192s-.36,1.651-.49,2.246c-.03.14-.114.449-.114.449H36.331q-1.185,5.567-2.366,11.137a1.1,1.1,0,0,0,.135.03q3.63,0,7.261.005c.185,0,.231-.08.266-.245.165-.815.345-1.625.514-2.44q.4-1.868.806-3.755c.11-.01.205-.021.3-.021.81,0,1.625.005,2.436,0h1.6s.57.915.77,1.246q1.53,2.468,3.051,4.946a.471.471,0,0,0,.46.27c2.615-.01,5.235-.005,7.851-.005.095,0,.195-.01.375-.02a2.751,2.751,0,0,0-.191-.49c-1.2-1.895-2.41-3.785-3.615-5.676-.06-.09-.12-.19-.2-.314.3-.056.566-.091.82-.14A5.161,5.161,0,0,0,60.813,9.7a20.41,20.41,0,0,0,.61-2.45A27.18,27.18,0,0,0,61.988,4.1,2.825,2.825,0,0,0,59.718.872" transform="translate(-4.949 -0.08)" fill="#bbc3d0"/>
      <path id="Path_1374" data-name="Path 1374" d="M185.221.882a7.207,7.207,0,0,0-2.461-.33q-7.193,0-14.386,0c-.524,0-1.05.02-1.57.06a4.967,4.967,0,0,0-4.851,4.241c-.085.41-.17.815-.26,1.225h8.4q4.088,0,8.171,0a.721.721,0,0,1,.105.005,1.393,1.393,0,0,1,.255.01.356.356,0,0,1,.35.455c-.21,1.015-.43,2.03-.645,3.045H160.947q-.833,3.931-1.665,7.861c-.165.79-.331,1.58-.5,2.385H166.4c.39-1.85.776-3.685,1.16-5.531h9.756c-.39,1.861-.771,3.7-1.155,5.541h7.606c.025-.11.05-.215.074-.32q1.238-5.843,2.465-11.681c.28-1.326.57-2.651.771-3.99A2.588,2.588,0,0,0,185.221.882" transform="translate(-23.136 -0.081)" fill="#bbc3d0"/>
      <path id="Path_1375" data-name="Path 1375" d="M98.1,19.865l1.164-5.555h15.3c.142,0,.284-.007.426-.013a.537.537,0,0,0,.547-.433c.1-.414.183-.833.263-1.252a.306.306,0,0,0-.286-.4,2.813,2.813,0,0,0-.425-.025q-5.19-.006-10.379-.012a6.068,6.068,0,0,1-2.371-.447,2.827,2.827,0,0,1-1.82-3.039,17.229,17.229,0,0,1,1-4.667A5.037,5.037,0,0,1,105.566.761a11.087,11.087,0,0,1,2.085-.2C113.377.543,119.1.55,124.828.55h.3l-1.188,5.534h-.42q-7.109,0-14.221,0a1.143,1.143,0,0,0-.484.042,1.407,1.407,0,0,0-.432.386.775.775,0,0,0-.078.314c-.126.6-.057.685.571.685,3.306,0,6.613-.011,9.918.01a10.589,10.589,0,0,1,2.149.211,3.006,3.006,0,0,1,2.577,3.7,33.265,33.265,0,0,1-.994,4.543A5.137,5.137,0,0,1,118,19.723a13.3,13.3,0,0,1-1.994.136q-8.737.015-17.473.006Z" transform="translate(-14.294 -0.08)" fill="#bbc3d0"/>
      <path id="Path_1376" data-name="Path 1376" d="M156.914.572c-.38,1.78-.758,3.532-1.123,5.286-.049.237-.183.247-.373.246q-2.791-.006-5.582,0c-.941,0-1.883.007-2.824-.005-.23,0-.315.064-.364.3q-1.389,6.626-2.8,13.249c-.014.063-.031.125-.051.206h-7.607c.965-4.572,1.929-9.132,2.9-13.744h-9.015c.4-1.873.791-3.695,1.184-5.531Z" transform="translate(-18.953 -0.084)" fill="#bbc3d0"/>
      <path id="Path_1377" data-name="Path 1377" d="M180.3,7.02l-.005.01a.722.722,0,0,0-.105-.005q-4.08-.008-8.171-.005Z" transform="translate(-25.064 -1.023)" fill="#bbc3d0"/>
      <path id="Path_1378" data-name="Path 1378" d="M70.323.566h7.611c-.121.589-.237,1.161-.359,1.733q-.5,2.358-1,4.716c-.07.327.038.473.373.5.142.01.284.005.426.005,2.759,0,5.518-.009,8.276.01.361,0,.476-.107.545-.446.426-2.089.877-4.172,1.319-6.258.018-.084.044-.167.067-.259h7.6c-.155.738-.3,1.461-.457,2.183Q93.352,9.16,91.984,15.576a4.921,4.921,0,0,1-2.291,3.475,6.327,6.327,0,0,1-3.211.8c-3.58.019-7.16.01-10.74.012H68.528c.3-1.43.593-2.831.887-4.231.072-.343.164-.682.212-1.028.032-.236.127-.3.36-.3.941.012,1.884,0,2.825,0h11c.757,0,.849-.077,1-.821.084-.416.171-.833.266-1.3h-.4c-4.072,0-8.146.011-12.218-.021a6.851,6.851,0,0,1-1.992-.332,2.488,2.488,0,0,1-1.846-2.758,20.94,20.94,0,0,1,.431-2.517c.41-1.991.841-3.978,1.269-6" transform="translate(-9.985 -0.083)" fill="#bbc3d0"/>
      <path id="Path_1379" data-name="Path 1379" d="M71.929,31.828l-1.058,6.021H69.684l1.058-6.021Z" transform="translate(-10.153 -4.638)" fill="#bbc3d0"/>
      <path id="Path_1380" data-name="Path 1380" d="M75.439,31.828h.894l1.935,3.759.653-3.759h1.187L79.05,37.849h-.893L76.23,34.091l-.662,3.758H74.381Z" transform="translate(-10.838 -4.638)" fill="#bbc3d0"/>
      <path id="Path_1381" data-name="Path 1381" d="M88.07,32.964H86.445l-.86,4.885H84.4l.86-4.885H83.641l.2-1.136h4.43Z" transform="translate(-12.187 -4.638)" fill="#bbc3d0"/>
      <path id="Path_1382" data-name="Path 1382" d="M92.64,32.964l-.232,1.29H94.7l-.206,1.109H92.219l-.24,1.352h2.536l-.2,1.135H90.594l1.058-6.021h3.68l-.2,1.136Z" transform="translate(-13.2 -4.638)" fill="#bbc3d0"/>
      <path id="Path_1383" data-name="Path 1383" d="M101.6,35.6l.911,2.245h-1.2l-.833-2.09h-.99l-.369,2.09H97.931l1.058-6.021h2.347a1.746,1.746,0,0,1,1.712,2.082A2.2,2.2,0,0,1,101.6,35.6m-.464-2.666H99.977l-.308,1.78h1.221a1.036,1.036,0,0,0,.981-.894.709.709,0,0,0-.73-.886" transform="translate(-14.269 -4.638)" fill="#bbc3d0"/>
      <path id="Path_1384" data-name="Path 1384" d="M107.173,31.828h.894L110,35.587l.653-3.759h1.187l-1.058,6.021h-.893l-1.927-3.758-.662,3.758h-1.187Z" transform="translate(-15.461 -4.638)" fill="#bbc3d0"/>
      <path id="Path_1385" data-name="Path 1385" d="M118.523,36.765h-2.408l-.56,1.084h-1.3l3.174-6.021h1.47l1.058,6.021h-1.282Zm-.163-1.109L118,33.144l-1.307,2.512Z" transform="translate(-16.648 -4.638)" fill="#bbc3d0"/>
      <path id="Path_1386" data-name="Path 1386" d="M128.016,32.964h-1.625l-.86,4.885h-1.187l.86-4.885h-1.617l.2-1.136h4.43Z" transform="translate(-18.007 -4.638)" fill="#bbc3d0"/>
      <path id="Path_1387" data-name="Path 1387" d="M132.788,31.828l-1.058,6.021h-1.187l1.058-6.021Z" transform="translate(-19.02 -4.638)" fill="#bbc3d0"/>
      <path id="Path_1388" data-name="Path 1388" d="M135.54,34.732a3.625,3.625,0,0,1,3.631-3.045,2.634,2.634,0,0,1,2.6,3.226,3.613,3.613,0,0,1-3.629,3.035,2.612,2.612,0,0,1-2.6-3.216m5.049.095a1.574,1.574,0,0,0-1.6-1.986,2.338,2.338,0,0,0-2.27,1.978,1.532,1.532,0,0,0,1.557,1.969,2.36,2.36,0,0,0,2.313-1.961" transform="translate(-19.741 -4.617)" fill="#bbc3d0"/>
      <path id="Path_1389" data-name="Path 1389" d="M146.282,31.828h.894l1.935,3.759.653-3.759h1.187l-1.058,6.021H149l-1.927-3.758-.662,3.758h-1.187Z" transform="translate(-21.159 -4.638)" fill="#bbc3d0"/>
      <path id="Path_1390" data-name="Path 1390" d="M157.633,36.765h-2.408l-.56,1.084h-1.3l3.174-6.021h1.47l1.058,6.021h-1.282Zm-.163-1.109-.362-2.512L155.8,35.656Z" transform="translate(-22.346 -4.638)" fill="#bbc3d0"/>
      <path id="Path_1391" data-name="Path 1391" d="M166.411,36.714l-.2,1.135H162.73l.2-1.135.86-4.886h1.187l-.861,4.886Z" transform="translate(-23.71 -4.638)" fill="#bbc3d0"/>
      <path id="Path_1392" data-name="Path 1392" d="M174.408,34.732a3.62,3.62,0,0,1,3.561-3.045,2.485,2.485,0,0,1,2.408,1.428l-1.083.567a1.46,1.46,0,0,0-1.436-.842,2.292,2.292,0,0,0-2.27,1.978,1.516,1.516,0,0,0,1.539,1.969,2.07,2.07,0,0,0,1.746-.877l.972.628a3.493,3.493,0,0,1-2.8,1.41,2.6,2.6,0,0,1-2.642-3.216" transform="translate(-25.404 -4.617)" fill="#bbc3d0"/>
      <path id="Path_1393" data-name="Path 1393" d="M186.97,36.765h-2.408L184,37.849h-1.3l3.174-6.021h1.47l1.058,6.021h-1.282Zm-.163-1.109-.362-2.512-1.307,2.512Z" transform="translate(-26.62 -4.638)" fill="#bbc3d0"/>
      <path id="Path_1394" data-name="Path 1394" d="M195.737,35.6l.911,2.245h-1.2l-.832-2.09h-.991l-.369,2.09h-1.187l1.058-6.021h2.347a1.746,1.746,0,0,1,1.712,2.082,2.2,2.2,0,0,1-1.445,1.694m-.464-2.666h-1.162l-.309,1.78h1.221a1.035,1.035,0,0,0,.981-.894.709.709,0,0,0-.73-.886" transform="translate(-27.984 -4.638)" fill="#bbc3d0"/>
      <path id="Path_1395" data-name="Path 1395" d="M206.609,35.059a3.366,3.366,0,0,1-3.448,2.889,2.622,2.622,0,0,1-2.693-3.224,3.615,3.615,0,0,1,3.569-3.037,2.622,2.622,0,0,1,2.513,1.463l-1.085.567a1.6,1.6,0,0,0-1.539-.877,2.285,2.285,0,0,0-2.278,1.969,1.537,1.537,0,0,0,1.624,1.978,1.974,1.974,0,0,0,1.978-1.144h-1.762l.181-1.049h3.019Z" transform="translate(-29.201 -4.617)" fill="#bbc3d0"/>
      <path id="Path_1396" data-name="Path 1396" d="M210.385,34.732a3.624,3.624,0,0,1,3.631-3.045,2.634,2.634,0,0,1,2.6,3.226,3.613,3.613,0,0,1-3.629,3.035,2.612,2.612,0,0,1-2.6-3.216m5.049.095a1.574,1.574,0,0,0-1.6-1.986,2.338,2.338,0,0,0-2.27,1.978,1.532,1.532,0,0,0,1.557,1.969,2.36,2.36,0,0,0,2.313-1.961" transform="translate(-30.646 -4.617)" fill="#bbc3d0"/>
      <path id="Path_1397" data-name="Path 1397" d="M12.567,14.87l15.618,0-1.163,5.545H8.763a7.3,7.3,0,0,1-2.43-.323A2.612,2.612,0,0,1,4.442,17.07c.19-1.284.476-2.556.742-3.827.163-.769.32-1.485.472-2.184l11.211-9.95c6.165-.006,14.253,0,14.253,0L29.944,6.652l-8.067-.01Z" transform="translate(-0.642 -0.162)" fill="#bbc3d0"/>
      <path id="Path_1398" data-name="Path 1398" d="M9,2.058,4.125,5.448a.989.989,0,0,0-.375.574L3.11,8.846a.048.048,0,0,0,.079.047L13.139.085A.049.049,0,0,0,13.1,0L.04,2.464a.049.049,0,0,0-.012.092L2.653,3.78a.986.986,0,0,0,.683.055Z" transform="translate(0 0)" fill="#bbc3d0"/>
      <path id="Path_1399" data-name="Path 1399" d="M201.226,13.662c.9-4.117,2.536-12.373,2.687-13.073h-7.385c-.138.67-1.815,9.537-2.744,14.11Z" transform="translate(-28.235 -0.086)" fill="#bbc3d0"/>
      <path id="Path_1400" data-name="Path 1400" d="M221.338,15.484a6.636,6.636,0,0,0-3.138-.474c-1.266.052-4.641.316-6.487.5s-2.109.607-2.109.607l-.939.865-.7.627-.813.116-6.249.79s-7.62,1.029-7.7,1.108a1.664,1.664,0,0,0,.053,1,20.521,20.521,0,0,0,1.925,1.028s3.391.009,7.525.016c5.943.009,13.421.015,14.572-.016a12.189,12.189,0,0,1,1.74-3.322,17.706,17.706,0,0,1,2.136-2.214s.58-.317.185-.633" transform="translate(-28.142 -2.186)" fill="#bbc3d0"/>
      <path id="Path_1401" data-name="Path 1401" d="M55.034,34.293H4.371a.474.474,0,1,1,0-.947H52.3l-.631-.5a.475.475,0,0,1,.587-.746Z" transform="translate(-0.568 -4.663)" fill="#bbc3d0"/>
      <path id="Path_1402" data-name="Path 1402" d="M7.934,38.455a.474.474,0,0,1-.293-.1l-2.78-2.191H55.523a.474.474,0,1,1,0,.947H7.6l.631.5a.474.474,0,0,1,.079.666.469.469,0,0,1-.372.18" transform="translate(-0.708 -5.269)" fill="#bbc3d0"/>
    </g>
  </g>
</svg>
