<svg id="Group_256" data-name="Group 256" xmlns="http://www.w3.org/2000/svg" xmlns:xlink="http://www.w3.org/1999/xlink" width="199.108" height="58.448" viewBox="0 0 199.108 58.448">
  <defs>
    <clipPath id="clip-path">
      <rect id="Rectangle_200" data-name="Rectangle 200" width="199.108" height="58.448" fill="#bbc3d0"/>
    </clipPath>
  </defs>
  <g id="Group_255" data-name="Group 255" clip-path="url(#clip-path)">
    <path id="Path_1336" data-name="Path 1336" d="M447.664,72.977c0-6.635-4.784-10.679-11.191-10.679a11.024,11.024,0,0,0-11.22,11.135c0,5.126,3.246,11.192,11.049,11.192,6.863,0,11.362-5.268,11.362-11.648M437.129,83.361c-4.937,0-8.775-4.4-8.775-10.794,0-6,3.428-9.313,8.007-9.313,4.332,0,8.335,3.829,8.335,10.41,0,7.98-5.1,9.7-7.567,9.7" transform="translate(-301.465 -44.163)" fill="#bbc3d0"/>
    <path id="Path_1337" data-name="Path 1337" d="M535.342,62.294c-1.08,0-1.712.079-2,.079s-1.555-.079-2.74-.079c-.316,0-.528.027-.528.185,0,.106.026.184.211.184a7.048,7.048,0,0,1,1.291.132c.772.2.979.728,1.021,2.231v9.765c0,5.864-1.666,8.5-6.764,8.5-4.4,0-5.9-2.832-5.9-7.5v-9.5c0-3.332-.667-4-3-4h-3v.667h.666c2,0,2.333,1.333,2.333,3.332v8.5c0,6.531,2,9.829,8.5,9.829,6.831,0,8.5-3.3,8.5-9.829V64.462c.038-1.114.222-1.562.965-1.72a2.32,2.32,0,0,1,.633-.079c.184,0,.29-.079.29-.184,0-.158-.185-.185-.475-.185" transform="translate(-364.333 -44.161)" fill="#bbc3d0"/>
    <path id="Path_1338" data-name="Path 1338" d="M624.471,83.706a7.092,7.092,0,0,1-1.152-.088,6.107,6.107,0,0,1-3.6-2.127c-1.713-1.83-3.721-4.459-6.143-7.56,2.658-2.452,3.574-4.637,3.574-6.822a5.169,5.169,0,0,0-2.038-4.016,9.1,9.1,0,0,0-5.4-1.3H601.63l-.084,0H600.4v.666h.333c2.089,0,2.855,1.1,2.978,2.8.014.882.014,2.284.014,5.093v5.2c0,.955,0,1.851-.006,2.669v2.662c-.021.416-.047.779-.083,1.077-.117.856-.265,1.506-.856,1.625a4.57,4.57,0,0,1-.886.118c-.177,0-.236.089-.236.177,0,.178.147.236.473.236.428,0,1.084-.021,1.651-.042l2.854,0v0c.7.023,1.6.047,2.445.047.325,0,.473-.089.473-.236,0-.088-.059-.177-.237-.177a12.937,12.937,0,0,1-1.328-.118c-.886-.118-1.063-.768-1.152-1.625-.148-1.24-.148-3.41-.148-6.245v-.709c0-.146.059-.233.2-.235l4.231.059a.474.474,0,0,1,.384.177c.59.767,1.979,2.583,3.219,4.207,1.683,2.215,2.716,3.662,3.987,4.341a6.006,6.006,0,0,0,3.16.561h2.157c.531,0,.709-.059.709-.236,0-.088-.119-.177-.266-.177M612.479,73.192a2.865,2.865,0,0,1-1.868.561,12.57,12.57,0,0,1-3.715-.472.386.386,0,0,1-.206-.354V63.27a.356.356,0,0,1,.237-.354,17.708,17.708,0,0,1,2.584-.177c3.152.006,4.77,2.22,4.77,5.906,0,2.244-.768,3.839-1.8,4.548" transform="translate(-425.629 -43.805)" fill="#bbc3d0"/>
    <path id="Path_1339" data-name="Path 1339" d="M262.549,65.217c-.1-.106-.206-.208-.312-.307-.037-.035-.075-.068-.113-.1-.072-.065-.143-.13-.217-.193-.045-.038-.091-.075-.137-.112-.067-.055-.134-.11-.2-.163-.049-.038-.1-.074-.148-.111-.066-.049-.132-.1-.2-.146-.051-.036-.1-.071-.155-.106s-.132-.089-.2-.132l-.16-.1q-.1-.062-.2-.121l-.163-.092c-.068-.038-.136-.075-.2-.111l-.165-.085c-.069-.035-.139-.069-.209-.1l-.166-.077-.214-.094-.165-.07c-.073-.03-.146-.059-.219-.087l-.162-.062c-.076-.028-.151-.054-.228-.081l-.157-.054c-.08-.026-.161-.052-.241-.077l-.145-.045c-.091-.027-.181-.052-.272-.077l-.116-.032q-.39-.1-.779-.184l-.116-.023c-.091-.018-.18-.036-.271-.052l-.147-.025-.239-.04-.159-.024-.225-.032-.165-.021-.215-.026-.168-.018-.21-.021L254.816,62l-.206-.017-.167-.013-.2-.014-.166-.01-.2-.01-.166-.008-.189-.007-.165-.006-.183,0-.161,0-.176,0-.161,0H252.3c-.291,0-.571,0-.835,0l.005,0h-8.863v.676h.677c2.03,0,2.367,1.353,2.367,3.383l.033-.017c0,.017,0,.035,0,.052s0,.045,0,.068,0,.074,0,.112,0,.05,0,.076,0,.077,0,.117c0,.022,0,.045,0,.068,0,.049,0,.1,0,.151,0,.018,0,.037,0,.056,0,.051,0,.1,0,.156v.063c0,.836,0,1.953,0,3.5V75.5q0,.524,0,1.025v0q0,.479,0,.931c0,.038,0,.075,0,.113,0,.1,0,.2,0,.3v.148c0,.1,0,.207,0,.309v.1q0,.186,0,.366c0,.051,0,.1,0,.151,0,.075,0,.148,0,.222l0,.16c0,.071,0,.141,0,.21,0,.052,0,.1,0,.155,0,.1,0,.2-.008.292,0,.052,0,.1,0,.153s0,.112-.006.167,0,.1-.006.15,0,.112-.007.166,0,.087-.006.13c-.02.421-.047.787-.083,1.087-.117.846-.263,1.488-.846,1.605a4.517,4.517,0,0,1-.876.116c-.175,0-.233.088-.233.175,0,.176.147.234.467.234.407,0,1.018-.05,1.571-.057h.121c.612-.03,1.108-.03,1.167-.03.146,0,1.138.088,2.422.175,1.254.088,2.8.175,4.056.175a12.807,12.807,0,0,0,6.8-1.717c.076-.046.149-.092.221-.139a9.926,9.926,0,0,0,1.819-1.5,11.924,11.924,0,0,0,3.151-8.229,10.424,10.424,0,0,0-2.831-7.411l-.008-.008m-2.559,15.3a9.792,9.792,0,0,1-6.945,2.714,7.387,7.387,0,0,1-2.179-.237l-.2-.042q-.184-.041-.345-.087l-.045-.013c-.08-.024-.155-.048-.226-.073l-.061-.022a2.032,2.032,0,0,1-1.032-.693,6.375,6.375,0,0,1-.321-2.218c-.029-.555-.058-3.238-.058-6.332V69.894c0-2.247,0-5.223.029-6.215a.529.529,0,0,1,.35-.584,4.3,4.3,0,0,1,1.459-.2c3.472,0,6.361.409,9.1,3.3a9.941,9.941,0,0,1,1.834,2.726l.044.1c.126.285.245.586.352.9a11.332,11.332,0,0,1,.571,3.624c0,2.684-.817,5.485-2.334,6.974" transform="translate(-171.986 -43.877)" fill="#bbc3d0"/>
    <path id="Path_1340" data-name="Path 1340" d="M361.164,61.9c-1.069,0-1.7.078-1.982.078s-1.539-.078-2.712-.078c-.313,0-.522.026-.522.183,0,.1.026.183.209.183a6.968,6.968,0,0,1,1.278.13c.674.174.912.6.989,1.72V78.459L346.878,64.11a5.3,5.3,0,0,0-4.453-1.979h-2.144v.66h.33c1.627,0,2.444.674,2.778,1.781V82.085c-.038,1.1-.22,1.547-.956,1.7a2.29,2.29,0,0,1-.626.079c-.182,0-.287.078-.287.183,0,.156.183.183.47.183,1.069,0,1.7-.078,1.982-.078s1.539.078,2.712.078c.313,0,.522-.026.522-.183,0-.1-.026-.183-.209-.183a6.962,6.962,0,0,1-1.278-.13c-.674-.174-.913-.6-.989-1.72V66.522l.167.063,14.05,17.48a.446.446,0,0,0,.794-.279l.022-19.734c.038-1.1.22-1.547.956-1.7a2.288,2.288,0,0,1,.626-.079c.183,0,.287-.078.287-.183,0-.156-.183-.183-.47-.183" transform="translate(-241.228 -43.885)" fill="#bbc3d0"/>
    <path id="Path_1341" data-name="Path 1341" d="M319.965,62.277c.587,2.142,2.539,5.068,3.228,6.242l.572-.018a38.446,38.446,0,0,1-1.505-5.968Z" transform="translate(-226.825 -44.149)" fill="#bbc3d0"/>
    <path id="Path_1342" data-name="Path 1342" d="M418.4,162.683a3.018,3.018,0,0,0-1-.624,3.48,3.48,0,0,0-1.259-.223h-2.149v5.946h2.149a3.42,3.42,0,0,0,1.261-.227,3.086,3.086,0,0,0,1-.627,2.8,2.8,0,0,0,.654-.952,3.024,3.024,0,0,0,.229-1.174,2.993,2.993,0,0,0-.23-1.171,2.789,2.789,0,0,0-.654-.948m-2.259,3.982h-.986v-3.712h.986a2.208,2.208,0,0,1,.821.146,1.785,1.785,0,0,1,.611.393,1.749,1.749,0,0,1,.386.588,1.968,1.968,0,0,1,.138.737,1.93,1.93,0,0,1-.137.734,1.784,1.784,0,0,1-.386.583,1.746,1.746,0,0,1-.609.388,2.277,2.277,0,0,1-.824.143" transform="translate(-293.481 -114.727)" fill="#bbc3d0"/>
    <path id="Path_1343" data-name="Path 1343" d="M443.56,165.248a1.578,1.578,0,0,1-.359,1.138,1.314,1.314,0,0,1-.988.363,1.3,1.3,0,0,1-1.009-.381,1.659,1.659,0,0,1-.361-1.159v-3.373h-1.163v3.412a3.2,3.2,0,0,0,.179,1.1,2.281,2.281,0,0,0,.523.835,2.205,2.205,0,0,0,.81.511,3.149,3.149,0,0,0,2.023,0,2.18,2.18,0,0,0,.811-.516,2.311,2.311,0,0,0,.522-.848,3.331,3.331,0,0,0,.178-1.134v-3.366H443.56Z" transform="translate(-311.691 -114.727)" fill="#bbc3d0"/>
    <path id="Path_1344" data-name="Path 1344" d="M469.82,164.967a1.775,1.775,0,0,0-.407-.3,1.668,1.668,0,0,0,.2-.207,1.515,1.515,0,0,0,.24-.433,1.648,1.648,0,0,0,.089-.564,1.526,1.526,0,0,0-.151-.681,1.451,1.451,0,0,0-.436-.523,2,2,0,0,0-.64-.313,2.785,2.785,0,0,0-.8-.108h-2.567v5.946h2.668a3.262,3.262,0,0,0,.873-.11,2.167,2.167,0,0,0,.71-.333,1.571,1.571,0,0,0,.479-.565,1.655,1.655,0,0,0,.168-.748,1.513,1.513,0,0,0-.115-.6,1.425,1.425,0,0,0-.3-.457m-1.274-.924a1.237,1.237,0,0,1-.729.2H466.5V162.93h1.359a1.158,1.158,0,0,1,.712.181.506.506,0,0,1,.2.431.565.565,0,0,1-.23.5m-2.042,1.289h1.42a1.674,1.674,0,0,1,.912.2.514.514,0,0,1,.24.463.562.562,0,0,1-.239.495,1.369,1.369,0,0,1-.805.2H466.5Z" transform="translate(-329.884 -114.727)" fill="#bbc3d0"/>
    <path id="Path_1345" data-name="Path 1345" d="M490.329,161.7l-2.708,5.984h1.234l.639-1.425h2.574l.632,1.425h1.265l-2.708-5.984Zm-.348,3.465.8-1.792.8,1.792Z" transform="translate(-345.678 -114.633)" fill="#bbc3d0"/>
    <rect id="Rectangle_199" data-name="Rectangle 199" width="1.163" height="5.946" transform="translate(150.236 47.109)" fill="#bbc3d0"/>
    <path id="Path_1346" data-name="Path 1346" d="M43.057,8.033c1.287-1.67,2.606-3.38,4.829-3.835,3.587-.734,7.193-1.381,10.791-2.058a6.084,6.084,0,0,1,5.346,1.316,49.381,49.381,0,0,0,6.149,3.706,14.746,14.746,0,0,1,2.6,1.572,4.177,4.177,0,0,1,1.042,4.7c1.3-.08,2.6-.185,3.89-.233,3.175-.117,5.1,1.61,5.584,4.732C83.757,20.972,84.338,24,85,27.008a7.462,7.462,0,0,1-.9,5.938,48.94,48.94,0,0,1-4.57,5.93,9.752,9.752,0,0,0-2.619,7.616c.834-4.048,3.827-6.665,6.247-9.668a28.911,28.911,0,0,0,2.2-3.2c1.369-2.265,2.072-4.64,1.032-7.276a18.746,18.746,0,0,1-1.181-7.357c.084-4.395-2.4-7.14-6.407-7.152a26.648,26.648,0,0,0-3.979.591c.047-.323.086-.624.137-.924A4.293,4.293,0,0,0,72.6,6.582a47.122,47.122,0,0,1-9.516-5.7A4.385,4.385,0,0,0,59.171.161C55.56.976,51.905,1.593,48.285,2.369A6.06,6.06,0,0,0,45.466,3.48c-2.105,1.976-4.03,4.144-6.011,6.251-.976,1.039-1.921,2.108-2.879,3.163a17.621,17.621,0,0,0,6.482-4.862" transform="translate(-25.928 0)" fill="#bbc3d0"/>
    <path id="Path_1347" data-name="Path 1347" d="M109.912,42.29c-.673,1.772-1.253,3.58-1.873,5.372l.343.067c.651-1.312,1.31-2.62,1.953-3.937a58.681,58.681,0,0,0,2.875-6.034c1.4-3.977.329-6.551-3.226-8.767a35.35,35.35,0,0,1-4.736-3.267c-2.243-1.972-4.325-4.132-6.419-6.267-1.879-1.915-3.953-2.962-6.736-2.262-1.772.446-3.617.592-5.416.94a7.153,7.153,0,0,0-4.062,1.821c2.874-.392,5.816-.788,8.756-1.2,3.012-.418,5.329.7,7.388,2.905a58.307,58.307,0,0,0,5.779,5.163c1.655,1.357,3.472,2.513,5.163,3.828a5.973,5.973,0,0,1,2.183,6.818c-.479,1.657-1.354,3.195-1.971,4.817" transform="translate(-58.566 -12.035)" fill="#bbc3d0"/>
    <path id="Path_1348" data-name="Path 1348" d="M85.839,76.366c2.528-.174,2.12,2.255,3.17,3.64,0-.706.029-1.2,0-1.684-.156-2.246-1.081-3.489-2.764-3.75a4.75,4.75,0,0,0-5.211,2.67,10.26,10.26,0,0,0,.445,8.08c.721,1.523,1.846,1.991,3.6,1.664-2.206-.773-3.348-3.367-2.8-6.494,1.15.818,2.245,1.648,3.391,2.4,2.415,1.588,4.69,1.158,6.09-1.21a34.184,34.184,0,0,0,1.54-3.343,7.527,7.527,0,0,0-1.968,2.206c-1.062,1.768-2.683,2.291-4.393,1.142-1.543-1.037-2.949-2.276-4.374-3.393.705-1.591,1.919-1.837,3.284-1.931" transform="translate(-57 -52.822)" fill="#bbc3d0"/>
    <path id="Path_1349" data-name="Path 1349" d="M1.857,59.315a5.581,5.581,0,0,1,1.172-6.736A38.47,38.47,0,0,0,6.8,47.924a6.862,6.862,0,0,1,5.437-3.2c2.456-.216,4.262-1.664,6.006-2.723-2.15.34-4.481.656-6.79,1.09-2.057.387-4.124.78-5.436,2.743C4.884,47.531,3.7,49.2,2.429,50.788.964,52.616-.224,54.514.036,56.974c.109,1.032.358,2.035,1.821,2.342" transform="translate(0 -29.777)" fill="#bbc3d0"/>
    <path id="Path_1350" data-name="Path 1350" d="M109.313,73.675c-.721.667-1.36,1.426-2.1,2.069a6.791,6.791,0,0,1-2.324,1.663,6.974,6.974,0,0,1-2.628-.293,3.625,3.625,0,0,0,5.525.4c.951-.875,1.8-1.859,2.723-2.768,1.431-1.411,1.671-2.4.694-4.139a13.554,13.554,0,0,1-1.924-6.058,1.959,1.959,0,0,0-1.587-2.085c.133.948.227,1.806.378,2.653.221,1.246.416,2.5.751,3.721a12.659,12.659,0,0,0,.975,2.046,2.156,2.156,0,0,1-.481,2.788" transform="translate(-72.494 -44.283)" fill="#bbc3d0"/>
    <path id="Path_1351" data-name="Path 1351" d="M61.331,63.6a16.682,16.682,0,0,0-.427,4.163.951.951,0,0,0,.155.506c1.5,2.583,2.9,5.241,4.585,7.7A3.333,3.333,0,0,0,67,77.21c1.613.311,3.2.563,4.765.935s3.09.887,4.643,1.3a8.414,8.414,0,0,0,7.7-1.579,4.56,4.56,0,0,0,1.786-3.6c-.392.487-.658.837-.944,1.171A7.416,7.416,0,0,1,77.088,77.7c-2.1-.593-4.264-.93-6.408-1.341-2.315-.443-4.189-1.364-5.1-3.779a10.717,10.717,0,0,0-1.831-2.919,4.755,4.755,0,0,1-.858-5.483A22.934,22.934,0,0,1,66,59.851a47.347,47.347,0,0,1,3.527-3.364c-2.656.855-7.364,4.764-8.192,7.108" transform="translate(-43.174 -40.044)" fill="#bbc3d0"/>
    <path id="Path_1352" data-name="Path 1352" d="M79.387,68.411a29.831,29.831,0,0,1-1.1-4.678c-.319-2.595-1.1-3.516-3.784-3.932a12.845,12.845,0,0,1,1.785-1.75A3.815,3.815,0,0,0,78.133,55.1c.163-1.737.19-3.5.491-5.209.325-1.851,1.007-3.665-.61-5.274-.131-.13-.044-.455-.145-.642a6.692,6.692,0,0,0-1.322-2.233,55.216,55.216,0,0,1-8.318-7.532,5.222,5.222,0,0,0-4.645-1.9c-2.885-.578-5.664-1.133-8.441-1.691-3.2-.645-5.516.75-7.412,3.183a37.276,37.276,0,0,1-4.564,5.534,7.13,7.13,0,0,0-1.9,8.36c1.206,2.628,2.409,5.258,3.638,7.875a6.145,6.145,0,0,0,.863,1.348,3.685,3.685,0,0,0,4.359,1.131c-2.756-.826-3.836-2.937-4.644-5.369a55.992,55.992,0,0,0-2.632-6.714,3.363,3.363,0,0,1,.245-3.858,9.158,9.158,0,0,1,1.749-2.016A15.814,15.814,0,0,0,49.41,34.24,3.367,3.367,0,0,1,52.5,32.227a48.169,48.169,0,0,1,5.175.434,18.953,18.953,0,0,0,3.866.249,49.973,49.973,0,0,1-7.869,2.255c-1.737.282-2.457,2.01-1.959,3.8.712-2.075,2.294-2.518,4.095-2.829a36.093,36.093,0,0,0,5.8-1.5c2.409-.846,4.394-.731,5.936,1.282a34.176,34.176,0,0,0,7.114,6.445,4.028,4.028,0,0,1,1.629,4.5c-.719,2.8-1.552,5.6-4.664,6.609a4.926,4.926,0,0,0,.951-6.989c-2.06-2.582-4.258-5.054-6.3-7.649a3.156,3.156,0,0,0-4.021-1.151c-2.151.939-4.21,2.1-6.264,3.241-.419.233-.643.816-.957,1.237a20.391,20.391,0,0,0,1.8-.972c1.556-.645,3.166-1.159,4.735-1.773a3.379,3.379,0,0,1,4.023.8c1.68,2.085,3.354,4.176,5.077,6.225,1.745,2.076,1.893,3.642-.013,5.535a52.38,52.38,0,0,1-5,3.943l.046.235a56.447,56.447,0,0,0,5.4-2.366c3.016.6,4.465-1.352,5.759-3.943.179,3.631-.211,6.578-3.285,8.5a5.039,5.039,0,0,0-1.494,1.856c-1.249,2.25-2.243,2.642-4.7,1.944a8.2,8.2,0,0,0-6.172.59c2.071.358,4.282.709,6.481,1.13,2.106.4,3.9.162,5.058-1.934a14.38,14.38,0,0,1,1.482-1.881c.066.114.111.306.2.33,1.818.488,2.327,1.782,2.454,3.523a20.15,20.15,0,0,0,.875,4.161c.5,1.706.132,2.642-1.582,3.221a12.192,12.192,0,0,1-10.833-1.084c-2.859-1.807-5.546-3.9-8.237-5.957-1.57-1.2-3.07-2.441-5.131-2.388a1.834,1.834,0,0,0-.742.178l0,0c3.2,1.521,7.947,5.551,8.265,5.787,2.762,2.042,5.391,4.3,8.836,5.178.6.153,1.2.324,1.8.486l0,.008c.921.072,4.332.589,6.908-.632,2-.947,2.975-2.3,2.344-4.46" transform="translate(-28.808 -21.595)" fill="#bbc3d0"/>
    <path id="Path_1353" data-name="Path 1353" d="M22.875,111.713c2.906-.667,7.246-.205,8.83-.526-3.892-.6-2.507-.973-6.41-1.238-4.3-1.541-7.2-4.307-8.083-9.02a28.1,28.1,0,0,0-1.759-5.741A4.352,4.352,0,0,0,13.3,93.069a10.706,10.706,0,0,0-3.571-.446,6.436,6.436,0,0,0-5.674,4.043A5.548,5.548,0,0,0,6,102.882a8.481,8.481,0,0,1,1.712,1.855c.9,1.334,1.717,2.721,2.5,4.127a4.689,4.689,0,0,0,3.844,2.594c1.729.121,3.47.059,5.211.018-1.956,1.046-3.481,3.015-3.4,4.532.1,1.826,1.876,3.291,4.6,4.089,3.933,1.154,7.837,2.411,11.731,3.692a5.363,5.363,0,0,0,4.163-.213c2.491-1.2,5.219-2.108,7.358-3.769a10.178,10.178,0,0,1,2.858-1.579,7.977,7.977,0,0,0-4.921.918c-1.374.873-3.065,1.216-4.388,2.128a4.937,4.937,0,0,1-5.275.689A49.282,49.282,0,0,0,20,117.8a4.058,4.058,0,0,1-1.338-.6c-1.161-.725-1.3-1.551-.5-2.694a7.394,7.394,0,0,1,4.716-2.8m-4.812-1.028c-2.519-.2-4.834-.8-6.441-3.018-1.729-2.389-3.534-4.724-5.325-7.067-1.513-1.981-.893-5.117,1.4-5.855a10.7,10.7,0,0,1,4.439-.219,2.773,2.773,0,0,1,1.721,1.6,54.662,54.662,0,0,1,1.932,5.986,11.965,11.965,0,0,0,2.807,5.412,10.14,10.14,0,0,0,4.379,2.746,17.487,17.487,0,0,0-2.22.591c-.9-.057-1.795-.1-2.69-.174" transform="translate(-2.655 -65.659)" fill="#bbc3d0"/>
  </g>
</svg>
