<?xml version="1.0" encoding="UTF-8"?>
<svg id="Layer_2" data-name="Layer 2" xmlns="http://www.w3.org/2000/svg" viewBox="0 0 125.28 46.95">
  <defs>
    <style>
      .cls-1 {
        isolation: isolate;
      }

      .cls-2 {
        fill: #bbc3d0;
      }
    </style>
  </defs>
  <g id="Layer_1-2" data-name="Layer 1">
    <g id="Group_460" data-name="Group 460">
      <g id="Dr._Minnie" data-name="Dr. Minnie" class="cls-1">
        <g class="cls-1">
          <path class="cls-2" d="M25,5.81c.95,1.68,1.48,3.59,1.57,5.72.1,2.13-.23,4.37-.98,6.71,0,.07-.02.14-.05.21-1.01,3.09-2.66,6.21-4.97,9.36-1.16,1.58-2.53,3.01-4.1,4.3-1.57,1.29-3.07,2.28-4.5,2.96s-2.67,1.06-3.73,1.13h-.26c-.75,0-1.29-.2-1.64-.6-.33-.35-.41-.86-.23-1.53.16-.66.57-1.51,1.25-2.56.68-1.05,1.59-2.22,2.74-3.52,1.15-1.3,2.44-2.58,3.86-3.85,1.42-1.26,3.06-2.48,4.93-3.64s3.73-2.1,5.6-2.81c1.37-4.45,1.19-8.21-.55-11.26-1.08-1.89-2.64-3.28-4.68-4.17-2.05-.89-4.39-1.22-7.05-.97-1.79.17-3.43.66-4.94,1.46-1.51.8-2.78,1.86-3.82,3.2-.87,1.13-1.49,2.35-1.87,3.67-.38,1.32-.47,2.61-.26,3.87.07.45.19.85.36,1.2s.35.61.53.78c.18.17.38.31.58.42.21.1.36.16.46.18.1.02.17.04.22.05.1,0,.2.03.3.09.1.06.16.14.21.23.04.1.06.2.06.33-.02.16-.09.29-.22.4-.13.11-.27.16-.43.14-.28-.02-.57-.09-.87-.22-.3-.13-.62-.33-.96-.58-.34-.26-.64-.64-.91-1.13-.27-.49-.46-1.06-.56-1.7-.23-1.42-.13-2.87.3-4.36s1.13-2.86,2.12-4.12c.75-.97,1.62-1.82,2.61-2.54,1-.72,2.08-1.29,3.26-1.73S10.83.21,12.13.09c2.89-.28,5.47.09,7.72,1.09,2.25,1.01,3.97,2.55,5.15,4.63ZM11.71,4.48c.09-.22.25-.35.48-.38.23-.03.42.04.57.21.15.17.18.37.09.61-3.97,9.83-6.9,19.94-8.79,30.34-.05.24-.19.4-.4.48-.22.08-.42.06-.6-.07s-.26-.3-.22-.55c1.92-10.54,4.88-20.76,8.87-30.65ZM19.59,27.1c1.94-2.65,3.41-5.29,4.39-7.9-1.94.82-3.87,1.88-5.77,3.2-1.91,1.32-3.56,2.67-4.97,4.04-1.4,1.38-2.6,2.7-3.6,3.95-1,1.26-1.69,2.34-2.09,3.26-.26.59-.36.98-.29,1.17.12.12.42.17.91.16.87-.05,1.94-.38,3.22-.97,1.28-.6,2.69-1.51,4.21-2.74,1.52-1.23,2.85-2.62,3.98-4.16Z"/>
          <path class="cls-2" d="M33.84,17.09c.17.02.31.09.42.22s.15.28.13.44c-.02.17-.1.3-.23.4-.14.1-.29.15-.44.13-.8-.1-1.6.25-2.4,1.05s-1.51,1.84-2.11,3.09c-.6,1.26-1.11,2.64-1.55,4.15-.07.28-.24.42-.52.44-.02.02-.03.03-.05.03-.26,0-.44-.11-.55-.34-.42-.85.29-4.93,2.13-12.25.03-.16.13-.28.27-.36.15-.09.3-.11.46-.06.16.04.28.13.36.27.09.14.11.29.08.47-.61,2.44-1.13,4.71-1.56,6.81.76-1.49,1.62-2.65,2.56-3.47s1.95-1.17,3-1.03Z"/>
          <path class="cls-2" d="M37.06,23.05c.1.12.15.27.13.44-.02.17-.09.31-.21.42-.28.23-.56.2-.86-.08-.17-.17-.3-.3-.39-.39-.1-.12-.14-.27-.12-.44.03-.17.1-.31.22-.42.28-.23.55-.2.83.08.17.17.3.3.39.39Z"/>
          <path class="cls-2" d="M83.97,10.23c.28.4.42.94.42,1.62s-.06,1.26-.18,1.73c-.02.09-.03.16-.03.21-.19,1.14-.68,3.2-1.46,6.16-.04.16-.26.98-.66,2.48-.41,1.5-.65,2.44-.74,2.82-.09.38-.27,1.19-.56,2.43-.29,1.24-.48,2.19-.57,2.85-.1.66-.2,1.48-.31,2.47-.11.99-.17,1.92-.17,2.78,0,.35-.17.52-.52.52-.33.02-.55-.12-.65-.42-.04-.07-.05-.15-.05-.23.02-1.35.15-2.83.4-4.45.25-1.61.5-2.96.75-4.03.25-1.08.61-2.52,1.08-4.34.14-.52.46-1.61.97-3.28.51-1.66.88-3.08,1.12-4.26.23-1.18.34-2.31.33-3.38,0-.1-.02-.25-.05-.43-.03-.18-.06-.32-.08-.4-.02-.09-.02-.14,0-.16-.07-.02-.16-.01-.26.01-.1.03-.21.07-.31.12-.1.05-.23.12-.36.21-.14.09-.26.17-.35.23-.1.07-.2.15-.3.23-.1.09-.17.14-.21.16-1.37.97-2.94,2.44-4.71,4.42-3.61,4.04-6.42,8.17-8.45,12.4-.1.21-.27.33-.49.35-.23.03-.41-.04-.56-.21s-.18-.36-.09-.58c1.61-4.23,2.56-9.26,2.83-15.11.07-.78.1-1.69.08-2.74s-.13-1.95-.34-2.72c-.05-.21-.12-.39-.2-.53s-.17-.25-.27-.3c-.1-.05-.2-.09-.29-.12s-.2,0-.35.05c-.15.06-.26.11-.34.14-.08.03-.21.12-.39.26s-.31.24-.38.3-.2.17-.39.33c-.57.49-1.13,1.05-1.66,1.69-.54.64-1,1.25-1.38,1.82-.38.57-.8,1.27-1.25,2.11-.45.83-.81,1.52-1.07,2.05s-.6,1.24-1.01,2.11c-1.35,2.96-2.89,6.85-4.6,11.65-.14.36-.29.79-.44,1.27-.16.48-.3.92-.43,1.31-.13.39-.28.82-.44,1.3-.17.48-.32.91-.47,1.31-.15.4-.31.82-.49,1.26-.18.44-.37.85-.56,1.24-.12.22-.29.35-.52.36-.23.02-.41-.06-.56-.22s-.17-.36-.06-.58c.5-1.08.95-2.31,1.34-3.72s.67-2.61.84-3.61c.17-1.01.37-2.31.6-3.93.57-3.93.93-7.96,1.07-12.09.09-1.42.11-3.04.08-4.86-.04-1.82-.18-3.43-.44-4.84-.02-.02-.03-.06-.03-.13-.05-.31-.1-.55-.14-.73-.04-.17-.12-.36-.23-.56-.11-.2-.25-.32-.4-.35-.24-.07-.5-.07-.78.01s-.54.19-.78.34c-.24.15-.51.36-.81.62s-.54.51-.74.73c-.2.22-.43.49-.7.82-.27.33-.46.57-.56.71-.1.15-.25.35-.44.61-.42.59-.82,1.21-1.2,1.87-.38.66-.76,1.4-1.14,2.24-.38.83-.65,1.64-.79,2.43s-.19,1.55-.13,2.29.34,1.4.83,1.99c.49.59,1.19,1.04,2.09,1.35.22.07.35.22.38.44.03.22-.04.42-.21.57-.17.16-.37.19-.61.1-1.14-.4-2.02-.99-2.63-1.78-.61-.79-.95-1.64-1.01-2.56-.07-.92.02-1.92.27-3,.25-1.08.59-2.08,1.01-3,.42-.92.91-1.79,1.47-2.63.17-.28.38-.58.61-.91.23-.33.55-.73.94-1.2.39-.47.78-.91,1.17-1.31.39-.41.82-.79,1.29-1.14s.91-.62,1.33-.79.84-.23,1.26-.16.79.29,1.1.68c.09.1.17.22.25.34.08.12.14.27.2.44.05.17.1.31.14.42.04.1.08.27.12.49s.06.37.07.44c0,.07.03.23.06.49.04.26.05.4.05.42.19,1.37.29,3.18.31,5.43.03,4.84-.3,9.9-1.01,15.18-.02.14-.07.53-.16,1.17.02-.05.04-.13.08-.22.03-.1.06-.18.09-.26s.06-.15.09-.22c2.12-5.67,4.12-10.08,6.01-13.23,1.18-1.96,2.35-3.48,3.51-4.58,1.49-1.42,2.66-2.06,3.51-1.92.28.05.53.17.75.34.22.17.41.41.55.7s.26.61.35.94c.09.33.16.71.21,1.14.04.43.07.83.09,1.2.02.36.02.78,0,1.24-.02.46-.04.83-.05,1.1-.02.28-.04.6-.06.98s-.04.61-.04.71c-.21,3.48-.64,6.68-1.3,9.59,1.98-3.14,4.27-6.09,6.89-8.87.05-.04.13-.11.23-.23.24-.26.45-.48.62-.66.17-.18.45-.46.82-.84s.71-.7,1-.95.65-.54,1.05-.86c.41-.32.78-.56,1.1-.73s.66-.3,1-.42c.34-.11.64-.13.91-.05s.5.24.69.48Z"/>
          <path class="cls-2" d="M92.72,19.5c.16-.03.32,0,.45.1.14.1.22.23.25.39.03.17-.01.32-.12.46-.28.38-.59.79-.95,1.22-.36.43-.84.97-1.47,1.62-.62.65-1.28,1.18-1.98,1.59s-1.33.61-1.9.61c-.36,0-.7-.08-1.01-.23-.38-.23-.62-.66-.71-1.3-.09-.64-.06-1.39.12-2.24.17-.85.35-1.6.55-2.26.19-.66.41-1.32.65-1.98.05-.16.15-.27.3-.34.15-.07.3-.08.46-.03.1.03.19.09.26.18s.11.18.13.27c.02.1,0,.2-.03.33-.36,1.01-.66,2-.9,2.98s-.36,1.74-.38,2.27c-.02.54.03.88.16,1.04.57.31,1.43-.02,2.57-1,1.14-.98,2.19-2.13,3.15-3.44.1-.14.24-.22.4-.25ZM87.01,15.14c-.29,0-.49-.14-.57-.42-.07-.16-.07-.31.01-.46.08-.15.2-.25.35-.33.03,0,.09-.02.17-.05.08-.03.16-.07.25-.1.09-.04.17-.07.25-.1.08-.03.18-.08.3-.13l.47,1.14c-.55.22-.9.36-1.04.39-.05.04-.11.05-.18.05Z"/>
          <path class="cls-2" d="M100.89,24.11c.17,0,.32.06.43.18.11.12.17.26.17.43s-.06.31-.18.43c-.59.55-1.19.83-1.79.83-.29,0-.56-.09-.81-.26-.24-.16-.44-.43-.58-.82-.15-.39-.24-.75-.29-1.08s-.1-.82-.17-1.46c-.1-1.14-.22-1.82-.34-2.03-.42.12-1.46,1.21-3.15,3.25-.61.75-1.06,1.27-1.35,1.59-.29.31-.55.52-.75.61-.21.09-.41.07-.6-.07s-.28-.32-.26-.55c.1-1.07.72-3.86,1.85-8.35.05-.16.15-.28.29-.36.14-.09.29-.11.46-.08.16.04.29.13.38.27.09.15.11.3.08.46-.56,2.11-1.05,4.21-1.48,6.29.12-.16.28-.36.47-.6,1.14-1.39,2.03-2.37,2.65-2.94.62-.57,1.18-.82,1.66-.75.24.03.45.13.61.29.17.16.29.41.38.75s.15.65.2.91c.04.26.09.66.14,1.2.14,1.51.3,2.33.49,2.47.1.07.27.05.49-.06s.42-.25.6-.4c.1-.1.24-.16.42-.16Z"/>
          <path class="cls-2" d="M110.17,24.11c.17,0,.32.06.43.18.11.12.17.26.17.43s-.06.31-.18.43c-.59.55-1.19.83-1.79.83-.29,0-.56-.09-.81-.26-.24-.16-.44-.43-.58-.82-.15-.39-.24-.75-.29-1.08-.04-.33-.1-.82-.17-1.46-.1-1.14-.22-1.82-.34-2.03-.42.12-1.46,1.21-3.15,3.25-.61.75-1.06,1.27-1.35,1.59-.29.31-.55.52-.75.61-.21.09-.41.07-.6-.07s-.28-.32-.26-.55c.1-1.07.72-3.86,1.85-8.35.05-.16.15-.28.29-.36s.29-.11.46-.08c.17.04.29.13.38.27s.11.3.08.46c-.55,2.11-1.05,4.21-1.48,6.29.12-.16.28-.36.47-.6,1.14-1.39,2.03-2.37,2.65-2.94.62-.57,1.18-.82,1.66-.75.24.03.45.13.61.29.16.16.29.41.38.75s.15.65.2.91c.04.26.09.66.14,1.2.14,1.51.3,2.33.49,2.47.1.07.27.05.49-.06.22-.11.42-.25.6-.4.1-.1.24-.16.42-.16Z"/>
          <path class="cls-2" d="M116.82,19.5c.17-.03.32,0,.46.1.14.1.22.23.25.39.03.17-.01.32-.12.46-.28.38-.59.79-.95,1.22s-.84.97-1.47,1.62c-.62.65-1.28,1.18-1.98,1.59-.69.41-1.33.61-1.9.61-.36,0-.7-.08-1.01-.23-.38-.23-.62-.66-.71-1.3-.1-.64-.06-1.39.12-2.24.17-.85.36-1.6.55-2.26.19-.66.41-1.32.65-1.98.05-.16.15-.27.3-.34s.3-.08.46-.03c.1.03.19.09.26.18s.11.18.13.27c.02.1,0,.2-.03.33-.36,1.01-.66,2-.9,2.98-.23.98-.36,1.74-.38,2.27-.02.54.04.88.16,1.04.57.31,1.43-.02,2.57-1,1.14-.98,2.19-2.13,3.15-3.44.1-.14.24-.22.4-.25ZM111.11,15.14c-.29,0-.49-.14-.57-.42-.07-.16-.06-.31.01-.46.08-.15.19-.25.35-.33.03,0,.09-.02.17-.05.08-.03.16-.07.25-.1.09-.04.17-.07.25-.1.08-.03.18-.08.3-.13l.47,1.14c-.55.22-.9.36-1.04.39-.05.04-.11.05-.18.05Z"/>
          <path class="cls-2" d="M124.67,20.59c.17,0,.31.05.43.17.12.12.18.26.18.43s-.05.31-.16.43c-.26.28-.58.59-.95.92-.37.34-.91.79-1.61,1.35-.7.56-1.44,1.03-2.21,1.39-.77.36-1.47.55-2.11.55s-1.17-.19-1.62-.57c-.47-.43-.76-1-.87-1.7-.11-.7-.08-1.42.1-2.14.18-.73.46-1.46.84-2.18.49-.9,1.08-1.65,1.79-2.25s1.42-.8,2.13-.61c.69.19,1.08.56,1.17,1.09.05.38-.09.81-.42,1.3-.33.49-.79.97-1.37,1.44-.58.48-1.11.88-1.6,1.22s-.99.67-1.51,1c-.09.88.09,1.53.52,1.92.26.26.62.35,1.08.26.46-.09.94-.25,1.44-.51.5-.25,1.03-.58,1.59-.99.55-.41,1.06-.81,1.51-1.2.45-.39.85-.77,1.2-1.13.12-.12.26-.19.43-.2ZM117.77,19.82c-.16.28-.29.56-.42.86.92-.64,1.69-1.25,2.31-1.82.62-.57.94-.98.94-1.22,0-.02-.1-.04-.29-.08-.05-.02-.1-.03-.16-.03-.35,0-.74.21-1.18.64-.44.42-.84.97-1.21,1.65Z"/>
        </g>
      </g>
      <g id="Bodhanwala" class="cls-1">
        <g class="cls-1">
          <path class="cls-2" d="M40.15,41.27c.56.16,1.01.48,1.36.99.35.5.52,1.07.52,1.72,0,.8-.27,1.47-.82,2-.54.53-1.22.79-2.03.79h-4.83v-10.35h4.47c.76,0,1.4.25,1.9.74.51.49.76,1.11.76,1.86,0,.5-.12.95-.37,1.37-.25.41-.57.71-.95.9ZM38.5,37.66h-2.82v3.15h2.82c.43,0,.8-.15,1.11-.45s.45-.68.45-1.12-.15-.82-.44-1.12c-.29-.3-.67-.45-1.12-.45ZM38.86,45.52c.5,0,.92-.17,1.26-.51.33-.34.5-.76.5-1.26s-.17-.92-.5-1.25c-.33-.33-.75-.5-1.26-.5h-3.18v3.52h3.18Z"/>
          <path class="cls-2" d="M47.19,46.95c-.76,0-1.46-.17-2.08-.52-.62-.35-1.11-.83-1.47-1.44-.35-.61-.53-1.29-.53-2.04s.18-1.43.53-2.04c.35-.61.84-1.09,1.47-1.44.62-.35,1.32-.52,2.08-.52,1.15,0,2.12.38,2.9,1.15.78.77,1.17,1.72,1.17,2.86s-.39,2.09-1.17,2.86c-.78.77-1.75,1.15-2.9,1.15ZM47.19,45.7c.78,0,1.43-.26,1.95-.79.52-.53.78-1.18.78-1.97s-.26-1.44-.78-1.97c-.52-.53-1.17-.79-1.95-.79s-1.44.26-1.96.79-.78,1.18-.78,1.97.26,1.44.78,1.97,1.18.79,1.96.79Z"/>
          <path class="cls-2" d="M59.28,35.96h1.29v10.8h-1.29v-1.38c-.33.49-.75.87-1.26,1.15-.51.28-1.08.41-1.71.41-.72,0-1.37-.17-1.96-.52-.59-.35-1.04-.83-1.37-1.44-.33-.61-.49-1.29-.49-2.04s.17-1.43.49-2.04c.33-.61.79-1.09,1.37-1.44.59-.35,1.24-.52,1.96-.52.62,0,1.2.14,1.71.41.52.28.94.66,1.26,1.15v-4.53ZM56.55,45.7c.78,0,1.43-.26,1.95-.79.52-.53.78-1.18.78-1.97s-.26-1.44-.78-1.97c-.52-.53-1.17-.79-1.95-.79s-1.44.26-1.96.79-.78,1.18-.78,1.97.26,1.44.78,1.97,1.18.79,1.96.79Z"/>
          <path class="cls-2" d="M66.8,38.93c.93,0,1.68.28,2.25.85.57.57.85,1.32.85,2.26v4.72h-1.29v-4.32c0-.68-.2-1.23-.61-1.64-.41-.41-.95-.62-1.63-.62s-1.27.21-1.7.63c-.42.42-.64.97-.64,1.66v4.29h-1.29v-10.8h1.29v4.37c.62-.93,1.54-1.39,2.75-1.39Z"/>
          <path class="cls-2" d="M78.32,39.12h1.29v7.65h-1.29v-1.38c-.33.49-.75.87-1.26,1.15-.51.28-1.08.41-1.71.41-.72,0-1.37-.17-1.96-.52-.59-.35-1.04-.83-1.37-1.44-.33-.61-.49-1.29-.49-2.04s.17-1.43.49-2.04c.33-.61.79-1.09,1.37-1.44.59-.35,1.24-.52,1.96-.52.62,0,1.2.14,1.71.41.52.28.94.66,1.26,1.15v-1.38ZM75.59,45.7c.78,0,1.43-.26,1.95-.79.52-.53.78-1.18.78-1.97s-.26-1.44-.78-1.97c-.52-.53-1.17-.79-1.95-.79s-1.44.26-1.96.79-.78,1.18-.78,1.97.26,1.44.78,1.97,1.18.79,1.96.79Z"/>
          <path class="cls-2" d="M85.84,38.93c.93,0,1.68.28,2.25.85.57.57.85,1.32.85,2.26v4.72h-1.29v-4.32c0-.68-.2-1.23-.61-1.64-.41-.41-.95-.62-1.63-.62s-1.27.21-1.7.63c-.42.42-.64.97-.64,1.66v4.29h-1.29v-7.65h1.29v1.16c.62-.9,1.54-1.35,2.75-1.35Z"/>
          <path class="cls-2" d="M100.96,39.12h1.41l-2.8,7.65h-1.35l-2.12-6.12-2.12,6.12h-1.35l-2.81-7.65h1.45l2.07,6.07,2.1-6.07h1.32l2.12,6.09,2.07-6.09Z"/>
          <path class="cls-2" d="M109.62,39.12h1.29v7.65h-1.29v-1.38c-.33.49-.75.87-1.26,1.15-.52.28-1.08.41-1.71.41-.72,0-1.37-.17-1.96-.52-.59-.35-1.04-.83-1.37-1.44-.33-.61-.49-1.29-.49-2.04s.17-1.43.49-2.04c.33-.61.79-1.09,1.37-1.44.59-.35,1.24-.52,1.96-.52.62,0,1.19.14,1.71.41.51.28.94.66,1.26,1.15v-1.38ZM106.89,45.7c.78,0,1.43-.26,1.95-.79.52-.53.78-1.18.78-1.97s-.26-1.44-.78-1.97c-.52-.53-1.17-.79-1.95-.79s-1.44.26-1.96.79-.78,1.18-.78,1.97.26,1.44.78,1.97,1.18.79,1.96.79Z"/>
          <path class="cls-2" d="M113.1,46.76v-10.8h1.29v10.8h-1.29Z"/>
          <path class="cls-2" d="M122.89,39.12h1.29v7.65h-1.29v-1.38c-.33.49-.75.87-1.26,1.15-.52.28-1.08.41-1.71.41-.72,0-1.37-.17-1.96-.52-.59-.35-1.04-.83-1.37-1.44-.33-.61-.49-1.29-.49-2.04s.17-1.43.49-2.04c.33-.61.79-1.09,1.37-1.44.59-.35,1.24-.52,1.96-.52.62,0,1.19.14,1.71.41.51.28.94.66,1.26,1.15v-1.38ZM120.16,45.7c.78,0,1.43-.26,1.95-.79.52-.53.78-1.18.78-1.97s-.26-1.44-.78-1.97c-.52-.53-1.17-.79-1.95-.79s-1.44.26-1.96.79-.78,1.18-.78,1.97.26,1.44.78,1.97,1.18.79,1.96.79Z"/>
        </g>
      </g>
    </g>
  </g>
</svg>