<?xml version="1.0" encoding="UTF-8"?>
<svg id="Layer_2" data-name="Layer 2" xmlns="http://www.w3.org/2000/svg" viewBox="0 0 387.11 97.13">
  <defs>
    <style>
      .cls-1 {
        fill: #bbc3d0;
      }
    </style>
  </defs>
  <g id="Layer_2-2" data-name="Layer 2">
    <g>
      <g>
        <path class="cls-1" d="M142.59,51.49c-.1.35-.23.7-.37,1.03-.51,1.18-1.21,2.2-2.1,3.06-.89.86-1.92,1.55-3.09,2.06-1.18.51-2.43.76-3.76.76s-2.58-.25-3.76-.76c-1.18-.51-2.21-1.21-3.09-2.1-.89-.89-1.59-1.92-2.1-3.09-.51-1.17-.77-2.43-.77-3.76s.25-2.58.77-3.76c.51-1.17,1.21-2.21,2.1-3.09s1.92-1.59,3.09-2.1c1.17-.51,2.43-.76,3.76-.76s2.51.23,3.66.7c1.15.47,2.15,1.08,2.99,1.83l-7.12,7.32h4.83c2.79,0,5.46-1.1,7.44-3.06l2.51-2.48c1.03-1.02,1.04-2.68.04-3.72l-2.7-2.78-.13-.13c-1.51-1.42-3.24-2.54-5.19-3.36-1.95-.82-4.06-1.23-6.32-1.23s-4.47.43-6.49,1.3c-2.02.86-3.78,2.05-5.29,3.56-1.51,1.51-2.69,3.27-3.56,5.29-.86,2.02-1.3,4.18-1.3,6.49s.43,4.47,1.3,6.49c.86,2.02,2.05,3.78,3.56,5.29,1.51,1.51,3.27,2.69,5.29,3.56,2.02.86,4.18,1.3,6.49,1.3s4.47-.43,6.49-1.3c2.02-.86,3.78-2.05,5.29-3.56,1.51-1.51,2.69-3.27,3.56-5.29.86-2.02,1.3-4.18,1.3-6.49h-3.45c-1.76,0-3.36,1.11-3.86,2.79Z"/>
        <path class="cls-1" d="M180.77,36.99c-1.51-1.51-3.28-2.7-5.32-3.59-2.04-.89-4.19-1.33-6.45-1.33s-4.47.44-6.49,1.33c-2.02.89-3.77,2.09-5.26,3.59-1.49,1.51-2.66,3.27-3.53,5.29-.86,2.02-1.3,4.16-1.3,6.42v23.65c0,1.04.41,2.05,1.15,2.79l5.64,5.69v-32.14c0-1.33.25-2.58.77-3.76.51-1.17,1.21-2.21,2.1-3.09.89-.89,1.93-1.59,3.13-2.1,1.2-.51,2.46-.76,3.79-.76s2.59.26,3.79.76c1.2.51,2.24,1.21,3.13,2.1.89.89,1.59,1.92,2.1,3.09.51,1.18.77,2.43.77,3.76s-.26,2.66-.77,3.86c-.51,1.2-1.21,2.24-2.1,3.13-.89.89-1.93,1.59-3.13,2.1-.93.4-1.9.6-2.91.73-.16.02-.34.03-.54.05-1.72.1-3.17,1.33-3.59,3.01l-.82,3.3c1.24.31,2.59.47,4.06.47,2.26,0,4.41-.43,6.45-1.3,2.04-.86,3.81-2.05,5.32-3.56,1.51-1.51,2.7-3.27,3.59-5.29.89-2.02,1.33-4.18,1.33-6.49s-.44-4.4-1.33-6.42c-.89-2.02-2.09-3.78-3.59-5.29Z"/>
        <path class="cls-1" d="M187.89,61.37c0,2.19,1.77,3.96,3.96,3.96h2.89v-33.27h-6.85v29.3Z"/>
        <path class="cls-1" d="M187.89,24.04c0,.57.46,1.04,1.04,1.04h3.17c1.46,0,2.64-1.18,2.64-2.64v-5.74l-6.55,6.62c-.19.19-.3.46-.3.73Z"/>
        <path class="cls-1" d="M208.31,41.78c.89-.89,1.92-1.59,3.09-2.1,1.17-.51,2.43-.76,3.76-.76s2.62.23,3.73.7c.25.1.49.22.72.34,1.51.77,3.35.53,4.57-.65l2.69-2.58-.13-.13c-1.46-1.42-3.19-2.54-5.19-3.36-2-.82-4.13-1.23-6.39-1.23s-4.4.43-6.42,1.3c-2.02.86-3.78,2.05-5.29,3.56-1.51,1.51-2.71,3.28-3.59,5.32-.89,2.04-1.33,4.21-1.33,6.52s.44,4.47,1.33,6.49c.89,2.02,2.08,3.78,3.59,5.29,1.51,1.51,3.27,2.69,5.29,3.56,2.02.86,4.16,1.3,6.42,1.3s4.39-.41,6.39-1.23c2-.82,3.73-1.94,5.19-3.36l.13-.13-2.69-2.58c-1.23-1.18-3.06-1.42-4.57-.65-.24.12-.48.23-.72.34-1.11.47-2.35.7-3.73.7s-2.58-.25-3.76-.76c-1.18-.51-2.21-1.21-3.09-2.1-.89-.89-1.59-1.92-2.1-3.09-.51-1.17-.77-2.43-.77-3.76s.25-2.59.77-3.79c.51-1.2,1.21-2.24,2.1-3.13Z"/>
        <path class="cls-1" d="M265.62,36.99c-1.51,1.51-2.69,3.27-3.56,5.29-.86,2.02-1.28,4.16-1.23,6.42v9.71c-1.31,0-2.56-.26-3.74-.76-1.2-.51-2.24-1.21-3.13-2.1-.89-.89-1.59-1.93-2.1-3.13-.51-1.2-.77-2.46-.77-3.79v-9.65h9.65v-2.96c0-2.19-1.77-3.96-3.96-3.96h-5.69v-15.77l-5.77,5.83c-.73.74-1.15,1.74-1.15,2.79v24.05c.04,2.26.52,4.39,1.43,6.39.91,2,2.12,3.73,3.63,5.19,1.51,1.46,3.26,2.63,5.26,3.49,1.98.86,4.1,1.29,6.34,1.3h0s6.92,0,6.92,0v-16.63c0-1.33.25-2.59.77-3.79.51-1.2,1.21-2.23,2.1-3.09.89-.86,1.92-1.55,3.09-2.06.34-.15.68-.27,1.03-.37,1.65-.49,2.73-2.07,2.73-3.78v-3.53c-2.31,0-4.48.44-6.52,1.33-2.04.89-3.82,2.09-5.32,3.59Z"/>
        <path class="cls-1" d="M305.94,36.92c-1.51-1.51-3.27-2.69-5.29-3.56-2.02-.86-4.18-1.3-6.49-1.3s-4.47.43-6.49,1.3c-2.02.86-3.78,2.05-5.29,3.56-1.51,1.51-2.69,3.27-3.56,5.29-.86,2.02-1.3,4.18-1.3,6.49s.43,4.4,1.3,6.42c.86,2.02,2.05,3.78,3.56,5.29,1.51,1.51,3.27,2.71,5.29,3.59,2.02.89,4.18,1.33,6.49,1.33.67,0,2-.15,3.99-.47l-.8-3.39c-.41-1.73-1.92-2.97-3.7-3.04-.18,0-.36-.02-.56-.03-1.28-.1-1.95-.43-2.69-.76-1.18-.51-2.21-1.21-3.09-2.1-.89-.89-1.59-1.92-2.1-3.09-.51-1.17-.77-2.43-.77-3.76s.25-2.66.77-3.86c.51-1.2,1.21-2.24,2.1-3.13.89-.89,1.92-1.59,3.09-2.1,1.17-.51,2.43-.77,3.76-.77s2.58.26,3.76.77c1.17.51,2.21,1.21,3.09,2.1.89.89,1.59,1.93,2.1,3.13.51,1.2.77,2.48.77,3.86v16.63h2.96c2.19,0,3.96-1.77,3.96-3.96v-12.67c0-2.31-.43-4.47-1.3-6.49-.86-2.02-2.05-3.78-3.56-5.29Z"/>
        <path class="cls-1" d="M340,31.93l-12.44,23.69-12.24-23.69-3,3c-1.22,1.22-1.51,3.1-.71,4.63l12.32,23.63c.68,1.31,2.04,2.13,3.51,2.13h.33c1.47,0,2.82-.82,3.51-2.12l12.43-23.64c.81-1.54.52-3.42-.71-4.65l-2.99-2.99Z"/>
        <path class="cls-1" d="M381.35,22.26c-.74.74-1.16,1.75-1.16,2.8v36.31c0,2.19,1.77,3.96,3.96,3.96h2.96V16.5l-5.76,5.76Z"/>
        <path class="cls-1" d="M370.61,51.49c-.1.35-.23.7-.37,1.03-.51,1.18-1.21,2.2-2.1,3.06-.89.86-1.92,1.55-3.09,2.06-1.18.51-2.43.76-3.76.76s-2.58-.25-3.76-.76c-1.18-.51-2.21-1.21-3.09-2.1-.89-.89-1.59-1.92-2.1-3.09-.51-1.17-.77-2.43-.77-3.76s.25-2.58.77-3.76c.51-1.17,1.21-2.21,2.1-3.09.89-.89,1.92-1.59,3.09-2.1,1.17-.51,2.43-.76,3.76-.76s2.51.23,3.66.7c1.15.47,2.15,1.08,2.99,1.83l-7.12,7.32h4.83c2.79,0,5.46-1.1,7.44-3.06l2.51-2.48c1.03-1.02,1.04-2.68.04-3.72l-2.7-2.78-.13-.13c-1.51-1.42-3.24-2.54-5.19-3.36-1.95-.82-4.06-1.23-6.32-1.23s-4.47.43-6.49,1.3c-2.02.86-3.78,2.05-5.29,3.56-1.51,1.51-2.69,3.27-3.56,5.29-.86,2.02-1.3,4.18-1.3,6.49s.43,4.47,1.3,6.49c.86,2.02,2.05,3.78,3.56,5.29,1.51,1.51,3.27,2.69,5.29,3.56,2.02.86,4.18,1.3,6.49,1.3s4.47-.43,6.49-1.3c2.02-.86,3.78-2.05,5.29-3.56,1.51-1.51,2.69-3.27,3.56-5.29.86-2.02,1.3-4.18,1.3-6.49h-3.45c-1.76,0-3.36,1.11-3.86,2.79Z"/>
      </g>
      <g>
        <path class="cls-1" d="M35.53,46.38l-5.75.28h-.03S.45,48.09.45,48.09c-.25.01-.45.22-.45.47s.2.46.45.47l29.26,1.42h.03s5.79.28,5.79.28v-4.36Z"/>
        <path class="cls-1" d="M59.57,46.38l6.08.28h.04s30.97,1.43,30.97,1.43c.27.01.48.22.48.47s-.21.46-.48.47l-30.94,1.42h-.03s-14.43.28-14.43.28l8.31-4.36Z"/>
        <path class="cls-1" d="M48.56,97.13h0c-.29,0-.53-.24-.55-.55l-2.46-51.43c0-1.77,1.35-3.21,3.01-3.21h0c1.66,0,3.01,1.44,3.01,3.21l-2.46,51.43c-.01.31-.25.55-.55.55Z"/>
        <path class="cls-1" d="M50.75,36.55c-.1-.02-.21-.04-.31-.06-.52-.09-1.07-.14-1.64-.14-.75,0-1.45.09-2.11.26-.11.02-.21.06-.32.09l.13-2.9.17-3.67,1.35-29.58c.02-.31.26-.56.55-.56s.53.25.55.56l1.34,29.5.17,3.66.13,2.83Z"/>
        <path class="cls-1" d="M37.33,62.67l-5.03,4.41-12.96,11.37c-.19.17-.48.16-.65-.02-.18-.18-.19-.47-.02-.65l11.49-13.1,5.42-6.18c.17,1.05.48,2,.93,2.88.24.47.51.9.81,1.29Z"/>
        <path class="cls-1" d="M37.33,34.46l-5.03-4.41-12.96-11.37c-.19-.17-.48-.16-.65.02-.18.18-.19.47-.02.65l11.49,13.1,5.42,6.18c.17-1.05.48-2,.93-2.88.24-.47.51-.9.81-1.29Z"/>
        <path class="cls-1" d="M59.8,34.46l5.03-4.41,12.96-11.37c.19-.17.48-.16.65.02.18.18.19.47.02.65l-11.49,13.1-5.42,6.18c-.17-1.05-.48-2-.93-2.88-.24-.47-.51-.9-.81-1.29Z"/>
        <path class="cls-1" d="M59.8,62.67l5.03,4.41,12.96,11.37c.19.17.48.16.65-.02.18-.18.19-.47.02-.65l-11.49-13.1-5.42-6.18c-.17,1.05-.48,2-.93,2.88-.24.47-.51.9-.81,1.29Z"/>
        <path class="cls-1" d="M63.98,38.09c-.38-.72-.82-1.39-1.32-2.04-.73-.93-1.58-1.78-2.57-2.54-.57-.45-1.18-.86-1.84-1.25-2.15-1.27-4.66-2-7.54-2.19-.03,0-.06,0-.1,0-.06,0-.11,0-.17,0-.11,0-.21-.01-.33-.02-.34-.02-.68-.02-1.03-.02-.71,0-1.41.03-2.09.09-.11,0-.22.02-.34.04-.06,0-.11.01-.17.02-.03,0-.06,0-.09,0-1.7.2-3.3.58-4.79,1.17-1.72.67-3.23,1.57-4.54,2.7-.4.34-.77.7-1.14,1.09-.49.53-.94,1.09-1.36,1.69-.88,1.26-1.6,2.67-2.14,4.24-.54,1.54-.9,3.18-1.07,4.9-.01.14-.03.28-.04.42-.06.71-.09,1.43-.09,2.17,0,.61.02,1.21.06,1.79,0,.14.02.29.03.42.29,3.67,1.34,6.8,3.14,9.37.49.7,1.04,1.37,1.65,1.99.26.27.53.53.81.78,2.5,2.21,5.67,3.55,9.51,4.03,1.05.13,2.16.2,3.32.2.31,0,.61,0,.91-.01,2.19-.07,4.15-.4,5.88-.99,1.7-.57,3.15-1.28,4.36-2.12.19-.13.37-.26.55-.4.81-.62,1.48-1.26,2.03-1.91.35-.41.65-.83.89-1.25.65-1.1.97-2.07.97-2.89,0-.94-.29-1.66-.87-2.17-.57-.51-1.33-.77-2.26-.77-.87,0-1.54.2-2,.61-.48.45-.92.86-1.32,1.23-.55.5-1.03.94-1.45,1.3-.6.53-1.25,1.02-1.95,1.5-.13.08-.25.17-.38.25-.84.55-1.72.95-2.62,1.2-.48.14-.98.24-1.52.3-.47.06-.96.08-1.46.08-1.2,0-2.32-.21-3.37-.65-.38-.15-.74-.34-1.09-.55-.89-.52-1.66-1.22-2.31-2.08-.34-.45-.65-.94-.93-1.49-.52-1.01-.87-2.12-1.07-3.32-.09-.58-.14-1.17-.17-1.78,0-.13,0-.24,0-.37h17.82c1.29,0,2.42-.1,3.4-.29.83-.17,1.54-.41,2.14-.72,1.11-.57,1.75-1.71,1.92-3.44.01-.13.02-.27.03-.42,0-.19.01-.39.01-.6,0-2.47-.63-4.89-1.9-7.27ZM40.56,45.66c0-.06,0-.11.02-.16.06-.56.14-1.09.24-1.61.39-1.98,1.07-3.58,2.05-4.78.1-.14.22-.27.34-.4.83-.89,1.79-1.53,2.88-1.92.04,0,.07-.02.11-.03.06-.02.11-.04.17-.05.1-.03.21-.07.32-.09.66-.17,1.36-.26,2.11-.26.57,0,1.12.04,1.64.14.11.02.21.04.31.06.06.01.11.03.17.04.04,0,.08.02.12.03,1.3.33,2.42.96,3.36,1.9.06.05.11.11.16.16.99,1.05,1.69,2.45,2.11,4.22.21.84.34,1.77.41,2.77h-16.52Z"/>
      </g>
    </g>
  </g>
</svg>