<svg id="Group_330" data-name="Group 330" xmlns="http://www.w3.org/2000/svg" xmlns:xlink="http://www.w3.org/1999/xlink" width="198.511" height="47.148" viewBox="0 0 198.511 47.148">
  <defs>
    <clipPath id="clip-path">
      <rect id="Rectangle_249" data-name="Rectangle 249" width="198.511" height="47.148" fill="#bbc3d0"/>
    </clipPath>
  </defs>
  <g id="Group_329" data-name="Group 329" transform="translate(0 0)" clip-path="url(#clip-path)">
    <path id="Path_1524" data-name="Path 1524" d="M18.613,19.466V13.015A19.225,19.225,0,0,0,0,31.678H6.4A12.82,12.82,0,0,1,18.613,19.466" transform="translate(0 -0.842)" fill="#bbc3d0"/>
    <path id="Path_1525" data-name="Path 1525" d="M8.726,11.868a12.814,12.814,0,0,1,9.887-5.417V0A19.225,19.225,0,0,0,0,18.662H1.059A22.433,22.433,0,0,1,3.52,15.74a22.189,22.189,0,0,1,5.207-3.872" transform="translate(0 0)" fill="#bbc3d0"/>
    <path id="Path_1526" data-name="Path 1526" d="M19.457,32.525V26.1l-3.17,0-.054,0a3.211,3.211,0,0,0,0,6.423l.054,0,.585-.007v.009Z" transform="translate(-0.843 -1.689)" fill="#bbc3d0"/>
    <path id="Path_1527" data-name="Path 1527" d="M184.053,13.125A1.949,1.949,0,1,0,186,15.074a1.949,1.949,0,0,0-1.949-1.949" transform="translate(-11.784 -0.849)" fill="#bbc3d0"/>
    <path id="Path_1528" data-name="Path 1528" d="M114.467,13.789v17.68h3.988l0-18.32Z" transform="translate(-7.407 -0.851)" fill="#bbc3d0"/>
    <path id="Path_1529" data-name="Path 1529" d="M141.815,17.98a7.411,7.411,0,0,0-3.28-.608,11.017,11.017,0,0,0-2.078.2,9.186,9.186,0,0,0-1.994.622c-.229.1-.456.219-.684.344a4.089,4.089,0,0,0-.843-.556,7.411,7.411,0,0,0-3.28-.608,14.339,14.339,0,0,0-1.569.085,13.426,13.426,0,0,0-1.526.254,11.446,11.446,0,0,0-1.47.438,14.61,14.61,0,0,0-1.4.608V31.736h2.036V19.776a14.419,14.419,0,0,1,1.894-.425,12.172,12.172,0,0,1,1.81-.141,5.279,5.279,0,0,1,2.036.325,2.563,2.563,0,0,1,1.131.848,3.043,3.043,0,0,1,.495,1.089,4.882,4.882,0,0,1,.127,1.075v9.189h2.036V22.547a6.9,6.9,0,0,0-.377-2.376,6.578,6.578,0,0,1,1.621-.707,6.881,6.881,0,0,1,1.81-.254,5.279,5.279,0,0,1,2.036.325,2.563,2.563,0,0,1,1.131.848,3.043,3.043,0,0,1,.495,1.089,4.882,4.882,0,0,1,.127,1.075v9.189h2.036V22.547a6.473,6.473,0,0,0-.551-2.8,3.744,3.744,0,0,0-1.768-1.768" transform="translate(-8.004 -1.124)" fill="#bbc3d0"/>
    <path id="Path_1530" data-name="Path 1530" d="M159.82,20.918a5.588,5.588,0,0,0-1.965-2.743,5.958,5.958,0,0,0-3.634-1.018,5.818,5.818,0,0,0-4.538,1.824,7.914,7.914,0,0,0-1.655,5.471,9.662,9.662,0,0,0,.792,4.156,5.48,5.48,0,0,0,2.262,2.5,6.94,6.94,0,0,0,3.478.834,13.3,13.3,0,0,0,2.7-.255,9.955,9.955,0,0,0,2.248-.735V28.863a8.348,8.348,0,0,1-1.3.622,8.727,8.727,0,0,1-1.612.439,11.03,11.03,0,0,1-1.923.155,4.3,4.3,0,0,1-3.379-1.343,5.691,5.691,0,0,1-1.2-3.916h10.293a11.49,11.49,0,0,0-.566-3.9m-9.274.382a3.111,3.111,0,0,1,1.371-1.768,4.718,4.718,0,0,1,2.3-.509,3.894,3.894,0,0,1,2.984,1.047,4.6,4.6,0,0,1,1.041,2.884H150.19a7.5,7.5,0,0,1,.355-1.655" transform="translate(-9.579 -1.11)" fill="#bbc3d0"/>
    <path id="Path_1531" data-name="Path 1531" d="M176.358,17.443a16.291,16.291,0,0,0-2.347.622q-.976.34-1.315.481V31.524h2.036V19.535l1.3-.226q.651-.112,1.3-.183a12.508,12.508,0,0,1,1.343-.071,12.362,12.362,0,0,1,1.428.085V17.33a8.762,8.762,0,0,0-3.747.113" transform="translate(-11.175 -1.113)" fill="#bbc3d0"/>
    <path id="Path_1532" data-name="Path 1532" d="M165.958,17.182l-.293.065V13.167h-2.036V17.8l-.018.007q-.976.34-1.315.481v1.251l1.333-.171v8.477a3.488,3.488,0,0,0,1.019,2.728,3.616,3.616,0,0,0,2.517.919,7.214,7.214,0,0,0,1.145-.1,5.856,5.856,0,0,0,1-.24V29.228a3.757,3.757,0,0,1-.791.24,4.875,4.875,0,0,1-.99.1,1.632,1.632,0,0,1-1.5-.594,3.441,3.441,0,0,1-.368-1.782V19.043q.634-.109,1.268-.179a12.508,12.508,0,0,1,1.343-.071,12.361,12.361,0,0,1,1.428.085v-1.81a9.752,9.752,0,0,0-3.747.113" transform="translate(-10.502 -0.852)" fill="#bbc3d0"/>
    <rect id="Rectangle_248" data-name="Rectangle 248" width="2.036" height="12.565" transform="translate(171.252 17.846)" fill="#bbc3d0"/>
    <path id="Path_1533" data-name="Path 1533" d="M194.372,17.157a9.356,9.356,0,0,0-2.3.3,5.32,5.32,0,0,0-3.718,3.308,9.7,9.7,0,0,0-.594,3.69,9.806,9.806,0,0,0,.594,3.7,5.377,5.377,0,0,0,1.568,2.22,5.649,5.649,0,0,0,2.149,1.075,9.4,9.4,0,0,0,2.3.3,11.622,11.622,0,0,0,2.135-.2,12.325,12.325,0,0,0,2.049-.565V29a9.743,9.743,0,0,1-1.922.594,10.3,10.3,0,0,1-2.036.2,4.731,4.731,0,0,1-3.662-1.258,5.976,5.976,0,0,1-1.146-4.086,5.982,5.982,0,0,1,1.146-4.071,4.7,4.7,0,0,1,3.662-1.273,10.374,10.374,0,0,1,2.036.2,9.87,9.87,0,0,1,1.922.594V17.949a10.889,10.889,0,0,0-2.049-.594,11.622,11.622,0,0,0-2.135-.2" transform="translate(-12.149 -1.11)" fill="#bbc3d0"/>
    <path id="Path_1534" data-name="Path 1534" d="M211.158,25.781a3.427,3.427,0,0,0-1.061-1.145,6.185,6.185,0,0,0-1.413-.707q-.765-.269-1.47-.495-.877-.255-1.641-.524a3.211,3.211,0,0,1-1.23-.735,1.7,1.7,0,0,1-.467-1.258,1.515,1.515,0,0,1,.919-1.428,4.528,4.528,0,0,1,2.078-.467,5.213,5.213,0,0,1,2.007.354q.849.355,1.923.919V18.26q-.961-.424-1.866-.763a6.215,6.215,0,0,0-2.177-.34,6.993,6.993,0,0,0-1.753.226,4.828,4.828,0,0,0-1.583.721,3.851,3.851,0,0,0-1.146,1.258,3.63,3.63,0,0,0-.439,1.838,3.4,3.4,0,0,0,.425,1.8,3.449,3.449,0,0,0,1.117,1.131,6.616,6.616,0,0,0,1.527.707q.833.269,1.654.495.735.311,1.414.594a3.561,3.561,0,0,1,1.117.707,1.616,1.616,0,0,1,.439,1.216,1.888,1.888,0,0,1-.891,1.612,3.935,3.935,0,0,1-2.3.622,7.531,7.531,0,0,1-1.612-.155,5.906,5.906,0,0,1-1.385-.495q-.679-.34-1.555-.82v2.149a12.721,12.721,0,0,0,2.135.876,8.977,8.977,0,0,0,2.559.311,6.6,6.6,0,0,0,2.389-.453,4.435,4.435,0,0,0,1.937-1.428,3.893,3.893,0,0,0,.763-2.474,3.575,3.575,0,0,0-.41-1.81" transform="translate(-13.057 -1.11)" fill="#bbc3d0"/>
    <path id="Path_1535" data-name="Path 1535" d="M50.084,17.532a16.606,16.606,0,0,0-5.724,1.033V31.752h3.953V21.108a7.3,7.3,0,0,1,1.673-.213,11.654,11.654,0,0,1,2.771.426l.657-3.264a8,8,0,0,0-1.656-.377,13.043,13.043,0,0,0-1.673-.148" transform="translate(-2.87 -1.135)" fill="#bbc3d0"/>
    <path id="Path_1536" data-name="Path 1536" d="M62.271,17.374a17.972,17.972,0,0,0-2.558.213,12.267,12.267,0,0,0-1.936.443l.493,3.1a10.6,10.6,0,0,1,3.576-.542q2.64,0,2.64,2.2v.361a8.666,8.666,0,0,0-2.263-.246,7.372,7.372,0,0,0-3.953.951A3.653,3.653,0,0,0,56.514,27.2,3.921,3.921,0,0,0,58.1,30.693a7.375,7.375,0,0,0,4.232,1A25,25,0,0,0,68.159,31V22.95a5.846,5.846,0,0,0-1.23-4.083q-1.395-1.493-4.659-1.493m2.215,11.219a12.96,12.96,0,0,1-1.9.1q-2.264,0-2.263-1.607a1.341,1.341,0,0,1,.787-1.264,4.055,4.055,0,0,1,1.838-.311,6.316,6.316,0,0,1,1.541.148Z" transform="translate(-3.657 -1.124)" fill="#bbc3d0"/>
    <path id="Path_1537" data-name="Path 1537" d="M78.92,28.412a3.432,3.432,0,0,1-2.755-1,4.388,4.388,0,0,1-.788-2.87,4.218,4.218,0,0,1,.837-2.788,3.136,3.136,0,0,1,2.558-1.066,7.309,7.309,0,0,1,2.641.526l.8-3.1a9.914,9.914,0,0,0-3.756-.738,6.664,6.664,0,0,0-5.15,2.1,7.241,7.241,0,0,0-1.871,5.067,7.3,7.3,0,0,0,1.673,5.1,6.958,6.958,0,0,0,5.413,2.083,9.8,9.8,0,0,0,3.92-.705L81.9,27.871a7.693,7.693,0,0,1-2.985.542" transform="translate(-4.623 -1.124)" fill="#bbc3d0"/>
    <path id="Path_1538" data-name="Path 1538" d="M96.329,30.778l-.557-3.067a7.56,7.56,0,0,1-2.542.442,1.96,1.96,0,0,1-1.756-.755,3.437,3.437,0,0,1-.442-1.958V20.694c.426-.08.851-.153,1.278-.211a14.5,14.5,0,0,1,3.96.025V17.322a11.339,11.339,0,0,0-5.238.169V13.113l-3.953.64v5.072c-.666.289-1.134.5-1.4.638v2.2l1.4-.222v4.069a6.742,6.742,0,0,0,1.148,4.329q1.329,1.674,4.363,1.673a9.508,9.508,0,0,0,3.739-.721l0-.018h0" transform="translate(-5.544 -0.849)" fill="#bbc3d0"/>
    <path id="Path_1539" data-name="Path 1539" d="M105.3,17.374a17.973,17.973,0,0,0-2.558.213,12.227,12.227,0,0,0-1.935.443l.492,3.1a10.6,10.6,0,0,1,3.576-.542q2.64,0,2.64,2.2v.361a8.666,8.666,0,0,0-2.263-.246,7.372,7.372,0,0,0-3.953.951A3.655,3.655,0,0,0,99.541,27.2a3.921,3.921,0,0,0,1.591,3.494,7.375,7.375,0,0,0,4.232,1A25,25,0,0,0,111.186,31V22.95a5.846,5.846,0,0,0-1.23-4.083q-1.395-1.493-4.659-1.493m2.215,11.219a12.961,12.961,0,0,1-1.9.1q-2.264,0-2.263-1.607a1.341,1.341,0,0,1,.787-1.264,4.055,4.055,0,0,1,1.838-.311,6.317,6.317,0,0,1,1.541.148Z" transform="translate(-6.441 -1.124)" fill="#bbc3d0"/>
    <path id="Path_1540" data-name="Path 1540" d="M33.717,21.144A5.816,5.816,0,0,0,32.2,25.417v6.467h3.945v-6.4a2.984,2.984,0,0,1,.518-1.86,2.33,2.33,0,0,1,1.963-.741,5.188,5.188,0,0,1,2.308.481l.775-3.153a9.118,9.118,0,0,0-3.479-.655,6.109,6.109,0,0,0-4.516,1.586" transform="translate(-2.084 -1.266)" fill="#bbc3d0"/>
    <path id="Path_1541" data-name="Path 1541" d="M33.716,14.718A5.816,5.816,0,0,0,32.2,18.991V21.21a4.811,4.811,0,0,1,.906-1.287,5.442,5.442,0,0,1,3.08-1.477,2.565,2.565,0,0,1,.477-1.247,2.33,2.33,0,0,1,1.963-.741,5.188,5.188,0,0,1,2.308.481l.775-3.153a9.115,9.115,0,0,0-3.479-.655,6.109,6.109,0,0,0-4.516,1.586" transform="translate(-2.084 -0.85)" fill="#bbc3d0"/>
    <text id="Revenue_Growth_Engineering" data-name="Revenue Growth Engineering" transform="translate(59 44.375)" fill="#bbc3d0" font-size="9" font-family="MyriadPro-Regular, Myriad Pro"><tspan x="0" y="0" letter-spacing="0.004em">R</tspan><tspan y="0">e</tspan><tspan y="0" letter-spacing="-0.009em">v</tspan><tspan y="0">enue G</tspan><tspan y="0" letter-spacing="-0.009em">r</tspan><tspan y="0" letter-spacing="-0.006em">o</tspan><tspan y="0">wth En</tspan><tspan y="0" letter-spacing="-0.005em">g</tspan><tspan y="0">inee</tspan><tspan y="0" letter-spacing="0.003em">r</tspan><tspan y="0">ing</tspan></text>
  </g>
</svg>
