<?xml version="1.0" encoding="UTF-8"?>
<svg id="Layer_2" data-name="Layer 2" xmlns="http://www.w3.org/2000/svg" viewBox="0 0 177.22 44.28">
  <defs>
    <style>
      .cls-1 {
        fill: #bbc3d0;
      }
    </style>
  </defs>
  <g id="Layer_2-2" data-name="Layer 2">
    <g>
      <path class="cls-1" d="M97.14,28.92c-.89,8.42-13.56,8.19-15.63,1.29-.41-1.4-.62-3.08-.67-5l5.88-1.86,10.39-3.25-.02-.07-.02-.06c-.39-1.08-1.09-2.08-2.07-3.12-1.56-1.66-4.16-2.82-7.18-2.82-7.35,0-12.18,5.22-12.18,11.62,0,6.04,4.73,11.04,12.1,11.04,5.2,0,9.04-3.04,9.52-7.77h-.1ZM87.22,14.11c4.48,0,5.24,3.63,5.32,6.74l-11.72,3.7c0-.39.02-.81.02-.81.2-3.72,1.75-9.62,6.37-9.63Z"/>
      <path class="cls-1" d="M177.21,28.92h-.09c-.89,8.42-13.56,8.19-15.63,1.29-.41-1.4-.62-3.08-.67-5l5.88-1.86,10.39-3.25-.02-.07-.02-.06c-.39-1.08-1.09-2.08-2.07-3.12-1.56-1.66-4.16-2.82-7.18-2.82-7.35,0-12.18,5.22-12.18,11.62,0,6.04,4.73,11.04,12.1,11.04,5.2,0,9.04-3.04,9.52-7.77h-.01ZM167.2,14.11c4.48,0,5.24,3.63,5.32,6.74l-11.72,3.7c0-.39.02-.81.02-.81.2-3.72,1.75-9.62,6.37-9.63Z"/>
      <path class="cls-1" d="M116.03,14.04c-3.85,0-7.32,2.69-9.11,6.38v-5.98h-.01l-4.59,3.42h-.01v18.44h4.62v-14.83c.48-.77.68-1.49,2.13-3.14,1.52-1.74,4-3.05,5.51-3.05,3.07,0,4.06,2.97,4.06,6.02v14.93h-.01v.07h4.62v-15.05c0-2.12-.59-3.83-1.76-5.12-1.3-1.42-3.1-2.1-5.43-2.1Z"/>
      <path class="cls-1" d="M145.56,17.86v10.49c0,2.03-3.07,6.8-7.09,6.8-3.07,0-4.62-2.75-4.62-5.79v-14.93l-4.61,3.43h-.01v11.61c0,2.12.6,3.83,1.77,5.12,1.3,1.42,3.1,2.11,5.43,2.11,3.85,0,6.97-1.98,8.78-5.67l.34-.9v6.17h4.61v-.07s.01-21.8.01-21.8l-4.61,3.43h-.01Z"/>
      <path class="cls-1" d="M41.75,0h-.2c-.78,1.95-1.57,3.9-2.33,5.84-.18.43-.36.85-.49,1.25-.49,1.32-.9,2.53-1.16,3.67-.02,0-.02.02-.02.02-.02.11-.04.22-.07.36-.13.45-.22.9-.29,1.32-.31,1.95-.25,3.56.22,4.84.52,1.52,1.57,2.58,3.29,3.29.63.29,1.19.45,1.75.63l.16.02c1.32.34,1.32.47,1.32.58,0,.43-.56.47-1.34.52-.13.02-.27.02-.43.04-2.44.07-8.02.78-11.67,6.27-1.61,2.46-1.99,7.79-9.27,7.88v.2h14.44v-.2c-1.88,0-3.65-.94-4.66-2.46-.25-.38-.43-.78-.54-1.21-.13-.4-.18-.85-.16-1.28.02-.47.11-.92.25-1.37.06-.2.16-.37.23-.56,1.61-2.63,3.56-3.93,10.87-4.4,2.5-.16,2.86-2.88,2.91-3.4,0-.01,0-.02,0-.04,0,0,0,0,0-.01,0-.02,0-.06,0-.06h-.02c-.04-.49-.52-.68-1.53-.98l-.25-.07c-.54-.11-1.16-.36-1.81-.58-1.43-.63-2.33-1.57-2.84-2.91-.83-2.24-.43-5.6,1.25-10.01.09-.25.18-.49.29-.76,3.61,9.02,7.21,18.05,10.82,27.05.25.67.13,1.48-.27,2.1-.38.56-1.05.94-1.79.94h-2.42v.2h10.26l-3.58-9.36c-3.63-9.11-7.28-18.25-10.93-27.39Z"/>
      <path class="cls-1" d="M13.55,31.45c-1.29,0-2.33,1.05-2.33,2.33s1.05,2.33,2.33,2.33,2.33-1.05,2.33-2.33-1.05-2.33-2.33-2.33Z"/>
      <path class="cls-1" d="M12.75,30.43c.02-.35.06-.7.06-1.06v-15.9h0V2.36c0-1.3-1.06-2.36-2.36-2.36H2.81v.2h1.46c2.41,0,4.36.4,4.37,4.37l-.05,24.8c0,9.34-3.77,14.21-8.59,14.71v.2c4.91-.14,9.09-3.34,11.25-7.95-.7-.63-1.15-1.54-1.15-2.55,0-1.63,1.13-2.99,2.65-3.35Z"/>
      <polygon class="cls-1" points="72.93 14.43 72.27 14.39 66.21 29.85 59.93 14.5 59.94 14.5 59.94 14.43 54.95 14.43 54.95 14.5 54.96 14.5 64.29 36.75 65.78 32.92 65.79 32.92 71.28 18.7 72.91 14.5 72.93 14.43 72.93 14.43 72.93 14.43"/>
    </g>
  </g>
</svg>