<?xml version="1.0" encoding="UTF-8"?>
<svg id="Layer_2" data-name="Layer 2" xmlns="http://www.w3.org/2000/svg" viewBox="0 0 218.61 236.24">
  <defs>
    <style>
      .cls-1 {
        font-size: 21.33px;
      }

      .cls-1, .cls-2 {
        font-family: PeridotPEVariableRegular, 'Peridot PE Variable';
        font-variation-settings: 'wght' 400, 'wdth' 100, 'ital' 0;
      }

      .cls-1, .cls-2, .cls-3 {
        fill: #bbc3d0;
      }

      .cls-4 {
        fill: none;
        stroke: #bbc3d0;
        stroke-miterlimit: 10;
      }

      .cls-2 {
        font-size: 13.18px;
      }
    </style>
  </defs>
  <g id="Layer_2-2" data-name="Layer 2">
    <g>
      <g>
        <path class="cls-3" d="M33.3,113.79c0,1.38-4.29,4.65-4.29,15.05,0,5.45,1.09,10.47,1.09,17.01,0,17.52-12.22,31.41-26.97,31.41-2.33,0-3.13-1.02-3.13-1.45,0-.29.36-.58.8-.58,11.92,0,22.32-18.61,22.32-35.84s6.62-27.26,8.72-27.26c.58,0,1.45.65,1.45,1.67Z"/>
        <path class="cls-3" d="M55.03,140.9c3.05,0,7.85,3.27,7.85,9.45,0,9.23-9.53,19.63-14.18,19.63-2.18,0-4.14-1.38-4.14-4.51,0-1.31.44-3.13.44-3.13-1.96,2.84-7.34,11.49-10.03,11.49-2.4,0-5.74-2.18-5.74-5.53,0-7.78,8.14-12.21,8.14-19.12,0-.8.22-1.16.65-1.16,1.45,0,3.49,3.05,3.49,6.25,0,4.8-5.74,12.51-5.74,14.47,0,.36.22.58.51.58.65,0,5.02-5.09,7.41-9.38,2.76-4.87,3.49-6.11,4.36-6.11,2.11,0,3.64,2.47,3.64,4.14,0,2.91-2.76,5.6-2.76,8.29,0,.44.22.73.58.73,1.53,0,6.98-9.09,6.98-17.16,0-7.63-2.76-7.49-2.76-8.14,0-.36.44-.8,1.31-.8Z"/>
        <path class="cls-3" d="M82.8,169.84c-3.27,0-5.09-3.71-5.09-5.38-1.09,0-5.74,9.74-10.03,9.74-2.25,0-5.53-1.53-5.53-6.91,0-8.14,9.96-18.54,19.78-18.54,2.11,0,3.93,2.11,3.93,3.13s-1.75.36-4.8,1.67c-7.2,3.05-13.3,13.74-13.3,16.43,0,.44.22.65.51.65,1.75,0,9.52-10.03,11.56-12.87.94-1.38,1.75-2.4,2.55-2.4,1.53,0,2.91,1.67,2.91,3.13,0,3.13-3.64,6.11-3.64,7.49,0,.51.22.73.51.73,1.89,0,6.54-6.18,8.87-9.31.29-.36.44-.58.65-.58.65,0,1.24.8,1.24,1.31,0,.44-.22.87-.58,1.45-1.02,1.53-6.69,10.25-9.53,10.25Z"/>
        <path class="cls-3" d="M91.17,160.9c-.36,0-1.45-.66-1.45-1.38,0-.29.36-.8.8-1.45,2.83-4.22,5.02-8.14,5.02-8.14-.65-.87-1.82-2.91-1.82-4.22,0-3.64,3.42-7.78,5.16-7.78,1.31,0,2.33,1.38,2.33,2.76,0,2.11-1.82,5.38-2.83,7.13,0,2.33,5.67,5.67,5.67,9.02,0,3.56-3.64,8.22-3.64,12.8,0,.73.44,1.09.87,1.09,2.25,0,9.6-9.67,12.21-13.3.29-.36.44-.58.65-.58.65,0,1.24.8,1.24,1.31,0,.44-.22.87-.58,1.45-2.47,3.64-9.52,14.32-14.32,14.32-4.07,0-7.13-3.13-7.13-6.4,0-6.03,5.96-10.18,5.96-13.6,0-.94-.22-1.02-1.89-2.33,0,0-1.89,3.2-5.45,8.58-.29.44-.51.73-.8.73Z"/>
        <path class="cls-3" d="M129.99,169.84c-3.27,0-5.09-3.71-5.09-5.38-1.09,0-5.74,9.74-10.03,9.74-2.25,0-5.53-1.53-5.53-6.91,0-8.14,9.96-18.54,19.78-18.54,2.11,0,3.93,2.11,3.93,3.13s-1.75.36-4.8,1.67c-7.2,3.05-13.3,13.74-13.3,16.43,0,.44.22.65.51.65,1.75,0,9.52-10.03,11.56-12.87.94-1.38,1.75-2.4,2.55-2.4,1.53,0,2.91,1.67,2.91,3.13,0,3.13-3.64,6.11-3.64,7.49,0,.51.22.73.51.73,1.89,0,6.54-6.18,8.87-9.31.29-.36.44-.58.65-.58.65,0,1.24.8,1.24,1.31,0,.44-.22.87-.58,1.45-1.02,1.53-6.69,10.25-9.53,10.25Z"/>
        <path class="cls-3" d="M147.87,149.34c0,1.45-5.38,2.98-5.38,10.47,0,3.78,3.13,6.4,3.13,10.47,0,6.76-9.96,11.63-14.18,11.63-1.6,0-2.4-.65-2.4-1.24,0-.29.14-.44.65-.51,2.33-.36,9.31-2.4,9.31-13.6,0-4.07-1.02-6.91-1.02-10.18,0-5.45,5.09-9.23,7.2-9.23,1.53,0,2.69.94,2.69,2.18Z"/>
        <path class="cls-3" d="M168.81,170.2c-2.91,0-5.31-2.4-5.31-5.31,0-5.82,6.25-11.63,6.25-13.3,0-.22-.15-.36-.29-.36-.94,0-10.69,8.8-15.05,16.21-2.83,4.8-3.27,6.4-4.07,6.4s-2.11-1.53-2.11-4c0-11.42,16.72-33.74,16.72-47.91,0-.65.29-1.09.8-1.09,1.24,0,5.02,2.62,5.02,6.62,0,10.69-11.56,23.99-13.89,32.28,5.67-6.69,10.83-11.49,14.76-11.49,2.47,0,4.22,2.11,4.22,4.29,0,4.8-7.78,9.67-7.78,13.81,0,.73.36,1.02.8,1.02,1.89,0,7.71-6.83,10.03-9.96.29-.36.44-.58.65-.58.65,0,1.24.8,1.24,1.31,0,.44-.22.87-.58,1.45-2.03,3.13-7.85,10.62-11.41,10.62Z"/>
        <path class="cls-3" d="M179.06,160.9c-.36,0-1.45-.66-1.45-1.38,0-.29.36-.8.8-1.45,2.83-4.22,5.02-8.14,5.02-8.14-.65-.87-1.82-2.91-1.82-4.22,0-3.64,3.42-7.78,5.16-7.78,1.31,0,2.33,1.38,2.33,2.76,0,2.11-1.82,5.38-2.83,7.13,0,2.33,5.67,5.67,5.67,9.02,0,3.56-3.64,8.22-3.64,12.8,0,.73.44,1.09.87,1.09,2.25,0,9.6-9.67,12.21-13.3.29-.36.44-.58.65-.58.65,0,1.24.8,1.24,1.31,0,.44-.22.87-.58,1.45-2.47,3.64-9.52,14.32-14.32,14.32-4.07,0-7.13-3.13-7.13-6.4,0-6.03,5.96-10.18,5.96-13.6,0-.94-.22-1.02-1.89-2.33,0,0-1.89,3.2-5.45,8.58-.29.44-.51.73-.8.73Z"/>
        <path class="cls-3" d="M205.38,172.24c-3.27,0-6.98-2.69-6.98-7.56,0-5.23,4.8-8.87,9.23-16.21.51-.87.73-1.53,1.24-1.53.58,0,1.75,1.31,1.75,2.69-.14,6.33-6.47,12.8-6.62,18.18,0,1.24.65,1.6,1.24,1.6,1.89,0,9.02-8.51,11.49-12,.29-.36.44-.58.65-.58.65,0,1.24.8,1.24,1.31,0,.44-.22.87-.58,1.45-2.04,3.49-8.58,12.65-12.65,12.65ZM215.7,139.38c0,1.02-1.02,2.33-2.04,2.33-1.67,0-3.27-1.6-3.27-3.13,0-1.09.8-1.82,1.96-1.82,1.38,0,3.34.87,3.34,2.62Z"/>
      </g>
      <g>
        <text class="cls-1" transform="translate(67.44 211.39)"><tspan x="0" y="0">shridhar</tspan></text>
        <path class="cls-4" d="M66.26,205.19c-4.19,1.52-7.95,2.66-12.43,2.16-7.52-.85-11.25-5.07-16.49-5.07-4.25,0-8.5,1.83-11.67,4.06"/>
        <path class="cls-4" d="M152.35,205.15c4.19,1.52,7.95,2.66,12.43,2.16,7.52-.85,11.25-5.07,16.49-5.07,4.25,0,8.5,1.83,11.67,4.06"/>
      </g>
      <text class="cls-2" transform="translate(44.16 232.83)"><tspan x="0" y="0">art that connects</tspan></text>
      <path class="cls-3" d="M105.16,42.18c10.12,15.76,7.25,35.69-6.44,47.13-20.1-4.77-35.02-22.83-35.02-44.37,0-19.67,12.45-36.43,29.93-42.85-5.72,13.92,3.65,27.6,11.53,40.08Z"/>
      <path class="cls-3" d="M154.91,44.94c0,22.2-15.87,40.69-36.86,44.77.03-.03.03-.09.03-.11,2.96-16.99-1.01-35.31-10.35-48.97-7.39-10.75-17.54-29.62-2.01-37.64,3.13-1.5,6.47-2.53,10.01-2.93.46-.03.92-.06,1.38-.06,21.48,3.68,37.81,22.4,37.81,44.94Z"/>
    </g>
  </g>
</svg>