<?xml version="1.0" encoding="UTF-8"?>
<svg id="Layer_2" data-name="Layer 2" xmlns="http://www.w3.org/2000/svg" viewBox="0 0 198.85 114.56">
  <defs>
    <style>
      .cls-1 {
        fill: #bbc3d0;
      }
    </style>
  </defs>
  <g id="Layer_2-2" data-name="Layer 2">
    <g>
      <g>
        <path class="cls-1" d="M30.7,108.15c-.58,0-1.14.28-1.65.74-.19-.45-.64-.74-1.18-.74s-1.05.28-1.4.58h-.02s.09-.48.09-.48h-1.05l-.76,4.3h1.06l.52-2.92c.37-.32.76-.54,1.15-.54s.61.23.61.59c0,.11,0,.23-.04.41l-.44,2.46h1.06l.45-2.53c.02-.09.04-.27.05-.38.38-.34.79-.56,1.18-.56s.61.23.61.59c0,.1-.02.23-.05.41l-.44,2.46h1.06l.45-2.53c.04-.22.06-.41.06-.58,0-.78-.52-1.29-1.31-1.29Z"/>
        <path class="cls-1" d="M37.45,108.15c-.69,0-1.29.25-1.73.71-.51.52-.72,1.21-.72,1.79,0,1.22.9,1.99,2.11,1.99.69,0,1.29-.25,1.73-.71.51-.52.72-1.21.72-1.79,0-1.22-.9-1.99-2.11-1.99ZM38.08,111.32c-.24.26-.55.39-.91.39-.71,0-1.11-.49-1.11-1.14,0-.38.13-.8.42-1.11.24-.26.55-.39.91-.39.71,0,1.11.49,1.11,1.14,0,.38-.13.8-.42,1.11Z"/>
        <path class="cls-1" d="M45.5,108.15c-.52,0-1,.24-1.44.58h-.02s.09-.48.09-.48h-1.05l-.76,4.3h1.06l.52-2.92c.38-.31.82-.54,1.22-.54.43,0,.6.25.6.62,0,.11,0,.24-.04.42l-.43,2.42h1.06l.45-2.51c.04-.24.06-.41.06-.56,0-.81-.52-1.33-1.31-1.33Z"/>
        <path class="cls-1" d="M52.2,108.15c-.64,0-1.25.25-1.7.75-.45.47-.69,1.14-.69,1.79,0,1.32,1.01,1.95,2.19,1.95.43,0,.96-.08,1.34-.25l.18-.97c-.37.18-.91.35-1.4.35-.72,0-1.22-.37-1.26-1.08h3.08c.06-.23.1-.53.1-.77,0-1.11-.81-1.77-1.83-1.77ZM50.97,109.95c.19-.58.61-.94,1.2-.94s.89.35.89.94h-2.09Z"/>
        <path class="cls-1" d="M59.4,109.55c-.28.45-.56.9-.84,1.36h-.02c-.1-.44-.23-.9-.35-1.35l-.36-1.31h-1.12l1.09,3.8-1.6,2.42h1.17l3.95-6.22h-1.11l-.82,1.3Z"/>
        <path class="cls-1" d="M73.67,108.15c-.58,0-1.14.28-1.65.74-.19-.45-.64-.74-1.18-.74s-1.05.28-1.4.58h-.02s.09-.48.09-.48h-1.05l-.76,4.3h1.06l.52-2.92c.37-.32.76-.54,1.15-.54s.61.23.61.59c0,.1,0,.23-.04.41l-.44,2.46h1.06l.45-2.53c.02-.09.04-.27.05-.38.38-.34.79-.56,1.18-.56s.61.23.61.59c0,.1-.02.23-.05.41l-.44,2.46h1.06l.45-2.53c.04-.22.06-.41.06-.58,0-.78-.52-1.29-1.31-1.29Z"/>
        <path class="cls-1" d="M78.76,108.87c-.52.52-.78,1.25-.78,1.91,0,1.12.73,1.85,1.66,1.85.48,0,.86-.19,1.15-.45h.02s-.06.35-.06.35h1.05l.68-3.89c-.55-.27-1.22-.51-1.9-.51s-1.32.22-1.83.73ZM80.96,111.29c-.3.29-.65.46-1,.46-.52,0-.92-.38-.92-1.07,0-.39.13-.84.41-1.17.24-.28.57-.48,1.04-.48.31,0,.62.09.83.19l-.37,2.06Z"/>
        <polygon class="cls-1" points="88.83 108.24 86.76 109.98 86.74 109.98 87.46 105.87 86.41 105.87 85.23 112.54 86.28 112.54 86.69 110.26 86.7 110.26 88.11 112.54 89.32 112.54 87.83 110.17 90.13 108.24 88.83 108.24"/>
        <polygon class="cls-1" points="92.26 112.54 93.32 112.54 94.08 108.24 93.02 108.24 92.26 112.54"/>
        <path class="cls-1" d="M93.84,106.13c-.38,0-.69.3-.69.68,0,.34.26.62.62.62.38,0,.71-.3.71-.68,0-.34-.27-.62-.64-.62Z"/>
        <path class="cls-1" d="M99.93,108.15c-.52,0-1,.24-1.44.58h-.02s.09-.48.09-.48h-1.05l-.76,4.3h1.06l.52-2.92c.38-.31.82-.54,1.22-.54.43,0,.6.25.6.62,0,.1,0,.24-.04.42l-.43,2.42h1.06l.45-2.51c.04-.24.06-.41.06-.56,0-.81-.52-1.33-1.31-1.33Z"/>
        <path class="cls-1" d="M104.99,108.85c-.48.48-.75,1.2-.75,1.84,0,1.1.75,1.82,1.72,1.82.42,0,.72-.13,1-.32h.02s-.06.33-.06.33c-.15.79-.66,1.13-1.3,1.13-.51,0-1.04-.22-1.43-.48l-.18,1.03c.51.26,1.02.37,1.56.37,1.3,0,2.18-.66,2.44-2.13l.67-3.82c-.55-.27-1.24-.46-1.87-.46-.73,0-1.35.26-1.8.7ZM107.13,111.34c-.25.18-.55.3-.86.3-.59,0-.98-.41-.98-1.04,0-.38.14-.8.4-1.1.23-.25.55-.45,1.01-.45.28,0,.6.07.8.16l-.38,2.13Z"/>
        <path class="cls-1" d="M117.4,106.12c-.28.22-.51.6-.61,1.18l-.17.94h-.64l-.16.9h.64l-.6,3.4h1.06l.6-3.4h1.03l.16-.9h-1.03l.14-.8c.06-.36.15-.52.27-.62.12-.1.27-.14.46-.14s.38.03.56.1l.17-.93c-.24-.05-.46-.09-.7-.09-.44,0-.87.11-1.18.35Z"/>
        <path class="cls-1" d="M122.65,108.91h-.02s.11-.66.11-.66h-1.05l-.76,4.3h1.06l.46-2.6c.38-.45.91-.74,1.45-.74.13,0,.24.02.34.04l.17-1c-.1-.03-.21-.04-.33-.04-.52,0-1.09.29-1.44.71Z"/>
        <path class="cls-1" d="M129.17,108.15c-.69,0-1.29.25-1.73.71-.51.52-.72,1.21-.72,1.79,0,1.22.9,1.99,2.11,1.99.69,0,1.29-.25,1.73-.71.51-.52.72-1.21.72-1.79,0-1.22-.9-1.99-2.11-1.99ZM129.79,111.32c-.24.26-.55.39-.91.39-.71,0-1.11-.49-1.11-1.14,0-.38.13-.8.42-1.11.24-.26.55-.39.91-.39.71,0,1.11.49,1.11,1.14,0,.38-.13.79-.42,1.11Z"/>
        <path class="cls-1" d="M137.21,108.15c-.52,0-1,.24-1.44.58h-.02s.09-.48.09-.48h-1.05l-.76,4.3h1.06l.52-2.92c.38-.31.82-.54,1.22-.54.43,0,.6.25.6.62,0,.1,0,.24-.04.42l-.43,2.42h1.06l.45-2.51c.04-.24.06-.41.06-.56,0-.81-.52-1.33-1.31-1.33Z"/>
        <path class="cls-1" d="M143.66,106.98l-1.07.06-.21,1.2h-.74l-.16.9h.74l-.29,1.65c-.04.23-.06.44-.06.59,0,.89.65,1.26,1.4,1.26.22,0,.43-.03.59-.09l.17-.92c-.16.05-.35.1-.52.1-.39,0-.56-.21-.56-.54,0-.12.02-.26.04-.42l.29-1.63h1.2l.16-.9h-1.2l.22-1.26Z"/>
        <path class="cls-1" d="M150.46,108.32c-.26-.1-.57-.18-.94-.18-.66,0-1.31.23-1.8.73-.51.52-.76,1.25-.76,1.91,0,1.11.72,1.85,1.68,1.85.48,0,.85-.17,1.14-.44h.02s-.06.34-.06.34h1.05l1.18-6.68h-1.06l-.44,2.46ZM149.94,111.3c-.27.26-.62.45-.98.45-.55,0-.93-.41-.93-1.08,0-.4.14-.83.39-1.14.25-.31.61-.5,1.04-.5.31,0,.62.1.83.22l-.36,2.05Z"/>
        <path class="cls-1" d="M156.68,108.15c-.64,0-1.25.25-1.7.75-.45.47-.69,1.14-.69,1.79,0,1.32,1.01,1.95,2.19,1.95.43,0,.96-.08,1.34-.25l.18-.97c-.37.18-.91.35-1.4.35-.72,0-1.22-.37-1.26-1.08h3.08c.06-.23.1-.53.1-.77,0-1.11-.81-1.77-1.83-1.77ZM155.45,109.95c.19-.58.61-.94,1.2-.94s.89.35.89.94h-2.09Z"/>
        <path class="cls-1" d="M162.04,108.58c-.31.27-.48.65-.48,1.04,0,.6.42.93,1.15,1.13.56.16,1.07.16,1.07.53,0,.13-.06.24-.14.31-.12.11-.32.15-.54.15-.59,0-1.25-.24-1.72-.62l-.18,1.04c.59.32,1.22.47,1.81.47.56,0,1.07-.13,1.42-.48.29-.29.42-.65.42-1,0-.63-.41-.97-1.16-1.16-.53-.14-1.05-.14-1.05-.51,0-.13.07-.25.18-.33.11-.08.27-.11.48-.11.5,0,1.13.2,1.56.48l.17-.99c-.51-.25-1.14-.39-1.66-.39s-1,.14-1.33.44Z"/>
        <polygon class="cls-1" points="172.71 108.24 171.41 108.24 169.34 109.98 169.32 109.98 170.04 105.87 168.99 105.87 167.81 112.54 168.87 112.54 169.27 110.26 169.28 110.26 170.69 112.54 171.9 112.54 170.41 110.17 172.71 108.24"/>
      </g>
      <g>
        <path class="cls-1" d="M40.76,69.61c-5.38,0-9,3.8-9,9.4s3.62,9.31,9,9.31c5.34,0,8.92-3.75,8.92-9.31s-3.58-9.4-8.92-9.4ZM40.76,87.1c-3.35,0-5.47-2.88-5.47-8.09,0-5.25,2.12-8.18,5.47-8.18,3.27,0,5.39,2.93,5.39,8.18,0,5.21-2.12,8.09-5.39,8.09Z"/>
        <path class="cls-1" d="M87.46,82.27c-1.01,3.58-3.75,4.82-6.49,4.82-3.93,0-6.58-2.93-6.58-8.09,0-.75.09-1.46.18-2.12h12.89c0-4.77-3-7.28-7.5-7.28-5.43,0-9.05,3.75-9.05,9.4,0,5.61,3.93,9.31,9.84,9.31,2.69,0,5.39-1.02,6.71-2.52v-3.53ZM80.57,70.97c2.79,0,4.9,1.88,5.45,3.98.18.75-.35.72-1.14.72h-10.17c1.25-3.69,4.08-4.7,5.87-4.7Z"/>
        <path class="cls-1" d="M170.17,88.28c-.75,0-1.41.22-1.99.62-.18.13-.09.4.18.4,3.31.27,5.17,3,5.17,5.92,0,3.35-2.3,6.37-7.46,6.37-3.62,0-7.24-1.69-7.24-6.1,0-7.24,13.29-8.43,13.29-18.58,0-3.09-1.5-5.87-4.72-6.89,2.07-.35,3.71-1.06,4.81-1.85v-3.53c-1.06,3.4-3.88,4.99-7.72,4.99-5.3,0-8.17,3.75-8.21,7.64,0,3.05,1.77,6.22,5.52,7.64.31.13.62.04.71-.18.04-.13,0-.22-.13-.35-1.63-1.37-2.52-4.24-2.47-7.11,0-3.58,1.46-6.41,4.59-6.41,2.91,0,4.19,1.91,4.19,4.78,0,9.98-13.33,10.28-13.33,18.94,0,5.52,4.9,8.34,9.84,8.34,7.2,0,10.15-4.59,10.15-8.65,0-3.84-2.78-5.96-5.16-5.96Z"/>
        <path class="cls-1" d="M197.27,84.61v-24.5s-5.12.66-5.12.66v.59c.87.19,1.59,1.4,1.59,2.46v20.79c0,1.06-.7,2.06-1.59,2.41v.64h6.71v-.64c-1.03-.41-1.59-1.35-1.59-2.41Z"/>
        <path class="cls-1" d="M29.82,84.61l-1.14-20.79c-.09-1.05.52-2.37,1.59-2.4v-.08s0-.56,0-.56h-4.43s-9.01,20.34-9.01,20.34l-.06.13-.27.73-10.47-21.21H.56s-.56,0-.56,0v.63s.22,0,.53.02c.5.04,1.62.65,2.09,1.44.11.18.42.78.42,1.03s-1.17,20.67-1.17,20.67c-.08.89-.64,1.89-1.36,2.43l-.23.17v.5h.56s3.85,0,3.85,0v-.56c-.93-.3-1.68-1.43-1.59-2.49l1.14-19.59,11.17,22.65,9.8-22.87,1.11,19.82c.08,1.06-.51,2.15-1.6,2.49v.56h6.71v-.56c-1.21-.39-1.5-1.43-1.59-2.49Z"/>
        <path class="cls-1" d="M107.71,70.93v-.49s0-.17,0-.17h-3.66s-.56,0-.56,0v.65s.41.11.41.11c.28.07.37.2.41.3.09.2.07.54-.07.79l-4.34,8.5h-.01s-.31.62-.31.62l-4.33-8.81c-.2-.33-.31-.81-.18-1.22.12-.16.33-.28.72-.28v-.45s0-.21,0-.21h-7.02s-.56,0-.56,0v.66s.48.07.48.07c.81.1,1.51.62,1.96,1.42l6.63,13.3-3.09,5.99c-1.11,1.98-3.15,3.36-5.23,3.55-.16.01-.3.01-.46.01-2.56,0-4.76-1.12-5.42-3.68v3.53c1.59.84,3.62,1.36,5.12,1.36,3.22,0,5.65-1.59,7.42-4.85l9.89-19.25c.44-.97,1.14-1.41,2.2-1.45Z"/>
        <path class="cls-1" d="M70.24,87.1c-.44-.15-.81-.48-1.09-.88-.3-.5-.5-1.07-.5-1.61v-9.31c0-3.31-3.18-5.69-6.75-5.69-1.99,0-4.06.75-5.56,2.52v-2.52s-5.12.66-5.12.66v.63c.89.07,1.59,1.36,1.59,2.42v11.3c0,1.06-.63,2.16-1.59,2.49v.56h6.71v-.56c-.94-.37-1.59-1.43-1.59-2.49v-10.55c1.15-1.72,2.65-2.97,4.46-2.97,2.25,0,4.33,1.63,4.33,4.37v2.11s0,0,0,0v7.04c0,.09-.01.19-.02.28-.04.34-.14.68-.3,1-.28.54-.72.99-1.27,1.21v.56h0s6.71,0,6.71,0h0v-.22s0,0,0,0v-.34Z"/>
        <path class="cls-1" d="M131.85,86.47s-.04-.04-.06-.07c-.06-.07-.12-.14-.18-.21-.14-.2-.26-.42-.37-.65l-11.77-23.32-.73-1.44-12.58,24.76c-.1.23-.23.44-.37.64-.39.52-.9.76-1.84.84v.46s0,.18,0,.18h3.66s.56,0,.56,0v-.64s-.42-.1-.42-.1c-.21-.06-.34-.17-.4-.33-.1-.2-.07-.54.07-.79l3.32-6.54.28-.56h12.81s3.28,6.55,3.28,6.55c.23.53.53,1.55-.55,1.78v.64h6.89v-.18s0-.46,0-.46c-.7.06-1.21-.15-1.6-.55ZM123.19,77.47h-.62s-.59,0-.59,0h-10.35s5.37-10.56,5.37-10.56l.11-.22.32-.62,5.76,11.4Z"/>
        <path class="cls-1" d="M153.79,87.1c-.44-.15-.81-.48-1.09-.88-.3-.5-.5-1.07-.5-1.61v-9.31c0-3.31-3.18-5.69-6.75-5.69-1.99,0-4.06.75-5.56,2.52v-2.52s-5.12.66-5.12.66v.63c.89.07,1.59,1.36,1.59,2.42v11.3c0,1.06-.63,2.16-1.59,2.49v.56h6.71v-.56c-.94-.37-1.59-1.43-1.59-2.49v-10.55c1.15-1.72,2.65-2.97,4.46-2.97,2.25,0,4.33,1.63,4.33,4.37v2.11s0,0,0,0v7.04c0,.09-.01.19-.02.28-.04.34-.14.68-.3,1-.28.54-.72.99-1.27,1.21v.56h0s6.71,0,6.71,0h0v-.22s0,0,0,0v-.34Z"/>
        <path class="cls-1" d="M191.04,76.89c0-4.77-3-7.28-7.5-7.28-5.43,0-9.05,3.75-9.05,9.4,0,5.61,3.93,9.31,9.84,9.31,2.69,0,5.39-1.02,6.71-2.52v-3.53c-1.01,3.58-3.75,4.82-6.49,4.82-3.93,0-6.58-2.93-6.58-8.09,0-.75.09-1.46.18-2.12h12.89ZM184.15,70.97c2.79,0,4.9,1.88,5.45,3.98.18.75-.35.72-1.14.72h-10.17c1.25-3.69,4.08-4.7,5.87-4.7Z"/>
      </g>
      <path class="cls-1" d="M140.92,42.31H53.66v3h1.99c-1.22,1.45-1.99,3.3-1.99,5.34v6.47h3v-6.47c0-2.95,2.4-5.34,5.34-5.34h70.59c2.95,0,5.34,2.4,5.34,5.34v6.47h3v-6.47c0-1.72-.53-3.33-1.43-4.66-.17-.25-.37-.46-.56-.68h1.99v-3Z"/>
      <g>
        <path class="cls-1" d="M120.66,22.76c-1.57,2.37-3.54,4.35-5.6,6.31-3.96,3.76-6.7,8.12-8.36,13.24h-2.93c-1.24-6.82,1.18-12.72,6.33-17.99,3.61-3.69,7.05-7.57,10.62-11.41,1.48,2.95,2.06,6.65-.06,9.85Z"/>
        <path class="cls-1" d="M117.64,11.49c-1.43,3.44-4.13,6.01-6.91,9.06-1.94,2.11-3.92,4.25-5.45,6.63-3.16,4.92-3.99,9.98-2.98,15.13h-1.98c-1.72-4.75-1.09-10.14,2-15.62,1.66-2.96,3.62-5.81,5.77-8.44,4.07-4.98,7.16-10.3,7.16-17.03,2.68,2.38,3.88,6.74,2.41,10.27Z"/>
        <path class="cls-1" d="M113.2,42.31h-4.83c1.83-4.45,4.64-8.35,8.62-11.72,1.14,5.16-1.04,8.58-3.79,11.72Z"/>
        <path class="cls-1" d="M90.8,42.31h-2.93c-1.65-5.12-4.4-9.48-8.35-13.24-2.07-1.96-4.03-3.94-5.6-6.31-2.12-3.2-1.54-6.89-.06-9.85,3.56,3.84,6.99,7.72,10.62,11.41,5.16,5.28,7.56,11.17,6.33,17.99Z"/>
        <path class="cls-1" d="M94.26,42.31h-1.97c1-5.16.18-10.22-2.98-15.13-1.54-2.39-3.52-4.52-5.45-6.63-2.78-3.05-5.47-5.62-6.92-9.06-1.47-3.54-.27-7.9,2.41-10.27,0,6.74,3.09,12.05,7.15,17.03,2.15,2.63,4.1,5.48,5.77,8.44,3.07,5.48,3.71,10.87,1.99,15.62Z"/>
        <path class="cls-1" d="M86.2,42.31h-4.82c-2.76-3.13-4.94-6.55-3.8-11.72,3.98,3.37,6.79,7.26,8.62,11.72Z"/>
        <path class="cls-1" d="M102.82,8.99c-.04-3.23-2.48-6.25-5.77-6.16-3.07.07-5.39,3.29-5.29,6.43.1,3.15,2.35,7.84,5.53,7.79,3.1-.05,5.57-4.91,5.53-8.05Z"/>
        <g>
          <path class="cls-1" d="M99.03.51c.42.08.83.2,1.22.37.29.12.56.27.79.47.12.11.23.24.33.37.09.12.04.28-.08.36-.11.08-.29.07-.37-.04-.43-.56-1.07-.76-1.72-.93-.85-.21-1.73-.27-2.61-.22-.73.04-1.44.15-2.12.4-.19.07-.37.16-.55.25-.21.11-.39.26-.53.45-.11.15-.28.18-.41.09-.14-.09-.16-.25-.06-.4.21-.32.53-.52.86-.69.55-.28,1.13-.43,1.74-.53.17-.03.82-.15,1.47-.15,1.07,0,1.8.14,2.05.19Z"/>
          <path class="cls-1" d="M101.11,2.45c-.17,0-.34-.07-.45-.21-.38-.49-.95-.66-1.55-.81-.77-.19-1.59-.26-2.51-.21-.81.05-1.45.17-2.03.38-.18.07-.35.15-.51.23-.18.09-.32.21-.43.35-.2.27-.57.34-.84.16-.13-.09-.22-.22-.25-.37-.03-.16,0-.32.11-.47.27-.4.67-.64.98-.8.53-.27,1.13-.45,1.83-.56C95.78.1,96.37,0,96.97,0h0c1.11,0,1.86.15,2.11.2h0c.47.09.89.22,1.28.39.23.1.58.26.87.52.13.12.26.26.37.42.09.12.12.27.09.41-.03.15-.12.29-.25.39-.11.07-.23.11-.35.11Z"/>
        </g>
      </g>
    </g>
  </g>
</svg>