<svg id="Group_258" data-name="Group 258" xmlns="http://www.w3.org/2000/svg" xmlns:xlink="http://www.w3.org/1999/xlink" width="198.155" height="43.657" viewBox="0 0 198.155 43.657">
  <defs>
    <clipPath id="clip-path">
      <rect id="Rectangle_201" data-name="Rectangle 201" width="198.155" height="43.657" fill="#bbc3d0"/>
    </clipPath>
  </defs>
  <g id="Group_257" data-name="Group 257" transform="translate(0 0)" clip-path="url(#clip-path)">
    <path id="Path_1354" data-name="Path 1354" d="M203.553,59.274a1.83,1.83,0,0,0-.788-.157h-1.249v4.147h.7V61.694h.551a1.83,1.83,0,0,0,.788-.157,1.227,1.227,0,0,0,.519-.448,1.243,1.243,0,0,0-.519-1.815m-.207,1.632a.918.918,0,0,1-.581.171h-.551V59.733h.551a.927.927,0,0,1,.581.169.593.593,0,0,1,.218.5.6.6,0,0,1-.218.5" transform="translate(-98.73 -28.963)" fill="#bbc3d0"/>
    <path id="Path_1355" data-name="Path 1355" d="M211.108,61.534a1.2,1.2,0,0,0,.7-1.131,1.219,1.219,0,0,0-.187-.678,1.238,1.238,0,0,0-.518-.447,1.792,1.792,0,0,0-.788-.16h-1.28v4.147h.7V61.694h.432l1.044,1.569h.847l-1.174-1.648a1.433,1.433,0,0,0,.22-.083m-1.369-1.813h.551a.991.991,0,0,1,.421.083.66.66,0,0,1,.278.237.761.761,0,0,1,0,.756.63.63,0,0,1-.278.237,1.033,1.033,0,0,1-.421.079h-.551Z" transform="translate(-102.416 -28.963)" fill="#bbc3d0"/>
    <path id="Path_1356" data-name="Path 1356" d="M217.2,59.117h-.433v4.147h2.523v-.616h-1.836v-1.3h1.718v-.6h-1.718V59.733h1.836v-.616H217.2Z" transform="translate(-106.2 -28.963)" fill="#bbc3d0"/>
    <path id="Path_1357" data-name="Path 1357" d="M223.4,59.763h1.1v3.5h.7v-3.5h1.1v-.646H223.4Z" transform="translate(-109.449 -28.963)" fill="#bbc3d0"/>
    <path id="Path_1358" data-name="Path 1358" d="M238.064,62.174q.252-.3.471-.6l-.462-.32a6.617,6.617,0,0,1-.415.542c-.055.065-.112.124-.169.183l-.9-1c.1-.064.194-.128.276-.189a1.934,1.934,0,0,0,.29-.267,1.057,1.057,0,0,0,.181-.284.811.811,0,0,0,.062-.32.918.918,0,0,0-.124-.465.974.974,0,0,0-.365-.356,1.144,1.144,0,0,0-.583-.14,1.292,1.292,0,0,0-.589.128.967.967,0,0,0-.391.346.9.9,0,0,0-.139.492.8.8,0,0,0,.1.4,1.685,1.685,0,0,0,.246.335c.069.073.131.142.189.208-.1.047-.208.1-.317.16a1.767,1.767,0,0,0-.343.249,1.185,1.185,0,0,0-.258.346,1.03,1.03,0,0,0-.1.468,1.009,1.009,0,0,0,.195.619,1.256,1.256,0,0,0,.51.4,1.647,1.647,0,0,0,.675.14,1.929,1.929,0,0,0,.758-.148,2.686,2.686,0,0,0,.572-.333l.37.416h.752l-.7-.79c.069-.071.139-.143.2-.22m-2.085-2.553a.457.457,0,0,1,.346-.127.486.486,0,0,1,.253.062.443.443,0,0,1,.16.163.471.471,0,0,1,.056.232.574.574,0,0,1-.186.382,1.737,1.737,0,0,1-.341.272l-.252-.29a.562.562,0,0,1-.157-.37.45.45,0,0,1,.121-.323m.726,2.948a1.242,1.242,0,0,1-.527.118.906.906,0,0,1-.4-.082.669.669,0,0,1-.269-.229.583.583,0,0,1-.1-.335.594.594,0,0,1,.1-.352,1,1,0,0,1,.267-.251,3.082,3.082,0,0,1,.315-.179l.969,1.09a2.266,2.266,0,0,1-.363.221" transform="translate(-115.003 -28.883)" fill="#bbc3d0"/>
    <path id="Path_1359" data-name="Path 1359" d="M250.169,58.966a2.277,2.277,0,0,0-.85.157,2.018,2.018,0,0,0-1.137,1.126,2.372,2.372,0,0,0,0,1.73,2.071,2.071,0,0,0,.453.685,1.973,1.973,0,0,0,.684.444,2.306,2.306,0,0,0,.85.154,2.225,2.225,0,0,0,.762-.113,1.871,1.871,0,0,0,.56-.326v-.834a1.71,1.71,0,0,1-.332.305,1.591,1.591,0,0,1-.429.21,1.746,1.746,0,0,1-.537.078,1.38,1.38,0,0,1-.7-.184,1.433,1.433,0,0,1-.518-.512,1.592,1.592,0,0,1,0-1.541,1.4,1.4,0,0,1,1.217-.69,1.745,1.745,0,0,1,.537.078,1.564,1.564,0,0,1,.429.211,1.765,1.765,0,0,1,.332.3v-.829a1.817,1.817,0,0,0-.56-.332,2.225,2.225,0,0,0-.762-.113" transform="translate(-121.513 -28.889)" fill="#bbc3d0"/>
    <path id="Path_1360" data-name="Path 1360" d="M260.55,59.58a2.132,2.132,0,0,0-.684-.45,2.319,2.319,0,0,0-1.709,0,2.125,2.125,0,0,0-.687.45,1.983,1.983,0,0,0-.453.678,2.234,2.234,0,0,0-.16.858,2.271,2.271,0,0,0,.16.859,2.027,2.027,0,0,0,.45.687,2.084,2.084,0,0,0,.684.453,2.35,2.35,0,0,0,1.721,0,2.108,2.108,0,0,0,.681-.453,2.045,2.045,0,0,0,.45-.687,2.282,2.282,0,0,0,.16-.859,2.245,2.245,0,0,0-.16-.858,1.983,1.983,0,0,0-.453-.678m-.314,2.3a1.428,1.428,0,0,1-1.955.524,1.388,1.388,0,0,1-.5-.524,1.536,1.536,0,0,1-.184-.758,1.554,1.554,0,0,1,.184-.762,1.363,1.363,0,0,1,.5-.524,1.392,1.392,0,0,1,.726-.19,1.413,1.413,0,0,1,.737.19,1.323,1.323,0,0,1,.495.524,1.6,1.6,0,0,1,.177.762,1.563,1.563,0,0,1-.181.758" transform="translate(-125.843 -28.889)" fill="#bbc3d0"/>
    <path id="Path_1361" data-name="Path 1361" d="M269.725,61.872a.91.91,0,0,1-.2.616.892.892,0,0,1-1.211,0,.9.9,0,0,1-.208-.616V59.117h-.7V61.9a1.616,1.616,0,0,0,.11.613,1.285,1.285,0,0,0,.311.46,1.373,1.373,0,0,0,.48.29,1.9,1.9,0,0,0,1.221,0,1.4,1.4,0,0,0,.483-.29,1.273,1.273,0,0,0,.314-.46,1.617,1.617,0,0,0,.11-.613V59.117h-.7Z" transform="translate(-131.01 -28.963)" fill="#bbc3d0"/>
    <path id="Path_1362" data-name="Path 1362" d="M275.08,59.763h1.1v3.5h.7v-3.5h1.1v-.646H275.08Z" transform="translate(-134.771 -28.963)" fill="#bbc3d0"/>
    <path id="Path_1363" data-name="Path 1363" d="M284.824,61.872a.91.91,0,0,1-.2.616.892.892,0,0,1-1.211,0,.9.9,0,0,1-.208-.616V59.117h-.7V61.9a1.616,1.616,0,0,0,.11.613,1.292,1.292,0,0,0,.311.46,1.379,1.379,0,0,0,.479.29,1.9,1.9,0,0,0,1.221,0,1.4,1.4,0,0,0,.483-.29,1.273,1.273,0,0,0,.314-.46,1.606,1.606,0,0,0,.11-.613V59.117h-.7Z" transform="translate(-138.407 -28.963)" fill="#bbc3d0"/>
    <path id="Path_1364" data-name="Path 1364" d="M293.059,61.534a1.2,1.2,0,0,0,.7-1.131,1.219,1.219,0,0,0-.187-.678,1.238,1.238,0,0,0-.518-.447,1.792,1.792,0,0,0-.788-.16h-1.28v4.147h.7V61.694h.432l1.044,1.569h.847l-1.174-1.648a1.433,1.433,0,0,0,.22-.083m-1.368-1.813h.551a.99.99,0,0,1,.421.083.66.66,0,0,1,.279.237.761.761,0,0,1,0,.756.63.63,0,0,1-.279.237,1.032,1.032,0,0,1-.421.079h-.551Z" transform="translate(-142.566 -28.963)" fill="#bbc3d0"/>
    <path id="Path_1365" data-name="Path 1365" d="M301.239,59.733v-.616h-2.524v4.147h2.524v-.616H299.4v-1.3h1.718v-.6H299.4V59.733Z" transform="translate(-146.351 -28.963)" fill="#bbc3d0"/>
    <path id="Path_1366" data-name="Path 1366" d="M255.038,23.065q-1.52,1.3-3.982,3.457a45.294,45.294,0,0,1-4.524,3.533,6.545,6.545,0,0,1-3.251,1.364.88.88,0,0,1-.59-.263.723.723,0,0,1-.285-.54c0-.373.477-1.179,2.751-2.9A16.728,16.728,0,0,0,249,24.112a5.917,5.917,0,0,0,1.189-3.412c0-1.516-.736-1.856-1.361-1.872l-.017,0-.11,0-.006.007c-.11.012-.325.046-.8.14a4.885,4.885,0,0,1-.939.141,1,1,0,0,1-.727-.33.847.847,0,0,1-.293-.691,1.381,1.381,0,0,1,.086-.519,1.951,1.951,0,0,0,1.151.621,1.218,1.218,0,0,0,.862-.336,1.17,1.17,0,0,0,.362-.888.979.979,0,0,0-.432-.808,1.525,1.525,0,0,0-.936-.307,1.84,1.84,0,0,0-1.558.966,2.566,2.566,0,0,0-.339,2.033c-1.026.772-6.549,5.249-8.021,6.468s-2.794,2.284-3.922,3.163a30.171,30.171,0,0,1-3.076,2.141,4.613,4.613,0,0,1-1.974.79c-.2,0-.333-.063-.333-.369,0-.448.972-2.034,5.6-7.05.336-.384.751-.879,1.234-1.471s1.108-1.344,1.882-2.262l1.195-1.47-3.514.25-1.9,2.234c.02-.117.034-.214.043-.291.011-.1.029-.212.056-.37a1.748,1.748,0,0,0-.592-1.379,2.642,2.642,0,0,0-1.645-.416,13.45,13.45,0,0,0-4.455.806,15.3,15.3,0,0,0-4.136,2.2,11.542,11.542,0,0,0-2.407,2.415l-1.308,1.082c-1.474,1.22-2.794,2.284-3.923,3.163a30.119,30.119,0,0,1-3.076,2.141,4.608,4.608,0,0,1-1.974.79c-.2,0-.332-.063-.332-.369,0-.448.971-2.034,5.6-7.05.336-.384.751-.879,1.234-1.471s1.108-1.344,1.882-2.262l1.195-1.47-3.514.25-1.9,2.234c.02-.117.035-.214.043-.291.011-.1.029-.212.056-.37a1.746,1.746,0,0,0-.592-1.379,2.64,2.64,0,0,0-1.644-.416,13.451,13.451,0,0,0-4.455.806,15.308,15.308,0,0,0-4.136,2.2,11.562,11.562,0,0,0-2.568,2.648,67.267,67.267,0,0,1-5.195,4.3c-2.346,1.754-4.124,2.643-5.287,2.643a.337.337,0,0,1-.278-.092.708.708,0,0,1,.012-.553,4.957,4.957,0,0,1,1.121-1.814l8.8-9.844h-3.695l-.042.025c-1.929,1.173-12.732,10-14.1,10.914a6.549,6.549,0,0,1-3.251,1.364.878.878,0,0,1-.59-.263.722.722,0,0,1-.286-.54c0-.373.478-1.179,2.751-2.9a16.717,16.717,0,0,0,3.84-3.605,5.917,5.917,0,0,0,1.189-3.412c0-1.55-.764-1.874-1.4-1.874a10.952,10.952,0,0,0-5.742,2.237c-1.892,1.269-4.108,2.935-6.6,4.962,1.026-1.34,1.743-2.33,2.138-2.951a4.663,4.663,0,0,0,.788-2.518c0-1.43-.764-1.73-1.4-1.73-1.532,0-11.52,8.5-13.458,9.95-2.346,1.754-4.124,2.643-5.287,2.643a.337.337,0,0,1-.278-.092.707.707,0,0,1,.011-.553,4.965,4.965,0,0,1,1.121-1.814l8.8-9.844h-3.695l-.042.025a76.46,76.46,0,0,0-6.524,4.854c-2.984,2.51-5.292,4.368-6.86,5.525-1.713,1.262-3.1,1.9-4.113,1.9-.836,0-.836-.361-.836-.515,0-.09.09-.4.929-1.3a14.431,14.431,0,0,1,2.039-1.819,17.072,17.072,0,0,0,3.824-3.644,5.957,5.957,0,0,0,1.131-3.373,2.4,2.4,0,0,0-.377-1.43,1.3,1.3,0,0,0-1.065-.521,7.579,7.579,0,0,0-3.358,1.13A35.728,35.728,0,0,0,140.21,22.7q-1.659,1.226-3.444,2.528l-1.085.795c1.845-2.387,2.778-4.33,2.778-5.789,0-.921-.523-1.408-1.512-1.408a8.609,8.609,0,0,0-4.494,1.73c-1.49,1-3.605,2.606-6.444,4.909l0,0,5.485-6.634h-3l-3.5,3.828-.11.111c-.094.1-.194.208-.308.321l-7.9,8.827h3.574l1.093-1.02c3.74-3.359,6.828-5.985,9.441-8.027,2.629-2.061,4.625-3.105,5.934-3.105a.417.417,0,0,1,.354.132.424.424,0,0,1,.119.271c0,.091-.077.395-.789,1.24-.53.637-1.185,1.364-2,2.221-.788.817-1.374,1.437-1.759,1.849l-5.876,6.439h3.5l.05-.047c1.657-1.552,3.765-3.317,6.266-5.251,2.54-1.962,4.88-3.629,6.956-4.953,2.565-1.636,3.589-1.98,4-1.98.21,0,.4.059.4.48,0,.239-.37.986-2.844,3.309a24.833,24.833,0,0,0-3.574,3.975,5.9,5.9,0,0,0-1.074,3.246,1.414,1.414,0,0,0,1.582,1.582,8.332,8.332,0,0,0,4.718-1.986c1.74-1.3,4.282-3.38,7.557-6.2,0,0,2.74-2.308,4.141-3.226-.069.073-.141.145-.215.22-3.924,3.924-5.913,7.2-5.913,9.748a1.257,1.257,0,0,0,1.368,1.441c1.407,0,3.232-.827,5.424-2.46,2.165-1.611,12.33-10.133,13.248-10.133.26,0,.26.1.26.182-.027.21-.744,1.312-5.239,6.331l-5.07,5.718H165.6l.049-.046c1.778-1.634,3.688-3.318,5.677-5.008a70.279,70.279,0,0,1,6.425-4.836c2.252-1.505,3.948-2.269,5.042-2.269.34,0,.568.064.625.176.031.06.065.249-.278.723a21.843,21.843,0,0,1-3.029,3.1,15.155,15.155,0,0,0-3.038,3.386,6.157,6.157,0,0,0-1.112,3.188,2.333,2.333,0,0,0,.409,1.29,1.551,1.551,0,0,0,1.394.657,7.126,7.126,0,0,0,3.549-1.348,37.542,37.542,0,0,0,4.2-3.126c.994-.849,6.712-5.805,8.451-6.939-.071.074-.144.148-.22.224-3.924,3.924-5.913,7.2-5.913,9.748a1.257,1.257,0,0,0,1.368,1.441c1.407,0,3.232-.827,5.424-2.46,1.276-.95,2.631-2.054,4.035-3.287a6.607,6.607,0,0,0-.4,2.242,4.05,4.05,0,0,0,.727,2.589,2.353,2.353,0,0,0,1.909.915c1.608,0,3.962-1.4,7.185-4.272a8.606,8.606,0,0,0-.7,2.9c0,1.131.666,1.369,1.224,1.369a6.819,6.819,0,0,0,3.774-1.517c1.252-.892,3.142-2.384,5.624-4.439a6.633,6.633,0,0,0-.49,2.451,4.053,4.053,0,0,0,.726,2.589,2.354,2.354,0,0,0,1.909.915c1.608,0,3.962-1.4,7.185-4.272a8.618,8.618,0,0,0-.7,2.9c0,1.131.666,1.369,1.224,1.369a6.821,6.821,0,0,0,3.774-1.517c1.385-.987,3.55-2.706,6.434-5.11l1.438-1.213c1.235-.958,3.177-2.532,5.933-4.809a1.554,1.554,0,0,0,1.214.454,4.531,4.531,0,0,0,1.787-.265.428.428,0,0,1,.149-.028.544.544,0,0,1,.247.1c.161.154-.082.546-.241.766a21.816,21.816,0,0,1-3.029,3.1,15.14,15.14,0,0,0-3.038,3.386,6.158,6.158,0,0,0-1.112,3.188,2.332,2.332,0,0,0,.408,1.29,1.552,1.552,0,0,0,1.394.657,7.128,7.128,0,0,0,3.55-1.348,37.484,37.484,0,0,0,4.2-3.126c1.4-1.2,2.85-2.494,4.313-3.86l.055-.052v-1.07Zm-23.6-2.292c0,.941-.741,2.278-2.2,3.975a30.792,30.792,0,0,1-5,4.642c-1.818,1.346-3.22,2.029-4.166,2.029a1.063,1.063,0,0,1-1.093-1.092c0-.707.652-1.964,1.939-3.734a25.13,25.13,0,0,1,4.6-4.815,7.926,7.926,0,0,1,4.722-2.1c.82,0,1.2.347,1.2,1.092m-19.251,0c0,.941-.741,2.278-2.2,3.975a30.776,30.776,0,0,1-5,4.642c-1.818,1.346-3.22,2.029-4.166,2.029a1.063,1.063,0,0,1-1.092-1.092c0-.707.652-1.964,1.939-3.734a25.134,25.134,0,0,1,4.6-4.815,7.925,7.925,0,0,1,4.722-2.1c.819,0,1.2.347,1.2,1.092" transform="translate(-57.17 -7.769)" fill="#bbc3d0"/>
    <path id="Path_1367" data-name="Path 1367" d="M206.03,15.145l0,0,.02.018.017.02,0,0a2.392,2.392,0,0,0,2.452-.588,1.537,1.537,0,0,0,.29-2.154h0l-.019-.018-.018-.019h0a1.537,1.537,0,0,0-2.154.29,2.391,2.391,0,0,0-.588,2.452" transform="translate(-100.869 -5.919)" fill="#bbc3d0"/>
    <path id="Path_1368" data-name="Path 1368" d="M274.622,15.145l0,0,.02.018.017.02,0,0a2.392,2.392,0,0,0,2.452-.588,1.537,1.537,0,0,0,.29-2.154h0l-.019-.018-.018-.019h0a1.537,1.537,0,0,0-2.154.29,2.391,2.391,0,0,0-.588,2.452" transform="translate(-134.475 -5.919)" fill="#bbc3d0"/>
    <path id="Path_1369" data-name="Path 1369" d="M53.631,42.939c-1.592,3.674-6.63,3.351-10,2.081a3.6,3.6,0,0,1-2.034.994c-4.293.575-10.387-2.038-14.7-4.123h0c-4.309,2.085-10.4,4.7-14.7,4.123a3.6,3.6,0,0,1-2.034-.994c-3.37,1.27-8.408,1.593-10-2.081-.958-3.086,2.345-5.274,4.777-6.2a17.644,17.644,0,0,1,7.257-.95l.15.012c.008,0,.016,0,.023,0a.22.22,0,0,0,.052,0h0a.381.381,0,0,1,.071.008,33.845,33.845,0,0,1,7.628,1.6c1.8-1.25,3.567-2.543,5.313-3.851-.966-.7-1.963-1.372-2.98-2.014a12.026,12.026,0,0,1-2.479,1.935,12.787,12.787,0,0,1-7.442,1.841.294.294,0,0,1-.059-.008h-.008a.381.381,0,0,1-.071-.008h0c-.056,0-.107-.008-.162-.016a7.612,7.612,0,0,1-4.687-2.314,3.808,3.808,0,0,1-.859-1.695c-.564-3.347,3.378-5.109,6.158-5.01,2.988.008,6.323,1.541,9.366,3.39a41.144,41.144,0,0,0,3.832-5.463l.584-.974c.031-.055.063-.11.1-.165a.1.1,0,0,0,0-.016.077.077,0,0,0,0-.02l-.008-.008c-.047-.071-.1-.146-.154-.225-.434-.635-1.013-1.526-1.1-1.667-.012-.012-.012-.023-.008-.043a38.85,38.85,0,0,0,.666-5.9,11.952,11.952,0,0,0-.414-3.7,8.022,8.022,0,0,0-.635-1.553h0A6.464,6.464,0,0,0,22.1,7.134,2.5,2.5,0,0,0,21.811,7h0a5.957,5.957,0,0,0-.469-.584.392.392,0,0,0-.036-.036,7.563,7.563,0,0,1,4.679,3.371l-.008,0h0a6.512,6.512,0,0,1,.9,2.637.033.033,0,0,0,.032.028h0a.033.033,0,0,0,.032-.028,6.512,6.512,0,0,1,.9-2.637h0l-.008,0A7.563,7.563,0,0,1,32.5,6.377a.392.392,0,0,0-.036.036A5.957,5.957,0,0,0,31.994,7h0a2.5,2.5,0,0,0-.292.138,6.464,6.464,0,0,0-2.976,2.791h0a8.021,8.021,0,0,0-.635,1.553,11.952,11.952,0,0,0-.414,3.7,38.85,38.85,0,0,0,.666,5.9c0,.02,0,.032-.008.043-.091.142-.67,1.033-1.1,1.667-.055.079-.107.154-.154.225l-.008.008a.077.077,0,0,0,0,.02.1.1,0,0,0,0,.016c.036.055.067.11.1.165l.584.974a41.145,41.145,0,0,0,3.832,5.463c3.043-1.848,6.378-3.382,9.366-3.39,2.779-.1,6.721,1.663,6.158,5.01a3.808,3.808,0,0,1-.859,1.695,7.612,7.612,0,0,1-4.687,2.314c-.055.008-.106.012-.162.016h0a.381.381,0,0,1-.071.008h-.008a.294.294,0,0,1-.059.008,12.787,12.787,0,0,1-7.442-1.841,12.026,12.026,0,0,1-2.479-1.935c-1.017.642-2.014,1.316-2.98,2.014,1.746,1.308,3.516,2.6,5.313,3.851a33.845,33.845,0,0,1,7.628-1.6.38.38,0,0,1,.071-.008h0a.22.22,0,0,0,.052,0c.008,0,.016,0,.023,0l.15-.012a17.644,17.644,0,0,1,7.257.95c2.432.93,5.735,3.118,4.777,6.2M32.616,30.762a11.693,11.693,0,0,0,7.466,3.13,6.546,6.546,0,0,0,5.057-1.865,1.936,1.936,0,0,0,.414-2.117,3.509,3.509,0,0,0-1.872-1.659c-3.717-1.538-7.746.595-11.022,2.483a.292.292,0,0,0-.043.028m-11.432,0a.292.292,0,0,0-.043-.028c-3.276-1.888-7.3-4.021-11.022-2.483A3.509,3.509,0,0,0,8.247,29.91a1.936,1.936,0,0,0,.414,2.117,6.546,6.546,0,0,0,5.057,1.865,11.693,11.693,0,0,0,7.466-3.13M26.9,32.827h0c1.049-.765,2.208-1.585,3.433-2.381-.406-.477-.784-.966-1.147-1.458-.812-1.1-1.569-2.232-2.286-3.386h0c-.717,1.155-1.474,2.283-2.286,3.386-.363.493-.741.981-1.147,1.458,1.226.8,2.385,1.616,3.433,2.381M13.927,41.452c1.585-.954,3.146-1.963,4.687-3-4.4-1.324-9.078-1.8-13.142-.35-2.129.721-5.794,3.347-3.047,5.463,1.9,1.273,4.486.974,6.607.312a26.146,26.146,0,0,0,4.9-2.421m11.349-.307a42.4,42.4,0,0,0-4.911-2.113,74.472,74.472,0,0,1-9.059,5.5c-.165.083-.339.166-.52.241,2.735,1.9,9.137-1.1,11.818-2.287.9-.422,1.8-.871,2.673-1.34m1.625-.8a38.654,38.654,0,0,1,5.077-2.337c-1.711-1.222-3.4-2.476-5.077-3.733h0c-1.679,1.257-3.366,2.511-5.077,3.733A38.654,38.654,0,0,1,26.9,40.348Zm16.115,4.423c-.182-.075-.355-.158-.52-.241a74.473,74.473,0,0,1-9.059-5.5,42.4,42.4,0,0,0-4.911,2.113c.875.469,1.774.918,2.673,1.34,2.68,1.19,9.082,4.187,11.818,2.287M48.329,38.1c-4.064-1.451-8.747-.974-13.142.35,1.541,1.041,3.1,2.05,4.687,3a26.146,26.146,0,0,0,4.9,2.421c2.121.662,4.7.961,6.607-.312,2.747-2.117-.919-4.742-3.047-5.463m-22.07,6.035-1.434.209,1.038,1.011-.245,1.428,1.282-.674,1.283.674-.245-1.428,1.038-1.011-1.434-.209-.642-1.3Z" transform="translate(0 -3.124)" fill="#bbc3d0"/>
    <path id="Path_1370" data-name="Path 1370" d="M50.115,1.72c0-1.04.6-1.687,1.31-1.718h.054c.709.031,1.31.678,1.31,1.718a2.378,2.378,0,0,1-1.31,2.138v0l-.027,0-.027,0v0a2.378,2.378,0,0,1-1.31-2.138" transform="translate(-24.553 0)" fill="#bbc3d0"/>
    <path id="Path_1371" data-name="Path 1371" d="M31.873,4a14.952,14.952,0,0,0,2.03.288,6.152,6.152,0,0,0-.607-.509c-.169-.019-.339-.043-.493-.067a7.116,7.116,0,0,1-1.443-.41c-.552-.252-.639-.737-.193-.78a4.6,4.6,0,0,1,2.87,1.352c.13.114.256.233.374.354a1.618,1.618,0,0,1,.107.122,10.843,10.843,0,0,1,1.714,4.222c.008.043.016.083.024.122a22.214,22.214,0,0,1,.339,5.7c-.039,1.017-.094,1.186-.13,2.2a4.1,4.1,0,0,0,.257,1.754,2.533,2.533,0,0,0,1.411,1.411,2.786,2.786,0,0,0,1.014.213.056.056,0,0,0,.063-.051.067.067,0,0,0-.043-.063,1.01,1.01,0,0,1-.7-.761A3.749,3.749,0,0,1,38.3,17.83c.063-2.065.173-3.189.11-5.207a22.538,22.538,0,0,0-.733-4.793A8.429,8.429,0,0,0,36.1,4.716,8.135,8.135,0,0,0,31.822,2c-1.281-.158-1.522.639-1.372,1.049.122.339.434.7,1.423.95" transform="translate(-14.899 -0.969)" fill="#bbc3d0"/>
    <path id="Path_1372" data-name="Path 1372" d="M66.575,3.048c.15-.41-.091-1.206-1.372-1.049a8.134,8.134,0,0,0-4.281,2.716,8.437,8.437,0,0,0-1.573,3.114,22.574,22.574,0,0,0-.733,4.794c-.063,2.018.047,3.141.11,5.207A3.748,3.748,0,0,1,58.56,19.1a1.009,1.009,0,0,1-.7.761.066.066,0,0,0-.043.063.057.057,0,0,0,.063.052,2.786,2.786,0,0,0,1.014-.213A2.531,2.531,0,0,0,60.3,18.355a4.1,4.1,0,0,0,.257-1.754c-.036-1.017-.091-1.186-.13-2.2a22.214,22.214,0,0,1,.339-5.7c.008-.039.016-.079.024-.122a10.849,10.849,0,0,1,1.714-4.222c.032-.043.071-.083.107-.122.118-.122.244-.241.374-.355a4.606,4.606,0,0,1,2.87-1.352c.446.043.359.528-.193.781a7.112,7.112,0,0,1-1.443.41c-.154.024-.323.047-.493.067a6.072,6.072,0,0,0-.607.509A14.947,14.947,0,0,0,65.151,4c.99-.252,1.3-.611,1.423-.95" transform="translate(-28.326 -0.969)" fill="#bbc3d0"/>
  </g>
</svg>
