<svg id="Group_332" data-name="Group 332" xmlns="http://www.w3.org/2000/svg" xmlns:xlink="http://www.w3.org/1999/xlink" width="122.509" height="58" viewBox="0 0 122.509 58">
  <defs>
    <clipPath id="clip-path">
      <rect id="Rectangle_250" data-name="Rectangle 250" width="122.509" height="58" fill="#bbc3d0"/>
    </clipPath>
  </defs>
  <g id="Group_331" data-name="Group 331" clip-path="url(#clip-path)">
    <path id="Path_1542" data-name="Path 1542" d="M287.788,87.012s-4.991,10.961-4.833,14.372,3,5.149,4.738,5.023c0,0,3.664-.095,4.644-5.18a8.3,8.3,0,0,0,.142-1.627c-.047-.6-.363-.9-.806-.221a19.122,19.122,0,0,1-3.743,4c-1.042.553-1.185-.158-.726-1.548s4.343-11.846,4.343-11.846.885-1.958-.521-2.78a7.187,7.187,0,0,0-1.779-.878,1.188,1.188,0,0,0-1.459.688" transform="translate(-192.363 -58.65)" fill="#bbc3d0"/>
    <path id="Path_1543" data-name="Path 1543" d="M309.594,63.271a13.612,13.612,0,0,1-1.374,2.014,4.122,4.122,0,0,1-1.208,1.089,1.928,1.928,0,0,1-1.571.109,2.429,2.429,0,0,1-1.1-.867,1.8,1.8,0,0,1-.151-.243,1.353,1.353,0,0,1-.118-.677,3.762,3.762,0,0,1,.1-.541c.042-.2.089-.393.139-.588.13-.507.282-1.008.448-1.5q.135-.4.284-.805a1.655,1.655,0,0,1,2.132-1.184,10.857,10.857,0,0,1,1.8.947,1.646,1.646,0,0,1,.616,2.251" transform="translate(-206.722 -40.785)" fill="#bbc3d0"/>
    <path id="Path_1544" data-name="Path 1544" d="M324.834,76.8q0,.031-.007.062a1.5,1.5,0,0,1-.172.463c-.168.321-.322.65-.482.976l-.467.957-.539,1.107-.55,1.131q-.25.515-.5,1.03-.194.4-.387.8c-.061.129-.118.26-.183.387a1.552,1.552,0,0,1-.7.747,2.888,2.888,0,0,1-1.114.121c-.837,0-.616-.489-.616-.489l.057-.187.154-.511.229-.757.28-.927.308-1.021.313-1.038.3-.978.254-.842.19-.628a4.152,4.152,0,0,1,.23-.688.935.935,0,0,1,.3-.359.776.776,0,0,1,.39-.108c.15-.012.3-.016.48-.02.325-.006.649.01.974.032a5.662,5.662,0,0,1,.7.085.721.721,0,0,1,.444.241.6.6,0,0,1,.108.409" transform="translate(-216.932 -51.686)" fill="#bbc3d0"/>
    <path id="Path_1545" data-name="Path 1545" d="M341.091,85.137l-.2-.2a.175.175,0,0,0-.209-.032c-3.209,1.745-6.1,3.419-9.091,5.423a.584.584,0,0,1-.839-.2,3.236,3.236,0,0,1-.348-2.582,6.327,6.327,0,0,1,3.369-4.436,6.223,6.223,0,0,1,1.694-.618,1.351,1.351,0,0,0,.573-.2.437.437,0,0,0-.026-.666,5.615,5.615,0,0,0-2.917-1.356,4.837,4.837,0,0,0-3.314.736,6.233,6.233,0,0,0-1.357,1.2l-.006.007a6.935,6.935,0,0,0-1.123,1.688,4.9,4.9,0,0,0-.3,3.394,9.222,9.222,0,0,0,.652,1.738c.212.421.442.83.657,1.25a2.276,2.276,0,0,1,.4,1.718.072.072,0,0,1,0,.011,1.078,1.078,0,0,1-.359.467c-1.131.84-4.483,3.356-5.892,4.644a2.167,2.167,0,0,0-.744.817c0,.015-.011.026-.016.041a1.8,1.8,0,0,0,.39,1.8,3.467,3.467,0,0,0,.5.522s.051.046.15.123a9.71,9.71,0,0,0,6.04,2.2,4.788,4.788,0,0,0,4-2.417,6.5,6.5,0,0,0,.5-5.306,15.051,15.051,0,0,0-1.08-2.419.968.968,0,0,1,.27-1.245c2.7-2.012,5.552-3.977,8.6-5.863a.141.141,0,0,0,.029-.218M329,98.783c-1.491,1.868-4.664,1.1-4.96,1.01s-.572-.181-.647-.506a1.013,1.013,0,0,1,.361-.983L328.877,94a.72.72,0,0,1,.643-.15.842.842,0,0,1,.671.689c.017.084.049.378.062.55a5.318,5.318,0,0,1-1.25,3.7" transform="translate(-218.621 -54.533)" fill="#bbc3d0"/>
    <path id="Path_1546" data-name="Path 1546" d="M60.922,67.459a7.489,7.489,0,0,0-7.3-2.7,23.489,23.489,0,0,0-4.117.9c-.305-.017-1.395-.073-2.192-.073a.78.78,0,0,0-.79.552,1.994,1.994,0,0,1-.908.978c-.506.28-1.071.482-1.594.729q-.843.4-1.674.82-1.662.844-3.274,1.781-1.119.652-2.212,1.346a17,17,0,0,0-2.314,1.7,15.643,15.643,0,0,0-2.412,2.654l0,.007-.009.013a6.96,6.96,0,0,0-1.537,3.538,5.824,5.824,0,0,0,2.364,4.974.706.706,0,0,0,.477.153.546.546,0,0,0,.483-.433.5.5,0,0,0-.035-.378,2.561,2.561,0,0,1-.3-1.748,8.2,8.2,0,0,1,.377-1.173,9.063,9.063,0,0,1,1.079-1.881c.225-.307.464-.6.713-.891a25.215,25.215,0,0,1,5.851-4.407c.451-.276.678-.234.741.043a.664.664,0,0,1-.045.408L36.8,87.124a41.855,41.855,0,0,0-3.136,8.832,5.476,5.476,0,0,0,.164,2.982,3.835,3.835,0,0,0,2.758,2.567,1.569,1.569,0,0,0,1.017-.047.471.471,0,0,0,.242-.463c-.051-.594-.08-1.164-.084-1.711a12.007,12.007,0,0,1,.93-4.7l4.77-11.509a15.566,15.566,0,0,0,2.419-.284,22.724,22.724,0,0,0,4.8-1.492c.643-.28,1.274-.586,1.9-.909a35.127,35.127,0,0,0,3.308-1.947,43.909,43.909,0,0,0,4.1-2.985c1.1-.918,2.239-1.888,2.48-3.376.019-.122.031-.245.038-.37a6.754,6.754,0,0,0-1.587-4.252m-1.161,3.2-.006.009a2.572,2.572,0,0,1-.35.476,13.939,13.939,0,0,1-1.436,1.441l-.016.015c-.075.071-.149.14-.224.209a36.08,36.08,0,0,1-11.9,7.181c-.69.252-1.061.19-.884-.409l4.136-8.308a3.235,3.235,0,0,1,2.465-1.61c1.248-.263,2.468-.49,3.626-.64h0l.025,0,.012,0a17,17,0,0,1,4.021-.116l.027,0a1.428,1.428,0,0,1,.217.052l.007,0a1.075,1.075,0,0,1,.16.066.726.726,0,0,1,.4.774,1.66,1.66,0,0,1-.28.858" transform="translate(-20.783 -43.956)" fill="#bbc3d0"/>
    <path id="Path_1547" data-name="Path 1547" d="M179.015,58.639a.29.29,0,0,0-.423-.038,45.007,45.007,0,0,1-14.025,9.3c-5.112,2.174-9.547-.09-12.383-2.228A37.117,37.117,0,0,1,141.16,49.117c6.6-2.93,9.944-6.763,10.266-11.435a8.516,8.516,0,0,1-3.223,3.284,25.91,25.91,0,0,1-6.727,3.129l4.366-20.59s.16-.762.182-.922a1.308,1.308,0,0,0-.553-1.461,11.014,11.014,0,0,0-1.135-.571c-.195-.085-.392-.164-.591-.24a1.61,1.61,0,0,0-.589-.143,1.182,1.182,0,0,0-.844.356,2.386,2.386,0,0,0-.488,1.1q-.472,1.908-.946,3.816-.461,1.846-.925,3.691-.448,1.781-.9,3.561-.437,1.715-.878,3.427-.425,1.645-.854,3.29-.412,1.573-.83,3.146-.4,1.5-.8,3-.386,1.423-.778,2.846-.372,1.345-.752,2.688-.358,1.264-.724,2.527a13.573,13.573,0,0,1-.6,1.708,6.075,6.075,0,0,1-.879,1.442,7.928,7.928,0,0,1-.661.753c-.172.167-.338.333-.447.442a2.521,2.521,0,0,1-.662.448.617.617,0,0,1-.65-.106.9.9,0,0,1-.19-.754,2.928,2.928,0,0,1,.216-.886l.678-1.807,0-.006,3.1-8.25c.622-1.481.513-2.559-.315-3.4a2.656,2.656,0,0,0-.6-.449,3.013,3.013,0,0,0-1.04-.348,2.071,2.071,0,0,0-.42-.015,1.01,1.01,0,0,0-.385.088,1.53,1.53,0,0,0-.326.219,1.42,1.42,0,0,0-.146.145,4.463,4.463,0,0,0-.57.972,2.828,2.828,0,0,1-.3.469.634.634,0,0,1-.269.225.6.6,0,0,1-.431-.088l0,0c-.283-.141-1.694-1.08-2.15-1.353a7.428,7.428,0,0,0-1.088-.566,4.577,4.577,0,0,0-1.173-.292c-.089-.01-.178-.016-.267-.02a4.57,4.57,0,0,0-2.528.657,5.612,5.612,0,0,0-1.023.78,30.155,30.155,0,0,0-6,8.524,7.487,7.487,0,0,0-.8,2.982,5.173,5.173,0,0,0,.145,1.54,5.61,5.61,0,0,0,.952,2.439,4.487,4.487,0,0,0,2.487,1.828,4.012,4.012,0,0,0,1.3.135,4.083,4.083,0,0,0,2.821-1.428c.812-.933,3.12-4.367,3.306-4.486a.324.324,0,0,1,.484.126,3.11,3.11,0,0,1,.09.775c0,.016,0,.031,0,.048a5.648,5.648,0,0,0,1.882,4.282,4.17,4.17,0,0,0,2.652,1c.079,0,.162,0,.242,0a2.455,2.455,0,0,0,1.57-.616,3.518,3.518,0,0,0,.273-.263,4.824,4.824,0,0,0,.725-1.092,4.3,4.3,0,0,0,3.79,1.862,1.68,1.68,0,0,0,1.39-.8,2.444,2.444,0,0,0,.322-.807l.974-4.453c.109-.312.26-.332.441-.094,4.523,9.767,9.93,15.018,16.11,16.336a12.261,12.261,0,0,0,3.552.212c7.954-.649,13.988-5.917,20.581-11.813a.291.291,0,0,0,.039-.39c-.2-.269-.425-.564-.625-.824M127.325,46.55c-.215.32-1.436,2.029-2.574,3.618-1.084,1.514-2.095,2.921-2.095,2.921L119.42,58a5.4,5.4,0,0,1-.809.972c-.881.825-1.465.768-1.663-.433a5.628,5.628,0,0,1,.115-2.194,11.238,11.238,0,0,1,1.271-3.243l.266-.468a27.183,27.183,0,0,1,3.8-5.173,15.991,15.991,0,0,1,2.361-2.119,3.511,3.511,0,0,1,.954-.535,1.055,1.055,0,0,1,.211-.051,1.369,1.369,0,0,1,.812.133,1.775,1.775,0,0,1,.239.138,1.085,1.085,0,0,1,.344,1.523" transform="translate(-77.164 -13.71)" fill="#bbc3d0"/>
    <path id="Path_1548" data-name="Path 1548" d="M246,47.2a12.517,12.517,0,0,1-.6,2.253c-.006.016-.012.032-.018.048-.017.046-.033.093-.051.14l-.082.224-.109.3-.135.368q-.077.214-.156.428l-.176.481c-.065.174-.128.35-.193.525l-.206.563c-.073.2-.144.394-.217.592l-.225.614-.23.629-.233.635c-.077.211-.154.422-.232.633s-.152.417-.229.625l-1.562,4.341a1.166,1.166,0,0,0-.056.213v.005c0,.018-.006.036-.008.055l-.012.1a.449.449,0,0,0,.684.433l.051-.031.008-.006a1.767,1.767,0,0,0,.353-.295l1.451-1.577.474,2.274c-.47,2.1-2.616,3.889-4.517,3.585a4.2,4.2,0,0,1-3.127-4.911q.344-1.23.726-2.448.37-1.182.78-2.352.4-1.136.835-2.255c.472-1.208.995-2.39,1.534-3.569a6.833,6.833,0,0,0,.368-.886c.055-.185.154-.508-.011-.666-.2-.191-.506.033-.673.162a6.912,6.912,0,0,0-1.21,1.276c-.448.581-.873,1.178-1.285,1.783-.76,1.117-1.472,2.265-2.156,3.43q-.76,1.3-1.475,2.617l0,.007-.512,1.02q-.537,1.069-1.076,2.139c-.357.709-.706,1.421-1.074,2.124a5.707,5.707,0,0,1-.429.708,2.431,2.431,0,0,1-1.779,1.112,3.547,3.547,0,0,1-2.7-1.231,3.786,3.786,0,0,1-1.128-2.669,4.535,4.535,0,0,1,.206-1.378l10.247-33.783a1.571,1.571,0,0,1,.145-.361,1.177,1.177,0,0,1,1.009-.571h0a.9.9,0,0,1,.509.157l.715.487.535.363a2.778,2.778,0,0,1,.49.37,1.527,1.527,0,0,1,.258.375,1.8,1.8,0,0,1,.152.9,3.346,3.346,0,0,1-.127.7s-3.49,12.05-3.869,13.9-4.369,13.718-4.369,13.718a.3.3,0,0,0,.531.26,46.175,46.175,0,0,1,4.1-6.665l.005-.007c.443-.6.924-1.17,1.412-1.732.46-.531.937-1.049,1.433-1.547.432-.434.876-.856,1.343-1.251a8.827,8.827,0,0,1,1.451-1.048,2.612,2.612,0,0,1,.754-.283,4.083,4.083,0,0,1,2.424.323c1.095.595,1.648,1.265,1.27,3.533" transform="translate(-153.217 -16.755)" fill="#bbc3d0"/>
    <path id="Path_1549" data-name="Path 1549" d="M17.942,16.663c-2.461-.037-3.912-1.54-5.324-3.076a30.219,30.219,0,0,1-4.275-6.86C7.633,5.352,7.279,4.479,6.551,3.1,6.178,2.388,5.6,1.414,5.043.531a.345.345,0,0,1,.4-.514c.47.151.951.307,1.36.469A40.218,40.218,0,0,1,17.443,6.738a13.4,13.4,0,0,1,4.16,5.641c.325-.791.581-1.434.854-2.069a12,12,0,0,1,.523-1.093A4.1,4.1,0,0,1,26.236,6.8a5.111,5.111,0,0,1,2.669.64,3.614,3.614,0,0,0,1.437.363c.563,0,1.2-.05,2.15-.041a7.194,7.194,0,0,1,2.66.442,2.113,2.113,0,0,1,.7.408.869.869,0,0,1,.161.2.034.034,0,0,1-.042.045,7.658,7.658,0,0,0-3.424-.6A6.642,6.642,0,0,0,30.9,8.6a6.077,6.077,0,0,0-1.916,1.322,9.77,9.77,0,0,0-2.23,4.451c-.21.833-.428,1.664-.671,2.488A8.345,8.345,0,0,1,21.12,22.43c-1.834.782-3.673,1.562-5.45,2.463a16.8,16.8,0,0,0-5.055,4.487c-.646,1-3.125,4.459-6.467,4.578a8.8,8.8,0,0,1-3.253-.488.113.113,0,0,1,.052-.221,9.926,9.926,0,0,0,3.127.235c1.5-.2,3.088-1.346,4.552-3.648s2-3.615,3.171-5.6c1.16-1.964,2.95-5.479,6.145-7.574" transform="translate(-0.549 0)" fill="#bbc3d0"/>
    <path id="Path_1550" data-name="Path 1550" d="M16,30.857s-.138.2-.149.212a1.578,1.578,0,0,1-.248.271,1.515,1.515,0,0,1-.69.331,2.281,2.281,0,0,1-.869-.034c-.256-.051-.512-.105-.763-.175q-.405-.113-.8-.257a10.417,10.417,0,0,1-1.512-.7,11.461,11.461,0,0,1-1.4-.928c-.153-.117-.3-.239-.45-.363-1.133-.961-2.181-2.024-3.253-3.055-1.819-1.749-3.625-3.512-5.44-5.264-.068-.066-.206-.191-.352-.322a.225.225,0,0,1,.169-.392c.835.069,2.243.192,2.976.294a31.877,31.877,0,0,1,3.2.559,2.435,2.435,0,0,1,1.771,1.331c.67,1.27,1.411,2.507,2.2,3.707A11.228,11.228,0,0,0,16,30.857" transform="translate(0 -13.719)" fill="#bbc3d0"/>
  </g>
</svg>
