<?xml version="1.0" encoding="UTF-8"?>
<svg id="Layer_2" data-name="Layer 2" xmlns="http://www.w3.org/2000/svg" viewBox="0 0 277.53 196.64">
  <defs>
    <style>
      .cls-1 {
        fill: #bbc3d0;
      }
    </style>
  </defs>
  <g id="Layer_2-2" data-name="Layer 2">
    <g>
      <g>
        <path class="cls-1" d="M0,172.06h4.52c.08,1.83.79,3.03,3.4,3.03,2.33,0,2.89-.95,2.89-1.8,0-3.7-10.5-.7-10.5-7.63,0-2.75,1.66-5.44,7.35-5.44s7.27,2.69,7.35,6.34h-4.49c-.09-1.52-.53-2.75-3.06-2.75-2.11,0-2.64.84-2.64,1.6,0,3.28,10.38.53,10.38,7.63,0,2.58-1.38,5.64-7.55,5.64-5.58,0-7.66-2.5-7.66-6.62Z"/>
        <path class="cls-1" d="M22.19,160.47h5.72l6.34,17.96h-4.77l-.98-3.09h-6.9l-.98,3.09h-4.77l6.34-17.96ZM27.53,172.01l-2.5-7.58-2.44,7.58h4.94Z"/>
        <path class="cls-1" d="M35.94,160.47h5.58l6.65,11.45v-11.45h4.58v17.96h-5.36l-6.85-11.39v11.39h-4.6v-17.96Z"/>
        <path class="cls-1" d="M59.48,164.18h-4.52v-3.7h13.53v3.7h-4.52v14.26h-4.49v-14.26Z"/>
        <path class="cls-1" d="M68.82,169.45c0-4.77,1.54-9.23,8.67-9.23s8.73,4.46,8.73,9.26-1.54,9.21-8.73,9.21-8.67-4.46-8.67-9.23ZM77.49,174.95c3.62,0,4.1-2.41,4.1-5.47s-.48-5.58-4.1-5.58-4.07,2.5-4.07,5.56.53,5.5,4.07,5.5Z"/>
        <path class="cls-1" d="M88.66,172.06h4.52c.09,1.83.79,3.03,3.4,3.03,2.33,0,2.89-.95,2.89-1.8,0-3.7-10.5-.7-10.5-7.63,0-2.75,1.66-5.44,7.35-5.44s7.27,2.69,7.35,6.34h-4.49c-.08-1.52-.53-2.75-3.06-2.75-2.1,0-2.64.84-2.64,1.6,0,3.28,10.38.53,10.38,7.63,0,2.58-1.37,5.64-7.55,5.64-5.58,0-7.66-2.5-7.66-6.62Z"/>
        <path class="cls-1" d="M106.89,160.47h4.55v6.99h6.4v-6.99h4.55v17.96h-4.55v-7.32h-6.4v7.32h-4.55v-17.96Z"/>
        <path class="cls-1" d="M132.28,160.47h4.55v7.04l5.19-7.04h6.03l-7.44,8.59,7.83,9.37h-6.01l-5.61-7.69v7.69h-4.55v-17.96Z"/>
        <path class="cls-1" d="M147.43,169.45c0-4.77,1.54-9.23,8.67-9.23s8.73,4.46,8.73,9.26-1.54,9.21-8.73,9.21-8.67-4.46-8.67-9.23ZM156.11,174.95c3.62,0,4.1-2.41,4.1-5.47s-.48-5.58-4.1-5.58-4.07,2.5-4.07,5.56.53,5.5,4.07,5.5Z"/>
        <path class="cls-1" d="M170.08,164.18h-4.52v-3.7h13.53v3.7h-4.52v14.26h-4.49v-14.26Z"/>
        <path class="cls-1" d="M181.3,160.47h4.57l-.06,14.26h5.98v3.7h-10.5v-17.96Z"/>
        <path class="cls-1" d="M194.03,160.47h4.55v17.96h-4.55v-17.96Z"/>
        <path class="cls-1" d="M208.09,172.85c0-2.81,2.33-4.27,4.21-4.83l-3.26-3.23v-4.32h12.41v3.76h-7.49l5.47,6.18c.14-.79.17-2.81.17-3.9h4.32c0,3.09-.67,5.3-1.43,7.02l4.57,4.91h-5.19l-1.63-1.85c-1.35,1.29-3.23,2.11-5.25,2.11-4.94,0-6.9-2.75-6.9-5.84ZM214.91,174.92c.84,0,1.99-.2,2.75-.87l-2.95-3.12c-1.46.22-2.16,1.01-2.16,1.97,0,1.18.67,2.02,2.36,2.02Z"/>
        <path class="cls-1" d="M233.98,169.45c0-4.77,1.49-9.23,8.42-9.23,6.09,0,8.22,3.42,8.22,7.35h-4.6c-.28-2.36-1.15-3.62-3.62-3.62-3.28,0-3.82,2.44-3.82,5.5s.51,5.5,3.82,5.5c2.5,0,3.34-1.21,3.62-3.65h4.63c0,4.15-2.13,7.38-8.25,7.38-6.96,0-8.42-4.46-8.42-9.23Z"/>
        <path class="cls-1" d="M252.61,169.45c0-4.77,1.54-9.23,8.67-9.23s8.73,4.46,8.73,9.26-1.54,9.21-8.73,9.21-8.67-4.46-8.67-9.23ZM261.29,174.95c3.62,0,4.1-2.41,4.1-5.47s-.48-5.58-4.1-5.58-4.07,2.5-4.07,5.56.53,5.5,4.07,5.5Z"/>
        <path class="cls-1" d="M271.8,176.36c0-1.82,1.21-2.27,2.89-2.27s2.83.45,2.83,2.27-1.15,2.33-2.83,2.33-2.89-.53-2.89-2.33Z"/>
        <path class="cls-1" d="M53.58,187.56h3.2c3.38,0,3.73,1.73,3.73,2.88,0,2.22-1.77,2.74-3.49,2.74l3.8,3.37h-2.08l-3.62-3.52v3.52h-1.54v-8.98ZM56.88,192.02c1.82,0,2.08-.87,2.08-1.59s-.27-1.61-2.11-1.61h-1.73v3.2h1.76Z"/>
        <path class="cls-1" d="M64.87,187.56h6.25v1.26h-4.72v2.51h4.28v1.25h-4.28v2.69h4.72v1.26h-6.25v-8.98Z"/>
        <path class="cls-1" d="M75.35,187.56h3.2c3.38,0,3.73,1.73,3.73,2.88,0,2.22-1.77,2.74-3.49,2.74l3.8,3.37h-2.08l-3.62-3.52v3.52h-1.54v-8.98ZM78.65,192.02c1.82,0,2.08-.87,2.08-1.59s-.27-1.61-2.11-1.61h-1.73v3.2h1.76Z"/>
        <path class="cls-1" d="M89.15,187.56h2.09l3.37,8.98h-1.64l-.6-1.75h-4.41l-.65,1.75h-1.61l3.45-8.98ZM91.97,193.66l-1.81-5.11-1.82,5.11h3.63Z"/>
        <path class="cls-1" d="M103.97,192.05c0-2.46.8-4.59,4.14-4.59,2.95,0,4.05,1.66,4.05,3.52h-1.58c-.09-1.26-.73-2.25-2.47-2.25-2.12,0-2.57,1.47-2.57,3.31s.45,3.3,2.57,3.3c1.75,0,2.39-.93,2.47-2.26h1.58c0,1.98-1.09,3.55-4.05,3.55-3.35,0-4.14-2.13-4.14-4.59Z"/>
        <path class="cls-1" d="M115.98,192.04c0-2.46.84-4.58,4.28-4.58s4.28,2.12,4.28,4.6-.81,4.58-4.28,4.58-4.28-2.15-4.28-4.6ZM120.25,195.36c2.26,0,2.72-1.47,2.72-3.3s-.46-3.33-2.72-3.33-2.71,1.46-2.71,3.3.48,3.33,2.71,3.33Z"/>
        <path class="cls-1" d="M128.95,187.56h1.98l4.63,6.96v-6.96h1.54v8.98h-1.91l-4.7-7.02v7.02h-1.54v-8.98Z"/>
        <path class="cls-1" d="M141.49,193.33h1.54c.07,1.33.84,1.98,2.51,1.98,1.37,0,2.1-.42,2.1-1.28,0-.93-.84-1.08-2.4-1.45-2.37-.56-3.49-1.02-3.49-2.61,0-1.7,1.31-2.51,3.52-2.51,2.48,0,3.73,1.05,3.76,3.16h-1.53c-.08-1.32-.74-1.87-2.29-1.87-1.33,0-1.95.38-1.95,1.16,0,.87.77,1.04,2.51,1.46,2.26.55,3.38.97,3.38,2.55,0,1.71-1.3,2.71-3.75,2.71s-3.92-1.08-3.93-3.31Z"/>
        <path class="cls-1" d="M153.42,192.51v-4.95h1.56v4.88c0,1.85.42,2.83,2.26,2.83s2.27-.98,2.27-2.83v-4.88h1.56v4.95c0,2.93-1.09,4.13-3.83,4.13s-3.82-1.19-3.82-4.13Z"/>
        <path class="cls-1" d="M165.59,187.56h1.54v7.72h3.41v1.26h-4.95v-8.98Z"/>
        <path class="cls-1" d="M174.96,188.82h-2.58v-1.26h6.67v1.26h-2.58v7.72h-1.5v-7.72Z"/>
        <path class="cls-1" d="M184.36,187.56h2.09l3.37,8.98h-1.64l-.6-1.75h-4.41l-.65,1.75h-1.61l3.45-8.98ZM187.18,193.66l-1.81-5.11-1.82,5.11h3.63Z"/>
        <path class="cls-1" d="M193.55,187.56h1.98l4.63,6.96v-6.96h1.54v8.98h-1.91l-4.7-7.02v7.02h-1.54v-8.98Z"/>
        <path class="cls-1" d="M208.17,188.82h-2.58v-1.26h6.67v1.26h-2.58v7.72h-1.5v-7.72Z"/>
        <path class="cls-1" d="M215.85,193.33h1.54c.07,1.33.84,1.98,2.51,1.98,1.37,0,2.1-.42,2.1-1.28,0-.93-.84-1.08-2.4-1.45-2.37-.56-3.49-1.02-3.49-2.61,0-1.7,1.31-2.51,3.52-2.51,2.48,0,3.73,1.05,3.76,3.16h-1.53c-.08-1.32-.74-1.87-2.29-1.87-1.33,0-1.95.38-1.95,1.16,0,.87.77,1.04,2.51,1.46,2.26.55,3.38.97,3.38,2.55,0,1.71-1.3,2.71-3.75,2.71s-3.92-1.08-3.93-3.31Z"/>
      </g>
      <g>
        <polygon class="cls-1" points="154.34 23.07 92.71 60.73 92.71 117.99 86.31 117.99 86.31 134.79 109.52 134.79 109.52 70.26 154.62 42.26 154.34 23.07"/>
        <polygon class="cls-1" points="174.96 78.77 153.81 78.77 153.81 51.84 137 62.12 137 135.09 153.81 135.09 153.81 120.1 174.96 120.1 174.96 135.09 191.77 135.09 191.77 103.29 153.81 103.29 153.81 95.57 191.77 95.57 191.77 0 174.96 10.5 174.96 78.77"/>
        <path class="cls-1" d="M201.97,124.69c-2.87,0-5.2,2.33-5.2,5.2s2.33,5.2,5.2,5.2,5.2-2.33,5.2-5.2-2.33-5.2-5.2-5.2Z"/>
      </g>
    </g>
  </g>
</svg>