<?xml version="1.0" encoding="UTF-8"?>
<svg id="Layer_2" data-name="Layer 2" xmlns="http://www.w3.org/2000/svg" viewBox="0 0 260.05 182.13">
  <defs>
    <style>
      .cls-1 {
        fill: #fff;
        isolation: isolate;
      }

      .cls-2 {
        fill: #bbc3d0;
      }
    </style>
  </defs>
  <g id="Layer_2-2" data-name="Layer 2">
    <g>
      <path class="cls-1" d="M204.24,73.79c0-5.61-1.21-11.89-4.19-17.01l.09-.29-.3-.05c-2.32-3.84-5.64-7.01-10.23-8.69-3.18-1.17-6.74-1.47-10.49-1.14l-.1-.08-.14.1c-8.07.76-17.02,4.45-25.09,8.97h-.06s-.03.05-.03.05c-6.63,3.73-12.64,8-17.04,11.66,3.61-4.38,7.79-10.28,11.44-16.78l.04-.03v-.06c4.53-8.06,8.22-17.02,8.98-25.09l.1-.14-.07-.09c.33-3.75.03-7.31-1.14-10.49-1.69-4.59-4.85-7.92-8.69-10.23l-.05-.3-.29.09c-5.12-2.97-11.4-4.19-17.01-4.19s-11.89,1.21-17.01,4.19l-.29-.09-.05.3c-3.84,2.32-7.01,5.64-8.69,10.23-1.17,3.18-1.47,6.74-1.14,10.49l-.08.1.1.14c.76,8.07,4.45,17.02,8.97,25.09v.06s.05.03.05.03c3.57,6.35,7.65,12.14,11.2,16.49-4.37-3.59-10.24-7.74-16.69-11.37l-.03-.04h-.06c-8.06-4.53-17.02-8.22-25.09-8.98l-.14-.1-.09.07c-3.75-.33-7.31-.03-10.49,1.14-4.59,1.69-7.92,4.85-10.23,8.69l-.3.05.09.29c-2.98,5.12-4.19,11.4-4.19,17.01s1.21,11.89,4.19,17.01l-.09.29.3.05c2.32,3.84,5.64,7.01,10.23,8.69,3.18,1.17,6.74,1.47,10.49,1.14l.1.08.14-.1c8.07-.76,17.02-4.45,25.09-8.97h.06s.03-.05.03-.05c11.07-6.23,20.44-13.99,23.45-17.84l.18.14.24-.19c2.97,3.83,12.37,11.64,23.49,17.89l.03.04h.06c8.06,4.53,17.02,8.22,25.09,8.98l.14.1.09-.07c3.75.33,7.31.03,10.49-1.14,4.59-1.69,7.92-4.85,10.23-8.69l.3-.05-.09-.29c2.98-5.12,4.19-11.4,4.19-17.01ZM203.43,72.79l-6.32-6.5,2.62-8.45c2.47,4.56,3.57,9.96,3.7,14.95ZM178.36,87.34l-18.62-3.98-9.16-9.57,9.15-9.57,18.62-3.99,10.99,3.4,2.79,10.16-2.79,10.16-10.99,3.4ZM189.25,84.81l-.35,7.08-9.38-4.07,9.73-3.01ZM177.16,87.9l-8.97,4.3-7.49-7.83,16.45,3.53ZM158.36,83.06l-11.05-2.36,2.84-6.22,8.21,8.58ZM147.32,66.88l11.04-2.37-8.2,8.57-2.84-6.21ZM160.7,63.21l7.49-7.83,8.97,4.3-16.46,3.53ZM179.52,59.76l9.38-4.07.35,7.08-9.73-3.01ZM190.28,64.01l5.82,2.57-3.42,6.17-2.4-8.73ZM192.68,74.83l3.42,6.16-5.82,2.57,2.4-8.73ZM193,73.79l3.74-6.74,6.55,6.74-6.55,6.74-3.74-6.74ZM196.66,66.39h0s0,0,0,0ZM196.41,65.85l-6.35-2.8-.37-7.48,9.43,1.55-2.71,8.73ZM189.33,48.49c4.17,1.53,7.25,4.34,9.46,7.78l-9.36-1.54-9.35-7.36c3.32-.22,6.45.09,9.25,1.12ZM179,47.52l9.5,7.47-10.11,4.39-9.5-4.56,10.12-7.3ZM177.5,47.63l-9.53,6.88-12,.93c7.02-3.77,14.6-6.82,21.53-7.81ZM154.18,56.37l12.93-1-7.78,8.14-11.7,2.51,6.55-9.64ZM152.55,57.35l-5.86,8.63-2.92-3c2.69-1.89,5.66-3.81,8.78-5.62ZM146.07,66.47l-14.08,6.24c2.24-2.39,6.19-5.76,11.12-9.27l2.95,3.03ZM123.29,57.69l6.68-3.05,6.67,3.05-6.67,15.05-6.68-15.05ZM119.39,43.54l-7.83-7.49,4.3-8.97,3.53,16.46ZM111.87,15.35l7.08-.35-3.01,9.73-4.07-9.38ZM116.41,25.88l3.4-10.99,10.16-2.79,10.16,2.79,3.4,10.99-3.98,18.62-9.57,9.16-9.57-9.15-3.99-18.62ZM122.76,8.14l6.17,3.42-8.73,2.4,2.57-5.82ZM122.57,7.58h0s0,0,0,0h0ZM131.01,11.57l6.16-3.42,2.57,5.82-8.73-2.4ZM144,24.72l-3.01-9.73,7.08.35-4.07,9.38ZM144.08,27.08l4.3,8.97-7.83,7.49,3.53-16.45ZM139.25,45.88l-2.36,11.05-6.22-2.84,8.58-8.21ZM129.27,54.09l-6.21,2.84-2.37-11.04,8.57,8.2ZM131.05,72.25l6.23-14.08,3.04,2.96c-3.51,4.93-6.88,8.88-9.27,11.12ZM140.79,60.47l-3-2.92,8.63-5.86c-1.82,3.12-3.73,6.09-5.62,8.78ZM147.38,50.07l-9.63,6.54,2.51-11.7,8.13-7.78-1,12.93ZM148.32,48.28l.93-12,6.88-9.53c-.99,6.94-4.04,14.51-7.81,21.53ZM148.93,35.36l-4.56-9.5,4.39-10.11,7.47,9.5-7.3,10.12ZM155.27,14.91c1.03,2.8,1.34,5.93,1.12,9.26l-7.36-9.35-1.54-9.36c3.43,2.21,6.25,5.29,7.78,9.46ZM148.19,14.56l-7.48-.37-2.8-6.35,8.73-2.71,1.55,9.43ZM145.92,4.52l-8.45,2.62-6.5-6.32c4.98.13,10.39,1.24,14.95,3.7ZM136.7,7.5l-6.73,3.74-6.74-3.74,6.74-6.55,6.73,6.55ZM128.97.82l-6.5,6.32-8.45-2.62c4.56-2.47,9.96-3.57,14.95-3.7ZM113.3,5.13l8.73,2.71-2.8,6.35-7.48.37,1.55-9.43ZM104.67,14.91c1.53-4.17,4.34-7.25,7.78-9.46l-1.54,9.36-7.36,9.35c-.22-3.32.09-6.45,1.12-9.25ZM111.18,15.75l4.39,10.11-4.56,9.5-7.3-10.12,7.47-9.5ZM103.81,26.75l6.88,9.53.93,12c-3.77-7.02-6.82-14.6-7.81-21.53ZM111.55,37.14l8.14,7.78,2.51,11.7-9.64-6.55-1-12.93ZM113.53,51.69l8.63,5.86-3,2.92c-1.89-2.69-3.81-5.66-5.62-8.78ZM122.65,58.17l6.24,14.08c-2.39-2.24-5.76-6.19-9.27-11.12l3.03-2.95ZM128.06,72.71l-14.08-6.23,2.96-3.04c4.93,3.51,8.88,6.88,11.12,9.27ZM116.28,62.97l-2.92,3-5.86-8.63c3.12,1.82,6.09,3.73,8.78,5.62ZM81.69,87.35l-10.99-3.4-2.79-10.16,2.79-10.16,10.99-3.4,18.62,3.98,9.16,9.57-9.15,9.57-18.62,3.99ZM99.34,84.37l-7.49,7.83-8.97-4.3,16.46-3.53ZM80.53,87.82l-9.38,4.07-.35-7.08,9.73,3.01ZM63.3,80.52l-6.55-6.74,6.55-6.73,3.74,6.73-3.74,6.74ZM63.39,81.18h0s0,0,0,0ZM63.95,66.58l5.82-2.57-2.4,8.73-3.42-6.16ZM67.37,74.83l2.4,8.73-5.82-2.57,3.42-6.17ZM70.8,62.77l.35-7.08,9.38,4.07-9.73,3.01ZM82.89,59.68l8.97-4.3,7.49,7.83-16.45-3.53ZM109.89,74.48l2.84,6.21-11.04,2.37,8.2-8.57ZM101.69,64.51l11.05,2.36-2.84,6.22-8.21-8.58ZM112.41,66l-11.7-2.51-7.78-8.13,12.93,1,6.54,9.63ZM104.08,55.44l-12-.93-9.53-6.88c6.94.99,14.51,4.04,21.53,7.81ZM81.05,47.52l10.12,7.3-9.5,4.56-10.11-4.39,9.5-7.47ZM70.71,48.49c2.8-1.03,5.93-1.34,9.26-1.12l-9.35,7.36-9.36,1.54c2.21-3.43,5.29-6.25,9.46-7.78ZM70.36,55.57l-.37,7.48-6.35,2.8-2.71-8.73,9.43-1.55ZM60.32,57.84l2.62,8.45-6.32,6.5c.13-4.98,1.24-10.39,3.7-14.95ZM56.62,74.79l6.32,6.5-2.62,8.45c-2.47-4.56-3.57-9.96-3.7-14.95ZM63.64,81.72l6.35,2.8.37,7.48-9.43-1.55,2.71-8.73ZM70.71,99.09c-4.17-1.53-7.25-4.34-9.46-7.78l9.36,1.54,9.35,7.36c-3.32.22-6.45-.09-9.25-1.12ZM81.05,100.05l-9.5-7.47,10.11-4.39,9.5,4.56-10.12,7.3ZM82.55,99.95l9.53-6.88,12-.93c-7.02,3.77-14.6,6.82-21.53,7.81ZM105.87,91.2l-12.93,1.01,7.78-8.14,11.7-2.51-6.55,9.64ZM107.49,90.23l5.86-8.63,2.92,3c-2.69,1.89-5.66,3.81-8.78,5.62ZM116.93,84.14l-2.95-3.03,14.08-6.24c-2.24,2.39-6.19,5.76-11.12,9.27ZM113.5,80.46l-3.05-6.68,3.05-6.67,15.05,6.67-15.05,6.68ZM146.55,67.11l3.05,6.68-3.05,6.67-15.05-6.67,15.05-6.68ZM131.99,74.87l14.08,6.23-2.96,3.04c-4.93-3.51-8.89-6.88-11.12-9.27ZM143.77,84.6l2.92-3,5.86,8.63c-3.12-1.82-6.09-3.73-8.78-5.62ZM147.63,81.57l11.7,2.51,7.78,8.13-12.93-1.01-6.54-9.63ZM155.97,92.14l12,.93,9.53,6.88c-6.94-.99-14.51-4.04-21.53-7.81ZM179,100.05l-10.12-7.3,9.5-4.56,10.11,4.39-9.5,7.47ZM189.33,99.09c-2.8,1.03-5.93,1.34-9.26,1.12l9.35-7.36,9.36-1.54c-2.21,3.43-5.29,6.25-9.46,7.78ZM189.68,92.01l.37-7.48,6.35-2.8,2.71,8.73-9.43,1.55ZM199.72,89.73l-2.62-8.45,6.32-6.5c-.13,4.98-1.24,10.39-3.7,14.95Z"/>
      <polygon class="cls-2" points="131.01 11.57 139.74 13.96 137.17 8.14 131.01 11.57"/>
      <polygon class="cls-2" points="129.97 11.24 136.7 7.5 129.97 .95 123.23 7.5 129.97 11.24"/>
      <polygon class="cls-2" points="120.19 13.96 128.93 11.57 122.76 8.14 120.19 13.96"/>
      <polygon class="cls-2" points="111.87 15.35 115.94 24.72 118.95 14.99 111.87 15.35"/>
      <polygon class="cls-2" points="140.55 43.53 148.38 36.05 144.08 27.08 140.55 43.53"/>
      <polygon class="cls-2" points="119.39 43.54 115.86 27.08 111.56 36.05 119.39 43.54"/>
      <path class="cls-2" d="M110.9,14.81l1.54-9.36c-3.43,2.21-6.25,5.29-7.78,9.46-1.03,2.8-1.34,5.93-1.12,9.25l7.36-9.35Z"/>
      <polygon class="cls-2" points="144 24.72 148.07 15.35 140.99 14.99 144 24.72"/>
      <path class="cls-2" d="M156.39,24.17c.22-3.32-.09-6.46-1.12-9.26-1.53-4.17-4.34-7.25-7.78-9.46l1.54,9.36,7.36,9.35Z"/>
      <polygon class="cls-2" points="129.27 54.09 120.7 45.89 123.06 56.93 129.27 54.09"/>
      <polygon class="cls-2" points="139.54 44.5 143.53 25.88 140.13 14.89 129.97 12.1 119.81 14.89 116.41 25.88 120.4 44.51 129.97 53.66 139.54 44.5"/>
      <path class="cls-2" d="M113.53,51.69c1.82,3.12,3.73,6.09,5.62,8.78l3-2.92-8.63-5.86Z"/>
      <path class="cls-2" d="M156.13,26.74l-6.88,9.53-.93,12c3.77-7.02,6.82-14.6,7.81-21.53Z"/>
      <path class="cls-2" d="M110.69,36.28l-6.88-9.53c.99,6.94,4.05,14.51,7.82,21.53l-.94-12Z"/>
      <path class="cls-2" d="M128.97.82c-4.98.13-10.39,1.24-14.95,3.7l8.45,2.62,6.5-6.32Z"/>
      <path class="cls-2" d="M145.92,4.52c-4.56-2.47-9.96-3.57-14.95-3.7l6.5,6.32,8.45-2.62Z"/>
      <path class="cls-2" d="M119.62,61.13c3.51,4.93,6.88,8.88,9.27,11.12l-6.24-14.08-3.03,2.95Z"/>
      <path class="cls-2" d="M140.32,61.13l-3.04-2.96-6.23,14.08c2.39-2.24,5.76-6.19,9.27-11.12Z"/>
      <path class="cls-2" d="M146.41,51.69l-8.63,5.86,3,2.92c1.89-2.69,3.81-5.66,5.62-8.78Z"/>
      <polygon class="cls-2" points="119.23 14.18 122.03 7.83 113.3 5.13 111.75 14.56 119.23 14.18"/>
      <polygon class="cls-2" points="103.71 25.24 111 35.36 115.57 25.85 111.18 15.75 103.71 25.24"/>
      <polygon class="cls-2" points="119.69 44.92 111.55 37.14 112.55 50.07 122.2 56.62 119.69 44.92"/>
      <polygon class="cls-2" points="140.71 14.18 148.19 14.56 146.63 5.13 137.9 7.83 140.71 14.18"/>
      <polygon class="cls-2" points="148.76 15.75 144.37 25.85 148.93 35.36 156.23 25.24 148.76 15.75"/>
      <polygon class="cls-2" points="148.39 37.14 140.26 44.91 137.75 56.61 147.38 50.07 148.39 37.14"/>
      <polygon class="cls-2" points="129.97 54.64 123.29 57.69 129.97 72.74 136.64 57.69 129.97 54.64"/>
      <polygon class="cls-2" points="139.25 45.88 130.67 54.09 136.88 56.93 139.25 45.88"/>
      <polygon class="cls-2" points="192.68 74.83 190.28 83.56 196.1 80.99 192.68 74.83"/>
      <polygon class="cls-2" points="193 73.79 196.75 80.52 203.29 73.79 196.75 67.05 193 73.79"/>
      <polygon class="cls-2" points="190.28 64.01 192.68 72.75 196.1 66.58 190.28 64.01"/>
      <polygon class="cls-2" points="188.9 55.69 179.52 59.76 189.25 62.77 188.9 55.69"/>
      <polygon class="cls-2" points="160.71 84.37 168.2 92.2 177.16 87.9 160.71 84.37"/>
      <polygon class="cls-2" points="160.7 63.21 177.16 59.68 168.2 55.37 160.7 63.21"/>
      <path class="cls-2" d="M189.43,54.72l9.36,1.54c-2.21-3.43-5.29-6.25-9.46-7.78-2.8-1.03-5.93-1.34-9.25-1.12l9.35,7.36Z"/>
      <polygon class="cls-2" points="179.52 87.82 188.9 91.89 189.25 84.81 179.52 87.82"/>
      <path class="cls-2" d="M180.08,100.21c3.32.22,6.46-.09,9.26-1.12,4.17-1.53,7.25-4.34,9.46-7.78l-9.36,1.54-9.35,7.36Z"/>
      <polygon class="cls-2" points="150.15 73.09 158.36 64.52 147.32 66.88 150.15 73.09"/>
      <polygon class="cls-2" points="159.74 83.36 178.36 87.34 189.35 83.95 192.14 73.79 189.35 63.63 178.36 60.23 159.74 64.22 150.59 73.79 159.74 83.36"/>
      <path class="cls-2" d="M152.55,57.35c-3.12,1.82-6.09,3.73-8.78,5.62l2.92,3,5.86-8.63Z"/>
      <path class="cls-2" d="M177.5,99.95l-9.53-6.88-12-.93c7.02,3.77,14.6,6.82,21.53,7.81Z"/>
      <path class="cls-2" d="M167.97,54.51l9.53-6.88c-6.94.99-14.51,4.05-21.53,7.82l12-.94Z"/>
      <path class="cls-2" d="M203.43,72.79c-.13-4.98-1.24-10.39-3.7-14.95l-2.62,8.45,6.32,6.5Z"/>
      <path class="cls-2" d="M199.72,89.73c2.47-4.56,3.57-9.96,3.7-14.95l-6.32,6.5,2.62,8.45Z"/>
      <path class="cls-2" d="M143.12,63.44c-4.93,3.51-8.88,6.88-11.12,9.27l14.08-6.24-2.95-3.03Z"/>
      <path class="cls-2" d="M143.12,84.14l2.96-3.04-14.08-6.23c2.24,2.39,6.19,5.76,11.12,9.27Z"/>
      <path class="cls-2" d="M152.55,90.23l-5.86-8.63-2.92,3c2.69,1.89,5.66,3.81,8.78,5.62Z"/>
      <polygon class="cls-2" points="190.06 63.05 196.41 65.85 199.12 57.12 189.68 55.57 190.06 63.05"/>
      <polygon class="cls-2" points="179 47.52 168.88 54.82 178.39 59.38 188.5 55 179 47.52"/>
      <polygon class="cls-2" points="159.32 63.5 167.11 55.37 154.18 56.37 147.63 66.01 159.32 63.5"/>
      <polygon class="cls-2" points="190.06 84.53 189.68 92.01 199.12 90.45 196.41 81.72 190.06 84.53"/>
      <polygon class="cls-2" points="188.5 92.58 178.39 88.19 168.88 92.75 179 100.05 188.5 92.58"/>
      <polygon class="cls-2" points="167.11 92.21 159.33 84.08 147.63 81.57 154.18 91.2 167.11 92.21"/>
      <polygon class="cls-2" points="149.6 73.79 146.55 67.11 131.5 73.79 146.55 80.46 149.6 73.79"/>
      <polygon class="cls-2" points="158.36 83.06 150.15 74.48 147.31 80.7 158.36 83.06"/>
      <polygon class="cls-2" points="67.37 72.75 69.77 64.01 63.95 66.58 67.37 72.75"/>
      <polygon class="cls-2" points="67.04 73.79 63.3 67.05 56.75 73.79 63.3 80.52 67.04 73.79"/>
      <polygon class="cls-2" points="69.77 83.56 67.37 74.83 63.95 80.99 69.77 83.56"/>
      <polygon class="cls-2" points="71.15 91.89 80.53 87.82 70.8 84.81 71.15 91.89"/>
      <polygon class="cls-2" points="99.34 63.2 91.85 55.37 82.89 59.68 99.34 63.2"/>
      <polygon class="cls-2" points="99.34 84.37 82.89 87.9 91.85 92.2 99.34 84.37"/>
      <path class="cls-2" d="M70.62,92.85l-9.36-1.54c2.21,3.43,5.29,6.25,9.46,7.78,2.8,1.03,5.93,1.34,9.25,1.12l-9.35-7.36Z"/>
      <polygon class="cls-2" points="80.53 59.76 71.15 55.69 70.8 62.77 80.53 59.76"/>
      <path class="cls-2" d="M79.97,47.37c-3.32-.22-6.46.09-9.26,1.12-4.17,1.53-7.25,4.34-9.46,7.78l9.36-1.54,9.35-7.36Z"/>
      <polygon class="cls-2" points="109.89 74.48 101.69 83.06 112.73 80.69 109.89 74.48"/>
      <polygon class="cls-2" points="100.31 64.22 81.69 60.23 70.7 63.63 67.91 73.79 70.7 83.95 81.69 87.35 100.31 83.35 109.46 73.79 100.31 64.22"/>
      <path class="cls-2" d="M107.49,90.23c3.12-1.82,6.09-3.73,8.78-5.62l-2.92-3-5.86,8.63Z"/>
      <path class="cls-2" d="M82.55,47.63l9.53,6.88,12,.93c-7.02-3.77-14.6-6.82-21.53-7.81Z"/>
      <path class="cls-2" d="M92.08,93.07l-9.53,6.88c6.94-.99,14.51-4.05,21.53-7.82l-12,.94Z"/>
      <path class="cls-2" d="M56.62,74.79c.13,4.98,1.24,10.39,3.7,14.95l2.62-8.45-6.32-6.5Z"/>
      <path class="cls-2" d="M60.32,57.84c-2.47,4.56-3.57,9.96-3.7,14.95l6.32-6.5-2.62-8.45Z"/>
      <path class="cls-2" d="M116.93,84.14c4.93-3.51,8.88-6.88,11.12-9.27l-14.08,6.24,2.95,3.03Z"/>
      <path class="cls-2" d="M116.93,63.44l-2.96,3.04,14.08,6.23c-2.24-2.39-6.19-5.76-11.12-9.27Z"/>
      <path class="cls-2" d="M107.49,57.35l5.86,8.63,2.92-3c-2.69-1.89-5.66-3.81-8.78-5.62Z"/>
      <polygon class="cls-2" points="69.99 84.53 63.64 81.72 60.93 90.45 70.36 92.01 69.99 84.53"/>
      <polygon class="cls-2" points="81.05 100.05 91.16 92.75 81.66 88.19 71.55 92.58 81.05 100.05"/>
      <polygon class="cls-2" points="100.72 84.07 92.94 92.21 105.87 91.2 112.42 81.56 100.72 84.07"/>
      <polygon class="cls-2" points="69.99 63.05 70.36 55.57 60.93 57.12 63.64 65.85 69.99 63.05"/>
      <polygon class="cls-2" points="71.55 55 81.66 59.39 91.16 54.82 81.05 47.52 71.55 55"/>
      <polygon class="cls-2" points="92.94 55.37 100.72 63.5 112.41 66 105.87 56.37 92.94 55.37"/>
      <polygon class="cls-2" points="110.45 73.79 113.5 80.46 128.54 73.79 113.49 67.12 110.45 73.79"/>
      <polygon class="cls-2" points="101.69 64.51 109.89 73.09 112.74 66.88 101.69 64.51"/>
      <g>
        <g>
          <path class="cls-2" d="M.71,159.6c-.67-.33-.71-.52-.71-1.81,0-2.38.19-4.28.24-5.04.05-.52.14-.76.38-.76.29,0,.33.14.33.52,0,.43,0,1.09.14,1.76.71,3.52,3.85,4.85,7.04,4.85,4.57,0,6.8-3.28,6.8-6.33,0-3.28-1.38-5.19-5.47-8.57l-2.14-1.76c-5.04-4.14-6.19-7.09-6.19-10.33,0-5.09,3.81-8.57,9.85-8.57,1.86,0,3.24.19,4.43.48.9.19,1.28.24,1.66.24s.48.09.48.33-.19,1.81-.19,5.04c0,.76-.1,1.09-.33,1.09-.29,0-.33-.24-.38-.62-.05-.57-.33-1.86-.62-2.38-.28-.52-1.57-2.52-5.95-2.52-3.28,0-5.85,2.05-5.85,5.52,0,2.71,1.24,4.43,5.81,7.99l1.33,1.05c5.62,4.43,6.95,7.38,6.95,11.18,0,1.95-.76,5.57-4.04,7.9-2.05,1.43-4.62,2-7.19,2-2.24,0-4.42-.33-6.38-1.29Z"/>
          <path class="cls-2" d="M25.46,142.18c0-7.71,5.62-18.61,18.75-18.61,10.71,0,18.7,6.76,18.7,17.84s-7.52,19.46-18.99,19.46c-13.04,0-18.46-10.14-18.46-18.7ZM58.34,142.75c0-11.42-6.95-17.56-14.47-17.56-7.95,0-13.89,5.23-13.89,15.66,0,11.09,6.66,18.22,15.23,18.22,4.28,0,13.13-2.47,13.13-16.32Z"/>
          <path class="cls-2" d="M77.7,146.51c0,7,.19,10.04,1.05,10.9.76.76,2,1.09,5.71,1.09,2.52,0,4.62-.05,5.76-1.43.62-.76,1.09-1.95,1.24-2.86.05-.38.14-.62.43-.62.24,0,.29.19.29.71s-.33,3.38-.71,4.76c-.33,1.09-.48,1.29-3,1.29-4.09,0-8.14-.29-12.75-.29-1.48,0-2.9.14-4.66.14-.52,0-.76-.1-.76-.38,0-.14.09-.29.38-.29.43,0,1-.1,1.43-.19.95-.19,1.19-1.24,1.38-2.62.24-2,.24-5.76.24-10.33v-8.37c0-7.42,0-8.76-.1-10.28-.09-1.62-.48-2.38-2.05-2.71-.38-.1-1.19-.14-1.62-.14-.19,0-.38-.1-.38-.29,0-.29.24-.38.76-.38,2.14,0,5.14.14,5.38.14s3.71-.14,5.14-.14c.52,0,.76.1.76.38,0,.19-.19.29-.38.29-.33,0-1,.05-1.57.14-1.38.24-1.76,1.05-1.86,2.71-.1,1.52-.1,2.86-.1,10.28v8.47Z"/>
          <path class="cls-2" d="M101.31,138.04c0-7.42,0-8.76-.1-10.28-.09-1.62-.57-2.43-1.62-2.67-.52-.14-1.14-.19-1.47-.19-.19,0-.38-.1-.38-.29,0-.29.24-.38.76-.38,1.57,0,4.57.14,4.81.14s3.23-.14,4.66-.14c.52,0,.76.1.76.38,0,.19-.19.29-.38.29-.33,0-.62.05-1.19.14-1.29.24-1.67,1.05-1.76,2.71-.1,1.52-.1,2.86-.1,10.28v8.37c0,4.57,0,8.33.24,10.33.14,1.38.43,2.43,1.86,2.62.67.1,1.66.19,1.95.19.43,0,.57.14.57.29,0,.24-.19.38-.71.38-2.62,0-5.66-.14-5.9-.14s-3.24.14-4.66.14c-.52,0-.76-.1-.76-.38,0-.14.09-.29.52-.29.29,0,.81-.05,1.24-.14.95-.19,1.24-1.28,1.43-2.66.24-2,.24-5.76.24-10.33v-8.37Z"/>
          <path class="cls-2" d="M132.38,146.42c0,4.57,0,8.33.24,10.33.14,1.38.43,2.43,1.86,2.62.67.1,1.71.19,2.14.19.29,0,.38.14.38.29,0,.24-.24.38-.76.38-2.62,0-5.62-.14-5.85-.14s-3.24.14-4.66.14c-.52,0-.76-.1-.76-.38,0-.14.09-.29.38-.29.43,0,1-.1,1.43-.19.95-.19,1.19-1.24,1.38-2.62.24-2,.24-5.76.24-10.33v-20.13c-2.33.05-4.71.05-7.04.1-2.95.05-4.09.38-4.85,1.52-.52.81-.67,1.14-.81,1.48-.14.38-.28.48-.48.48-.14,0-.24-.14-.24-.43,0-.48.95-4.57,1.05-4.95.09-.29.29-.9.48-.9.33,0,.81.48,2.09.57,1.38.14,3.19.24,3.76.24h17.85c1.52,0,2.62-.09,3.38-.24.71-.1,1.14-.24,1.33-.24.24,0,.24.29.24.57,0,1.43-.14,4.71-.14,5.23,0,.43-.14.62-.33.62-.24,0-.33-.14-.38-.81,0-.19-.05-.33-.05-.52-.14-1.43-1.29-2.52-5.85-2.62-2-.05-4-.05-6-.1v20.13Z"/>
          <path class="cls-2" d="M155.17,146.18c-.24,0-.38.14-.48.38l-2.86,8.42c-.43,1.19-.67,2.33-.67,3.19,0,.95.9,1.38,1.71,1.38h.43c.48,0,.62.1.62.29,0,.29-.43.38-.86.38-1.14,0-3.05-.14-3.57-.14s-3.14.14-5.38.14c-.62,0-.9-.1-.9-.38,0-.19.24-.29.67-.29.33,0,.76-.05,1.14-.1,2.19-.29,3.14-2.09,4-4.47l10.8-29.55c.57-1.57.76-1.86,1.05-1.86s.48.24,1.05,1.71c.71,1.81,8.18,21.46,11.09,28.69,1.71,4.24,3.09,5,4.09,5.28.71.24,1.48.29,1.86.29.29,0,.52.05.52.29,0,.29-.43.38-.95.38-.71,0-4.19,0-7.47-.1-.9-.05-1.43-.05-1.43-.33,0-.19.14-.29.33-.33.28-.1.57-.52.28-1.29l-4.42-11.71c-.09-.19-.19-.29-.43-.29h-10.23ZM164.78,144.46c.24,0,.24-.14.19-.33l-4.52-12.85c-.24-.71-.48-.71-.71,0l-4.19,12.85c-.09.24,0,.33.14.33h9.09Z"/>
          <path class="cls-2" d="M186.29,138.04c0-7.42,0-8.76-.1-10.28-.09-1.62-.57-2.43-1.62-2.67-.52-.14-1.14-.19-1.47-.19-.19,0-.38-.1-.38-.29,0-.29.24-.38.76-.38,1.57,0,4.57.14,4.81.14s3.24-.14,4.66-.14c.52,0,.76.1.76.38,0,.19-.19.29-.38.29-.33,0-.62.05-1.19.14-1.29.24-1.67,1.05-1.76,2.71-.1,1.52-.1,2.86-.1,10.28v8.37c0,4.57,0,8.33.24,10.33.14,1.38.43,2.43,1.86,2.62.67.1,1.66.19,1.95.19.43,0,.57.14.57.29,0,.24-.19.38-.71.38-2.62,0-5.66-.14-5.9-.14s-3.24.14-4.66.14c-.52,0-.76-.1-.76-.38,0-.14.09-.29.52-.29.28,0,.81-.05,1.24-.14.95-.19,1.24-1.28,1.43-2.66.24-2,.24-5.76.24-10.33v-8.37Z"/>
          <path class="cls-2" d="M207.23,138.04c0-7.42,0-8.76-.1-10.28-.09-1.62-.48-2.38-2.05-2.71-.38-.1-1.19-.14-1.62-.14-.19,0-.38-.1-.38-.29,0-.29.24-.38.76-.38,2.14,0,5.14.14,5.38.14.52,0,4.14-.14,5.61-.14,3,0,6.19.29,8.71,2.09,1.19.86,3.28,3.19,3.28,6.47,0,3.52-1.47,7.04-5.76,10.99,3.9,5,7.14,9.23,9.9,12.18,2.57,2.71,4.62,3.24,5.81,3.43.9.14,1.57.14,1.85.14.24,0,.43.14.43.29,0,.29-.29.38-1.14.38h-3.38c-2.66,0-3.85-.24-5.09-.9-2.05-1.09-3.71-3.43-6.42-6.99-2-2.62-4.24-5.81-5.19-7.04-.19-.19-.33-.29-.62-.29l-5.85-.1c-.24,0-.33.14-.33.38v1.14c0,4.57,0,8.33.24,10.33.14,1.38.43,2.43,1.86,2.62.67.1,1.71.19,2.14.19.28,0,.38.14.38.29,0,.24-.24.38-.76.38-2.62,0-5.62-.14-5.85-.14-.05,0-3.05.14-4.47.14-.52,0-.76-.1-.76-.38,0-.14.09-.29.38-.29.43,0,1-.1,1.43-.19.95-.19,1.19-1.24,1.38-2.62.24-2,.24-5.76.24-10.33v-8.37ZM211.03,142.18c0,.24.1.43.33.57.71.43,2.9.76,5,.76,1.14,0,2.47-.14,3.57-.9,1.66-1.14,2.9-3.71,2.9-7.33,0-5.95-3.14-9.52-8.23-9.52-1.43,0-2.71.14-3.19.29-.24.1-.38.29-.38.57v15.56Z"/>
          <path class="cls-2" d="M243.11,138.04c0-7.42,0-8.76-.1-10.28-.09-1.62-.48-2.38-2.05-2.71-.33-.1-.95-.1-1.38-.14-.33-.05-.62-.1-.62-.29,0-.29.24-.38.76-.38,1.09,0,2.38,0,5.38.14.33,0,9.8,0,10.9-.05,1.05-.05,1.9-.14,2.19-.29.28-.14.38-.19.52-.19s.19.19.19.43c0,.33-.29.9-.38,2.24-.05.71-.1,1.62-.19,2.86-.05.48-.19.81-.38.81-.29,0-.38-.24-.38-.62,0-.62-.1-1.19-.24-1.57-.33-1.09-1.33-1.57-3.43-1.76-.81-.1-5.99-.14-6.52-.14-.19,0-.29.14-.29.48v13.13c0,.33.05.48.29.48.62,0,6.47,0,7.57-.1,1.28-.1,1.9-.24,2.38-.81.24-.29.38-.48.57-.48.14,0,.24.1.24.38s-.24,1.09-.38,2.66c-.14,1.48-.14,2.57-.19,3.24-.05.48-.14.71-.33.71-.29,0-.33-.38-.33-.76,0-.43-.05-.9-.19-1.33-.19-.71-.76-1.38-2.47-1.57-1.29-.14-6-.24-6.8-.24-.24,0-.33.14-.33.33v4.19c0,1.62-.05,7.14,0,8.14.1,1.95.38,3,1.57,3.47.81.33,2.09.43,3.95.43,1.43,0,3-.05,4.28-.43,1.52-.48,2.05-1.48,2.43-3.52.1-.52.19-.71.43-.71.28,0,.28.38.28.71,0,.38-.38,3.62-.62,4.62-.33,1.24-.71,1.24-2.57,1.24-3.52,0-5.09-.1-6.95-.14-1.9-.05-4.09-.14-5.95-.14-1.14,0-2.28.19-3.52.14-.52,0-.76-.1-.76-.38,0-.14.24-.24.52-.29.48-.05.76-.05,1.09-.14,1-.24,1.62-.9,1.71-4.47.05-1.86.1-4.28.1-8.52v-8.37Z"/>
        </g>
        <g>
          <path class="cls-2" d="M57.94,176.39h-4.69v3.61h5.58v1.94h-8.11v-12.64h8.09v1.95h-5.56v3.18h4.69v1.95Z"/>
          <path class="cls-2" d="M84.12,178.51l.16.69h.05l.15-.67,2.75-9.24h2.68l-4.3,12.64h-2.61l-4.29-12.64h2.67l2.74,9.21Z"/>
          <path class="cls-2" d="M117.56,176.39h-4.69v3.61h5.58v1.94h-8.11v-12.64h8.09v1.95h-5.56v3.18h4.69v1.95Z"/>
          <path class="cls-2" d="M149.65,181.94h-2.53l-5.1-8.53h-.05v8.53h-2.54v-12.64h2.54l5.1,8.52h.05v-8.52h2.53v12.64Z"/>
          <path class="cls-2" d="M179.75,171.25h-3.61v10.69h-2.53v-10.69h-3.56v-1.95h9.71v1.95Z"/>
          <path class="cls-2" d="M206.8,178.64c0-.49-.17-.88-.51-1.17-.34-.3-.93-.57-1.79-.83-1.46-.44-2.57-.96-3.32-1.55-.76-.6-1.13-1.41-1.13-2.44s.42-1.88,1.28-2.54c.85-.66,1.94-.98,3.26-.98,1.4,0,2.53.35,3.38,1.06.85.71,1.27,1.63,1.24,2.78l-.02.05h-2.46c0-.63-.19-1.12-.57-1.46-.38-.34-.92-.51-1.61-.51-.63,0-1.11.15-1.45.45-.34.3-.51.69-.51,1.16,0,.43.19.78.56,1.05.37.28,1.01.57,1.92.87,1.39.39,2.45.91,3.18,1.54.73.63,1.09,1.47,1.09,2.51s-.42,1.94-1.27,2.56c-.85.63-1.96.94-3.35.94s-2.53-.34-3.51-1.02c-.98-.68-1.45-1.69-1.42-3.03l.02-.05h2.46c0,.75.22,1.3.66,1.65s1.04.53,1.79.53c.68,0,1.19-.14,1.55-.42.36-.29.53-.66.53-1.14Z"/>
        </g>
      </g>
    </g>
  </g>
</svg>