<?xml version="1.0" encoding="UTF-8"?>
<svg id="Layer_2" data-name="Layer 2" xmlns="http://www.w3.org/2000/svg" viewBox="0 0 592.95 101.59">
  <defs>
    <style>
      .cls-1 {
        fill: #bbc3d0;
      }
    </style>
  </defs>
  <g id="Layer_2-2" data-name="Layer 2">
    <g>
      <g>
        <g>
          <path class="cls-1" d="M72.16,44.78h-25.34v7.03h25.16c3.27,0,4.91,1.1,4.91,3.3v.12c0,2.17-1.64,3.26-4.91,3.26h-25.16v17.28h10.58v-10.33h14.76c10.5,0,15.75-3.39,15.75-10.17v-.42c0-6.72-5.25-10.07-15.75-10.07Z"/>
          <path class="cls-1" d="M116.95,45.06h-15.72l-16.47,30.64h10.39l2.89-5.6h22.08l2.9,5.6h10.38l-16.47-30.64ZM101.61,63.18l5.83-11.26h3.3l5.83,11.26h-14.97Z"/>
          <path class="cls-1" d="M168.3,63.19s-.01.08-.04.13c-1.25,3.59-5.34,5.4-12.29,5.38-3.74-.01-7.62-.59-10.02-2.9-1.65-1.59-2.48-3.43-2.54-5.61-.11-3.96,2.19-6.82,6.25-7.87,3.06-.79,8.38-.89,11.61-.22,1.56.33,2.73.71,3.55,1.07,1.26.55,2.47,1.65,3.09,2.74.15.26.25.56.35.89h11.25v-.46c0-.86-.15-1.76-.43-2.7-.82-2.41-3.2-4.88-5.74-6.3-1.56-.91-3.77-1.67-6.63-2.3-2.85-.63-6.15-.94-9.88-.94-6.45-.14-13.75.58-18.52,3.75-3.95,2.63-5.94,7.07-6.01,11.61-.06,4.75,1.5,9.41,5.5,12.38,5.25,3.9,12.33,4.46,19.03,4.4,3.68,0,6.93-.31,9.77-.96,5.8-1.23,10.41-3.76,12.48-8.81.31-.97.47-1.92.47-2.84v-.46h-11.25Z"/>
          <path class="cls-1" d="M194,68.5v-5.09h24.63v-7.11h-24.63v-4.59h25.22v-7.05h-35.69v31.07h36.14v-7.22h-25.67Z"/>
        </g>
        <g>
          <path class="cls-1" d="M360.38,44.8v7.02h-24.33v4.57h23.74v7.07h-23.74v12.26h-10.51v-30.92h34.84Z"/>
          <path class="cls-1" d="M374.89,75.72h-10.56v-30.92h10.56v30.92Z"/>
          <path class="cls-1" d="M392.51,52.1h-14.53v-7.33h39.78v7.33h-14.58v23.66h-10.67v-23.66Z"/>
          <path class="cls-1" d="M432.7,44.77l21.57,19.5v-19.5h10.44v30.99h-10.44l-22.93-20.54v20.54h-10.45v-30.99h11.81Z"/>
          <path class="cls-1" d="M505.74,44.66v7.06h-25.22v4.59h24.63v7.1h-24.63v5.09h25.67v7.22h-36.14v-31.07h35.69Z"/>
          <path class="cls-1" d="M592.95,64.7v.59c0,1.15-.14,2.18-.41,3.09-.28.91-.84,1.84-1.7,2.79-.86.95-2,1.75-3.43,2.39-1.42.64-3.37,1.17-5.84,1.58-2.47.41-5.36.61-8.67.61h-43.16c-3.4,0-6.38-.27-8.92-.8-2.55-.53-4.51-1.18-5.89-1.93-1.38-.76-2.48-1.67-3.29-2.75-.81-1.08-1.33-2.05-1.56-2.92-.23-.87-.34-1.79-.34-2.77v-.46h11.18c.25,3.3,2.66,4.96,9.19,4.96h42.48c5.65,0,9.16-.32,9.16-3.23s-4.38-3.23-9.16-3.23c-10.84,0-43.17-.07-43.17-.07l-2.51-.05c-11.13-.28-16.69-3.33-16.69-9.16v-.38c0-1.01.14-1.94.41-2.79.28-.85.83-1.71,1.66-2.56.83-.85,1.91-1.58,3.24-2.16,1.33-.59,3.13-1.07,5.4-1.45,2.27-.38,4.91-.57,7.91-.57h43.16c3.13,0,5.89.2,8.28.59s4.3.9,5.73,1.51,2.59,1.37,3.5,2.27c.9.9,1.52,1.79,1.86,2.67.34.88.51,1.83.51,2.84v.42h-11.13c-.06-.34-.14-.63-.25-.86-.44-.91-1.35-1.57-2.32-1.91-1.89-.66-4.34-.97-6.81-.97h-40.97c-2.73,0-9.14-.3-9.14,2.69s6.77,2.69,9.14,2.69c10.54,0,41.28.04,41.28.04l3.23.05c6.38.11,10.98.9,13.82,2.37,2.84,1.47,4.25,3.77,4.25,6.91Z"/>
        </g>
        <path class="cls-1" d="M317.44,0v23.25s-44.73,26.45-44.73,26.45h0c-8.88-5.29-8.85-18.17.06-23.41L317.44,0Z"/>
        <path class="cls-1" d="M270.55,51.12l-19.98,11.63-2.59-1.5c-12.45-7.24-20.1-20.55-20.1-34.94l42.67,24.82Z"/>
        <path class="cls-1" d="M317.35,101.59l-42.67-24.82,19.99-11.63,2.59,1.51c6.22,3.62,11.24,8.75,14.7,14.79,3.47,6.03,5.39,12.95,5.39,20.15Z"/>
        <path class="cls-1" d="M315.19,30.05v18.26l-85.15,49.53v-18.25l85.15-49.54h0ZM317.35,26.3l-89.46,52.05v23.24l89.46-52.04v-23.25h0Z"/>
        <circle class="cls-1" cx="255.03" cy="16.71" r="12.11"/>
      </g>
      <path class="cls-1" d="M42.69,65.36c.15,3.93-1.73,7.17-5.48,8.79-4.81,2.07-11.62,2.23-17.46,2.17-3.36,0-6.3-.26-8.81-.79-2.51-.53-4.45-1.18-5.81-1.92-1.36-.75-2.45-1.66-3.25-2.73-.81-1.07-1.32-2.04-1.54-2.9-.23-.85-.34-1.77-.34-2.75v-.45h11.04c.24,3.28,2.62,4.92,9.07,4.92h2.46c4.34,0,8.96-.41,8.96-3.36,0-2.56-4.27-2.87-8.6-3.02-2.18-.07-4-.13-5.99-.17-2.06-.05-3.93-.2-5.61-.45-7.25-1.06-10.74-3.93-10.88-8.63-.18-5.96,5.05-8.48,10.59-9.27,5.45-.82,13.68-.8,19.12.02,4.8.8,9.03,2.2,10.94,6.39.33.88.5,1.81.5,2.81v.42h-10.99c-.54-2.47-2.85-3.01-5.38-3.42-1.76-.35-4.45-.37-6.49-.35-3.85.05-7.45.53-7.45,2.67,0,2.89,4.32,2.75,8.29,2.75.81,0,4.73.03,5.25.04,6.3.12,10.85.89,13.64,2.36,2.8,1.46,4.09,3.74,4.21,6.85Z"/>
    </g>
  </g>
</svg>