<?xml version="1.0" encoding="UTF-8"?>
<svg id="Layer_2" data-name="Layer 2" xmlns="http://www.w3.org/2000/svg" viewBox="0 0 265.44 69.09">
  <defs>
    <style>
      .cls-1 {
        fill: #bbc3d0;
      }
    </style>
  </defs>
  <g id="Layer_2-2" data-name="Layer 2">
    <g>
      <g>
        <g>
          <path class="cls-1" d="M84.62,19.11V7.3c0-3.2,2.59-5.79,5.79-5.79h0v17.38c0,6.42,2.9,9.18,7.93,9.18s7.89-2.76,7.89-9.18V7.22c0-3.15,2.55-5.7,5.7-5.7h0s0,17.6,0,17.6c0,9.09-5.12,14.04-13.64,14.04s-13.68-4.95-13.68-14.04Z"/>
          <path class="cls-1" d="M144.91,32.7l-6.37-9.13-2.45.04c-3.2,0-5.79,2.59-5.79,5.79v3.3h-5.79V1.51h12.83c8.2,0,13.28,4.19,13.28,11.1,0,4.72-2.41,8.2-6.64,9.85l7.17,10.25h-6.24ZM137.06,6.41h-6.77v12.43h6.77c5.08,0,7.71-2.32,7.71-6.24s-2.63-6.19-7.71-6.19Z"/>
          <path class="cls-1" d="M189.24,24.24c0,5.35-4.19,8.47-12.21,8.47h-15.51V1.51h14.62c7.49,0,11.5,3.16,11.5,8.11,0,3.21-1.6,5.57-4.01,6.86,3.34,1.07,5.61,3.7,5.61,7.75ZM167.32,6.06v8.6h8.2c4.01,0,6.28-1.43,6.28-4.28s-2.27-4.32-6.28-4.32h-8.2ZM183.41,23.66c0-3.12-2.36-4.5-6.73-4.5h-3.56c-3.2,0-5.79,2.59-5.79,5.79v3.21h9.36c4.37,0,6.73-1.38,6.73-4.5Z"/>
          <path class="cls-1" d="M220.13,25.49h-11.77c-2.32,0-4.42,1.39-5.33,3.52l-1.57,3.7h-5.97l14.04-31.19h5.7l14.08,31.19h-6.06l-3.12-7.22ZM218.21,20.94l-5.88-13.64-5.84,13.64h11.72Z"/>
          <path class="cls-1" d="M265.44,1.51v31.19h-4.17c-5-11.62-15.83-13.54-17.8-21.12,0,4.77,0,21.12,0,21.12h-5.75s0-31.19,0-31.19c0,0,3.6,0,4.77,0,6.63,15.25,12.79,11.44,17.2,21.12,0-2.43,0-20.14,0-20.14,0-.54.44-.98.98-.98h4.77Z"/>
        </g>
        <g>
          <path class="cls-1" d="M92.21,51.84v1.58h-7.59v-10.12h7.39v1.58h-5.51v2.63h4.89v1.55h-4.89v2.79h5.71Z"/>
          <path class="cls-1" d="M109.96,53.41l-2.75-3.85-2.72,3.85h-2.14l3.76-5.16-3.56-4.96h2.13l2.59,3.6,2.56-3.6h2.04l-3.54,4.89,3.8,5.23h-2.17Z"/>
          <path class="cls-1" d="M121.92,48.35c0-3.02,2.31-5.2,5.42-5.2,1.65,0,3.06.59,4,1.69l-1.21,1.14c-.74-.8-1.65-1.19-2.7-1.19-2.1,0-3.61,1.47-3.61,3.56s1.52,3.56,3.61,3.56c1.06,0,1.97-.39,2.7-1.2l1.21,1.16c-.94,1.1-2.36,1.69-4.02,1.69-3.09,0-5.41-2.18-5.41-5.2Z"/>
          <path class="cls-1" d="M150.14,51.84v1.58h-7.59v-10.12h7.39v1.58h-5.51v2.63h4.89v1.55h-4.89v2.79h5.71Z"/>
          <path class="cls-1" d="M161.63,43.29h1.88v8.53h5.29v1.59h-7.17v-10.12Z"/>
          <path class="cls-1" d="M179.69,43.29h1.88v8.53h5.29v1.59h-7.17v-10.12Z"/>
          <path class="cls-1" d="M205.34,51.84v1.58h-7.59v-10.12h7.39v1.58h-5.51v2.63h4.89v1.55h-4.89v2.79h5.71Z"/>
          <path class="cls-1" d="M225.83,43.29v10.12h-1.55l-5.58-6.85v6.85h-1.87v-10.12h1.55l5.58,6.85v-6.85h1.87Z"/>
          <path class="cls-1" d="M237.22,48.35c0-3.02,2.31-5.2,5.42-5.2,1.65,0,3.06.59,4,1.69l-1.21,1.14c-.74-.8-1.65-1.19-2.7-1.19-2.1,0-3.61,1.47-3.61,3.56s1.52,3.56,3.61,3.56c1.06,0,1.97-.39,2.7-1.2l1.21,1.16c-.94,1.1-2.36,1.69-4.02,1.69-3.09,0-5.41-2.18-5.41-5.2Z"/>
          <path class="cls-1" d="M265.44,51.84v1.58h-7.59v-10.12h7.39v1.58h-5.51v2.63h4.89v1.55h-4.89v2.79h5.71Z"/>
        </g>
      </g>
      <g>
        <path class="cls-1" d="M0,10.96v26.96c0,15.21,10.92,27.99,25.33,30.74.6.11,1.21.2,1.82.26l1.88.17c4.41,0,7.98-3.57,7.98-7.98V19.21l-6.66,2.95s-.08.03-.12.05c-1.73.78-2.93,2.51-2.96,4.52v4.73h0v20.66h0c0,2.68-2.08,4.86-4.71,5.02-.04,0-.08,0-.12,0-.07,0-.14,0-.21,0-.27,0-.54-.02-.81-.07-.02,0-.04,0-.06,0-.06-.01-.12-.02-.18-.03-.13-.03-.25-.06-.38-.09-6.17-1.1-10.86-6.49-10.86-12.98,0-.12,0-.24,0-.36h0s-.19-22.69-.19-22.69v-2.27c0-1.98-1.16-3.78-2.97-4.6L0,10.96Z"/>
        <path class="cls-1" d="M61.97,8.12c-.07.03-.14.06-.21.09h0s-17.38,7.78-17.38,7.78c-.46.21-.75.66-.75,1.16v9.36l17.54-7.69c4.77-2.09,7.86-6.81,7.86-12.02V0h0c-1.09,3.6-3.68,6.55-7.04,8.12Z"/>
        <path class="cls-1" d="M61.97,28.06c-.07.03-.14.06-.21.09h0s-17.38,7.78-17.38,7.78l-.75.33v10.2l17.54-7.69c4.77-2.09,7.86-6.81,7.86-12.02v-6.81h0c-1.09,3.6-3.68,6.55-7.04,8.12Z"/>
        <path class="cls-1" d="M61.97,47.97c-.07.03-.14.06-.21.09h0s-17.38,7.78-17.38,7.78l-.75.33v8.38c0,.86.88,1.43,1.66,1.09l15.87-6.96c4.77-2.09,7.86-6.81,7.86-12.02v-6.81h0c-1.09,3.6-3.68,6.55-7.04,8.12Z"/>
      </g>
    </g>
  </g>
</svg>