<svg id="Group_325" data-name="Group 325" xmlns="http://www.w3.org/2000/svg" xmlns:xlink="http://www.w3.org/1999/xlink" width="210.751" height="53.938" viewBox="0 0 210.751 53.938">
  <defs>
    <clipPath id="clip-path">
      <rect id="Rectangle_246" data-name="Rectangle 246" width="210.751" height="53.938" fill="#bbc3d0"/>
    </clipPath>
  </defs>
  <g id="Group_324" data-name="Group 324" clip-path="url(#clip-path)">
    <path id="Union_2" data-name="Union 2" d="M40.421,40.193l-.072.1c-.449-.461-9.643-13.433-14.016-19.581-1.169-1.643-2.21-3.594-3.968-4.627C16.788,12.8,11.025,9.713,5.083,6.9,1.838,5.368,1.177,2.634,0,0,8.516,4.483,17.044,8.95,25.529,13.472a6.4,6.4,0,0,1,2.142,1.9c3.19,4.48,6.292,9.011,9.441,13.516,1.032,1.475,2.119,2.918,3.309,4.553,1.19-1.635,2.277-3.079,3.308-4.553,3.15-4.5,6.252-9.035,9.441-13.516a6.4,6.4,0,0,1,2.142-1.9C63.8,8.95,72.326,4.483,80.843,0,79.666,2.634,79,5.368,75.759,6.9c-5.943,2.809-11.7,5.9-17.282,9.182-1.758,1.034-2.8,2.984-3.968,4.627-4.373,6.148-13.566,19.12-14.016,19.581C40.469,40.26,40.446,40.227,40.421,40.193ZM56.516,23.376c3.869-1.527,7.437-3.547,11.641-5.6-1.706,2.256-1.906,4.838-4.549,6.115-4.924,2.38-9.83,4.785-14.9,7.258C50.8,28.106,52.472,24.973,56.516,23.376ZM17.235,23.9c-2.642-1.277-2.844-3.859-4.549-6.115,4.2,2.049,7.772,4.069,11.642,5.6,4.044,1.6,5.711,4.73,7.812,7.777C27.064,28.68,22.158,26.275,17.235,23.9Zm19.273-1.713c-2.263-4.3-5.111-8.071-10.4-10.031A2.63,2.63,0,0,1,24.683,10.3a3.3,3.3,0,0,0-2.2-2.667,9.124,9.124,0,0,1-2.229-1.189,3.573,3.573,0,0,1-1.243-1.922S40.056,15.711,40.421,15.767c.366-.055,21.41-11.242,21.41-11.242a3.581,3.581,0,0,1-1.243,1.922,9.134,9.134,0,0,1-2.23,1.189,3.3,3.3,0,0,0-2.2,2.667,2.632,2.632,0,0,1-1.426,1.849c-5.288,1.96-8.136,5.728-10.4,10.031-1.093,2.079-3.914,6.305-3.914,6.305S37.6,24.261,36.508,22.182Zm25.5-6.982c5.459-2.3,10.605-5.571,16.1-8.091-.61.6-1.072,1.429-1.856,1.759a8.974,8.974,0,0,0-5.414,5.153,2.657,2.657,0,0,1-1.208,1.4c-4.993,2.5-10.033,5.42-15.061,7.869C56.727,20.4,57.912,16.924,62.012,15.2Zm-50.8.22A2.661,2.661,0,0,1,10,14.021,8.975,8.975,0,0,0,4.587,8.868C3.8,8.538,3.339,7.71,2.73,7.109c5.5,2.519,10.641,5.8,16.1,8.091,4.1,1.724,5.287,5.2,7.439,8.089C21.242,20.84,16.2,17.916,11.208,15.421Z" transform="translate(6.503 6.823)" fill="#bbc3d0" stroke="rgba(0,0,0,0)" stroke-width="1"/>
    <path id="Path_1492" data-name="Path 1492" d="M1721.456,190.125h-.257l-7.323-16.113h3.919l3.661,8.49,3.694-8.49h3.629Z" transform="translate(-1618.365 -159.072)" fill="#bbc3d0"/>
    <path id="Path_1493" data-name="Path 1493" d="M4054.193,174.011h-.257l-7.323,16.113h3.918l3.662-8.49,3.693,8.49h3.63Z" transform="translate(-3857.186 -159.071)" fill="#bbc3d0"/>
    <path id="Path_1494" data-name="Path 1494" d="M2115.172,189.536V174.012h9.561v3.2h-5.964v2.805h5.107v3.18h-5.107v3.073h6.049v3.265Z" transform="translate(-2003.505 -159.072)" fill="#bbc3d0"/>
    <path id="Path_1495" data-name="Path 1495" d="M2424.986,177.54V161.513h.353l9.668,9.058v-8.555h3.416v16.113h-.322l-9.7-9.058v8.469Z" transform="translate(-2300.845 -147.076)" fill="#bbc3d0"/>
    <path id="Path_1496" data-name="Path 1496" d="M2847.023,189.535V174.011h4.122a10.241,10.241,0,0,1,6.809,2.077,7.043,7.043,0,0,1,2.462,5.685,7.493,7.493,0,0,1-.974,3.838,7.572,7.572,0,0,1-2.859,2.757,7.986,7.986,0,0,1-2.329.894,14.964,14.964,0,0,1-3.11.273Zm3.661-3.33h.814a5.646,5.646,0,0,0,3.8-1.178,4.562,4.562,0,0,0,0-6.52,5.612,5.612,0,0,0-3.8-1.188h-.814Z" transform="translate(-2705.892 -159.071)" fill="#bbc3d0"/>
    <path id="Path_1497" data-name="Path 1497" d="M3244.065,189.536V174.012h9.561v3.2h-5.964v2.805h5.107v3.18h-5.107v3.073h6.049v3.265Z" transform="translate(-3086.948 -159.072)" fill="#bbc3d0"/>
    <path id="Path_1498" data-name="Path 1498" d="M3481.669,189.536v-12.28h-4.936v-3.244h13.555v3.244h-4.915v12.28Z" transform="translate(-3310.25 -159.072)" fill="#bbc3d0"/>
    <path id="Path_1499" data-name="Path 1499" d="M3811.341,189.536v-12.28h-4.936v-3.244h13.554v3.244h-4.914v12.28Z" transform="translate(-3626.65 -159.072)" fill="#bbc3d0"/>
    <path id="Path_1500" data-name="Path 1500" d="M2010.746,680.81h-.785l-.429-1.02h-2l-.435,1.02h-.761l1.86-4.258h.689Zm-2.216-3.37-.725,1.691h1.456Z" transform="translate(-1899.051 -641.381)" fill="#bbc3d0"/>
    <path id="Path_1501" data-name="Path 1501" d="M2228.055,679.7a2.4,2.4,0,0,1-.13.827,1.627,1.627,0,0,1-.365.595,1.477,1.477,0,0,1-.571.356,2.256,2.256,0,0,1-.752.118,2.208,2.208,0,0,1-.743-.118,1.505,1.505,0,0,1-.568-.353,1.583,1.583,0,0,1-.362-.583,2.341,2.341,0,0,1-.127-.806V677.3h.737v2.4a1.277,1.277,0,0,0,.286.9,1.022,1.022,0,0,0,.79.308,1.038,1.038,0,0,0,.783-.3,1.226,1.226,0,0,0,.285-.882V677.3h.737Z" transform="translate(-2108.371 -642.101)" fill="#bbc3d0"/>
    <path id="Path_1502" data-name="Path 1502" d="M2430.226,681.531h-.749v-3.539h-1.34V677.3h3.43v.689h-1.341Z" transform="translate(-2303.87 -642.101)" fill="#bbc3d0"/>
    <path id="Path_1503" data-name="Path 1503" d="M2622.745,678.529a2.118,2.118,0,0,1-.459.7,2.2,2.2,0,0,1-1.595.649,2.26,2.26,0,0,1-.893-.172,2.1,2.1,0,0,1-1.147-1.163,2.273,2.273,0,0,1,0-1.691,2.126,2.126,0,0,1,.459-.7,2.2,2.2,0,0,1,1.594-.649,2.258,2.258,0,0,1,.894.172,2.1,2.1,0,0,1,1.147,1.162,2.273,2.273,0,0,1,0,1.691m-.722-1.416a1.482,1.482,0,0,0-.3-.48,1.415,1.415,0,0,0-.456-.326,1.46,1.46,0,0,0-1.156,0,1.361,1.361,0,0,0-.45.32,1.469,1.469,0,0,0-.293.477,1.655,1.655,0,0,0,0,1.165,1.485,1.485,0,0,0,.3.48,1.416,1.416,0,0,0,.456.326,1.461,1.461,0,0,0,1.156,0,1.36,1.36,0,0,0,.449-.32,1.456,1.456,0,0,0,.293-.477,1.648,1.648,0,0,0,0-1.165" transform="translate(-2486.557 -640.373)" fill="#bbc3d0"/>
    <path id="Path_1504" data-name="Path 1504" d="M2986.595,679.471a2.605,2.605,0,0,1-.885.353,2.682,2.682,0,0,1-.531.051,2.35,2.35,0,0,1-.9-.166,2.01,2.01,0,0,1-1.135-1.15,2.334,2.334,0,0,1-.157-.864,2.249,2.249,0,0,1,.16-.845,2.113,2.113,0,0,1,1.142-1.172,2.167,2.167,0,0,1,.878-.175,2.971,2.971,0,0,1,.5.039,2.345,2.345,0,0,1,.419.112,2.091,2.091,0,0,1,.365.178,2.659,2.659,0,0,1,.335.245l-.471.562a2.661,2.661,0,0,0-.248-.187,1.512,1.512,0,0,0-.265-.142,1.642,1.642,0,0,0-.306-.091,1.854,1.854,0,0,0-.365-.033,1.255,1.255,0,0,0-.541.118,1.354,1.354,0,0,0-.435.324,1.548,1.548,0,0,0-.29.478,1.589,1.589,0,0,0-.106.581,1.737,1.737,0,0,0,.1.605,1.415,1.415,0,0,0,.293.481,1.369,1.369,0,0,0,.453.318,1.451,1.451,0,0,0,.588.115,1.763,1.763,0,0,0,.565-.088,1.583,1.583,0,0,0,.456-.234v-.8h-1.081v-.646h1.8v1.775a3.194,3.194,0,0,1-.347.254" transform="translate(-2836.381 -640.373)" fill="#bbc3d0"/>
    <path id="Path_1505" data-name="Path 1505" d="M3196.645,680.81h-.785l-.429-1.02h-2l-.435,1.02h-.761l1.86-4.258h.688Zm-2.216-3.37-.725,1.691h1.455Z" transform="translate(-3037.207 -641.381)" fill="#bbc3d0"/>
    <path id="Path_1506" data-name="Path 1506" d="M3418.448,681.53l-1.042-1.474h-.932v1.474h-.737V677.3h1.884a2.15,2.15,0,0,1,.656.094,1.426,1.426,0,0,1,.5.266,1.151,1.151,0,0,1,.31.423,1.5,1.5,0,0,1,.033,1.033,1.22,1.22,0,0,1-.208.368,1.252,1.252,0,0,1-.317.272,1.586,1.586,0,0,1-.407.172l1.142,1.6Zm-.243-3.378a1.034,1.034,0,0,0-.647-.179h-1.084V679.4h1.09a.974.974,0,0,0,.636-.194.64.64,0,0,0,.236-.522.63.63,0,0,0-.23-.531" transform="translate(-3251.708 -642.101)" fill="#bbc3d0"/>
    <path id="Path_1507" data-name="Path 1507" d="M3615.594,680.81h-.785l-.429-1.02h-2l-.435,1.02h-.761l1.86-4.258h.688Zm-2.216-3.37-.724,1.691h1.455Z" transform="translate(-3439.289 -641.381)" fill="#bbc3d0"/>
    <path id="Path_1508" data-name="Path 1508" d="M3827.2,679.471a2.659,2.659,0,0,1-.412.211,2.589,2.589,0,0,1-.473.142,2.686,2.686,0,0,1-.532.051,2.347,2.347,0,0,1-.9-.166,2.039,2.039,0,0,1-.692-.459,2.063,2.063,0,0,1-.444-.691,2.334,2.334,0,0,1-.157-.864,2.244,2.244,0,0,1,.16-.845,2.133,2.133,0,0,1,.449-.7,2.162,2.162,0,0,1,1.571-.649,2.953,2.953,0,0,1,.5.039,2.323,2.323,0,0,1,.42.112,2.108,2.108,0,0,1,.365.178,2.644,2.644,0,0,1,.335.245l-.471.562a2.632,2.632,0,0,0-.248-.187,1.509,1.509,0,0,0-.266-.142,1.64,1.64,0,0,0-.3-.091,1.865,1.865,0,0,0-.366-.033,1.253,1.253,0,0,0-.54.118,1.351,1.351,0,0,0-.434.324,1.543,1.543,0,0,0-.29.478,1.579,1.579,0,0,0-.106.581,1.72,1.72,0,0,0,.1.605,1.4,1.4,0,0,0,.293.481,1.365,1.365,0,0,0,.453.318,1.454,1.454,0,0,0,.589.115,1.762,1.762,0,0,0,.565-.088,1.578,1.578,0,0,0,.456-.234v-.8h-1.081v-.646h1.8v1.775a3.133,3.133,0,0,1-.346.254" transform="translate(-3643.139 -640.373)" fill="#bbc3d0"/>
    <path id="Path_1509" data-name="Path 1509" d="M4044.965,677.974h-2.392v1.087h2.12v.67h-2.12v1.129H4045v.67h-3.159V677.3h3.128Z" transform="translate(-3852.602 -642.101)" fill="#bbc3d0"/>
  </g>
</svg>
