<?xml version="1.0" encoding="UTF-8"?>
<svg id="Layer_2" data-name="Layer 2" xmlns="http://www.w3.org/2000/svg" xmlns:xlink="http://www.w3.org/1999/xlink" viewBox="0 0 82.69 58">
  <defs>
    <style>
      .cls-1 {
        fill: none;
      }

      .cls-2 {
        clip-path: url(#clippath);
      }

      .cls-3 {
        fill: #bbc3d0;
      }
    </style>
    <clipPath id="clippath">
      <rect class="cls-1" x="0" width="82.69" height="58"/>
    </clipPath>
  </defs>
  <g id="Layer_1-2" data-name="Layer 1">
    <g>
      <g class="cls-2">
        <g id="Group_333" data-name="Group 333">
          <path id="Path_1551" data-name="Path 1551" class="cls-3" d="M44.1,49.41c0,.42-.48.6-1.05.6-.61,0-1.21-.21-1.21-1.39v-3.1h-.39c-.24,0-.43-.19-.43-.43s.19-.43.43-.43h.39v-.8c0-.3.24-.53.54-.53.3,0,.53.24.53.53v.8h.74c.24,0,.43.19.43.43s-.19.43-.43.43h-.74v3.11c0,.31.12.45.36.45.13,0,.29-.04.4-.05.19-.04.39.08.43.27,0,.04.01.07,0,.11"/>
          <path id="Path_1552" data-name="Path 1552" class="cls-3" d="M49.15,45.1c0,.31-.23.51-.69.51-.75-.01-1.4.5-1.55,1.23v2.62c-.01.3-.27.53-.56.52-.28-.01-.51-.24-.52-.52v-4.3c-.01-.3.22-.55.52-.56.3-.01.55.22.56.52,0,.02,0,.03,0,.05v.67c.25-.73.92-1.23,1.69-1.24.27-.03.52.17.55.45,0,.02,0,.04,0,.05"/>
          <path id="Path_1553" data-name="Path 1553" class="cls-3" d="M54.56,45.57v-.41c0-.3.24-.54.54-.54.3,0,.54.24.55.54v4.31c0,.3-.25.54-.55.54-.3,0-.54-.24-.54-.54v-.55c-.24.7-.93,1.15-1.67,1.1-1.5-.13-2.61-1.45-2.49-2.95.11-1.32,1.16-2.37,2.49-2.49.7-.03,1.35.35,1.67.98M54.61,47.31c.1-.88-.53-1.67-1.4-1.77-.05,0-.1,0-.15-.01-.99.1-1.71.99-1.61,1.98.09.85.76,1.52,1.61,1.61.89-.03,1.59-.78,1.56-1.67,0-.04,0-.09,0-.13"/>
          <path id="Path_1554" data-name="Path 1554" class="cls-3" d="M62.84,43.22v6.26c0,.3-.25.54-.55.54-.3,0-.54-.24-.54-.54v-.55c-.24.7-.93,1.15-1.67,1.1-1.5-.13-2.61-1.45-2.49-2.95.11-1.32,1.16-2.37,2.49-2.49.7-.03,1.35.35,1.67.98v-.41s0-.07.01-.1v-1.85c0-.29.24-.53.53-.54.3,0,.54.24.55.54M61.8,47.31c.1-.88-.53-1.67-1.4-1.77-.05,0-.1,0-.15-.01-.99.1-1.71.99-1.61,1.98.09.85.76,1.52,1.61,1.61.89-.03,1.59-.78,1.56-1.67,0-.04,0-.08,0-.13"/>
          <path id="Path_1555" data-name="Path 1555" class="cls-3" d="M65.02,43.12c0-.3.24-.56.54-.56s.56.24.56.54c0,.3-.24.56-.54.56,0,0,0,0,0,0-.3,0-.54-.24-.55-.54M66.11,45.18v4.29c.01.3-.22.55-.52.56-.3.01-.55-.22-.56-.52,0-.02,0-.03,0-.05v-4.3c-.01-.3.22-.55.52-.56.3-.01.55.22.56.52,0,.02,0,.03,0,.05"/>
          <path id="Path_1556" data-name="Path 1556" class="cls-3" d="M73.14,46.96v2.51c0,.3-.23.54-.53.54h0c-.3,0-.54-.24-.54-.54v-2.51c0-1.02-.58-1.43-1.24-1.43-.74.02-1.36.58-1.47,1.32v2.62c.01.3-.22.55-.52.56-.3.01-.55-.22-.56-.52,0-.02,0-.03,0-.05v-4.29c-.01-.3.22-.55.52-.56.3-.01.55.22.56.52,0,.02,0,.03,0,.05v.67c.27-.77,1.01-1.28,1.83-1.24.99,0,1.96.62,1.96,2.36"/>
          <path id="Path_1557" data-name="Path 1557" class="cls-3" d="M80.29,49.48s0,.07-.01.1v.28c-.06,1.28-1.13,2.26-2.41,2.21-.06,0-.12,0-.18-.02-.48,0-.96-.1-1.4-.31-.2-.07-.33-.25-.34-.46,0-.23.19-.43.42-.43,0,0,0,0,0,0,.09,0,.17.02.25.05.34.14.7.21,1.07.21.89,0,1.49-.46,1.49-1.26v-.92c-.24.7-.93,1.15-1.67,1.1-1.5-.13-2.61-1.45-2.49-2.95.11-1.32,1.16-2.37,2.49-2.49.7-.03,1.35.35,1.67.98v-.41c0-.3.24-.54.54-.54.3,0,.54.24.55.54v4.32ZM79.25,47.31c.1-.88-.53-1.67-1.4-1.77-.05,0-.1,0-.15-.01-.99.1-1.71.99-1.61,1.98.09.85.76,1.52,1.61,1.61.89-.03,1.59-.78,1.56-1.67,0-.04,0-.09,0-.13"/>
        </g>
      </g>
      <path class="cls-3" d="M0,21.14c.04.31.13.61.26.89l4.86,14.17c.5-2.26,1.09-4.51,1.54-6.16l-3.13-9.68c-.29-.66-.95-1.09-1.67-1.08C.84,19.27.01,20.09,0,21.1c0,.01,0,.02,0,.04M25.08,20.36l-4.09,12.63-4.65-11.83c-.63,1.25-1.32,2.68-1.94,4.13l4.91,12.01c.26.86,1.04,1.45,1.93,1.49.88-.03,1.64-.63,1.86-1.49l5.24-15.27c.13-.28.22-.58.26-.89.01-1.02-.81-1.85-1.82-1.86-.01,0-.02,0-.04,0-.73-.03-1.4.4-1.67,1.08M34.12,23.74v-2.45c0-1.09-.88-1.97-1.97-1.97-1.09,0-1.97.88-1.97,1.97h0v15.64c0,1.09.88,1.97,1.97,1.97,1.09,0,1.97-.88,1.97-1.97h0v-9.55c.56-2.66,2.93-4.55,5.65-4.5,1.67,0,2.53-.74,2.53-1.86.01-1-.79-1.82-1.79-1.83-.07,0-.15,0-.22.01-2.8.07-5.27,1.88-6.17,4.53M46.15,29.05c0-4.39,3.05-6.5,5.76-6.5,2.53,0,5.65,1.86,5.65,6.5s-3.12,6.54-5.65,6.54c-2.71,0-5.76-2.12-5.76-6.54M42.21,29.05c0,6.72,4.94,9.92,9.07,9.92,3.53,0,5.83-2.34,6.09-4.01v2.01c0,1.09.88,1.96,1.97,1.97,1.09,0,1.98-.88,2.01-1.97v-15.71c-.02-1.09-.91-1.96-2.01-1.97-1.08,0-1.96.88-1.97,1.97v1.49c-1.16-2.28-3.54-3.67-6.09-3.57-4.09,0-9.07,3.27-9.07,9.88M73.36,22.59c2.91-.08,5.36,2.18,5.5,5.09h-11.07c.19-2.92,2.65-5.17,5.57-5.09M63.74,29.09c0,6.72,5.17,9.81,10,9.81,2.08.07,4.13-.57,5.8-1.82.59-.36.96-.99,1-1.67.05-.72-.49-1.36-1.21-1.41-.05,0-.11,0-.16,0-.56.07-1.1.27-1.56.59-1.1.73-2.4,1.1-3.72,1.08-2.97,0-5.68-1.71-6.09-5.16l12.45.04c1.6,0,2.45-.6,2.45-2.12-.05-5.12-4.21-9.25-9.33-9.25-5.33.02-9.64,4.35-9.63,9.69,0,.08,0,.16,0,.23M19.06,6.53h0l-.04.05s-.06.08-.1.12l-.07.1s-.03.05-.05.07l-.02.03c-.87,1.29-.51,2.37-1.37,3.77-.07.11-.12.19-.15.23-4.01,5.65-7.12,11.87-9.24,18.47-.83,2.96-2.56,9.46-2.75,13.04h-.04c-.39,4.63-.04,9.39,2.09,12.68,1.12,1.8,3.09,2.9,5.22,2.91h.02c.54,0,1.07-.07,1.6-.2,6.32-1.66,12.08-9.63,16.03-16.97-.45-.13-.88-.34-1.26-.62-1.96,3.56-4.33,6.87-7.08,9.87-4.26,4.62-11.92,9.72-13.48.07-.88-5.5.68-13.68,3.66-21.76,1.17-3.37,2.63-6.64,4.36-9.77,1.03-1.95,2.15-3.85,3.38-5.69.04-.04.1-.12.2-.22.96-.98,1.93-.95,3.07-1.89.13-.1.25-.2.36-.32l.04-.04c1.09-1.21.99-3.07-.22-4.16-1.21-1.09-3.07-.99-4.15.22M23.5,3.92c.89.43,1.64,1.11,2.14,1.97,1.1-1.03,2.31-1.92,3.62-2.66,6.22-3.19,7.79,3.91,7.85,8.62.02,1.91-.09,3.82-.34,5.71.54-.19,1.1-.32,1.67-.39.54-3.22.6-6.5.19-9.74-.49-3.19-2.07-6.7-5.61-7.34-.39-.07-.79-.1-1.18-.1-3.02,0-5.93,1.84-8.33,3.92Z"/>
    </g>
  </g>
</svg>