<?xml version="1.0" encoding="UTF-8"?>
<svg id="Layer_2" data-name="Layer 2" xmlns="http://www.w3.org/2000/svg" viewBox="0 0 213.33 238.83">
  <defs>
    <style>
      .cls-1 {
        fill: #fff;
        isolation: isolate;
      }

      .cls-2 {
        fill: #c4902b;
      }

      .cls-2, .cls-3 {
        font-family: LucidaHandwriting-Italic, 'Lucida Handwriting';
        font-size: 27.4px;
        font-style: italic;
      }

      .cls-3, .cls-4 {
        fill: #bbc3d0;
      }
    </style>
  </defs>
  <g id="Layer_2-2" data-name="Layer 2">
    <g>
      <g>
        <path class="cls-4" d="M3.08,205.13c1.09-.07,2.16-.11,3.19-.11,4.11,0,6.86.33,8.26.99.69.33,1.03,1.12,1.03,2.36,0,.19-.02.49-.07.9-1.12-.68-2.44-1.15-3.93-1.43-1.5-.28-3.48-.41-5.95-.41-1.06,0-2.1.06-3.13.17l-.45.04-.87.09c-.77,0-1.15-.3-1.15-.9,0-.19.09-.66.25-1.42,2.91-3.85,7.27-8.78,13.1-14.77.19-.2.61-.65,1.27-1.35-2.57.17-4.49.3-5.77.37-1.46.07-2.4.11-2.8.11-1.99,0-2.98-.7-2.98-2.09,0-.16.02-.58.05-1.25.81,1.02,2.81,1.53,6.01,1.53h1.69c2.6,0,4.72-.16,6.34-.47-.15,1.02-.31,1.71-.49,2.09-.17.37-.55.85-1.13,1.43-1.36,1.36-3.58,3.78-6.64,7.25-3.06,3.47-5.01,5.76-5.83,6.87Z"/>
        <path class="cls-4" d="M33.78,204.85c-.29.88-.64,1.51-1.04,1.91-.4.4-1.42.75-3.05,1.05-1.63.3-3.35.45-5.16.45-2.85,0-4.27-.97-4.27-2.92,0-.54.15-1.57.45-3.09l2.61-13.14c.15-.76.23-1.3.23-1.63,0-.3-.11-.58-.32-.84,1.19-.45,2.01-.67,2.48-.67.55,0,.83.32.83.95,0,.16-.15.95-.44,2.35l-2.33,11.74c-.34,1.68-.51,2.86-.51,3.52,0,1.11,1.24,1.67,3.71,1.67,2.2,0,4.47-.45,6.81-1.35Z"/>
        <path class="cls-4" d="M41.09,198.08l-1.4,7.05c-.17.84-.25,1.39-.25,1.64s.06.52.17.8c-.92.46-1.74.68-2.47.68-.46,0-.7-.19-.7-.56,0-.2.1-.76.28-1.7l3.24-16.3c-.78.11-1.52.16-2.19.16-1.4,0-2.23-.93-2.5-2.78.64.53,1.51.79,2.6.79,1.36,0,3.15-.13,5.35-.4l-1.94,9.76c5.11-3.48,8.12-6.77,9.03-9.87,1.27.65,1.9,1.35,1.9,2.09,0,.41-.94,1.46-2.81,3.15-1.88,1.69-3.79,3.2-5.73,4.54,1.63,3.07,3.23,5.57,4.79,7.49,1.56,1.92,2.77,2.88,3.62,2.88.91,0,1.91-.5,3.01-1.51v.35c.01.67-.46,1.36-1.39,2.08-.94.72-1.84,1.08-2.71,1.08-2.28,0-5.57-3.81-9.87-11.42Z"/>
        <path class="cls-4" d="M79.01,201.81c-2.68,3.86-5.32,5.79-7.91,5.79-1.4,0-2.55-.51-3.46-1.53s-1.36-2.32-1.36-3.89c0-3.15,1.22-7.33,3.66-12.54-.74.14-1.43.21-2.06.21-.83,0-1.44-.21-1.83-.62-.39-.42-.66-1.14-.82-2.16.67.53,1.53.79,2.6.79.61,0,2.63-.16,6.08-.47-3.15,6.15-4.72,10.85-4.72,14.09,0,1.16.29,2.11.86,2.85.58.74,1.31,1.11,2.21,1.11,1.27,0,2.52-.62,3.77-1.87s2.41-3.05,3.51-5.41c.79-4.34,1.48-7.01,2.09-8.01s1.84-1.5,3.7-1.5c-.81,1.04-1.61,3.22-2.41,6.54-.79,3.32-1.19,6.15-1.19,8.49,0,1.85.56,2.77,1.68,2.77.7,0,1.54-.38,2.49-1.14.03.22.05.37.05.48,0,.61-.36,1.17-1.1,1.68-.73.52-1.53.78-2.38.78-2.4,0-3.6-1.53-3.6-4.58,0-.43.04-1.05.13-1.87Z"/>
        <path class="cls-4" d="M93.5,202.96c3.17-6.7,6.01-10.05,8.54-10.05,1.97,0,2.96,1.96,2.96,5.89l.03,1.62c0,1.87.1,3.17.29,3.89s.54,1.08,1.05,1.08c.77,0,1.64-.61,2.62-1.83.98-1.22,2.57-3.68,4.77-7.37l1.12.66c-1.96,3.7-3.72,6.45-5.27,8.24-1.55,1.79-2.94,2.69-4.18,2.69-1.13,0-1.93-.55-2.39-1.65-.46-1.1-.69-3-.69-5.7v-1.15c-.01-1.46-.11-2.49-.29-3.08-.19-.59-.51-.89-.98-.89-1.18,0-3.07,2.35-5.69,7.05-.64,1.15-1.06,1.89-1.25,2.22-.69,1.2-1.03,2.06-1.03,2.6,0,.21.06.42.17.62-.52.21-.95.32-1.31.32-.9,0-1.35-.5-1.35-1.5,0-.29.12-1.57.35-3.85l.29-2.9c.13-1.23.2-2.19.2-2.86,0-.95-.22-1.69-.64-2.24.19-.06.5-.17.94-.32.55-.2,1-.3,1.33-.3.69,0,1.04.51,1.04,1.53,0,.54-.07,1.45-.2,2.76-.03.29-.05.56-.08.82l-.35,3.73Z"/>
        <path class="cls-4" d="M127.04,196.81c-2.02,3.53-4.05,6.3-6.12,8.29-2.06,2-3.91,2.99-5.55,2.99-1,0-1.8-.32-2.41-.98s-.92-1.51-.92-2.57c0-.4.09-1.04.27-1.91l.29-1.47c.44-2.12.66-3.61.66-4.47,0-.51-.15-.92-.45-1.24,1.16-.27,1.89-.4,2.18-.4.66,0,.99.46.99,1.39,0,.69-.13,1.67-.39,2.95l-.52,2.61c-.26,1.26-.39,2.07-.39,2.45,0,1.11.47,1.66,1.41,1.66,1.11,0,2.6-.94,4.45-2.81,1.86-1.88,3.65-4.25,5.39-7.13l1.11.66ZM115.13,190.08h.19c.6-.01,1.46-.31,2.58-.89s2-1.16,2.63-1.76c-.39,1.23-1.09,2.26-2.09,3.09-1.52,1.27-2.54,1.9-3.08,1.9-.36,0-.54-.22-.54-.66,0-.62.1-1.18.31-1.68Z"/>
        <path class="cls-4" d="M125.3,197.11h-.27c-1.33,0-2.49.33-3.48.99.21-1.14.53-1.87.94-2.17.42-.31,1.29-.46,2.62-.46h.51l.44-2.21c.6-3,1.55-5.16,2.86-6.48,1.62-1.64,3.42-2.46,5.39-2.46.77,0,1.43.18,1.98.54s.83.79.83,1.3-.57,1.11-1.73,1.78c-.32-1.37-1.05-2.05-2.2-2.05-2.02,0-3.47,2.2-4.35,6.61l-.59,2.97h4.67c2.13,0,3.7-.12,4.7-.35-.43.95-.92,1.52-1.47,1.71-.55.19-1.96.29-4.24.29h-4l-2.27,11.48c-.22,1.11-.33,2.07-.33,2.9,0,.53.12,1,.35,1.43-.89.3-1.58.44-2.06.44-.74,0-1.11-.41-1.11-1.24,0-.65.15-1.72.44-3.21l2.35-11.8Z"/>
        <path class="cls-4" d="M147.56,197.9c.03.22.04.41.04.58,0,2.58-.88,4.83-2.62,6.74-1.75,1.92-3.79,2.88-6.14,2.88-1.79,0-3.25-.57-4.38-1.72-1.13-1.15-1.69-2.63-1.69-4.46,0-2.08.73-3.88,2.19-5.41,1.46-1.52,3.18-2.29,5.16-2.29.3,0,.62.04.96.12-.22-.4-.33-.74-.33-1.02,0-.43.15-.84.44-1.23,2.18.18,3.99,1.29,5.43,3.35,1.48,1.01,3.02,1.51,4.63,1.51,1.04,0,2.17-.35,3.39-1.06l.67,1.14c-1.42.99-2.87,1.48-4.36,1.48-.99,0-2.11-.2-3.37-.62ZM144.52,196.76c-.74-.22-1.42-.58-2.05-1.07-.45-.1-.83-.15-1.14-.15-1.52,0-2.86.69-4.03,2.05-1.17,1.36-1.76,2.92-1.76,4.67,0,1.27.36,2.31,1.07,3.12s1.62,1.22,2.73,1.22c1.51,0,2.8-.76,3.89-2.28,1.09-1.52,1.63-3.33,1.63-5.44,0-.73-.12-1.44-.35-2.13Z"/>
        <path class="cls-4" d="M154.85,207.67c-.61.29-1.1.43-1.47.43-.91,0-1.37-.4-1.37-1.2,0-.41.16-1.43.48-3.06l.67-3.33c.41-1.98.62-3.45.62-4.4,0-.52-.15-.95-.44-1.3.94-.32,1.7-.48,2.29-.48.62,0,.94.4.94,1.19,0,.49-.22,1.78-.66,3.87l-.76,3.89c1.68-3.27,3.38-5.82,5.09-7.63,1.71-1.81,3.26-2.72,4.64-2.72.49,0,.91.14,1.27.42.36.28.54.62.54,1.02,0,.62-.68,1.46-2.03,2.49-.34-.7-.82-1.06-1.44-1.06-1.13,0-2.58,1.21-4.33,3.61-1.09,1.5-2.03,3.05-2.83,4.64-.8,1.59-1.2,2.73-1.2,3.41v.23Z"/>
        <path class="cls-4" d="M170.87,203.06c3.21-6.77,6.05-10.15,8.51-10.15,1.08,0,1.62.78,1.62,2.34,0,.67-.23,2.17-.69,4.51l-.8,4.05c1.56-3.28,3.19-5.92,4.88-7.91,1.69-1.99,3.16-2.99,4.39-2.99,1.36,0,2.03.79,2.03,2.38,0,.57-.2,1.87-.6,3.91l-.42,2.09c-.25,1.26-.37,2.19-.37,2.79,0,1.07.38,1.6,1.14,1.6,1.71,0,4.34-3.18,7.89-9.53l1.12.63c-3.87,7.54-7.25,11.31-10.14,11.31-1.85,0-2.77-1.2-2.77-3.61,0-.8.18-2.09.54-3.87l.37-1.85c.25-1.25.37-2.02.37-2.33,0-.38-.2-.58-.59-.58-.96,0-2.69,1.91-5.18,5.74-2.26,3.49-3.39,5.48-3.39,5.98,0,.05.02.15.05.28-.12.03-.34.08-.66.17-.13.04-.33.07-.6.07-.83,0-1.24-.4-1.24-1.19,0-.24.13-.97.4-2.18.1-.44.2-.9.29-1.4l.56-2.83c.41-2.04.62-3.26.62-3.68,0-.6-.22-.89-.66-.89-.96,0-2.38,1.72-4.25,5.17-1.86,3.42-2.8,5.46-2.8,6.12,0,.19.07.37.22.55-.49.22-.94.32-1.35.32-.93,0-1.39-.5-1.39-1.5,0-.12.13-1.42.4-3.89l.31-2.85c.11-1,.16-1.92.16-2.77,0-1.07-.22-1.86-.65-2.35,1.03-.38,1.77-.56,2.19-.56.79,0,1.18.46,1.18,1.39,0,.33-.11,1.56-.32,3.68l-.37,3.82Z"/>
        <path class="cls-4" d="M203.83,203.05c.3.68.45,1.33.45,1.94,0,1.36-.57,2.55-1.71,3.57-1.14,1.01-2.48,1.52-4.02,1.52-.9,0-1.67-.23-2.3-.7-.63-.46-.95-1.02-.95-1.67,0-.69.43-1.4,1.3-2.11.87-.71,2.33-1.56,4.37-2.54l-1.07-1.73c-1.3-2.1-1.95-3.73-1.95-4.91,0-1.69.99-3.06,2.96-4.09,1.21.46,1.82,1.05,1.82,1.75,0,1-.77,1.96-2.31,2.88l1.53,2.81,1.19,2.17c1.7-1.02,2.99-1.89,3.85-2.61.86-.73,1.96-1.85,3.28-3.37l1.07.66c-1.92,2.57-4.42,4.72-7.51,6.45ZM201.55,204.26c-2.62,1.41-3.93,2.5-3.93,3.28,0,.73.53,1.1,1.59,1.1.79,0,1.42-.27,1.91-.8s.74-1.22.74-2.05c0-.5-.1-1.01-.31-1.53Z"/>
      </g>
      <text class="cls-3" transform="translate(204.08 207.76)"><tspan x="0" y="0"> </tspan></text>
      <g>
        <path class="cls-4" d="M26.03,234.93c2.41-5.08,4.54-7.61,6.38-7.61.81,0,1.22.58,1.22,1.75,0,.5-.17,1.63-.52,3.39l-.6,3.04c1.17-2.46,2.39-4.44,3.66-5.93,1.27-1.49,2.37-2.24,3.29-2.24,1.02,0,1.53.59,1.53,1.78,0,.43-.15,1.41-.45,2.94l-.31,1.56c-.19.94-.28,1.64-.28,2.1,0,.8.28,1.2.85,1.2,1.28,0,3.26-2.38,5.92-7.15l.84.47c-2.9,5.66-5.44,8.48-7.61,8.48-1.38,0-2.08-.9-2.08-2.71,0-.6.13-1.57.4-2.9l.28-1.38c.19-.94.28-1.52.28-1.75,0-.29-.15-.43-.44-.43-.72,0-2.02,1.43-3.88,4.3-1.69,2.62-2.54,4.11-2.54,4.49,0,.04.01.11.04.21-.09.02-.26.06-.49.13-.1.03-.25.05-.45.05-.62,0-.93-.3-.93-.89,0-.18.1-.73.3-1.63.07-.33.15-.68.22-1.05l.42-2.13c.31-1.53.46-2.45.46-2.76,0-.45-.16-.67-.49-.67-.72,0-1.79,1.29-3.19,3.88-1.4,2.57-2.1,4.1-2.1,4.59,0,.14.05.28.16.41-.37.16-.7.24-1.01.24-.7,0-1.04-.37-1.04-1.12,0-.09.1-1.07.3-2.92l.23-2.14c.08-.75.12-1.44.12-2.08,0-.8-.16-1.39-.49-1.77.78-.28,1.32-.42,1.65-.42.59,0,.88.35.88,1.04,0,.25-.08,1.17-.24,2.76l-.28,2.87Z"/>
        <g>
          <path class="cls-4" d="M53.39,232.32c-.86,1.77-1.91,3.28-3.17,4.52-1.26,1.24-2.35,1.86-3.28,1.86-.71,0-1.28-.32-1.7-.95-.43-.63-.64-1.47-.64-2.53,0-2.09.63-3.94,1.9-5.53,1.27-1.59,2.74-2.39,4.4-2.39,1.01,0,2.11.31,3.29.94.17-.62.88-.93,2.13-.93.08,0,.21,0,.39,0-.38.58-.67,1.38-.87,2.39l-.17.85c-.19.95-.29,2.06-.29,3.33,0,1.47.34,2.2,1.02,2.2.72,0,1.71-.6,2.97-1.81s2.49-2.74,3.7-4.61l.78.54c-1.24,2.21-2.65,4.05-4.24,5.53-1.59,1.48-2.96,2.21-4.11,2.21-1.45,0-2.17-1.21-2.17-3.61,0-.5.02-1.18.06-2.03ZM53.86,229.93c-1.41-.92-2.58-1.37-3.51-1.37-1.01,0-1.88.61-2.62,1.84-.74,1.23-1.11,2.68-1.11,4.37,0,1.35.44,2.03,1.33,2.03.96,0,2.79-2.1,5.5-6.3.03-.05.17-.24.41-.56Z"/>
          <path class="cls-4" d="M69.54,232.58c-1.04,1.88-2.14,3.37-3.28,4.47-1.14,1.1-2.16,1.65-3.06,1.65-.72,0-1.28-.31-1.71-.94s-.63-1.46-.63-2.51c0-2.11.63-3.97,1.89-5.56s2.72-2.38,4.38-2.38c1,0,2.08.32,3.26.95l1.07-5.4c-.59.12-1.08.18-1.47.18-.59,0-1.02-.14-1.29-.42-.27-.28-.49-.8-.66-1.57.48.33,1.22.49,2.22.49,1.24,0,2.43-.23,3.58-.68l-2.19,11c-.25,1.23-.37,2.28-.37,3.14,0,1.15.33,1.73.98,1.73s1.71-.75,3.21-2.26c1.49-1.51,2.74-3.08,3.74-4.73l.82.52c-1.19,2.18-2.68,4.13-4.46,5.85-1.78,1.72-3.21,2.58-4.27,2.58-1.35,0-2.03-1.08-2.03-3.25,0-.9.08-1.85.25-2.87ZM70.07,229.93c-1.39-.92-2.55-1.37-3.47-1.37-1,0-1.87.62-2.6,1.85-.73,1.23-1.1,2.69-1.1,4.37,0,1.35.44,2.03,1.33,2.03.95,0,2.78-2.1,5.48-6.3.05-.07.17-.26.37-.56Z"/>
          <path class="cls-4" d="M79.28,234.28c0,1.96.83,2.93,2.49,2.93,1.44,0,3.02-.69,4.76-2.05,1.73-1.37,3.3-3.17,4.69-5.41l.85.47c-1.31,2.45-3.01,4.47-5.11,6.08-2.1,1.61-4.09,2.41-5.97,2.41-1.2,0-2.15-.39-2.85-1.16-.7-.78-1.05-1.84-1.05-3.18,0-1.94.63-3.6,1.9-4.98s2.8-2.07,4.58-2.07c.86,0,1.55.22,2.07.65s.78,1.02.78,1.74c0,1.2-.72,2.26-2.16,3.18-1.44.92-3.1,1.38-4.97,1.38ZM79.36,233.31c1.4-.07,2.6-.47,3.6-1.2,1-.73,1.5-1.57,1.5-2.52,0-.85-.38-1.28-1.14-1.28-.91,0-1.75.49-2.52,1.46-.77.97-1.25,2.15-1.43,3.54Z"/>
          <path class="cls-4" d="M103.82,234.48c.18.33.27.62.27.86,0,.66-.55,1.38-1.66,2.17-1.11.79-2.12,1.19-3.03,1.19-.8,0-1.46-.36-1.96-1.07-.5-.72-.76-1.64-.76-2.77,0-1.26.33-3.05.99-5.37l.46-1.69h-1.7c-.71,0-1.28.1-1.7.3.39-.7.71-1.15.96-1.33.25-.18.69-.27,1.29-.27h1.51l.2-.69c.31-1.03.68-1.74,1.1-2.13.43-.39,1.07-.58,1.93-.58.1,0,.26,0,.48.02-.52.67-1.06,1.8-1.62,3.38h5.3c.93,0,1.64-.12,2.13-.36-.17.69-.39,1.13-.67,1.34s-.79.31-1.55.31h-5.64c-.07.22-.12.39-.15.49-.81,2.76-1.22,4.84-1.22,6.24,0,1.55.56,2.33,1.68,2.33.57,0,1.2-.24,1.88-.73.68-.49,1.16-1.04,1.45-1.66Z"/>
          <path class="cls-4" d="M116,231.06c.02.16.03.3.03.43,0,1.93-.66,3.62-1.97,5.06-1.31,1.44-2.85,2.16-4.61,2.16-1.35,0-2.44-.43-3.29-1.29s-1.27-1.98-1.27-3.35c0-1.56.55-2.91,1.64-4.05,1.09-1.15,2.38-1.72,3.87-1.72.23,0,.47.03.72.09-.17-.3-.25-.56-.25-.76,0-.32.11-.63.33-.92,1.63.13,2.99.97,4.08,2.51,1.11.76,2.27,1.13,3.47,1.13.78,0,1.63-.26,2.54-.79l.5.85c-1.06.74-2.15,1.11-3.27,1.11-.74,0-1.59-.15-2.53-.46ZM113.72,230.21c-.56-.17-1.07-.43-1.54-.8-.34-.07-.62-.11-.85-.11-1.14,0-2.14.51-3.02,1.54s-1.32,2.19-1.32,3.5c0,.95.27,1.73.8,2.34.53.61,1.22.92,2.05.92,1.13,0,2.1-.57,2.92-1.71.82-1.14,1.22-2.5,1.22-4.08,0-.55-.09-1.08-.26-1.6Z"/>
        </g>
        <path class="cls-4" d="M127.94,238.68c.17-.59.25-1.28.25-2.06,0-1.89-.23-3.76-.69-5.59-.46-1.83-1.03-3.12-1.7-3.86.62-.27,1.13-.41,1.53-.41.72,0,1.33.84,1.83,2.53.5,1.68.84,4.04,1.03,7.07.98-1.27,1.82-2.63,2.5-4.07.68-1.44,1.02-2.57,1.02-3.39,0-.06,0-.17-.01-.33.58-.21,1.03-.32,1.34-.32.58,0,.87.22.87.66,0,.14-.12.87-.35,2.2-.05.32-.09.61-.12.85l-.06.68c-.05.53-.07,1.12-.07,1.79,0,1.87.43,2.8,1.28,2.8.79,0,1.48-.68,2.08-2.04.6-1.36.9-2.93.9-4.7,0-1.27-.32-2.02-.95-2.28.6-.47,1.16-.7,1.68-.7.8,0,1.21.62,1.21,1.87,0,1.83-.64,3.94-1.93,6.33-1.12,2.09-2.36,3.13-3.7,3.13-1.52,0-2.28-1.28-2.28-3.85l.07-2.34c-.76,1.71-1.57,3.15-2.43,4.33-.85,1.14-1.95,1.72-3.29,1.72Z"/>
        <g>
          <path class="cls-4" d="M153.93,231.06c.02.16.03.3.03.43,0,1.93-.66,3.62-1.97,5.06-1.31,1.44-2.85,2.16-4.61,2.16-1.35,0-2.44-.43-3.29-1.29-.85-.86-1.27-1.98-1.27-3.35,0-1.56.55-2.91,1.64-4.05,1.09-1.15,2.38-1.72,3.87-1.72.23,0,.47.03.72.09-.17-.3-.25-.56-.25-.76,0-.32.11-.63.33-.92,1.63.13,2.99.97,4.08,2.51,1.11.76,2.27,1.13,3.47,1.13.78,0,1.63-.26,2.54-.79l.5.85c-1.06.74-2.15,1.11-3.27,1.11-.74,0-1.59-.15-2.53-.46ZM151.65,230.21c-.56-.17-1.07-.43-1.54-.8-.34-.07-.62-.11-.85-.11-1.14,0-2.14.51-3.02,1.54s-1.32,2.19-1.32,3.5c0,.95.27,1.73.8,2.34s1.22.92,2.05.92c1.13,0,2.1-.57,2.92-1.71.82-1.14,1.22-2.5,1.22-4.08,0-.55-.09-1.08-.26-1.6Z"/>
          <path class="cls-4" d="M159.4,238.39c-.46.21-.82.32-1.1.32-.69,0-1.03-.3-1.03-.9,0-.31.12-1.07.36-2.3l.5-2.5c.31-1.49.46-2.59.46-3.3,0-.39-.11-.71-.33-.97.7-.24,1.28-.36,1.72-.36.47,0,.7.3.7.89,0,.37-.16,1.34-.5,2.9l-.57,2.92c1.26-2.46,2.53-4.36,3.81-5.73,1.28-1.36,2.44-2.04,3.48-2.04.37,0,.69.1.95.32.27.21.4.47.4.77,0,.47-.51,1.09-1.53,1.87-.25-.53-.61-.79-1.08-.79-.85,0-1.93.9-3.25,2.71-.82,1.12-1.52,2.28-2.13,3.48s-.9,2.05-.9,2.55v.17Z"/>
          <path class="cls-4" d="M171.01,232.73l-.48,2.39c-.17.84-.25,1.57-.25,2.19,0,.39.09.74.26,1.06-.69.23-1.2.34-1.55.34-.55,0-.82-.31-.82-.94,0-.49.11-1.29.33-2.4l2.46-12.39c-.62.22-1.14.33-1.58.33-.78,0-1.17-.35-1.17-1.05,0-.23.07-.65.2-1.24.49.49,1.08.73,1.77.73.89,0,1.94-.29,3.15-.87l-2.21,11.32c1.06-1.27,2.2-2.4,3.44-3.39,1.24-.99,2.12-1.48,2.64-1.48.31,0,.67.45,1.06,1.35-.66.07-1.55.44-2.68,1.09-1.13.66-2.06,1.34-2.78,2.06,1.68,2.66,3.16,3.99,4.41,3.99.59,0,1.16-.21,1.73-.64s1.31-1.21,2.25-2.36c.89-1.1,1.62-2.12,2.19-3.08l.83.48c-1.22,2.24-2.5,4.05-3.86,5.43-1.36,1.38-2.53,2.07-3.52,2.07-.82,0-1.81-.51-2.99-1.52-1.18-1.01-2.12-2.17-2.81-3.47Z"/>
        </g>
        <path class="cls-4" d="M186.52,234.85h-.38l-.88-8.13c-.04-.36-.06-.62-.06-.79,0-.42.11-.76.34-1.01s.49-.38.81-.38.58.13.8.38.33.63.33,1.14c0,.16-.01.38-.04.67l-.9,8.13ZM186.32,236.52c.31,0,.57.11.79.33s.33.48.33.78-.11.57-.33.79-.48.33-.79.33-.57-.11-.79-.33-.33-.48-.33-.79.11-.56.33-.78.48-.33.79-.33Z"/>
      </g>
      <g>
        <text class="cls-2" transform="translate(113.23 169.95)"><tspan x="0" y="0"> </tspan></text>
        <path class="cls-4" d="M162.4,23.44c32.88,32.95,30.86,86.86-4.24,117.33-24.56,21.33-60.43,25.6-89.39,10.58-2.15,1.24-4.06,2.95-6.21,4.25-5.29,3.2-12.83,6.55-14.23-2.35-.78-4.97.65-10.44,1.78-15.27-8.7-8.66-15.61-18.92-19.81-30.51-11.68-32.26-1.51-68.29,25-89.71,31.83-25.72,78.23-23.26,107.11,5.67ZM156.21,22.71C102.2-23.69,19.7,21.64,29.77,91.91c2.54,17.69,11.42,33.85,24.46,45.89-.72,2.38-1.63,4.72-2.12,7.18-.52,2.61-1.52,8.51,1.73,9.69,1.62.59,3.63-.42,5.05-1.24,2.87-1.65,5.55-4.34,7.83-6.72,8.26,4.8,17.35,7.57,26.8,8.9,25.99,3.68,48.71-4.17,65.02-24.77.79-1,1.61-2.03,2.35-3.08.11-.15.5-.36.19-.56-8.23,8.79-18.81,15.72-30.19,19.78-16.1,5.74-32.77,5.54-49,.42-3.97-1.25-7.96-2.79-11.51-4.96,6.19-8.19,11.8-17.87,14.14-27.96.24-1.04.21-2.42.55-3.38,1.04-2.86,4.33-7.6,5.93-10.54.28-.51.57-1.05.72-1.62l.6,3.23c.48,1.39,1.88,1.44,3.15,1.17,1-.21,2.04-1.05,2.98-1.41-1.31,3.26-4.76,8.22-3.03,11.73.84,1.7,2.94,2.73,4.63,3.38,3.16-5.6,5.53-11.65,9.17-16.98,3.81,8.32,13.74,12.44,22.33,13.79,23.45,3.68,49.36-8.2,50.78-34.27,1.13-20.8-10.6-43.58-26.11-56.9Z"/>
        <path class="cls-1" d="M156.21,22.71c15.51,13.32,27.24,36.1,26.11,56.9-1.42,26.07-27.33,37.95-50.78,34.27-8.59-1.35-18.52-5.47-22.33-13.79-3.63,5.34-6.01,11.38-9.17,16.98-1.69-.65-3.79-1.68-4.63-3.38-1.73-3.5,1.72-8.47,3.03-11.73-.95.36-1.98,1.2-2.98,1.41-1.28.27-2.67.21-3.15-1.17l-.6-3.23c-.15.57-.44,1.11-.72,1.62-1.6,2.94-4.89,7.67-5.93,10.54-.35.95-.31,2.33-.55,3.38-2.34,10.09-7.95,19.77-14.14,27.96,3.54,2.18,7.54,3.71,11.51,4.96,16.23,5.12,32.91,5.32,49-.42,11.38-4.06,21.96-11,30.19-19.78.31.2-.08.41-.19.56-.73,1.05-1.55,2.08-2.35,3.08-16.3,20.59-39.02,28.44-65.02,24.77-9.46-1.34-18.55-4.1-26.8-8.9-2.27,2.38-4.96,5.07-7.83,6.72-1.42.82-3.42,1.83-5.05,1.24-3.24-1.18-2.24-7.08-1.73-9.69.49-2.45,1.39-4.79,2.12-7.18-13.03-12.05-21.92-28.2-24.46-45.89C19.7,21.64,102.2-23.69,156.21,22.71ZM62.5,79.5v-8.14c5.69-6.27,12.77-17.17,22.64-11.58,6.7,3.79,6.16,11.97,3.42,18.16s-7.9,11.2-12.95,15.31c2.59,1.65,4.21,4.03,5,6.98.19.7.17,1.43.33,2.1.04.17.06.42.28.36l56.91-81.19-29.65,48.85c-2.97,5.32-6.43,10.4-9.31,15.76-.99,1.83-3.99,7.19.4,6.38l7.97-5.88c8.66-12.44,16.8-26.68,27.14-37.8,1.12-1.21,3.81-4.12,5.33-4.41,1.64-.31,5.88-.26,5.95,2.1.02.79-3.36,5.04-4.08,5.95-5.58,7.14-12.01,13.66-17.03,21.24,6.56-2.93,14.91-7.38,22.32-6.49,3.67.44,8.67,4.96,9.11,8.67,1.24,10.48-14.23,18.24-22.78,19.67-3.7.62-9.27.48-12.82-.74-.98-.34-2.83-1.82-3.24.22-.37,1.82,2.32,6.26,3.57,7.68,9.76,11,30.51,8.38,41.64.82,25.77-17.52,11.71-55.23-6.16-73.14C109.01-17.2,27.86,21.58,34.8,88.39c1.73,16.66,9.68,32.7,21.9,44.06,2.64-5.47,5.97-11.04,9.66-15.89,2.48-3.26,5.36-6.73,9.03-8.65-.02-3.98-.28-8.51-3.9-10.92-2.82,2.05-8.95,6.98-12.33,3.73-2.51-2.41.65-6.35,2.81-7.82,2.7-1.85,5.7-2.29,8.89-1.6l.45-.11c5.56-4.93,13.31-13.15,12.75-21.14-.28-4.01-3.25-6.12-7.2-5.5-2.61.41-8.08,6.89-9.83,9.07-1.55,1.92-2.9,4.01-4.5,5.89ZM148.17,71.71c-1.92-1.82-5.07-1.21-7.46-.76-5.63,1.05-12.42,4.5-17.06,7.84s-8.65,7.41-10.42,12.87c2.79-.13,5.55.57,8.34.38,7.07-.46,22.67-7.47,26.37-13.68,1.23-2.07,2.23-4.76.23-6.65ZM74.06,117.71c-1.61.34-4.85,4.12-5.93,5.48-3.05,3.82-5.62,8.13-7.66,12.56l5.59,4.29c.4.16.68-.32.93-.59,3.27-3.54,9.47-15.06,9.35-19.8-.01-.42-.28-1.57-.62-1.81-.45-.27-1.15-.24-1.66-.13ZM62.12,143.86l-3.37-2.25c-.08,2.3.86,3.93,3.25,2.63l.11-.38Z"/>
        <path class="cls-4" d="M62.5,79.5c1.6-1.88,2.95-3.97,4.5-5.89,1.76-2.17,7.23-8.66,9.83-9.07,3.95-.62,6.92,1.49,7.2,5.5.57,8-7.19,16.21-12.75,21.14l-.45.11c-3.19-.7-6.18-.25-8.89,1.6-2.16,1.48-5.32,5.41-2.81,7.82,3.38,3.25,9.51-1.68,12.33-3.73,3.63,2.4,3.89,6.94,3.9,10.92-3.67,1.92-6.55,5.39-9.03,8.65-3.69,4.84-7.02,10.42-9.66,15.89-12.22-11.36-20.17-27.4-21.9-44.06C27.86,21.58,109.01-17.2,156.48,30.39c17.86,17.9,31.93,55.62,6.16,73.14-11.13,7.56-31.87,10.17-41.64-.82-1.26-1.42-3.94-5.85-3.57-7.68.41-2.04,2.27-.56,3.24-.22,3.55,1.22,9.13,1.36,12.82.74,8.55-1.43,24.01-9.19,22.78-19.67-.44-3.71-5.44-8.23-9.11-8.67-7.41-.89-15.76,3.56-22.32,6.49,5.02-7.57,11.45-14.1,17.03-21.24.71-.91,4.1-5.16,4.08-5.95-.07-2.36-4.32-2.41-5.95-2.1-1.52.28-4.2,3.2-5.33,4.41-10.34,11.12-18.48,25.35-27.14,37.8l-7.97,5.88c-4.39.8-1.38-4.55-.4-6.38,2.88-5.36,6.34-10.44,9.31-15.76l29.65-48.85-56.91,81.19c-.23.06-.24-.2-.28-.36-.16-.67-.14-1.4-.33-2.1-.79-2.95-2.41-5.33-5-6.98,5.05-4.11,10.27-9.27,12.95-15.31s3.28-14.37-3.42-18.16c-9.87-5.59-16.95,5.32-22.64,11.58v8.14Z"/>
        <path class="cls-4" d="M148.17,71.71c2,1.9,1,4.58-.23,6.65-3.7,6.21-19.3,13.22-26.37,13.68-2.79.18-5.55-.51-8.34-.38,1.78-5.47,5.86-9.59,10.42-12.87s11.43-6.79,17.06-7.84c2.39-.45,5.54-1.06,7.46.76Z"/>
        <path class="cls-4" d="M74.06,117.71c.5-.11,1.21-.14,1.66.13.34.24.61,1.39.62,1.81.12,4.74-6.07,16.27-9.35,19.8-.25.27-.53.75-.93.59l-5.59-4.29c2.04-4.43,4.61-8.75,7.66-12.56,1.09-1.36,4.32-5.14,5.93-5.48Z"/>
        <path class="cls-4" d="M62.12,143.86l-.11.38c-2.39,1.3-3.33-.33-3.25-2.63l3.37,2.25Z"/>
      </g>
    </g>
  </g>
</svg>