<?xml version="1.0" encoding="UTF-8"?><svg id="Layer_2" xmlns="http://www.w3.org/2000/svg" xmlns:xlink="http://www.w3.org/1999/xlink" viewBox="0 0 109.16 109.16"><defs><style>.cls-1{fill:#121212;}.cls-2{fill:url(#linear-gradient);}</style><linearGradient id="linear-gradient" x1="33.81" y1="54.58" x2="75.35" y2="54.58" gradientTransform="matrix(1, 0, 0, 1, 0, 0)" gradientUnits="userSpaceOnUse"><stop offset="0" stop-color="#ad684e"/><stop offset="1" stop-color="#e2a07f"/></linearGradient></defs><g id="Layer_1-2"><circle class="cls-1" cx="54.58" cy="54.58" r="54.58"/><path class="cls-2" d="M75.35,45.56c0-4.36-1.7-8.45-4.78-11.53-3.05-3.06-7.12-4.75-11.43-4.78h-.14c-3.39,.02-6.65,.69-9.72,1.99-3.02,1.28-5.73,3.1-8.05,5.43-2.33,2.32-4.15,5.03-5.43,8.05-1.32,3.12-1.99,6.44-1.99,9.86s.67,6.74,1.99,9.86c1.28,3.02,3.1,5.73,5.43,8.05,2.32,2.32,5.03,4.15,8.05,5.43,3.06,1.29,6.3,1.96,9.64,1.99v-18.04h.22c4.32-.03,8.38-1.72,11.44-4.78,3.08-3.08,4.78-7.18,4.78-11.53Zm-16.23,12.89h-.22v-.02c-2.03-.12-3.64-1.8-3.64-3.86s1.62-3.74,3.64-3.86v-3.43c-3.92,.12-7.07,3.34-7.07,7.29,0,2.55,1.3,4.87,3.48,6.21l.1,.07v15.34l-.26-.05c-4.36-.8-8.34-2.89-11.51-6.06-4.14-4.14-6.42-9.64-6.42-15.49s2.28-11.36,6.42-15.49c4.12-4.13,9.61-6.4,15.44-6.42,7.08,.03,12.84,5.81,12.84,12.89s-5.74,12.84-12.8,12.89Z"/></g></svg>