<svg xmlns="http://www.w3.org/2000/svg" xmlns:xlink="http://www.w3.org/1999/xlink" width="227.795" height="70.787" viewBox="0 0 227.795 70.787">
  <defs>
    <clipPath id="clip-path">
      <rect id="Rectangle_190" data-name="Rectangle 190" width="148.795" height="37.26" fill="#fff"/>
    </clipPath>
  </defs>
  <g id="Group_238" data-name="Group 238" transform="translate(-165 -36)">
    <g id="Group_186" data-name="Group 186" transform="translate(0.313)">
      <path id="Path_854" data-name="Path 854" d="M70.787,35.394A35.394,35.394,0,1,1,35.394,0,35.394,35.394,0,0,1,70.787,35.394" transform="translate(164.687 36)" fill="#fff"/>
      <path id="Path_853" data-name="Path 853" d="M201.446,178.062a10.647,10.647,0,0,0-7.465-18.176h-.065a16.459,16.459,0,0,0,.065,32.917V181.18a10.576,10.576,0,0,0,7.465-3.118M184.1,186.221a13.968,13.968,0,0,1,9.844-23.845,8.157,8.157,0,0,1,.021,16.313v-.012a2.346,2.346,0,1,1,0-4.693v-2.491a4.836,4.836,0,0,0-2.53,8.958v9.629a13.867,13.867,0,0,1-7.334-3.861" transform="translate(9.164 -104.885)" fill="#000"/>
    </g>
    <g id="Group_236" data-name="Group 236" transform="translate(244 53)" clip-path="url(#clip-path)">
      <path id="Path_958" data-name="Path 958" d="M16.129,0H0V36.838H8.623V26.68h7.506c9.954,0,16.181-5.1,16.181-13.314C32.31,5.1,26.083,0,16.129,0M15.65,19.734H8.623V6.946H15.65c5.271,0,7.931,2.369,7.931,6.42,0,4-2.66,6.368-7.931,6.368" transform="translate(0 0)" fill="#fff"/>
      <path id="Path_959" data-name="Path 959" d="M17.9,9.987c3.088,0,5.162-2,5.162-4.737,0-2.524-2.075-4.419-5.162-4.419s-5.162,2-5.162,4.577,2.075,4.58,5.162,4.58" transform="translate(21.938 1.431)" fill="#fff"/>
      <rect id="Rectangle_189" data-name="Rectangle 189" width="8.304" height="21.972" transform="translate(35.684 14.866)" fill="#fff"/>
      <path id="Path_960" data-name="Path 960" d="M39.084,31.712,32.8,22.9l-6.494,8.813h-9.05L28.278,17.238,17.632,2.977h9.317l6.066,8.386,6.23-8.386H48.08L37.434,17.023,48.5,31.712Z" transform="translate(29.732 5.127)" fill="#fff"/>
      <path id="Path_961" data-name="Path 961" d="M50.32,34.04a11.96,11.96,0,0,1-6.76,1.789c-6.76,0-10.7-3.42-10.7-10.156V13.012l-3.409-.049V6.649l3.409.046V.831h8.3V6.7H48.3v6.317H41.163V25.567c0,2.42,1.331,3.736,3.567,3.736a5.643,5.643,0,0,0,3.354-1.051Z" transform="translate(50.738 1.431)" fill="#fff"/>
      <path id="Path_962" data-name="Path 962" d="M50.662,2.976c-4.577,0-9.208,1.212-12.347,3.422L41.3,12.135A13.852,13.852,0,0,1,49.545,9.5c4.471,0,6.6,2.053,6.6,5.579h-6.6c-8.729,0-12.3,3.474-12.3,8.473,0,4.9,3.994,8.579,10.7,8.579,4.207,0,7.188-1.37,8.732-3.948v3.526h7.771V15.555c0-8.579-5.056-12.579-13.788-12.579m5.483,17.292a6.262,6.262,0,0,1-6.039,6.338h-.082c-2.927,0-4.686-1.367-4.686-3.42,0-1.895,1.225-3.316,5.11-3.316h5.7Z" transform="translate(64.165 5.126)" fill="#fff"/>
      <path id="Path_963" data-name="Path 963" d="M65.9,2.991v7.577c-.692-.052-1.225-.1-1.862-.1-4.58,0-7.613,2.472-7.613,7.893V31.726h-8.3V3.413h7.931V7.149C58.074,4.412,61.48,2.991,65.9,2.991" transform="translate(82.896 5.152)" fill="#fff"/>
    </g>
  </g>
</svg>
