<?xml version="1.0" encoding="UTF-8"?><svg id="Layer_2" xmlns="http://www.w3.org/2000/svg" viewBox="0 0 113.45 130.55"><defs><style>.cls-1{fill:#dfdfdf;}</style></defs><g id="Layer_1-2"><path class="cls-1" d="M24.59,112.15c0,6.32-4.74,10.25-12.31,10.25H6.56v7.82H0v-28.36H12.27c7.57,0,12.31,3.93,12.31,10.29Zm-6.64,0c0-3.12-2.03-4.94-6.04-4.94H6.56v9.84h5.35c4.01,0,6.04-1.82,6.04-4.9Zm12.37-1.5c2.35,0,3.93-1.54,3.93-3.65,0-1.94-1.58-3.4-3.93-3.4s-3.93,1.54-3.93,3.52,1.58,3.52,3.93,3.52Zm-3.16,19.57h6.32v-16.91h-6.32v16.91Zm24.64,0l-4.78-6.68-4.94,6.68h-6.89l8.38-10.98-8.1-10.82h7.09l4.62,6.36,4.74-6.36h6.72l-8.1,10.65,8.43,11.14h-7.17Zm24.19-1.05c-1.3,.93-3.2,1.38-5.14,1.38-5.14,0-8.14-2.63-8.14-7.82v-8.95h-3.36v-4.86h3.36v-5.31h6.32v5.31h5.43v4.86h-5.43v8.87c0,1.86,1.01,2.88,2.71,2.88,.93,0,1.86-.28,2.55-.81l1.7,4.46Zm21.38-11.38v12.44h-5.91v-2.71c-1.17,1.98-3.44,3.04-6.64,3.04-5.1,0-8.14-2.84-8.14-6.6s2.71-6.52,9.36-6.52h5.02c0-2.71-1.62-4.29-5.02-4.29-2.31,0-4.7,.77-6.28,2.03l-2.27-4.42c2.39-1.7,5.91-2.63,9.4-2.63,6.64,0,10.49,3.08,10.49,9.68Zm-6.32,5.55v-2.23h-4.33c-2.96,0-3.89,1.09-3.89,2.55,0,1.58,1.34,2.63,3.56,2.63,2.11,0,3.93-.97,4.66-2.96Zm22.42-15.23v5.83c-.53-.04-.93-.08-1.42-.08-3.48,0-5.79,1.9-5.79,6.08v10.29h-6.32v-21.79h6.04v2.88c1.54-2.11,4.13-3.2,7.49-3.2Z"/><path class="cls-1" d="M94.27,29.47c0-7.87-3.07-15.27-8.63-20.84C80.11,3.11,72.77,.05,64.97,0h-.26c-6.13,.04-12.02,1.25-17.56,3.6-5.46,2.31-10.35,5.61-14.55,9.81-4.2,4.2-7.5,9.1-9.81,14.55-2.39,5.64-3.6,11.64-3.6,17.82s1.21,12.18,3.6,17.82c2.31,5.45,5.61,10.35,9.81,14.55,4.2,4.2,9.1,7.5,14.55,9.81,5.52,2.34,11.38,3.54,17.42,3.6V58.95h.4c7.81-.05,15.15-3.11,20.67-8.63,5.57-5.57,8.63-12.97,8.63-20.85Zm-29.33,23.29h-.4v-.04c-3.67-.21-6.59-3.26-6.59-6.98s2.92-6.77,6.59-6.98v-6.19c-7.08,.21-12.77,6.04-12.77,13.17,0,4.6,2.35,8.8,6.28,11.22l.19,.12v27.72l-.47-.09c-7.89-1.44-15.08-5.22-20.79-10.94-7.48-7.48-11.6-17.42-11.6-28s4.12-20.52,11.6-28c7.45-7.45,17.36-11.57,27.91-11.6,12.8,.05,23.2,10.5,23.2,23.29s-10.38,23.21-23.14,23.29Z"/></g></svg>