<?xml version="1.0" encoding="UTF-8"?><svg id="Layer_2" xmlns="http://www.w3.org/2000/svg" viewBox="0 0 75.08 91.56"><defs><style>.cls-1{fill:#000;}</style></defs><g id="Layer_1-2"><path class="cls-1" d="M75.08,29.47c0-7.87-3.07-15.27-8.63-20.84C60.93,3.11,53.59,.05,45.78,0h-.26c-6.13,.04-12.02,1.25-17.56,3.6-5.46,2.31-10.35,5.61-14.55,9.81-4.2,4.2-7.5,9.1-9.81,14.55-2.39,5.64-3.6,11.64-3.6,17.82s1.21,12.18,3.6,17.82c2.31,5.45,5.61,10.35,9.81,14.55,4.2,4.2,9.1,7.5,14.55,9.81,5.52,2.34,11.38,3.54,17.42,3.6V58.95h.4c7.81-.05,15.15-3.11,20.67-8.63,5.57-5.57,8.63-12.97,8.63-20.85Zm-29.33,23.29h-.4v-.04c-3.67-.21-6.59-3.26-6.59-6.98s2.92-6.77,6.59-6.98v-6.19c-7.08,.21-12.77,6.04-12.77,13.17,0,4.6,2.35,8.8,6.28,11.22l.19,.12v27.72l-.47-.09c-7.89-1.44-15.08-5.22-20.79-10.94-7.48-7.48-11.6-17.42-11.6-28s4.12-20.52,11.6-28c7.45-7.45,17.36-11.57,27.91-11.6,12.8,.05,23.2,10.5,23.2,23.29s-10.38,23.21-23.14,23.29Z"/></g></svg>
