<?xml version="1.0" encoding="utf-8"?>
<!-- Generator: Adobe Illustrator 26.3.1, SVG Export Plug-In . SVG Version: 6.00 Build 0)  -->
<svg version="1.1" id="Layer_2_00000063601460782755132590000006396117463798333871_"
	 xmlns="http://www.w3.org/2000/svg" xmlns:xlink="http://www.w3.org/1999/xlink" x="0px" y="0px" viewBox="0 0 576.1 181.7"
	 style="enable-background:new 0 0 576.1 181.7;" xml:space="preserve">
<style type="text/css">
	.st0{enable-background:new    ;}
	.st1{fill:#FFFFFF;}
	.st2{clip-path:url(#SVGID_00000159463170542882618700000014816204136358401161_);}
</style>
<g>
	<g class="st0">
		<path class="st1" d="M278.6,69c0.8-0.8,1.7-0.9,2.7-0.2c0.9,0.7,1,1.5,0.3,2.3c-0.5,0.5-1.7,1.8-3.5,3.8c-1.8,2-3.1,3.4-3.8,4.1
			c-0.7,0.7-1.8,1.9-3.5,3.6c-1.6,1.7-3,3-3.9,3.9c-1,0.9-2.2,2.1-3.6,3.4c-1.4,1.4-2.8,2.6-4.2,3.7c-1.4,1.1-2.7,2.1-4.1,3.1
			c-2.3,1.7-4.2,3-5.8,4.1s-3.6,2.4-6.2,3.9c-2.5,1.5-4.8,2.7-6.9,3.5c-2.1,0.9-4.3,1.5-6.8,2.1c-2.5,0.5-4.8,0.7-7,0.4
			c-2.9-0.3-5.3-1.1-7.4-2.4c-2.1-1.3-3.7-2.9-4.9-4.8c-1.2-1.9-2.1-4.1-2.7-6.6c-0.6-2.5-1-5-1-7.6c-0.1-2.5,0.1-5.2,0.4-8
			c0.3-2.8,0.8-5.3,1.3-7.6c0.5-2.3,1.1-4.5,1.9-6.7c5.5-16.8,13.3-32.9,23.3-48.4c1-1.6,1.8-2.9,2.6-3.9c0.7-1.1,1.8-2.4,3.1-4.1
			c1.4-1.7,2.6-3.1,3.7-4.2c1.1-1.1,2.5-2.3,4-3.4s3.1-2,4.5-2.5c1.5-0.5,3-0.7,4.8-0.6c1.7,0.1,3.4,0.5,5.1,1.4
			c1.1,0.6,2.1,1.4,3,2.3c0.9,0.9,1.5,2,2.1,3.3c0.5,1.3,0.9,2.5,1.3,3.7c0.3,1.1,0.5,2.6,0.6,4.3c0.1,1.7,0.1,3.1,0.1,4.2
			c0,1.1-0.1,2.6-0.2,4.4c-0.2,1.8-0.3,3.1-0.4,3.9c-0.1,0.8-0.3,2-0.5,3.6c-0.1,0.7-0.5,1.2-1.1,1.4c-0.7,0.2-1.2,0.2-1.8-0.2
			c-0.5-0.4-0.8-0.9-0.7-1.6c0.2-1.5,0.3-2.7,0.4-3.6c0.1-0.9,0.3-2.3,0.4-4.2c0.2-1.9,0.2-3.5,0.1-4.8c-0.1-1.3-0.2-2.8-0.4-4.5
			c-0.2-1.7-0.5-3.1-1-4.3c-0.5-1.1-1.2-2.2-1.9-3.1c-0.8-1-1.8-1.6-3-2c-1.2-0.4-2.7-0.4-4.3-0.1c-1.1,0.2-2.3,0.5-3.4,1
			c-1.1,0.5-2.1,1.1-3.2,1.9c-1,0.8-2,1.6-2.8,2.4c-0.9,0.8-1.8,1.8-2.7,3c-0.9,1.2-1.7,2.2-2.4,3.2c-0.7,0.9-1.4,2.1-2.3,3.4
			c-0.8,1.4-1.5,2.5-2,3.3c-0.5,0.9-1.1,2-1.9,3.3c-0.8,1.4-1.3,2.3-1.6,3C223.3,42.5,217.2,56,213,69c-2.7,8.3-3.8,15.4-3.4,21.4
			c0.3,3.4,1.1,6.5,2.7,9.4c1.5,2.9,3.7,5,6.5,6.3c1.1,0.5,2.2,0.9,3.5,1.1c1.2,0.2,2.4,0.2,3.5,0.1c1.1-0.1,2.3-0.4,3.6-0.7
			c1.3-0.3,2.4-0.7,3.4-1.1s2.1-0.9,3.3-1.5c4.1-2,8-4.2,11.8-6.8c3.8-2.5,7.6-5.5,11.3-8.9c3.7-3.4,6.9-6.4,9.5-9
			C271.3,76.7,274.6,73.2,278.6,69z"/>
		<path class="st1" d="M312.4,63.7c0.5-0.1,0.9,0,1.3,0.4c0.4,0.3,0.6,0.7,0.7,1.2s0,0.9-0.4,1.4c-0.4,0.5-0.8,1-1.3,1.6
			c-0.5,0.6-1.3,1.4-2.4,2.5c-1.1,1.1-2.2,2.1-3.3,2.9c-1.1,0.8-2.3,1.6-3.7,2.2c-1.4,0.6-2.7,0.9-4,0.9s-2.4-0.3-3.4-0.9
			c-1.6-0.9-2.4-2.6-2.4-5.1c-3.5,4.3-6.8,6-9.9,5.1c-2.5-0.7-3.8-2.5-3.9-5.4c-0.1-2,0.7-4.4,2.1-7.3c1.5-2.8,3.3-5.3,5.3-7.5
			c2.1-2.2,4-3.5,5.6-4c1.5-0.5,2.8-0.3,4,0.4c0.7,0.4,1.3,1,1.8,1.9c0-0.1,0-0.1,0-0.2c0.3-0.4,0.6-0.7,1.1-0.9
			c0.4-0.2,0.9-0.2,1.3,0c0.4,0.2,0.8,0.5,1,1c0.2,0.5,0.2,0.9,0,1.3c-0.7,1.8-1.5,3.7-2.4,5.5c-1.1,3-1.9,5.5-2.2,7.6
			c-0.3,2.1-0.2,3.5,0.5,4.1c0.7,0.5,1.6,0.6,2.7,0.3c1-0.3,2.1-0.8,3-1.4c1-0.6,2-1.4,3.1-2.3c1.1-1,2-1.8,2.7-2.7
			c0.7-0.8,1.4-1.5,1.9-2.2C311.5,64,311.9,63.8,312.4,63.7z M296.2,59.4c0.1-0.3,0.2-0.6,0.4-0.9c-0.2-0.3-0.4-0.5-0.5-0.9
			c-0.2-1.2-0.6-2-1.2-2.3c-0.1-0.1-0.2-0.2-0.4-0.2c-0.2,0-0.3,0-0.5,0.1c-1.9,0.6-4.2,2.7-6.7,6.3c-2.6,3.6-3.8,6.6-3.8,9
			c0,1,0.4,1.6,1.2,1.9c1.5,0.4,3.3-0.7,5.4-3.2C292.2,66.6,294.2,63.3,296.2,59.4z"/>
		<path class="st1" d="M338.8,73c0.5-0.1,0.9-0.1,1.4,0.2c0.4,0.3,0.7,0.6,0.8,1.1c0.1,0.5,0.1,0.9-0.2,1.4
			c-0.2,0.3-0.4,0.7-0.7,1.2c-0.3,0.5-1,1.3-1.9,2.3c-1,1.1-2,2-3,2.8c-1.1,0.8-2.4,1.6-4,2.3c-1.6,0.7-3.3,1-4.9,1
			c-0.8,0-1.7-0.1-2.5-0.2c-5.1-1-8.6-4.4-10.5-10.3c-1.9-5.8-2-13.6-0.3-23.3c0.7-4,1.7-8.2,3-12.7c1.3-4.4,2.8-8.8,4.6-13
			c1.8-4.2,3.6-8,5.6-11.3c2-3.3,4.1-5.9,6.3-7.8c2.2-1.9,4.3-2.7,6.4-2.4c0.1,0,0.2,0,0.3,0.1c1.6,0.5,2.6,1.6,3.2,3.3
			c0.7,2.2,0.4,5.7-1.1,10.4c-1.4,4.7-3.3,9.4-5.5,14c-2.3,4.7-5,9.8-8.2,15.4c-3.2,5.6-5.6,9.7-7.2,12.3c-1.6,2.7-3.1,5-4.4,7
			c-0.1,0.2-0.2,0.3-0.4,0.4c0.6,8.5,3.6,13.2,8.9,14.3c1.5,0.3,2.9,0.2,4.4-0.3c1.5-0.4,2.7-1,3.7-1.8c1-0.7,1.9-1.6,2.8-2.5
			c0.9-1,1.5-1.7,1.8-2.1s0.5-0.8,0.6-1.1C337.9,73.4,338.3,73.2,338.8,73z M316.5,52.2c-0.5,3-0.9,5.8-1,8.5
			c4.3-6.8,8.2-13.4,11.8-20c3.6-6.6,6.6-13,9-19.1s3.3-10.3,2.5-12.6c-0.2-0.5-0.4-0.8-0.8-1h-0.2c-1.5,0-3.2,1.3-5.3,3.9
			c-2.1,2.6-4.1,5.9-6.2,10c-2,4.1-4,8.8-5.8,14.3C318.7,41.6,317.4,46.9,316.5,52.2z"/>
		<path class="st1" d="M364.9,73c0.5-0.1,0.9-0.1,1.4,0.2c0.4,0.3,0.7,0.6,0.8,1.1c0.1,0.5,0.1,0.9-0.2,1.4
			c-0.2,0.3-0.4,0.7-0.7,1.2c-0.3,0.5-1,1.3-1.9,2.3c-1,1.1-2,2-3,2.8c-1.1,0.8-2.4,1.6-4,2.3c-1.6,0.7-3.3,1-4.9,1
			c-0.8,0-1.7-0.1-2.5-0.2c-5.1-1-8.6-4.4-10.5-10.3c-1.9-5.8-2-13.6-0.3-23.3c0.7-4,1.7-8.2,3-12.7c1.3-4.4,2.8-8.8,4.6-13
			c1.8-4.2,3.6-8,5.6-11.3c2-3.3,4.1-5.9,6.3-7.8c2.2-1.9,4.3-2.7,6.4-2.4c0.1,0,0.2,0,0.3,0.1c1.6,0.5,2.6,1.6,3.2,3.3
			c0.7,2.2,0.4,5.7-1.1,10.4c-1.4,4.7-3.3,9.4-5.5,14c-2.3,4.7-5,9.8-8.2,15.4c-3.2,5.6-5.6,9.7-7.2,12.3c-1.6,2.7-3.1,5-4.4,7
			c-0.1,0.2-0.2,0.3-0.4,0.4c0.6,8.5,3.6,13.2,8.9,14.3c1.5,0.3,2.9,0.2,4.4-0.3c1.5-0.4,2.7-1,3.7-1.8c1-0.7,1.9-1.6,2.8-2.5
			c0.9-1,1.5-1.7,1.8-2.1s0.5-0.8,0.6-1.1C364.1,73.4,364.5,73.2,364.9,73z M342.6,52.2c-0.5,3-0.9,5.8-1,8.5
			c4.3-6.8,8.2-13.4,11.8-20c3.6-6.6,6.6-13,9-19.1s3.3-10.3,2.5-12.6c-0.2-0.5-0.4-0.8-0.8-1H364c-1.5,0-3.2,1.3-5.3,3.9
			c-2.1,2.6-4.1,5.9-6.2,10c-2,4.1-4,8.8-5.8,14.3C344.8,41.6,343.5,46.9,342.6,52.2z"/>
	</g>
	<g class="st0">
		<path class="st1" d="M252.2,108.8c4.2,1.9,7.4,4.6,9.7,8.1c2.3,3.5,3.4,7.6,3.4,12.4c0,4.7-1.1,8.9-3.4,12.3
			c-2.3,3.5-5.5,6.2-9.7,8.1c-4.2,1.9-9.2,2.8-14.9,2.8h-11v16.5h-17.8v-63h28.8C243.1,105.9,248,106.9,252.2,108.8z M244.6,136
			c1.9-1.6,2.8-3.9,2.8-6.8c0-2.9-0.9-5.2-2.8-6.8c-1.9-1.6-4.6-2.4-8.3-2.4h-9.9v18.4h9.9C240,138.4,242.7,137.6,244.6,136z"/>
		<path class="st1" d="M274,105.9h17.8v63H274V105.9z"/>
		<path class="st1" d="M344.3,168.9l-13.1-19.5l-12.9,19.5H298l23-31.9l-22-31.1h20.1l12.6,18.2l12.4-18.2h19.3l-22,30.4l23.4,32.6
			H344.3z"/>
		<path class="st1" d="M381.6,120.1h-19.4v-14.1h56.4v14.1h-19.3v48.9h-17.8V120.1z"/>
		<path class="st1" d="M464.4,156.7h-26.6l-5,12.2h-18.2l27.8-63h17.6l27.9,63h-18.5L464.4,156.7z M459.1,143.6l-8.1-20.2l-8.1,20.2
			H459.1z"/>
		<path class="st1" d="M520.4,152.2h-9.7v16.7h-17.8v-63h28.8c5.7,0,10.7,0.9,14.9,2.8c4.2,1.9,7.4,4.6,9.7,8.1
			c2.3,3.5,3.4,7.6,3.4,12.4c0,4.6-1.1,8.5-3.2,11.9c-2.1,3.4-5.2,6-9.1,8l13.6,19.8h-19.1L520.4,152.2z M528.9,122.4
			c-1.9-1.6-4.6-2.4-8.3-2.4h-9.9v18.4h9.9c3.7,0,6.4-0.8,8.3-2.4c1.9-1.6,2.8-3.9,2.8-6.8C531.7,126.3,530.7,124,528.9,122.4z"/>
		<path class="st1" d="M558.6,166.9c-2-1.9-3-4.3-3-7.3c0-3,1-5.4,2.9-7.3c1.9-1.9,4.4-2.8,7.3-2.8c3,0,5.5,0.9,7.4,2.8
			c1.9,1.9,2.9,4.3,2.9,7.3c0,2.9-1,5.4-2.9,7.3c-2,1.9-4.4,2.9-7.3,2.9C563,169.7,560.6,168.8,558.6,166.9z"/>
	</g>
	<g id="Group_242" transform="translate(0 18.13)">
		<g>
			<defs>
				<rect id="SVGID_1_" y="-9.1" width="172.6" height="172.6"/>
			</defs>
			<clipPath id="SVGID_00000178902940756337767880000018028726334517912757_">
				<use xlink:href="#SVGID_1_"  style="overflow:visible;"/>
			</clipPath>
			
				<g id="Group_240" transform="translate(0 0)" style="clip-path:url(#SVGID_00000178902940756337767880000018028726334517912757_);">
				<path id="Path_970" class="st1" d="M86.3,44.3c-18.2,0-33,14.8-33,33s14.8,33,33,33c18.2,0,33-14.8,33-33v0
					C119.2,59,104.5,44.3,86.3,44.3 M86.3,107.9c-17,0-30.7-13.7-30.7-30.7s13.7-30.7,30.7-30.7S117,60.3,117,77.2l0,0
					C117,94.2,103.2,107.9,86.3,107.9"/>
				<path id="Path_971" class="st1" d="M89,62.2L89,62.2L89,62.2L89,62.2L89,62.2c-4,0-7.8,1.6-10.7,4.4c-5.9,5.9-5.9,15.4,0,21.3
					c2.8,2.8,6.7,4.4,10.7,4.4V81.7c5.4,0,9.8-4.4,9.8-9.8C98.7,66.5,94.4,62.2,89,62.2 M89,79.4L89,79.4c-1.2,0-2.2-1-2.2-2.2
					c0-1.2,1-2.2,2.2-2.2v-2.3c-2.4,0-4.4,2-4.4,4.4c0,1.5,0.8,3,2.1,3.8v8.8c-6.9-1.3-11.5-8-10.2-14.9c1.1-6,6.4-10.4,12.5-10.4
					c4.1,0,7.5,3.3,7.5,7.5C96.4,76,93.1,79.4,89,79.4"/>
				<path id="Path_972" class="st1" d="M2.6,101.6c-1,0-1.8,0.8-1.9,1.8c0,1,0.8,1.8,1.8,1.9c1,0,1.8-0.8,1.8-1.9
					C4.4,102.4,3.6,101.6,2.6,101.6"/>
				<path id="Path_973" class="st1" d="M2.6,120.9c1,0,1.8-0.9,1.8-1.9c0-1-0.8-1.7-1.7-1.8c-1,0-1.8,0.8-1.8,1.9
					C0.8,120.1,1.6,120.9,2.6,120.9"/>
				<path id="Path_974" class="st1" d="M4.4,108.7c0.1-1-0.7-1.8-1.7-1.9c0,0-0.1,0-0.1,0c-1,0-1.8,0.8-1.8,1.8
					c0,0.9,0.8,1.7,1.7,1.8C3.5,110.5,4.4,109.7,4.4,108.7C4.4,108.7,4.4,108.7,4.4,108.7"/>
				<path id="Path_975" class="st1" d="M2.6,115.7c1,0,1.8-0.7,1.8-1.7c0,0,0,0,0,0c0-1-0.8-1.8-1.8-1.9s-1.8,0.8-1.9,1.8
					c0,0,0,0,0,0C0.8,114.8,1.5,115.6,2.6,115.7C2.5,115.7,2.6,115.7,2.6,115.7"/>
				<path id="Path_976" class="st1" d="M2.6,68.6c1,0,1.8-0.9,1.8-1.9c0-1-0.8-1.8-1.8-1.8c-1,0-1.8,0.9-1.8,1.9
					C0.9,67.8,1.6,68.6,2.6,68.6"/>
				<path id="Path_977" class="st1" d="M13,94.7c1,0,1.8-0.8,1.8-1.8c0-1-0.8-1.8-1.8-1.8c-1,0-1.8,0.8-1.8,1.8
					C11.2,93.9,12,94.7,13,94.7"/>
				<path id="Path_978" class="st1" d="M2.6,94.7c1,0,1.8-0.8,1.8-1.8c0-1-0.8-1.8-1.8-1.8c-1,0-1.8,0.8-1.9,1.8
					C0.7,93.9,1.5,94.7,2.6,94.7C2.6,94.7,2.6,94.7,2.6,94.7"/>
				<path id="Path_979" class="st1" d="M7.9,96.3c-1,0-1.9,0.8-1.9,1.8c0,0,0,0,0,0c0,1,0.8,1.8,1.8,1.8c1,0,1.8-0.8,1.8-1.8
					C9.6,97.2,8.9,96.4,7.9,96.3"/>
				<path id="Path_980" class="st1" d="M13,38.8c-1,0-1.8,0.8-1.8,1.8s0.8,1.8,1.8,1.8c1,0,1.9-0.8,1.8-1.9
					C14.9,39.6,14,38.8,13,38.8"/>
				<path id="Path_981" class="st1" d="M2.6,73.8c1,0,1.8-0.9,1.8-1.9c0-1-0.8-1.8-1.8-1.8c-1,0-1.8,0.8-1.8,1.8
					C0.8,73,1.6,73.8,2.6,73.8"/>
				<path id="Path_982" class="st1" d="M13,49.2c-1,0.1-1.8,1-1.7,2c0.1,1,0.9,1.7,1.8,1.7c1,0,1.8-0.8,1.8-1.8
					C14.9,50.1,14.1,49.2,13,49.2C13,49.2,13,49.2,13,49.2"/>
				<path id="Path_983" class="st1" d="M7.8,80.6c-1,0-1.8,0.8-1.8,1.8c0,1,0.8,1.8,1.8,1.8c0,0,0,0,0.1,0c1,0,1.8-0.9,1.8-1.9
					C9.6,81.4,8.8,80.6,7.8,80.6"/>
				<path id="Path_984" class="st1" d="M13.1,84.3c1,0,1.8-0.8,1.8-1.8c0-1-0.8-1.8-1.8-1.8c-1,0-1.9,0.8-1.9,1.8S12,84.3,13.1,84.3
					C13,84.3,13,84.3,13.1,84.3"/>
				<path id="Path_985" class="st1" d="M13.1,58.1c1,0,1.8-0.9,1.8-1.9c0-1-0.9-1.8-1.9-1.8c-1,0-1.8,0.8-1.8,1.8
					C11.2,57.3,12,58.1,13.1,58.1C13.1,58.1,13.1,58.1,13.1,58.1"/>
				<path id="Path_986" class="st1" d="M7.9,89.5c1,0,1.8-0.9,1.8-1.9c0-1-0.8-1.8-1.8-1.8c-1,0-1.8,0.8-1.8,1.8
					C6,88.7,6.8,89.5,7.9,89.5C7.9,89.5,7.9,89.5,7.9,89.5"/>
				<path id="Path_987" class="st1" d="M2.6,47.7c1,0,1.8-0.9,1.8-1.9c0-1-0.8-1.7-1.8-1.8c-1,0-1.8,0.8-1.9,1.8S1.5,47.6,2.6,47.7
					C2.6,47.7,2.6,47.7,2.6,47.7"/>
				<path id="Path_988" class="st1" d="M2.6,84.3c1,0,1.8-0.8,1.8-1.8c0-1-0.8-1.8-1.8-1.8s-1.8,0.8-1.8,1.8c0,0,0,0,0,0
					C0.8,83.5,1.6,84.3,2.6,84.3"/>
				<path id="Path_989" class="st1" d="M7.9,64.9c-1,0-1.9,0.8-1.9,1.8c0,1,0.8,1.9,1.8,1.9c0,0,0,0,0.1,0c1,0,1.8-0.8,1.8-1.8
					C9.6,65.8,8.9,65,7.9,64.9"/>
				<path id="Path_990" class="st1" d="M6,119c0,1,0.8,1.9,1.8,1.9c1,0,1.8-0.8,1.9-1.8c0-1-0.8-1.8-1.8-1.9
					C6.9,117.2,6.1,118,6,119"/>
				<path id="Path_991" class="st1" d="M9.7,93c0-1-0.8-1.9-1.8-1.9S6,91.9,6,92.9c0,1,0.8,1.8,1.8,1.8C8.8,94.7,9.6,94,9.7,93"/>
				<path id="Path_992" class="st1" d="M4.4,40.7c0-1-0.7-1.8-1.7-1.8c0,0,0,0,0,0c-1,0-1.8,0.8-1.9,1.8c0,1,0.8,1.8,1.8,1.9
					c0,0,0,0,0.1,0C3.6,42.4,4.4,41.6,4.4,40.7C4.4,40.7,4.4,40.7,4.4,40.7"/>
				<path id="Path_993" class="st1" d="M46.3,93c0-1-0.8-1.9-1.8-1.9c-1,0-1.9,0.8-1.9,1.8c0,1,0.8,1.9,1.8,1.9c0,0,0,0,0.1,0
					C45.4,94.7,46.3,93.9,46.3,93"/>
				<path id="Path_994" class="st1" d="M44.5,100c1,0,1.8-0.9,1.8-1.9c0-1-0.9-1.8-1.9-1.8c-1,0-1.8,0.9-1.8,1.9c0,0,0,0,0,0
					C42.7,99.2,43.5,100,44.5,100"/>
				<path id="Path_995" class="st1" d="M44.4,79c1,0,1.8-0.8,1.9-1.8c0-1-0.8-1.8-1.8-1.9c-1,0-1.8,0.7-1.9,1.7
					C42.6,78.2,43.4,79,44.4,79"/>
				<path id="Path_996" class="st1" d="M44.5,80.6c-1,0-1.8,0.8-1.8,1.8c0,1,0.8,1.8,1.8,1.8c1,0,1.8-0.8,1.8-1.8c0,0,0,0,0,0
					C46.3,81.5,45.5,80.7,44.5,80.6"/>
				<path id="Path_997" class="st1" d="M44.5,64.9c-1,0-1.8,0.8-1.8,1.8c0,1,0.8,1.8,1.8,1.8s1.8-0.8,1.8-1.8c0,0,0,0,0,0
					C46.3,65.8,45.5,65,44.5,64.9"/>
				<path id="Path_998" class="st1" d="M44.5,47.7c1,0,1.8-0.8,1.9-1.8c0-1-0.8-1.8-1.8-1.9c0,0-0.1,0-0.1,0c-1,0-1.9,0.8-1.9,1.8
					C42.6,46.9,43.5,47.7,44.5,47.7"/>
				<path id="Path_999" class="st1" d="M49.6,105.2c1,0,1.9-0.8,1.9-1.8c0-1-0.8-1.9-1.8-1.9s-1.9,0.8-1.9,1.8c0,0,0,0,0,0
					C47.9,104.4,48.7,105.2,49.6,105.2"/>
				<path id="Path_1000" class="st1" d="M42.6,56.3c0,1,0.9,1.8,1.9,1.8c1,0,1.8-0.8,1.8-1.8c0-1-0.8-1.9-1.8-1.9
					C43.5,54.4,42.6,55.2,42.6,56.3C42.6,56.3,42.6,56.3,42.6,56.3"/>
				<path id="Path_1001" class="st1" d="M46.3,30.1c0-1-0.9-1.8-1.9-1.8c-1,0-1.8,0.8-1.8,1.8c0,1,0.9,1.8,1.9,1.8
					C45.5,31.9,46.3,31.1,46.3,30.1"/>
				<path id="Path_1002" class="st1" d="M39.2,47.7c1,0,1.8-0.9,1.8-1.9c0-1-0.8-1.7-1.8-1.8c-1,0-1.8,0.8-1.8,1.8c0,0,0,0.1,0,0.1
					C37.4,46.9,38.2,47.7,39.2,47.7C39.2,47.7,39.2,47.7,39.2,47.7"/>
				<path id="Path_1003" class="st1" d="M37.4,56.2c0,1,0.8,1.9,1.8,1.9c0,0,0,0,0,0c1,0,1.8-0.8,1.8-1.8c0-1-0.8-1.8-1.8-1.8
					C38.3,54.5,37.4,55.3,37.4,56.2"/>
				<path id="Path_1004" class="st1" d="M49.7,42.4c1,0,1.8-0.8,1.8-1.8c0-1-0.8-1.8-1.8-1.8c-1,0-1.8,0.8-1.8,1.8
					C47.9,41.6,48.7,42.4,49.7,42.4C49.7,42.4,49.7,42.4,49.7,42.4"/>
				<path id="Path_1005" class="st1" d="M18.3,127C8.2,127,0,135.1,0,145.2c0,10.1,8.2,18.3,18.3,18.3c10.1,0,18.3-8.2,18.3-18.3
					c0,0,0,0,0,0C36.6,135.1,28.4,127,18.3,127 M18.3,158.3c-7.2,0-13.1-5.8-13.1-13.1c0-7.2,5.8-13.1,13.1-13.1
					c7.2,0,13.1,5.8,13.1,13.1C31.4,152.4,25.6,158.3,18.3,158.3C18.3,158.3,18.3,158.3,18.3,158.3"/>
				<path id="Path_1006" class="st1" d="M18.3,137.4c-4.3,0-7.8,3.5-7.8,7.9c0,4.3,3.5,7.8,7.9,7.8c4.3,0,7.8-3.5,7.8-7.8
					C26.1,140.9,22.6,137.4,18.3,137.4"/>
				<path id="Path_1007" class="st1" d="M44.4,23.1c-1,0-1.8,0.8-1.8,1.8c0,1,0.8,1.8,1.8,1.8c1,0,1.8-0.8,1.8-1.8
					C46.3,23.9,45.4,23.1,44.4,23.1"/>
				<path id="Path_1008" class="st1" d="M46.3,14.5c0-1-0.8-1.8-1.9-1.8c-1,0-1.8,0.8-1.8,1.8c0,1,0.8,1.9,1.8,1.9
					C45.4,16.3,46.3,15.5,46.3,14.5C46.3,14.5,46.3,14.5,46.3,14.5"/>
				<path id="Path_1009" class="st1" d="M44.4-4.7c1,0,1.9-0.8,1.9-1.8c0,0,0,0,0,0c0-1-0.8-1.8-1.9-1.8c-1,0-1.8,0.8-1.8,1.9
					C42.6-5.5,43.4-4.7,44.4-4.7"/>
				<path id="Path_1010" class="st1" d="M39.2,42.4c1,0,1.8-0.8,1.8-1.8s-0.8-1.8-1.8-1.8c-1,0-1.8,0.8-1.8,1.8
					C37.4,41.6,38.2,42.4,39.2,42.4C39.2,42.4,39.2,42.4,39.2,42.4"/>
				<path id="Path_1011" class="st1" d="M44.4,5.8c1,0,1.8-0.8,1.9-1.8c0-1-0.8-1.9-1.8-1.9c-1,0-1.9,0.8-1.9,1.8c0,0,0,0.1,0,0.1
					C42.6,5,43.4,5.8,44.4,5.8"/>
				<path id="Path_1012" class="st1" d="M39.3,63.3c1,0,1.8-0.9,1.8-1.9c0-1-0.8-1.7-1.8-1.8c-1,0-1.8,0.8-1.8,1.8
					S38.2,63.3,39.3,63.3C39.2,63.4,39.2,63.4,39.3,63.3"/>
				<path id="Path_1013" class="st1" d="M28.8,106.8c-1,0-1.8,0.8-1.8,1.8c0,1,0.8,1.8,1.8,1.8c1,0,1.8-0.8,1.8-1.8
					C30.6,107.6,29.8,106.8,28.8,106.8"/>
				<path id="Path_1014" class="st1" d="M28.7,79c1,0,1.8-0.8,1.8-1.8c0-1-0.8-1.8-1.8-1.8c-1,0-1.8,0.8-1.8,1.8
					C26.9,78.2,27.8,79,28.7,79"/>
				<path id="Path_1015" class="st1" d="M28.7,84.3c1,0,1.8-0.8,1.8-1.8c0-1-0.8-1.8-1.8-1.8c-1,0-1.8,0.8-1.8,1.8c0,0,0,0,0,0
					C26.9,83.5,27.7,84.3,28.7,84.3"/>
				<path id="Path_1016" class="st1" d="M28.8,115.7c1,0,1.8-0.8,1.8-1.8c0-1-0.8-1.9-1.8-1.9c-1,0-1.9,0.8-1.9,1.8
					S27.7,115.6,28.8,115.7C28.7,115.7,28.7,115.7,28.8,115.7"/>
				<path id="Path_1017" class="st1" d="M34,110.4c1,0,1.8-0.8,1.9-1.8c0,0,0,0,0-0.1c0-1-0.8-1.8-1.8-1.8c-1,0-1.8,0.8-1.8,1.8
					C32.2,109.6,33,110.4,34,110.4"/>
				<path id="Path_1018" class="st1" d="M34,120.9c1,0,1.8-0.8,1.9-1.8c0-1-0.8-1.8-1.8-1.9c-1,0-1.8,0.8-1.9,1.8c0,0,0,0,0,0.1
					C32.2,120.1,33,120.9,34,120.9"/>
				<path id="Path_1019" class="st1" d="M30.6,35.4c0-1-0.8-1.8-1.8-1.9c-1,0-1.9,0.8-1.9,1.8c0,1,0.8,1.9,1.8,1.9c0,0,0,0,0.1,0
					C29.7,37.2,30.5,36.4,30.6,35.4"/>
				<path id="Path_1020" class="st1" d="M28.8,58.1c1-0.1,1.8-0.9,1.8-1.9c0-1-0.8-1.8-1.9-1.8c-1,0-1.8,0.8-1.8,1.9
					C26.9,57.3,27.8,58.1,28.8,58.1C28.8,58.1,28.8,58.1,28.8,58.1"/>
				<path id="Path_1021" class="st1" d="M28.7,47.7c1,0,1.8-0.8,1.9-1.7c0.1-1-0.7-1.9-1.7-1.9s-1.9,0.7-1.9,1.7
					S27.7,47.6,28.7,47.7C28.7,47.7,28.7,47.7,28.7,47.7"/>
				<path id="Path_1022" class="st1" d="M28.8,96.3c-1,0-1.8,0.8-1.8,1.8c0,1,0.8,1.8,1.8,1.8c1,0,1.8-0.8,1.8-1.8c0,0,0,0,0,0
					C30.6,97.1,29.8,96.4,28.8,96.3"/>
				<path id="Path_1023" class="st1" d="M28.8,59.7c-1,0-1.8,0.8-1.8,1.8c0,1,0.8,1.8,1.8,1.8c1,0,1.8-0.8,1.8-1.8c0,0,0,0,0,0
					C30.6,60.6,29.8,59.8,28.8,59.7"/>
				<path id="Path_1024" class="st1" d="M28.8,68.6c1,0,1.8-0.8,1.8-1.8c0-1-0.8-1.8-1.8-1.8c-1,0-1.9,0.8-1.9,1.8
					S27.7,68.6,28.8,68.6C28.7,68.6,28.7,68.6,28.8,68.6"/>
				<path id="Path_1025" class="st1" d="M18.3-9.1C8.2-9.1,0-0.9,0,9.2s8.1,18.3,18.2,18.3s18.3-8.1,18.3-18.2c0,0,0,0,0,0
					C36.6-0.8,28.4-9,18.3-9.1 M18.3,22.3c-7.2,0-13.1-5.9-13.1-13.1S11.1-3.9,18.3-3.9S31.4,2,31.4,9.2c0,0,0,0,0,0
					C31.4,16.4,25.6,22.3,18.3,22.3C18.3,22.3,18.3,22.3,18.3,22.3"/>
				<path id="Path_1026" class="st1" d="M33.9,89.5c1,0,1.9-0.8,1.9-1.8c0-1-0.8-1.9-1.8-1.9l0,0c-1,0-1.8,0.8-1.8,1.8
					C32.2,88.7,33,89.5,33.9,89.5"/>
				<path id="Path_1027" class="st1" d="M18.3,1.4c-4.3,0-7.8,3.5-7.9,7.8s3.5,7.8,7.8,7.9c4.3,0,7.8-3.5,7.9-7.8
					C26.1,5,22.7,1.4,18.3,1.4"/>
				<path id="Path_1028" class="st1" d="M39.2,94.7c1,0,1.8-0.8,1.8-1.8c0-1-0.8-1.8-1.8-1.8c-1,0-1.8,0.8-1.8,1.8c0,0,0,0,0,0
					C37.4,93.9,38.2,94.7,39.2,94.7"/>
				<path id="Path_1029" class="st1" d="M39.2,68.6c1,0,1.8-0.8,1.8-1.9c0-1-0.8-1.8-1.8-1.8c-1,0-1.9,0.8-1.9,1.8
					C37.3,67.7,38.1,68.6,39.2,68.6C39.2,68.6,39.2,68.6,39.2,68.6"/>
				<path id="Path_1030" class="st1" d="M34,100c1,0,1.8-0.8,1.8-1.8c0-1-0.8-1.8-1.8-1.8c0,0,0,0,0,0c-1,0-1.8,0.9-1.7,1.9
					C32.2,99.2,33,100,34,100"/>
				<path id="Path_1031" class="st1" d="M35.8,77.2c0-1-0.8-1.8-1.8-1.8s-1.8,0.8-1.8,1.8c0,1,0.8,1.8,1.8,1.8c0,0,0,0,0,0
					C35,79.1,35.8,78.3,35.8,77.2C35.8,77.3,35.8,77.3,35.8,77.2"/>
				<path id="Path_1032" class="st1" d="M34,68.6c1,0,1.9-0.8,1.9-1.8s-0.8-1.9-1.8-1.9c-1,0-1.9,0.8-1.9,1.8c0,0,0,0,0,0
					C32.2,67.8,33,68.6,34,68.6"/>
				<path id="Path_1033" class="st1" d="M34,33.6c-1,0-1.8,0.9-1.8,1.9c0,1,0.8,1.7,1.7,1.8c1,0,1.8-0.8,1.8-1.8
					C35.8,34.4,35,33.6,34,33.6"/>
				<path id="Path_1034" class="st1" d="M34,47.7c1,0,1.8-0.8,1.8-1.8c0-1-0.8-1.8-1.8-1.8c-1,0-1.8,0.8-1.8,1.8c0,0,0,0,0,0
					C32.2,46.9,33,47.7,34,47.7C34,47.7,34,47.7,34,47.7"/>
				<path id="Path_1035" class="st1" d="M34,54.5c-1,0-1.8,0.8-1.8,1.8c0,1,0.8,1.8,1.8,1.8c1,0,1.8-0.8,1.8-1.8c0,0,0,0,0,0
					C35.8,55.3,34.9,54.5,34,54.5"/>
				<path id="Path_1036" class="st1" d="M13.1,120.9c1,0,1.8-0.8,1.8-1.9c0-1-0.8-1.8-1.8-1.8c-1,0-1.9,0.8-1.9,1.8
					C11.2,120,12,120.9,13.1,120.9C13,120.9,13,120.9,13.1,120.9"/>
				<path id="Path_1037" class="st1" d="M18.4,75.4c-1,0-1.8,0.8-1.9,1.8c0,1,0.8,1.8,1.8,1.9c1,0,1.8-0.8,1.9-1.8c0,0,0,0,0,0
					C20.1,76.3,19.4,75.5,18.4,75.4C18.4,75.4,18.4,75.4,18.4,75.4"/>
				<path id="Path_1038" class="st1" d="M18.2,58.1c1,0,1.8-0.8,1.9-1.8c0,0,0,0,0,0c0-1-0.8-1.8-1.8-1.8c-1,0-1.8,0.8-1.8,1.8
					C16.5,57.3,17.3,58.1,18.2,58.1"/>
				<path id="Path_1039" class="st1" d="M18.3,91.1c-1,0-1.8,0.8-1.9,1.8c0,1,0.8,1.8,1.8,1.9c1,0,1.8-0.8,1.9-1.8
					S19.3,91.1,18.3,91.1"/>
				<path id="Path_1040" class="st1" d="M18.3,85.9c-1,0-1.8,0.8-1.8,1.9c0,1,0.8,1.8,1.7,1.8c1,0,1.9-0.8,1.9-1.8
					C20.2,86.7,19.4,85.9,18.3,85.9C18.3,85.9,18.3,85.9,18.3,85.9"/>
				<path id="Path_1041" class="st1" d="M16.5,113.8c0,1,0.8,1.8,1.8,1.9c1,0,1.8-0.8,1.9-1.8l0,0c0-1-0.7-1.9-1.7-1.9
					c0,0,0,0-0.1,0C17.3,112,16.5,112.8,16.5,113.8C16.5,113.8,16.5,113.8,16.5,113.8"/>
				<path id="Path_1042" class="st1" d="M18.3,42.4c1,0,1.8-0.9,1.8-1.9s-0.9-1.8-1.9-1.8c-1,0-1.8,0.9-1.7,1.9
					C16.5,41.7,17.3,42.4,18.3,42.4"/>
				<path id="Path_1043" class="st1" d="M18.3,47.7c1,0,1.8-0.8,1.8-1.8c0-1-0.8-1.8-1.8-1.8s-1.8,0.8-1.8,1.8c0,0,0,0,0,0
					C16.5,46.9,17.3,47.7,18.3,47.7C18.3,47.7,18.3,47.7,18.3,47.7"/>
				<path id="Path_1044" class="st1" d="M13.1,115.7c1,0,1.8-0.8,1.8-1.8c0-1-0.8-1.9-1.9-1.9c0,0,0,0,0,0c-1,0-1.8,0.8-1.8,1.8
					S12,115.7,13.1,115.7"/>
				<path id="Path_1045" class="st1" d="M14.9,108.6c0-1-0.8-1.8-1.8-1.8c-1,0-1.8,0.8-1.8,1.8c0,1,0.8,1.8,1.8,1.8
					C14,110.5,14.9,109.6,14.9,108.6C14.9,108.6,14.9,108.6,14.9,108.6"/>
				<path id="Path_1046" class="st1" d="M14.9,87.7c0-1-0.8-1.8-1.8-1.9c-1,0-1.9,0.8-1.9,1.8c0,1,0.8,1.9,1.8,1.9c0,0,0,0,0.1,0
					C14.1,89.5,14.9,88.7,14.9,87.7"/>
				<path id="Path_1047" class="st1" d="M13.1,101.6c-1,0-1.9,0.8-1.9,1.8s0.8,1.9,1.8,1.9c1,0,1.9-0.8,1.9-1.8
					S14.1,101.6,13.1,101.6L13.1,101.6"/>
				<path id="Path_1048" class="st1" d="M23.6,110.4c1-0.1,1.8-0.9,1.7-1.9s-0.9-1.8-1.9-1.7c-1,0.1-1.7,0.9-1.7,1.8
					C21.7,109.6,22.5,110.4,23.6,110.4C23.6,110.4,23.6,110.4,23.6,110.4"/>
				<path id="Path_1049" class="st1" d="M23.6,91.1c-1,0-1.8,0.8-1.8,1.8s0.8,1.8,1.8,1.8c1,0,1.8-0.8,1.8-1.8c0,0,0,0,0,0
					C25.3,91.9,24.5,91.1,23.6,91.1C23.6,91.1,23.6,91.1,23.6,91.1"/>
				<path id="Path_1050" class="st1" d="M23.6,52.9c1,0,1.8-0.9,1.8-1.9c0-1-0.8-1.8-1.8-1.8c-1,0-1.8,0.8-1.8,1.8
					C21.7,52.1,22.5,52.9,23.6,52.9C23.5,52.9,23.6,52.9,23.6,52.9"/>
				<path id="Path_1051" class="st1" d="M23.6,68.6c1,0,1.8-0.9,1.8-1.9c0-1-0.9-1.8-1.9-1.8c-1,0-1.8,0.9-1.8,1.9
					C21.7,67.8,22.6,68.6,23.6,68.6"/>
				<path id="Path_1052" class="st1" d="M16.5,82.4c0,1,0.8,1.8,1.8,1.9c1,0,1.8-0.8,1.9-1.8l0,0c0-1-0.8-1.9-1.8-1.9c0,0,0,0,0,0
					C17.3,80.6,16.5,81.4,16.5,82.4"/>
				<path id="Path_1053" class="st1" d="M23.5,100c1,0,1.8-0.8,1.8-1.8s-0.8-1.8-1.8-1.8c-1,0-1.9,0.8-1.9,1.8c0,0,0,0,0,0
					C21.7,99.2,22.5,100,23.5,100"/>
				<path id="Path_1054" class="st1" d="M23.6,120.9c1,0,1.8-0.9,1.8-1.9c0-1-0.8-1.8-1.8-1.8c-1,0-1.9,0.8-1.9,1.8
					S22.5,120.9,23.6,120.9C23.5,120.9,23.5,120.9,23.6,120.9"/>
				<path id="Path_1055" class="st1" d="M18.3,120.9c1,0,1.8-0.9,1.8-1.9c0-1-0.8-1.8-1.8-1.8c-1,0-1.8,0.9-1.8,1.9
					C16.5,120.1,17.3,120.9,18.3,120.9"/>
				<path id="Path_1056" class="st1" d="M25.3,40.6c0-1-0.8-1.8-1.8-1.8c-1,0-1.8,0.8-1.8,1.7c0,1,0.8,1.9,1.8,1.9c0,0,0,0,0,0
					C24.5,42.4,25.3,41.6,25.3,40.6"/>
				<path id="Path_1057" class="st1" d="M18.3,64.9c-1,0-1.8,0.8-1.9,1.8c0,1,0.8,1.8,1.8,1.9c1,0,1.8-0.8,1.9-1.8
					C20.1,65.8,19.4,65,18.3,64.9C18.3,64.9,18.3,64.9,18.3,64.9"/>
				<path id="Path_1058" class="st1" d="M23.5,47.7c1,0,1.8-0.8,1.8-1.8c0-1-0.8-1.8-1.8-1.8c-1,0-1.8,0.8-1.9,1.8
					C21.7,46.8,22.5,47.6,23.5,47.7C23.5,47.7,23.5,47.7,23.5,47.7"/>
				<path id="Path_1059" class="st1" d="M112.4,21.5c1,0,1.8-0.8,1.9-1.8c0-1-0.8-1.8-1.8-1.8c-1,0-1.8,0.8-1.8,1.7
					C110.6,20.6,111.4,21.5,112.4,21.5"/>
				<path id="Path_1060" class="st1" d="M112.5,42.4c1,0,1.8-0.9,1.8-1.9c0-1-0.8-1.8-1.9-1.8s-1.8,0.8-1.8,1.9
					S111.5,42.5,112.5,42.4C112.5,42.4,112.5,42.4,112.5,42.4"/>
				<path id="Path_1061" class="st1" d="M112.3,0.6c1,0.1,1.9-0.7,2-1.7c0.1-1-0.7-1.9-1.7-2c-1-0.1-1.9,0.7-2,1.7l0,0
					C110.6-0.3,111.3,0.5,112.3,0.6"/>
				<path id="Path_1062" class="st1" d="M112.5,5.8c1-0.1,1.8-0.9,1.8-1.9c0-1-0.9-1.8-1.9-1.8c-1,0-1.8,0.8-1.8,1.8
					C110.6,5,111.5,5.8,112.5,5.8"/>
				<path id="Path_1063" class="st1" d="M114.3,14.4c0-1-0.9-1.8-1.9-1.8c-1,0-1.8,0.9-1.8,1.9c0,0,0,0,0,0.1c0.1,1,0.9,1.8,1.9,1.7
					C113.5,16.2,114.3,15.4,114.3,14.4"/>
				<path id="Path_1064" class="st1" d="M112.5,7.4c-1,0-1.8,0.8-1.8,1.8s0.8,1.8,1.8,1.8c1,0,1.8-0.8,1.8-1.8c0,0,0,0,0,0
					C114.3,8.3,113.5,7.5,112.5,7.4"/>
				<path id="Path_1065" class="st1" d="M41,87.7c0-1-0.8-1.8-1.8-1.9c-1,0-1.9,0.8-1.9,1.8c0,1,0.8,1.9,1.8,1.9c0,0,0,0,0,0
					C40.2,89.5,41,88.7,41,87.7"/>
				<path id="Path_1066" class="st1" d="M122.9,63.3c1,0,1.8-0.8,1.8-1.8c0-1-0.8-1.8-1.8-1.8c-1,0-1.8,0.8-1.9,1.7
					C121.1,62.5,121.9,63.3,122.9,63.3C122.9,63.3,122.9,63.3,122.9,63.3"/>
				<path id="Path_1067" class="st1" d="M123,84.3c1,0,1.8-0.9,1.8-1.9c0-1-0.9-1.8-1.9-1.8l0,0c-1,0-1.8,0.8-1.8,1.8
					C121.1,83.5,121.9,84.3,123,84.3C122.9,84.3,123,84.3,123,84.3"/>
				<path id="Path_1068" class="st1" d="M122.9,28.3c-1,0-1.8,0.8-1.8,1.8c0,1,0.8,1.8,1.8,1.8c1,0,1.8-0.8,1.8-1.8
					C124.7,29.2,123.9,28.3,122.9,28.3C122.9,28.3,122.9,28.3,122.9,28.3"/>
				<path id="Path_1069" class="st1" d="M117.7,0.6c1,0,1.8-0.8,1.8-1.8c0-1-0.8-1.8-1.8-1.8s-1.8,0.8-1.8,1.8c0,0,0,0,0,0
					C115.9-0.2,116.7,0.6,117.7,0.6"/>
				<path id="Path_1070" class="st1" d="M117.6-4.7c1,0,1.8-0.7,1.9-1.7c0,0,0,0,0,0c0-1-0.8-1.8-1.8-1.9c-1,0-1.8,0.8-1.9,1.8l0,0
					C115.8-5.5,116.6-4.7,117.6-4.7C117.6-4.7,117.6-4.7,117.6-4.7"/>
				<path id="Path_1071" class="st1" d="M115.9,9.2c0,1,0.8,1.8,1.8,1.8c1,0,1.8-0.8,1.8-1.8s-0.8-1.8-1.8-1.8c0,0,0,0,0,0
					C116.7,7.4,115.9,8.2,115.9,9.2C115.9,9.2,115.9,9.2,115.9,9.2"/>
				<path id="Path_1072" class="st1" d="M102,21.5c1,0,1.9-0.8,1.9-1.8c0-1-0.8-1.9-1.8-1.9c-1,0-1.9,0.8-1.9,1.8c0,0,0,0,0,0
					C100.2,20.7,101,21.5,102,21.5"/>
				<path id="Path_1073" class="st1" d="M102,42.4c1,0,1.8-0.8,1.8-1.8c0,0,0,0,0,0c0-1-0.8-1.8-1.8-1.8c-1,0-1.8,0.8-1.8,1.8
					S101,42.4,102,42.4C102,42.4,102,42.4,102,42.4"/>
				<path id="Path_1074" class="st1" d="M107.2,23.1c-1,0-1.8,0.8-1.8,1.8c0,1,0.8,1.8,1.8,1.9c0,0,0,0,0,0c1,0,1.8-0.9,1.8-1.9
					C109,23.9,108.2,23.1,107.2,23.1"/>
				<path id="Path_1075" class="st1" d="M103.8,35.5c0-1-0.8-1.8-1.8-1.9c-1,0-1.8,0.8-1.9,1.8c0,1,0.8,1.8,1.7,1.9
					C102.9,37.2,103.8,36.5,103.8,35.5"/>
				<path id="Path_1076" class="st1" d="M102,16.3c1,0,1.8-0.8,1.8-1.8c0,0,0,0,0,0c0-1-0.8-1.8-1.8-1.8s-1.8,0.8-1.8,1.8
					c0,0,0,0,0,0.1C100.2,15.5,101,16.3,102,16.3C102,16.3,102,16.3,102,16.3"/>
				<path id="Path_1077" class="st1" d="M96.7-4.7c1,0,1.9-0.8,1.9-1.8c0,0,0,0,0,0c0-1-0.8-1.8-1.9-1.8c-1,0-1.8,0.8-1.8,1.8
					C94.9-5.5,95.7-4.7,96.7-4.7"/>
				<path id="Path_1078" class="st1" d="M107.3,37.2c1,0,1.8-0.8,1.8-1.9c0-1-0.8-1.8-1.9-1.8c-1,0-1.8,0.8-1.8,1.8
					C105.4,36.4,106.2,37.2,107.3,37.2C107.2,37.2,107.3,37.2,107.3,37.2"/>
				<path id="Path_1079" class="st1" d="M107.2,28.3c-1,0-1.8,0.8-1.8,1.8c0,1,0.8,1.8,1.8,1.8c0,0,0,0,0.1,0c1,0,1.8-0.9,1.8-1.9
					C109,29.1,108.2,28.3,107.2,28.3"/>
				<path id="Path_1080" class="st1" d="M107.2,21.5c1,0,1.8-0.8,1.9-1.8c0-1-0.8-1.8-1.8-1.9s-1.8,0.8-1.9,1.8c0,0,0,0,0,0
					C105.4,20.7,106.2,21.5,107.2,21.5"/>
				<path id="Path_1081" class="st1" d="M100.2,9.3c0,1,0.8,1.8,1.8,1.8s1.8-0.8,1.8-1.8c0-1-0.8-1.8-1.8-1.8
					C101,7.4,100.2,8.2,100.2,9.3C100.2,9.2,100.2,9.2,100.2,9.3"/>
				<path id="Path_1082" class="st1" d="M102,0.6c1,0,1.8-0.8,1.9-1.8c0-1-0.8-1.8-1.8-1.9s-1.8,0.8-1.9,1.8c0,0,0,0,0,0
					C100.2-0.2,101,0.6,102,0.6"/>
				<path id="Path_1083" class="st1" d="M133.4,68.6c1,0,1.8-0.8,1.9-1.8c0-1-0.8-1.8-1.8-1.9c0,0-0.1,0-0.1,0c-1,0-1.8,0.9-1.8,1.9
					C131.6,67.8,132.4,68.6,133.4,68.6"/>
				<path id="Path_1084" class="st1" d="M128.1,0.6c1,0,1.8-0.8,1.9-1.8c0-1-0.8-1.9-1.8-1.9c-1,0-1.9,0.8-1.9,1.8
					C126.3-0.3,127.1,0.6,128.1,0.6"/>
				<path id="Path_1085" class="st1" d="M128.1-4.7c1,0,1.9-0.8,1.9-1.8c0,0,0,0,0,0c0-1-0.9-1.8-1.9-1.8c-1,0-1.7,0.8-1.8,1.7
					C126.3-5.5,127.1-4.7,128.1-4.7"/>
				<path id="Path_1086" class="st1" d="M128.1,7.4c-1,0-1.8,0.8-1.8,1.8c0,1,0.9,1.8,1.9,1.8c1,0,1.8-0.9,1.8-1.9
					C129.9,8.2,129.1,7.4,128.1,7.4"/>
				<path id="Path_1087" class="st1" d="M96.7,23.1c-1,0-1.8,0.8-1.8,1.9c0,1,0.8,1.8,1.9,1.8s1.8-0.8,1.8-1.9c0,0,0,0,0,0
					C98.6,23.9,97.7,23.1,96.7,23.1"/>
				<path id="Path_1088" class="st1" d="M128.2,5.8c1,0,1.8-0.8,1.8-1.8c0-1-0.8-1.8-1.9-1.8c-1,0-1.8,0.8-1.8,1.8
					C126.3,5,127.1,5.8,128.2,5.8"/>
				<path id="Path_1089" class="st1" d="M133.4,49.2c-1,0-1.8,0.8-1.8,1.8c0,1,0.8,1.8,1.8,1.8c1,0,1.8-0.8,1.8-1.8
					C135.2,50.1,134.4,49.3,133.4,49.2"/>
				<path id="Path_1090" class="st1" d="M128.2,12.6c-1,0-1.8,0.8-1.9,1.8c0,1,0.8,1.8,1.9,1.8c1,0,1.8-0.8,1.8-1.8
					C130,13.5,129.2,12.7,128.2,12.6"/>
				<path id="Path_1091" class="st1" d="M135.2,72c0-1-0.8-1.8-1.8-1.8c-1,0-1.8,0.8-1.8,1.8c0,1,0.8,1.8,1.8,1.8c0,0,0,0,0,0
					C134.4,73.8,135.2,73,135.2,72"/>
				<path id="Path_1092" class="st1" d="M133.4,84.3c1,0,1.8-0.8,1.8-1.8c0,0,0,0,0,0c0-1-0.9-1.8-1.9-1.8c-1,0-1.8,0.9-1.8,1.9
					C131.6,83.5,132.4,84.3,133.4,84.3"/>
				<path id="Path_1093" class="st1" d="M133.4,100c1,0,1.8-0.8,1.8-1.8c0-1-0.8-1.8-1.8-1.8c-1,0-1.8,0.8-1.8,1.8
					C131.6,99.2,132.4,100,133.4,100"/>
				<path id="Path_1094" class="st1" d="M133.3,42.4c1,0,1.9-0.8,1.9-1.8c0,0,0,0,0-0.1c0-1-0.8-1.8-1.8-1.8c-1,0-1.8,0.8-1.8,1.8
					C131.6,41.6,132.3,42.4,133.3,42.4"/>
				<path id="Path_1095" class="st1" d="M128.1,112c-1,0-1.8,0.8-1.8,1.8c0,1,0.9,1.8,1.9,1.8c1,0,1.8-0.8,1.8-1.8
					C129.9,112.8,129.1,112,128.1,112"/>
				<path id="Path_1096" class="st1" d="M128.1,94.7c1,0,1.8-0.8,1.9-1.8c0-1-0.8-1.8-1.8-1.9c-1,0-1.8,0.8-1.9,1.7
					C126.3,93.9,127.1,94.7,128.1,94.7"/>
				<path id="Path_1097" class="st1" d="M128.2,80.6c-1,0-1.8,0.8-1.8,1.8s0.8,1.8,1.8,1.8c1,0,1.8-0.8,1.8-1.8c0,0,0,0,0,0
					C130,81.5,129.2,80.7,128.2,80.6"/>
				<path id="Path_1098" class="st1" d="M122.9,11c1,0,1.8-0.8,1.8-1.8s-0.8-1.8-1.8-1.8c-1,0-1.8,0.8-1.8,1.8
					C121.1,10.2,121.9,11,122.9,11C122.9,11,122.9,11,122.9,11"/>
				<path id="Path_1099" class="st1" d="M130,72.1c0-1-0.8-1.9-1.8-1.9c-1,0-1.9,0.8-1.9,1.8s0.8,1.9,1.8,1.9c0,0,0,0,0,0
					C129.1,73.8,129.9,73.1,130,72.1"/>
				<path id="Path_1100" class="st1" d="M122.9,5.8c1,0,1.8-0.9,1.8-1.9c0-1-0.8-1.8-1.8-1.8c-1,0-1.8,0.8-1.9,1.8
					C121.1,5,121.9,5.8,122.9,5.8"/>
				<path id="Path_1101" class="st1" d="M128.2,37.2c1,0,1.8-0.8,1.8-1.8c0-1-0.8-1.8-1.8-1.9c-1,0-1.8,0.8-1.9,1.8
					C126.3,36.4,127.1,37.2,128.2,37.2"/>
				<path id="Path_1102" class="st1" d="M128.2,52.9c1,0,1.8-0.8,1.8-1.9c0-1-0.8-1.8-1.9-1.8c-1,0-1.8,0.8-1.8,1.9c0,0,0,0,0,0
					C126.4,52.1,127.2,52.9,128.2,52.9"/>
				<path id="Path_1103" class="st1" d="M128.1,26.7c1,0,1.9-0.8,1.8-1.9c0,0,0,0,0,0c-0.1-1-0.9-1.8-1.9-1.7
					c-1,0.1-1.7,0.8-1.7,1.8C126.3,25.9,127.1,26.7,128.1,26.7"/>
				<path id="Path_1104" class="st1" d="M128.2,58.1c1,0,1.8-0.8,1.8-1.8c0-1-0.8-1.8-1.8-1.8c-1,0-1.8,0.8-1.8,1.8
					C126.3,57.3,127.1,58.1,128.2,58.1C128.2,58.1,128.2,58.1,128.2,58.1"/>
				<path id="Path_1105" class="st1" d="M128.2,106.8c-1,0-1.8,0.8-1.8,1.8c0,1,0.8,1.8,1.8,1.8c1,0,1.8-0.8,1.8-1.8c0,0,0,0,0,0
					C130,107.6,129.2,106.8,128.2,106.8"/>
				<path id="Path_1106" class="st1" d="M75.8-4.7c1,0,1.8-0.8,1.8-1.8c0-1-0.8-1.8-1.8-1.9c-1,0-1.8,0.8-1.9,1.8c0,0,0,0.1,0,0.1
					C74-5.4,74.9-4.6,75.8-4.7"/>
				<path id="Path_1107" class="st1" d="M54.9,0.6c1,0,1.8-0.9,1.8-1.9c0-1-0.8-1.7-1.8-1.8c-1,0-1.8,0.8-1.8,1.8S53.9,0.6,54.9,0.6
					"/>
				<path id="Path_1108" class="st1" d="M60.2,12.6c-1,0-1.8,0.8-1.9,1.8c0,1,0.8,1.8,1.8,1.8c1,0,1.8-0.8,1.8-1.8
					C62,13.5,61.2,12.7,60.2,12.6"/>
				<path id="Path_1109" class="st1" d="M60.2,21.5c1-0.1,1.8-0.9,1.8-1.9c0-1-0.9-1.8-1.9-1.8c-1,0-1.8,0.8-1.8,1.8
					C58.3,20.7,59.2,21.5,60.2,21.5"/>
				<path id="Path_1110" class="st1" d="M96.7,11c1,0,1.8-0.8,1.8-1.8s-0.8-1.8-1.8-1.8c-1,0-1.8,0.8-1.8,1.8
					C94.9,10.2,95.7,11,96.7,11"/>
				<path id="Path_1111" class="st1" d="M65.4,0.6c1,0,1.8-0.8,1.8-1.8c0-1-0.8-1.8-1.8-1.8c-1,0-1.8,0.8-1.8,1.8
					C63.6-0.2,64.4,0.6,65.4,0.6"/>
				<path id="Path_1112" class="st1" d="M60.1-4.7c1,0,1.8-0.8,1.8-1.8c0-1-0.9-1.8-1.9-1.8c-1,0-1.8,0.8-1.8,1.8
					C58.3-5.4,59.2-4.7,60.1-4.7"/>
				<path id="Path_1113" class="st1" d="M70.6,5.8c1,0,1.8-0.9,1.8-1.9c0-1-0.8-1.8-1.8-1.8c-1,0-1.8,0.9-1.8,1.9
					C68.9,5,69.7,5.8,70.6,5.8"/>
				<path id="Path_1114" class="st1" d="M65.4,17.9c-1,0-1.9,0.8-1.9,1.8c0,1,0.8,1.9,1.8,1.9s1.9-0.8,1.9-1.8c0,0,0,0,0,0
					C67.2,18.7,66.4,17.9,65.4,17.9"/>
				<path id="Path_1115" class="st1" d="M65.4,2.2c-1,0-1.8,0.8-1.8,1.8c0,1,0.8,1.8,1.7,1.8c1,0,1.9-0.8,1.9-1.8
					C67.2,3,66.4,2.2,65.4,2.2"/>
				<path id="Path_1116" class="st1" d="M65.4,23.1c-1,0-1.8,0.8-1.8,1.8c0,1,0.8,1.8,1.8,1.8c1,0,1.8-0.8,1.9-1.8c0,0,0,0,0,0
					C67.2,23.9,66.4,23.1,65.4,23.1"/>
				<path id="Path_1117" class="st1" d="M70.5-4.7c1,0,1.8-0.7,1.9-1.7c0,0,0-0.1,0-0.1c0-1-0.8-1.8-1.8-1.8c-1,0-1.7,0.8-1.8,1.8
					C68.8-5.5,69.5-4.7,70.5-4.7C70.5-4.7,70.5-4.7,70.5-4.7"/>
				<path id="Path_1118" class="st1" d="M63.6,9.2c0,1,0.8,1.8,1.8,1.9c1,0,1.9-0.8,1.9-1.8c0,0,0,0,0-0.1c0-1-0.8-1.8-1.8-1.8
					C64.4,7.4,63.6,8.2,63.6,9.2L63.6,9.2"/>
				<path id="Path_1119" class="st1" d="M49.7,106.8c-1,0-1.8,0.8-1.8,1.8c0,1,0.8,1.8,1.8,1.8c1,0,1.8-0.8,1.9-1.8c0,0,0,0,0-0.1
					C51.5,107.6,50.7,106.8,49.7,106.8C49.7,106.8,49.7,106.8,49.7,106.8"/>
				<path id="Path_1120" class="st1" d="M53.1,24.9c0,1,0.8,1.8,1.8,1.9c0,0,0.1,0,0.1,0c1,0,1.8-0.8,1.8-1.8c0-1-0.8-1.8-1.8-1.8
					C53.9,23.1,53.1,23.9,53.1,24.9"/>
				<path id="Path_1121" class="st1" d="M49.7,131.4c1,0,1.8-0.8,1.8-1.8c0,0,0,0,0,0c0-1-0.8-1.8-1.8-1.8c0,0,0,0,0,0
					c-1,0-1.8,0.9-1.8,1.9C47.9,130.6,48.7,131.4,49.7,131.4"/>
				<path id="Path_1122" class="st1" d="M49.6,91.1c-1,0-1.8,0.9-1.7,1.9c0,1,0.8,1.7,1.8,1.7c1,0,1.8-0.8,1.8-1.8
					C51.5,91.9,50.7,91.1,49.6,91.1C49.7,91.1,49.7,91.1,49.6,91.1"/>
				<path id="Path_1123" class="st1" d="M49.6,70.2c-1,0-1.8,0.9-1.8,1.9c0,1,0.8,1.8,1.8,1.8c1,0,1.8-0.8,1.8-1.8
					S50.7,70.2,49.6,70.2"/>
				<path id="Path_1124" class="st1" d="M49.7,115.7c1,0,1.8-0.8,1.8-1.8c0,0,0,0,0,0c0-1-0.8-1.8-1.8-1.8c-1,0-1.8,0.8-1.8,1.8
					C47.8,114.8,48.6,115.6,49.7,115.7C49.7,115.7,49.7,115.7,49.7,115.7"/>
				<path id="Path_1125" class="st1" d="M49.7-4.7c1,0,1.8-0.8,1.8-1.8s-0.8-1.8-1.8-1.8c0,0-0.1,0-0.1,0c-1,0-1.8,0.8-1.8,1.8
					c0,0,0,0,0,0C47.9-5.5,48.7-4.7,49.7-4.7C49.7-4.7,49.7-4.7,49.7-4.7"/>
				<path id="Path_1126" class="st1" d="M49.7,0.6c1,0,1.8-0.8,1.8-1.8c0-1-0.8-1.8-1.8-1.8c-1,0-1.8,0.8-1.8,1.8
					C47.9-0.2,48.7,0.6,49.7,0.6"/>
				<path id="Path_1127" class="st1" d="M51.5,4c0-1-0.8-1.8-1.8-1.8c-1,0-1.8,0.7-1.8,1.7c0,1,0.7,1.9,1.8,1.9c0,0,0,0,0,0
					C50.7,5.8,51.5,5,51.5,4"/>
				<path id="Path_1128" class="st1" d="M49.7,32c1,0,1.8-0.8,1.8-1.8c0,0,0,0,0,0c0-1-0.8-1.8-1.8-1.9c0,0,0,0-0.1,0
					c-1,0-1.8,0.9-1.8,1.9C47.9,31.2,48.7,31.9,49.7,32"/>
				<path id="Path_1129" class="st1" d="M60.1,28.3c-1,0-1.8,0.9-1.8,1.9c0,0,0,0,0,0c0.1,1,0.9,1.8,2,1.7c1-0.1,1.7-0.8,1.7-1.8
					C61.9,29.1,61.1,28.3,60.1,28.3"/>
				<path id="Path_1130" class="st1" d="M86.3,5.8c1,0,1.8-0.8,1.8-1.9c0-1-0.8-1.8-1.9-1.8c-1,0-1.8,0.8-1.8,1.8
					C84.5,5,85.3,5.8,86.3,5.8C86.3,5.8,86.3,5.8,86.3,5.8"/>
				<path id="Path_1131" class="st1" d="M86.2,26.7c1,0,1.8-0.7,1.9-1.7s-0.7-1.8-1.7-1.9s-1.8,0.7-1.9,1.7c0,0,0,0,0,0
					C84.5,25.9,85.2,26.7,86.2,26.7C86.2,26.7,86.2,26.7,86.2,26.7"/>
				<path id="Path_1132" class="st1" d="M86.3,37.2c1,0,1.9-0.8,1.9-1.8s-0.8-1.9-1.8-1.9c-1,0-1.8,0.8-1.9,1.8
					C84.5,36.3,85.2,37.2,86.3,37.2C86.3,37.2,86.3,37.2,86.3,37.2"/>
				<path id="Path_1133" class="st1" d="M86.3,0.6c1,0,1.8-0.8,1.9-1.8c0-1-0.8-1.8-1.8-1.9s-1.8,0.8-1.9,1.8c0,0,0,0,0,0
					C84.5-0.2,85.3,0.6,86.3,0.6"/>
				<path id="Path_1134" class="st1" d="M88.1,14.5c0-1-0.8-1.8-1.8-1.8c-1,0-1.8,0.8-1.8,1.8s0.8,1.8,1.8,1.8c0,0,0,0,0,0
					C87.3,16.3,88.1,15.5,88.1,14.5"/>
				<path id="Path_1135" class="st1" d="M81.1,0.6c1,0,1.8-0.8,1.8-1.8c0-1-0.8-1.8-1.8-1.8c-1,0-1.8,0.8-1.8,1.8
					C79.3-0.2,80.1,0.6,81.1,0.6"/>
				<path id="Path_1136" class="st1" d="M91.6,0.6c1,0,1.8-0.8,1.8-1.8c0-1-0.8-1.8-1.8-1.8c-1,0-1.8,0.8-1.8,1.8c0,0,0,0,0,0
					C89.7-0.2,90.6,0.6,91.6,0.6"/>
				<path id="Path_1137" class="st1" d="M91.6,5.8c1,0,1.8-0.8,1.8-1.8c0-1-0.8-1.8-1.8-1.8c-1,0-1.8,0.8-1.8,1.8
					C89.7,5,90.5,5.8,91.6,5.8"/>
				<path id="Path_1138" class="st1" d="M72.4,30.3c0.1-1-0.7-1.9-1.7-1.9c-1-0.1-1.9,0.7-1.9,1.7c-0.1,1,0.7,1.9,1.7,1.9
					c0,0,0,0,0,0C71.5,32,72.3,31.3,72.4,30.3"/>
				<path id="Path_1139" class="st1" d="M91.5,32c1,0,1.8-0.8,1.8-1.8c0-1-0.8-1.8-1.8-1.8c-1,0-1.9,0.8-1.9,1.8c0,0,0,0,0,0
					C89.7,31.2,90.5,32,91.5,32"/>
				<path id="Path_1140" class="st1" d="M89.7,40.5c-0.1,1,0.7,1.9,1.7,2c1,0.1,1.9-0.7,2-1.7c0,0,0,0,0-0.1c0-1-0.7-1.9-1.7-1.9
					C90.6,38.8,89.8,39.5,89.7,40.5"/>
				<path id="Path_1141" class="st1" d="M91.5,7.4c-1,0-1.8,0.8-1.8,1.8c0,1,0.8,1.8,1.8,1.8c1,0,1.8-0.8,1.8-1.8
					C93.4,8.2,92.5,7.4,91.5,7.4C91.5,7.4,91.5,7.4,91.5,7.4"/>
				<path id="Path_1142" class="st1" d="M49.6,59.7c-1,0-1.8,0.9-1.8,1.9c0,1,0.9,1.8,1.9,1.8c1,0,1.7-0.8,1.8-1.8
					C51.5,60.6,50.7,59.7,49.6,59.7C49.7,59.7,49.7,59.7,49.6,59.7"/>
				<path id="Path_1143" class="st1" d="M75.9,21.5c1-0.1,1.8-0.9,1.8-1.9c0-1-0.9-1.8-1.9-1.8c-1,0-1.8,0.8-1.8,1.8
					C74,20.7,74.9,21.5,75.9,21.5"/>
				<path id="Path_1144" class="st1" d="M75.8,16.3c1,0,1.8-0.8,1.8-1.8s-0.8-1.8-1.8-1.8c-1,0-1.8,0.8-1.8,1.8
					C74,15.5,74.8,16.3,75.8,16.3"/>
				<path id="Path_1145" class="st1" d="M70.6,33.6c-1,0-1.9,0.8-1.9,1.8s0.8,1.9,1.8,1.9s1.9-0.8,1.9-1.8c0,0,0,0,0-0.1
					C72.4,34.4,71.6,33.6,70.6,33.6"/>
				<path id="Path_1146" class="st1" d="M68.8,40.6c0,1,0.8,1.8,1.8,1.9c1,0,1.8-0.8,1.9-1.8c0,0,0-0.1,0-0.1c0-1-0.8-1.8-1.8-1.8
					C69.6,38.8,68.8,39.6,68.8,40.6"/>
				<path id="Path_1147" class="st1" d="M79.2,40.6c0,1,0.8,1.8,1.8,1.8c1,0,1.8-0.8,1.8-1.8c0-1-0.8-1.8-1.8-1.8
					C80.1,38.8,79.3,39.6,79.2,40.6"/>
				<path id="Path_1148" class="st1" d="M75.9,33.5c-1,0-1.8,0.8-1.9,1.8s0.8,1.8,1.8,1.9c1,0,1.8-0.8,1.9-1.8c0,0,0,0,0,0
					C77.6,34.4,76.8,33.6,75.9,33.5"/>
				<path id="Path_1149" class="st1" d="M74,40.6c0,1,0.9,1.8,1.9,1.8c1,0,1.8-0.8,1.8-1.8c0-1-0.8-1.9-1.8-1.9S74,39.5,74,40.6
					C74,40.6,74,40.6,74,40.6"/>
				<path id="Path_1150" class="st1" d="M75.8,32c1,0,1.8-0.8,1.8-1.8c0-1-0.8-1.8-1.8-1.8c-1,0-1.9,0.8-1.9,1.8
					C74,31.2,74.8,32,75.8,32"/>
				<path id="Path_1151" class="st1" d="M75.9,26.7c1,0,1.8-0.9,1.8-1.9c0-1-0.9-1.8-1.9-1.8c-1,0-1.8,0.8-1.8,1.8
					C74,26,74.9,26.8,75.9,26.7C75.9,26.7,75.9,26.7,75.9,26.7"/>
				<path id="Path_1152" class="st1" d="M162.9,113.9c0,1,0.9,1.8,1.9,1.8c1,0,1.7-0.8,1.8-1.8c0-1-0.8-1.8-1.8-1.8
					S162.9,112.9,162.9,113.9"/>
				<path id="Path_1153" class="st1" d="M150.9,40.7c0-1-0.8-1.8-1.8-1.9c-1,0-1.8,0.8-1.9,1.8s0.8,1.8,1.8,1.9c0,0,0,0,0,0
					C150,42.4,150.9,41.7,150.9,40.7"/>
				<path id="Path_1154" class="st1" d="M149.1,54.5c-1,0-1.8,0.8-1.8,1.8s0.8,1.8,1.8,1.8c1,0,1.8-0.8,1.8-1.8
					C150.9,55.3,150.1,54.5,149.1,54.5"/>
				<path id="Path_1155" class="st1" d="M149.1,33.6c-1,0-1.8,0.8-1.9,1.8c0,1,0.8,1.8,1.8,1.9c1,0,1.8-0.8,1.9-1.8c0,0,0,0,0,0
					C150.9,34.4,150.1,33.6,149.1,33.6"/>
				<path id="Path_1156" class="st1" d="M149.1,101.6c-1,0-1.9,0.8-1.9,1.8c0,1,0.8,1.9,1.8,1.9c1,0,1.9-0.8,1.9-1.8c0,0,0,0,0,0
					C150.9,102.4,150.1,101.6,149.1,101.6"/>
				<path id="Path_1157" class="st1" d="M149.1,100c1,0,1.8-0.8,1.8-1.8c0-1-0.8-1.8-1.9-1.8c0,0,0,0,0,0c-1,0.1-1.8,0.9-1.7,1.9
					C147.4,99.2,148.2,99.9,149.1,100"/>
				<path id="Path_1158" class="st1" d="M149.1,70.2c-1,0-1.8,0.8-1.9,1.8c0,1,0.7,1.8,1.7,1.9c1,0,1.9-0.8,1.9-1.8c0,0,0,0,0,0
					C150.9,71,150.1,70.2,149.1,70.2"/>
				<path id="Path_1159" class="st1" d="M147.3,77.3c0,1,0.8,1.8,1.8,1.8c0,0,0,0,0,0c1,0,1.8-0.8,1.8-1.8c0-1-0.8-1.8-1.8-1.8
					c0,0,0,0-0.1,0C148,75.4,147.2,76.3,147.3,77.3C147.3,77.3,147.3,77.3,147.3,77.3"/>
				<path id="Path_1160" class="st1" d="M143.8,79c1,0,1.8-0.8,1.8-1.8c0-1-0.8-1.8-1.8-1.8c-1,0-1.8,0.8-1.8,1.8
					C142,78.3,142.9,79,143.8,79"/>
				<path id="Path_1161" class="st1" d="M143.9,70.2c-1,0-1.8,0.8-1.9,1.8c0,1,0.8,1.8,1.8,1.9c1,0,1.8-0.8,1.9-1.8c0,0,0,0,0,0
					C145.7,71,144.9,70.2,143.9,70.2"/>
				<path id="Path_1162" class="st1" d="M143.8,94.7c1,0,1.8-0.8,1.8-1.8s-0.8-1.8-1.8-1.8c-1,0-1.8,0.8-1.8,1.8
					C142,93.9,142.8,94.7,143.8,94.7"/>
				<path id="Path_1163" class="st1" d="M147.3,113.8c0,1,0.8,1.8,1.8,1.8c0,0,0,0,0,0c1,0,1.8-0.8,1.9-1.8c0,0,0,0,0-0.1
					c0-1-0.8-1.8-1.8-1.8C148.1,112,147.3,112.8,147.3,113.8C147.3,113.8,147.3,113.8,147.3,113.8"/>
				<path id="Path_1164" class="st1" d="M154.3,96.3c-1,0-1.8,0.9-1.8,1.9c0,0,0,0,0,0c0.1,1,0.9,1.8,1.9,1.7s1.8-0.9,1.7-1.9
					C156.1,97.1,155.3,96.3,154.3,96.3"/>
				<path id="Path_1165" class="st1" d="M154.3,59.7c-1,0-1.8,0.8-1.9,1.8c0,1,0.8,1.8,1.8,1.9c0,0,0.1,0,0.1,0c1,0,1.8-0.8,1.8-1.8
					C156.1,60.5,155.3,59.8,154.3,59.7"/>
				<path id="Path_1166" class="st1" d="M154.3,85.9c-1,0-1.9,0.8-1.9,1.8c0,1,0.8,1.9,1.8,1.9c1,0,1.9-0.8,1.9-1.8c0,0,0,0,0,0
					C156.1,86.7,155.3,85.9,154.3,85.9"/>
				<path id="Path_1167" class="st1" d="M128.2,159.1c-1,0-1.8,0.8-1.8,1.8s0.8,1.8,1.8,1.8c1,0,1.8-0.8,1.8-1.8
					C130,159.9,129.2,159.1,128.2,159.1"/>
				<path id="Path_1168" class="st1" d="M145.7,61.6c0-1-0.7-1.9-1.8-1.9s-1.9,0.7-1.9,1.8c0,1,0.7,1.9,1.8,1.9c0,0,0,0,0.1,0
					C144.8,63.4,145.6,62.6,145.7,61.6"/>
				<path id="Path_1169" class="st1" d="M154.3,131.4c1,0,1.8-0.8,1.8-1.7c0,0,0,0,0,0c0-1-0.8-1.8-1.8-1.8c-1,0-1.8,0.8-1.8,1.8
					C152.5,130.5,153.3,131.3,154.3,131.4C154.3,131.4,154.3,131.4,154.3,131.4"/>
				<path id="Path_1170" class="st1" d="M154.4,42.4c1,0,1.8-0.9,1.8-1.9c0-1-0.9-1.8-1.9-1.8c-1,0-1.8,0.8-1.8,1.8
					c0,1,0.8,1.8,1.8,1.8C154.3,42.4,154.3,42.4,154.4,42.4"/>
				<path id="Path_1171" class="st1" d="M154.4,148.6c-1,0-1.9,0.7-1.9,1.8c0,1,0.7,1.9,1.8,1.9c1,0,1.9-0.7,1.9-1.8c0,0,0,0,0,0
					C156.1,149.5,155.4,148.7,154.4,148.6"/>
				<path id="Path_1172" class="st1" d="M154.3,91.1c-1,0-1.8,0.8-1.8,1.8c0,1,0.8,1.8,1.8,1.8s1.8-0.8,1.8-1.8c0,0,0,0,0,0
					C156.1,91.9,155.3,91.1,154.3,91.1C154.3,91.1,154.3,91.1,154.3,91.1"/>
				<path id="Path_1173" class="st1" d="M154.3,58.1c1,0,1.8-0.8,1.8-1.9c0-1-0.8-1.8-1.9-1.8c-1,0-1.8,0.8-1.8,1.8
					C152.5,57.3,153.3,58.1,154.3,58.1C154.3,58.1,154.3,58.1,154.3,58.1"/>
				<path id="Path_1174" class="st1" d="M154.3,153.9c-1,0-1.9,0.8-1.9,1.8s0.8,1.9,1.8,1.9c1,0,1.9-0.8,1.9-1.8c0,0,0,0,0,0
					C156.1,154.7,155.3,153.9,154.3,153.9"/>
				<path id="Path_1175" class="st1" d="M154.4,120.9c1,0,1.8-0.9,1.8-1.9c0-1-0.9-1.8-1.9-1.8c-1,0-1.8,0.8-1.8,1.8
					C152.5,120.1,153.3,120.9,154.4,120.9C154.3,120.9,154.3,120.9,154.4,120.9"/>
				<path id="Path_1176" class="st1" d="M138.6,127c-1.4,0-2.5,1.1-2.5,2.5c0,0,0,0,0,0c0,1.4,1.1,2.6,2.5,2.6c0,0,0,0,0,0
					c1.4,0,2.6-1.2,2.6-2.6C141.2,128.1,140,127,138.6,127C138.6,127,138.6,127,138.6,127"/>
				<path id="Path_1177" class="st1" d="M149,148.6c-1,0-1.8,0.8-1.8,1.9c0,1,0.8,1.8,1.9,1.8c1,0,1.8-0.8,1.8-1.9c0,0,0,0,0,0
					C150.9,149.4,150,148.6,149,148.6"/>
				<path id="Path_1178" class="st1" d="M149,143.4c-1,0-1.8,0.9-1.8,1.9c0,1,0.9,1.8,1.9,1.8c1,0,1.7-0.8,1.8-1.8
					C150.9,144.3,150.1,143.4,149,143.4C149.1,143.4,149.1,143.4,149,143.4"/>
				<path id="Path_1179" class="st1" d="M138.6,33.6c-1,0-1.9,0.8-1.9,1.8c0,1,0.8,1.9,1.8,1.9c1,0,1.9-0.8,1.9-1.8c0,0,0,0,0-0.1
					C140.4,34.4,139.6,33.6,138.6,33.6"/>
				<path id="Path_1180" class="st1" d="M138.6,116.5c-7.2,0-13.1,5.8-13.1,13c0,7.2,5.8,13.1,13,13.1c7.2,0,13.1-5.8,13.1-13
					c0,0,0,0,0,0C151.7,122.4,145.8,116.5,138.6,116.5C138.6,116.5,138.6,116.5,138.6,116.5 M138.7,137.4c-4.3,0-7.9-3.5-7.9-7.8
					s3.5-7.9,7.8-7.9c4.3,0,7.9,3.5,7.9,7.8c0,0,0,0.1,0,0.1C146.4,133.9,143,137.4,138.7,137.4"/>
				<path id="Path_1181" class="st1" d="M133.4,159.1c-1,0-1.8,0.8-1.8,1.8s0.8,1.8,1.8,1.8c1,0,1.8-0.8,1.8-1.8c0,0,0,0,0,0
					C135.2,159.9,134.4,159.1,133.4,159.1C133.4,159.1,133.4,159.1,133.4,159.1"/>
				<path id="Path_1182" class="st1" d="M143.9,143.4c-1,0-1.8,0.8-1.8,1.8s0.8,1.8,1.8,1.8c1,0,1.8-0.8,1.8-1.8
					C145.7,144.3,144.9,143.5,143.9,143.4"/>
				<path id="Path_1183" class="st1" d="M128.1,152.3c1,0,1.9-0.8,1.9-1.8c0-1-0.8-1.9-1.8-1.9c-1,0-1.9,0.8-1.9,1.8c0,0,0,0,0,0
					C126.3,151.5,127.1,152.3,128.1,152.3"/>
				<path id="Path_1184" class="st1" d="M138.6,49.2c-1,0-1.9,0.8-1.9,1.8c0,1,0.8,1.9,1.8,1.9c1,0,1.9-0.8,1.9-1.8c0,0,0,0,0-0.1
					C140.4,50.1,139.6,49.3,138.6,49.2"/>
				<path id="Path_1185" class="st1" d="M138.6,159.1c-1,0-1.8,0.8-1.8,1.8s0.8,1.8,1.8,1.8c1,0,1.8-0.8,1.9-1.8
					C140.5,160,139.7,159.1,138.6,159.1C138.6,159.1,138.6,159.1,138.6,159.1"/>
				<path id="Path_1186" class="st1" d="M133.3,143.4c-1,0-1.8,0.9-1.8,1.9s0.9,1.8,1.9,1.8c1,0,1.7-0.8,1.8-1.8
					c0-1-0.8-1.8-1.7-1.8C133.4,143.4,133.4,143.4,133.3,143.4"/>
				<path id="Path_1187" class="st1" d="M145.7,40.6c0-1-0.8-1.8-1.9-1.8c-1,0-1.8,0.8-1.8,1.7c0,1,0.8,1.9,1.8,1.9
					C144.8,42.5,145.7,41.7,145.7,40.6C145.7,40.7,145.7,40.6,145.7,40.6"/>
				<path id="Path_1188" class="st1" d="M143.9,52.9c1,0,1.8-0.9,1.8-1.9c0-1-0.9-1.8-1.9-1.8c-1,0-1.8,0.8-1.8,1.8
					C142,52.1,142.9,52.9,143.9,52.9"/>
				<path id="Path_1189" class="st1" d="M143.9,58.1c1,0,1.8-0.9,1.8-1.9c0-1-0.9-1.8-1.9-1.8c-1,0-1.8,0.8-1.8,1.8
					C142,57.3,142.9,58.1,143.9,58.1"/>
				<path id="Path_1190" class="st1" d="M142,113.8c0,1,0.8,1.8,1.8,1.9c1,0,1.8-0.8,1.8-1.7c0-1-0.8-1.8-1.8-1.9
					C142.9,112,142.1,112.8,142,113.8"/>
				<path id="Path_1191" class="st1" d="M143.9,101.6c-1,0-1.9,0.8-1.9,1.8c0,1,0.8,1.9,1.8,1.9c1,0,1.9-0.8,1.9-1.8c0,0,0,0,0,0
					C145.6,102.4,144.9,101.6,143.9,101.6"/>
				<path id="Path_1192" class="st1" d="M143.8,68.6c1,0,1.8-0.8,1.9-1.8s-0.8-1.8-1.8-1.9c-1,0-1.8,0.8-1.9,1.8c0,0,0,0,0,0
					C142,67.8,142.8,68.6,143.8,68.6"/>
				<path id="Path_1193" class="st1" d="M138.6,84.3c1,0,1.8-0.8,1.8-1.8c0-1-0.8-1.8-1.8-1.8c-1,0-1.8,0.8-1.9,1.8
					S137.6,84.3,138.6,84.3L138.6,84.3"/>
				<path id="Path_1194" class="st1" d="M138.7,59.7c-1-0.1-1.9,0.7-1.9,1.7c-0.1,1,0.7,1.9,1.7,1.9c0,0,0,0,0.1,0
					c1,0,1.8-0.8,1.8-1.8C140.4,60.6,139.7,59.8,138.7,59.7"/>
				<path id="Path_1195" class="st1" d="M136.8,66.8c0,1,0.8,1.8,1.8,1.9c1,0,1.8-0.8,1.9-1.8c0,0,0-0.1,0-0.1c0-1-0.8-1.8-1.8-1.8
					C137.6,65,136.8,65.8,136.8,66.8"/>
				<path id="Path_1196" class="st1" d="M138.6,58.1c1,0,1.8-0.8,1.8-1.9c0-1-0.8-1.8-1.9-1.8c-1,0-1.8,0.8-1.8,1.8
					C136.8,57.3,137.6,58.1,138.6,58.1C138.6,58.1,138.6,58.1,138.6,58.1"/>
				<path id="Path_1197" class="st1" d="M143.8,47.7c1,0,1.8-0.8,1.8-1.8c0-1-0.8-1.8-1.8-1.8c-1,0-1.8,0.8-1.8,1.8
					C142,46.8,142.8,47.6,143.8,47.7"/>
				<path id="Path_1198" class="st1" d="M152.5,71.9c0,1,0.7,1.9,1.8,1.9c0,0,0,0,0,0c1,0,1.8-0.8,1.9-1.8c0-1-0.8-1.8-1.8-1.9
					C153.4,70.2,152.5,70.9,152.5,71.9"/>
				<path id="Path_1199" class="st1" d="M164.8,132.9c-1,0-1.9,0.8-1.9,1.8c0,1,0.8,1.9,1.8,1.9c1,0,1.9-0.8,1.9-1.8c0,0,0,0,0,0
					C166.6,133.8,165.8,133,164.8,132.9"/>
				<path id="Path_1200" class="st1" d="M164.8,117.2c-1,0-1.9,0.8-1.9,1.8c0,1,0.8,1.9,1.8,1.9c0,0,0.1,0,0.1,0
					c1,0,1.8-0.9,1.8-1.9C166.6,118.1,165.8,117.3,164.8,117.2"/>
				<path id="Path_1201" class="st1" d="M154.3-9.1c-10.1,0-18.3,8.2-18.3,18.3s8.2,18.3,18.3,18.3c10.1,0,18.3-8.2,18.3-18.3
					C172.6-0.8,164.4-9,154.3-9.1 M154.3,22.3c-7.2,0-13.1-5.9-13.1-13.1c0-7.2,5.9-13.1,13.1-13.1c7.2,0,13.1,5.9,13.1,13.1
					c0,0,0,0,0,0C167.4,16.4,161.6,22.3,154.3,22.3C154.4,22.3,154.3,22.3,154.3,22.3"/>
				<path id="Path_1202" class="st1" d="M154.4,1.4c-4.3,0-7.9,3.4-7.9,7.8s3.4,7.9,7.8,7.9c4.3,0,7.9-3.4,7.9-7.8c0,0,0,0,0,0
					C162.1,5,158.7,1.5,154.4,1.4"/>
				<path id="Path_1203" class="st1" d="M166.6,140c0-1-0.8-1.8-1.8-1.8c-1,0-1.8,0.8-1.8,1.8s0.8,1.8,1.8,1.8c0,0,0,0,0,0
					C165.8,141.8,166.6,141,166.6,140"/>
				<path id="Path_1204" class="st1" d="M170,54.5c-1,0-1.8,0.8-1.9,1.8s0.8,1.8,1.8,1.9c1,0,1.8-0.8,1.9-1.8c0,0,0,0,0,0
					C171.8,55.3,171,54.5,170,54.5C170,54.5,170,54.5,170,54.5"/>
				<path id="Path_1205" class="st1" d="M164.8,126.1c1,0,1.8-0.8,1.8-1.8c0-1-0.8-1.8-1.8-1.8s-1.8,0.8-1.8,1.8
					S163.8,126.1,164.8,126.1C164.8,126.1,164.8,126.1,164.8,126.1"/>
				<path id="Path_1206" class="st1" d="M164.7,131.4c1,0,1.8-0.8,1.9-1.7c0-1-0.7-1.9-1.7-1.9s-1.9,0.7-1.9,1.7c0,0,0,0.1,0,0.1
					C162.9,130.5,163.7,131.3,164.7,131.4"/>
				<path id="Path_1207" class="st1" d="M164.8,105.2c1,0,1.8-0.9,1.8-1.9s-0.9-1.8-1.9-1.8c-1,0-1.8,0.8-1.8,1.8
					C163,104.4,163.8,105.2,164.8,105.2"/>
				<path id="Path_1208" class="st1" d="M164.7,159.1c-1,0-1.8,0.9-1.7,1.9s0.9,1.8,1.9,1.7c1,0,1.7-0.8,1.8-1.8
					C166.6,160,165.8,159.1,164.7,159.1C164.8,159.1,164.7,159.1,164.7,159.1"/>
				<path id="Path_1209" class="st1" d="M164.8,148.6c-1,0-1.9,0.8-1.9,1.8s0.8,1.9,1.8,1.9c1,0,1.9-0.8,1.9-1.8c0,0,0,0,0,0
					C166.6,149.5,165.8,148.7,164.8,148.6"/>
				<path id="Path_1210" class="st1" d="M164.8,106.8c-1,0-1.8,0.8-1.9,1.8c0,1,0.8,1.8,1.8,1.9c1,0,1.9-0.8,1.9-1.8c0,0,0,0,0,0
					C166.6,107.6,165.8,106.8,164.8,106.8"/>
				<path id="Path_1211" class="st1" d="M170,85.9c-1,0-1.8,0.8-1.8,1.8s0.8,1.8,1.8,1.8s1.8-0.8,1.8-1.8c0,0,0,0,0,0
					C171.8,86.7,171,85.9,170,85.9"/>
				<path id="Path_1212" class="st1" d="M168.2,61.6c0,1,0.8,1.8,1.8,1.8c1,0,1.8-0.8,1.8-1.8c0-1-0.8-1.8-1.8-1.8
					c-1,0-1.8,0.7-1.9,1.7C168.2,61.5,168.2,61.5,168.2,61.6"/>
				<path id="Path_1213" class="st1" d="M169.9,126.1c1,0,1.8-0.7,1.9-1.7c0-1-0.7-1.8-1.7-1.9c-1,0-1.8,0.7-1.9,1.7c0,0,0,0,0,0
					C168.1,125.3,168.9,126.1,169.9,126.1C169.9,126.1,169.9,126.1,169.9,126.1"/>
				<path id="Path_1214" class="st1" d="M170.1,84.3c1,0,1.8-0.9,1.8-1.9c0-1-0.9-1.8-1.9-1.8c-1,0-1.8,0.9-1.8,1.9c0,0,0,0,0,0
					C168.2,83.5,169.1,84.3,170.1,84.3"/>
				<path id="Path_1215" class="st1" d="M170,70.2c-1,0-1.9,0.8-1.9,1.8c0,1,0.8,1.9,1.8,1.9c1,0,1.9-0.8,1.9-1.8c0,0,0,0,0,0
					C171.8,71,171,70.2,170,70.2"/>
				<path id="Path_1216" class="st1" d="M171.8,93c0-1-0.8-1.8-1.8-1.8c-1,0-1.8,0.8-1.8,1.8s0.8,1.8,1.8,1.8c0,0,0,0,0,0
					C171,94.8,171.8,94,171.8,93C171.8,93,171.8,93,171.8,93"/>
				<path id="Path_1217" class="st1" d="M170,148.6c-1,0-1.8,0.8-1.9,1.8c0,1,0.8,1.8,1.8,1.9c1,0,1.8-0.8,1.9-1.8c0,0,0,0,0,0
					C171.8,149.4,171,148.6,170,148.6"/>
				<path id="Path_1218" class="st1" d="M170,138.2c-1,0-1.8,0.8-1.8,1.8c0,0,0,0,0,0c0,1,0.8,1.8,1.8,1.8c1,0,1.8-0.8,1.8-1.8
					c0,0,0,0,0-0.1C171.8,139,171,138.2,170,138.2C170,138.2,170,138.2,170,138.2"/>
				<path id="Path_1219" class="st1" d="M170.1,33.6c-1-0.1-1.9,0.7-1.9,1.7c-0.1,1,0.7,1.9,1.7,1.9c1,0.1,1.9-0.7,1.9-1.7
					c0,0,0,0,0,0C171.8,34.4,171.1,33.6,170.1,33.6"/>
				<path id="Path_1220" class="st1" d="M170,147c1,0,1.8-0.8,1.8-1.8c0-1-0.8-1.8-1.8-1.8c-1,0-1.8,0.8-1.8,1.8
					c-0.1,1,0.7,1.8,1.7,1.9C169.9,147,170,147,170,147"/>
				<path id="Path_1221" class="st1" d="M159.6,91.1c-1-0.1-1.9,0.7-1.9,1.7s0.7,1.9,1.7,1.9c0,0,0.1,0,0.1,0c1,0,1.8-0.7,1.9-1.7
					C161.4,92,160.6,91.2,159.6,91.1C159.6,91.1,159.6,91.1,159.6,91.1"/>
				<path id="Path_1222" class="st1" d="M159.5,89.5c1,0,1.8-0.8,1.9-1.8c0-1-0.8-1.8-1.8-1.9c-1,0-1.8,0.8-1.9,1.8c0,0,0,0,0,0
					C157.7,88.7,158.5,89.5,159.5,89.5"/>
				<path id="Path_1223" class="st1" d="M161.4,61.5c0-1-0.8-1.8-1.8-1.9c-1,0-1.8,0.8-1.9,1.8c0,1,0.8,1.8,1.8,1.8
					C160.5,63.4,161.3,62.6,161.4,61.5C161.4,61.5,161.4,61.5,161.4,61.5"/>
				<path id="Path_1224" class="st1" d="M159.6,105.2c1-0.1,1.8-0.9,1.7-1.9c-0.1-1-0.9-1.8-1.9-1.7c-1,0-1.8,0.9-1.7,1.9
					C157.7,104.4,158.6,105.2,159.6,105.2"/>
				<path id="Path_1225" class="st1" d="M156.1,124.4c0-1-0.8-1.8-1.8-1.9c-1,0-1.8,0.8-1.9,1.8l0,0c-0.1,1,0.7,1.9,1.7,1.9
					C155.2,126.2,156.1,125.4,156.1,124.4C156.1,124.4,156.1,124.4,156.1,124.4"/>
				<path id="Path_1226" class="st1" d="M159.6,73.8c1,0,1.8-0.9,1.8-1.9c0-1-0.9-1.8-1.9-1.8c-1,0-1.8,0.8-1.8,1.8
					C157.7,73,158.6,73.8,159.6,73.8"/>
				<path id="Path_1227" class="st1" d="M156.1,145.3c0-1-0.7-1.8-1.7-1.9c-1,0-1.8,0.7-1.9,1.7c0,1,0.7,1.8,1.7,1.9c0,0,0,0,0,0
					C155.2,147.1,156.1,146.3,156.1,145.3C156.1,145.3,156.1,145.3,156.1,145.3"/>
				<path id="Path_1228" class="st1" d="M154.3,132.9c-1,0-1.9,0.8-1.9,1.8c0,1,0.8,1.9,1.8,1.9c1,0,1.9-0.8,1.9-1.8c0,0,0,0,0-0.1
					C156.1,133.8,155.3,133,154.3,132.9"/>
				<path id="Path_1229" class="st1" d="M159.5,112c-1,0-1.9,0.8-1.9,1.9c0,1,0.9,1.8,1.9,1.8c1,0,1.8-0.8,1.8-1.8
					C161.3,112.9,160.5,112.1,159.5,112"/>
				<path id="Path_1230" class="st1" d="M159.6,47.7c1,0,1.8-0.9,1.8-1.9c0-1-0.9-1.8-1.9-1.8c-1,0-1.8,0.9-1.8,1.9c0,0,0,0,0,0
					C157.7,46.9,158.6,47.7,159.6,47.7"/>
				<path id="Path_1231" class="st1" d="M161.4,40.8c0.1-1-0.7-1.9-1.7-1.9c-1-0.1-1.8,0.7-1.9,1.7c-0.1,1,0.7,1.9,1.7,1.9
					C160.4,42.5,161.3,41.8,161.4,40.8"/>
				<path id="Path_1232" class="st1" d="M159.5,52.9c1,0,1.8-0.8,1.9-1.8c0-1-0.8-1.8-1.8-1.9c-1,0-1.8,0.8-1.9,1.8c0,0,0,0,0,0
					C157.7,52.1,158.5,52.9,159.5,52.9"/>
				<path id="Path_1233" class="st1" d="M164.8,96.3c-1,0-1.8,0.8-1.8,1.8c0,1,0.8,1.8,1.8,1.8c1,0,1.8-0.8,1.8-1.8c0,0,0,0,0,0
					C166.6,97.2,165.8,96.4,164.8,96.3"/>
				<path id="Path_1234" class="st1" d="M164.7,44c-1,0-1.8,0.9-1.7,1.9c0,1,0.9,1.8,1.9,1.7c1,0,1.7-0.8,1.7-1.8
					C166.6,44.8,165.8,44,164.7,44C164.7,44,164.7,44,164.7,44"/>
				<path id="Path_1235" class="st1" d="M164.7,52.9c1,0,1.9-0.8,1.9-1.8c0-1-0.8-1.9-1.8-1.9c-1,0-1.9,0.8-1.9,1.8c0,0,0,0,0,0
					C162.9,52.1,163.7,52.9,164.7,52.9"/>
				<path id="Path_1236" class="st1" d="M164.7,54.5c-1,0-1.8,0.8-1.8,1.8c0,1,0.8,1.8,1.8,1.8c1,0,1.8-0.8,1.8-1.8
					C166.6,55.3,165.7,54.5,164.7,54.5"/>
				<path id="Path_1237" class="st1" d="M164.8,68.6c1,0,1.8-0.8,1.9-1.8c0-1-0.8-1.8-1.8-1.9c-1,0-1.8,0.8-1.9,1.8c0,0,0,0,0,0
					C163,67.8,163.8,68.6,164.8,68.6"/>
				<path id="Path_1238" class="st1" d="M164.7,38.8c-1,0-1.8,0.8-1.8,1.8c0,1,0.8,1.8,1.8,1.8c1,0,1.8-0.8,1.8-1.9c0,0,0,0,0,0
					C166.6,39.6,165.7,38.8,164.7,38.8"/>
				<path id="Path_1239" class="st1" d="M159.6,147c1,0,1.8-0.9,1.8-1.9c0-1-0.9-1.8-1.9-1.8c-1,0-1.8,0.9-1.8,1.9c0,0,0,0,0,0
					C157.7,146.3,158.6,147.1,159.6,147"/>
				<path id="Path_1240" class="st1" d="M159.6,159.1c-1,0-1.8,0.8-1.8,1.8c0,1,0.8,1.8,1.8,1.8c1,0,1.8-0.8,1.8-1.8
					C161.4,160,160.6,159.2,159.6,159.1"/>
				<path id="Path_1241" class="st1" d="M159.6,33.5c-1,0-1.8,0.8-1.9,1.8s0.8,1.8,1.8,1.9c1,0,1.8-0.8,1.9-1.8c0,0,0,0,0,0
					C161.3,34.4,160.5,33.6,159.6,33.5"/>
				<path id="Path_1242" class="st1" d="M159.6,153.9c-1,0-1.8,0.8-1.8,1.8c0,1,0.8,1.8,1.8,1.8c1,0,1.8-0.8,1.8-1.8c0,0,0,0,0,0
					C161.3,154.7,160.5,153.9,159.6,153.9"/>
				<path id="Path_1243" class="st1" d="M159.5,132.9c-1,0-1.8,0.8-1.9,1.8c0,1,0.8,1.8,1.8,1.9s1.8-0.8,1.9-1.8c0,0,0,0,0,0
					C161.3,133.8,160.5,133,159.5,132.9"/>
				<path id="Path_1244" class="st1" d="M91.6,117.2c-1,0-1.9,0.8-1.9,1.8c0,1,0.8,1.9,1.8,1.9s1.9-0.8,1.9-1.8c0,0,0,0,0,0
					C93.3,118.1,92.6,117.3,91.6,117.2"/>
				<path id="Path_1245" class="st1" d="M65.4,117.2c-1,0-1.8,0.8-1.8,1.8c0,1,0.8,1.8,1.8,1.8c1,0,1.8-0.8,1.8-1.8
					C67.2,118.1,66.4,117.3,65.4,117.2"/>
				<path id="Path_1246" class="st1" d="M60.1,148.6c-1,0-1.8,0.8-1.8,1.9s0.8,1.8,1.9,1.8c1,0,1.8-0.8,1.8-1.9c0,0,0,0,0,0
					C61.9,149.4,61.1,148.7,60.1,148.6"/>
				<path id="Path_1247" class="st1" d="M60.1,141.8c1,0,1.8-0.8,1.9-1.8c0-1-0.8-1.8-1.8-1.9c-1,0-1.8,0.8-1.9,1.8c0,0,0,0,0,0
					C58.3,141,59.1,141.8,60.1,141.8"/>
				<path id="Path_1248" class="st1" d="M65.4,138.2c-1,0-1.8,0.8-1.8,1.8c0,1,0.8,1.8,1.8,1.8c1,0,1.8-0.8,1.8-1.9c0,0,0,0,0,0
					C67.2,139,66.3,138.2,65.4,138.2"/>
				<path id="Path_1249" class="st1" d="M63.6,124.3c0,1,0.8,1.8,1.8,1.8c1,0,1.8-0.8,1.8-1.8c0-1-0.8-1.8-1.8-1.8
					C64.4,122.5,63.6,123.3,63.6,124.3"/>
				<path id="Path_1250" class="st1" d="M60.2,112c-1,0-1.9,0.8-1.9,1.9c0,1,0.9,1.8,1.9,1.8c1,0,1.8-0.8,1.8-1.8
					C62,112.9,61.2,112.1,60.2,112"/>
				<path id="Path_1251" class="st1" d="M60.1,159.1c-1,0-1.8,0.9-1.8,1.9c0,1,0.9,1.8,1.9,1.8c1,0,1.8-0.9,1.8-1.9
					C61.9,159.9,61.1,159.1,60.1,159.1"/>
				<path id="Path_1252" class="st1" d="M55,132.9c-1,0-1.9,0.8-1.9,1.8s0.8,1.9,1.8,1.9c1,0,1.9-0.8,1.9-1.8c0,0,0,0,0-0.1
					C56.7,133.8,55.9,133,55,132.9"/>
				<path id="Path_1253" class="st1" d="M82.9,129.6c0-1-0.8-1.9-1.8-1.9c-1,0-1.9,0.8-1.9,1.8c0,0,0,0,0,0c0,1,0.8,1.8,1.8,1.8
					C82,131.4,82.9,130.6,82.9,129.6"/>
				<path id="Path_1254" class="st1" d="M54.9,143.4c-1,0-1.8,0.8-1.8,1.8c0,1,0.8,1.8,1.8,1.8c0,0,0.1,0,0.1,0c1,0,1.8-0.9,1.8-1.9
					C56.7,144.2,55.9,143.4,54.9,143.4"/>
				<path id="Path_1255" class="st1" d="M70.7,136.6c1,0,1.8-0.9,1.8-1.9c0-1-0.9-1.8-1.9-1.8c-1,0-1.8,0.8-1.8,1.8
					C68.8,135.8,69.6,136.6,70.7,136.6C70.6,136.6,70.7,136.6,70.7,136.6"/>
				<path id="Path_1256" class="st1" d="M58.3,129.5c0,1,0.9,1.8,1.9,1.8c1,0,1.7-0.8,1.8-1.7c0-1-0.8-1.9-1.8-1.9
					C59.2,127.7,58.3,128.5,58.3,129.5C58.3,129.5,58.3,129.5,58.3,129.5"/>
				<path id="Path_1257" class="st1" d="M75.8,112c-1,0-1.8,0.8-1.8,1.8c0,1,0.8,1.8,1.8,1.9c1,0,1.8-0.8,1.9-1.8
					C77.7,112.9,76.9,112,75.8,112C75.9,112,75.8,112,75.8,112"/>
				<path id="Path_1258" class="st1" d="M81,159.1c-1,0-1.8,0.9-1.7,1.9c0,1,0.9,1.8,1.9,1.7c1,0,1.7-0.8,1.7-1.8
					C82.9,159.9,82.1,159.1,81,159.1C81.1,159.1,81,159.1,81,159.1"/>
				<path id="Path_1259" class="st1" d="M75.8,126.1c1,0,1.8-0.8,1.8-1.8c0-1-0.8-1.8-1.8-1.8c-1,0-1.8,0.7-1.9,1.7
					C74,125.3,74.8,126.1,75.8,126.1C75.8,126.1,75.8,126.1,75.8,126.1"/>
				<path id="Path_1260" class="st1" d="M81.1,153.9c-1,0-1.9,0.7-1.9,1.7c0,1,0.7,1.9,1.7,1.9c0,0,0.1,0,0.1,0c1,0,1.8-0.8,1.8-1.8
					C82.9,154.7,82.1,153.9,81.1,153.9"/>
				<path id="Path_1261" class="st1" d="M81.1,148.6c-1,0-1.9,0.8-1.9,1.8c0,1,0.8,1.9,1.8,1.9c1,0,1.9-0.8,1.9-1.8c0,0,0,0,0,0
					C82.9,149.5,82.1,148.7,81.1,148.6"/>
				<path id="Path_1262" class="st1" d="M70.7,159.1c-1,0-1.8,0.8-1.9,1.8s0.8,1.8,1.8,1.9c1,0,1.8-0.8,1.9-1.8c0,0,0,0,0,0
					C72.4,160,71.7,159.1,70.7,159.1C70.7,159.1,70.7,159.1,70.7,159.1"/>
				<path id="Path_1263" class="st1" d="M72.4,129.6c0-1-0.8-1.8-1.8-1.8c-1,0-1.8,0.8-1.8,1.8c0,1,0.8,1.8,1.8,1.8c0,0,0,0,0,0
					C71.6,131.4,72.4,130.6,72.4,129.6C72.4,129.6,72.4,129.6,72.4,129.6"/>
				<path id="Path_1264" class="st1" d="M70.6,117.2c-1,0-1.9,0.8-1.9,1.8c0,1,0.8,1.9,1.8,1.9c1,0,1.9-0.8,1.9-1.8c0,0,0,0,0-0.1
					C72.4,118.1,71.6,117.3,70.6,117.2"/>
				<path id="Path_1265" class="st1" d="M75.8,138.2c-1,0-1.8,0.8-1.8,1.8c0,1,0.9,1.8,1.9,1.8c1,0,1.8-0.8,1.8-1.8
					C77.7,139,76.8,138.2,75.8,138.2C75.8,138.2,75.8,138.2,75.8,138.2"/>
				<path id="Path_1266" class="st1" d="M72.4,113.9c0-1-0.8-1.8-1.8-1.9s-1.8,0.8-1.9,1.8c0,0,0,0.1,0,0.1c0,1,0.8,1.8,1.8,1.8
					C71.6,115.6,72.4,114.9,72.4,113.9"/>
				<path id="Path_1267" class="st1" d="M60.2,153.9c-1,0-1.8,0.8-1.8,1.8c0,1,0.8,1.8,1.8,1.8c1,0,1.8-0.8,1.8-1.8c0,0,0,0,0,0
					C61.9,154.7,61.1,153.9,60.2,153.9"/>
				<path id="Path_1268" class="st1" d="M122.9,148.6c-1,0-1.9,0.8-1.9,1.8s0.8,1.9,1.8,1.9c0,0,0.1,0,0.1,0c1,0,1.8-0.9,1.8-1.9
					C124.7,149.4,123.9,148.7,122.9,148.6"/>
				<path id="Path_1269" class="st1" d="M44.5,117.2c-1,0-1.9,0.8-1.9,1.8c0,1,0.8,1.9,1.8,1.9c0,0,0,0,0.1,0c1,0,1.8-0.8,1.8-1.8
					C46.3,118.1,45.5,117.3,44.5,117.2"/>
				<path id="Path_1270" class="st1" d="M46.3,124.3c0-1-0.8-1.9-1.8-1.9s-1.9,0.8-1.9,1.8s0.8,1.9,1.8,1.9c0,0,0,0,0,0
					C45.4,126.1,46.3,125.3,46.3,124.3"/>
				<path id="Path_1271" class="st1" d="M49.7,147c1,0,1.8-0.8,1.8-1.8c0,0,0,0,0,0c0-1-0.8-1.8-1.8-1.8c0,0,0,0-0.1,0
					c-1,0-1.8,0.9-1.7,1.9C47.9,146.3,48.7,147,49.7,147"/>
				<path id="Path_1272" class="st1" d="M49.7,159.1c-1,0-1.8,0.8-1.8,1.8c0,1,0.8,1.8,1.8,1.8c1,0,1.8-0.8,1.8-1.8
					C51.5,160,50.8,159.2,49.7,159.1C49.7,159.1,49.7,159.1,49.7,159.1"/>
				<path id="Path_1273" class="st1" d="M54.9,159.1c-1,0-1.8,0.8-1.8,1.8c0,1,0.8,1.8,1.7,1.8c1,0,1.8-0.8,1.9-1.7
					C56.8,160,56,159.2,54.9,159.1C55,159.1,54.9,159.1,54.9,159.1"/>
				<path id="Path_1274" class="st1" d="M39.2,112c-1,0-1.8,0.8-1.8,1.8c0,1,0.8,1.8,1.8,1.8s1.8-0.8,1.8-1.8
					C41,112.9,40.2,112,39.2,112C39.2,112,39.2,112,39.2,112"/>
				<path id="Path_1275" class="st1" d="M39.2,75.4c-1,0-1.8,0.9-1.8,1.9s0.9,1.8,1.9,1.8c1,0,1.7-0.8,1.8-1.8
					C41.1,76.3,40.3,75.4,39.2,75.4C39.2,75.4,39.2,75.4,39.2,75.4"/>
				<path id="Path_1276" class="st1" d="M44.4,132.9c-1,0-1.8,0.8-1.8,1.9c0,1,0.8,1.8,1.8,1.8c1,0,1.9-0.8,1.9-1.8
					C46.3,133.8,45.5,133,44.4,132.9C44.5,132.9,44.5,132.9,44.4,132.9"/>
				<path id="Path_1277" class="st1" d="M39.2,106.8c-1,0-1.8,0.8-1.8,1.8c0,1,0.8,1.8,1.8,1.8c1,0,1.8-0.8,1.8-1.8c0,0,0,0,0,0
					C41,107.6,40.2,106.8,39.2,106.8C39.3,106.8,39.2,106.8,39.2,106.8"/>
				<path id="Path_1278" class="st1" d="M39.2,101.6c-1,0-1.8,0.8-1.9,1.8s0.8,1.8,1.8,1.9c0,0,0.1,0,0.1,0c1,0,1.8-0.9,1.8-1.9
					C41,102.4,40.2,101.6,39.2,101.6"/>
				<path id="Path_1279" class="st1" d="M44.5,101.6c-1,0-1.8,0.8-1.8,1.8c0,1,0.8,1.8,1.8,1.8c1,0,1.9-0.8,1.9-1.8
					C46.3,102.4,45.5,101.6,44.5,101.6C44.5,101.6,44.5,101.6,44.5,101.6"/>
				<path id="Path_1280" class="st1" d="M53.1,129.6c0,1,0.9,1.8,1.9,1.8c1,0,1.8-0.9,1.8-1.9c0-1-0.8-1.7-1.8-1.8
					c-1,0-1.8,0.8-1.8,1.7C53.1,129.5,53.1,129.6,53.1,129.6"/>
				<path id="Path_1281" class="st1" d="M49.6,157.5c1,0,1.9-0.8,1.9-1.8s-0.8-1.9-1.8-1.9c-1,0-1.8,0.8-1.8,1.8
					C47.9,156.7,48.6,157.5,49.6,157.5"/>
				<path id="Path_1282" class="st1" d="M55,37.2c1-0.1,1.8-0.9,1.7-1.9c-0.1-1-0.8-1.7-1.8-1.7c-1,0-1.8,0.9-1.8,1.9
					C53.1,36.4,54,37.2,55,37.2"/>
				<path id="Path_1283" class="st1" d="M55,38.8c-1,0-1.8,0.8-1.9,1.7c0,0,0,0,0,0c0,1,0.7,1.8,1.8,1.9c0,0,0,0,0.1,0
					c1,0,1.8-0.8,1.8-1.8C56.8,39.6,56,38.8,55,38.8"/>
				<path id="Path_1284" class="st1" d="M54.9,112c-1,0-1.8,0.8-1.8,1.8c0,0,0,0,0,0.1c0,1,0.9,1.8,1.9,1.8s1.8-0.9,1.8-1.9
					C56.7,112.8,55.9,112,54.9,112"/>
				<path id="Path_1285" class="st1" d="M55,122.5c-1,0-1.8,0.7-1.9,1.7c0,0,0,0,0,0c0,1,0.7,1.8,1.7,1.9c0,0,0,0,0.1,0
					c1,0,1.8-0.8,1.8-1.8C56.7,123.3,55.9,122.5,55,122.5"/>
				<path id="Path_1286" class="st1" d="M49.7,148.6c-1,0-1.8,0.8-1.8,1.8c0,1,0.8,1.8,1.8,1.8c1,0,1.9-0.8,1.9-1.8
					C51.6,149.5,50.8,148.7,49.7,148.6C49.7,148.6,49.7,148.6,49.7,148.6"/>
				<path id="Path_1287" class="st1" d="M49.7,132.9c-1,0-1.9,0.7-1.9,1.8c0,1,0.7,1.9,1.8,1.9c1,0,1.9-0.7,1.9-1.8c0,0,0,0,0,0
					C51.5,133.8,50.7,133,49.7,132.9"/>
				<path id="Path_1288" class="st1" d="M49.7,33.6c-1,0-1.8,0.9-1.8,1.9c0,1,0.8,1.8,1.8,1.8c1,0,1.8-0.9,1.8-1.9
					C51.5,34.3,50.7,33.6,49.7,33.6"/>
				<path id="Path_1289" class="st1" d="M49.7,49.2c-1,0-1.8,0.8-1.8,1.8c0,1,0.8,1.8,1.8,1.8c1,0,1.8-0.8,1.8-1.8
					C51.5,50.1,50.7,49.3,49.7,49.2"/>
				<path id="Path_1290" class="st1" d="M46.3,108.6c0-1-0.9-1.8-1.9-1.8c-1,0-1.8,0.9-1.8,1.9c0,1,0.8,1.8,1.8,1.8
					C45.5,110.4,46.3,109.6,46.3,108.6C46.3,108.6,46.3,108.6,46.3,108.6"/>
				<path id="Path_1291" class="st1" d="M117.7,32c1,0,1.8-0.8,1.8-1.8c0,0,0,0,0,0c0-1-0.8-1.8-1.8-1.8c-1,0-1.8,0.8-1.8,1.8
					c0,0,0,0.1,0,0.1C115.9,31.2,116.7,32,117.7,32C117.7,32,117.7,32,117.7,32"/>
				<path id="Path_1292" class="st1" d="M117.7,26.7c1,0,1.8-0.8,1.9-1.8c0-1-0.8-1.8-1.8-1.9c0,0-0.1,0-0.1,0c-1,0-1.8,0.9-1.8,1.9
					C115.9,25.9,116.7,26.7,117.7,26.7"/>
				<path id="Path_1293" class="st1" d="M117.7,115.7c1,0,1.8-0.8,1.8-1.8c0-1-0.8-1.8-1.8-1.8c0,0,0,0-0.1,0c-1,0-1.8,0.8-1.8,1.8
					S116.7,115.7,117.7,115.7"/>
				<path id="Path_1294" class="st1" d="M112.4,148.6c-1,0-1.8,0.8-1.8,1.8c0,1,0.8,1.8,1.8,1.8c1,0,1.8-0.8,1.8-1.8c0,0,0,0,0,0
					C114.2,149.5,113.4,148.7,112.4,148.6"/>
				<path id="Path_1295" class="st1" d="M112.5,159.1c-1,0-1.8,0.8-1.8,1.8s0.8,1.8,1.8,1.8c1,0,1.8-0.8,1.8-1.8
					C114.3,160,113.5,159.1,112.5,159.1"/>
				<path id="Path_1296" class="st1" d="M112.5,138.2c-1,0-1.8,0.8-1.8,1.8s0.8,1.8,1.8,1.8c1,0,1.8-0.8,1.8-1.8c0,0,0,0,0,0
					C114.3,139,113.5,138.2,112.5,138.2"/>
				<path id="Path_1297" class="st1" d="M107.2,148.6c-1,0-1.8,0.9-1.8,1.9c0,1,0.9,1.8,1.9,1.8l0,0c1-0.1,1.8-0.9,1.7-1.9
					C109,149.4,108.2,148.6,107.2,148.6"/>
				<path id="Path_1298" class="st1" d="M107.2,138.2c-1,0-1.8,0.8-1.8,1.8c0,1,0.8,1.8,1.9,1.8c0,0,0,0,0,0c1,0,1.8-0.8,1.8-1.9
					S108.2,138.2,107.2,138.2"/>
				<path id="Path_1299" class="st1" d="M107.3,136.6c1,0,1.8-0.9,1.8-1.9s-0.9-1.8-1.9-1.8c-1,0-1.8,0.8-1.8,1.8
					C105.4,135.8,106.2,136.6,107.3,136.6C107.2,136.6,107.3,136.6,107.3,136.6"/>
				<path id="Path_1300" class="st1" d="M100.2,145.2c0,1,0.8,1.8,1.8,1.8c1,0,1.8-0.8,1.8-1.7c0-1-0.8-1.8-1.7-1.9
					C101.1,143.4,100.2,144.2,100.2,145.2C100.2,145.2,100.2,145.2,100.2,145.2"/>
				<path id="Path_1301" class="st1" d="M117.6,143.4c-1,0-1.8,0.9-1.7,1.9s0.9,1.8,1.9,1.7c1,0,1.7-0.8,1.7-1.8
					c0-1-0.8-1.8-1.7-1.8C117.7,143.4,117.7,143.4,117.6,143.4"/>
				<path id="Path_1302" class="st1" d="M117.7,122.5c-1,0-1.8,0.8-1.8,1.8c0,1,0.8,1.8,1.8,1.8c1,0,1.8-0.8,1.9-1.8c0,0,0,0,0-0.1
					C119.5,123.3,118.7,122.5,117.7,122.5C117.7,122.5,117.7,122.5,117.7,122.5"/>
				<path id="Path_1303" class="st1" d="M122.9,91.1c-1,0-1.8,0.8-1.8,1.8c0,1,0.8,1.8,1.8,1.8s1.8-0.8,1.8-1.8c0,0,0,0,0,0
					C124.7,92,124,91.1,122.9,91.1C123,91.1,123,91.1,122.9,91.1"/>
				<path id="Path_1304" class="st1" d="M122.9,112c-1,0-1.8,0.8-1.8,1.8c0,0,0,0,0,0c0,1,0.9,1.8,1.9,1.8c1,0,1.8-0.8,1.8-1.8
					S123.9,112,122.9,112"/>
				<path id="Path_1305" class="st1" d="M112.4,127.7c-1,0-1.8,0.8-1.8,1.8c0,1,0.8,1.8,1.8,1.8c1,0,1.8-0.8,1.8-1.8
					C114.3,128.6,113.5,127.7,112.4,127.7C112.4,127.7,112.4,127.7,112.4,127.7"/>
				<path id="Path_1306" class="st1" d="M122.9,122.5c-1,0-1.8,0.8-1.8,1.8c0,0,0,0.1,0,0.1c0,1,0.8,1.8,1.8,1.8
					c1,0,1.8-0.8,1.8-1.9C124.7,123.3,123.9,122.5,122.9,122.5"/>
				<path id="Path_1307" class="st1" d="M123,159.1c-1,0-1.8,0.8-1.9,1.7c0,1,0.8,1.8,1.7,1.9c0,0,0,0,0.1,0c1,0,1.8-0.8,1.8-1.8
					C124.7,159.9,123.9,159.2,123,159.1"/>
				<path id="Path_1308" class="st1" d="M122.9,131.4c1,0,1.8-0.9,1.8-1.9c0-1-0.8-1.7-1.8-1.8c-1,0-1.8,0.8-1.8,1.8c0,0,0,0,0,0.1
					C121.1,130.6,121.9,131.4,122.9,131.4C122.9,131.4,122.9,131.4,122.9,131.4"/>
				<path id="Path_1309" class="st1" d="M112.5,117.2c-1,0-1.9,0.8-1.9,1.8c0,1,0.8,1.9,1.8,1.9c1,0,1.9-0.8,1.9-1.8c0,0,0,0,0,0
					C114.3,118.1,113.5,117.3,112.5,117.2"/>
				<path id="Path_1310" class="st1" d="M117.7,153.9c-1,0-1.8,0.9-1.8,1.9c0,1,0.8,1.7,1.8,1.8c1,0,1.8-0.8,1.8-1.8
					C119.5,154.7,118.7,153.9,117.7,153.9"/>
				<path id="Path_1311" class="st1" d="M117.7,17.9c-1,0-1.8,0.9-1.8,1.9c0,1,0.8,1.7,1.7,1.8c1,0,1.8-0.8,1.8-1.9
					C119.5,18.7,118.7,17.9,117.7,17.9"/>
				<path id="Path_1312" class="st1" d="M122.9,89.5c1,0,1.8-0.9,1.8-1.9c0-1-0.8-1.8-1.8-1.8c-1,0-1.9,0.8-1.9,1.8
					S121.8,89.5,122.9,89.5C122.9,89.5,122.9,89.5,122.9,89.5"/>
				<path id="Path_1313" class="st1" d="M96.7,138.2c-1,0-1.8,0.9-1.7,1.9c0,1,0.9,1.8,1.9,1.7c1,0,1.8-0.8,1.8-1.8
					C98.6,139,97.7,138.2,96.7,138.2C96.7,138.2,96.7,138.2,96.7,138.2"/>
				<path id="Path_1314" class="st1" d="M91.6,132.9c-1-0.1-1.9,0.7-1.9,1.7s0.7,1.9,1.7,1.9s1.9-0.7,1.9-1.7c0,0,0,0,0,0
					C93.4,133.9,92.6,133,91.6,132.9"/>
				<path id="Path_1315" class="st1" d="M89.7,145.3c0,1,0.8,1.8,1.9,1.8c1,0,1.8-0.9,1.8-1.9c0-1-0.8-1.8-1.8-1.8
					C90.5,143.4,89.7,144.2,89.7,145.3C89.7,145.2,89.7,145.3,89.7,145.3"/>
				<path id="Path_1316" class="st1" d="M91.6,138.2c-1,0-1.8,0.7-1.9,1.7c0,1,0.8,1.9,1.8,1.9c0,0,0,0,0,0c1,0,1.8-0.8,1.9-1.8
					C93.4,139,92.6,138.2,91.6,138.2L91.6,138.2"/>
				<path id="Path_1317" class="st1" d="M91.6,159.1c-1,0-1.8,0.8-1.8,1.8c0,1,0.8,1.8,1.8,1.8s1.8-0.8,1.8-1.8c0,0,0,0,0,0
					C93.4,160,92.6,159.1,91.6,159.1"/>
				<path id="Path_1318" class="st1" d="M91.5,148.6c-1,0-1.8,0.8-1.8,1.8s0.8,1.8,1.8,1.8s1.8-0.8,1.8-1.8c0,0,0,0,0,0
					C93.3,149.5,92.5,148.7,91.5,148.6"/>
				<path id="Path_1319" class="st1" d="M93.4,155.8c0-1-0.7-1.9-1.7-1.9s-1.9,0.7-1.9,1.7c0,1,0.7,1.9,1.7,1.9
					C92.5,157.6,93.3,156.8,93.4,155.8"/>
				<path id="Path_1320" class="st1" d="M86.3,112c-1,0-1.8,0.8-1.8,1.8s0.8,1.8,1.8,1.8c1,0,1.8-0.8,1.8-1.8
					C88.2,112.9,87.4,112.1,86.3,112C86.4,112,86.3,112,86.3,112"/>
				<path id="Path_1321" class="st1" d="M86.4,131.4c1,0,1.8-0.9,1.8-1.9c0-1-0.9-1.8-1.9-1.8c-1,0-1.8,0.8-1.8,1.8
					c0,1,0.8,1.8,1.7,1.8C86.3,131.4,86.3,131.4,86.4,131.4"/>
				<path id="Path_1322" class="st1" d="M86.3,148.6c-1,0-1.8,0.8-1.8,1.8s0.8,1.8,1.8,1.8c1,0,1.8-0.8,1.8-1.8
					C88.1,149.5,87.3,148.6,86.3,148.6C86.3,148.6,86.3,148.6,86.3,148.6"/>
				<path id="Path_1323" class="st1" d="M84.5,124.4c0,1,0.9,1.8,1.9,1.7s1.8-0.9,1.7-1.9c0-1-0.8-1.7-1.8-1.7
					C85.3,122.5,84.5,123.3,84.5,124.4C84.5,124.3,84.5,124.4,84.5,124.4"/>
				<path id="Path_1324" class="st1" d="M103.8,113.9c0-1-0.8-1.8-1.8-1.9c-1,0-1.8,0.8-1.9,1.8l0,0c0,1,0.8,1.8,1.8,1.9
					C102.9,115.7,103.8,114.9,103.8,113.9"/>
				<path id="Path_1325" class="st1" d="M102,159.1c-1,0-1.8,0.8-1.9,1.8c0,1,0.8,1.8,1.8,1.9c1,0,1.8-0.8,1.9-1.8c0,0,0,0,0,0
					C103.8,160,103.1,159.2,102,159.1C102.1,159.1,102.1,159.1,102,159.1"/>
				<path id="Path_1326" class="st1" d="M96.8,115.7c1,0,1.8-0.8,1.8-1.8c0-1-0.8-1.8-1.8-1.9s-1.8,0.8-1.9,1.8c0,0,0,0.1,0,0.1
					C95,114.9,95.8,115.7,96.8,115.7"/>
				<path id="Path_1327" class="st1" d="M102,153.9c-1,0-1.8,0.8-1.9,1.8c0,1,0.8,1.8,1.8,1.9c1,0,1.8-0.8,1.9-1.8c0,0,0,0,0,0
					C103.8,154.7,103,153.9,102,153.9"/>
				<path id="Path_1328" class="st1" d="M96.8,117.2c-1,0-1.9,0.8-1.9,1.8c0,1,0.8,1.9,1.8,1.9c1,0,1.9-0.8,1.9-1.8c0,0,0,0,0,0
					C98.6,118.1,97.8,117.3,96.8,117.2"/>
				<path id="Path_1329" class="st1" d="M102,141.8c1,0,1.8-0.8,1.8-1.8c0-1-0.8-1.8-1.8-1.8c-1,0-1.8,0.8-1.8,1.8
					C100.2,141,101,141.8,102,141.8C102,141.8,102,141.8,102,141.8"/>
				<path id="Path_1330" class="st1" d="M96.7,127.7c-1,0-1.8,0.9-1.8,1.9c0,1,0.8,1.8,1.8,1.8c1,0,1.8-0.8,1.8-1.8
					C98.6,128.5,97.7,127.7,96.7,127.7C96.7,127.7,96.7,127.7,96.7,127.7"/>
				<path id="Path_1331" class="st1" d="M86.3,159.1c-1,0-1.8,0.8-1.8,1.8c0,1,0.8,1.8,1.8,1.8c1,0,1.8-0.7,1.8-1.7
					c0.1-1-0.7-1.8-1.7-1.9C86.4,159.1,86.4,159.1,86.3,159.1"/>
				<path id="Path_1332" class="st1" d="M39.2,80.6c-1,0-1.8,0.8-1.8,1.8c0,1,0.8,1.8,1.8,1.8c1,0,1.8-0.9,1.8-1.9
					C41,81.4,40.2,80.7,39.2,80.6"/>
				<path id="Path_1333" class="st1" d="M96.8,122.5c-1,0-1.8,0.8-1.9,1.8c0,1,0.8,1.8,1.8,1.9c0,0,0.1,0,0.1,0c1,0,1.8-0.8,1.8-1.8
					C98.6,123.3,97.8,122.5,96.8,122.5"/>
				<path id="Path_1334" class="st1" d="M96.7,136.6c1,0,1.8-0.8,1.9-1.8c0-1-0.8-1.8-1.8-1.9c-1,0-1.8,0.8-1.9,1.8c0,0,0,0,0,0
					C95,135.8,95.7,136.6,96.7,136.6"/>
			</g>
		</g>
	</g>
</g>
</svg>
