<?xml version="1.0" encoding="utf-8"?>
<!-- Generator: Adobe Illustrator 26.3.1, SVG Export Plug-In . SVG Version: 6.00 Build 0)  -->
<svg version="1.1" id="Layer_2_00000154394318848366828320000002752913854238427829_"
	 xmlns="http://www.w3.org/2000/svg" xmlns:xlink="http://www.w3.org/1999/xlink" x="0px" y="0px" viewBox="0 0 470.5 172.6"
	 style="enable-background:new 0 0 470.5 172.6;" xml:space="preserve">
<style type="text/css">
	.st0{enable-background:new    ;}
	.st1{fill:#fff;}
	.st2{clip-path:url(#SVGID_00000089574295329631526660000000715313757912070035_);}
</style>
<g>
	<g id="Component_15_1" transform="translate(185.838 9)">
		<g class="st0">
			<path class="st1" d="M76.3,61.9c0.8-0.8,1.7-0.9,2.7-0.2c0.9,0.7,1,1.5,0.3,2.3c-0.5,0.5-1.7,1.8-3.5,3.8c-1.8,2-3.1,3.4-3.8,4.1
				c-0.7,0.7-1.8,1.9-3.5,3.6c-1.6,1.7-3,3-3.9,3.9c-1,0.9-2.2,2.1-3.6,3.4c-1.4,1.4-2.8,2.6-4.2,3.7c-1.4,1.1-2.7,2.1-4.1,3.1
				c-2.3,1.7-4.2,3-5.8,4.1s-3.6,2.4-6.2,3.9c-2.5,1.5-4.8,2.7-6.9,3.5c-2.1,0.9-4.3,1.5-6.8,2.1c-2.5,0.5-4.8,0.7-7,0.4
				c-2.9-0.3-5.3-1.1-7.4-2.4c-2.1-1.3-3.7-2.9-4.9-4.8c-1.2-1.9-2.1-4.1-2.7-6.6s-1-5-1-7.6c-0.1-2.5,0.1-5.2,0.4-8
				c0.3-2.8,0.8-5.3,1.3-7.6c0.5-2.3,1.1-4.5,1.9-6.7C13,43.3,20.8,27.2,30.8,11.7c1-1.6,1.8-2.9,2.6-3.9c0.7-1.1,1.8-2.4,3.1-4.1
				c1.4-1.7,2.6-3.1,3.7-4.2c1.1-1.1,2.5-2.3,4-3.4s3.1-2,4.5-2.5c1.5-0.5,3-0.7,4.8-0.6c1.7,0.1,3.4,0.5,5.1,1.4
				c1.1,0.6,2.1,1.4,3,2.3c0.9,0.9,1.5,2,2.1,3.3c0.5,1.3,0.9,2.5,1.3,3.7c0.3,1.1,0.5,2.6,0.6,4.3c0.1,1.7,0.1,3.1,0.1,4.2
				c0,1.1-0.1,2.6-0.2,4.4c-0.2,1.8-0.3,3.1-0.4,3.9c-0.1,0.8-0.3,2-0.5,3.6c-0.1,0.7-0.5,1.2-1.1,1.4c-0.7,0.2-1.2,0.2-1.8-0.2
				c-0.5-0.4-0.8-0.9-0.7-1.6c0.2-1.5,0.3-2.7,0.4-3.6c0.1-0.9,0.3-2.3,0.4-4.2c0.2-1.9,0.2-3.5,0.1-4.8c-0.1-1.3-0.2-2.8-0.4-4.5
				c-0.2-1.7-0.5-3.1-1-4.3c-0.5-1.1-1.2-2.2-1.9-3.1c-0.8-1-1.8-1.6-3-2c-1.2-0.4-2.7-0.4-4.3-0.1c-1.1,0.2-2.3,0.5-3.4,1
				c-1.1,0.5-2.1,1.1-3.2,1.9c-1,0.8-2,1.6-2.8,2.4c-0.9,0.8-1.8,1.8-2.7,3c-0.9,1.2-1.7,2.2-2.4,3.2c-0.7,0.9-1.4,2.1-2.3,3.4
				c-0.8,1.4-1.5,2.5-2,3.3c-0.5,0.9-1.1,2-1.9,3.3c-0.8,1.4-1.3,2.3-1.6,3C21,35.4,14.9,48.9,10.7,61.9C8,70.3,6.9,77.4,7.3,83.3
				c0.3,3.4,1.1,6.5,2.7,9.4c1.5,2.9,3.7,5,6.5,6.3c1.1,0.5,2.2,0.9,3.5,1.1c1.2,0.2,2.4,0.2,3.5,0.1c1.1-0.1,2.3-0.4,3.6-0.7
				c1.3-0.3,2.4-0.7,3.4-1.1s2.1-0.9,3.3-1.5c4.1-2,8-4.2,11.8-6.8c3.8-2.5,7.6-5.5,11.3-8.9c3.7-3.4,6.9-6.4,9.5-9
				C69,69.6,72.3,66.2,76.3,61.9z"/>
			<path class="st1" d="M110.1,56.7c0.5-0.1,0.9,0,1.3,0.4c0.4,0.3,0.6,0.7,0.7,1.2s0,0.9-0.4,1.4c-0.4,0.5-0.8,1-1.3,1.6
				c-0.5,0.6-1.3,1.4-2.4,2.5c-1.1,1.1-2.2,2.1-3.3,2.9c-1.1,0.8-2.3,1.6-3.7,2.2s-2.7,0.9-4,0.9s-2.4-0.3-3.4-0.9
				c-1.6-0.9-2.4-2.6-2.4-5.1c-3.5,4.3-6.8,6-9.9,5.1c-2.5-0.7-3.8-2.5-3.9-5.4c-0.1-2,0.7-4.4,2.1-7.3c1.5-2.8,3.3-5.3,5.3-7.5
				c2.1-2.2,4-3.5,5.6-4c1.5-0.5,2.8-0.3,4,0.4c0.7,0.4,1.3,1,1.8,1.9c0-0.1,0-0.1,0-0.2c0.3-0.4,0.6-0.7,1.1-0.9
				c0.4-0.2,0.9-0.2,1.3,0c0.4,0.2,0.8,0.5,1,1c0.2,0.5,0.2,0.9,0,1.3c-0.7,1.8-1.5,3.7-2.4,5.5c-1.1,3-1.9,5.5-2.2,7.6
				c-0.3,2.1-0.2,3.5,0.5,4.1c0.7,0.5,1.6,0.6,2.7,0.3c1-0.3,2.1-0.8,3-1.4c1-0.6,2-1.4,3.1-2.3c1.1-1,2-1.8,2.7-2.7
				c0.7-0.8,1.4-1.5,1.9-2.2C109.2,57,109.6,56.8,110.1,56.7z M93.9,52.3c0.1-0.3,0.2-0.6,0.4-0.9c-0.2-0.3-0.4-0.5-0.5-0.9
				c-0.2-1.2-0.6-2-1.2-2.3c-0.1-0.1-0.2-0.2-0.4-0.2c-0.2,0-0.3,0-0.5,0.1c-1.9,0.6-4.2,2.7-6.7,6.3c-2.6,3.6-3.8,6.6-3.8,9
				c0,1,0.4,1.6,1.2,1.9c1.5,0.4,3.3-0.7,5.4-3.2C89.9,59.5,91.9,56.2,93.9,52.3z"/>
			<path class="st1" d="M136.5,66c0.5-0.1,0.9-0.1,1.4,0.2c0.4,0.3,0.7,0.6,0.8,1.1c0.1,0.5,0.1,0.9-0.2,1.4
				c-0.2,0.3-0.4,0.7-0.7,1.2c-0.3,0.5-1,1.3-2,2.3c-1,1.1-2,2-3,2.8c-1.1,0.8-2.4,1.6-4,2.3c-1.6,0.7-3.3,1-4.9,1
				c-0.8,0-1.7-0.1-2.5-0.2c-5.1-1-8.6-4.4-10.5-10.3s-2-13.6-0.3-23.3c0.7-4,1.7-8.2,3-12.7c1.3-4.4,2.8-8.8,4.6-13
				c1.8-4.2,3.6-8,5.6-11.3c2-3.3,4.1-5.9,6.3-7.8c2.2-1.9,4.3-2.7,6.4-2.4c0.1,0,0.2,0,0.3,0.1c1.6,0.5,2.6,1.6,3.2,3.3
				c0.7,2.2,0.4,5.7-1.1,10.4c-1.4,4.7-3.3,9.4-5.5,14s-5,9.8-8.2,15.4c-3.2,5.6-5.6,9.7-7.2,12.3c-1.6,2.7-3.1,5-4.4,7
				c-0.1,0.2-0.2,0.3-0.4,0.4c0.6,8.5,3.6,13.2,8.9,14.3c1.5,0.3,2.9,0.2,4.4-0.3c1.5-0.4,2.7-1,3.7-1.8c1-0.7,1.9-1.6,2.8-2.5
				c0.9-1,1.5-1.7,1.8-2.1c0.3-0.4,0.5-0.8,0.6-1.1C135.7,66.4,136,66.1,136.5,66z M114.2,45.1c-0.5,3-0.9,5.8-1,8.5
				c4.3-6.8,8.2-13.4,11.8-20c3.6-6.6,6.6-13,9-19.1s3.3-10.3,2.5-12.6c-0.2-0.5-0.4-0.8-0.8-1h-0.2c-1.5,0-3.2,1.3-5.3,3.9
				c-2.1,2.6-4.1,5.9-6.2,10c-2,4.1-4,8.8-5.8,14.3C116.4,34.5,115.1,39.8,114.2,45.1z"/>
			<path class="st1" d="M162.7,66c0.5-0.1,0.9-0.1,1.4,0.2c0.4,0.3,0.7,0.6,0.8,1.1c0.1,0.5,0.1,0.9-0.2,1.4
				c-0.2,0.3-0.4,0.7-0.7,1.2c-0.3,0.5-1,1.3-1.9,2.3c-1,1.1-2,2-3,2.8c-1.1,0.8-2.4,1.6-4,2.3c-1.6,0.7-3.2,1-4.9,1
				c-0.8,0-1.7-0.1-2.5-0.2c-5.1-1-8.6-4.4-10.5-10.3c-1.9-5.8-2-13.6-0.3-23.3c0.7-4,1.7-8.2,3-12.7c1.3-4.4,2.8-8.8,4.6-13
				c1.8-4.2,3.6-8,5.6-11.3c2-3.3,4.1-5.9,6.3-7.8c2.2-1.9,4.3-2.7,6.4-2.4c0.1,0,0.2,0,0.3,0.1c1.6,0.5,2.6,1.6,3.2,3.3
				c0.7,2.2,0.4,5.7-1.1,10.4c-1.4,4.7-3.3,9.4-5.5,14c-2.3,4.7-5,9.8-8.2,15.4c-3.2,5.6-5.6,9.7-7.2,12.3c-1.6,2.7-3.1,5-4.4,7
				c-0.1,0.2-0.2,0.3-0.4,0.4c0.6,8.5,3.6,13.2,8.9,14.3c1.5,0.3,2.9,0.2,4.4-0.3c1.5-0.4,2.7-1,3.7-1.8c1-0.7,1.9-1.6,2.8-2.5
				c0.9-1,1.5-1.7,1.8-2.1c0.3-0.4,0.5-0.8,0.6-1.1C161.8,66.4,162.2,66.1,162.7,66z M140.3,45.1c-0.5,3-0.9,5.8-1,8.5
				c4.3-6.8,8.2-13.4,11.8-20c3.6-6.6,6.6-13,9-19.1s3.3-10.3,2.5-12.6c-0.2-0.5-0.4-0.8-0.8-1h-0.2c-1.5,0-3.2,1.3-5.3,3.9
				c-2.1,2.6-4.1,5.9-6.2,10c-2,4.1-4,8.8-5.8,14.3S141.2,39.8,140.3,45.1z"/>
		</g>
		<g class="st0">
			<path class="st1" d="M50,101.7c4.2,1.9,7.4,4.6,9.7,8.1c2.3,3.5,3.4,7.6,3.4,12.4c0,4.7-1.1,8.9-3.4,12.3
				c-2.3,3.5-5.5,6.2-9.7,8.1c-4.2,1.9-9.2,2.8-14.9,2.8h-11v16.5H6.3v-63h28.8C40.8,98.9,45.7,99.8,50,101.7z M42.3,129
				c1.9-1.6,2.8-3.9,2.8-6.8s-0.9-5.2-2.8-6.8c-1.9-1.6-4.6-2.4-8.3-2.4h-9.9v18.4H34C37.7,131.4,40.4,130.6,42.3,129z"/>
			<path class="st1" d="M72.4,105.1c-1.9-1.7-2.9-3.9-2.9-6.5c0-2.6,1-4.7,2.9-6.5c1.9-1.7,4.4-2.6,7.6-2.6c3.1,0,5.6,0.8,7.6,2.5
				c1.9,1.7,2.9,3.8,2.9,6.3c0,2.7-1,4.9-2.9,6.7c-1.9,1.8-4.4,2.7-7.6,2.7C76.8,107.7,74.3,106.8,72.4,105.1z M71.4,113.1h17.1
				v48.8H71.4V113.1z"/>
			<path class="st1" d="M130.5,161.9l-8.7-12.8l-9.4,12.8H93.9l18.5-24.4l-18-24.4h19.3l8.6,12.3l9-12.3h18.1l-18,23.8l18.6,25
				H130.5z"/>
			<path class="st1" d="M188.9,159.9c-1.4,0.9-3.2,1.6-5.3,2.1c-2.1,0.5-4.3,0.7-6.6,0.7c-6.4,0-11.2-1.6-14.7-4.7s-5.1-7.8-5.1-14
				v-16.4h-7.1v-12.8h7.1v-12.7h17.1v12.7h11.2v12.8h-11.2v16.2c0,1.7,0.5,3.1,1.4,4.1c0.9,1,2.2,1.5,3.7,1.5c2,0,3.7-0.5,5.2-1.5
				L188.9,159.9z"/>
			<path class="st1" d="M234.8,117.8c4.3,3.7,6.4,9.3,6.4,17v27.1h-15.9v-6.3c-2.5,4.7-7.3,7.1-14.4,7.1c-3.8,0-7.1-0.7-9.8-2
				c-2.8-1.3-4.8-3.1-6.3-5.4c-1.4-2.2-2.1-4.8-2.1-7.7c0-4.6,1.8-8.2,5.3-10.8c3.5-2.5,9-3.8,16.4-3.8h9.7
				c-0.3-5.2-3.8-7.7-10.4-7.7c-2.3,0-4.7,0.4-7.1,1.1c-2.4,0.8-4.4,1.8-6.1,3.1l-5.8-11.6c2.7-1.8,6-3.2,9.9-4.2
				c3.9-1,7.8-1.5,11.7-1.5C224.4,112.3,230.5,114.1,234.8,117.8z M220.9,150.4c1.5-1,2.6-2.4,3.2-4.2V142h-7.4
				c-5,0-7.5,1.7-7.5,4.9c0,1.5,0.6,2.7,1.7,3.6c1.1,0.9,2.7,1.3,4.7,1.3C217.6,151.9,219.4,151.4,220.9,150.4z"/>
			<path class="st1" d="M275.1,113.9c2.8-1.1,6-1.7,9.6-1.7v15.4c-1.6-0.2-2.9-0.3-3.9-0.3c-3.7,0-6.5,1-8.6,3s-3.1,5-3.1,9.1v22.4
				H252v-48.8h16.3v5.8C270,116.7,272.3,115.1,275.1,113.9z"/>
		</g>
	</g>
	<g id="Component_16_1" transform="translate(0 7.13)">
		<g>
			<defs>
				<rect id="SVGID_1_" y="-7.1" width="172.6" height="172.6"/>
			</defs>
			<clipPath id="SVGID_00000008861212078094639150000002721776171170524085_">
				<use xlink:href="#SVGID_1_"  style="overflow:visible;"/>
			</clipPath>
			<g id="Group_240" style="clip-path:url(#SVGID_00000008861212078094639150000002721776171170524085_);">
				<path id="Path_970" class="st1" d="M86.3,46.2c-18.2,0-33,14.8-33,33s14.8,33,33,33c18.2,0,33-14.8,33-33v0
					C119.2,61,104.5,46.2,86.3,46.2 M86.3,109.9c-17,0-30.7-13.7-30.7-30.7s13.7-30.7,30.7-30.7S117,62.2,117,79.2l0,0
					C117,96.1,103.2,109.9,86.3,109.9"/>
				<path id="Path_971" class="st1" d="M89,64.1L89,64.1L89,64.1L89,64.1L89,64.1c-4,0-7.8,1.6-10.7,4.4c-5.9,5.9-5.9,15.4,0,21.3
					c2.8,2.8,6.7,4.4,10.7,4.4V83.6c5.4,0,9.8-4.4,9.8-9.8C98.7,68.5,94.4,64.1,89,64.1 M89,81.3L89,81.3c-1.2,0-2.2-1-2.2-2.2
					c0-1.2,1-2.2,2.2-2.2v-2.3c-2.4,0-4.4,2-4.4,4.4c0,1.5,0.8,3,2.1,3.8v8.8c-6.9-1.3-11.5-8-10.2-14.9c1.1-6,6.4-10.4,12.5-10.4
					c4.1,0,7.5,3.3,7.5,7.5C96.4,78,93.1,81.3,89,81.3"/>
				<path id="Path_972" class="st1" d="M2.6,103.5c-1,0-1.8,0.8-1.9,1.8c0,1,0.8,1.8,1.8,1.9c1,0,1.8-0.8,1.8-1.9
					C4.4,104.3,3.6,103.5,2.6,103.5"/>
				<path id="Path_973" class="st1" d="M2.6,122.9c1,0,1.8-0.9,1.8-1.9c0-1-0.8-1.7-1.7-1.8c-1,0-1.8,0.8-1.8,1.9
					C0.8,122,1.6,122.8,2.6,122.9"/>
				<path id="Path_974" class="st1" d="M4.4,110.6c0.1-1-0.7-1.8-1.7-1.9c0,0-0.1,0-0.1,0c-1,0-1.8,0.8-1.8,1.8
					c0,0.9,0.8,1.7,1.7,1.8C3.5,112.4,4.4,111.6,4.4,110.6C4.4,110.6,4.4,110.6,4.4,110.6"/>
				<path id="Path_975" class="st1" d="M2.6,117.6c1,0,1.8-0.7,1.8-1.7c0,0,0,0,0,0c0-1-0.8-1.8-1.8-1.9s-1.8,0.8-1.9,1.8
					c0,0,0,0,0,0C0.8,116.8,1.5,117.6,2.6,117.6C2.5,117.6,2.6,117.6,2.6,117.6"/>
				<path id="Path_976" class="st1" d="M2.6,70.5c1,0,1.8-0.9,1.8-1.9c0-1-0.8-1.8-1.8-1.8c-1,0-1.8,0.9-1.8,1.9
					C0.9,69.7,1.6,70.5,2.6,70.5"/>
				<path id="Path_977" class="st1" d="M13,96.7c1,0,1.8-0.8,1.8-1.8c0-1-0.8-1.8-1.8-1.8c-1,0-1.8,0.8-1.8,1.8
					C11.2,95.8,12,96.6,13,96.7"/>
				<path id="Path_978" class="st1" d="M2.6,96.7c1,0,1.8-0.8,1.8-1.8c0-1-0.8-1.8-1.8-1.8c-1,0-1.8,0.8-1.9,1.8
					C0.7,95.8,1.5,96.6,2.6,96.7C2.6,96.7,2.6,96.7,2.6,96.7"/>
				<path id="Path_979" class="st1" d="M7.9,98.3c-1,0-1.9,0.8-1.9,1.8c0,0,0,0,0,0c0,1,0.8,1.8,1.8,1.8c1,0,1.8-0.8,1.8-1.8
					C9.6,99.1,8.9,98.3,7.9,98.3"/>
				<path id="Path_980" class="st1" d="M13,40.7c-1,0-1.8,0.8-1.8,1.8s0.8,1.8,1.8,1.8c1,0,1.9-0.8,1.8-1.9
					C14.9,41.5,14,40.7,13,40.7"/>
				<path id="Path_981" class="st1" d="M2.6,75.8c1,0,1.8-0.9,1.8-1.9c0-1-0.8-1.8-1.8-1.8c-1,0-1.8,0.8-1.8,1.8
					C0.8,74.9,1.6,75.8,2.6,75.8"/>
				<path id="Path_982" class="st1" d="M13,51.2c-1,0.1-1.8,1-1.7,2c0.1,1,0.9,1.7,1.8,1.7c1,0,1.8-0.8,1.8-1.8
					C14.9,52,14.1,51.2,13,51.2C13,51.2,13,51.2,13,51.2"/>
				<path id="Path_983" class="st1" d="M7.8,82.6c-1,0-1.8,0.8-1.8,1.8c0,1,0.8,1.8,1.8,1.8c0,0,0,0,0.1,0c1,0,1.8-0.9,1.8-1.9
					C9.6,83.4,8.8,82.6,7.8,82.6"/>
				<path id="Path_984" class="st1" d="M13.1,86.2c1,0,1.8-0.8,1.8-1.8c0-1-0.8-1.8-1.8-1.8c-1,0-1.9,0.8-1.9,1.8S12,86.2,13.1,86.2
					C13,86.2,13,86.2,13.1,86.2"/>
				<path id="Path_985" class="st1" d="M13.1,60.1c1,0,1.8-0.9,1.8-1.9c0-1-0.9-1.8-1.9-1.8c-1,0-1.8,0.8-1.8,1.8
					C11.2,59.2,12,60.1,13.1,60.1C13.1,60.1,13.1,60.1,13.1,60.1"/>
				<path id="Path_986" class="st1" d="M7.9,91.5c1,0,1.8-0.9,1.8-1.9c0-1-0.8-1.8-1.8-1.8c-1,0-1.8,0.8-1.8,1.8
					C6,90.7,6.8,91.5,7.9,91.5C7.9,91.5,7.9,91.5,7.9,91.5"/>
				<path id="Path_987" class="st1" d="M2.6,49.6c1,0,1.8-0.9,1.8-1.9c0-1-0.8-1.7-1.8-1.8c-1,0-1.8,0.8-1.9,1.8S1.5,49.6,2.6,49.6
					C2.6,49.6,2.6,49.6,2.6,49.6"/>
				<path id="Path_988" class="st1" d="M2.6,86.2c1,0,1.8-0.8,1.8-1.8c0-1-0.8-1.8-1.8-1.8s-1.8,0.8-1.8,1.8c0,0,0,0,0,0
					C0.8,85.4,1.6,86.2,2.6,86.2"/>
				<path id="Path_989" class="st1" d="M7.9,66.9c-1,0-1.9,0.8-1.9,1.8c0,1,0.8,1.9,1.8,1.9c0,0,0,0,0.1,0c1,0,1.8-0.8,1.8-1.8
					C9.6,67.7,8.9,66.9,7.9,66.9"/>
				<path id="Path_990" class="st1" d="M6,120.9c0,1,0.8,1.9,1.8,1.9c1,0,1.8-0.8,1.9-1.8c0-1-0.8-1.8-1.8-1.9
					C6.9,119.2,6.1,119.9,6,120.9"/>
				<path id="Path_991" class="st1" d="M9.7,95c0-1-0.8-1.9-1.8-1.9S6,93.8,6,94.8c0,1,0.8,1.8,1.8,1.8C8.8,96.7,9.6,95.9,9.7,95"/>
				<path id="Path_992" class="st1" d="M4.4,42.6c0-1-0.7-1.8-1.7-1.8c0,0,0,0,0,0c-1,0-1.8,0.8-1.9,1.8c0,1,0.8,1.8,1.8,1.9
					c0,0,0,0,0.1,0C3.6,44.4,4.4,43.6,4.4,42.6C4.4,42.6,4.4,42.6,4.4,42.6"/>
				<path id="Path_993" class="st1" d="M46.3,94.9c0-1-0.8-1.9-1.8-1.9c-1,0-1.9,0.8-1.9,1.8c0,1,0.8,1.9,1.8,1.9c0,0,0,0,0.1,0
					C45.4,96.7,46.3,95.9,46.3,94.9"/>
				<path id="Path_994" class="st1" d="M44.5,101.9c1,0,1.8-0.9,1.8-1.9c0-1-0.9-1.8-1.9-1.8c-1,0-1.8,0.9-1.8,1.9c0,0,0,0,0,0
					C42.7,101.1,43.5,101.9,44.5,101.9"/>
				<path id="Path_995" class="st1" d="M44.4,81c1,0,1.8-0.8,1.9-1.8c0-1-0.8-1.8-1.8-1.9c-1,0-1.8,0.7-1.9,1.7
					C42.6,80.1,43.4,80.9,44.4,81"/>
				<path id="Path_996" class="st1" d="M44.5,82.6c-1,0-1.8,0.8-1.8,1.8c0,1,0.8,1.8,1.8,1.8c1,0,1.8-0.8,1.8-1.8c0,0,0,0,0,0
					C46.3,83.4,45.5,82.6,44.5,82.6"/>
				<path id="Path_997" class="st1" d="M44.5,66.9c-1,0-1.8,0.8-1.8,1.8c0,1,0.8,1.8,1.8,1.8s1.8-0.8,1.8-1.8c0,0,0,0,0,0
					C46.3,67.7,45.5,66.9,44.5,66.9"/>
				<path id="Path_998" class="st1" d="M44.5,49.6c1,0,1.8-0.8,1.9-1.8c0-1-0.8-1.8-1.8-1.9c0,0-0.1,0-0.1,0c-1,0-1.9,0.8-1.9,1.8
					C42.6,48.8,43.5,49.6,44.5,49.6"/>
				<path id="Path_999" class="st1" d="M49.6,107.2c1,0,1.9-0.8,1.9-1.8c0-1-0.8-1.9-1.8-1.9s-1.9,0.8-1.9,1.8c0,0,0,0,0,0
					C47.9,106.3,48.7,107.1,49.6,107.2"/>
				<path id="Path_1000" class="st1" d="M42.6,58.3c0,1,0.9,1.8,1.9,1.8c1,0,1.8-0.8,1.8-1.8c0-1-0.8-1.9-1.8-1.9
					C43.5,56.4,42.6,57.2,42.6,58.3C42.6,58.2,42.6,58.2,42.6,58.3"/>
				<path id="Path_1001" class="st1" d="M46.3,32.1c0-1-0.9-1.8-1.9-1.8c-1,0-1.8,0.8-1.8,1.8c0,1,0.9,1.8,1.9,1.8
					C45.5,33.8,46.3,33,46.3,32.1"/>
				<path id="Path_1002" class="st1" d="M39.2,49.6c1,0,1.8-0.9,1.8-1.9c0-1-0.8-1.7-1.8-1.8c-1,0-1.8,0.8-1.8,1.8c0,0,0,0.1,0,0.1
					C37.4,48.8,38.2,49.6,39.2,49.6C39.2,49.6,39.2,49.6,39.2,49.6"/>
				<path id="Path_1003" class="st1" d="M37.4,58.2c0,1,0.8,1.9,1.8,1.9c0,0,0,0,0,0c1,0,1.8-0.8,1.8-1.8c0-1-0.8-1.8-1.8-1.8
					C38.3,56.4,37.4,57.2,37.4,58.2"/>
				<path id="Path_1004" class="st1" d="M49.7,44.4c1,0,1.8-0.8,1.8-1.8c0-1-0.8-1.8-1.8-1.8c-1,0-1.8,0.8-1.8,1.8
					C47.9,43.6,48.7,44.4,49.7,44.4C49.7,44.4,49.7,44.4,49.7,44.4"/>
				<path id="Path_1005" class="st1" d="M18.3,128.9C8.2,128.9,0,137.1,0,147.2c0,10.1,8.2,18.3,18.3,18.3
					c10.1,0,18.3-8.2,18.3-18.3c0,0,0,0,0,0C36.6,137.1,28.4,128.9,18.3,128.9 M18.3,160.3c-7.2,0-13.1-5.8-13.1-13.1
					c0-7.2,5.8-13.1,13.1-13.1c7.2,0,13.1,5.8,13.1,13.1C31.4,154.4,25.6,160.2,18.3,160.3C18.3,160.3,18.3,160.3,18.3,160.3"/>
				<path id="Path_1006" class="st1" d="M18.3,139.3c-4.3,0-7.8,3.5-7.8,7.9c0,4.3,3.5,7.8,7.9,7.8c4.3,0,7.8-3.5,7.8-7.8
					C26.1,142.8,22.6,139.3,18.3,139.3"/>
				<path id="Path_1007" class="st1" d="M44.4,25c-1,0-1.8,0.8-1.8,1.8c0,1,0.8,1.8,1.8,1.8c1,0,1.8-0.8,1.8-1.8
					C46.3,25.8,45.4,25,44.4,25"/>
				<path id="Path_1008" class="st1" d="M46.3,16.4c0-1-0.8-1.8-1.9-1.8c-1,0-1.8,0.8-1.8,1.8c0,1,0.8,1.9,1.8,1.9
					C45.4,18.3,46.3,17.5,46.3,16.4C46.3,16.4,46.3,16.4,46.3,16.4"/>
				<path id="Path_1009" class="st1" d="M44.4-2.7c1,0,1.9-0.8,1.9-1.8c0,0,0,0,0,0c0-1-0.8-1.8-1.9-1.8c-1,0-1.8,0.8-1.8,1.9
					C42.6-3.5,43.4-2.7,44.4-2.7"/>
				<path id="Path_1010" class="st1" d="M39.2,44.4c1,0,1.8-0.8,1.8-1.8s-0.8-1.8-1.8-1.8c-1,0-1.8,0.8-1.8,1.8
					C37.4,43.5,38.2,44.3,39.2,44.4C39.2,44.4,39.2,44.4,39.2,44.4"/>
				<path id="Path_1011" class="st1" d="M44.4,7.8c1,0,1.8-0.8,1.9-1.8c0-1-0.8-1.9-1.8-1.9c-1,0-1.9,0.8-1.9,1.8c0,0,0,0.1,0,0.1
					C42.6,6.9,43.4,7.7,44.4,7.8"/>
				<path id="Path_1012" class="st1" d="M39.3,65.3c1,0,1.8-0.9,1.8-1.9c0-1-0.8-1.7-1.8-1.8c-1,0-1.8,0.8-1.8,1.8
					C37.4,64.5,38.2,65.3,39.3,65.3C39.2,65.3,39.2,65.3,39.3,65.3"/>
				<path id="Path_1013" class="st1" d="M28.8,108.7c-1,0-1.8,0.8-1.8,1.8c0,1,0.8,1.8,1.8,1.8c1,0,1.8-0.8,1.8-1.8
					C30.6,109.6,29.8,108.8,28.8,108.7"/>
				<path id="Path_1014" class="st1" d="M28.7,81c1,0,1.8-0.8,1.8-1.8c0-1-0.8-1.8-1.8-1.8c-1,0-1.8,0.8-1.8,1.8
					C26.9,80.2,27.8,81,28.7,81"/>
				<path id="Path_1015" class="st1" d="M28.7,86.2c1,0,1.8-0.8,1.8-1.8c0-1-0.8-1.8-1.8-1.8c-1,0-1.8,0.8-1.8,1.8c0,0,0,0,0,0
					C26.9,85.4,27.7,86.2,28.7,86.2"/>
				<path id="Path_1016" class="st1" d="M28.8,117.6c1,0,1.8-0.8,1.8-1.8c0-1-0.8-1.9-1.8-1.9c-1,0-1.9,0.8-1.9,1.8
					S27.7,117.6,28.8,117.6C28.7,117.6,28.7,117.6,28.8,117.6"/>
				<path id="Path_1017" class="st1" d="M34,112.4c1,0,1.8-0.8,1.9-1.8c0,0,0,0,0-0.1c0-1-0.8-1.8-1.8-1.8c-1,0-1.8,0.8-1.8,1.8
					C32.2,111.6,33,112.3,34,112.4"/>
				<path id="Path_1018" class="st1" d="M34,122.9c1,0,1.8-0.8,1.9-1.8c0-1-0.8-1.8-1.8-1.9c-1,0-1.8,0.8-1.9,1.8c0,0,0,0,0,0.1
					C32.2,122,33,122.8,34,122.9"/>
				<path id="Path_1019" class="st1" d="M30.6,37.4c0-1-0.8-1.8-1.8-1.9c-1,0-1.9,0.8-1.9,1.8c0,1,0.8,1.9,1.8,1.9c0,0,0,0,0.1,0
					C29.7,39.1,30.5,38.3,30.6,37.4"/>
				<path id="Path_1020" class="st1" d="M28.8,60.1c1-0.1,1.8-0.9,1.8-1.9c0-1-0.8-1.8-1.9-1.8c-1,0-1.8,0.8-1.8,1.9
					C26.9,59.3,27.8,60.1,28.8,60.1C28.8,60.1,28.8,60.1,28.8,60.1"/>
				<path id="Path_1021" class="st1" d="M28.7,49.6c1,0,1.8-0.8,1.9-1.7c0.1-1-0.7-1.9-1.7-1.9s-1.9,0.7-1.9,1.7
					S27.7,49.5,28.7,49.6C28.7,49.6,28.7,49.6,28.7,49.6"/>
				<path id="Path_1022" class="st1" d="M28.8,98.3c-1,0-1.8,0.8-1.8,1.8c0,1,0.8,1.8,1.8,1.8c1,0,1.8-0.8,1.8-1.8c0,0,0,0,0,0
					C30.6,99.1,29.8,98.3,28.8,98.3"/>
				<path id="Path_1023" class="st1" d="M28.8,61.7c-1,0-1.8,0.8-1.8,1.8c0,1,0.8,1.8,1.8,1.8c1,0,1.8-0.8,1.8-1.8c0,0,0,0,0,0
					C30.6,62.5,29.8,61.7,28.8,61.7"/>
				<path id="Path_1024" class="st1" d="M28.8,70.5c1,0,1.8-0.8,1.8-1.8c0-1-0.8-1.8-1.8-1.8c-1,0-1.9,0.8-1.9,1.8
					S27.7,70.5,28.8,70.5C28.7,70.5,28.7,70.5,28.8,70.5"/>
				<path id="Path_1025" class="st1" d="M18.3-7.1C8.2-7.2,0,1,0,11.1s8.1,18.3,18.2,18.3s18.3-8.1,18.3-18.2c0,0,0,0,0,0
					C36.6,1.1,28.4-7.1,18.3-7.1 M18.3,24.2c-7.2,0-13.1-5.9-13.1-13.1S11.1-1.9,18.3-1.9s13.1,5.9,13.1,13.1c0,0,0,0,0,0
					C31.4,18.4,25.6,24.2,18.3,24.2C18.3,24.2,18.3,24.2,18.3,24.2"/>
				<path id="Path_1026" class="st1" d="M33.9,91.5c1,0,1.9-0.8,1.9-1.8c0-1-0.8-1.9-1.8-1.9l0,0c-1,0-1.8,0.8-1.8,1.8
					C32.2,90.6,33,91.4,33.9,91.5"/>
				<path id="Path_1027" class="st1" d="M18.3,3.3c-4.3,0-7.8,3.5-7.9,7.8s3.5,7.8,7.8,7.9c4.3,0,7.8-3.5,7.9-7.8
					C26.1,6.9,22.7,3.4,18.3,3.3"/>
				<path id="Path_1028" class="st1" d="M39.2,96.7c1,0,1.8-0.8,1.8-1.8c0-1-0.8-1.8-1.8-1.8c-1,0-1.8,0.8-1.8,1.8c0,0,0,0,0,0
					C37.4,95.9,38.2,96.7,39.2,96.7"/>
				<path id="Path_1029" class="st1" d="M39.2,70.5c1,0,1.8-0.8,1.8-1.9c0-1-0.8-1.8-1.8-1.8c-1,0-1.9,0.8-1.9,1.8
					C37.3,69.7,38.1,70.5,39.2,70.5C39.2,70.5,39.2,70.5,39.2,70.5"/>
				<path id="Path_1030" class="st1" d="M34,101.9c1,0,1.8-0.8,1.8-1.8c0-1-0.8-1.8-1.8-1.8c0,0,0,0,0,0c-1,0-1.8,0.9-1.7,1.9
					C32.2,101.1,33,101.9,34,101.9"/>
				<path id="Path_1031" class="st1" d="M35.8,79.2c0-1-0.8-1.8-1.8-1.8s-1.8,0.8-1.8,1.8c0,1,0.8,1.8,1.8,1.8c0,0,0,0,0,0
					C35,81,35.8,80.2,35.8,79.2C35.8,79.2,35.8,79.2,35.8,79.2"/>
				<path id="Path_1032" class="st1" d="M34,70.5c1,0,1.9-0.8,1.9-1.8s-0.8-1.9-1.8-1.9c-1,0-1.9,0.8-1.9,1.8c0,0,0,0,0,0
					C32.2,69.7,33,70.5,34,70.5"/>
				<path id="Path_1033" class="st1" d="M34,35.5c-1,0-1.8,0.9-1.8,1.9c0,1,0.8,1.7,1.7,1.8c1,0,1.8-0.8,1.8-1.8
					C35.8,36.3,35,35.5,34,35.5"/>
				<path id="Path_1034" class="st1" d="M34,49.6c1,0,1.8-0.8,1.8-1.8c0-1-0.8-1.8-1.8-1.8c-1,0-1.8,0.8-1.8,1.8c0,0,0,0,0,0
					C32.2,48.8,33,49.6,34,49.6C34,49.6,34,49.6,34,49.6"/>
				<path id="Path_1035" class="st1" d="M34,56.4c-1,0-1.8,0.8-1.8,1.8c0,1,0.8,1.8,1.8,1.8c1,0,1.8-0.8,1.8-1.8c0,0,0,0,0,0
					C35.8,57.2,34.9,56.4,34,56.4"/>
				<path id="Path_1036" class="st1" d="M13.1,122.9c1,0,1.8-0.8,1.8-1.9c0-1-0.8-1.8-1.8-1.8c-1,0-1.9,0.8-1.9,1.8
					C11.2,122,12,122.8,13.1,122.9C13,122.9,13,122.9,13.1,122.9"/>
				<path id="Path_1037" class="st1" d="M18.4,77.4c-1,0-1.8,0.8-1.9,1.8c0,1,0.8,1.8,1.8,1.9c1,0,1.8-0.8,1.9-1.8c0,0,0,0,0,0
					C20.1,78.2,19.4,77.4,18.4,77.4C18.4,77.4,18.4,77.4,18.4,77.4"/>
				<path id="Path_1038" class="st1" d="M18.2,60.1c1,0,1.8-0.8,1.9-1.8c0,0,0,0,0,0c0-1-0.8-1.8-1.8-1.8c-1,0-1.8,0.8-1.8,1.8
					C16.5,59.3,17.3,60,18.2,60.1"/>
				<path id="Path_1039" class="st1" d="M18.3,93.1c-1,0-1.8,0.8-1.9,1.8c0,1,0.8,1.8,1.8,1.9c1,0,1.8-0.8,1.9-1.8
					S19.3,93.1,18.3,93.1"/>
				<path id="Path_1040" class="st1" d="M18.3,87.8c-1,0-1.8,0.8-1.8,1.9c0,1,0.8,1.8,1.7,1.8c1,0,1.9-0.8,1.9-1.8
					C20.2,88.7,19.4,87.8,18.3,87.8C18.3,87.8,18.3,87.8,18.3,87.8"/>
				<path id="Path_1041" class="st1" d="M16.5,115.8c0,1,0.8,1.8,1.8,1.9c1,0,1.8-0.8,1.9-1.8l0,0c0-1-0.7-1.9-1.7-1.9
					c0,0,0,0-0.1,0C17.3,114,16.5,114.8,16.5,115.8C16.5,115.7,16.5,115.7,16.5,115.8"/>
				<path id="Path_1042" class="st1" d="M18.3,44.4c1,0,1.8-0.9,1.8-1.9s-0.9-1.8-1.9-1.8c-1,0-1.8,0.9-1.7,1.9
					C16.5,43.6,17.3,44.4,18.3,44.4"/>
				<path id="Path_1043" class="st1" d="M18.3,49.6c1,0,1.8-0.8,1.8-1.8c0-1-0.8-1.8-1.8-1.8s-1.8,0.8-1.8,1.8c0,0,0,0,0,0
					C16.5,48.8,17.3,49.6,18.3,49.6C18.3,49.6,18.3,49.6,18.3,49.6"/>
				<path id="Path_1044" class="st1" d="M13.1,117.6c1,0,1.8-0.8,1.8-1.8c0-1-0.8-1.9-1.9-1.9c0,0,0,0,0,0c-1,0-1.8,0.8-1.8,1.8
					S12,117.6,13.1,117.6"/>
				<path id="Path_1045" class="st1" d="M14.9,110.5c0-1-0.8-1.8-1.8-1.8c-1,0-1.8,0.8-1.8,1.8c0,1,0.8,1.8,1.8,1.8
					C14,112.4,14.9,111.6,14.9,110.5C14.9,110.6,14.9,110.5,14.9,110.5"/>
				<path id="Path_1046" class="st1" d="M14.9,89.7c0-1-0.8-1.8-1.8-1.9c-1,0-1.9,0.8-1.9,1.8c0,1,0.8,1.9,1.8,1.9c0,0,0,0,0.1,0
					C14.1,91.4,14.9,90.6,14.9,89.7"/>
				<path id="Path_1047" class="st1" d="M13.1,103.5c-1,0-1.9,0.8-1.9,1.8s0.8,1.9,1.8,1.9c1,0,1.9-0.8,1.9-1.8
					S14.1,103.5,13.1,103.5L13.1,103.5"/>
				<path id="Path_1048" class="st1" d="M23.6,112.4c1-0.1,1.8-0.9,1.7-1.9s-0.9-1.8-1.9-1.7c-1,0.1-1.7,0.9-1.7,1.8
					C21.7,111.6,22.5,112.4,23.6,112.4C23.6,112.4,23.6,112.4,23.6,112.4"/>
				<path id="Path_1049" class="st1" d="M23.6,93.1c-1,0-1.8,0.8-1.8,1.8s0.8,1.8,1.8,1.8c1,0,1.8-0.8,1.8-1.8c0,0,0,0,0,0
					C25.3,93.9,24.5,93.1,23.6,93.1C23.6,93.1,23.6,93.1,23.6,93.1"/>
				<path id="Path_1050" class="st1" d="M23.6,54.9c1,0,1.8-0.9,1.8-1.9c0-1-0.8-1.8-1.8-1.8c-1,0-1.8,0.8-1.8,1.8
					C21.7,54,22.5,54.9,23.6,54.9C23.5,54.9,23.6,54.9,23.6,54.9"/>
				<path id="Path_1051" class="st1" d="M23.6,70.5c1,0,1.8-0.9,1.8-1.9c0-1-0.9-1.8-1.9-1.8c-1,0-1.8,0.9-1.8,1.9
					C21.7,69.8,22.6,70.6,23.6,70.5"/>
				<path id="Path_1052" class="st1" d="M16.5,84.4c0,1,0.8,1.8,1.8,1.9c1,0,1.8-0.8,1.9-1.8l0,0c0-1-0.8-1.9-1.8-1.9c0,0,0,0,0,0
					C17.3,82.6,16.5,83.4,16.5,84.4"/>
				<path id="Path_1053" class="st1" d="M23.5,101.9c1,0,1.8-0.8,1.8-1.8s-0.8-1.8-1.8-1.8c-1,0-1.9,0.8-1.9,1.8c0,0,0,0,0,0
					C21.7,101.1,22.5,101.9,23.5,101.9"/>
				<path id="Path_1054" class="st1" d="M23.6,122.9c1,0,1.8-0.9,1.8-1.9c0-1-0.8-1.8-1.8-1.8c-1,0-1.9,0.8-1.9,1.8
					S22.5,122.8,23.6,122.9C23.5,122.9,23.5,122.9,23.6,122.9"/>
				<path id="Path_1055" class="st1" d="M18.3,122.9c1,0,1.8-0.9,1.8-1.9c0-1-0.8-1.8-1.8-1.8c-1,0-1.8,0.9-1.8,1.9
					C16.5,122.1,17.3,122.8,18.3,122.9"/>
				<path id="Path_1056" class="st1" d="M25.3,42.6c0-1-0.8-1.8-1.8-1.8c-1,0-1.8,0.8-1.8,1.7c0,1,0.8,1.9,1.8,1.9c0,0,0,0,0,0
					C24.5,44.4,25.3,43.6,25.3,42.6"/>
				<path id="Path_1057" class="st1" d="M18.3,66.9c-1,0-1.8,0.8-1.9,1.8c0,1,0.8,1.8,1.8,1.9c1,0,1.8-0.8,1.9-1.8
					C20.1,67.8,19.4,66.9,18.3,66.9C18.3,66.9,18.3,66.9,18.3,66.9"/>
				<path id="Path_1058" class="st1" d="M23.5,49.6c1,0,1.8-0.8,1.8-1.8c0-1-0.8-1.8-1.8-1.8c-1,0-1.8,0.8-1.9,1.8
					C21.7,48.7,22.5,49.6,23.5,49.6C23.5,49.6,23.5,49.6,23.5,49.6"/>
				<path id="Path_1059" class="st1" d="M112.4,23.5c1,0,1.8-0.8,1.9-1.8c0-1-0.8-1.8-1.8-1.8c-1,0-1.8,0.8-1.8,1.7
					C110.6,22.6,111.4,23.4,112.4,23.5"/>
				<path id="Path_1060" class="st1" d="M112.5,44.4c1,0,1.8-0.9,1.8-1.9c0-1-0.8-1.8-1.9-1.8s-1.8,0.8-1.8,1.9
					S111.5,44.4,112.5,44.4C112.5,44.4,112.5,44.4,112.5,44.4"/>
				<path id="Path_1061" class="st1" d="M112.3,2.5c1,0.1,1.9-0.7,2-1.7c0.1-1-0.7-1.9-1.7-2c-1-0.1-1.9,0.7-2,1.7l0,0
					C110.6,1.6,111.3,2.4,112.3,2.5"/>
				<path id="Path_1062" class="st1" d="M112.5,7.8c1-0.1,1.8-0.9,1.8-1.9c0-1-0.9-1.8-1.9-1.8c-1,0-1.8,0.8-1.8,1.8
					C110.6,6.9,111.5,7.8,112.5,7.8"/>
				<path id="Path_1063" class="st1" d="M114.3,16.4c0-1-0.9-1.8-1.9-1.8c-1,0-1.8,0.9-1.8,1.9c0,0,0,0,0,0.1c0.1,1,0.9,1.8,1.9,1.7
					C113.5,18.2,114.3,17.3,114.3,16.4"/>
				<path id="Path_1064" class="st1" d="M112.5,9.4c-1,0-1.8,0.8-1.8,1.8s0.8,1.8,1.8,1.8c1,0,1.8-0.8,1.8-1.8c0,0,0,0,0,0
					C114.3,10.2,113.5,9.4,112.5,9.4"/>
				<path id="Path_1065" class="st1" d="M41,89.7c0-1-0.8-1.8-1.8-1.9c-1,0-1.9,0.8-1.9,1.8c0,1,0.8,1.9,1.8,1.9c0,0,0,0,0,0
					C40.2,91.5,41,90.7,41,89.7"/>
				<path id="Path_1066" class="st1" d="M122.9,65.3c1,0,1.8-0.8,1.8-1.8c0-1-0.8-1.8-1.8-1.8c-1,0-1.8,0.8-1.9,1.7
					S121.9,65.2,122.9,65.3C122.9,65.3,122.9,65.3,122.9,65.3"/>
				<path id="Path_1067" class="st1" d="M123,86.2c1,0,1.8-0.9,1.8-1.9c0-1-0.9-1.8-1.9-1.8l0,0c-1,0-1.8,0.8-1.8,1.8
					C121.1,85.4,121.9,86.2,123,86.2C122.9,86.2,123,86.2,123,86.2"/>
				<path id="Path_1068" class="st1" d="M122.9,30.3c-1,0-1.8,0.8-1.8,1.8c0,1,0.8,1.8,1.8,1.8c1,0,1.8-0.8,1.8-1.8
					C124.7,31.1,123.9,30.3,122.9,30.3C122.9,30.3,122.9,30.3,122.9,30.3"/>
				<path id="Path_1069" class="st1" d="M117.7,2.5c1,0,1.8-0.8,1.8-1.8c0-1-0.8-1.8-1.8-1.8c-1,0-1.8,0.8-1.8,1.8c0,0,0,0,0,0
					C115.9,1.7,116.7,2.5,117.7,2.5"/>
				<path id="Path_1070" class="st1" d="M117.6-2.7c1,0,1.8-0.7,1.9-1.7c0,0,0,0,0,0c0-1-0.8-1.8-1.8-1.9c-1,0-1.8,0.8-1.9,1.8l0,0
					C115.8-3.6,116.6-2.8,117.6-2.7C117.6-2.7,117.6-2.7,117.6-2.7"/>
				<path id="Path_1071" class="st1" d="M115.9,11.1c0,1,0.8,1.8,1.8,1.8c1,0,1.8-0.8,1.8-1.8s-0.8-1.8-1.8-1.8c0,0,0,0,0,0
					C116.7,9.3,115.9,10.1,115.9,11.1C115.9,11.1,115.9,11.1,115.9,11.1"/>
				<path id="Path_1072" class="st1" d="M102,23.5c1,0,1.9-0.8,1.9-1.8c0-1-0.8-1.9-1.8-1.9c-1,0-1.9,0.8-1.9,1.8c0,0,0,0,0,0
					C100.2,22.6,101,23.4,102,23.5"/>
				<path id="Path_1073" class="st1" d="M102,44.4c1,0,1.8-0.8,1.8-1.8c0,0,0,0,0,0c0-1-0.8-1.8-1.8-1.8c-1,0-1.8,0.8-1.8,1.8
					S101,44.4,102,44.4C102,44.4,102,44.4,102,44.4"/>
				<path id="Path_1074" class="st1" d="M107.2,25c-1,0-1.8,0.8-1.8,1.8c0,1,0.8,1.8,1.8,1.9c0,0,0,0,0,0c1,0,1.8-0.9,1.8-1.9
					C109,25.9,108.2,25.1,107.2,25"/>
				<path id="Path_1075" class="st1" d="M103.8,37.4c0-1-0.8-1.8-1.8-1.9c-1,0-1.8,0.8-1.9,1.8c0,1,0.8,1.8,1.7,1.9
					C102.9,39.2,103.8,38.4,103.8,37.4"/>
				<path id="Path_1076" class="st1" d="M102,18.2c1,0,1.8-0.8,1.8-1.8c0,0,0,0,0,0c0-1-0.8-1.8-1.8-1.8s-1.8,0.8-1.8,1.8
					c0,0,0,0,0,0.1C100.2,17.4,101,18.2,102,18.2C102,18.2,102,18.2,102,18.2"/>
				<path id="Path_1077" class="st1" d="M96.7-2.7c1,0,1.9-0.8,1.9-1.8c0,0,0,0,0,0c0-1-0.8-1.8-1.9-1.8c-1,0-1.8,0.8-1.8,1.8
					C94.9-3.6,95.7-2.8,96.7-2.7"/>
				<path id="Path_1078" class="st1" d="M107.3,39.2c1,0,1.8-0.8,1.8-1.9c0-1-0.8-1.8-1.9-1.8c-1,0-1.8,0.8-1.8,1.8
					C105.4,38.3,106.2,39.2,107.3,39.2C107.2,39.2,107.3,39.2,107.3,39.2"/>
				<path id="Path_1079" class="st1" d="M107.2,30.3c-1,0-1.8,0.8-1.8,1.8c0,1,0.8,1.8,1.8,1.8c0,0,0,0,0.1,0c1,0,1.8-0.9,1.8-1.9
					C109,31,108.2,30.3,107.2,30.3"/>
				<path id="Path_1080" class="st1" d="M107.2,23.5c1,0,1.8-0.8,1.9-1.8c0-1-0.8-1.8-1.8-1.9s-1.8,0.8-1.9,1.8c0,0,0,0,0,0
					C105.4,22.6,106.2,23.4,107.2,23.5"/>
				<path id="Path_1081" class="st1" d="M100.2,11.2c0,1,0.8,1.8,1.8,1.8s1.8-0.8,1.8-1.8c0-1-0.8-1.8-1.8-1.8
					C101,9.3,100.2,10.1,100.2,11.2C100.2,11.1,100.2,11.2,100.2,11.2"/>
				<path id="Path_1082" class="st1" d="M102,2.5c1,0,1.8-0.8,1.9-1.8c0-1-0.8-1.8-1.8-1.9c-1,0-1.8,0.8-1.9,1.8c0,0,0,0,0,0
					C100.2,1.7,101,2.5,102,2.5"/>
				<path id="Path_1083" class="st1" d="M133.4,70.5c1,0,1.8-0.8,1.9-1.8c0-1-0.8-1.8-1.8-1.9c0,0-0.1,0-0.1,0c-1,0-1.8,0.9-1.8,1.9
					C131.6,69.7,132.4,70.5,133.4,70.5"/>
				<path id="Path_1084" class="st1" d="M128.1,2.5c1,0,1.8-0.8,1.9-1.8c0-1-0.8-1.9-1.8-1.9c-1,0-1.9,0.8-1.9,1.8
					C126.3,1.7,127.1,2.5,128.1,2.5"/>
				<path id="Path_1085" class="st1" d="M128.1-2.7c1,0,1.9-0.8,1.9-1.8c0,0,0,0,0,0c0-1-0.9-1.8-1.9-1.8c-1,0-1.7,0.8-1.8,1.7
					C126.3-3.6,127.1-2.8,128.1-2.7"/>
				<path id="Path_1086" class="st1" d="M128.1,9.4c-1,0-1.8,0.8-1.8,1.8c0,1,0.9,1.8,1.9,1.8c1,0,1.8-0.9,1.8-1.9
					C129.9,10.1,129.1,9.3,128.1,9.4"/>
				<path id="Path_1087" class="st1" d="M96.7,25c-1,0-1.8,0.8-1.8,1.9c0,1,0.8,1.8,1.9,1.8s1.8-0.8,1.8-1.9c0,0,0,0,0,0
					C98.6,25.8,97.7,25,96.7,25"/>
				<path id="Path_1088" class="st1" d="M128.2,7.8c1,0,1.8-0.8,1.8-1.8c0-1-0.8-1.8-1.9-1.8c-1,0-1.8,0.8-1.8,1.8
					C126.3,6.9,127.1,7.7,128.2,7.8"/>
				<path id="Path_1089" class="st1" d="M133.4,51.2c-1,0-1.8,0.8-1.8,1.8c0,1,0.8,1.8,1.8,1.8c1,0,1.8-0.8,1.8-1.8
					C135.2,52,134.4,51.2,133.4,51.2"/>
				<path id="Path_1090" class="st1" d="M128.2,14.6c-1,0-1.8,0.8-1.9,1.8c0,1,0.8,1.8,1.9,1.8c1,0,1.8-0.8,1.8-1.8
					C130,15.4,129.2,14.6,128.2,14.6"/>
				<path id="Path_1091" class="st1" d="M135.2,74c0-1-0.8-1.8-1.8-1.8c-1,0-1.8,0.8-1.8,1.8c0,1,0.8,1.8,1.8,1.8c0,0,0,0,0,0
					C134.4,75.8,135.2,75,135.2,74"/>
				<path id="Path_1092" class="st1" d="M133.4,86.2c1,0,1.8-0.8,1.8-1.8c0,0,0,0,0,0c0-1-0.9-1.8-1.9-1.8c-1,0-1.8,0.9-1.8,1.9
					C131.6,85.4,132.4,86.2,133.4,86.2"/>
				<path id="Path_1093" class="st1" d="M133.4,101.9c1,0,1.8-0.8,1.8-1.8c0-1-0.8-1.8-1.8-1.8c-1,0-1.8,0.8-1.8,1.8
					C131.6,101.1,132.4,101.9,133.4,101.9"/>
				<path id="Path_1094" class="st1" d="M133.3,44.4c1,0,1.9-0.8,1.9-1.8c0,0,0,0,0-0.1c0-1-0.8-1.8-1.8-1.8c-1,0-1.8,0.8-1.8,1.8
					C131.6,43.5,132.3,44.3,133.3,44.4"/>
				<path id="Path_1095" class="st1" d="M128.1,114c-1,0-1.8,0.8-1.8,1.8c0,1,0.9,1.8,1.9,1.8c1,0,1.8-0.8,1.8-1.8
					C129.9,114.8,129.1,114,128.1,114"/>
				<path id="Path_1096" class="st1" d="M128.1,96.7c1,0,1.8-0.8,1.9-1.8c0-1-0.8-1.8-1.8-1.9c-1,0-1.8,0.8-1.9,1.7
					C126.3,95.8,127.1,96.6,128.1,96.7"/>
				<path id="Path_1097" class="st1" d="M128.2,82.6c-1,0-1.8,0.8-1.8,1.8s0.8,1.8,1.8,1.8c1,0,1.8-0.8,1.8-1.8c0,0,0,0,0,0
					C130,83.4,129.2,82.6,128.2,82.6"/>
				<path id="Path_1098" class="st1" d="M122.9,13c1,0,1.8-0.8,1.8-1.8s-0.8-1.8-1.8-1.8c-1,0-1.8,0.8-1.8,1.8
					C121.1,12.1,121.9,13,122.9,13C122.9,13,122.9,13,122.9,13"/>
				<path id="Path_1099" class="st1" d="M130,74c0-1-0.8-1.9-1.8-1.9c-1,0-1.9,0.8-1.9,1.8s0.8,1.9,1.8,1.9c0,0,0,0,0,0
					C129.1,75.8,129.9,75,130,74"/>
				<path id="Path_1100" class="st1" d="M122.9,7.8c1,0,1.8-0.9,1.8-1.9c0-1-0.8-1.8-1.8-1.8c-1,0-1.8,0.8-1.9,1.8
					C121.1,6.9,121.9,7.8,122.9,7.8"/>
				<path id="Path_1101" class="st1" d="M128.2,39.2c1,0,1.8-0.8,1.8-1.8c0-1-0.8-1.8-1.8-1.9c-1,0-1.8,0.8-1.9,1.8
					C126.3,38.3,127.1,39.1,128.2,39.2"/>
				<path id="Path_1102" class="st1" d="M128.2,54.8c1,0,1.8-0.8,1.8-1.9c0-1-0.8-1.8-1.9-1.8c-1,0-1.8,0.8-1.8,1.9c0,0,0,0,0,0
					C126.4,54,127.2,54.8,128.2,54.8"/>
				<path id="Path_1103" class="st1" d="M128.1,28.7c1,0,1.9-0.8,1.8-1.9c0,0,0,0,0,0c-0.1-1-0.9-1.8-1.9-1.7
					c-1,0.1-1.7,0.8-1.7,1.8C126.3,27.9,127.1,28.7,128.1,28.7"/>
				<path id="Path_1104" class="st1" d="M128.2,60.1c1,0,1.8-0.8,1.8-1.8c0-1-0.8-1.8-1.8-1.8c-1,0-1.8,0.8-1.8,1.8
					C126.3,59.2,127.1,60.1,128.2,60.1C128.2,60.1,128.2,60.1,128.2,60.1"/>
				<path id="Path_1105" class="st1" d="M128.2,108.7c-1,0-1.8,0.8-1.8,1.8c0,1,0.8,1.8,1.8,1.8c1,0,1.8-0.8,1.8-1.8c0,0,0,0,0,0
					C130,109.6,129.2,108.8,128.2,108.7"/>
				<path id="Path_1106" class="st1" d="M75.8-2.7c1,0,1.8-0.8,1.8-1.8c0-1-0.8-1.8-1.8-1.9c-1,0-1.8,0.8-1.9,1.8c0,0,0,0.1,0,0.1
					C74-3.5,74.9-2.7,75.8-2.7"/>
				<path id="Path_1107" class="st1" d="M54.9,2.5c1,0,1.8-0.9,1.8-1.9c0-1-0.8-1.7-1.8-1.8c-1,0-1.8,0.8-1.8,1.8S53.9,2.5,54.9,2.5
					"/>
				<path id="Path_1108" class="st1" d="M60.2,14.6c-1,0-1.8,0.8-1.9,1.8c0,1,0.8,1.8,1.8,1.8c1,0,1.8-0.8,1.8-1.8
					C62,15.4,61.2,14.6,60.2,14.6"/>
				<path id="Path_1109" class="st1" d="M60.2,23.5c1-0.1,1.8-0.9,1.8-1.9c0-1-0.9-1.8-1.9-1.8c-1,0-1.8,0.8-1.8,1.8
					C58.3,22.6,59.2,23.5,60.2,23.5"/>
				<path id="Path_1110" class="st1" d="M96.7,13c1,0,1.8-0.8,1.8-1.8s-0.8-1.8-1.8-1.8c-1,0-1.8,0.8-1.8,1.8
					C94.9,12.2,95.7,13,96.7,13"/>
				<path id="Path_1111" class="st1" d="M65.4,2.5c1,0,1.8-0.8,1.8-1.8c0-1-0.8-1.8-1.8-1.8s-1.8,0.8-1.8,1.8
					C63.6,1.7,64.4,2.5,65.4,2.5"/>
				<path id="Path_1112" class="st1" d="M60.1-2.7c1,0,1.8-0.8,1.8-1.8c0-1-0.9-1.8-1.9-1.8c-1,0-1.8,0.8-1.8,1.8
					C58.3-3.5,59.2-2.7,60.1-2.7"/>
				<path id="Path_1113" class="st1" d="M70.6,7.8c1,0,1.8-0.9,1.8-1.9c0-1-0.8-1.8-1.8-1.8c-1,0-1.8,0.9-1.8,1.9
					C68.9,7,69.7,7.7,70.6,7.8"/>
				<path id="Path_1114" class="st1" d="M65.4,19.8c-1,0-1.9,0.8-1.9,1.8c0,1,0.8,1.9,1.8,1.9s1.9-0.8,1.9-1.8c0,0,0,0,0,0
					C67.2,20.6,66.4,19.8,65.4,19.8"/>
				<path id="Path_1115" class="st1" d="M65.4,4.1c-1,0-1.8,0.8-1.8,1.8c0,1,0.8,1.8,1.7,1.8c1,0,1.9-0.8,1.9-1.8
					C67.2,5,66.4,4.1,65.4,4.1"/>
				<path id="Path_1116" class="st1" d="M65.4,25c-1,0-1.8,0.8-1.8,1.8c0,1,0.8,1.8,1.8,1.8c1,0,1.8-0.8,1.9-1.8c0,0,0,0,0,0
					C67.2,25.8,66.4,25,65.4,25"/>
				<path id="Path_1117" class="st1" d="M70.5-2.7c1,0,1.8-0.7,1.9-1.7c0,0,0-0.1,0-0.1c0-1-0.8-1.8-1.8-1.8c-1,0-1.7,0.8-1.8,1.8
					C68.8-3.6,69.5-2.7,70.5-2.7C70.5-2.7,70.5-2.7,70.5-2.7"/>
				<path id="Path_1118" class="st1" d="M63.6,11.1c0,1,0.8,1.8,1.8,1.9c1,0,1.9-0.8,1.9-1.8c0,0,0,0,0-0.1c0-1-0.8-1.8-1.8-1.8
					C64.4,9.3,63.6,10.1,63.6,11.1L63.6,11.1"/>
				<path id="Path_1119" class="st1" d="M49.7,108.7c-1,0-1.8,0.8-1.8,1.8c0,1,0.8,1.8,1.8,1.8c1,0,1.8-0.8,1.9-1.8c0,0,0,0,0-0.1
					C51.5,109.6,50.7,108.7,49.7,108.7C49.7,108.7,49.7,108.7,49.7,108.7"/>
				<path id="Path_1120" class="st1" d="M53.1,26.8c0,1,0.8,1.8,1.8,1.9c0,0,0.1,0,0.1,0c1,0,1.8-0.8,1.8-1.8c0-1-0.8-1.8-1.8-1.8
					C53.9,25.1,53.1,25.8,53.1,26.8"/>
				<path id="Path_1121" class="st1" d="M49.7,133.3c1,0,1.8-0.8,1.8-1.8c0,0,0,0,0,0c0-1-0.8-1.8-1.8-1.8c0,0,0,0,0,0
					c-1,0-1.8,0.9-1.8,1.9C47.9,132.5,48.7,133.3,49.7,133.3"/>
				<path id="Path_1122" class="st1" d="M49.6,93.1c-1,0-1.8,0.9-1.7,1.9c0,1,0.8,1.7,1.8,1.7c1,0,1.8-0.8,1.8-1.8
					C51.5,93.9,50.7,93.1,49.6,93.1C49.7,93.1,49.7,93.1,49.6,93.1"/>
				<path id="Path_1123" class="st1" d="M49.6,72.1c-1,0-1.8,0.9-1.8,1.9c0,1,0.8,1.8,1.8,1.8c1,0,1.8-0.8,1.8-1.8
					S50.7,72.1,49.6,72.1"/>
				<path id="Path_1124" class="st1" d="M49.7,117.6c1,0,1.8-0.8,1.8-1.8c0,0,0,0,0,0c0-1-0.8-1.8-1.8-1.8c-1,0-1.8,0.8-1.8,1.8
					C47.8,116.8,48.6,117.6,49.7,117.6C49.7,117.6,49.7,117.6,49.7,117.6"/>
				<path id="Path_1125" class="st1" d="M49.7-2.7c1,0,1.8-0.8,1.8-1.8s-0.8-1.8-1.8-1.8c0,0-0.1,0-0.1,0c-1,0-1.8,0.8-1.8,1.8
					c0,0,0,0,0,0C47.9-3.5,48.7-2.7,49.7-2.7C49.7-2.7,49.7-2.7,49.7-2.7"/>
				<path id="Path_1126" class="st1" d="M49.7,2.5c1,0,1.8-0.8,1.8-1.8c0-1-0.8-1.8-1.8-1.8c-1,0-1.8,0.8-1.8,1.8
					C47.9,1.7,48.7,2.5,49.7,2.5"/>
				<path id="Path_1127" class="st1" d="M51.5,6c0-1-0.8-1.8-1.8-1.8c-1,0-1.8,0.7-1.8,1.7c0,1,0.7,1.9,1.8,1.9c0,0,0,0,0,0
					C50.7,7.8,51.5,7,51.5,6"/>
				<path id="Path_1128" class="st1" d="M49.7,33.9c1,0,1.8-0.8,1.8-1.8c0,0,0,0,0,0c0-1-0.8-1.8-1.8-1.9c0,0,0,0-0.1,0
					c-1,0-1.8,0.9-1.8,1.9C47.9,33.1,48.7,33.9,49.7,33.9"/>
				<path id="Path_1129" class="st1" d="M60.1,30.3c-1,0-1.8,0.9-1.8,1.9c0,0,0,0,0,0c0.1,1,0.9,1.8,2,1.7c1-0.1,1.7-0.8,1.7-1.8
					C61.9,31.1,61.1,30.3,60.1,30.3"/>
				<path id="Path_1130" class="st1" d="M86.3,7.8c1,0,1.8-0.8,1.8-1.9c0-1-0.8-1.8-1.9-1.8c-1,0-1.8,0.8-1.8,1.8
					C84.5,6.9,85.3,7.8,86.3,7.8C86.3,7.8,86.3,7.8,86.3,7.8"/>
				<path id="Path_1131" class="st1" d="M86.2,28.7c1,0,1.8-0.7,1.9-1.7s-0.7-1.8-1.7-1.9s-1.8,0.7-1.9,1.7c0,0,0,0,0,0
					C84.5,27.8,85.2,28.6,86.2,28.7C86.2,28.7,86.2,28.7,86.2,28.7"/>
				<path id="Path_1132" class="st1" d="M86.3,39.2c1,0,1.9-0.8,1.9-1.8s-0.8-1.9-1.8-1.9c-1,0-1.8,0.8-1.9,1.8
					C84.5,38.3,85.2,39.1,86.3,39.2C86.3,39.2,86.3,39.2,86.3,39.2"/>
				<path id="Path_1133" class="st1" d="M86.3,2.5c1,0,1.8-0.8,1.9-1.8c0-1-0.8-1.8-1.8-1.9c-1,0-1.8,0.8-1.9,1.8c0,0,0,0,0,0
					C84.5,1.7,85.3,2.5,86.3,2.5"/>
				<path id="Path_1134" class="st1" d="M88.1,16.4c0-1-0.8-1.8-1.8-1.8c-1,0-1.8,0.8-1.8,1.8s0.8,1.8,1.8,1.8c0,0,0,0,0,0
					C87.3,18.2,88.1,17.4,88.1,16.4"/>
				<path id="Path_1135" class="st1" d="M81.1,2.5c1,0,1.8-0.8,1.8-1.8c0-1-0.8-1.8-1.8-1.8c-1,0-1.8,0.8-1.8,1.8
					C79.3,1.7,80.1,2.5,81.1,2.5"/>
				<path id="Path_1136" class="st1" d="M91.6,2.5c1,0,1.8-0.8,1.8-1.8c0-1-0.8-1.8-1.8-1.8c-1,0-1.8,0.8-1.8,1.8c0,0,0,0,0,0
					C89.7,1.8,90.6,2.5,91.6,2.5"/>
				<path id="Path_1137" class="st1" d="M91.6,7.8c1,0,1.8-0.8,1.8-1.8c0-1-0.8-1.8-1.8-1.8c-1,0-1.8,0.8-1.8,1.8
					C89.7,6.9,90.5,7.8,91.6,7.8"/>
				<path id="Path_1138" class="st1" d="M72.4,32.2c0.1-1-0.7-1.9-1.7-1.9c-1-0.1-1.9,0.7-1.9,1.7c-0.1,1,0.7,1.9,1.7,1.9
					c0,0,0,0,0,0C71.5,34,72.3,33.2,72.4,32.2"/>
				<path id="Path_1139" class="st1" d="M91.5,33.9c1,0,1.8-0.8,1.8-1.8c0-1-0.8-1.8-1.8-1.8c-1,0-1.9,0.8-1.9,1.8c0,0,0,0,0,0
					C89.7,33.1,90.5,33.9,91.5,33.9"/>
				<path id="Path_1140" class="st1" d="M89.7,42.4c-0.1,1,0.7,1.9,1.7,2c1,0.1,1.9-0.7,2-1.7c0,0,0,0,0-0.1c0-1-0.7-1.9-1.7-1.9
					C90.6,40.7,89.8,41.4,89.7,42.4"/>
				<path id="Path_1141" class="st1" d="M91.5,9.4c-1,0-1.8,0.8-1.8,1.8c0,1,0.8,1.8,1.8,1.8c1,0,1.8-0.8,1.8-1.8
					C93.4,10.2,92.5,9.4,91.5,9.4C91.5,9.4,91.5,9.4,91.5,9.4"/>
				<path id="Path_1142" class="st1" d="M49.6,61.7c-1,0-1.8,0.9-1.8,1.9s0.9,1.8,1.9,1.8c1,0,1.7-0.8,1.8-1.8
					C51.5,62.5,50.7,61.7,49.6,61.7C49.7,61.7,49.7,61.7,49.6,61.7"/>
				<path id="Path_1143" class="st1" d="M75.9,23.5c1-0.1,1.8-0.9,1.8-1.9c0-1-0.9-1.8-1.9-1.8c-1,0-1.8,0.8-1.8,1.8
					C74,22.7,74.9,23.5,75.9,23.5"/>
				<path id="Path_1144" class="st1" d="M75.8,18.2c1,0,1.8-0.8,1.8-1.8s-0.8-1.8-1.8-1.8c-1,0-1.8,0.8-1.8,1.8
					C74,17.4,74.8,18.2,75.8,18.2"/>
				<path id="Path_1145" class="st1" d="M70.6,35.5c-1,0-1.9,0.8-1.9,1.8s0.8,1.9,1.8,1.9s1.9-0.8,1.9-1.8c0,0,0,0,0-0.1
					C72.4,36.3,71.6,35.5,70.6,35.5"/>
				<path id="Path_1146" class="st1" d="M68.8,42.5c0,1,0.8,1.8,1.8,1.9c1,0,1.8-0.8,1.9-1.8c0,0,0-0.1,0-0.1c0-1-0.8-1.8-1.8-1.8
					C69.6,40.8,68.8,41.6,68.8,42.5"/>
				<path id="Path_1147" class="st1" d="M79.2,42.5c0,1,0.8,1.8,1.8,1.8c1,0,1.8-0.8,1.8-1.8c0-1-0.8-1.8-1.8-1.8
					C80.1,40.7,79.3,41.5,79.2,42.5"/>
				<path id="Path_1148" class="st1" d="M75.9,35.5c-1,0-1.8,0.8-1.9,1.8s0.8,1.8,1.8,1.9c1,0,1.8-0.8,1.9-1.8c0,0,0,0,0,0
					C77.6,36.3,76.8,35.5,75.9,35.5"/>
				<path id="Path_1149" class="st1" d="M74,42.6c0,1,0.9,1.8,1.9,1.8c1,0,1.8-0.8,1.8-1.8c0-1-0.8-1.9-1.8-1.9S74,41.5,74,42.6
					C74,42.5,74,42.5,74,42.6"/>
				<path id="Path_1150" class="st1" d="M75.8,33.9c1,0,1.8-0.8,1.8-1.8c0-1-0.8-1.8-1.8-1.8c-1,0-1.9,0.8-1.9,1.8
					C74,33.1,74.8,33.9,75.8,33.9"/>
				<path id="Path_1151" class="st1" d="M75.9,28.7c1,0,1.8-0.9,1.8-1.9c0-1-0.9-1.8-1.9-1.8c-1,0-1.8,0.8-1.8,1.8
					C74,27.9,74.9,28.7,75.9,28.7C75.9,28.7,75.9,28.7,75.9,28.7"/>
				<path id="Path_1152" class="st1" d="M162.9,115.8c0,1,0.9,1.8,1.9,1.8c1,0,1.7-0.8,1.8-1.8c0-1-0.8-1.8-1.8-1.8
					S162.9,114.8,162.9,115.8"/>
				<path id="Path_1153" class="st1" d="M150.9,42.6c0-1-0.8-1.8-1.8-1.9c-1,0-1.8,0.8-1.9,1.8s0.8,1.8,1.8,1.9c0,0,0,0,0,0
					C150,44.4,150.9,43.6,150.9,42.6"/>
				<path id="Path_1154" class="st1" d="M149.1,56.4c-1,0-1.8,0.8-1.8,1.8s0.8,1.8,1.8,1.8c1,0,1.8-0.8,1.8-1.8
					C150.9,57.3,150.1,56.5,149.1,56.4"/>
				<path id="Path_1155" class="st1" d="M149.1,35.5c-1,0-1.8,0.8-1.9,1.8c0,1,0.8,1.8,1.8,1.9c1,0,1.8-0.8,1.9-1.8c0,0,0,0,0,0
					C150.9,36.3,150.1,35.5,149.1,35.5"/>
				<path id="Path_1156" class="st1" d="M149.1,103.5c-1,0-1.9,0.8-1.9,1.8c0,1,0.8,1.9,1.8,1.9c1,0,1.9-0.8,1.9-1.8c0,0,0,0,0,0
					C150.9,104.3,150.1,103.5,149.1,103.5"/>
				<path id="Path_1157" class="st1" d="M149.1,101.9c1,0,1.8-0.8,1.8-1.8c0-1-0.8-1.8-1.9-1.8c0,0,0,0,0,0c-1,0.1-1.8,0.9-1.7,1.9
					C147.4,101.1,148.2,101.9,149.1,101.9"/>
				<path id="Path_1158" class="st1" d="M149.1,72.1c-1,0-1.8,0.8-1.9,1.8c0,1,0.7,1.8,1.7,1.9c1,0,1.9-0.8,1.9-1.8c0,0,0,0,0,0
					C150.9,73,150.1,72.1,149.1,72.1"/>
				<path id="Path_1159" class="st1" d="M147.3,79.2c0,1,0.8,1.8,1.8,1.8c0,0,0,0,0,0c1,0,1.8-0.8,1.8-1.8c0-1-0.8-1.8-1.8-1.8
					c0,0,0,0-0.1,0C148,77.4,147.2,78.2,147.3,79.2C147.3,79.2,147.3,79.2,147.3,79.2"/>
				<path id="Path_1160" class="st1" d="M143.8,81c1,0,1.8-0.8,1.8-1.8c0-1-0.8-1.8-1.8-1.8c-1,0-1.8,0.8-1.8,1.8
					C142,80.2,142.9,81,143.8,81"/>
				<path id="Path_1161" class="st1" d="M143.9,72.1c-1,0-1.8,0.8-1.9,1.8c0,1,0.8,1.8,1.8,1.9c1,0,1.8-0.8,1.9-1.8c0,0,0,0,0,0
					C145.7,73,144.9,72.2,143.9,72.1"/>
				<path id="Path_1162" class="st1" d="M143.8,96.7c1,0,1.8-0.8,1.8-1.8s-0.8-1.8-1.8-1.8c-1,0-1.8,0.8-1.8,1.8
					C142,95.9,142.8,96.7,143.8,96.7"/>
				<path id="Path_1163" class="st1" d="M147.3,115.8c0,1,0.8,1.8,1.8,1.8c0,0,0,0,0,0c1,0,1.8-0.8,1.9-1.8c0,0,0,0,0-0.1
					c0-1-0.8-1.8-1.8-1.8C148.1,114,147.3,114.8,147.3,115.8C147.3,115.8,147.3,115.8,147.3,115.8"/>
				<path id="Path_1164" class="st1" d="M154.3,98.3c-1,0-1.8,0.9-1.8,1.9c0,0,0,0,0,0c0.1,1,0.9,1.8,1.9,1.7s1.8-0.9,1.7-1.9
					C156.1,99,155.3,98.3,154.3,98.3"/>
				<path id="Path_1165" class="st1" d="M154.3,61.7c-1,0-1.8,0.8-1.9,1.8c0,1,0.8,1.8,1.8,1.9c0,0,0.1,0,0.1,0c1,0,1.8-0.8,1.8-1.8
					C156.1,62.5,155.3,61.7,154.3,61.7"/>
				<path id="Path_1166" class="st1" d="M154.3,87.8c-1,0-1.9,0.8-1.9,1.8c0,1,0.8,1.9,1.8,1.9c1,0,1.9-0.8,1.9-1.8c0,0,0,0,0,0
					C156.1,88.7,155.3,87.8,154.3,87.8"/>
				<path id="Path_1167" class="st1" d="M128.2,161.1c-1,0-1.8,0.8-1.8,1.8s0.8,1.8,1.8,1.8c1,0,1.8-0.8,1.8-1.8
					C130,161.9,129.2,161.1,128.2,161.1"/>
				<path id="Path_1168" class="st1" d="M145.7,63.5c0-1-0.7-1.9-1.8-1.9s-1.9,0.7-1.9,1.8c0,1,0.7,1.9,1.8,1.9c0,0,0,0,0.1,0
					C144.8,65.3,145.6,64.5,145.7,63.5"/>
				<path id="Path_1169" class="st1" d="M154.3,133.3c1,0,1.8-0.8,1.8-1.7c0,0,0,0,0,0c0-1-0.8-1.8-1.8-1.8c-1,0-1.8,0.8-1.8,1.8
					C152.5,132.4,153.3,133.3,154.3,133.3C154.3,133.3,154.3,133.3,154.3,133.3"/>
				<path id="Path_1170" class="st1" d="M154.4,44.4c1,0,1.8-0.9,1.8-1.9c0-1-0.9-1.8-1.9-1.8c-1,0-1.8,0.8-1.8,1.8
					c0,1,0.8,1.8,1.8,1.8C154.3,44.4,154.3,44.4,154.4,44.4"/>
				<path id="Path_1171" class="st1" d="M154.4,150.6c-1,0-1.9,0.7-1.9,1.8c0,1,0.7,1.9,1.8,1.9c1,0,1.9-0.7,1.9-1.8c0,0,0,0,0,0
					C156.1,151.4,155.4,150.6,154.4,150.6"/>
				<path id="Path_1172" class="st1" d="M154.3,93.1c-1,0-1.8,0.8-1.8,1.8c0,1,0.8,1.8,1.8,1.8s1.8-0.8,1.8-1.8c0,0,0,0,0,0
					C156.1,93.9,155.3,93.1,154.3,93.1C154.3,93.1,154.3,93.1,154.3,93.1"/>
				<path id="Path_1173" class="st1" d="M154.3,60.1c1,0,1.8-0.8,1.8-1.9c0-1-0.8-1.8-1.9-1.8c-1,0-1.8,0.8-1.8,1.8
					C152.5,59.2,153.3,60.1,154.3,60.1C154.3,60.1,154.3,60.1,154.3,60.1"/>
				<path id="Path_1174" class="st1" d="M154.3,155.8c-1,0-1.9,0.8-1.9,1.8s0.8,1.9,1.8,1.9c1,0,1.9-0.8,1.9-1.8c0,0,0,0,0,0
					C156.1,156.7,155.3,155.8,154.3,155.8"/>
				<path id="Path_1175" class="st1" d="M154.4,122.9c1,0,1.8-0.9,1.8-1.9c0-1-0.9-1.8-1.9-1.8c-1,0-1.8,0.8-1.8,1.8
					C152.5,122,153.3,122.9,154.4,122.9C154.3,122.9,154.3,122.9,154.4,122.9"/>
				<path id="Path_1176" class="st1" d="M138.6,128.9c-1.4,0-2.5,1.1-2.5,2.5c0,0,0,0,0,0c0,1.4,1.1,2.6,2.5,2.6c0,0,0,0,0,0
					c1.4,0,2.6-1.2,2.6-2.6C141.2,130,140,128.9,138.6,128.9C138.6,128.9,138.6,128.9,138.6,128.9"/>
				<path id="Path_1177" class="st1" d="M149,150.6c-1,0-1.8,0.8-1.8,1.9c0,1,0.8,1.8,1.9,1.8c1,0,1.8-0.8,1.8-1.9c0,0,0,0,0,0
					C150.9,151.3,150,150.6,149,150.6"/>
				<path id="Path_1178" class="st1" d="M149,145.4c-1,0-1.8,0.9-1.8,1.9c0,1,0.9,1.8,1.9,1.8c1,0,1.7-0.8,1.8-1.8
					C150.9,146.2,150.1,145.4,149,145.4C149.1,145.4,149.1,145.4,149,145.4"/>
				<path id="Path_1179" class="st1" d="M138.6,35.5c-1,0-1.9,0.8-1.9,1.8c0,1,0.8,1.9,1.8,1.9c1,0,1.9-0.8,1.9-1.8c0,0,0,0,0-0.1
					C140.4,36.3,139.6,35.5,138.6,35.5"/>
				<path id="Path_1180" class="st1" d="M138.6,118.4c-7.2,0-13.1,5.8-13.1,13c0,7.2,5.8,13.1,13,13.1c7.2,0,13.1-5.8,13.1-13
					c0,0,0,0,0,0C151.7,124.3,145.8,118.5,138.6,118.4C138.6,118.4,138.6,118.4,138.6,118.4 M138.7,139.3c-4.3,0-7.9-3.5-7.9-7.8
					s3.5-7.9,7.8-7.9c4.3,0,7.9,3.5,7.9,7.8c0,0,0,0.1,0,0.1C146.4,135.8,143,139.3,138.7,139.3"/>
				<path id="Path_1181" class="st1" d="M133.4,161.1c-1,0-1.8,0.8-1.8,1.8s0.8,1.8,1.8,1.8c1,0,1.8-0.8,1.8-1.8c0,0,0,0,0,0
					C135.2,161.8,134.4,161,133.4,161.1C133.4,161.1,133.4,161.1,133.4,161.1"/>
				<path id="Path_1182" class="st1" d="M143.9,145.4c-1,0-1.8,0.8-1.8,1.8s0.8,1.8,1.8,1.8c1,0,1.8-0.8,1.8-1.8
					C145.7,146.2,144.9,145.4,143.9,145.4"/>
				<path id="Path_1183" class="st1" d="M128.1,154.2c1,0,1.9-0.8,1.9-1.8c0-1-0.8-1.9-1.8-1.9c-1,0-1.9,0.8-1.9,1.8c0,0,0,0,0,0
					C126.3,153.4,127.1,154.2,128.1,154.2"/>
				<path id="Path_1184" class="st1" d="M138.6,51.2c-1,0-1.9,0.8-1.9,1.8c0,1,0.8,1.9,1.8,1.9c1,0,1.9-0.8,1.9-1.8c0,0,0,0,0-0.1
					C140.4,52,139.6,51.2,138.6,51.2"/>
				<path id="Path_1185" class="st1" d="M138.6,161.1c-1,0-1.8,0.8-1.8,1.8s0.8,1.8,1.8,1.8c1,0,1.8-0.8,1.9-1.8
					C140.5,161.9,139.7,161.1,138.6,161.1C138.6,161.1,138.6,161.1,138.6,161.1"/>
				<path id="Path_1186" class="st1" d="M133.3,145.4c-1,0-1.8,0.9-1.8,1.9s0.9,1.8,1.9,1.8c1,0,1.7-0.8,1.8-1.8
					c0-1-0.8-1.8-1.7-1.8C133.4,145.4,133.4,145.4,133.3,145.4"/>
				<path id="Path_1187" class="st1" d="M145.7,42.6c0-1-0.8-1.8-1.9-1.8c-1,0-1.8,0.8-1.8,1.7c0,1,0.8,1.9,1.8,1.9
					C144.8,44.4,145.7,43.6,145.7,42.6C145.7,42.6,145.7,42.6,145.7,42.6"/>
				<path id="Path_1188" class="st1" d="M143.9,54.9c1,0,1.8-0.9,1.8-1.9c0-1-0.9-1.8-1.9-1.8c-1,0-1.8,0.8-1.8,1.8
					C142,54,142.9,54.8,143.9,54.9"/>
				<path id="Path_1189" class="st1" d="M143.9,60.1c1,0,1.8-0.9,1.8-1.9c0-1-0.9-1.8-1.9-1.8c-1,0-1.8,0.8-1.8,1.8
					C142,59.2,142.9,60.1,143.9,60.1"/>
				<path id="Path_1190" class="st1" d="M142,115.7c0,1,0.8,1.8,1.8,1.9c1,0,1.8-0.8,1.8-1.7c0-1-0.8-1.8-1.8-1.9
					C142.9,114,142.1,114.7,142,115.7"/>
				<path id="Path_1191" class="st1" d="M143.9,103.5c-1,0-1.9,0.8-1.9,1.8c0,1,0.8,1.9,1.8,1.9c1,0,1.9-0.8,1.9-1.8c0,0,0,0,0,0
					C145.6,104.3,144.9,103.5,143.9,103.5"/>
				<path id="Path_1192" class="st1" d="M143.8,70.5c1,0,1.8-0.8,1.9-1.8s-0.8-1.8-1.8-1.9c-1,0-1.8,0.8-1.9,1.8c0,0,0,0,0,0
					C142,69.7,142.8,70.5,143.8,70.5"/>
				<path id="Path_1193" class="st1" d="M138.6,86.2c1,0,1.8-0.8,1.8-1.8c0-1-0.8-1.8-1.8-1.8c-1,0-1.8,0.8-1.9,1.8
					S137.6,86.2,138.6,86.2L138.6,86.2"/>
				<path id="Path_1194" class="st1" d="M138.7,61.7c-1-0.1-1.9,0.7-1.9,1.7c-0.1,1,0.7,1.9,1.7,1.9c0,0,0,0,0.1,0
					c1,0,1.8-0.8,1.8-1.8C140.4,62.5,139.7,61.7,138.7,61.7"/>
				<path id="Path_1195" class="st1" d="M136.8,68.7c0,1,0.8,1.8,1.8,1.9c1,0,1.8-0.8,1.9-1.8c0,0,0-0.1,0-0.1c0-1-0.8-1.8-1.8-1.8
					C137.6,66.9,136.8,67.7,136.8,68.7"/>
				<path id="Path_1196" class="st1" d="M138.6,60.1c1,0,1.8-0.8,1.8-1.9c0-1-0.8-1.8-1.9-1.8c-1,0-1.8,0.8-1.8,1.8
					C136.8,59.2,137.6,60.1,138.6,60.1C138.6,60.1,138.6,60.1,138.6,60.1"/>
				<path id="Path_1197" class="st1" d="M143.8,49.6c1,0,1.8-0.8,1.8-1.8c0-1-0.8-1.8-1.8-1.8c-1,0-1.8,0.8-1.8,1.8
					C142,48.8,142.8,49.6,143.8,49.6"/>
				<path id="Path_1198" class="st1" d="M152.5,73.9c0,1,0.7,1.9,1.8,1.9c0,0,0,0,0,0c1,0,1.8-0.8,1.9-1.8c0-1-0.8-1.8-1.8-1.9
					C153.4,72.1,152.5,72.9,152.5,73.9"/>
				<path id="Path_1199" class="st1" d="M164.8,134.9c-1,0-1.9,0.8-1.9,1.8c0,1,0.8,1.9,1.8,1.9c1,0,1.9-0.8,1.9-1.8c0,0,0,0,0,0
					C166.6,135.7,165.8,134.9,164.8,134.9"/>
				<path id="Path_1200" class="st1" d="M164.8,119.2c-1,0-1.9,0.8-1.9,1.8c0,1,0.8,1.9,1.8,1.9c0,0,0.1,0,0.1,0
					c1,0,1.8-0.9,1.8-1.9C166.6,120,165.8,119.2,164.8,119.2"/>
				<path id="Path_1201" class="st1" d="M154.3-7.1c-10.1,0-18.3,8.2-18.3,18.3s8.2,18.3,18.3,18.3c10.1,0,18.3-8.2,18.3-18.3
					C172.6,1.1,164.4-7.1,154.3-7.1 M154.3,24.2c-7.2,0-13.1-5.9-13.1-13.1c0-7.2,5.9-13.1,13.1-13.1c7.2,0,13.1,5.9,13.1,13.1
					c0,0,0,0,0,0C167.4,18.4,161.6,24.2,154.3,24.2C154.4,24.2,154.3,24.2,154.3,24.2"/>
				<path id="Path_1202" class="st1" d="M154.4,3.3c-4.3,0-7.9,3.4-7.9,7.8s3.4,7.9,7.8,7.9c4.3,0,7.9-3.4,7.9-7.8c0,0,0,0,0,0
					C162.1,6.9,158.7,3.4,154.4,3.3"/>
				<path id="Path_1203" class="st1" d="M166.6,141.9c0-1-0.8-1.8-1.8-1.8c-1,0-1.8,0.8-1.8,1.8s0.8,1.8,1.8,1.8c0,0,0,0,0,0
					C165.8,143.7,166.6,142.9,166.6,141.9"/>
				<path id="Path_1204" class="st1" d="M170,56.4c-1,0-1.8,0.8-1.9,1.8s0.8,1.8,1.8,1.9c1,0,1.8-0.8,1.9-1.8c0,0,0,0,0,0
					C171.8,57.3,171,56.4,170,56.4C170,56.4,170,56.4,170,56.4"/>
				<path id="Path_1205" class="st1" d="M164.8,128.1c1,0,1.8-0.8,1.8-1.8c0-1-0.8-1.8-1.8-1.8s-1.8,0.8-1.8,1.8
					S163.8,128.1,164.8,128.1C164.8,128.1,164.8,128.1,164.8,128.1"/>
				<path id="Path_1206" class="st1" d="M164.7,133.3c1,0,1.8-0.8,1.9-1.7c0-1-0.7-1.9-1.7-1.9s-1.9,0.7-1.9,1.7c0,0,0,0.1,0,0.1
					C162.9,132.5,163.7,133.3,164.7,133.3"/>
				<path id="Path_1207" class="st1" d="M164.8,107.2c1,0,1.8-0.9,1.8-1.9s-0.9-1.8-1.9-1.8c-1,0-1.8,0.8-1.8,1.8
					C163,106.3,163.8,107.2,164.8,107.2"/>
				<path id="Path_1208" class="st1" d="M164.7,161.1c-1,0-1.8,0.9-1.7,1.9s0.9,1.8,1.9,1.7c1,0,1.7-0.8,1.8-1.8
					C166.6,161.9,165.8,161.1,164.7,161.1C164.8,161.1,164.7,161.1,164.7,161.1"/>
				<path id="Path_1209" class="st1" d="M164.8,150.6c-1,0-1.9,0.8-1.9,1.8s0.8,1.9,1.8,1.9c1,0,1.9-0.8,1.9-1.8c0,0,0,0,0,0
					C166.6,151.4,165.8,150.6,164.8,150.6"/>
				<path id="Path_1210" class="st1" d="M164.8,108.7c-1,0-1.8,0.8-1.9,1.8c0,1,0.8,1.8,1.8,1.9c1,0,1.9-0.8,1.9-1.8c0,0,0,0,0,0
					C166.6,109.6,165.8,108.8,164.8,108.7"/>
				<path id="Path_1211" class="st1" d="M170,87.8c-1,0-1.8,0.8-1.8,1.8s0.8,1.8,1.8,1.8s1.8-0.8,1.8-1.8c0,0,0,0,0,0
					C171.8,88.6,171,87.8,170,87.8"/>
				<path id="Path_1212" class="st1" d="M168.2,63.5c0,1,0.8,1.8,1.8,1.8c1,0,1.8-0.8,1.8-1.8c0-1-0.8-1.8-1.8-1.8
					c-1,0-1.8,0.7-1.9,1.7C168.2,63.4,168.2,63.5,168.2,63.5"/>
				<path id="Path_1213" class="st1" d="M169.9,128.1c1,0,1.8-0.7,1.9-1.7c0-1-0.7-1.8-1.7-1.9c-1,0-1.8,0.7-1.9,1.7c0,0,0,0,0,0
					C168.1,127.2,168.9,128,169.9,128.1C169.9,128.1,169.9,128.1,169.9,128.1"/>
				<path id="Path_1214" class="st1" d="M170.1,86.2c1,0,1.8-0.9,1.8-1.9c0-1-0.9-1.8-1.9-1.8c-1,0-1.8,0.9-1.8,1.9c0,0,0,0,0,0
					C168.2,85.5,169.1,86.3,170.1,86.2"/>
				<path id="Path_1215" class="st1" d="M170,72.1c-1,0-1.9,0.8-1.9,1.8c0,1,0.8,1.9,1.8,1.9c1,0,1.9-0.8,1.9-1.8c0,0,0,0,0,0
					C171.8,73,171,72.1,170,72.1"/>
				<path id="Path_1216" class="st1" d="M171.8,94.9c0-1-0.8-1.8-1.8-1.8c-1,0-1.8,0.8-1.8,1.8s0.8,1.8,1.8,1.8c0,0,0,0,0,0
					C171,96.7,171.8,95.9,171.8,94.9C171.8,94.9,171.8,94.9,171.8,94.9"/>
				<path id="Path_1217" class="st1" d="M170,150.6c-1,0-1.8,0.8-1.9,1.8c0,1,0.8,1.8,1.8,1.9c1,0,1.8-0.8,1.9-1.8c0,0,0,0,0,0
					C171.8,151.4,171,150.6,170,150.6"/>
				<path id="Path_1218" class="st1" d="M170,140.1c-1,0-1.8,0.8-1.8,1.8c0,0,0,0,0,0c0,1,0.8,1.8,1.8,1.8c1,0,1.8-0.8,1.8-1.8
					c0,0,0,0,0-0.1C171.8,140.9,171,140.1,170,140.1C170,140.1,170,140.1,170,140.1"/>
				<path id="Path_1219" class="st1" d="M170.1,35.5c-1-0.1-1.9,0.7-1.9,1.7c-0.1,1,0.7,1.9,1.7,1.9c1,0.1,1.9-0.7,1.9-1.7
					c0,0,0,0,0,0C171.8,36.4,171.1,35.5,170.1,35.5"/>
				<path id="Path_1220" class="st1" d="M170,149c1,0,1.8-0.8,1.8-1.8c0-1-0.8-1.8-1.8-1.8c-1,0-1.8,0.8-1.8,1.8
					c-0.1,1,0.7,1.8,1.7,1.9C169.9,149,170,149,170,149"/>
				<path id="Path_1221" class="st1" d="M159.6,93.1c-1-0.1-1.9,0.7-1.9,1.7s0.7,1.9,1.7,1.9c0,0,0.1,0,0.1,0c1,0,1.8-0.7,1.9-1.7
					C161.4,93.9,160.6,93.1,159.6,93.1C159.6,93.1,159.6,93.1,159.6,93.1"/>
				<path id="Path_1222" class="st1" d="M159.5,91.5c1,0,1.8-0.8,1.9-1.8c0-1-0.8-1.8-1.8-1.9c-1,0-1.8,0.8-1.9,1.8c0,0,0,0,0,0
					C157.7,90.6,158.5,91.4,159.5,91.5"/>
				<path id="Path_1223" class="st1" d="M161.4,63.5c0-1-0.8-1.8-1.8-1.9c-1,0-1.8,0.8-1.9,1.8c0,1,0.8,1.8,1.8,1.8
					C160.5,65.3,161.3,64.5,161.4,63.5C161.4,63.5,161.4,63.5,161.4,63.5"/>
				<path id="Path_1224" class="st1" d="M159.6,107.2c1-0.1,1.8-0.9,1.7-1.9c-0.1-1-0.9-1.8-1.9-1.7c-1,0-1.8,0.9-1.7,1.9
					C157.7,106.4,158.6,107.2,159.6,107.2"/>
				<path id="Path_1225" class="st1" d="M156.1,126.3c0-1-0.8-1.8-1.8-1.9c-1,0-1.8,0.8-1.9,1.8l0,0c-0.1,1,0.7,1.9,1.7,1.9
					C155.2,128.1,156.1,127.4,156.1,126.3C156.1,126.3,156.1,126.3,156.1,126.3"/>
				<path id="Path_1226" class="st1" d="M159.6,75.8c1,0,1.8-0.9,1.8-1.9c0-1-0.9-1.8-1.9-1.8c-1,0-1.8,0.8-1.8,1.8
					C157.7,75,158.6,75.8,159.6,75.8"/>
				<path id="Path_1227" class="st1" d="M156.1,147.2c0-1-0.7-1.8-1.7-1.9c-1,0-1.8,0.7-1.9,1.7c0,1,0.7,1.8,1.7,1.9c0,0,0,0,0,0
					C155.2,149,156.1,148.2,156.1,147.2C156.1,147.2,156.1,147.2,156.1,147.2"/>
				<path id="Path_1228" class="st1" d="M154.3,134.9c-1,0-1.9,0.8-1.9,1.8c0,1,0.8,1.9,1.8,1.9c1,0,1.9-0.8,1.9-1.8c0,0,0,0,0-0.1
					C156.1,135.7,155.3,134.9,154.3,134.9"/>
				<path id="Path_1229" class="st1" d="M159.5,114c-1,0-1.9,0.8-1.9,1.9c0,1,0.9,1.8,1.9,1.8c1,0,1.8-0.8,1.8-1.8
					C161.3,114.8,160.5,114,159.5,114"/>
				<path id="Path_1230" class="st1" d="M159.6,49.6c1,0,1.8-0.9,1.8-1.9c0-1-0.9-1.8-1.9-1.8c-1,0-1.8,0.9-1.8,1.9c0,0,0,0,0,0
					C157.7,48.8,158.6,49.6,159.6,49.6"/>
				<path id="Path_1231" class="st1" d="M161.4,42.7c0.1-1-0.7-1.9-1.7-1.9c-1-0.1-1.8,0.7-1.9,1.7c-0.1,1,0.7,1.9,1.7,1.9
					C160.4,44.4,161.3,43.7,161.4,42.7"/>
				<path id="Path_1232" class="st1" d="M159.5,54.9c1,0,1.8-0.8,1.9-1.8c0-1-0.8-1.8-1.8-1.9c-1,0-1.8,0.8-1.9,1.8c0,0,0,0,0,0
					C157.7,54,158.5,54.8,159.5,54.9"/>
				<path id="Path_1233" class="st1" d="M164.8,98.3c-1,0-1.8,0.8-1.8,1.8c0,1,0.8,1.8,1.8,1.8c1,0,1.8-0.8,1.8-1.8c0,0,0,0,0,0
					C166.6,99.1,165.8,98.3,164.8,98.3"/>
				<path id="Path_1234" class="st1" d="M164.7,46c-1,0-1.8,0.9-1.7,1.9c0,1,0.9,1.8,1.9,1.7c1,0,1.7-0.8,1.7-1.8
					C166.6,46.8,165.8,46,164.7,46C164.7,46,164.7,46,164.7,46"/>
				<path id="Path_1235" class="st1" d="M164.7,54.9c1,0,1.9-0.8,1.9-1.8c0-1-0.8-1.9-1.8-1.9c-1,0-1.9,0.8-1.9,1.8c0,0,0,0,0,0
					C162.9,54,163.7,54.8,164.7,54.9"/>
				<path id="Path_1236" class="st1" d="M164.7,56.4c-1,0-1.8,0.8-1.8,1.8c0,1,0.8,1.8,1.8,1.8c1,0,1.8-0.8,1.8-1.8
					C166.6,57.2,165.7,56.4,164.7,56.4"/>
				<path id="Path_1237" class="st1" d="M164.8,70.5c1,0,1.8-0.8,1.9-1.8c0-1-0.8-1.8-1.8-1.9c-1,0-1.8,0.8-1.9,1.8c0,0,0,0,0,0
					C163,69.7,163.8,70.5,164.8,70.5"/>
				<path id="Path_1238" class="st1" d="M164.7,40.7c-1,0-1.8,0.8-1.8,1.8c0,1,0.8,1.8,1.8,1.8c1,0,1.8-0.8,1.8-1.9c0,0,0,0,0,0
					C166.6,41.5,165.7,40.7,164.7,40.7"/>
				<path id="Path_1239" class="st1" d="M159.6,149c1,0,1.8-0.9,1.8-1.9c0-1-0.9-1.8-1.9-1.8c-1,0-1.8,0.9-1.8,1.9c0,0,0,0,0,0
					C157.7,148.2,158.6,149,159.6,149"/>
				<path id="Path_1240" class="st1" d="M159.6,161.1c-1,0-1.8,0.8-1.8,1.8c0,1,0.8,1.8,1.8,1.8c1,0,1.8-0.8,1.8-1.8
					C161.4,161.9,160.6,161.1,159.6,161.1"/>
				<path id="Path_1241" class="st1" d="M159.6,35.5c-1,0-1.8,0.8-1.9,1.8s0.8,1.8,1.8,1.9c1,0,1.8-0.8,1.9-1.8c0,0,0,0,0,0
					C161.3,36.3,160.5,35.5,159.6,35.5"/>
				<path id="Path_1242" class="st1" d="M159.6,155.8c-1,0-1.8,0.8-1.8,1.8c0,1,0.8,1.8,1.8,1.8c1,0,1.8-0.8,1.8-1.8c0,0,0,0,0,0
					C161.3,156.6,160.5,155.8,159.6,155.8"/>
				<path id="Path_1243" class="st1" d="M159.5,134.9c-1,0-1.8,0.8-1.9,1.8c0,1,0.8,1.8,1.8,1.9s1.8-0.8,1.9-1.8c0,0,0,0,0,0
					C161.3,135.7,160.5,134.9,159.5,134.9"/>
				<path id="Path_1244" class="st1" d="M91.6,119.2c-1,0-1.9,0.8-1.9,1.8c0,1,0.8,1.9,1.8,1.9s1.9-0.8,1.9-1.8c0,0,0,0,0,0
					C93.3,120,92.6,119.2,91.6,119.2"/>
				<path id="Path_1245" class="st1" d="M65.4,119.2c-1,0-1.8,0.8-1.8,1.8c0,1,0.8,1.8,1.8,1.8c1,0,1.8-0.8,1.8-1.8
					C67.2,120,66.4,119.2,65.4,119.2"/>
				<path id="Path_1246" class="st1" d="M60.1,150.6c-1,0-1.8,0.8-1.8,1.9s0.8,1.8,1.9,1.8c1,0,1.8-0.8,1.8-1.9c0,0,0,0,0,0
					C61.9,151.4,61.1,150.6,60.1,150.6"/>
				<path id="Path_1247" class="st1" d="M60.1,143.8c1,0,1.8-0.8,1.9-1.8c0-1-0.8-1.8-1.8-1.9c-1,0-1.8,0.8-1.9,1.8c0,0,0,0,0,0
					C58.3,142.9,59.1,143.7,60.1,143.8"/>
				<path id="Path_1248" class="st1" d="M65.4,140.1c-1,0-1.8,0.8-1.8,1.8c0,1,0.8,1.8,1.8,1.8c1,0,1.8-0.8,1.8-1.9c0,0,0,0,0,0
					C67.2,140.9,66.3,140.1,65.4,140.1"/>
				<path id="Path_1249" class="st1" d="M63.6,126.3c0,1,0.8,1.8,1.8,1.8c1,0,1.8-0.8,1.8-1.8c0-1-0.8-1.8-1.8-1.8
					C64.4,124.4,63.6,125.3,63.6,126.3"/>
				<path id="Path_1250" class="st1" d="M60.2,114c-1,0-1.9,0.8-1.9,1.9c0,1,0.9,1.8,1.9,1.8c1,0,1.8-0.8,1.8-1.8
					C62,114.8,61.2,114,60.2,114"/>
				<path id="Path_1251" class="st1" d="M60.1,161.1c-1,0-1.8,0.9-1.8,1.9c0,1,0.9,1.8,1.9,1.8c1,0,1.8-0.9,1.8-1.9
					C61.9,161.8,61.1,161,60.1,161.1"/>
				<path id="Path_1252" class="st1" d="M55,134.9c-1,0-1.9,0.8-1.9,1.8s0.8,1.9,1.8,1.9c1,0,1.9-0.8,1.9-1.8c0,0,0,0,0-0.1
					C56.7,135.7,55.9,134.9,55,134.9"/>
				<path id="Path_1253" class="st1" d="M82.9,131.5c0-1-0.8-1.9-1.8-1.9s-1.9,0.8-1.9,1.8c0,0,0,0,0,0c0,1,0.8,1.8,1.8,1.8
					C82,133.3,82.9,132.5,82.9,131.5"/>
				<path id="Path_1254" class="st1" d="M54.9,145.4c-1,0-1.8,0.8-1.8,1.8c0,1,0.8,1.8,1.8,1.8c0,0,0.1,0,0.1,0c1,0,1.8-0.9,1.8-1.9
					C56.7,146.1,55.9,145.4,54.9,145.4"/>
				<path id="Path_1255" class="st1" d="M70.7,138.6c1,0,1.8-0.9,1.8-1.9c0-1-0.9-1.8-1.9-1.8c-1,0-1.8,0.8-1.8,1.8
					C68.8,137.7,69.6,138.5,70.7,138.6C70.6,138.6,70.7,138.6,70.7,138.6"/>
				<path id="Path_1256" class="st1" d="M58.3,131.5c0,1,0.9,1.8,1.9,1.8c1,0,1.7-0.8,1.8-1.7c0-1-0.8-1.9-1.8-1.9
					S58.3,130.4,58.3,131.5C58.3,131.4,58.3,131.5,58.3,131.5"/>
				<path id="Path_1257" class="st1" d="M75.8,114c-1,0-1.8,0.8-1.8,1.8c0,1,0.8,1.8,1.8,1.9c1,0,1.8-0.8,1.9-1.8
					C77.7,114.8,76.9,114,75.8,114C75.9,114,75.8,114,75.8,114"/>
				<path id="Path_1258" class="st1" d="M81,161.1c-1,0-1.8,0.9-1.7,1.9c0,1,0.9,1.8,1.9,1.7c1,0,1.7-0.8,1.7-1.8
					C82.9,161.9,82.1,161.1,81,161.1C81.1,161.1,81,161.1,81,161.1"/>
				<path id="Path_1259" class="st1" d="M75.8,128.1c1,0,1.8-0.8,1.8-1.8c0-1-0.8-1.8-1.8-1.8c-1,0-1.8,0.7-1.9,1.7
					C74,127.2,74.8,128,75.8,128.1C75.8,128.1,75.8,128.1,75.8,128.1"/>
				<path id="Path_1260" class="st1" d="M81.1,155.8c-1,0-1.9,0.7-1.9,1.7c0,1,0.7,1.9,1.7,1.9c0,0,0.1,0,0.1,0c1,0,1.8-0.8,1.8-1.8
					C82.9,156.7,82.1,155.9,81.1,155.8"/>
				<path id="Path_1261" class="st1" d="M81.1,150.6c-1,0-1.9,0.8-1.9,1.8c0,1,0.8,1.9,1.8,1.9c1,0,1.9-0.8,1.9-1.8c0,0,0,0,0,0
					C82.9,151.4,82.1,150.6,81.1,150.6"/>
				<path id="Path_1262" class="st1" d="M70.7,161.1c-1,0-1.8,0.8-1.9,1.8s0.8,1.8,1.8,1.9c1,0,1.8-0.8,1.9-1.8c0,0,0,0,0,0
					C72.4,161.9,71.7,161.1,70.7,161.1C70.7,161.1,70.7,161.1,70.7,161.1"/>
				<path id="Path_1263" class="st1" d="M72.4,131.5c0-1-0.8-1.8-1.8-1.8c-1,0-1.8,0.8-1.8,1.8c0,1,0.8,1.8,1.8,1.8c0,0,0,0,0,0
					C71.6,133.3,72.4,132.5,72.4,131.5C72.4,131.5,72.4,131.5,72.4,131.5"/>
				<path id="Path_1264" class="st1" d="M70.6,119.2c-1,0-1.9,0.8-1.9,1.8c0,1,0.8,1.9,1.8,1.9c1,0,1.9-0.8,1.9-1.8c0,0,0,0,0-0.1
					C72.4,120,71.6,119.2,70.6,119.2"/>
				<path id="Path_1265" class="st1" d="M75.8,140.1c-1,0-1.8,0.8-1.8,1.8c0,1,0.9,1.8,1.9,1.8c1,0,1.8-0.8,1.8-1.8
					C77.7,140.9,76.8,140.1,75.8,140.1C75.8,140.1,75.8,140.1,75.8,140.1"/>
				<path id="Path_1266" class="st1" d="M72.4,115.8c0-1-0.8-1.8-1.8-1.9s-1.8,0.8-1.9,1.8c0,0,0,0.1,0,0.1c0,1,0.8,1.8,1.8,1.8
					C71.6,117.6,72.4,116.8,72.4,115.8"/>
				<path id="Path_1267" class="st1" d="M60.2,155.8c-1,0-1.8,0.8-1.8,1.8c0,1,0.8,1.8,1.8,1.8c1,0,1.8-0.8,1.8-1.8c0,0,0,0,0,0
					C61.9,156.6,61.1,155.8,60.2,155.8"/>
				<path id="Path_1268" class="st1" d="M122.9,150.6c-1,0-1.9,0.8-1.9,1.8s0.8,1.9,1.8,1.9c0,0,0.1,0,0.1,0c1,0,1.8-0.9,1.8-1.9
					C124.7,151.4,123.9,150.6,122.9,150.6"/>
				<path id="Path_1269" class="st1" d="M44.5,119.2c-1,0-1.9,0.8-1.9,1.8c0,1,0.8,1.9,1.8,1.9c0,0,0,0,0.1,0c1,0,1.8-0.8,1.8-1.8
					C46.3,120,45.5,119.2,44.5,119.2"/>
				<path id="Path_1270" class="st1" d="M46.3,126.3c0-1-0.8-1.9-1.8-1.9s-1.9,0.8-1.9,1.8s0.8,1.9,1.8,1.9c0,0,0,0,0,0
					C45.4,128.1,46.3,127.3,46.3,126.3"/>
				<path id="Path_1271" class="st1" d="M49.7,149c1,0,1.8-0.8,1.8-1.8c0,0,0,0,0,0c0-1-0.8-1.8-1.8-1.8c0,0,0,0-0.1,0
					c-1,0-1.8,0.9-1.7,1.9C47.9,148.2,48.7,149,49.7,149"/>
				<path id="Path_1272" class="st1" d="M49.7,161.1c-1,0-1.8,0.8-1.8,1.8c0,1,0.8,1.8,1.8,1.8c1,0,1.8-0.8,1.8-1.8
					C51.5,161.9,50.8,161.1,49.7,161.1C49.7,161.1,49.7,161.1,49.7,161.1"/>
				<path id="Path_1273" class="st1" d="M54.9,161.1c-1,0-1.8,0.8-1.8,1.8c0,1,0.8,1.8,1.7,1.8c1,0,1.8-0.8,1.9-1.7
					C56.8,161.9,56,161.1,54.9,161.1C55,161.1,54.9,161.1,54.9,161.1"/>
				<path id="Path_1274" class="st1" d="M39.2,114c-1,0-1.8,0.8-1.8,1.8c0,1,0.8,1.8,1.8,1.8s1.8-0.8,1.8-1.8
					C41,114.8,40.2,114,39.2,114C39.2,114,39.2,114,39.2,114"/>
				<path id="Path_1275" class="st1" d="M39.2,77.4c-1,0-1.8,0.9-1.8,1.9s0.9,1.8,1.9,1.8c1,0,1.7-0.8,1.8-1.8
					C41.1,78.2,40.3,77.4,39.2,77.4C39.2,77.4,39.2,77.4,39.2,77.4"/>
				<path id="Path_1276" class="st1" d="M44.4,134.9c-1,0-1.8,0.8-1.8,1.9c0,1,0.8,1.8,1.8,1.8c1,0,1.9-0.8,1.9-1.8
					C46.3,135.8,45.5,134.9,44.4,134.9C44.5,134.9,44.5,134.9,44.4,134.9"/>
				<path id="Path_1277" class="st1" d="M39.2,108.7c-1,0-1.8,0.8-1.8,1.8c0,1,0.8,1.8,1.8,1.8c1,0,1.8-0.8,1.8-1.8c0,0,0,0,0,0
					C41,109.6,40.2,108.8,39.2,108.7C39.3,108.7,39.2,108.7,39.2,108.7"/>
				<path id="Path_1278" class="st1" d="M39.2,103.5c-1,0-1.8,0.8-1.9,1.8s0.8,1.8,1.8,1.9c0,0,0.1,0,0.1,0c1,0,1.8-0.9,1.8-1.9
					C41,104.3,40.2,103.5,39.2,103.5"/>
				<path id="Path_1279" class="st1" d="M44.5,103.5c-1,0-1.8,0.8-1.8,1.8c0,1,0.8,1.8,1.8,1.8c1,0,1.9-0.8,1.9-1.8
					C46.3,104.4,45.5,103.5,44.5,103.5C44.5,103.5,44.5,103.5,44.5,103.5"/>
				<path id="Path_1280" class="st1" d="M53.1,131.5c0,1,0.9,1.8,1.9,1.8c1,0,1.8-0.9,1.8-1.9c0-1-0.8-1.7-1.8-1.8
					c-1,0-1.8,0.8-1.8,1.7C53.1,131.5,53.1,131.5,53.1,131.5"/>
				<path id="Path_1281" class="st1" d="M49.6,159.5c1,0,1.9-0.8,1.9-1.8s-0.8-1.9-1.8-1.9c-1,0-1.8,0.8-1.8,1.8
					C47.9,158.6,48.6,159.4,49.6,159.5"/>
				<path id="Path_1282" class="st1" d="M55,39.2c1-0.1,1.8-0.9,1.7-1.9c-0.1-1-0.8-1.7-1.8-1.7c-1,0-1.8,0.9-1.8,1.9
					C53.1,38.4,54,39.2,55,39.2"/>
				<path id="Path_1283" class="st1" d="M55,40.7c-1,0-1.8,0.8-1.9,1.7c0,0,0,0,0,0c0,1,0.7,1.8,1.8,1.9c0,0,0,0,0.1,0
					c1,0,1.8-0.8,1.8-1.8C56.8,41.6,56,40.8,55,40.7"/>
				<path id="Path_1284" class="st1" d="M54.9,114c-1,0-1.8,0.8-1.8,1.8c0,0,0,0,0,0.1c0,1,0.9,1.8,1.9,1.8s1.8-0.9,1.8-1.9
					C56.7,114.8,55.9,114,54.9,114"/>
				<path id="Path_1285" class="st1" d="M55,124.4c-1,0-1.8,0.7-1.9,1.7c0,0,0,0,0,0c0,1,0.7,1.8,1.7,1.9c0,0,0,0,0.1,0
					c1,0,1.8-0.8,1.8-1.8C56.7,125.3,55.9,124.5,55,124.4"/>
				<path id="Path_1286" class="st1" d="M49.7,150.6c-1,0-1.8,0.8-1.8,1.8c0,1,0.8,1.8,1.8,1.8c1,0,1.9-0.8,1.9-1.8
					C51.6,151.4,50.8,150.6,49.7,150.6C49.7,150.6,49.7,150.6,49.7,150.6"/>
				<path id="Path_1287" class="st1" d="M49.7,134.9c-1,0-1.9,0.7-1.9,1.8c0,1,0.7,1.9,1.8,1.9c1,0,1.9-0.7,1.9-1.8c0,0,0,0,0,0
					C51.5,135.8,50.7,134.9,49.7,134.9"/>
				<path id="Path_1288" class="st1" d="M49.7,35.5c-1,0-1.8,0.9-1.8,1.9c0,1,0.8,1.8,1.8,1.8c1,0,1.8-0.9,1.8-1.9
					C51.5,36.3,50.7,35.5,49.7,35.5"/>
				<path id="Path_1289" class="st1" d="M49.7,51.2c-1,0-1.8,0.8-1.8,1.8c0,1,0.8,1.8,1.8,1.8c1,0,1.8-0.8,1.8-1.8
					C51.5,52,50.7,51.2,49.7,51.2"/>
				<path id="Path_1290" class="st1" d="M46.3,110.5c0-1-0.9-1.8-1.9-1.8c-1,0-1.8,0.9-1.8,1.9c0,1,0.8,1.8,1.8,1.8
					C45.5,112.4,46.3,111.6,46.3,110.5C46.3,110.5,46.3,110.5,46.3,110.5"/>
				<path id="Path_1291" class="st1" d="M117.7,33.9c1,0,1.8-0.8,1.8-1.8c0,0,0,0,0,0c0-1-0.8-1.8-1.8-1.8c-1,0-1.8,0.8-1.8,1.8
					c0,0,0,0.1,0,0.1C115.9,33.1,116.7,33.9,117.7,33.9C117.7,33.9,117.7,33.9,117.7,33.9"/>
				<path id="Path_1292" class="st1" d="M117.7,28.7c1,0,1.8-0.8,1.9-1.8c0-1-0.8-1.8-1.8-1.9c0,0-0.1,0-0.1,0c-1,0-1.8,0.9-1.8,1.9
					C115.9,27.9,116.7,28.7,117.7,28.7"/>
				<path id="Path_1293" class="st1" d="M117.7,117.6c1,0,1.8-0.8,1.8-1.8c0-1-0.8-1.8-1.8-1.8c0,0,0,0-0.1,0c-1,0-1.8,0.8-1.8,1.8
					S116.7,117.6,117.7,117.6"/>
				<path id="Path_1294" class="st1" d="M112.4,150.6c-1,0-1.8,0.8-1.8,1.8c0,1,0.8,1.8,1.8,1.8c1,0,1.8-0.8,1.8-1.8c0,0,0,0,0,0
					C114.2,151.4,113.4,150.6,112.4,150.6"/>
				<path id="Path_1295" class="st1" d="M112.5,161.1c-1,0-1.8,0.8-1.8,1.8s0.8,1.8,1.8,1.8c1,0,1.8-0.8,1.8-1.8
					C114.3,161.9,113.5,161.1,112.5,161.1"/>
				<path id="Path_1296" class="st1" d="M112.5,140.1c-1,0-1.8,0.8-1.8,1.8s0.8,1.8,1.8,1.8c1,0,1.8-0.8,1.8-1.8c0,0,0,0,0,0
					C114.3,140.9,113.5,140.1,112.5,140.1"/>
				<path id="Path_1297" class="st1" d="M107.2,150.6c-1,0-1.8,0.9-1.8,1.9c0,1,0.9,1.8,1.9,1.8l0,0c1-0.1,1.8-0.9,1.7-1.9
					C109,151.3,108.2,150.6,107.2,150.6"/>
				<path id="Path_1298" class="st1" d="M107.2,140.1c-1,0-1.8,0.8-1.8,1.8c0,1,0.8,1.8,1.9,1.8c0,0,0,0,0,0c1,0,1.8-0.8,1.8-1.9
					S108.2,140.1,107.2,140.1"/>
				<path id="Path_1299" class="st1" d="M107.3,138.6c1,0,1.8-0.9,1.8-1.9s-0.9-1.8-1.9-1.8c-1,0-1.8,0.8-1.8,1.8
					C105.4,137.7,106.2,138.6,107.3,138.6C107.2,138.6,107.3,138.6,107.3,138.6"/>
				<path id="Path_1300" class="st1" d="M100.2,147.2c0,1,0.8,1.8,1.8,1.8c1,0,1.8-0.8,1.8-1.7c0-1-0.8-1.8-1.7-1.9
					C101.1,145.3,100.2,146.1,100.2,147.2C100.2,147.1,100.2,147.1,100.2,147.2"/>
				<path id="Path_1301" class="st1" d="M117.6,145.4c-1,0-1.8,0.9-1.7,1.9s0.9,1.8,1.9,1.7c1,0,1.7-0.8,1.7-1.8
					c0-1-0.8-1.8-1.7-1.8C117.7,145.4,117.7,145.4,117.6,145.4"/>
				<path id="Path_1302" class="st1" d="M117.7,124.4c-1,0-1.8,0.8-1.8,1.8c0,1,0.8,1.8,1.8,1.8c1,0,1.8-0.8,1.9-1.8c0,0,0,0,0-0.1
					C119.5,125.2,118.7,124.4,117.7,124.4C117.7,124.4,117.7,124.4,117.7,124.4"/>
				<path id="Path_1303" class="st1" d="M122.9,93.1c-1,0-1.8,0.8-1.8,1.8c0,1,0.8,1.8,1.8,1.8s1.8-0.8,1.8-1.8c0,0,0,0,0,0
					C124.7,93.9,124,93.1,122.9,93.1C123,93.1,123,93.1,122.9,93.1"/>
				<path id="Path_1304" class="st1" d="M122.9,114c-1,0-1.8,0.8-1.8,1.8c0,0,0,0,0,0c0,1,0.9,1.8,1.9,1.8c1,0,1.8-0.8,1.8-1.8
					S123.9,114,122.9,114"/>
				<path id="Path_1305" class="st1" d="M112.4,129.7c-1,0-1.8,0.8-1.8,1.8c0,1,0.8,1.8,1.8,1.8c1,0,1.8-0.8,1.8-1.8
					C114.3,130.5,113.5,129.7,112.4,129.7C112.4,129.7,112.4,129.7,112.4,129.7"/>
				<path id="Path_1306" class="st1" d="M122.9,124.4c-1,0-1.8,0.8-1.8,1.8c0,0,0,0.1,0,0.1c0,1,0.8,1.8,1.8,1.8
					c1,0,1.8-0.8,1.8-1.9C124.7,125.2,123.9,124.5,122.9,124.4"/>
				<path id="Path_1307" class="st1" d="M123,161.1c-1,0-1.8,0.8-1.9,1.7c0,1,0.8,1.8,1.7,1.9c0,0,0,0,0.1,0c1,0,1.8-0.8,1.8-1.8
					C124.7,161.9,123.9,161.1,123,161.1"/>
				<path id="Path_1308" class="st1" d="M122.9,133.3c1,0,1.8-0.9,1.8-1.9c0-1-0.8-1.7-1.8-1.8c-1,0-1.8,0.8-1.8,1.8c0,0,0,0,0,0.1
					C121.1,132.5,121.9,133.3,122.9,133.3C122.9,133.3,122.9,133.3,122.9,133.3"/>
				<path id="Path_1309" class="st1" d="M112.5,119.2c-1,0-1.9,0.8-1.9,1.8c0,1,0.8,1.9,1.8,1.9c1,0,1.9-0.8,1.9-1.8c0,0,0,0,0,0
					C114.3,120.1,113.5,119.2,112.5,119.2"/>
				<path id="Path_1310" class="st1" d="M117.7,155.8c-1,0-1.8,0.9-1.8,1.9c0,1,0.8,1.7,1.8,1.8c1,0,1.8-0.8,1.8-1.8
					C119.5,156.6,118.7,155.8,117.7,155.8"/>
				<path id="Path_1311" class="st1" d="M117.7,19.8c-1,0-1.8,0.9-1.8,1.9c0,1,0.8,1.7,1.7,1.8c1,0,1.8-0.8,1.8-1.9
					C119.5,20.6,118.7,19.8,117.7,19.8"/>
				<path id="Path_1312" class="st1" d="M122.9,91.5c1,0,1.8-0.9,1.8-1.9c0-1-0.8-1.8-1.8-1.8c-1,0-1.9,0.8-1.9,1.8
					S121.8,91.4,122.9,91.5C122.9,91.5,122.9,91.5,122.9,91.5"/>
				<path id="Path_1313" class="st1" d="M96.7,140.1c-1,0-1.8,0.9-1.7,1.9c0,1,0.9,1.8,1.9,1.7c1,0,1.8-0.8,1.8-1.8
					C98.6,140.9,97.7,140.1,96.7,140.1C96.7,140.1,96.7,140.1,96.7,140.1"/>
				<path id="Path_1314" class="st1" d="M91.6,134.9c-1-0.1-1.9,0.7-1.9,1.7s0.7,1.9,1.7,1.9s1.9-0.7,1.9-1.7c0,0,0,0,0,0
					C93.4,135.8,92.6,135,91.6,134.9"/>
				<path id="Path_1315" class="st1" d="M89.7,147.2c0,1,0.8,1.8,1.9,1.8c1,0,1.8-0.9,1.8-1.9c0-1-0.8-1.8-1.8-1.8
					C90.5,145.3,89.7,146.1,89.7,147.2C89.7,147.2,89.7,147.2,89.7,147.2"/>
				<path id="Path_1316" class="st1" d="M91.6,140.1c-1,0-1.8,0.7-1.9,1.7c0,1,0.8,1.9,1.8,1.9c0,0,0,0,0,0c1,0,1.8-0.8,1.9-1.8
					C93.4,141,92.6,140.1,91.6,140.1L91.6,140.1"/>
				<path id="Path_1317" class="st1" d="M91.6,161.1c-1,0-1.8,0.8-1.8,1.8c0,1,0.8,1.8,1.8,1.8s1.8-0.8,1.8-1.8c0,0,0,0,0,0
					C93.4,161.9,92.6,161.1,91.6,161.1"/>
				<path id="Path_1318" class="st1" d="M91.5,150.6c-1,0-1.8,0.8-1.8,1.8s0.8,1.8,1.8,1.8s1.8-0.8,1.8-1.8c0,0,0,0,0,0
					C93.3,151.4,92.5,150.6,91.5,150.6"/>
				<path id="Path_1319" class="st1" d="M93.4,157.7c0-1-0.7-1.9-1.7-1.9s-1.9,0.7-1.9,1.7c0,1,0.7,1.9,1.7,1.9
					C92.5,159.5,93.3,158.7,93.4,157.7"/>
				<path id="Path_1320" class="st1" d="M86.3,114c-1,0-1.8,0.8-1.8,1.8s0.8,1.8,1.8,1.8c1,0,1.8-0.8,1.8-1.8
					C88.2,114.9,87.4,114,86.3,114C86.4,114,86.3,114,86.3,114"/>
				<path id="Path_1321" class="st1" d="M86.4,133.3c1,0,1.8-0.9,1.8-1.9c0-1-0.9-1.8-1.9-1.8c-1,0-1.8,0.8-1.8,1.8
					c0,1,0.8,1.8,1.7,1.8C86.3,133.3,86.3,133.3,86.4,133.3"/>
				<path id="Path_1322" class="st1" d="M86.3,150.6c-1,0-1.8,0.8-1.8,1.8s0.8,1.8,1.8,1.8c1,0,1.8-0.8,1.8-1.8
					C88.1,151.4,87.3,150.6,86.3,150.6C86.3,150.6,86.3,150.6,86.3,150.6"/>
				<path id="Path_1323" class="st1" d="M84.5,126.3c0,1,0.9,1.8,1.9,1.7s1.8-0.9,1.7-1.9c0-1-0.8-1.7-1.8-1.7
					C85.3,124.4,84.5,125.2,84.5,126.3C84.5,126.3,84.5,126.3,84.5,126.3"/>
				<path id="Path_1324" class="st1" d="M103.8,115.9c0-1-0.8-1.8-1.8-1.9c-1,0-1.8,0.8-1.9,1.8l0,0c0,1,0.8,1.8,1.8,1.9
					C102.9,117.6,103.8,116.9,103.8,115.9"/>
				<path id="Path_1325" class="st1" d="M102,161.1c-1,0-1.8,0.8-1.9,1.8c0,1,0.8,1.8,1.8,1.9c1,0,1.8-0.8,1.9-1.8c0,0,0,0,0,0
					C103.8,161.9,103.1,161.1,102,161.1C102.1,161.1,102.1,161.1,102,161.1"/>
				<path id="Path_1326" class="st1" d="M96.8,117.6c1,0,1.8-0.8,1.8-1.8c0-1-0.8-1.8-1.8-1.9s-1.8,0.8-1.9,1.8c0,0,0,0.1,0,0.1
					C95,116.8,95.8,117.6,96.8,117.6"/>
				<path id="Path_1327" class="st1" d="M102,155.8c-1,0-1.8,0.8-1.9,1.8c0,1,0.8,1.8,1.8,1.9c1,0,1.8-0.8,1.9-1.8c0,0,0,0,0,0
					C103.8,156.6,103,155.8,102,155.8"/>
				<path id="Path_1328" class="st1" d="M96.8,119.2c-1,0-1.9,0.8-1.9,1.8c0,1,0.8,1.9,1.8,1.9c1,0,1.9-0.8,1.9-1.8c0,0,0,0,0,0
					C98.6,120,97.8,119.2,96.8,119.2"/>
				<path id="Path_1329" class="st1" d="M102,143.8c1,0,1.8-0.8,1.8-1.8c0-1-0.8-1.8-1.8-1.8c-1,0-1.8,0.8-1.8,1.8
					C100.2,143,101,143.8,102,143.8C102,143.8,102,143.8,102,143.8"/>
				<path id="Path_1330" class="st1" d="M96.7,129.7c-1,0-1.8,0.9-1.8,1.9c0,1,0.8,1.8,1.8,1.8c1,0,1.8-0.8,1.8-1.8
					C98.6,130.5,97.7,129.6,96.7,129.7C96.7,129.7,96.7,129.7,96.7,129.7"/>
				<path id="Path_1331" class="st1" d="M86.3,161.1c-1,0-1.8,0.8-1.8,1.8c0,1,0.8,1.8,1.8,1.8c1,0,1.8-0.7,1.8-1.7
					c0.1-1-0.7-1.8-1.7-1.9C86.4,161.1,86.4,161.1,86.3,161.1"/>
				<path id="Path_1332" class="st1" d="M39.2,82.6c-1,0-1.8,0.8-1.8,1.8c0,1,0.8,1.8,1.8,1.8c1,0,1.8-0.9,1.8-1.9
					C41,83.4,40.2,82.6,39.2,82.6"/>
				<path id="Path_1333" class="st1" d="M96.8,124.4c-1,0-1.8,0.8-1.9,1.8c0,1,0.8,1.8,1.8,1.9c0,0,0.1,0,0.1,0c1,0,1.8-0.8,1.8-1.8
					C98.6,125.3,97.8,124.5,96.8,124.4"/>
				<path id="Path_1334" class="st1" d="M96.7,138.6c1,0,1.8-0.8,1.9-1.8c0-1-0.8-1.8-1.8-1.9c-1,0-1.8,0.8-1.9,1.8c0,0,0,0,0,0
					C95,137.7,95.7,138.5,96.7,138.6"/>
			</g>
		</g>
	</g>
</g>
</svg>
