<svg id="Group_86" data-name="Group 86" xmlns="http://www.w3.org/2000/svg" xmlns:xlink="http://www.w3.org/1999/xlink" width="50.016" height="50" viewBox="0 0 50.016 50">
  <defs>
    <clipPath id="clip-path">
      <rect id="Rectangle_71" data-name="Rectangle 71" width="50.016" height="50"/>
    </clipPath>
  </defs>
  <g id="Group_85" data-name="Group 85" clip-path="url(#clip-path)">
    <path id="Path_75" data-name="Path 75" d="M23.542,0H26.57a2.786,2.786,0,0,0,.376.08A23.848,23.848,0,0,1,37.47,3.331,24.635,24.635,0,0,1,49.631,20.658c.171.906.258,1.827.383,2.741v3.022c-.127.945-.218,1.9-.387,2.835a23.979,23.979,0,0,1-8.88,15.061c-7.135,5.62-15.186,7.172-23.79,4.205C7.8,45.366,2.341,38.776.4,29.306c-.189-.917-.267-1.857-.4-2.787V23.4c.126-.913.227-1.831.383-2.739A24.944,24.944,0,0,1,20.121.492C21.251.274,22.4.161,23.542,0m3.908,21.251c0-1.015-.007-1.956,0-2.9.009-.957.4-1.367,1.357-1.4.878-.034,1.757-.05,2.636-.057.442,0,.678-.2.679-.639,0-1.251,0-2.5-.009-3.753a.613.613,0,0,0-.7-.685c-1.2,0-2.412-.041-3.613.026-3.122.174-5.253,1.932-5.771,4.9a28.114,28.114,0,0,0-.163,3.885c-.007.2,0,.408,0,.637-1.133,0-2.19,0-3.248,0-.418,0-.719.154-.723.6-.014,1.4-.011,2.794,0,4.191a.549.549,0,0,0,.625.589c.781,0,1.563,0,2.344,0h1v.645q0,4.9,0,9.8c0,.893.1,1,1.015,1q1.734,0,3.467,0c.957,0,1.071-.115,1.072-1.06q0-4.9,0-9.8c0-.187.017-.375.027-.6,1.271,0,2.489,0,3.708,0,.668,0,.79-.132.792-.807q.006-1.852,0-3.7c0-.744-.13-.867-.89-.869-1.185,0-2.37,0-3.613,0" transform="translate(0.001)"/>
  </g>
</svg>
