<?xml version="1.0" encoding="utf-8"?>
<!-- Generator: Adobe Illustrator 26.3.1, SVG Export Plug-In . SVG Version: 6.00 Build 0)  -->
<svg version="1.1" id="Layer_2_00000001647648157105446690000009257963176986196381_"
	 xmlns="http://www.w3.org/2000/svg" xmlns:xlink="http://www.w3.org/1999/xlink" x="0px" y="0px" viewBox="0 0 50.2 50"
	 style="enable-background:new 0 0 50.2 50;" xml:space="preserve">
<style type="text/css">
	.st0{clip-path:url(#SVGID_00000181769589982401431500000007618128868204463766_);}
	.st1{fill:#FBFCFE;}
</style>
<g id="Layer_1-2">
	<g id="Group_84" transform="translate(56)">
		<g>
			<defs>
				<rect id="SVGID_1_" x="-56" width="50.2" height="50"/>
			</defs>
			<clipPath id="SVGID_00000015327185456976253480000001832517739360607678_">
				<use xlink:href="#SVGID_1_"  style="overflow:visible;"/>
			</clipPath>
			<g style="clip-path:url(#SVGID_00000015327185456976253480000001832517739360607678_);">
				<g id="Group_83">
					<path id="Path_72" class="st1" d="M-30.8,0c-13.8,0-25,11.2-25,25s11.2,25,25,25c13.8,0,25-11.2,25-25C-5.8,11.2-17,0-30.8,0
						 M-17,31c-0.2,4.2-3.6,7.6-7.8,7.8c-4,0.2-8.1,0.2-12.2,0c-4.2-0.2-7.6-3.6-7.8-7.9c-0.1-4-0.1-7.9,0-11.9
						c0.2-4.2,3.6-7.6,7.8-7.9c2-0.1,4,0,6,0l0,0c2,0,4-0.1,5.9,0c4.3,0.2,7.7,3.6,8,7.9C-16.9,23-16.9,27-17,31"/>
					<path id="Path_73" class="st1" d="M-25.8,14.2c-3.3,0-6.7,0-10,0c-3.6,0-5.8,2.3-5.9,5.8c0,1.6,0,3.3,0,4.9s0,3.4,0,5.1
						c-0.1,3,2.2,5.6,5.2,5.8c0.2,0,0.4,0,0.5,0c3.4,0,6.8,0,10.2,0c3,0.1,5.6-2.2,5.7-5.2c0-0.1,0-0.3,0-0.5c0-3.4,0-6.8,0-10.2
						c0.1-3-2.2-5.6-5.2-5.7C-25.5,14.2-25.7,14.2-25.8,14.2 M-30.9,32.1c-3.9,0-7.1-3.2-7.1-7.1c0-3.9,3.2-7.1,7.1-7.1
						c3.9,0,7.1,3.2,7.1,7.1v0C-23.8,29-27,32.1-30.9,32.1 M-23.5,18.7c-0.7,0-1.2-0.5-1.1-1.2c0.1-0.5,0.6-0.9,1-1.3l0.5,0
						c0.3,0.5,0.8,0.9,0.8,1.4C-22.2,18.3-22.8,18.7-23.5,18.7"/>
					<path id="Path_74" class="st1" d="M-30.9,20.7c-2.4,0-4.3,2-4.2,4.4s2,4.3,4.4,4.2c2.4,0,4.2-2,4.2-4.3c0-2.3-1.9-4.2-4.2-4.2
						C-30.9,20.7-30.9,20.7-30.9,20.7"/>
				</g>
			</g>
		</g>
	</g>
</g>
</svg>
