<svg id="Group_84" data-name="Group 84" xmlns="http://www.w3.org/2000/svg" xmlns:xlink="http://www.w3.org/1999/xlink" width="50.207" height="50" viewBox="0 0 50.207 50">
  <defs>
    <clipPath id="clip-path">
      <rect id="Rectangle_70" data-name="Rectangle 70" width="50.207" height="50"/>
    </clipPath>
  </defs>
  <g id="Group_83" data-name="Group 83" clip-path="url(#clip-path)">
    <path id="Path_72" data-name="Path 72" d="M25.178,0A25,25,0,1,0,50.207,24.989,25.027,25.027,0,0,0,25.178,0M38.963,31.028A8.175,8.175,0,0,1,31.194,38.8c-4.046.174-8.111.176-12.157,0a8.206,8.206,0,0,1-7.792-7.873c-.141-3.96-.142-7.932,0-11.892a8.3,8.3,0,0,1,7.832-7.849c2-.114,4.016-.019,6.024-.019v-.007c1.971,0,3.948-.088,5.913.018a8.281,8.281,0,0,1,7.949,7.847c.165,3.994.164,8.006,0,12" transform="translate(0 0)"/>
    <path id="Path_73" data-name="Path 73" d="M111.66,95.357c-3.344-.032-6.689-.026-10.033,0-3.578.026-5.814,2.265-5.865,5.848-.023,1.628,0,3.257,0,4.886,0,1.7-.026,3.406.006,5.108a5.493,5.493,0,0,0,5.737,5.76q5.127.071,10.255,0a5.473,5.473,0,0,0,5.7-5.686q.08-5.107,0-10.215a5.478,5.478,0,0,0-5.794-5.7m-5.042,17.9a7.106,7.106,0,1,1,7.119-7.066,7.162,7.162,0,0,1-7.119,7.066M114.025,99.8c-.725-.041-1.236-.536-1.087-1.226.1-.483.633-.876.972-1.309l.526.029c.285.47.761.921.809,1.413.068.7-.5,1.135-1.22,1.094" transform="translate(-81.5 -81.148)"/>
    <path id="Path_74" data-name="Path 74" d="M144.054,139.176a4.289,4.289,0,1,0,4.356,4.238,4.239,4.239,0,0,0-4.356-4.238" transform="translate(-118.996 -118.464)"/>
  </g>
</svg>
