<?xml version="1.0" encoding="utf-8"?>
<!-- Generator: Adobe Illustrator 26.3.1, SVG Export Plug-In . SVG Version: 6.00 Build 0)  -->
<svg version="1.1" id="Layer_2_00000019677635905588113800000000198675740927059355_"
	 xmlns="http://www.w3.org/2000/svg" xmlns:xlink="http://www.w3.org/1999/xlink" x="0px" y="0px" viewBox="0 0 50.2 50"
	 style="enable-background:new 0 0 50.2 50;" xml:space="preserve">
<style type="text/css">
	.st0{clip-path:url(#SVGID_00000000199780040890531240000016966825532686902185_);}
	.st1{fill:#FBFCFE;}
</style>
<g id="Layer_1-2">
	<g id="Group_88" transform="translate(168)">
		<g>
			<defs>
				<rect id="SVGID_1_" x="-168" width="50.2" height="50"/>
			</defs>
			<clipPath id="SVGID_00000158741675344116181850000016903307486300847262_">
				<use xlink:href="#SVGID_1_"  style="overflow:visible;"/>
			</clipPath>
			<g style="clip-path:url(#SVGID_00000158741675344116181850000016903307486300847262_);">
				<g id="Group_87">
					<path id="Path_76" class="st1" d="M-145.1,0h4.3c0.2,0.1,0.4,0.1,0.6,0.2c10.2,1.1,18.6,8.3,21.3,18.1c0.4,1.5,0.6,3,1,4.6v4.3
						c-0.1,0.7-0.2,1.3-0.4,2c-2.4,13.7-15.3,22.8-29,20.5c-9.7-1.7-17.6-8.9-20-18.5c-0.3-1.3-0.5-2.7-0.8-4v-4.3
						c0.1-0.3,0.1-0.6,0.2-0.8c1.6-10.2,7.2-17.1,16.9-20.6C-149,0.8-147,0.3-145.1,0 M-146.7,20.6v17.5h5.4v-1c0-2.6,0-5.1,0-7.7
						c0-0.9,0.1-1.8,0.4-2.6c0.4-1.3,1.6-1.9,3.2-1.8c1.2,0,2.2,0.9,2.3,2.1c0.1,0.8,0.2,1.5,0.2,2.3c0,2.5,0,5.1,0,7.6
						c0,0.3,0,0.7,0.1,1h5.3c0-4,0.2-8-0.1-12c-0.3-5-3.7-6.5-7.9-5.8c-1.5,0.3-2.9,1.3-3.7,2.6v-2.3L-146.7,20.6L-146.7,20.6z
						 M-155.6,38.1h5.4V20.6h-5.4C-155.6,20.6-155.6,38.1-155.6,38.1z M-153,18.2c1.7,0,3.2-1.4,3.2-3.1s-1.4-3.2-3.1-3.2l0,0
						c-1.7,0-3.2,1.4-3.2,3.1S-154.7,18.2-153,18.2"/>
				</g>
			</g>
		</g>
	</g>
</g>
</svg>
