<svg id="Group_88" data-name="Group 88" xmlns="http://www.w3.org/2000/svg" xmlns:xlink="http://www.w3.org/1999/xlink" width="50.194" height="50" viewBox="0 0 50.194 50">
  <defs>
    <clipPath id="clip-path">
      <rect id="Rectangle_72" data-name="Rectangle 72" width="50.194" height="50"/>
    </clipPath>
  </defs>
  <g id="Group_87" data-name="Group 87" clip-path="url(#clip-path)">
    <path id="Path_76" data-name="Path 76" d="M22.94,0h4.314a4.8,4.8,0,0,0,.654.168A24.938,24.938,0,0,1,49.244,18.281c.418,1.5.638,3.045.95,4.57v4.3c-.122.668-.253,1.334-.364,2A25.1,25.1,0,0,1,.786,31.145c-.327-1.316-.527-2.664-.786-4v-4.3c.062-.279.141-.556.184-.837C1.755,11.836,7.362,4.9,17.072,1.366A48.146,48.146,0,0,1,22.94,0M21.285,20.634V38.086h5.392c0-.38,0-.7,0-1.017,0-2.569-.032-5.139.021-7.707a9.118,9.118,0,0,1,.408-2.582c.429-1.331,1.585-1.911,3.221-1.8a2.335,2.335,0,0,1,2.3,2.136,12.347,12.347,0,0,1,.193,2.326c.024,2.536.009,5.073.015,7.61,0,.342.037.683.056,1.014H38.2c0-4.044.192-8.018-.048-11.967-.3-5.005-3.679-6.494-7.935-5.77A5.878,5.878,0,0,0,26.48,22.97V20.634ZM12.393,38.1h5.361V20.642H12.393Zm2.648-19.922a3.153,3.153,0,1,0,.009-6.306,3.153,3.153,0,1,0-.009,6.306"/>
  </g>
</svg>
