<svg xmlns="http://www.w3.org/2000/svg" width="467.378" height="568.711" viewBox="0 0 467.378 568.711">
  <path id="Path_1605" data-name="Path 1605" d="M590.112,473.374A183.626,183.626,0,0,0,461.375,159.9v-.015c-.248,0-.494,0-.741.006-.124,0-.248-.006-.374-.006v.006a283.851,283.851,0,0,0,1.115,567.7V527.148a182.406,182.406,0,0,0,128.737-53.775m-299.075,140.7A240.89,240.89,0,0,1,460.807,202.848c77.321.3,140.138,63.284,140.138,140.675,0,77.27-62.621,140.184-139.779,140.672v-.2a40.466,40.466,0,1,1,0-80.933V360.1A83.4,83.4,0,0,0,417.529,514.6V680.662a239.145,239.145,0,0,1-126.491-66.584" transform="translate(-177.023 -159.381)" fill="none" stroke="#464646" stroke-width="1" opacity="0.2"/>
</svg>
