<svg xmlns="http://www.w3.org/2000/svg" xmlns:xlink="http://www.w3.org/1999/xlink" width="757" height="1121" viewBox="0 0 757 1121">
  <defs>
    <clipPath id="clip-path">
      <rect id="Rectangle_260" data-name="Rectangle 260" width="757" height="1121" transform="translate(1705 2652)" fill="#fff" stroke="#6e6e73" stroke-width="1"/>
    </clipPath>
  </defs>
  <g id="Mask_Group_14" data-name="Mask Group 14" transform="translate(-1705 -2652)" opacity="0.496" clip-path="url(#clip-path)">
    <path id="Path_1604" data-name="Path 1604" d="M896.48,706.154A319.977,319.977,0,0,0,672.15,159.911v-.025c-.431,0-.861.005-1.291.011-.216-.006-.432-.011-.651-.011v.011a494.624,494.624,0,0,0,1.943,989.245V799.859a317.851,317.851,0,0,0,224.33-93.7M375.327,951.339c-79.289-79.285-122.955-184.7-122.955-296.829s43.666-217.539,122.955-296.828C454.375,278.635,559.4,235,671.158,234.749c134.736.515,244.2,110.275,244.2,245.132,0,134.647-109.12,244.277-243.572,245.128v-.35a70.515,70.515,0,1,1,0-141.029V508.778c-80.154,0-145.372,65.212-145.372,145.367A145.408,145.408,0,0,0,595.744,777.99v289.374c-83.033-15.185-159.458-55.063-220.417-116.026" transform="translate(1182.52 2623.487)" fill="#eeedf0"/>
  </g>
</svg>
