<?xml version="1.0" encoding="UTF-8"?>
<svg id="Layer_2" data-name="Layer 2" xmlns="http://www.w3.org/2000/svg" viewBox="0 0 105 105">
  <defs>
    <style>
      .cls-1 {
        fill: #252525;
      }
    </style>
  </defs>
  <g id="Layer_2-2" data-name="Layer 2">
    <path id="Subtraction_2-2" data-name="Subtraction 2-2" class="cls-1" d="M52.5,105c-3.55,0-7.1-.36-10.58-1.07-3.38-.69-6.68-1.72-9.85-3.06-3.12-1.32-6.11-2.94-8.92-4.84-2.79-1.88-5.39-4.03-7.77-6.41-2.38-2.38-4.53-4.98-6.41-7.77-1.9-2.81-3.52-5.8-4.84-8.92-1.34-3.18-2.37-6.48-3.06-9.85C.36,59.6,0,56.05,0,52.5c0-3.55.36-7.1,1.07-10.58.69-3.38,1.72-6.68,3.06-9.85,1.32-3.12,2.94-6.11,4.84-8.92,1.88-2.79,4.03-5.39,6.41-7.77,2.38-2.38,4.98-4.53,7.77-6.41,2.81-1.9,5.8-3.52,8.92-4.84,3.18-1.34,6.48-2.37,9.85-3.06C45.4.36,48.95,0,52.5,0c3.55,0,7.1.36,10.58,1.07,3.38.69,6.68,1.72,9.85,3.06,3.12,1.32,6.11,2.94,8.92,4.84,2.79,1.88,5.39,4.03,7.77,6.41,2.38,2.38,4.53,4.98,6.41,7.77,1.9,2.81,3.52,5.8,4.84,8.92,1.34,3.18,2.37,6.48,3.06,9.85.71,3.48,1.07,7.03,1.07,10.58,0,3.55-.36,7.1-1.07,10.58-.69,3.38-1.72,6.68-3.06,9.86-1.32,3.12-2.94,6.11-4.84,8.92-1.88,2.79-4.03,5.39-6.41,7.77-2.38,2.38-4.98,4.53-7.77,6.41-2.81,1.9-5.8,3.52-8.92,4.84-3.18,1.34-6.48,2.37-9.85,3.06-3.48.71-7.03,1.07-10.58,1.07ZM40.67,37.63v30.35l26.7-15.18-26.7-15.17h0Z"/>
  </g>
</svg>