<svg id="Group_82" data-name="Group 82" xmlns="http://www.w3.org/2000/svg" xmlns:xlink="http://www.w3.org/1999/xlink" width="49.842" height="50" viewBox="0 0 49.842 50">
  <defs>
    <clipPath id="clip-path">
      <rect id="Rectangle_69" data-name="Rectangle 69" width="49.842" height="50"/>
    </clipPath>
  </defs>
  <g id="Group_81" data-name="Group 81" clip-path="url(#clip-path)">
    <path id="Path_71" data-name="Path 71" d="M22.763,0h4.28c.664.12,1.327.248,1.993.36,11.324,1.909,19.649,11.1,20.715,22.884A24.951,24.951,0,0,1,33.335,48.479,59.717,59.717,0,0,1,27.043,50h-4.28a4.606,4.606,0,0,0-.646-.169A24.872,24.872,0,0,1,.944,31.716C.528,30.222.31,28.672,0,27.148v-4.3c.063-.283.142-.563.186-.849C1.735,11.876,7.291,4.975,16.834,1.4A46.147,46.147,0,0,1,22.763,0M11.309,34c.268.165.529.346.807.492A16.239,16.239,0,0,0,35.995,20.368a1.974,1.974,0,0,1,.771-1.735,19.892,19.892,0,0,0,1.947-2.026l-.133-.118-2.6.694a7.511,7.511,0,0,0,2-2.975c-.993.375-1.837.7-2.683,1.012a1.272,1.272,0,0,1-1.393-.279,5.42,5.42,0,0,0-5.834-.87,5.546,5.546,0,0,0-3.5,4.778,15.748,15.748,0,0,0-.01,1.806,16.457,16.457,0,0,1-11.693-5.971c-1.425,2.949-.762,5.384,1.367,7.654l-2.183-.6a6.345,6.345,0,0,0,4.088,5.713l-2.026.12a6.035,6.035,0,0,0,5.2,3.918,12.578,12.578,0,0,1-8,2.512"/>
  </g>
</svg>
