<?xml version="1.0" encoding="utf-8"?>
<!-- Generator: Adobe Illustrator 26.3.1, SVG Export Plug-In . SVG Version: 6.00 Build 0)  -->
<svg version="1.1" id="Layer_2_00000079470447358460917570000012339752475832288691_"
	 xmlns="http://www.w3.org/2000/svg" xmlns:xlink="http://www.w3.org/1999/xlink" x="0px" y="0px" viewBox="0 0 49.8 50"
	 style="enable-background:new 0 0 49.8 50;" xml:space="preserve">
<style type="text/css">
	.st0{clip-path:url(#SVGID_00000141415101028242316150000017321850128525808826_);}
	.st1{fill:#FBFCFE;}
</style>
<g id="Layer_1-2">
	<g id="Group_82" transform="translate(112)">
		<g>
			<defs>
				<rect id="SVGID_1_" x="-112" width="49.8" height="50"/>
			</defs>
			<clipPath id="SVGID_00000159471920074380404480000010214516869363757978_">
				<use xlink:href="#SVGID_1_"  style="overflow:visible;"/>
			</clipPath>
			<g style="clip-path:url(#SVGID_00000159471920074380404480000010214516869363757978_);">
				<g id="Group_81">
					<path id="Path_71" class="st1" d="M-89.2,0h4.3c0.7,0.1,1.3,0.2,2,0.4c11.3,1.9,19.7,11.1,20.7,22.9
						c0.8,11.1-5.9,21.4-16.4,25.2c-2.1,0.6-4.2,1.1-6.3,1.5h-4.3c-0.2-0.1-0.4-0.1-0.7-0.2c-10.1-1.1-18.5-8.3-21.2-18.1
						c-0.4-1.5-0.6-3-0.9-4.6v-4.3c0.1-0.3,0.1-0.6,0.2-0.9c1.5-10.1,7.1-17,16.6-20.6C-93.2,0.8-91.2,0.3-89.2,0 M-100.7,34
						c0.3,0.2,0.5,0.3,0.8,0.5c7.9,4.2,17.8,1.2,22-6.7c1.2-2.3,1.9-4.8,1.9-7.4c-0.1-0.7,0.2-1.3,0.8-1.7c0.7-0.6,1.3-1.3,1.9-2
						l-0.1-0.1l-2.6,0.7c0.9-0.8,1.6-1.8,2-3c-1,0.4-1.8,0.7-2.7,1c-0.5,0.2-1,0.1-1.4-0.3c-1.6-1.4-3.9-1.8-5.8-0.9
						c-2,0.8-3.3,2.6-3.5,4.8c0,0.6,0,1.2,0,1.8c-4.6-0.3-8.8-2.4-11.7-6c-1.4,3-0.8,5.4,1.4,7.6l-2.2-0.6c0.1,2.5,1.7,4.8,4.1,5.7
						l-2,0.1c0.8,2.2,2.9,3.7,5.2,3.9C-95,33.2-97.8,34.1-100.7,34"/>
				</g>
			</g>
		</g>
	</g>
</g>
</svg>
