<svg id="Component_2_3" data-name="Component 2 – 3" xmlns="http://www.w3.org/2000/svg" width="33.6" height="33.74" viewBox="0 0 33.6 33.74">
  <path id="Path_852" data-name="Path 852" d="M0,33.74c.423-1.551.834-3.05,1.243-4.548.349-1.274.7-2.547,1.036-3.826a.776.776,0,0,0-.063-.52A16.708,16.708,0,0,1,7.5,2.895,15.781,15.781,0,0,1,18.95.177C25.9,1.2,30.542,5.136,32.794,11.757A16.724,16.724,0,0,1,18.971,33.334a16.405,16.405,0,0,1-9.736-1.708,1.025,1.025,0,0,0-.8-.089Q4.391,32.617.335,33.675c-.089.024-.18.036-.335.065m4.012-3.964c.108-.024.163-.034.217-.048,1.516-.4,3.033-.785,4.545-1.2a1.093,1.093,0,0,1,.917.119,13.487,13.487,0,0,0,12.663.837A13.893,13.893,0,0,0,17.53,2.854a13.6,13.6,0,0,0-9.418,3.1,13.552,13.552,0,0,0-5.128,10.01,13.529,13.529,0,0,0,2.231,8.369.754.754,0,0,1,.1.681c-.441,1.565-.862,3.134-1.3,4.758" transform="translate(0 0)" fill="#101010"/>
  <text id="B" transform="translate(10.577 22.024)" fill="#101010" font-size="15" font-family="Montserrat-Bold, Montserrat" font-weight="700"><tspan x="0" y="0">B</tspan></text>
</svg>
