<?xml version="1.0" encoding="utf-8"?>
<!-- Generator: Adobe Illustrator 26.3.1, SVG Export Plug-In . SVG Version: 6.00 Build 0)  -->
<svg version="1.1" id="Layer_2_00000047772673045374175100000014045601582868331160_"
	 xmlns="http://www.w3.org/2000/svg" xmlns:xlink="http://www.w3.org/1999/xlink" x="0px" y="0px" viewBox="0 0 33.3 33.5"
	 style="enable-background:new 0 0 33.3 33.5;" xml:space="preserve">
<style type="text/css">
	.st0{fill:#fff;}
</style>
<g>
	<path class="st0" d="M32.6,11.7C30.3,5.1,25.7,1.2,18.8,0.2c-4-0.6-8.1,0.4-11.4,2.7C0.3,7.7-2,17.2,2.2,24.7
		c0.1,0.2,0.1,0.4,0.1,0.5c-0.3,1.3-0.7,2.5-1,3.8c-0.4,1.5-0.8,3-1.2,4.5h0c0.1,0,0.2,0,0.3-0.1C3,32.8,5.7,32,8.4,31.3
		c0.3-0.1,0.5,0,0.8,0.1c3,1.5,6.3,2.1,9.7,1.7c1-0.1,1.9-0.3,2.8-0.6C30.5,29.8,35.3,20.4,32.6,11.7z M22.2,29.3
		c-4.1,1.8-8.8,1.5-12.6-0.8c-0.3-0.2-0.6-0.2-0.9-0.1c-1.5,0.4-3,0.8-4.5,1.2c-0.1,0-0.1,0-0.2,0c0.4-1.6,0.9-3.2,1.3-4.7
		c0.1-0.2,0-0.5-0.1-0.7c-1.6-2.5-2.4-5.4-2.2-8.3c0.2-3.9,2-7.5,5.1-10c2.6-2.2,6-3.3,9.4-3.1c5.3,0.2,9.9,3.5,12,8.3
		C32.5,18.2,29.2,26.3,22.2,29.3z"/>
	<path class="st0" d="M22.2,17.4c-0.4-0.5-0.9-0.8-1.5-1c0.5-0.2,0.8-0.6,1.1-1c0.3-0.4,0.4-0.9,0.4-1.5c0-0.9-0.4-1.6-1.1-2.1
		S19.3,11,18,11h-5.5v11.2h5.8c1.5,0,2.6-0.3,3.3-0.8c0.8-0.5,1.1-1.3,1.1-2.3C22.8,18.5,22.6,17.9,22.2,17.4L22.2,17.4z M15.1,13
		h2.6c0.6,0,1.1,0.1,1.5,0.3c0.3,0.2,0.5,0.5,0.5,1s-0.2,0.8-0.5,1c-0.3,0.2-0.8,0.3-1.5,0.3h-2.6V13z M19.6,20
		c-0.3,0.2-0.9,0.3-1.5,0.3h-3v-2.8h3c1.4,0,2.1,0.5,2.1,1.4C20.2,19.4,20,19.7,19.6,20z"/>
</g>
</svg>
