<svg id="Component_4_1" data-name="Component 4 – 1" xmlns="http://www.w3.org/2000/svg" xmlns:xlink="http://www.w3.org/1999/xlink" width="40" height="40" viewBox="0 0 40 40">
  <defs>
    <clipPath id="clip-path">
      <rect id="Rectangle_11" data-name="Rectangle 11" width="40" height="40" fill="none"/>
    </clipPath>
  </defs>
  <g id="Group_11" data-name="Group 11" clip-path="url(#clip-path)">
    <path id="Path_20" data-name="Path 20" d="M38.428,12.215A20.062,20.062,0,1,0,40,20a19.933,19.933,0,0,0-1.572-7.785M36.652,27.034A18.134,18.134,0,1,1,38.072,20a18.013,18.013,0,0,1-1.42,7.034" fill="#231f20"/>
    <path id="Path_21" data-name="Path 21" d="M222.154,353.165a2.968,2.968,0,0,1-3.57,0l-7.982-5.322c-.016-.01-.033-.018-.068-.037a1.435,1.435,0,0,0-.015.147q0,4.309,0,8.619a1.812,1.812,0,0,0,1.8,1.847c.064,0,.128,0,.192,0h15.718a1.823,1.823,0,0,0,1.972-1.54c0-.011.014-.021.021-.031V347.8c-.311.2-.623.4-.932.606l-7.135,4.755" transform="translate(-200.368 -331.037)" fill="#231f20"/>
    <path id="Path_22" data-name="Path 22" d="M228.325,261.753H212.452c-.058,0-.115,0-.173,0a1.815,1.815,0,0,0-1.673,1.332,1.712,1.712,0,0,0,.706,1.921q4.028,2.692,8.063,5.373a1.72,1.72,0,0,0,2.024,0q4.03-2.671,8.043-5.368a2.309,2.309,0,0,0,.569-.611,2.612,2.612,0,0,0,.228-.583v-.5c-.032-.11-.06-.22-.1-.328a1.825,1.825,0,0,0-1.82-1.242" transform="translate(-200.389 -249.134)" fill="#231f20"/>
  </g>
</svg>
