<?xml version="1.0" encoding="UTF-8"?><svg id="b" xmlns="http://www.w3.org/2000/svg" viewBox="0 0 134.93 134.2"><defs><style>.d{fill:#fff;}</style></defs><g id="c"><g><path class="d" d="M43.08,71.16c-2.89-.04-5.78-.08-8.66-.13-11.1-.24-22.2-.61-33.29-1.36-.67-.05-1.17-.62-1.13-1.28,.05-.61,.53-1.09,1.13-1.13,11.1-.75,22.19-1.12,33.29-1.35,2.51-.05,5.04-.1,7.6-.14,.24,1.93,.59,3.72,1.06,5.4Z"/><path class="d" d="M134.92,68.14c-.02,.34-.3,.6-.63,.63-13.92,.96-42.2,2.68-42.2,2.68l.3-5.83s5.96,0,8.79,.08c11.1,.33,22.01,.88,33.1,1.71,.38,.03,.66,.36,.63,.73Z"/><path class="d" d="M61.65,57.77h2.28v2.53c-.75-.83-1.51-1.67-2.28-2.53Z"/><path class="d" d="M71.06,34.15c-1.7-.15-3.41-.15-5.11,0,.24-11,.6-22.02,1.35-33.02,.04-.67,.62-1.17,1.28-1.12,.61,.04,1.08,.52,1.12,1.12,.75,11.01,1.12,22.02,1.35,33.02Z"/><path class="d" d="M72.53,54.73c-.77-1.43-2.28-2.41-4.03-2.41-1.13,0-2.16,.41-2.96,1.09-.99,.83-1.61,2.08-1.62,3.47v.89h.02l-.03,5.69-.07,2.56h.09c0,1.67,.02,3.35,.03,5.04v.26c.02,2.88,.05,5.77,.11,8.64,.05,3.21,.13,6.4,.22,9.54,.11,3.64,.26,7.2,.44,10.64,.69,12.62,1.83,21,2.69,33.43,.03,.34,.29,.6,.63,.63,.38,.03,.71-.26,.73-.63,.83-11.1,2.38-23.29,2.7-34.38,.08-2.73,.19-5.86,.31-9.21,.11-2.91,.23-5.99,.35-9.1,.13-3.21,.26-6.44,.38-9.6,.02-.49,.04-.98,.05-1.47,.06-1.41,.11-2.8,.17-4.15,0-.11,0-.24,.01-.35,.04-1,.07-1.99,.11-2.94l-.03,.03,.07-1.53,.02,.02c.04-1.08,.08-2.12,.11-3.12,0-.24,.02-.48,.03-.72,.03-.84-.17-1.64-.54-2.33Z"/><path class="d" d="M111.28,20.46c-.44-.5-1.2-.56-1.71-.11-7.71,6.74-15.22,13.48-22.62,20.51-2.61-2.58-5.89-4.4-9.74-5.54-2.01-.6-4.07-.99-6.15-1.16-1.7-.15-3.41-.15-5.11,0-2,.16-3.99,.52-5.93,1.08-3.4,.97-6.3,2.43-8.74,4.35-7.33-6.66-15.63-13.17-22.94-19.56-.5-.44-1.26-.38-1.7,.11-.4,.46-.4,1.14,0,1.59,6.38,7.3,14.16,14.32,21.14,21.31-3.78,4.71-5.76,11.18-6.05,19.29,.06,1.19,.16,2.34,.3,3.44,.24,1.93,.59,3.72,1.06,5.4,.94,3.41,2.34,6.3,4.14,8.72-6.67,6.94-13.51,14.41-21.4,23.47-.22,.25-.22,.63,0,.89,.25,.29,.68,.32,.96,.07,8.43-7.26,13.81-11.09,21.88-18.71,.71-.67,1.41-1.33,2.1-1.99,3.6,3.02,8.18,4.91,13.54,5.87,1.28,.24,2.61,.41,3.98,.54,1.19,.05,2.37,.03,3.52-.05,5.94-.38,11.41-2.3,15.4-5.28,.51,.48,1.03,.97,1.55,1.47,8.08,7.62,12.51,11.45,20.95,18.71,.28,.24,.71,.22,.96-.07,.22-.26,.22-.64,0-.89-7.68-8.82-13.67-16.22-19.56-23.13l.1-.14c1.67-2.37,3.12-6.19,.83-7.98-.95-.74-2.08-1.1-3.21-1.1-1.49,0-2.96,.62-4.01,1.83-.03,.03-.07,.07-.1,.11-1.55,1.75-3.08,3.13-4.61,4.2-1.62,1.14-3.24,1.93-4.89,2.47-1,.34-2.03,.57-3.07,.71-2.39,.33-4.85,.13-7.16-.61-.32-.1-.62-.21-.91-.32-2.24-.88-4.01-2.19-5.34-3.88-1.08-1.35-1.89-2.96-2.45-4.78-.05-.17-.1-.34-.15-.51-.44-1.56-.71-3.28-.81-5.13,0-.11-.01-.22-.02-.33h31.47c3.96,0,7.18-3.22,7.18-7.19-.44-5.42-1.77-9.82-3.89-13.3,7.2-7.51,14.33-14.91,21.2-22.77,.39-.44,.4-1.13,0-1.59ZM55.48,57.77c0-2.07,.26-4.02,.83-5.8,.59-1.87,1.5-3.56,2.75-4.96,.89-1,1.94-1.87,3.17-2.57,3.8-2.16,9.18-1.85,12.89,.44,1.49,.92,2.65,2.21,3.53,3.93,.82,1.58,1.41,3.53,1.83,5.89,.16,.95,.3,1.97,.42,3.06h-25.42Z"/></g></g></svg>