<svg id="Group_86" data-name="Group 86" xmlns="http://www.w3.org/2000/svg" xmlns:xlink="http://www.w3.org/1999/xlink" width="28.404" height="28.395" viewBox="0 0 28.404 28.395">
  <defs>
    <clipPath id="clip-path">
      <rect id="Rectangle_71" data-name="Rectangle 71" width="28.404" height="28.395"/>
    </clipPath>
  </defs>
  <g id="Group_85" data-name="Group 85" clip-path="url(#clip-path)">
    <path id="Path_75" data-name="Path 75" d="M13.369,0h1.72A1.582,1.582,0,0,0,15.3.045a13.543,13.543,0,0,1,5.977,1.846,13.99,13.99,0,0,1,6.906,9.84c.1.514.146,1.038.218,1.557V15c-.072.537-.124,1.077-.22,1.61a13.618,13.618,0,0,1-5.043,8.553,13.61,13.61,0,0,1-13.51,2.388A13.734,13.734,0,0,1,.224,16.643C.117,16.122.073,15.588,0,15.06V13.288c.072-.519.129-1.04.217-1.556A14.165,14.165,0,0,1,11.426.279C12.068.156,12.721.092,13.369,0m2.219,12.068c0-.576,0-1.111,0-1.645s.227-.776.771-.8c.5-.019,1-.028,1.5-.032.251,0,.385-.112.386-.363,0-.71,0-1.421-.005-2.131a.348.348,0,0,0-.4-.389c-.684,0-1.37-.023-2.052.015a3.249,3.249,0,0,0-3.277,2.781,15.966,15.966,0,0,0-.092,2.206c0,.116,0,.232,0,.362-.643,0-1.244,0-1.844,0-.238,0-.408.088-.411.343-.008.793-.007,1.587,0,2.38a.312.312,0,0,0,.355.334l1.331,0h.569V15.5q0,2.782,0,5.564c0,.507.059.565.577.566q.985,0,1.969,0c.544,0,.608-.065.609-.6q0-2.782,0-5.564c0-.106.009-.213.015-.339.722,0,1.414,0,2.106,0,.379,0,.449-.075.45-.459q0-1.052,0-2.1c0-.422-.074-.492-.505-.493-.673,0-1.346,0-2.052,0" transform="translate(0.001)"/>
  </g>
</svg>
