<?xml version="1.0" encoding="UTF-8"?><svg id="Layer_2" xmlns="http://www.w3.org/2000/svg" xmlns:xlink="http://www.w3.org/1999/xlink" viewBox="0 0 50.02 50"><defs><style>.cls-1{clip-path:url(#clippath);}.cls-2{fill:none;}.cls-3{fill:#fbfcfe;}</style><clipPath id="clippath"><rect class="cls-2" width="50.02" height="50"/></clipPath></defs><g id="Layer_1-2"><g id="Group_86"><g class="cls-1"><g id="Group_85"><path id="Path_75" class="cls-3" d="M23.54,0h3.03c.12,.04,.25,.06,.38,.08,3.71,.25,7.32,1.36,10.52,3.25,6.46,3.65,10.92,10.02,12.16,17.33,.17,.91,.26,1.83,.38,2.74v3.02c-.13,.94-.22,1.9-.39,2.84-.96,5.96-4.13,11.34-8.88,15.06-7.13,5.62-15.19,7.17-23.79,4.21C7.8,45.37,2.34,38.78,.4,29.31c-.19-.92-.27-1.86-.4-2.79v-3.12c.13-.91,.23-1.83,.38-2.74C2.16,10.5,10.01,2.49,20.12,.49c1.13-.22,2.28-.33,3.42-.49m3.91,21.25c0-1.01,0-1.96,0-2.9,0-.96,.4-1.37,1.36-1.4,.88-.03,1.76-.05,2.64-.06,.44,0,.68-.2,.68-.64,0-1.25,0-2.5,0-3.75,.04-.34-.19-.64-.53-.69-.06,0-.11,0-.17,0-1.2,0-2.41-.04-3.61,.03-3.12,.17-5.25,1.93-5.77,4.9-.14,1.29-.2,2.59-.16,3.89,0,.2,0,.41,0,.64h-3.25c-.42,0-.72,.15-.72,.6-.01,1.4-.01,2.79,0,4.19-.03,.3,.2,.57,.5,.59,.04,0,.08,0,.12,0h3.34v10.44c0,.89,.1,1,1.01,1h3.47c.96,0,1.07-.12,1.07-1.06v-9.8c0-.19,.02-.38,.03-.6h3.71c.67,0,.79-.13,.79-.81,0-1.23,0-2.47,0-3.7,0-.74-.13-.87-.89-.87h-3.61"/></g></g></g></g></svg>