<svg xmlns="http://www.w3.org/2000/svg" width="40" height="40" viewBox="0 0 40 40" >
  <g id="Component_7_1" data-name="Component 7 – 1" transform="translate(0.5 0.5)">
    <path id="Union_1" data-name="Union 1" d="M0,19.5A19.5,19.5,0,1,1,19.5,39,19.5,19.5,0,0,1,0,19.5Zm9.4-4.77v9.539A5.327,5.327,0,0,0,14.73,29.6h9.539A5.327,5.327,0,0,0,29.6,24.269V14.73A5.327,5.327,0,0,0,24.269,9.4H14.73A5.327,5.327,0,0,0,9.4,14.73Zm5.069,4.757A5.031,5.031,0,1,1,19.5,24.519,5.031,5.031,0,0,1,14.473,19.488Zm9.481-5.613a.591.591,0,1,1,.59.591A.591.591,0,0,1,23.954,13.874Z" fill="#231f20" stroke="rgba(0,0,0,0)" stroke-miterlimit="10" stroke-width="1" style="fill:#fff;"/>
  </g>
</svg>
