<svg id="Group_84" data-name="Group 84" xmlns="http://www.w3.org/2000/svg" xmlns:xlink="http://www.w3.org/1999/xlink" width="28.512" height="28.395" viewBox="0 0 28.512 28.395">
  <defs>
    <clipPath id="clip-path">
      <rect id="Rectangle_70" data-name="Rectangle 70" width="28.512" height="28.395"/>
    </clipPath>
  </defs>
  <g id="Group_83" data-name="Group 83" clip-path="url(#clip-path)">
    <path id="Path_72" data-name="Path 72" d="M14.3,0A14.2,14.2,0,1,0,28.512,14.192,14.213,14.213,0,0,0,14.3,0m7.829,17.62a4.643,4.643,0,0,1-4.412,4.414c-2.3.1-4.606.1-6.9,0a4.66,4.66,0,0,1-4.425-4.471c-.08-2.249-.081-4.5,0-6.753a4.713,4.713,0,0,1,4.448-4.457c1.137-.064,2.281-.011,3.421-.011v0c1.12,0,2.242-.05,3.358.01a4.7,4.7,0,0,1,4.514,4.456c.094,2.268.093,4.547,0,6.815" transform="translate(0 0)"/>
    <path id="Path_73" data-name="Path 73" d="M104.785,95.348c-1.9-.018-3.8-.015-5.7,0a3.126,3.126,0,0,0-3.331,3.321c-.013.925,0,1.85,0,2.775,0,.967-.015,1.934,0,2.9a3.119,3.119,0,0,0,3.258,3.271q2.911.041,5.824,0a3.108,3.108,0,0,0,3.236-3.229q.045-2.9,0-5.8a3.111,3.111,0,0,0-3.291-3.235m-2.863,10.163a4.035,4.035,0,1,1,4.043-4.013,4.067,4.067,0,0,1-4.043,4.013m4.206-7.64c-.412-.023-.7-.3-.617-.7.059-.274.359-.5.552-.743l.3.016c.162.267.432.523.459.8.039.4-.282.645-.693.621" transform="translate(-87.657 -87.278)"/>
    <path id="Path_74" data-name="Path 74" d="M142.216,139.176a2.436,2.436,0,1,0,2.474,2.407,2.407,2.407,0,0,0-2.474-2.407" transform="translate(-127.986 -127.414)"/>
  </g>
</svg>
