<svg xmlns="http://www.w3.org/2000/svg" width="40" height="40" viewBox="0 0 40 40">
  <g id="Component_6_1" data-name="Component 6 – 1" transform="translate(0.5 0.5)">
    <path id="Subtraction_4" data-name="Subtraction 4" d="M19.5,39A19.5,19.5,0,0,1,11.91,1.533,19.5,19.5,0,0,1,27.09,37.467,19.373,19.373,0,0,1,19.5,39ZM9.752,16.133V29.6h4.154V16.133Zm6.806,0V29.588h4.176v-.312q0-.8,0-1.6v-.043c0-1.522,0-3.1.005-4.665a10.218,10.218,0,0,1,.1-1.4,2.146,2.146,0,0,1,2-2.087,3.718,3.718,0,0,1,.437-.027,1.866,1.866,0,0,1,2,1.725A8.607,8.607,0,0,1,25.4,22.67c.011,1.643.01,3.3.009,4.9v1.981h4.18c0-.022,0-.041,0-.058v-.012c0-.021,0-.044,0-.066q0-.445,0-.89V27.414c0-1.9,0-3.857-.013-5.786a9.793,9.793,0,0,0-.373-2.775,3.869,3.869,0,0,0-2.04-2.555,5.6,5.6,0,0,0-2.454-.5l-.208,0a4.333,4.333,0,0,0-3.866,2.1c-.006.01-.018.015-.041.024l-.01,0-.005,0-.037.018V16.129ZM11.806,9.4a2.429,2.429,0,0,0-1.687,4.153,2.4,2.4,0,0,0,1.71.72h.016a2.389,2.389,0,0,0,1.7-.731A2.434,2.434,0,0,0,11.832,9.4Z" fill="#231f20" stroke="rgba(0,0,0,0)" stroke-miterlimit="10" stroke-width="1"/>
  </g>
</svg>
