<svg id="Component_1_1" data-name="Component 1 – 1" xmlns="http://www.w3.org/2000/svg" xmlns:xlink="http://www.w3.org/1999/xlink" width="172.6" height="172.6" viewBox="0 0 172.6 172.6">
  <defs>
    <clipPath id="clip-path">
      <rect id="Rectangle_193" data-name="Rectangle 193" width="172.6" height="172.6" fill="#101010"/>
    </clipPath>
  </defs>
  <g id="Group_240" data-name="Group 240" clip-path="url(#clip-path)">
    <path id="Path_970" data-name="Path 970" d="M45.7,12.741A32.964,32.964,0,1,0,78.669,45.7,33,33,0,0,0,45.7,12.741m0,63.659A30.7,30.7,0,1,1,76.4,45.7,30.728,30.728,0,0,1,45.7,76.4" transform="translate(40.595 40.596)" fill="#101010"/>
    <path id="Path_971" data-name="Path 971" d="M32.731,17.018v0l-.042,0-.017,0v0a15.03,15.03,0,0,0-10.6,4.412A15.066,15.066,0,0,0,32.731,47.159V36.517a9.75,9.75,0,0,0,0-19.5m-.013,17.218v-.013a2.148,2.148,0,0,1,0-4.3V27.647a4.429,4.429,0,0,0-2.315,8.2v8.816A12.793,12.793,0,0,1,32.7,19.3a7.47,7.47,0,0,1,.021,14.94" transform="translate(56.258 54.211)" fill="#101010"/>
    <path id="Path_972" data-name="Path 972" d="M2.037,26.425A1.836,1.836,0,0,0,2,30.1a1.836,1.836,0,0,0,.033-3.671" transform="translate(0.605 84.195)" fill="#101010"/>
    <path id="Path_973" data-name="Path 973" d="M2,33.849a1.839,1.839,0,0,0,.046-3.675A1.838,1.838,0,0,0,2,33.849" transform="translate(0.608 96.137)" fill="#101010"/>
    <path id="Path_974" data-name="Path 974" d="M3.807,29.565a1.779,1.779,0,0,0-1.8-1.884A1.811,1.811,0,0,0,1.944,31.3a1.8,1.8,0,0,0,1.863-1.737" transform="translate(0.605 88.198)" fill="#101010"/>
    <path id="Path_975" data-name="Path 975" d="M1.957,32.561a1.79,1.79,0,0,0,1.85-1.75,1.809,1.809,0,1,0-3.617-.08,1.784,1.784,0,0,0,1.767,1.829" transform="translate(0.605 92.168)" fill="#101010"/>
    <path id="Path_976" data-name="Path 976" d="M2.02,21.345a1.834,1.834,0,0,0,0-3.667,1.834,1.834,0,0,0,0,3.667" transform="translate(0.605 56.326)" fill="#101010"/>
    <path id="Path_977" data-name="Path 977" d="M4.467,27.551a1.811,1.811,0,1,0-1.783-1.842,1.849,1.849,0,0,0,1.783,1.842" transform="translate(8.548 76.254)" fill="#101010"/>
    <path id="Path_978" data-name="Path 978" d="M2,27.55a1.809,1.809,0,0,0,.038-3.617A1.809,1.809,0,1,0,2,27.55" transform="translate(0.605 76.256)" fill="#101010"/>
    <path id="Path_979" data-name="Path 979" d="M3.314,25.178a1.861,1.861,0,0,0-1.88,1.842,1.827,1.827,0,1,0,1.88-1.842" transform="translate(4.569 80.219)" fill="#101010"/>
    <path id="Path_980" data-name="Path 980" d="M4.484,11.435A1.817,1.817,0,0,0,4.5,15.069a1.861,1.861,0,0,0,1.846-1.875,1.83,1.83,0,0,0-1.863-1.758" transform="translate(8.552 36.435)" fill="#101010"/>
    <path id="Path_981" data-name="Path 981" d="M2.016,22.585a1.828,1.828,0,0,0,.008-3.655,1.827,1.827,0,1,0-.008,3.655" transform="translate(0.605 60.315)" fill="#101010"/>
    <path id="Path_982" data-name="Path 982" d="M4.438,13.931A1.837,1.837,0,0,0,4.555,17.6a1.837,1.837,0,1,0-.117-3.671" transform="translate(8.548 44.38)" fill="#101010"/>
    <path id="Path_983" data-name="Path 983" d="M3.257,21.428a1.83,1.83,0,1,0,.05,3.659,1.83,1.83,0,0,0-.05-3.659" transform="translate(4.571 68.275)" fill="#101010"/>
    <path id="Path_984" data-name="Path 984" d="M4.517,25.087a1.83,1.83,0,0,0,.046-3.659,1.83,1.83,0,1,0-.046,3.659" transform="translate(8.548 68.274)" fill="#101010"/>
    <path id="Path_985" data-name="Path 985" d="M4.578,18.828A1.823,1.823,0,0,0,4.5,15.182a1.824,1.824,0,1,0,.075,3.646" transform="translate(8.545 48.374)" fill="#101010"/>
    <path id="Path_986" data-name="Path 986" d="M3.318,26.344a1.834,1.834,0,0,0-.067-3.667,1.834,1.834,0,1,0,.067,3.667" transform="translate(4.569 72.254)" fill="#101010"/>
    <path id="Path_987" data-name="Path 987" d="M2.024,16.305a1.811,1.811,0,0,0,0-3.621,1.811,1.811,0,1,0,0,3.621" transform="translate(0.605 40.415)" fill="#101010"/>
    <path id="Path_988" data-name="Path 988" d="M2.024,25.083A1.827,1.827,0,1,0,.19,23.3a1.819,1.819,0,0,0,1.834,1.779" transform="translate(0.605 68.274)" fill="#101010"/>
    <path id="Path_989" data-name="Path 989" d="M3.31,17.679a1.834,1.834,0,1,0-.046,3.667,1.834,1.834,0,0,0,.046-3.667" transform="translate(4.569 56.326)" fill="#101010"/>
    <path id="Path_990" data-name="Path 990" d="M1.437,31.925a1.877,1.877,0,0,0,1.808,1.921,1.836,1.836,0,0,0,.08-3.671,1.875,1.875,0,0,0-1.888,1.75" transform="translate(4.571 96.14)" fill="#101010"/>
    <path id="Path_991" data-name="Path 991" d="M5.085,25.827a1.826,1.826,0,1,0-3.65-.13,1.827,1.827,0,0,0,3.65.13" transform="translate(4.569 76.254)" fill="#101010"/>
    <path id="Path_992" data-name="Path 992" d="M3.808,13.278a1.787,1.787,0,0,0-1.758-1.842,1.815,1.815,0,1,0-.059,3.629,1.8,1.8,0,0,0,1.817-1.787" transform="translate(0.605 36.438)" fill="#101010"/>
    <path id="Path_993" data-name="Path 993" d="M13.856,25.763a1.838,1.838,0,1,0-1.838,1.787,1.84,1.84,0,0,0,1.838-1.787" transform="translate(32.431 76.256)" fill="#101010"/>
    <path id="Path_994" data-name="Path 994" d="M12.039,28.823a1.823,1.823,0,1,0-1.859-1.775,1.86,1.86,0,0,0,1.859,1.775" transform="translate(32.435 80.219)" fill="#101010"/>
    <path id="Path_995" data-name="Path 995" d="M11.931,23.8a1.81,1.81,0,1,0-1.75-1.871,1.842,1.842,0,0,0,1.75,1.871" transform="translate(32.434 64.307)" fill="#101010"/>
    <path id="Path_996" data-name="Path 996" d="M12.048,21.428a1.828,1.828,0,1,0,1.808,1.838,1.879,1.879,0,0,0-1.808-1.838" transform="translate(32.434 68.274)" fill="#101010"/>
    <path id="Path_997" data-name="Path 997" d="M12.026,17.678A1.834,1.834,0,1,0,13.856,19.5a1.892,1.892,0,0,0-1.829-1.821" transform="translate(32.435 56.326)" fill="#101010"/>
    <path id="Path_998" data-name="Path 998" d="M12.025,16.309a1.813,1.813,0,1,0,.029-3.625,1.864,1.864,0,0,0-1.875,1.846,1.844,1.844,0,0,0,1.846,1.779" transform="translate(32.432 40.414)" fill="#101010"/>
    <path id="Path_999" data-name="Path 999" d="M13.214,30.1a1.836,1.836,0,1,0-1.779-1.85,1.862,1.862,0,0,0,1.779,1.85" transform="translate(36.434 84.196)" fill="#101010"/>
    <path id="Path_1000" data-name="Path 1000" d="M10.18,17.021a1.838,1.838,0,0,0,3.675,0,1.838,1.838,0,1,0-3.675,0" transform="translate(32.435 48.376)" fill="#101010"/>
    <path id="Path_1001" data-name="Path 1001" d="M13.855,10.73a1.838,1.838,0,0,0-3.675,0,1.838,1.838,0,0,0,3.675,0" transform="translate(32.432 28.467)" fill="#101010"/>
    <path id="Path_1002" data-name="Path 1002" d="M10.777,16.306a1.811,1.811,0,0,0-.008-3.621,1.811,1.811,0,0,0-1.834,1.863,1.793,1.793,0,0,0,1.842,1.758" transform="translate(28.468 40.418)" fill="#101010"/>
    <path id="Path_1003" data-name="Path 1003" d="M8.936,16.925a1.843,1.843,0,0,0,1.8,1.9,1.823,1.823,0,1,0-1.8-1.9" transform="translate(28.467 48.376)" fill="#101010"/>
    <path id="Path_1004" data-name="Path 1004" d="M13.273,15.066a1.831,1.831,0,0,0,1.8-1.821,1.817,1.817,0,1,0-1.8,1.821" transform="translate(36.434 36.438)" fill="#101010"/>
    <path id="Path_1005" data-name="Path 1005" d="M18.3,32.495A18.283,18.283,0,1,0,36.566,50.751,18.282,18.282,0,0,0,18.3,32.495m.008,31.354a13.082,13.082,0,1,1,13.065-13.1,13.053,13.053,0,0,1-13.065,13.1" transform="translate(0 103.536)" fill="#101010"/>
    <path id="Path_1006" data-name="Path 1006" d="M10.305,34.988A7.828,7.828,0,1,0,18.158,42.8a7.859,7.859,0,0,0-7.853-7.816" transform="translate(7.972 111.479)" fill="#101010"/>
    <path id="Path_1007" data-name="Path 1007" d="M12.005,7.687a1.813,1.813,0,1,0,1.85,1.779,1.841,1.841,0,0,0-1.85-1.779" transform="translate(32.435 24.493)" fill="#101010"/>
    <path id="Path_1008" data-name="Path 1008" d="M13.855,7.006A1.838,1.838,0,0,0,10.18,6.96a1.838,1.838,0,1,0,3.675.046" transform="translate(32.431 16.521)" fill="#101010"/>
    <path id="Path_1009" data-name="Path 1009" d="M12,3.81a1.854,1.854,0,0,0,1.859-1.859A1.839,1.839,0,0,0,10.18,2,1.844,1.844,0,0,0,12,3.81" transform="translate(32.435 0.603)" fill="#101010"/>
    <path id="Path_1010" data-name="Path 1010" d="M10.753,15.069a1.817,1.817,0,1,0-1.817-1.884,1.822,1.822,0,0,0,1.817,1.884" transform="translate(28.467 36.435)" fill="#101010"/>
    <path id="Path_1011" data-name="Path 1011" d="M12,6.352a1.9,1.9,0,0,0,1.854-1.8,1.838,1.838,0,1,0-3.675-.038A1.9,1.9,0,0,0,12,6.352" transform="translate(32.432 8.552)" fill="#101010"/>
    <path id="Path_1012" data-name="Path 1012" d="M10.793,20.054a1.811,1.811,0,0,0-.038-3.621,1.811,1.811,0,1,0,.038,3.621" transform="translate(28.464 52.36)" fill="#101010"/>
    <path id="Path_1013" data-name="Path 1013" d="M8.29,27.681a1.812,1.812,0,1,0,1.817,1.808A1.842,1.842,0,0,0,8.29,27.681" transform="translate(20.49 88.198)" fill="#101010"/>
    <path id="Path_1014" data-name="Path 1014" d="M8.256,23.8A1.811,1.811,0,1,0,6.431,22a1.847,1.847,0,0,0,1.825,1.8" transform="translate(20.49 64.308)" fill="#101010"/>
    <path id="Path_1015" data-name="Path 1015" d="M8.251,25.087A1.829,1.829,0,1,0,6.43,23.262a1.87,1.87,0,0,0,1.821,1.825" transform="translate(20.487 68.274)" fill="#101010"/>
    <path id="Path_1016" data-name="Path 1016" d="M8.265,32.562a1.845,1.845,0,0,0,1.842-1.787,1.838,1.838,0,1,0-1.842,1.787" transform="translate(20.49 92.17)" fill="#101010"/>
    <path id="Path_1017" data-name="Path 1017" d="M9.459,31.3a1.811,1.811,0,0,0,1.854-1.842A1.813,1.813,0,1,0,9.459,31.3" transform="translate(24.495 88.198)" fill="#101010"/>
    <path id="Path_1018" data-name="Path 1018" d="M9.5,33.849a1.839,1.839,0,1,0-1.817-1.808A1.859,1.859,0,0,0,9.5,33.849" transform="translate(24.492 96.137)" fill="#101010"/>
    <path id="Path_1019" data-name="Path 1019" d="M10.1,12.048a1.9,1.9,0,0,0-1.783-1.867,1.838,1.838,0,1,0-.063,3.675A1.908,1.908,0,0,0,10.1,12.048" transform="translate(20.492 32.436)" fill="#101010"/>
    <path id="Path_1020" data-name="Path 1020" d="M8.319,18.828a1.882,1.882,0,0,0,1.787-1.854,1.838,1.838,0,1,0-1.787,1.854" transform="translate(20.49 48.374)" fill="#101010"/>
    <path id="Path_1021" data-name="Path 1021" d="M8.227,16.309A1.828,1.828,0,0,0,10.1,14.564a1.837,1.837,0,1,0-1.875,1.746" transform="translate(20.49 40.415)" fill="#101010"/>
    <path id="Path_1022" data-name="Path 1022" d="M8.274,25.177A1.823,1.823,0,1,0,10.1,26.985a1.87,1.87,0,0,0-1.829-1.808" transform="translate(20.489 80.219)" fill="#101010"/>
    <path id="Path_1023" data-name="Path 1023" d="M8.3,16.434a1.811,1.811,0,1,0,1.8,1.821,1.848,1.848,0,0,0-1.8-1.821" transform="translate(20.49 52.363)" fill="#101010"/>
    <path id="Path_1024" data-name="Path 1024" d="M8.268,21.346a1.834,1.834,0,0,0,.05-3.667,1.834,1.834,0,1,0-.05,3.667" transform="translate(20.487 56.326)" fill="#101010"/>
    <path id="Path_1025" data-name="Path 1025" d="M18.344,0A18.283,18.283,0,1,0,36.566,18.323,18.329,18.329,0,0,0,18.344,0m-.05,31.375A13.082,13.082,0,1,1,31.376,18.3,13.044,13.044,0,0,1,18.294,31.376" transform="translate(0 0.001)" fill="#101010"/>
    <path id="Path_1026" data-name="Path 1026" d="M9.426,26.34a1.832,1.832,0,1,0,.1-3.663,1.833,1.833,0,0,0-.1,3.663" transform="translate(24.495 72.254)" fill="#101010"/>
    <path id="Path_1027" data-name="Path 1027" d="M10.367,2.5a7.83,7.83,0,1,0,7.795,7.866A7.836,7.836,0,0,0,10.367,2.5" transform="translate(7.969 7.973)" fill="#101010"/>
    <path id="Path_1028" data-name="Path 1028" d="M10.738,27.55a1.809,1.809,0,1,0-1.8-1.8,1.807,1.807,0,0,0,1.8,1.8" transform="translate(28.465 76.255)" fill="#101010"/>
    <path id="Path_1029" data-name="Path 1029" d="M10.755,21.345a1.834,1.834,0,0,0,.042-3.667,1.834,1.834,0,1,0-.042,3.667" transform="translate(28.465 56.326)" fill="#101010"/>
    <path id="Path_1030" data-name="Path 1030" d="M9.521,28.82A1.807,1.807,0,0,0,11.313,27a1.833,1.833,0,0,0-1.88-1.825,1.822,1.822,0,0,0,.088,3.642" transform="translate(24.492 80.219)" fill="#101010"/>
    <path id="Path_1031" data-name="Path 1031" d="M11.313,22a1.813,1.813,0,1,0-1.8,1.8,1.792,1.792,0,0,0,1.8-1.8" transform="translate(24.492 64.311)" fill="#101010"/>
    <path id="Path_1032" data-name="Path 1032" d="M9.476,21.345a1.834,1.834,0,1,0-1.787-1.834,1.847,1.847,0,0,0,1.787,1.834" transform="translate(24.495 56.326)" fill="#101010"/>
    <path id="Path_1033" data-name="Path 1033" d="M9.5,10.18a1.839,1.839,0,0,0-.059,3.675A1.838,1.838,0,0,0,9.5,10.18" transform="translate(24.495 32.436)" fill="#101010"/>
    <path id="Path_1034" data-name="Path 1034" d="M9.5,16.305a1.811,1.811,0,1,0-1.817-1.779A1.789,1.789,0,0,0,9.5,16.305" transform="translate(24.492 40.414)" fill="#101010"/>
    <path id="Path_1035" data-name="Path 1035" d="M9.459,15.183a1.821,1.821,0,0,0,.029,3.642,1.831,1.831,0,0,0,1.821-1.884,1.808,1.808,0,0,0-1.85-1.758" transform="translate(24.495 48.377)" fill="#101010"/>
    <path id="Path_1036" data-name="Path 1036" d="M4.518,33.849a1.838,1.838,0,0,0,.042-3.675,1.838,1.838,0,1,0-.042,3.675" transform="translate(8.547 96.137)" fill="#101010"/>
    <path id="Path_1037" data-name="Path 1037" d="M5.8,20.183A1.809,1.809,0,1,0,7.56,22.021,1.779,1.779,0,0,0,5.8,20.183" transform="translate(12.55 64.307)" fill="#101010"/>
    <path id="Path_1038" data-name="Path 1038" d="M5.7,18.826a1.828,1.828,0,0,0,1.863-1.842A1.811,1.811,0,1,0,5.7,18.826" transform="translate(12.547 48.38)" fill="#101010"/>
    <path id="Path_1039" data-name="Path 1039" d="M5.773,23.932a1.809,1.809,0,0,0-.1,3.617,1.809,1.809,0,1,0,.1-3.617" transform="translate(12.55 76.253)" fill="#101010"/>
    <path id="Path_1040" data-name="Path 1040" d="M5.764,22.677a1.835,1.835,0,0,0-.08,3.667,1.834,1.834,0,1,0,.08-3.667" transform="translate(12.55 72.254)" fill="#101010"/>
    <path id="Path_1041" data-name="Path 1041" d="M3.939,30.715a1.811,1.811,0,0,0,3.621.109,1.815,1.815,0,0,0-1.8-1.9,1.8,1.8,0,0,0-1.817,1.787" transform="translate(12.55 92.168)" fill="#101010"/>
    <path id="Path_1042" data-name="Path 1042" d="M5.764,15.069a1.817,1.817,0,1,0-.08-3.634,1.818,1.818,0,0,0,.08,3.634" transform="translate(12.55 36.434)" fill="#101010"/>
    <path id="Path_1043" data-name="Path 1043" d="M5.743,16.306a1.811,1.811,0,1,0-1.8-1.792,1.783,1.783,0,0,0,1.8,1.792" transform="translate(12.55 40.417)" fill="#101010"/>
    <path id="Path_1044" data-name="Path 1044" d="M4.507,32.562a1.838,1.838,0,0,0,1.846-1.775,1.857,1.857,0,0,0-1.859-1.859,1.817,1.817,0,1,0,.013,3.634" transform="translate(8.545 92.171)" fill="#101010"/>
    <path id="Path_1045" data-name="Path 1045" d="M6.353,29.456A1.836,1.836,0,1,0,4.486,31.3a1.835,1.835,0,0,0,1.867-1.846" transform="translate(8.545 88.198)" fill="#101010"/>
    <path id="Path_1046" data-name="Path 1046" d="M6.351,24.532A1.877,1.877,0,0,0,4.56,22.678a1.834,1.834,0,1,0-.042,3.667,1.892,1.892,0,0,0,1.834-1.813" transform="translate(8.547 72.253)" fill="#101010"/>
    <path id="Path_1047" data-name="Path 1047" d="M4.542,26.425a1.836,1.836,0,0,0-.1,3.671,1.836,1.836,0,1,0,.1-3.671" transform="translate(8.548 84.196)" fill="#101010"/>
    <path id="Path_1048" data-name="Path 1048" d="M7.093,31.3a1.812,1.812,0,1,0-1.909-1.8,1.829,1.829,0,0,0,1.909,1.8" transform="translate(16.517 88.197)" fill="#101010"/>
    <path id="Path_1049" data-name="Path 1049" d="M7.032,23.932a1.811,1.811,0,1,0,1.787,1.813,1.8,1.8,0,0,0-1.787-1.813" transform="translate(16.52 76.253)" fill="#101010"/>
    <path id="Path_1050" data-name="Path 1050" d="M7.06,17.6a1.836,1.836,0,0,0-.067-3.671A1.836,1.836,0,1,0,7.06,17.6" transform="translate(16.52 44.381)" fill="#101010"/>
    <path id="Path_1051" data-name="Path 1051" d="M7.076,21.342a1.832,1.832,0,0,0-.092-3.663,1.832,1.832,0,1,0,.092,3.663" transform="translate(16.517 56.329)" fill="#101010"/>
    <path id="Path_1052" data-name="Path 1052" d="M3.939,23.232a1.811,1.811,0,0,0,3.621.092,1.835,1.835,0,0,0-1.813-1.9,1.813,1.813,0,0,0-1.808,1.8" transform="translate(12.55 68.275)" fill="#101010"/>
    <path id="Path_1053" data-name="Path 1053" d="M7.006,28.824a1.823,1.823,0,0,0,.042-3.646,1.848,1.848,0,0,0-1.863,1.85,1.823,1.823,0,0,0,1.821,1.8" transform="translate(16.52 80.219)" fill="#101010"/>
    <path id="Path_1054" data-name="Path 1054" d="M7.04,33.849a1.838,1.838,0,0,0-.021-3.675,1.838,1.838,0,1,0,.021,3.675" transform="translate(16.52 96.138)" fill="#101010"/>
    <path id="Path_1055" data-name="Path 1055" d="M5.739,33.849a1.838,1.838,0,0,0-.025-3.675,1.838,1.838,0,0,0,.025,3.675" transform="translate(12.55 96.137)" fill="#101010"/>
    <path id="Path_1056" data-name="Path 1056" d="M8.82,13.277a1.818,1.818,0,0,0-3.634-.1A1.834,1.834,0,0,0,7,15.069,1.807,1.807,0,0,0,8.82,13.277" transform="translate(16.519 36.435)" fill="#101010"/>
    <path id="Path_1057" data-name="Path 1057" d="M5.743,17.678a1.834,1.834,0,1,0,1.813,1.9,1.825,1.825,0,0,0-1.813-1.9" transform="translate(12.55 56.326)" fill="#101010"/>
    <path id="Path_1058" data-name="Path 1058" d="M7.015,16.306a1.811,1.811,0,0,0,.029-3.621,1.811,1.811,0,1,0-.029,3.621" transform="translate(16.52 40.418)" fill="#101010"/>
    <path id="Path_1059" data-name="Path 1059" d="M28.248,10.107A1.908,1.908,0,0,0,30.1,8.3a1.837,1.837,0,0,0-3.671-.113,1.9,1.9,0,0,0,1.821,1.917" transform="translate(84.193 20.491)" fill="#101010"/>
    <path id="Path_1060" data-name="Path 1060" d="M28.321,15.069A1.868,1.868,0,0,0,30.1,13.21a1.836,1.836,0,1,0-1.775,1.859" transform="translate(84.195 36.435)" fill="#101010"/>
    <path id="Path_1061" data-name="Path 1061" d="M28.133,5.079a1.857,1.857,0,0,0,1.959-1.666,1.836,1.836,0,1,0-3.663-.26,1.857,1.857,0,0,0,1.7,1.926" transform="translate(84.194 4.572)" fill="#101010"/>
    <path id="Path_1062" data-name="Path 1062" d="M28.308,6.353A1.9,1.9,0,0,0,30.1,4.495a1.838,1.838,0,0,0-3.675,0,1.894,1.894,0,0,0,1.884,1.854" transform="translate(84.191 8.547)" fill="#101010"/>
    <path id="Path_1063" data-name="Path 1063" d="M30.1,6.963a1.835,1.835,0,1,0-3.667.13,1.835,1.835,0,0,0,3.667-.13" transform="translate(84.196 16.518)" fill="#101010"/>
    <path id="Path_1064" data-name="Path 1064" d="M28.311,3.939a1.811,1.811,0,1,0,1.783,1.834,1.83,1.83,0,0,0-1.783-1.834" transform="translate(84.196 12.551)" fill="#101010"/>
    <path id="Path_1065" data-name="Path 1065" d="M12.562,24.545a1.827,1.827,0,0,0-1.754-1.867,1.832,1.832,0,1,0-.071,3.663,1.826,1.826,0,0,0,1.825-1.8" transform="translate(28.467 72.253)" fill="#101010"/>
    <path id="Path_1066" data-name="Path 1066" d="M30.732,20.051a1.809,1.809,0,0,0,.071-3.617,1.809,1.809,0,1,0-.071,3.617" transform="translate(92.169 52.362)" fill="#101010"/>
    <path id="Path_1067" data-name="Path 1067" d="M30.815,25.082a1.828,1.828,0,0,0-.092-3.655,1.853,1.853,0,0,0-1.8,1.834,1.834,1.834,0,0,0,1.888,1.821" transform="translate(92.166 68.271)" fill="#101010"/>
    <path id="Path_1068" data-name="Path 1068" d="M30.74,8.934a1.828,1.828,0,0,0-1.813,1.8,1.817,1.817,0,1,0,1.813-1.8" transform="translate(92.166 28.467)" fill="#101010"/>
    <path id="Path_1069" data-name="Path 1069" d="M29.494,5.086a1.826,1.826,0,1,0-1.813-1.8,1.82,1.82,0,0,0,1.813,1.8" transform="translate(88.196 4.573)" fill="#101010"/>
    <path id="Path_1070" data-name="Path 1070" d="M29.435,3.809A1.8,1.8,0,0,0,31.3,2.076a1.811,1.811,0,1,0-3.621-.109,1.781,1.781,0,0,0,1.754,1.842" transform="translate(88.196 0.605)" fill="#101010"/>
    <path id="Path_1071" data-name="Path 1071" d="M27.681,5.726a1.811,1.811,0,1,0,1.808-1.787,1.776,1.776,0,0,0-1.808,1.787" transform="translate(88.196 12.552)" fill="#101010"/>
    <path id="Path_1072" data-name="Path 1072" d="M25.724,10.107a1.838,1.838,0,1,0-1.792-1.834,1.849,1.849,0,0,0,1.792,1.834" transform="translate(76.251 20.491)" fill="#101010"/>
    <path id="Path_1073" data-name="Path 1073" d="M25.767,15.066A1.8,1.8,0,0,0,27.55,13.24a1.809,1.809,0,1,0-1.783,1.825" transform="translate(76.254 36.438)" fill="#101010"/>
    <path id="Path_1074" data-name="Path 1074" d="M27.023,7.687a1.817,1.817,0,0,0-1.846,1.767,1.839,1.839,0,0,0,1.85,1.859,1.813,1.813,0,0,0,0-3.625" transform="translate(80.218 24.493)" fill="#101010"/>
    <path id="Path_1075" data-name="Path 1075" d="M27.549,12.1a1.809,1.809,0,1,0-1.867,1.758A1.851,1.851,0,0,0,27.549,12.1" transform="translate(76.251 32.433)" fill="#101010"/>
    <path id="Path_1076" data-name="Path 1076" d="M25.763,8.822A1.8,1.8,0,0,0,27.55,7.005a1.809,1.809,0,1,0-3.617.046,1.79,1.79,0,0,0,1.829,1.771" transform="translate(76.254 16.518)" fill="#101010"/>
    <path id="Path_1077" data-name="Path 1077" d="M24.448,3.807A1.834,1.834,0,0,0,26.34,1.994a1.832,1.832,0,0,0-3.663-.038,1.835,1.835,0,0,0,1.771,1.85" transform="translate(72.252 0.607)" fill="#101010"/>
    <path id="Path_1078" data-name="Path 1078" d="M27.04,13.856a1.838,1.838,0,1,0-1.863-1.871,1.857,1.857,0,0,0,1.863,1.871" transform="translate(80.218 32.436)" fill="#101010"/>
    <path id="Path_1079" data-name="Path 1079" d="M26.994,8.934a1.849,1.849,0,0,0-1.817,1.8,1.818,1.818,0,0,0,1.88,1.825,1.815,1.815,0,0,0-.063-3.629" transform="translate(80.218 28.467)" fill="#101010"/>
    <path id="Path_1080" data-name="Path 1080" d="M26.99,10.1a1.836,1.836,0,1,0-1.813-1.829A1.876,1.876,0,0,0,26.99,10.1" transform="translate(80.218 20.494)" fill="#101010"/>
    <path id="Path_1081" data-name="Path 1081" d="M23.933,5.772a1.806,1.806,0,0,0,3.613,0,1.807,1.807,0,1,0-3.613,0" transform="translate(76.255 12.548)" fill="#101010"/>
    <path id="Path_1082" data-name="Path 1082" d="M25.728,5.086a1.826,1.826,0,1,0-1.8-1.817,1.813,1.813,0,0,0,1.8,1.817" transform="translate(76.251 4.573)" fill="#101010"/>
    <path id="Path_1083" data-name="Path 1083" d="M33.225,21.345a1.834,1.834,0,1,0-.013-3.667,1.834,1.834,0,0,0,.013,3.667" transform="translate(100.138 56.326)" fill="#101010"/>
    <path id="Path_1084" data-name="Path 1084" d="M31.966,5.085a1.861,1.861,0,0,0,1.88-1.758,1.836,1.836,0,1,0-3.671-.088,1.86,1.86,0,0,0,1.792,1.846" transform="translate(96.139 4.573)" fill="#101010"/>
    <path id="Path_1085" data-name="Path 1085" d="M31.948,3.807a1.847,1.847,0,0,0,1.9-1.813,1.839,1.839,0,0,0-3.675-.038,1.849,1.849,0,0,0,1.775,1.85" transform="translate(96.136 0.607)" fill="#101010"/>
    <path id="Path_1086" data-name="Path 1086" d="M31.969,3.939a1.844,1.844,0,0,0-1.8,1.829,1.838,1.838,0,0,0,3.675-.084,1.84,1.84,0,0,0-1.88-1.746" transform="translate(96.136 12.551)" fill="#101010"/>
    <path id="Path_1087" data-name="Path 1087" d="M24.49,7.687a1.813,1.813,0,1,0,1.85,1.771,1.832,1.832,0,0,0-1.85-1.771" transform="translate(72.253 24.493)" fill="#101010"/>
    <path id="Path_1088" data-name="Path 1088" d="M32.036,6.353a1.889,1.889,0,0,0,1.813-1.838,1.838,1.838,0,0,0-3.675-.038,1.9,1.9,0,0,0,1.863,1.875" transform="translate(96.136 8.547)" fill="#101010"/>
    <path id="Path_1089" data-name="Path 1089" d="M33.285,13.93a1.836,1.836,0,0,0-.05,3.671,1.836,1.836,0,0,0,.05-3.671" transform="translate(100.14 44.381)" fill="#101010"/>
    <path id="Path_1090" data-name="Path 1090" d="M32.024,5.185a1.869,1.869,0,0,0-1.85,1.787A1.838,1.838,0,0,0,33.849,7a1.875,1.875,0,0,0-1.825-1.813" transform="translate(96.136 16.522)" fill="#101010"/>
    <path id="Path_1091" data-name="Path 1091" d="M35.056,20.788a1.814,1.814,0,1,0-1.825,1.8,1.835,1.835,0,0,0,1.825-1.8" transform="translate(100.14 60.312)" fill="#101010"/>
    <path id="Path_1092" data-name="Path 1092" d="M33.237,25.086A1.832,1.832,0,0,0,35.058,23.2,1.852,1.852,0,0,0,33.2,21.427a1.83,1.83,0,0,0,.033,3.659" transform="translate(100.138 68.271)" fill="#101010"/>
    <path id="Path_1093" data-name="Path 1093" d="M33.277,28.819a1.811,1.811,0,0,0,1.779-1.834,1.839,1.839,0,0,0-1.808-1.808,1.821,1.821,0,1,0,.029,3.642" transform="translate(100.141 80.219)" fill="#101010"/>
    <path id="Path_1094" data-name="Path 1094" d="M33.167,15.066a1.826,1.826,0,0,0,1.892-1.813,1.815,1.815,0,1,0-1.892,1.813" transform="translate(100.138 36.438)" fill="#101010"/>
    <path id="Path_1095" data-name="Path 1095" d="M32,28.927a1.872,1.872,0,0,0-1.825,1.813,1.838,1.838,0,0,0,3.675-.029A1.866,1.866,0,0,0,32,28.927" transform="translate(96.136 92.168)" fill="#101010"/>
    <path id="Path_1096" data-name="Path 1096" d="M31.933,27.55a1.809,1.809,0,1,0-1.758-1.867,1.85,1.85,0,0,0,1.758,1.867" transform="translate(96.138 76.256)" fill="#101010"/>
    <path id="Path_1097" data-name="Path 1097" d="M32.032,21.428a1.828,1.828,0,1,0,1.817,1.829,1.88,1.88,0,0,0-1.817-1.829" transform="translate(96.136 68.274)" fill="#101010"/>
    <path id="Path_1098" data-name="Path 1098" d="M30.774,7.56a1.811,1.811,0,1,0-1.846-1.85,1.814,1.814,0,0,0,1.846,1.85" transform="translate(92.169 12.552)" fill="#101010"/>
    <path id="Path_1099" data-name="Path 1099" d="M33.848,20.817a1.838,1.838,0,1,0-1.875,1.767,1.866,1.866,0,0,0,1.875-1.767" transform="translate(96.137 60.317)" fill="#101010"/>
    <path id="Path_1100" data-name="Path 1100" d="M30.757,6.354a1.836,1.836,0,0,0,.025-3.671,1.866,1.866,0,0,0-1.854,1.779,1.861,1.861,0,0,0,1.829,1.892" transform="translate(92.166 8.546)" fill="#101010"/>
    <path id="Path_1101" data-name="Path 1101" d="M32.016,13.856a1.908,1.908,0,0,0,1.834-1.821,1.838,1.838,0,0,0-3.675-.08,1.9,1.9,0,0,0,1.842,1.9" transform="translate(96.135 32.436)" fill="#101010"/>
    <path id="Path_1102" data-name="Path 1102" d="M32.028,17.6a1.838,1.838,0,1,0-1.854-1.8,1.908,1.908,0,0,0,1.854,1.8" transform="translate(96.136 44.378)" fill="#101010"/>
    <path id="Path_1103" data-name="Path 1103" d="M32,11.314a1.858,1.858,0,0,0,1.842-1.88,1.837,1.837,0,0,0-3.671.08A1.856,1.856,0,0,0,32,11.314" transform="translate(96.139 24.496)" fill="#101010"/>
    <path id="Path_1104" data-name="Path 1104" d="M32.04,18.828a1.876,1.876,0,0,0,1.808-1.834,1.838,1.838,0,1,0-1.808,1.834" transform="translate(96.136 48.374)" fill="#101010"/>
    <path id="Path_1105" data-name="Path 1105" d="M32.021,27.681a1.813,1.813,0,1,0,1.825,1.8,1.843,1.843,0,0,0-1.825-1.8" transform="translate(96.139 88.198)" fill="#101010"/>
    <path id="Path_1106" data-name="Path 1106" d="M19.524,3.81a1.832,1.832,0,0,0,1.821-1.8,1.834,1.834,0,1,0-3.667.025A1.841,1.841,0,0,0,19.524,3.81" transform="translate(56.325 0.603)" fill="#101010"/>
    <path id="Path_1107" data-name="Path 1107" d="M14.509,5.086a1.826,1.826,0,0,0,.021-3.65,1.825,1.825,0,1,0-.021,3.65" transform="translate(40.413 4.573)" fill="#101010"/>
    <path id="Path_1108" data-name="Path 1108" d="M15.788,5.185A1.869,1.869,0,0,0,13.93,6.96a1.836,1.836,0,0,0,3.671.05,1.866,1.866,0,0,0-1.813-1.825" transform="translate(44.38 16.521)" fill="#101010"/>
    <path id="Path_1109" data-name="Path 1109" d="M15.821,10.1A1.9,1.9,0,0,0,17.6,8.231a1.836,1.836,0,0,0-3.671.029A1.891,1.891,0,0,0,15.821,10.1" transform="translate(44.38 20.491)" fill="#101010"/>
    <path id="Path_1110" data-name="Path 1110" d="M24.49,7.56a1.811,1.811,0,1,0-1.813-1.813A1.843,1.843,0,0,0,24.49,7.56" transform="translate(72.253 12.551)" fill="#101010"/>
    <path id="Path_1111" data-name="Path 1111" d="M17.02,5.086a1.839,1.839,0,0,0,1.813-1.817,1.825,1.825,0,1,0-3.65.029A1.835,1.835,0,0,0,17.02,5.086" transform="translate(48.372 4.573)" fill="#101010"/>
    <path id="Path_1112" data-name="Path 1112" d="M15.77,3.81A1.844,1.844,0,0,0,17.6,2.019a1.838,1.838,0,0,0-3.675.008A1.844,1.844,0,0,0,15.77,3.81" transform="translate(44.377 0.603)" fill="#101010"/>
    <path id="Path_1113" data-name="Path 1113" d="M18.272,6.353a1.836,1.836,0,0,0-.008-3.671,1.836,1.836,0,0,0,.008,3.671" transform="translate(52.361 8.547)" fill="#101010"/>
    <path id="Path_1114" data-name="Path 1114" d="M17.033,6.431a1.836,1.836,0,1,0,1.8,1.842,1.857,1.857,0,0,0-1.8-1.842" transform="translate(48.372 20.491)" fill="#101010"/>
    <path id="Path_1115" data-name="Path 1115" d="M17.038,2.683a1.835,1.835,0,0,0-.117,3.667,1.87,1.87,0,0,0,1.9-1.821,1.86,1.86,0,0,0-1.787-1.846" transform="translate(48.375 8.549)" fill="#101010"/>
    <path id="Path_1116" data-name="Path 1116" d="M17,7.687a1.813,1.813,0,0,0-.029,3.625,1.837,1.837,0,0,0,1.863-1.846A1.814,1.814,0,0,0,17,7.687" transform="translate(48.376 24.493)" fill="#101010"/>
    <path id="Path_1117" data-name="Path 1117" d="M18.188,3.807a1.781,1.781,0,0,0,1.863-1.821,1.809,1.809,0,0,0-3.617-.021,1.784,1.784,0,0,0,1.754,1.842" transform="translate(52.361 0.607)" fill="#101010"/>
    <path id="Path_1118" data-name="Path 1118" d="M15.183,5.71a1.805,1.805,0,0,0,1.758,1.85,1.825,1.825,0,0,0,1.884-1.817,1.821,1.821,0,0,0-3.642-.033" transform="translate(48.375 12.552)" fill="#101010"/>
    <path id="Path_1119" data-name="Path 1119" d="M13.26,27.681a1.811,1.811,0,0,0-.067,3.621,1.817,1.817,0,0,0,1.875-1.825,1.8,1.8,0,0,0-1.808-1.8" transform="translate(36.434 88.198)" fill="#101010"/>
    <path id="Path_1120" data-name="Path 1120" d="M12.684,9.45a1.809,1.809,0,0,0,1.834,1.863A1.813,1.813,0,1,0,12.684,9.45" transform="translate(40.413 24.496)" fill="#101010"/>
    <path id="Path_1121" data-name="Path 1121" d="M13.256,36.3a1.8,1.8,0,0,0,1.813-1.792A1.826,1.826,0,0,0,13.2,32.677a1.813,1.813,0,0,0,.059,3.625" transform="translate(36.434 104.115)" fill="#101010"/>
    <path id="Path_1122" data-name="Path 1122" d="M13.2,23.932a1.809,1.809,0,0,0,.054,3.617,1.809,1.809,0,1,0-.054-3.617" transform="translate(36.437 76.252)" fill="#101010"/>
    <path id="Path_1123" data-name="Path 1123" d="M13.207,18.929a1.83,1.83,0,0,0,.038,3.659,1.829,1.829,0,1,0-.038-3.659" transform="translate(36.437 60.312)" fill="#101010"/>
    <path id="Path_1124" data-name="Path 1124" d="M13.283,32.557a1.8,1.8,0,0,0,1.787-1.821,1.831,1.831,0,0,0-1.808-1.808,1.815,1.815,0,1,0,.021,3.629" transform="translate(36.436 92.171)" fill="#101010"/>
    <path id="Path_1125" data-name="Path 1125" d="M13.245,3.807A1.809,1.809,0,1,0,13.207.19a1.781,1.781,0,0,0-1.771,1.825,1.782,1.782,0,0,0,1.808,1.792" transform="translate(36.437 0.606)" fill="#101010"/>
    <path id="Path_1126" data-name="Path 1126" d="M13.253,5.086a1.826,1.826,0,0,0,1.817-1.8,1.85,1.85,0,0,0-1.779-1.846,1.825,1.825,0,1,0-.038,3.65" transform="translate(36.437 4.573)" fill="#101010"/>
    <path id="Path_1127" data-name="Path 1127" d="M15.067,4.555a1.816,1.816,0,0,0-3.629-.117,1.837,1.837,0,0,0,1.8,1.917,1.868,1.868,0,0,0,1.834-1.8" transform="translate(36.436 8.549)" fill="#101010"/>
    <path id="Path_1128" data-name="Path 1128" d="M13.228,12.564a1.8,1.8,0,0,0,1.838-1.771,1.825,1.825,0,0,0-1.842-1.859,1.815,1.815,0,0,0,0,3.629" transform="translate(36.437 28.466)" fill="#101010"/>
    <path id="Path_1129" data-name="Path 1129" d="M15.768,8.934a1.858,1.858,0,0,0-1.838,1.884A1.837,1.837,0,0,0,17.6,10.73a1.859,1.859,0,0,0-1.834-1.8" transform="translate(44.379 28.467)" fill="#101010"/>
    <path id="Path_1130" data-name="Path 1130" d="M22.042,6.35A1.834,1.834,0,1,0,20.183,4.5a1.841,1.841,0,0,0,1.859,1.85" transform="translate(64.306 8.55)" fill="#101010"/>
    <path id="Path_1131" data-name="Path 1131" d="M21.929,11.312a1.813,1.813,0,1,0-1.746-1.854,1.8,1.8,0,0,0,1.746,1.854" transform="translate(64.306 24.493)" fill="#101010"/>
    <path id="Path_1132" data-name="Path 1132" d="M21.981,13.855a1.838,1.838,0,1,0-1.8-1.913,1.846,1.846,0,0,0,1.8,1.913" transform="translate(64.309 32.433)" fill="#101010"/>
    <path id="Path_1133" data-name="Path 1133" d="M21.979,5.086a1.826,1.826,0,1,0-1.8-1.817,1.813,1.813,0,0,0,1.8,1.817" transform="translate(64.306 4.572)" fill="#101010"/>
    <path id="Path_1134" data-name="Path 1134" d="M23.8,7.015A1.809,1.809,0,1,0,22,8.823a1.808,1.808,0,0,0,1.8-1.808" transform="translate(64.309 16.521)" fill="#101010"/>
    <path id="Path_1135" data-name="Path 1135" d="M20.758,5.086a1.85,1.85,0,0,0,1.829-1.8,1.829,1.829,0,1,0-3.659,0,1.851,1.851,0,0,0,1.829,1.8" transform="translate(60.311 4.573)" fill="#101010"/>
    <path id="Path_1136" data-name="Path 1136" d="M23.292,5.085a1.847,1.847,0,0,0,1.792-1.838,1.828,1.828,0,1,0-3.655.071,1.848,1.848,0,0,0,1.863,1.767" transform="translate(68.272 4.573)" fill="#101010"/>
    <path id="Path_1137" data-name="Path 1137" d="M23.279,6.354a1.882,1.882,0,0,0,1.808-1.834,1.83,1.83,0,0,0-3.659-.05,1.877,1.877,0,0,0,1.85,1.884" transform="translate(68.273 8.55)" fill="#101010"/>
    <path id="Path_1138" data-name="Path 1138" d="M20.048,10.887a1.81,1.81,0,1,0-1.917,1.674,1.8,1.8,0,0,0,1.917-1.674" transform="translate(52.36 28.469)" fill="#101010"/>
    <path id="Path_1139" data-name="Path 1139" d="M23.256,12.564A1.815,1.815,0,0,0,23.3,8.934a1.849,1.849,0,0,0-1.875,1.842,1.823,1.823,0,0,0,1.829,1.787" transform="translate(68.27 28.466)" fill="#101010"/>
    <path id="Path_1140" data-name="Path 1140" d="M21.433,13.109a1.829,1.829,0,1,0,3.65.234,1.829,1.829,0,0,0-3.65-.234" transform="translate(68.272 36.436)" fill="#101010"/>
    <path id="Path_1141" data-name="Path 1141" d="M23.215,3.939a1.816,1.816,0,0,0-1.787,1.825,1.83,1.83,0,1,0,1.787-1.825" transform="translate(68.27 12.551)" fill="#101010"/>
    <path id="Path_1142" data-name="Path 1142" d="M13.211,16.434a1.809,1.809,0,1,0,1.859,1.842,1.815,1.815,0,0,0-1.859-1.842" transform="translate(36.437 52.363)" fill="#101010"/>
    <path id="Path_1143" data-name="Path 1143" d="M19.579,10.1a1.886,1.886,0,0,0,1.767-1.88,1.834,1.834,0,0,0-3.667.046,1.882,1.882,0,0,0,1.9,1.834" transform="translate(56.325 20.491)" fill="#101010"/>
    <path id="Path_1144" data-name="Path 1144" d="M19.5,8.822a1.819,1.819,0,1,0-.021-3.638,1.868,1.868,0,0,0-1.8,1.834,1.838,1.838,0,0,0,1.821,1.8" transform="translate(56.325 16.518)" fill="#101010"/>
    <path id="Path_1145" data-name="Path 1145" d="M18.264,10.18a1.838,1.838,0,1,0,1.787,1.834,1.849,1.849,0,0,0-1.787-1.834" transform="translate(52.361 32.436)" fill="#101010"/>
    <path id="Path_1146" data-name="Path 1146" d="M16.434,13.215a1.809,1.809,0,1,0,3.617.021,1.809,1.809,0,0,0-3.617-.021" transform="translate(52.361 36.438)" fill="#101010"/>
    <path id="Path_1147" data-name="Path 1147" d="M18.93,13.206a1.827,1.827,0,1,0,3.655.042,1.828,1.828,0,0,0-3.655-.042" transform="translate(60.314 36.435)" fill="#101010"/>
    <path id="Path_1148" data-name="Path 1148" d="M19.529,10.179a1.838,1.838,0,1,0,1.817,1.834,1.9,1.9,0,0,0-1.817-1.834" transform="translate(56.325 32.433)" fill="#101010"/>
    <path id="Path_1149" data-name="Path 1149" d="M17.678,13.273a1.834,1.834,0,0,0,3.667,0,1.834,1.834,0,1,0-3.667,0" transform="translate(56.325 36.435)" fill="#101010"/>
    <path id="Path_1150" data-name="Path 1150" d="M19.5,12.564a1.815,1.815,0,0,0,.067-3.629,1.86,1.86,0,0,0-1.888,1.829,1.835,1.835,0,0,0,1.821,1.8" transform="translate(56.325 28.466)" fill="#101010"/>
    <path id="Path_1151" data-name="Path 1151" d="M19.579,11.312a1.813,1.813,0,0,0-.088-3.625A1.823,1.823,0,0,0,17.678,9.5a1.855,1.855,0,0,0,1.9,1.817" transform="translate(56.325 24.493)" fill="#101010"/>
    <path id="Path_1152" data-name="Path 1152" d="M38.924,30.779a1.826,1.826,0,0,0,3.65-.021,1.825,1.825,0,1,0-3.65.021" transform="translate(124.018 92.17)" fill="#101010"/>
    <path id="Path_1153" data-name="Path 1153" d="M38.815,13.291a1.819,1.819,0,1,0-1.842,1.775,1.837,1.837,0,0,0,1.842-1.775" transform="translate(112.08 36.438)" fill="#101010"/>
    <path id="Path_1154" data-name="Path 1154" d="M37.036,15.183a1.823,1.823,0,1,0-.042,3.646,1.856,1.856,0,0,0,1.821-1.808,1.823,1.823,0,0,0-1.779-1.838" transform="translate(112.079 48.376)" fill="#101010"/>
    <path id="Path_1155" data-name="Path 1155" d="M37,10.18A1.838,1.838,0,1,0,38.815,12,1.851,1.851,0,0,0,37,10.18" transform="translate(112.08 32.436)" fill="#101010"/>
    <path id="Path_1156" data-name="Path 1156" d="M37.015,26.425a1.836,1.836,0,1,0,1.8,1.834,1.847,1.847,0,0,0-1.8-1.834" transform="translate(112.08 84.196)" fill="#101010"/>
    <path id="Path_1157" data-name="Path 1157" d="M37,28.824a1.823,1.823,0,0,0,1.817-1.8,1.851,1.851,0,0,0-1.871-1.842A1.824,1.824,0,0,0,37,28.824" transform="translate(112.08 80.219)" fill="#101010"/>
    <path id="Path_1158" data-name="Path 1158" d="M37.036,18.93a1.829,1.829,0,0,0-.134,3.655,1.861,1.861,0,0,0,1.913-1.808,1.841,1.841,0,0,0-1.779-1.846" transform="translate(112.079 60.315)" fill="#101010"/>
    <path id="Path_1159" data-name="Path 1159" d="M35.178,22.021A1.792,1.792,0,0,0,37,23.8a1.811,1.811,0,1,0-.054-3.621,1.8,1.8,0,0,0-1.762,1.838" transform="translate(112.083 64.307)" fill="#101010"/>
    <path id="Path_1160" data-name="Path 1160" d="M35.764,23.8a1.811,1.811,0,1,0-1.842-1.783A1.844,1.844,0,0,0,35.764,23.8" transform="translate(108.081 64.308)" fill="#101010"/>
    <path id="Path_1161" data-name="Path 1161" d="M35.806,18.931a1.83,1.83,0,1,0,1.787,1.85,1.868,1.868,0,0,0-1.787-1.85" transform="translate(108.081 60.315)" fill="#101010"/>
    <path id="Path_1162" data-name="Path 1162" d="M35.756,27.553a1.811,1.811,0,1,0-1.834-1.792,1.848,1.848,0,0,0,1.834,1.792" transform="translate(108.081 76.253)" fill="#101010"/>
    <path id="Path_1163" data-name="Path 1163" d="M35.178,30.736a1.8,1.8,0,0,0,1.783,1.825,1.823,1.823,0,0,0,1.854-1.85,1.844,1.844,0,0,0-1.842-1.783,1.8,1.8,0,0,0-1.8,1.808" transform="translate(112.083 92.171)" fill="#101010"/>
    <path id="Path_1164" data-name="Path 1164" d="M38.221,25.177a1.829,1.829,0,0,0-1.792,1.909,1.81,1.81,0,1,0,1.792-1.909" transform="translate(116.065 80.219)" fill="#101010"/>
    <path id="Path_1165" data-name="Path 1165" d="M38.278,16.434a1.809,1.809,0,1,0-.029,3.617,1.809,1.809,0,0,0,.029-3.617" transform="translate(116.062 52.363)" fill="#101010"/>
    <path id="Path_1166" data-name="Path 1166" d="M38.278,22.677a1.834,1.834,0,1,0,1.771,1.85,1.844,1.844,0,0,0-1.771-1.85" transform="translate(116.062 72.254)" fill="#101010"/>
    <path id="Path_1167" data-name="Path 1167" d="M32.028,40.176a1.808,1.808,0,1,0,1.821,1.8,1.851,1.851,0,0,0-1.821-1.8" transform="translate(96.136 128.009)" fill="#101010"/>
    <path id="Path_1168" data-name="Path 1168" d="M37.6,18.3a1.839,1.839,0,1,0-1.867,1.754A1.845,1.845,0,0,0,37.6,18.3" transform="translate(108.081 52.363)" fill="#101010"/>
    <path id="Path_1169" data-name="Path 1169" d="M38.227,36.3a1.778,1.778,0,0,0,1.821-1.775A1.811,1.811,0,1,0,38.227,36.3" transform="translate(116.063 104.115)" fill="#101010"/>
    <path id="Path_1170" data-name="Path 1170" d="M38.3,15.069a1.817,1.817,0,1,0-1.871-1.829A1.8,1.8,0,0,0,38.3,15.069" transform="translate(116.063 36.435)" fill="#101010"/>
    <path id="Path_1171" data-name="Path 1171" d="M38.3,37.672a1.834,1.834,0,1,0,1.754,1.867A1.846,1.846,0,0,0,38.3,37.672" transform="translate(116.059 120.027)" fill="#101010"/>
    <path id="Path_1172" data-name="Path 1172" d="M38.248,23.932a1.809,1.809,0,1,0,1.8,1.8,1.783,1.783,0,0,0-1.8-1.8" transform="translate(116.062 76.253)" fill="#101010"/>
    <path id="Path_1173" data-name="Path 1173" d="M38.277,18.825a1.821,1.821,0,1,0-1.85-1.854,1.828,1.828,0,0,0,1.85,1.854" transform="translate(116.063 48.377)" fill="#101010"/>
    <path id="Path_1174" data-name="Path 1174" d="M38.282,38.924a1.826,1.826,0,1,0,1.767,1.846,1.819,1.819,0,0,0-1.767-1.846" transform="translate(116.062 124.019)" fill="#101010"/>
    <path id="Path_1175" data-name="Path 1175" d="M38.3,33.849a1.838,1.838,0,1,0-1.875-1.842A1.836,1.836,0,0,0,38.3,33.849" transform="translate(116.063 96.138)" fill="#101010"/>
    <path id="Path_1176" data-name="Path 1176" d="M35.03,32.5A2.525,2.525,0,0,0,32.5,35.042a2.588,2.588,0,0,0,2.566,2.629,2.646,2.646,0,0,0,2.608-2.616A2.592,2.592,0,0,0,35.03,32.5" transform="translate(103.541 103.542)" fill="#101010"/>
    <path id="Path_1177" data-name="Path 1177" d="M36.956,37.671a1.836,1.836,0,1,0,1.859,1.775,1.848,1.848,0,0,0-1.859-1.775" transform="translate(112.08 120.027)" fill="#101010"/>
    <path id="Path_1178" data-name="Path 1178" d="M36.949,36.427a1.811,1.811,0,1,0,1.863,1.838,1.817,1.817,0,0,0-1.863-1.838" transform="translate(112.083 116.064)" fill="#101010"/>
    <path id="Path_1179" data-name="Path 1179" d="M34.49,10.18A1.839,1.839,0,1,0,36.3,11.993,1.856,1.856,0,0,0,34.49,10.18" transform="translate(104.114 32.436)" fill="#101010"/>
    <path id="Path_1180" data-name="Path 1180" d="M43.064,30A13.04,13.04,0,1,0,56.075,43.043,13.02,13.02,0,0,0,43.064,30m.033,20.9a7.864,7.864,0,1,1,7.795-7.845A7.872,7.872,0,0,1,43.1,50.892" transform="translate(95.569 95.57)" fill="#101010"/>
    <path id="Path_1181" data-name="Path 1181" d="M33.213,40.176a1.809,1.809,0,1,0,1.842,1.762,1.8,1.8,0,0,0-1.842-1.762" transform="translate(100.141 128.009)" fill="#101010"/>
    <path id="Path_1182" data-name="Path 1182" d="M35.8,36.427a1.811,1.811,0,1,0,1.8,1.829,1.852,1.852,0,0,0-1.8-1.829" transform="translate(108.081 116.064)" fill="#101010"/>
    <path id="Path_1183" data-name="Path 1183" d="M31.977,41.341a1.835,1.835,0,1,0-1.8-1.846,1.892,1.892,0,0,0,1.8,1.846" transform="translate(96.136 120.029)" fill="#101010"/>
    <path id="Path_1184" data-name="Path 1184" d="M34.5,13.929a1.836,1.836,0,1,0,1.8,1.817,1.832,1.832,0,0,0-1.8-1.817" transform="translate(104.114 44.381)" fill="#101010"/>
    <path id="Path_1185" data-name="Path 1185" d="M34.469,40.177a1.808,1.808,0,0,0,0,3.617,1.809,1.809,0,1,0,0-3.617" transform="translate(104.114 128.012)" fill="#101010"/>
    <path id="Path_1186" data-name="Path 1186" d="M33.2,36.427a1.811,1.811,0,1,0,1.859,1.838A1.792,1.792,0,0,0,33.2,36.427" transform="translate(100.138 116.064)" fill="#101010"/>
    <path id="Path_1187" data-name="Path 1187" d="M37.6,13.266a1.837,1.837,0,0,0-3.671-.08,1.836,1.836,0,1,0,3.671.08" transform="translate(108.083 36.438)" fill="#101010"/>
    <path id="Path_1188" data-name="Path 1188" d="M35.81,17.6a1.836,1.836,0,1,0-1.888-1.85A1.9,1.9,0,0,0,35.81,17.6" transform="translate(108.081 44.381)" fill="#101010"/>
    <path id="Path_1189" data-name="Path 1189" d="M35.8,18.828a1.824,1.824,0,1,0-1.875-1.854A1.873,1.873,0,0,0,35.8,18.828" transform="translate(108.081 48.374)" fill="#101010"/>
    <path id="Path_1190" data-name="Path 1190" d="M33.924,30.666a1.839,1.839,0,0,0,3.675.117,1.839,1.839,0,0,0-3.675-.117" transform="translate(108.079 92.17)" fill="#101010"/>
    <path id="Path_1191" data-name="Path 1191" d="M35.794,26.425a1.838,1.838,0,1,0,1.8,1.846,1.9,1.9,0,0,0-1.8-1.846" transform="translate(108.081 84.196)" fill="#101010"/>
    <path id="Path_1192" data-name="Path 1192" d="M35.722,21.344a1.833,1.833,0,1,0-1.8-1.846,1.886,1.886,0,0,0,1.8,1.846" transform="translate(108.081 56.328)" fill="#101010"/>
    <path id="Path_1193" data-name="Path 1193" d="M34.494,25.086a1.83,1.83,0,0,0,.042-3.659,1.829,1.829,0,1,0-.042,3.659" transform="translate(104.114 68.271)" fill="#101010"/>
    <path id="Path_1194" data-name="Path 1194" d="M34.582,16.435a1.81,1.81,0,1,0-.13,3.617,1.81,1.81,0,0,0,.13-3.617" transform="translate(104.114 52.362)" fill="#101010"/>
    <path id="Path_1195" data-name="Path 1195" d="M32.677,19.507A1.813,1.813,0,1,0,36.3,19.47a1.829,1.829,0,0,0-1.829-1.792,1.85,1.85,0,0,0-1.8,1.829" transform="translate(104.114 56.326)" fill="#101010"/>
    <path id="Path_1196" data-name="Path 1196" d="M34.527,18.825a1.821,1.821,0,1,0-1.85-1.859,1.834,1.834,0,0,0,1.85,1.859" transform="translate(104.114 48.377)" fill="#101010"/>
    <path id="Path_1197" data-name="Path 1197" d="M35.73,16.307a1.812,1.812,0,1,0-1.808-1.817,1.839,1.839,0,0,0,1.808,1.817" transform="translate(108.081 40.417)" fill="#101010"/>
    <path id="Path_1198" data-name="Path 1198" d="M36.428,20.672a1.836,1.836,0,0,0,1.8,1.913,1.828,1.828,0,1,0-1.8-1.913" transform="translate(116.061 60.314)" fill="#101010"/>
    <path id="Path_1199" data-name="Path 1199" d="M40.786,33.922a1.836,1.836,0,1,0,1.792,1.85,1.862,1.862,0,0,0-1.792-1.85" transform="translate(124.015 108.082)" fill="#101010"/>
    <path id="Path_1200" data-name="Path 1200" d="M40.775,30.173a1.838,1.838,0,1,0-.013,3.675,1.838,1.838,0,0,0,.013-3.675" transform="translate(124.018 96.137)" fill="#101010"/>
    <path id="Path_1201" data-name="Path 1201" d="M50.814,0A18.283,18.283,0,1,0,69.065,18.315,18.286,18.286,0,0,0,50.814,0m-.05,31.375A13.082,13.082,0,1,1,63.849,18.3,13.04,13.04,0,0,1,50.763,31.375" transform="translate(103.535 0.001)" fill="#101010"/>
    <path id="Path_1202" data-name="Path 1202" d="M42.884,2.5a7.828,7.828,0,1,0,7.761,7.883A7.86,7.86,0,0,0,42.884,2.5" transform="translate(111.481 7.973)" fill="#101010"/>
    <path id="Path_1203" data-name="Path 1203" d="M42.575,36.994a1.825,1.825,0,1,0-1.8,1.821,1.849,1.849,0,0,0,1.8-1.821" transform="translate(124.018 112.081)" fill="#101010"/>
    <path id="Path_1204" data-name="Path 1204" d="M42.015,15.183a1.821,1.821,0,1,0,1.779,1.825,1.8,1.8,0,0,0-1.779-1.825" transform="translate(128.01 48.377)" fill="#101010"/>
    <path id="Path_1205" data-name="Path 1205" d="M40.783,35.056a1.846,1.846,0,0,0,1.792-1.829,1.826,1.826,0,1,0-1.792,1.829" transform="translate(124.018 100.141)" fill="#101010"/>
    <path id="Path_1206" data-name="Path 1206" d="M40.7,36.3a1.815,1.815,0,0,0,1.867-1.746,1.824,1.824,0,1,0-3.646-.084A1.81,1.81,0,0,0,40.7,36.3" transform="translate(124.022 104.116)" fill="#101010"/>
    <path id="Path_1207" data-name="Path 1207" d="M40.8,30.1a1.836,1.836,0,1,0-1.875-1.85A1.879,1.879,0,0,0,40.8,30.1" transform="translate(124.015 84.196)" fill="#101010"/>
    <path id="Path_1208" data-name="Path 1208" d="M40.7,40.176a1.811,1.811,0,1,0,1.871,1.834A1.814,1.814,0,0,0,40.7,40.176" transform="translate(124.018 128.009)" fill="#101010"/>
    <path id="Path_1209" data-name="Path 1209" d="M40.794,37.672a1.836,1.836,0,1,0,1.783,1.859,1.864,1.864,0,0,0-1.783-1.859" transform="translate(124.015 120.027)" fill="#101010"/>
    <path id="Path_1210" data-name="Path 1210" d="M40.771,27.681a1.811,1.811,0,0,0-.088,3.621,1.834,1.834,0,0,0,1.892-1.813,1.811,1.811,0,0,0-1.8-1.808" transform="translate(124.018 88.198)" fill="#101010"/>
    <path id="Path_1211" data-name="Path 1211" d="M41.969,22.677a1.835,1.835,0,1,0,1.825,1.8,1.831,1.831,0,0,0-1.825-1.8" transform="translate(128.011 72.254)" fill="#101010"/>
    <path id="Path_1212" data-name="Path 1212" d="M40.176,18.264a1.809,1.809,0,1,0,1.859-1.829,1.781,1.781,0,0,0-1.859,1.829" transform="translate(128.008 52.362)" fill="#101010"/>
    <path id="Path_1213" data-name="Path 1213" d="M41.91,35.058a1.815,1.815,0,1,0-1.733-1.871,1.8,1.8,0,0,0,1.733,1.871" transform="translate(128.007 100.14)" fill="#101010"/>
    <path id="Path_1214" data-name="Path 1214" d="M42.049,25.083a1.828,1.828,0,1,0-1.871-1.741,1.82,1.82,0,0,0,1.871,1.741" transform="translate(128.01 68.274)" fill="#101010"/>
    <path id="Path_1215" data-name="Path 1215" d="M42.019,18.93a1.828,1.828,0,1,0,1.775,1.842,1.816,1.816,0,0,0-1.775-1.842" transform="translate(128.01 60.315)" fill="#101010"/>
    <path id="Path_1216" data-name="Path 1216" d="M43.795,25.77a1.809,1.809,0,1,0-1.813,1.783,1.779,1.779,0,0,0,1.813-1.783" transform="translate(128.01 76.252)" fill="#101010"/>
    <path id="Path_1217" data-name="Path 1217" d="M41.985,37.671A1.836,1.836,0,1,0,43.8,39.479a1.839,1.839,0,0,0-1.813-1.808" transform="translate(128.007 120.028)" fill="#101010"/>
    <path id="Path_1218" data-name="Path 1218" d="M41.964,35.177a1.8,1.8,0,0,0-1.788,1.817,1.811,1.811,0,1,0,3.621-.046,1.8,1.8,0,0,0-1.834-1.771" transform="translate(128.008 112.081)" fill="#101010"/>
    <path id="Path_1219" data-name="Path 1219" d="M42.05,10.181a1.839,1.839,0,1,0,1.746,1.88,1.846,1.846,0,0,0-1.746-1.88" transform="translate(128.009 32.435)" fill="#101010"/>
    <path id="Path_1220" data-name="Path 1220" d="M41.993,40.048a1.811,1.811,0,1,0-1.817-1.871,1.777,1.777,0,0,0,1.817,1.871" transform="translate(128.007 116.064)" fill="#101010"/>
    <path id="Path_1221" data-name="Path 1221" d="M39.6,23.934a1.811,1.811,0,1,0-.147,3.617,1.81,1.81,0,1,0,.147-3.617" transform="translate(120.026 76.254)" fill="#101010"/>
    <path id="Path_1222" data-name="Path 1222" d="M39.479,26.342A1.832,1.832,0,1,0,37.671,24.5a1.879,1.879,0,0,0,1.808,1.838" transform="translate(120.026 72.256)" fill="#101010"/>
    <path id="Path_1223" data-name="Path 1223" d="M41.342,18.23a1.836,1.836,0,1,0-1.888,1.821,1.841,1.841,0,0,0,1.888-1.821" transform="translate(120.026 52.363)" fill="#101010"/>
    <path id="Path_1224" data-name="Path 1224" d="M39.6,30.093a1.835,1.835,0,1,0-1.926-1.813A1.892,1.892,0,0,0,39.6,30.093" transform="translate(120.026 84.195)" fill="#101010"/>
    <path id="Path_1225" data-name="Path 1225" d="M40.046,33.277a1.809,1.809,0,0,0-3.617-.117,1.81,1.81,0,1,0,3.617.117" transform="translate(116.065 100.142)" fill="#101010"/>
    <path id="Path_1226" data-name="Path 1226" d="M39.576,22.585a1.828,1.828,0,1,0-1.9-1.829,1.876,1.876,0,0,0,1.9,1.829" transform="translate(120.026 60.315)" fill="#101010"/>
    <path id="Path_1227" data-name="Path 1227" d="M40.048,38.3A1.811,1.811,0,1,0,38.2,40.045,1.785,1.785,0,0,0,40.048,38.3" transform="translate(116.063 116.063)" fill="#101010"/>
    <path id="Path_1228" data-name="Path 1228" d="M38.265,33.922a1.838,1.838,0,1,0,1.783,1.838,1.855,1.855,0,0,0-1.783-1.838" transform="translate(116.062 108.082)" fill="#101010"/>
    <path id="Path_1229" data-name="Path 1229" d="M39.522,28.927a1.861,1.861,0,0,0-1.85,1.871,1.834,1.834,0,0,0,3.667-.059,1.859,1.859,0,0,0-1.817-1.813" transform="translate(120.026 92.168)" fill="#101010"/>
    <path id="Path_1230" data-name="Path 1230" d="M39.53,16.309a1.813,1.813,0,1,0-1.859-1.762,1.834,1.834,0,0,0,1.859,1.762" transform="translate(120.026 40.415)" fill="#101010"/>
    <path id="Path_1231" data-name="Path 1231" d="M41.333,13.394a1.834,1.834,0,0,0-3.659-.251,1.834,1.834,0,0,0,3.659.251" transform="translate(120.027 36.439)" fill="#101010"/>
    <path id="Path_1232" data-name="Path 1232" d="M39.488,17.6a1.836,1.836,0,1,0-1.817-1.834A1.9,1.9,0,0,0,39.488,17.6" transform="translate(120.026 44.38)" fill="#101010"/>
    <path id="Path_1233" data-name="Path 1233" d="M40.779,25.177a1.822,1.822,0,1,0,1.8,1.838,1.866,1.866,0,0,0-1.8-1.838" transform="translate(124.018 80.219)" fill="#101010"/>
    <path id="Path_1234" data-name="Path 1234" d="M40.67,12.685a1.812,1.812,0,1,0,1.9,1.8,1.82,1.82,0,0,0-1.9-1.8" transform="translate(124.018 40.414)" fill="#101010"/>
    <path id="Path_1235" data-name="Path 1235" d="M40.7,17.6a1.836,1.836,0,1,0-1.779-1.859A1.874,1.874,0,0,0,40.7,17.6" transform="translate(124.018 44.381)" fill="#101010"/>
    <path id="Path_1236" data-name="Path 1236" d="M40.707,15.182a1.823,1.823,0,0,0,.034,3.646,1.823,1.823,0,1,0-.034-3.646" transform="translate(124.018 48.373)" fill="#101010"/>
    <path id="Path_1237" data-name="Path 1237" d="M40.741,21.345a1.834,1.834,0,1,0-1.817-1.821,1.862,1.862,0,0,0,1.817,1.821" transform="translate(124.018 56.326)" fill="#101010"/>
    <path id="Path_1238" data-name="Path 1238" d="M40.72,11.435a1.817,1.817,0,0,0,.013,3.634A1.848,1.848,0,0,0,42.574,13.2a1.823,1.823,0,0,0-1.854-1.762" transform="translate(124.018 36.435)" fill="#101010"/>
    <path id="Path_1239" data-name="Path 1239" d="M39.536,40.048a1.811,1.811,0,1,0-1.863-1.754,1.834,1.834,0,0,0,1.863,1.754" transform="translate(120.029 116.064)" fill="#101010"/>
    <path id="Path_1240" data-name="Path 1240" d="M39.568,40.178a1.809,1.809,0,1,0,1.771,1.85,1.838,1.838,0,0,0-1.771-1.85" transform="translate(120.029 128.011)" fill="#101010"/>
    <path id="Path_1241" data-name="Path 1241" d="M39.526,10.179a1.838,1.838,0,1,0,1.817,1.834,1.9,1.9,0,0,0-1.817-1.834" transform="translate(120.026 32.433)" fill="#101010"/>
    <path id="Path_1242" data-name="Path 1242" d="M39.526,38.923a1.827,1.827,0,1,0,1.817,1.821,1.872,1.872,0,0,0-1.817-1.821" transform="translate(120.026 124.017)" fill="#101010"/>
    <path id="Path_1243" data-name="Path 1243" d="M39.522,33.922a1.838,1.838,0,1,0,1.821,1.834,1.9,1.9,0,0,0-1.821-1.834" transform="translate(120.026 108.083)" fill="#101010"/>
    <path id="Path_1244" data-name="Path 1244" d="M23.3,30.173a1.838,1.838,0,1,0,1.787,1.854A1.883,1.883,0,0,0,23.3,30.173" transform="translate(68.269 96.137)" fill="#101010"/>
    <path id="Path_1245" data-name="Path 1245" d="M16.986,30.173a1.838,1.838,0,1,0,1.842,1.888,1.866,1.866,0,0,0-1.842-1.888" transform="translate(48.372 96.137)" fill="#101010"/>
    <path id="Path_1246" data-name="Path 1246" d="M15.749,37.671a1.834,1.834,0,1,0,1.85,1.8,1.885,1.885,0,0,0-1.85-1.8" transform="translate(44.382 120.027)" fill="#101010"/>
    <path id="Path_1247" data-name="Path 1247" d="M15.7,38.815a1.819,1.819,0,1,0-1.771-1.863A1.862,1.862,0,0,0,15.7,38.815" transform="translate(44.38 112.081)" fill="#101010"/>
    <path id="Path_1248" data-name="Path 1248" d="M16.979,35.177a1.819,1.819,0,0,0,0,3.638,1.851,1.851,0,0,0,1.846-1.867,1.827,1.827,0,0,0-1.85-1.771" transform="translate(48.376 112.081)" fill="#101010"/>
    <path id="Path_1249" data-name="Path 1249" d="M15.183,33.246a1.816,1.816,0,0,0,1.8,1.813,1.838,1.838,0,0,0,1.842-1.779,1.821,1.821,0,1,0-3.642-.033" transform="translate(48.376 100.139)" fill="#101010"/>
    <path id="Path_1250" data-name="Path 1250" d="M15.784,28.927a1.863,1.863,0,0,0-1.854,1.867,1.836,1.836,0,0,0,3.671-.05,1.863,1.863,0,0,0-1.817-1.817" transform="translate(44.379 92.168)" fill="#101010"/>
    <path id="Path_1251" data-name="Path 1251" d="M15.737,40.176A1.809,1.809,0,1,0,17.6,41.934a1.844,1.844,0,0,0-1.863-1.758" transform="translate(44.38 128.009)" fill="#101010"/>
    <path id="Path_1252" data-name="Path 1252" d="M14.543,33.923a1.839,1.839,0,1,0,1.767,1.859,1.854,1.854,0,0,0-1.767-1.859" transform="translate(40.413 108.082)" fill="#101010"/>
    <path id="Path_1253" data-name="Path 1253" d="M22.585,34.552a1.828,1.828,0,1,0-3.655-.075,1.828,1.828,0,0,0,3.655.075" transform="translate(60.314 104.116)" fill="#101010"/>
    <path id="Path_1254" data-name="Path 1254" d="M14.5,36.427a1.811,1.811,0,1,0,.038,3.621,1.811,1.811,0,0,0-.038-3.621" transform="translate(40.413 116.064)" fill="#101010"/>
    <path id="Path_1255" data-name="Path 1255" d="M18.3,37.6a1.838,1.838,0,1,0-1.867-1.846A1.839,1.839,0,0,0,18.3,37.6" transform="translate(52.362 108.083)" fill="#101010"/>
    <path id="Path_1256" data-name="Path 1256" d="M13.929,34.486a1.837,1.837,0,0,0,3.671.059,1.836,1.836,0,1,0-3.671-.059" transform="translate(44.38 104.115)" fill="#101010"/>
    <path id="Path_1257" data-name="Path 1257" d="M19.507,28.927a1.863,1.863,0,0,0-1.829,1.8,1.834,1.834,0,1,0,1.829-1.8" transform="translate(56.325 92.168)" fill="#101010"/>
    <path id="Path_1258" data-name="Path 1258" d="M20.712,40.176a1.809,1.809,0,1,0,1.875,1.834,1.823,1.823,0,0,0-1.875-1.834" transform="translate(60.311 128.009)" fill="#101010"/>
    <path id="Path_1259" data-name="Path 1259" d="M19.5,35.059a1.815,1.815,0,0,0,.063-3.629,1.825,1.825,0,0,0-1.884,1.733,1.854,1.854,0,0,0,1.821,1.9" transform="translate(56.327 100.139)" fill="#101010"/>
    <path id="Path_1260" data-name="Path 1260" d="M20.811,38.925a1.826,1.826,0,1,0-.063,3.65,1.866,1.866,0,0,0,1.838-1.8,1.844,1.844,0,0,0-1.775-1.85" transform="translate(60.313 124.019)" fill="#101010"/>
    <path id="Path_1261" data-name="Path 1261" d="M20.8,37.671a1.836,1.836,0,1,0,1.792,1.85,1.868,1.868,0,0,0-1.792-1.85" transform="translate(60.311 120.027)" fill="#101010"/>
    <path id="Path_1262" data-name="Path 1262" d="M18.3,40.176a1.809,1.809,0,1,0,1.754,1.842A1.789,1.789,0,0,0,18.3,40.176" transform="translate(52.361 128.008)" fill="#101010"/>
    <path id="Path_1263" data-name="Path 1263" d="M20.051,34.528A1.809,1.809,0,1,0,18.23,36.3a1.793,1.793,0,0,0,1.821-1.775" transform="translate(52.362 104.115)" fill="#101010"/>
    <path id="Path_1264" data-name="Path 1264" d="M18.247,30.173a1.839,1.839,0,1,0,1.8,1.817,1.849,1.849,0,0,0-1.8-1.817" transform="translate(52.361 96.138)" fill="#101010"/>
    <path id="Path_1265" data-name="Path 1265" d="M19.462,35.179a1.838,1.838,0,0,0-1.783,1.842,1.834,1.834,0,0,0,3.667-.013,1.836,1.836,0,0,0-1.884-1.829" transform="translate(56.325 112.084)" fill="#101010"/>
    <path id="Path_1266" data-name="Path 1266" d="M20.051,30.786a1.809,1.809,0,1,0-3.617-.033,1.809,1.809,0,0,0,3.617.033" transform="translate(52.362 92.167)" fill="#101010"/>
    <path id="Path_1267" data-name="Path 1267" d="M15.783,38.923A1.827,1.827,0,1,0,17.6,40.744a1.876,1.876,0,0,0-1.821-1.821" transform="translate(44.377 124.017)" fill="#101010"/>
    <path id="Path_1268" data-name="Path 1268" d="M30.762,37.671a1.836,1.836,0,1,0,.017,3.671,1.836,1.836,0,0,0-.017-3.671" transform="translate(92.169 120.027)" fill="#101010"/>
    <path id="Path_1269" data-name="Path 1269" d="M12.072,30.174a1.838,1.838,0,1,0-.067,3.675,1.838,1.838,0,0,0,.067-3.675" transform="translate(32.435 96.137)" fill="#101010"/>
    <path id="Path_1270" data-name="Path 1270" d="M13.853,33.26a1.836,1.836,0,1,0-1.834,1.8,1.863,1.863,0,0,0,1.834-1.8" transform="translate(32.434 100.142)" fill="#101010"/>
    <path id="Path_1271" data-name="Path 1271" d="M13.257,40.048a1.793,1.793,0,0,0,1.808-1.8,1.816,1.816,0,0,0-1.871-1.825,1.811,1.811,0,0,0,.063,3.621" transform="translate(36.437 116.063)" fill="#101010"/>
    <path id="Path_1272" data-name="Path 1272" d="M13.236,40.177a1.809,1.809,0,1,0,1.829,1.863,1.805,1.805,0,0,0-1.829-1.863" transform="translate(36.437 128.012)" fill="#101010"/>
    <path id="Path_1273" data-name="Path 1273" d="M14.5,40.176a1.809,1.809,0,0,0-.05,3.617,1.809,1.809,0,1,0,.05-3.617" transform="translate(40.413 128.009)" fill="#101010"/>
    <path id="Path_1274" data-name="Path 1274" d="M10.759,28.928A1.828,1.828,0,0,0,8.934,30.72a1.815,1.815,0,1,0,1.825-1.792" transform="translate(28.465 92.171)" fill="#101010"/>
    <path id="Path_1275" data-name="Path 1275" d="M10.71,20.183a1.809,1.809,0,1,0,1.854,1.834,1.8,1.8,0,0,0-1.854-1.834" transform="translate(28.468 64.307)" fill="#101010"/>
    <path id="Path_1276" data-name="Path 1276" d="M12.013,33.922a1.838,1.838,0,0,0-.033,3.675,1.838,1.838,0,1,0,.033-3.675" transform="translate(32.432 108.083)" fill="#101010"/>
    <path id="Path_1277" data-name="Path 1277" d="M10.773,27.681a1.811,1.811,0,1,0,1.792,1.808,1.793,1.793,0,0,0-1.792-1.808" transform="translate(28.468 88.198)" fill="#101010"/>
    <path id="Path_1278" data-name="Path 1278" d="M10.755,26.425a1.836,1.836,0,1,0,.038,3.671,1.836,1.836,0,0,0-.038-3.671" transform="translate(28.465 84.196)" fill="#101010"/>
    <path id="Path_1279" data-name="Path 1279" d="M12.022,26.424a1.838,1.838,0,0,0-.054,3.675,1.838,1.838,0,1,0,.054-3.675" transform="translate(32.435 84.193)" fill="#101010"/>
    <path id="Path_1280" data-name="Path 1280" d="M12.685,34.545a1.811,1.811,0,1,0,1.825-1.867,1.788,1.788,0,0,0-1.825,1.867" transform="translate(40.413 104.119)" fill="#101010"/>
    <path id="Path_1281" data-name="Path 1281" d="M13.162,42.575a1.826,1.826,0,1,0,.134-3.65,1.827,1.827,0,0,0-.134,3.65" transform="translate(36.436 124.019)" fill="#101010"/>
    <path id="Path_1282" data-name="Path 1282" d="M14.559,13.855a1.839,1.839,0,0,0-.08-3.675,1.838,1.838,0,0,0,.08,3.675" transform="translate(40.413 32.433)" fill="#101010"/>
    <path id="Path_1283" data-name="Path 1283" d="M14.54,11.436a1.8,1.8,0,0,0-1.854,1.746A1.82,1.82,0,0,0,14.5,15.07a1.817,1.817,0,0,0,.042-3.634" transform="translate(40.416 36.438)" fill="#101010"/>
    <path id="Path_1284" data-name="Path 1284" d="M14.53,28.927a1.818,1.818,0,0,0-1.846,1.859,1.811,1.811,0,1,0,1.846-1.859" transform="translate(40.413 92.167)" fill="#101010"/>
    <path id="Path_1285" data-name="Path 1285" d="M14.545,31.43a1.793,1.793,0,0,0-1.859,1.741,1.814,1.814,0,0,0,1.808,1.888,1.815,1.815,0,0,0,.05-3.629" transform="translate(40.416 100.142)" fill="#101010"/>
    <path id="Path_1286" data-name="Path 1286" d="M13.261,37.671a1.834,1.834,0,0,0-.071,3.667,1.834,1.834,0,1,0,.071-3.667" transform="translate(36.437 120.027)" fill="#101010"/>
    <path id="Path_1287" data-name="Path 1287" d="M13.315,33.923a1.839,1.839,0,1,0,1.754,1.88,1.849,1.849,0,0,0-1.754-1.88" transform="translate(36.434 108.081)" fill="#101010"/>
    <path id="Path_1288" data-name="Path 1288" d="M13.252,10.18a1.838,1.838,0,0,0,.038,3.675,1.838,1.838,0,0,0-.038-3.675" transform="translate(36.434 32.436)" fill="#101010"/>
    <path id="Path_1289" data-name="Path 1289" d="M13.3,13.93a1.836,1.836,0,0,0-.067,3.671A1.836,1.836,0,0,0,13.3,13.93" transform="translate(36.439 44.381)" fill="#101010"/>
    <path id="Path_1290" data-name="Path 1290" d="M13.851,29.424a1.836,1.836,0,1,0-1.838,1.88,1.834,1.834,0,0,0,1.838-1.88" transform="translate(32.435 88.201)" fill="#101010"/>
    <path id="Path_1291" data-name="Path 1291" d="M29.511,12.564A1.787,1.787,0,0,0,31.3,10.756a1.811,1.811,0,1,0-3.621.038,1.784,1.784,0,0,0,1.829,1.771" transform="translate(88.196 28.466)" fill="#101010"/>
    <path id="Path_1292" data-name="Path 1292" d="M29.465,11.312a1.813,1.813,0,1,0,0-3.625,1.813,1.813,0,0,0,0,3.625" transform="translate(88.2 24.493)" fill="#101010"/>
    <path id="Path_1293" data-name="Path 1293" d="M29.5,32.561a1.8,1.8,0,0,0,1.8-1.8,1.822,1.822,0,0,0-1.867-1.834,1.817,1.817,0,0,0,.063,3.634" transform="translate(88.199 92.167)" fill="#101010"/>
    <path id="Path_1294" data-name="Path 1294" d="M28.258,37.671A1.836,1.836,0,1,0,30.1,39.479a1.9,1.9,0,0,0-1.842-1.808" transform="translate(84.191 120.027)" fill="#101010"/>
    <path id="Path_1295" data-name="Path 1295" d="M28.3,40.176A1.808,1.808,0,1,0,30.1,42a1.846,1.846,0,0,0-1.8-1.821" transform="translate(84.194 128.009)" fill="#101010"/>
    <path id="Path_1296" data-name="Path 1296" d="M28.283,35.177A1.819,1.819,0,1,0,30.1,36.99a1.855,1.855,0,0,0-1.817-1.813" transform="translate(84.191 112.081)" fill="#101010"/>
    <path id="Path_1297" data-name="Path 1297" d="M26.973,37.671a1.834,1.834,0,1,0,.109,3.667,1.835,1.835,0,0,0-.109-3.667" transform="translate(80.218 120.027)" fill="#101010"/>
    <path id="Path_1298" data-name="Path 1298" d="M26.994,35.177a1.825,1.825,0,0,0-1.817,1.8,1.855,1.855,0,0,0,1.88,1.838,1.819,1.819,0,0,0-.063-3.638" transform="translate(80.218 112.081)" fill="#101010"/>
    <path id="Path_1299" data-name="Path 1299" d="M27.057,37.6A1.838,1.838,0,0,0,27,33.922a1.838,1.838,0,1,0,.059,3.675" transform="translate(80.218 108.083)" fill="#101010"/>
    <path id="Path_1300" data-name="Path 1300" d="M23.933,38.24a1.807,1.807,0,0,0,3.613.042,1.807,1.807,0,1,0-3.613-.042" transform="translate(76.255 116.063)" fill="#101010"/>
    <path id="Path_1301" data-name="Path 1301" d="M29.427,36.428A1.811,1.811,0,1,0,31.3,38.245a1.784,1.784,0,0,0-1.875-1.817" transform="translate(88.196 116.063)" fill="#101010"/>
    <path id="Path_1302" data-name="Path 1302" d="M29.494,31.43a1.815,1.815,0,0,0-.05,3.629A1.811,1.811,0,0,0,31.3,33.222a1.789,1.789,0,0,0-1.808-1.792" transform="translate(88.196 100.143)" fill="#101010"/>
    <path id="Path_1303" data-name="Path 1303" d="M30.779,23.932a1.809,1.809,0,1,0,1.779,1.817,1.781,1.781,0,0,0-1.779-1.817" transform="translate(92.169 76.253)" fill="#101010"/>
    <path id="Path_1304" data-name="Path 1304" d="M30.749,28.928a1.834,1.834,0,0,0-1.821,1.884,1.812,1.812,0,0,0,1.863,1.75,1.817,1.817,0,0,0-.042-3.634" transform="translate(92.166 92.171)" fill="#101010"/>
    <path id="Path_1305" data-name="Path 1305" d="M28.238,32.677a1.853,1.853,0,0,0-1.813,1.817,1.836,1.836,0,0,0,3.671.046,1.858,1.858,0,0,0-1.859-1.863" transform="translate(84.195 104.116)" fill="#101010"/>
    <path id="Path_1306" data-name="Path 1306" d="M30.774,31.429a1.8,1.8,0,0,0-1.846,1.85,1.822,1.822,0,0,0,1.834,1.779,1.815,1.815,0,0,0,.013-3.629" transform="translate(92.169 100.139)" fill="#101010"/>
    <path id="Path_1307" data-name="Path 1307" d="M30.791,40.176a1.809,1.809,0,1,0-.046,3.617,1.809,1.809,0,0,0,.046-3.617" transform="translate(92.169 128.009)" fill="#101010"/>
    <path id="Path_1308" data-name="Path 1308" d="M30.769,36.3a1.813,1.813,0,0,0,0-3.625,1.826,1.826,0,0,0-1.846,1.859A1.805,1.805,0,0,0,30.769,36.3" transform="translate(92.166 104.116)" fill="#101010"/>
    <path id="Path_1309" data-name="Path 1309" d="M28.312,30.174A1.838,1.838,0,1,0,30.1,32.037a1.9,1.9,0,0,0-1.787-1.863" transform="translate(84.191 96.137)" fill="#101010"/>
    <path id="Path_1310" data-name="Path 1310" d="M29.48,38.924a1.826,1.826,0,0,0-.021,3.65,1.825,1.825,0,1,0,.021-3.65" transform="translate(88.193 124.02)" fill="#101010"/>
    <path id="Path_1311" data-name="Path 1311" d="M29.49,6.431a1.839,1.839,0,0,0-.046,3.675,1.838,1.838,0,0,0,.046-3.675" transform="translate(88.196 20.492)" fill="#101010"/>
    <path id="Path_1312" data-name="Path 1312" d="M30.761,26.344a1.834,1.834,0,0,0,.021-3.667,1.834,1.834,0,1,0-.021,3.667" transform="translate(92.166 72.254)" fill="#101010"/>
    <path id="Path_1313" data-name="Path 1313" d="M24.428,35.179a1.818,1.818,0,0,0,.117,3.634,1.866,1.866,0,0,0,1.8-1.838,1.836,1.836,0,0,0-1.913-1.8" transform="translate(72.252 112.083)" fill="#101010"/>
    <path id="Path_1314" data-name="Path 1314" d="M23.345,33.925a1.837,1.837,0,1,0,1.737,1.9,1.873,1.873,0,0,0-1.737-1.9" transform="translate(68.273 108.084)" fill="#101010"/>
    <path id="Path_1315" data-name="Path 1315" d="M21.429,38.286a1.827,1.827,0,1,0,1.85-1.859,1.821,1.821,0,0,0-1.85,1.859" transform="translate(68.273 116.064)" fill="#101010"/>
    <path id="Path_1316" data-name="Path 1316" d="M23.317,35.178a1.839,1.839,0,0,0-1.888,1.733,1.858,1.858,0,0,0,1.817,1.9,1.819,1.819,0,0,0,.071-3.638" transform="translate(68.272 112.081)" fill="#101010"/>
    <path id="Path_1317" data-name="Path 1317" d="M23.3,40.176a1.811,1.811,0,1,0,1.783,1.829A1.826,1.826,0,0,0,23.3,40.176" transform="translate(68.273 128.009)" fill="#101010"/>
    <path id="Path_1318" data-name="Path 1318" d="M23.258,37.671a1.836,1.836,0,1,0,1.825,1.813,1.874,1.874,0,0,0-1.825-1.813" transform="translate(68.272 120.028)" fill="#101010"/>
    <path id="Path_1319" data-name="Path 1319" d="M25.082,40.81a1.827,1.827,0,0,0-3.65-.172,1.827,1.827,0,1,0,3.65.172" transform="translate(68.274 124.021)" fill="#101010"/>
    <path id="Path_1320" data-name="Path 1320" d="M21.984,28.927a1.817,1.817,0,1,0,1.817,1.88,1.8,1.8,0,0,0-1.817-1.88" transform="translate(64.31 92.168)" fill="#101010"/>
    <path id="Path_1321" data-name="Path 1321" d="M22.046,36.3a1.813,1.813,0,1,0-1.863-1.821A1.779,1.779,0,0,0,22.046,36.3" transform="translate(64.306 104.116)" fill="#101010"/>
    <path id="Path_1322" data-name="Path 1322" d="M21.958,37.671A1.834,1.834,0,1,0,23.8,39.538a1.838,1.838,0,0,0-1.846-1.867" transform="translate(64.306 120.027)" fill="#101010"/>
    <path id="Path_1323" data-name="Path 1323" d="M20.184,33.317a1.809,1.809,0,1,0,1.8-1.888,1.8,1.8,0,0,0-1.8,1.888" transform="translate(64.306 100.139)" fill="#101010"/>
    <path id="Path_1324" data-name="Path 1324" d="M27.55,30.815a1.809,1.809,0,1,0-3.617-.092,1.809,1.809,0,0,0,3.617.092" transform="translate(76.255 92.168)" fill="#101010"/>
    <path id="Path_1325" data-name="Path 1325" d="M25.795,40.177a1.809,1.809,0,1,0,1.758,1.842,1.784,1.784,0,0,0-1.758-1.842" transform="translate(76.251 128.012)" fill="#101010"/>
    <path id="Path_1326" data-name="Path 1326" d="M24.523,32.561a1.838,1.838,0,0,0,1.821-1.8,1.834,1.834,0,1,0-3.667.025,1.833,1.833,0,0,0,1.846,1.779" transform="translate(72.252 92.167)" fill="#101010"/>
    <path id="Path_1327" data-name="Path 1327" d="M25.757,38.924a1.826,1.826,0,1,0,1.8,1.817,1.811,1.811,0,0,0-1.8-1.817" transform="translate(76.251 124.02)" fill="#101010"/>
    <path id="Path_1328" data-name="Path 1328" d="M24.553,30.174a1.838,1.838,0,1,0,1.792,1.859,1.883,1.883,0,0,0-1.792-1.859" transform="translate(72.252 96.137)" fill="#101010"/>
    <path id="Path_1329" data-name="Path 1329" d="M25.762,38.815a1.819,1.819,0,0,0,1.792-1.821,1.811,1.811,0,1,0-1.792,1.821" transform="translate(76.251 112.081)" fill="#101010"/>
    <path id="Path_1330" data-name="Path 1330" d="M24.452,32.678a1.813,1.813,0,0,0,.067,3.625,1.823,1.823,0,0,0,1.821-1.8,1.849,1.849,0,0,0-1.888-1.825" transform="translate(72.252 104.115)" fill="#101010"/>
    <path id="Path_1331" data-name="Path 1331" d="M22.021,40.177a1.809,1.809,0,1,0,1.779,1.9,1.784,1.784,0,0,0-1.779-1.9" transform="translate(64.306 128.012)" fill="#101010"/>
    <path id="Path_1332" data-name="Path 1332" d="M10.768,21.428a1.829,1.829,0,1,0,.017,3.659,1.83,1.83,0,0,0-.017-3.659" transform="translate(28.465 68.274)" fill="#101010"/>
    <path id="Path_1333" data-name="Path 1333" d="M24.536,31.43a1.815,1.815,0,1,0-.008,3.629,1.863,1.863,0,0,0,1.817-1.817,1.829,1.829,0,0,0-1.808-1.813" transform="translate(72.252 100.142)" fill="#101010"/>
    <path id="Path_1334" data-name="Path 1334" d="M24.493,37.6a1.838,1.838,0,1,0-1.817-1.838A1.9,1.9,0,0,0,24.493,37.6" transform="translate(72.25 108.081)" fill="#101010"/>
  </g>
</svg>
