<svg id="Group_88" data-name="Group 88" xmlns="http://www.w3.org/2000/svg" xmlns:xlink="http://www.w3.org/1999/xlink" width="28.505" height="28.395" viewBox="0 0 28.505 28.395">
  <defs>
    <clipPath id="clip-path">
      <rect id="Rectangle_72" data-name="Rectangle 72" width="28.505" height="28.395"/>
    </clipPath>
  </defs>
  <g id="Group_87" data-name="Group 87" clip-path="url(#clip-path)">
    <path id="Path_76" data-name="Path 76" d="M13.028,0h2.45a2.727,2.727,0,0,0,.371.1A14.162,14.162,0,0,1,27.965,10.382c.237.849.362,1.729.539,2.6v2.44c-.069.379-.144.758-.207,1.138A14.252,14.252,0,0,1,.446,17.687c-.186-.748-.3-1.513-.446-2.27v-2.44c.035-.158.08-.315.1-.475A13.939,13.939,0,0,1,9.7.776,27.342,27.342,0,0,1,13.028,0m-.94,11.718v9.911h3.062c0-.216,0-.4,0-.577,0-1.459-.018-2.918.012-4.377a5.178,5.178,0,0,1,.232-1.467,1.584,1.584,0,0,1,1.829-1.02,1.326,1.326,0,0,1,1.3,1.213,7.012,7.012,0,0,1,.11,1.321c.013,1.44,0,2.881.008,4.322,0,.194.021.388.032.576h3.016c0-2.3.109-4.554-.027-6.8-.173-2.843-2.089-3.688-4.506-3.277a3.338,3.338,0,0,0-2.121,1.5V11.718ZM7.038,21.634h3.044V11.722H7.038Zm1.5-11.314A1.791,1.791,0,1,0,8.547,6.74a1.79,1.79,0,1,0-.005,3.581"/>
  </g>
</svg>
