<svg id="Group_82" data-name="Group 82" xmlns="http://www.w3.org/2000/svg" xmlns:xlink="http://www.w3.org/1999/xlink" width="28.305" height="28.395" viewBox="0 0 28.305 28.395">
  <defs>
    <clipPath id="clip-path">
      <rect id="Rectangle_69" data-name="Rectangle 69" width="28.305" height="28.395"/>
    </clipPath>
  </defs>
  <g id="Group_81" data-name="Group 81" clip-path="url(#clip-path)">
    <path id="Path_71" data-name="Path 71" d="M12.927,0h2.431c.377.068.754.141,1.132.2a14.189,14.189,0,0,1,2.441,27.327,33.913,33.913,0,0,1-3.573.864H12.927a2.616,2.616,0,0,0-.367-.1A14.125,14.125,0,0,1,.536,18.011C.3,17.163.176,16.283,0,15.417v-2.44c.036-.161.081-.32.105-.482A13.954,13.954,0,0,1,9.56.794,26.207,26.207,0,0,1,12.927,0m-6.5,19.311c.152.094.3.2.458.28a9.222,9.222,0,0,0,13.561-8.023,1.121,1.121,0,0,1,.438-.985,11.3,11.3,0,0,0,1.106-1.15l-.076-.067-1.477.394A4.266,4.266,0,0,0,21.57,8.069c-.564.213-1.043.4-1.524.575a.722.722,0,0,1-.791-.158,3.078,3.078,0,0,0-3.313-.494A3.15,3.15,0,0,0,13.953,10.7a8.943,8.943,0,0,0-.006,1.026A9.346,9.346,0,0,1,7.306,8.34a3.548,3.548,0,0,0,.776,4.347l-1.24-.34a3.6,3.6,0,0,0,2.321,3.245l-1.15.068a3.427,3.427,0,0,0,2.953,2.225,7.143,7.143,0,0,1-4.545,1.427"/>
  </g>
</svg>
