<svg xmlns="http://www.w3.org/2000/svg" width="37" height="36" viewBox="0 0 37 36">
  <path id="Subtraction_1" data-name="Subtraction 1" d="M25,36H12A12,12,0,0,1,0,24V12A12,12,0,0,1,12,0H25A12,12,0,0,1,37,12V24A12,12,0,0,1,25,36ZM15.485,16.668l-.061.055c-.029.026-.05.045-.07.065l-.609.608c-.931.93-1.893,1.891-2.835,2.84a3.646,3.646,0,0,0-.452.561,3.7,3.7,0,0,0-.525,1.233l-.046.2,0,.008-.048.208v.965l.048.208,0,.008.046.2a3.561,3.561,0,0,0,.524,1.23,3.42,3.42,0,0,0,.707.8l.025.02a4.785,4.785,0,0,0,.571.41,4,4,0,0,0,1.164.438l.292.064h.965l.011-.009a.069.069,0,0,1,.027-.017l.136-.023c.085-.014.172-.028.257-.049a3.679,3.679,0,0,0,1.778-.974c1.3-1.282,2.589-2.581,3.57-3.57a3.433,3.433,0,0,0,.459-.575,3.578,3.578,0,0,0,.537-1.33,5.794,5.794,0,0,0,.074-.635,3.444,3.444,0,0,0-.057-.829,4.021,4.021,0,0,0-.3-.976,4.139,4.139,0,0,0-.541-.85,3.709,3.709,0,0,0-.98-.816.074.074,0,0,0-.032-.007l-.027,0-.138.14c-.09.091-.183.186-.274.282l-.027.028a2.7,2.7,0,0,0-.216.248.77.77,0,0,0-.175.506c.006.146,0,.294,0,.434a.2.2,0,0,0,.071.171l.061.048a.929.929,0,0,1,.144.129,2.08,2.08,0,0,1,.436.723,1.952,1.952,0,0,1-.54,2.069c-.934.941-1.889,1.893-2.811,2.814l0,0-.47.469a3.236,3.236,0,0,1-.3.265,1.813,1.813,0,0,1-1.131.385,2.163,2.163,0,0,1-.326-.025,1.864,1.864,0,0,1-1.391-1,1.9,1.9,0,0,1-.206-.993,1.718,1.718,0,0,1,.254-.851,2.935,2.935,0,0,1,.409-.511c.353-.362.716-.724,1.068-1.074l.006-.006.413-.412.187-.188c.158-.16.321-.324.485-.481a.235.235,0,0,0,.08-.265c-.074-.282-.136-.571-.2-.85l-.018-.086a1.547,1.547,0,0,1-.036-.3c0-.227,0-.464,0-.706,0-.088.011-.175.02-.275C15.477,16.766,15.481,16.719,15.485,16.668Zm7.946-6.357a3.655,3.655,0,0,0-.895.1,3.948,3.948,0,0,0-1.848,1.041c-1.1,1.092-2.165,2.159-3.217,3.22a4.088,4.088,0,0,0-.483.595,3.6,3.6,0,0,0-.468,1.016,3.347,3.347,0,0,0-.148.8,4.7,4.7,0,0,0,.055,1.022,4.1,4.1,0,0,0,.4,1.148,3.669,3.669,0,0,0,.783,1.006,3.82,3.82,0,0,0,.664.475l.02-.013a.218.218,0,0,0,.035-.025l.144-.142c.131-.129.264-.259.389-.393a.871.871,0,0,0,.265-.5,4.653,4.653,0,0,0,.005-.593.258.258,0,0,0-.116-.2,1.608,1.608,0,0,1-.59-.838,1.928,1.928,0,0,1-.094-.768,1.652,1.652,0,0,1,.239-.806,3.064,3.064,0,0,1,.406-.514c.831-.839,1.681-1.687,2.5-2.507l0,0,.471-.47a3.761,3.761,0,0,1,.335-.3,1.8,1.8,0,0,1,1.141-.394,2.181,2.181,0,0,1,.329.026A1.839,1.839,0,0,1,25.145,13.3a1.894,1.894,0,0,1,.205.977,1.745,1.745,0,0,1-.247.852,2.683,2.683,0,0,1-.4.5c-.43.437-.872.878-1.3,1.3l-.587.586-.026.026c-.018.018-.035.036-.053.053a.157.157,0,0,0-.051.185c.026.082.046.168.065.25.011.046.022.092.034.137a4.811,4.811,0,0,1,.171,1.329c0,.122-.017.246-.031.366-.008.064-.015.127-.021.19a.3.3,0,0,0,0,.063c0,.016,0,.035.006.058l.072-.066c.032-.029.059-.054.085-.079l.762-.762.015-.015,2.269-2.27a4.018,4.018,0,0,0,.827-1.152,3.619,3.619,0,0,0,.353-1.292,4.007,4.007,0,0,0-.091-1.291,3.886,3.886,0,0,0-1.038-1.832,3.75,3.75,0,0,0-1.085-.754,3.626,3.626,0,0,0-1.277-.345C23.676,10.315,23.552,10.311,23.432,10.311Z"/>
</svg>
