<svg xmlns="http://www.w3.org/2000/svg" width="40" height="40" viewBox="0 0 40 40">
  <g id="Component_5_1" data-name="Component 5 – 1" transform="translate(0.5 0.5)">
    <path id="Subtraction_1" data-name="Subtraction 1" d="M19.5,39A19.5,19.5,0,0,1,11.91,1.532,19.505,19.505,0,0,1,27.09,37.467,19.378,19.378,0,0,1,19.5,39Zm0-29.6a10.1,10.1,0,1,0,7.139,2.957A10.034,10.034,0,0,0,19.5,9.4Zm-.023,19.351h0a9.216,9.216,0,0,1-8.485-12.814c0,.029,0,.052,0,.071a.425.425,0,0,1,0,.077.352.352,0,0,0,.268.459c.052.016.093.114.113.171a.346.346,0,0,1,0,.175,1.233,1.233,0,0,0,.318.962l.02.029a.351.351,0,0,0,.195.1,1.023,1.023,0,0,1,.1.033l.034-.023.034-.023c-.01-.034-.017-.071-.024-.106a.581.581,0,0,0-.072-.216,1.32,1.32,0,0,1-.3-.923h.2a1.48,1.48,0,0,0,.375.981c.044.063.09.129.132.194a.228.228,0,0,1,.013.2.232.232,0,0,0,0,.249l.014.033c.144.357.449.419.744.479.07.014.143.029.213.048h.009a.131.131,0,0,0,.046-.013.227.227,0,0,1,.031-.011l.319-.074c-.007.1-.011.16-.015.215l0,.03.018.014a.065.065,0,0,0,.033.019,1.17,1.17,0,0,1,.954.564.524.524,0,0,0,.482.238c.407.012.408.019.46.41v.011c.017.13,0,.222-.118.275-.28.124-.336.347-.384.65a.957.957,0,0,0,.278.853c.03.035.062.069.095.1a.905.905,0,0,1,.316.571c0,.031.058.064.1.089l.006,0,.222.13c.154.089.312.18.461.279a.252.252,0,0,1,.068.186c.007.456.007.855,0,1.22,0,.147.01.26.192.279-.01.058-.018.115-.026.172a3.385,3.385,0,0,1-.071.382.3.3,0,0,0,.082.319.648.648,0,0,1,.182.661.794.794,0,0,0,.127.632,3.464,3.464,0,0,0,.569.741.784.784,0,0,0,.583.215c.036,0,.074,0,.117,0A.148.148,0,0,0,18.624,28c.013-.043.005-.132-.025-.15a.506.506,0,0,1-.244-.73.14.14,0,0,0,0-.076.177.177,0,0,1,0-.021l-.14-.063-.268-.12.108-.145.17-.23-.032-.044a.089.089,0,0,0-.02-.024l-.121-.079-.086-.056.074-.038a1.23,1.23,0,0,1,.163-.075l.093-.032a1.093,1.093,0,0,0,.751-.534,2.55,2.55,0,0,1,.4-.544l.072-.083a.378.378,0,0,0,.082-.391c-.006-.022-.013-.045-.02-.067a.474.474,0,0,1,.025-.457.268.268,0,0,1,.252-.136c.035,0,.07,0,.105,0s.074,0,.11,0a.422.422,0,0,0,.272-.085.567.567,0,0,0,.266-.485,3.982,3.982,0,0,1,.072-.683.75.75,0,0,1,.137-.293c.03-.042.062-.084.094-.124a.755.755,0,0,0,.226-.54l-.038-.018a.349.349,0,0,0-.093-.035.415.415,0,0,1-.331-.272.277.277,0,0,0-.284-.193l-.055,0c-.067.006-.134.009-.2.009a2.073,2.073,0,0,1-.888-.2c-.094-.044-.16-.084-.158-.209a1.015,1.015,0,0,0-.047-.347c-.1-.284-.15-.345-.394-.345-.036,0-.076,0-.121,0H18.5a.369.369,0,0,1-.368-.229c-.108-.209-.216-.385-.455-.425a.445.445,0,0,1-.366.16.385.385,0,0,1-.336-.152.375.375,0,0,0-.29-.159.805.805,0,0,1-.139-.034.412.412,0,0,0-.143-.029.3.3,0,0,0-.264.181.54.54,0,0,1-.5.312,1.062,1.062,0,0,1-.258-.036c-.217-.054-.318-.105-.3-.343a1.868,1.868,0,0,0-.019-.369c-.007-.057-.013-.114-.018-.173l-.074-.014-.433-.081a.538.538,0,0,1,.085-.212.334.334,0,0,0,.022-.414l-.212.14-.353.233a.7.7,0,0,1-.326.065c-.119,0-.206-.022-.232-.059l-.013-.018c-.1-.139-.2-.282-.111-.468.029-.063.054-.13.078-.2a1.112,1.112,0,0,1,.209-.4,1.157,1.157,0,0,1,.608-.327,2.622,2.622,0,0,1,.418-.028c.1,0,.2,0,.312.007s.221.007.335.007a.374.374,0,0,0,.023.3.5.5,0,0,0,.344.182c0-.024,0-.047,0-.071a.511.511,0,0,0-.006-.15.584.584,0,0,1,.319-.632c.1-.072.2-.141.312-.205.133-.078.251-.163.241-.346a.184.184,0,0,1,.065-.115l.059-.062a3.014,3.014,0,0,1,.852-.7,1.1,1.1,0,0,0,.321-.292c.029-.034.058-.068.087-.1a.3.3,0,0,1,.2-.121.238.238,0,0,1,.172.1l.149-.172-.071-.017a.394.394,0,0,1-.122-.04c-.044-.028-.105-.086-.1-.129s.068-.132.1-.132a.456.456,0,0,1,.282.073.421.421,0,0,0,.266.087.33.33,0,0,0,.228-.077.224.224,0,0,1,.1-.042c.017,0,.034-.009.051-.014a.565.565,0,0,0,0,.064.2.2,0,0,1-.02.122c-.059.077-.1.138-.081.182s.059.066.161.1c.124.039.248.074.378.112l.072.021c.055-.148.057-.253-.108-.317a.787.787,0,0,1-.184-.114c-.027-.02-.053-.04-.08-.058l.052-.028.225-.123.021-.013.007,0a.337.337,0,0,0-.2-.464.342.342,0,0,1-.132-.228,1.045,1.045,0,0,1-.009-.245c0-.041,0-.082,0-.126l-.3.12-.373.152c.015-.191.025-.318.036-.46l-.171-.043-.01,0c-.142-.036-.277-.07-.415-.1l-.021,0a.391.391,0,0,0-.3.3c0,.123-.007.25,0,.374s-.036.173-.145.189a.589.589,0,0,0-.507.42c-.016.045-.072.076-.126.106a.746.746,0,0,0-.073.044l-.05-.042v-.458c-.067-.021-.133-.039-.2-.057a1.948,1.948,0,0,1-.4-.139.285.285,0,0,1-.165-.249.3.3,0,0,1,.165-.258c.236-.13.471-.255.721-.388l.283-.15c.034.123.055.2.084.306l.01.036.234-.128.192-.1c-.013-.022-.027-.048-.04-.072l-.032-.061c.053-.035.1-.071.151-.106a1.331,1.331,0,0,1,.31-.187,1.849,1.849,0,0,1,.6-.118.391.391,0,0,1,.206.108c.039.03.08.061.125.09l-.349.193-.117.065-.242.133.481.114.391.092c.007-.015.016-.028.023-.042a.3.3,0,0,0,.039-.083c.027-.121.089-.18.191-.18a.335.335,0,0,1,.06.006.406.406,0,0,0,.072.007c.135,0,.214-.083.249-.263l-.031-.009-.229-.071c.093-.285-.084-.365-.288-.458l-.046-.021a1.744,1.744,0,0,0-.725-.213.9.9,0,0,0-.269.041,2.854,2.854,0,0,0-.414.167c-.032.015-.049.087-.05.132a2.051,2.051,0,0,0,.008.214c0,.046.006.095.009.152-.053-.026-.108-.046-.156-.063-.095-.035-.176-.065-.206-.121-.08-.148.011-.218.108-.293a.393.393,0,0,0,.131-.138,1.085,1.085,0,0,0-.368-.072.4.4,0,0,0-.428.263l.185.053a.213.213,0,0,1-.018.183.2.2,0,0,1-.169.057h-.065a.192.192,0,0,0-.216.128c-.01.028-.1.038-.139.04s-.108,0-.177,0h-.247c-.007-.06-.014-.117-.021-.18l-.017-.145a.927.927,0,0,0,.183.02.624.624,0,0,0,.563-.344.17.17,0,0,0-.123-.071.21.21,0,0,0-.141.079.445.445,0,0,1-.316.144.428.428,0,0,1-.346-.193.626.626,0,0,0-.473-.191.413.413,0,0,0-.222.054,2.069,2.069,0,0,0-.43.365h.243c.127,0,.188.016.21.053s.007.092-.048.2a.245.245,0,0,0,.139.033c.027,0,.054,0,.082,0s.057,0,.085,0a.24.24,0,0,1,.256.191h-.531a.076.076,0,0,1-.048-.01,1.393,1.393,0,0,0-1.033-.348.015.015,0,0,1-.008,0l-.006,0a8.824,8.824,0,0,1,5.343-1.745A9.187,9.187,0,0,1,25.622,12.6l-.095.076c-.067.054-.13.1-.2.15-.048.032-.1.06-.15.087a1.15,1.15,0,0,0-.226.146.171.171,0,0,0-.064.161.224.224,0,0,0,.158.154.336.336,0,0,1,.144.134.559.559,0,0,1,.059.133c.008.023.016.046.025.069l.123-.045.257-.092.034.24.024.171h-.55a.362.362,0,0,0-.348.222.586.586,0,0,1-.541.346c-.06,0-.132.089-.158.148a.51.51,0,0,0-.035.175c0,.028,0,.056-.009.084l.1.043.086.036-.01.046c-.013.06-.026.117-.037.166h0l-.228,0-.225,0c-.111,0-.2,0-.286.01a.274.274,0,0,0-.256.339c.007.084.021.168.035.249v.005a.329.329,0,0,0,.348.311h.1c.049,0,.113.008.175.008a.5.5,0,0,0,.545-.36.536.536,0,0,1,.118-.171,1.032,1.032,0,0,0,.08-.1c.075-.107.152-.217.281-.217a.322.322,0,0,1,.131.031.042.042,0,0,0,.017,0,.246.246,0,0,0,.118-.053,1.648,1.648,0,0,0,.142-.123l.06-.056a.969.969,0,0,0,.454.443,1.5,1.5,0,0,1,.316.232.125.125,0,0,1-.139.118c-.019,0-.038,0-.058,0h-.006l-.054,0a.173.173,0,0,0-.082.017.212.212,0,0,0,.227.184.412.412,0,0,0,.062,0c.121-.019.248-.054.221-.234a.325.325,0,0,1,.029-.144c.009-.027.019-.055.027-.086a.9.9,0,0,0-.246-.159c-.189-.1-.385-.2-.369-.491a.571.571,0,0,1,.082-.006.931.931,0,0,1,.735.4.149.149,0,0,1,.021.094c-.038.259.113.4.273.551.029.027.058.055.087.083a.7.7,0,0,0,.078-.232c.034-.161.069-.327.309-.373l.009.049c.008.042.016.085.02.128.03.34.162.478.453.478l.067,0,.044,0a.235.235,0,0,1,.259.213c.031.128.074.252.124.4.02.059.042.12.064.186a1.181,1.181,0,0,0-.2-.014c-.055,0-.109,0-.162,0h-.009c-.055,0-.112.006-.167.006a.683.683,0,0,1-.476-.155c-.159-.136-.237-.185-.359-.185a1.648,1.648,0,0,0-.341.06c-.007.084-.014.173-.022.276l-.088-.027L25.524,16.6v-.52a3.315,3.315,0,0,1-.488.048,1.786,1.786,0,0,0-.832.177.459.459,0,0,1-.229.046c-.061,0-.125-.005-.187-.011l-.1-.008h-.032a.846.846,0,0,0-.512.231l-.064.048c-.05.037-.04.163-.032.274,0,.022,0,.044,0,.063a.28.28,0,0,1-.138.276c-.176.117-.349.244-.517.367l-.218.159-.017.012c-.076.053-.141.1-.1.221s.067.193.18.193a.322.322,0,0,0,.067-.008.851.851,0,0,0-.006.1c0,.105,0,.2-.13.246-.015.006-.037.028-.035.041a1.491,1.491,0,0,1-.01.3.708.708,0,0,0,.155.646,5.756,5.756,0,0,1,.57.651.4.4,0,0,0,.353.168c.033,0,.068,0,.115-.006.215-.019.433-.041.649-.067h.012a.382.382,0,0,0,.17-.045.619.619,0,0,1,.344-.139.577.577,0,0,1,.36.166.394.394,0,0,0,.157.062,1.59,1.59,0,0,0,.169.023l.065.007.192.019.046,0-.018.2c-.014.149-.028.288-.032.429a.583.583,0,0,0,.055.275c.145.277.308.565.483.856a.27.27,0,0,1,.01.321,3.109,3.109,0,0,0-.158.293l-.044.089a.416.416,0,0,0,.082.532.4.4,0,0,1,.149.38,1.014,1.014,0,0,0,.28.9.353.353,0,0,1,.068.214c.008.111.006.22,0,.336,0,.047,0,.094,0,.142l.142.012.124.01A9.13,9.13,0,0,1,19.478,28.755Zm8.466-13H27.7v-.411l.023-.005.022-.005.167.347.036.074ZM16.1,15.638c-.037,0-.078,0-.125-.005.012-.2.134-.231.263-.269a.872.872,0,0,0,.115-.04c.033.117.031.193-.005.241S16.229,15.638,16.1,15.638Zm-.516-.148a.191.191,0,0,1-.143-.063.177.177,0,0,1-.01-.145.378.378,0,0,1,.412-.3.8.8,0,0,1,.1.006l-.358.5h0Zm1.167-.047c-.095,0-.147-.014-.174-.047s-.031-.123-.01-.245a.288.288,0,0,0,.148.057c.1.02.2.039.185.227C16.828,15.442,16.784,15.444,16.749,15.444Zm-.591-.2h0v-.271h.274c.017.1.012.157-.017.194s-.1.065-.255.078Zm.014-.35h0l-.475-.023-.235-.011a.434.434,0,0,1,.436-.292.546.546,0,0,1,.146.021.2.2,0,0,1,.129.1.261.261,0,0,1,0,.207Zm-1.1-.6h0l-.021-.037c-.02-.035-.041-.071-.059-.107s-.028-.059-.045-.1l-.036-.084.364-.061.068-.011c.014.3-.006.332-.268.4Zm11.168-.346c-.108,0-.215,0-.3-.008a.169.169,0,0,1-.092-.049.023.023,0,0,1-.007-.015.19.19,0,0,1,.044-.084l.023-.032a.039.039,0,0,1,.017-.009.359.359,0,0,0,.292-.463.15.15,0,0,1,0-.053c0-.015.006-.034.009-.059l.125.141c.095.106.184.205.266.308.022.027.019.079-.009.141-.037.083-.113.172-.183.176S26.31,13.956,26.241,13.956ZM14.3,13.137a.343.343,0,0,1-.192-.051c0-.02,0-.04,0-.059l.37-.089.164-.039c-.011.038-.02.074-.028.107-.013.057-.023.1-.037.1-.033,0-.066.009-.1.014A1.11,1.11,0,0,1,14.3,13.137Zm.053-.45c-.075,0-.165-.009-.276-.021v-.178l.428-.076.093-.017a.285.285,0,0,1-.036.23A.264.264,0,0,1,14.349,12.687Z" fill="#231f20" stroke="rgba(0,0,0,0)" stroke-miterlimit="10" stroke-width="1"/>
  </g>
</svg>
