<svg xmlns="http://www.w3.org/2000/svg" width="8.124" height="15" viewBox="0 0 8.124 15">
  <path id="Path_1602" data-name="Path 1602" d="M32.14-34.437c0-.579,0-1.116,0-1.653s.228-.78.775-.8c.5-.02,1-.029,1.5-.032.252,0,.387-.113.388-.365,0-.714,0-1.428-.005-2.142a.35.35,0,0,0-.4-.391c-.687,0-1.376-.023-2.062.015a3.265,3.265,0,0,0-3.293,2.8,16.044,16.044,0,0,0-.093,2.217c0,.116,0,.233,0,.364-.647,0-1.25,0-1.853,0-.239,0-.41.088-.413.344-.008.8-.007,1.595,0,2.392a.313.313,0,0,0,.357.336l1.338,0h.572v.368q0,2.8,0,5.591c0,.509.059.568.579.569q.99,0,1.979,0c.546,0,.611-.066.612-.6q0-2.8,0-5.591c0-.107.01-.214.016-.341.725,0,1.421,0,2.116,0,.381,0,.451-.075.452-.461q0-1.057,0-2.114c0-.424-.074-.495-.508-.5-.676,0-1.352,0-2.062,0" transform="translate(-26.683 39.828)" fill="#fff"/>
</svg>
