<?xml version="1.0" encoding="UTF-8"?>
<svg id="Layer_2" data-name="Layer 2" xmlns="http://www.w3.org/2000/svg" viewBox="0 0 8.12 15">
  <defs>
    <style>
      .cls-1 {
        fill: #2e2d2d;
      }
    </style>
  </defs>
  <g id="Layer_1-2" data-name="Layer 1">
    <path id="Path_1473" data-name="Path 1473" class="cls-1" d="M5.46,5.39v-1.65c0-.54.23-.78.78-.8.5-.02,1-.03,1.5-.03.25,0,.39-.11.39-.37,0-.71,0-1.43,0-2.14.02-.19-.11-.37-.3-.39-.03,0-.07,0-.1,0-.69,0-1.38-.02-2.06.01-1.65-.03-3.06,1.17-3.29,2.8-.08.74-.11,1.48-.09,2.22v.36H.42c-.24,0-.41.09-.41.34C0,6.55,0,7.34,0,8.14c-.01.17.11.32.29.34.02,0,.05,0,.07,0h1.91v5.96c0,.51.06.57.58.57.66,0,1.32,0,1.98,0,.55,0,.61-.07.61-.6v-5.59c0-.11,0-.21.02-.34h2.12c.38,0,.45-.08.45-.46v-2.11c0-.42-.07-.49-.51-.5h-2.06"/>
  </g>
</svg>