<svg xmlns="http://www.w3.org/2000/svg" width="16.059" height="16" viewBox="0 0 16.059 16">
  <path id="Union_3" data-name="Union 3" d="M3.984,14.974A4.006,4.006,0,0,1,1.12,13.863,4.089,4.089,0,0,1,.011,10.986C0,10.172,0,9.346,0,8.546c0-.361,0-.732,0-1.1s0-.705,0-1.058C0,5.628,0,4.84.009,4.064A3.816,3.816,0,0,1,4.071.014C5.366,0,6.541,0,7.664,0c1.182,0,2.279,0,3.355.016a3.791,3.791,0,0,1,4.013,3.945c.037,2.347.037,4.727,0,7.075a3.984,3.984,0,0,1-1.108,2.832,4,4,0,0,1-2.838,1.106c-1.133.018-2.311.027-3.5.027C6.427,15,5.214,14.991,3.984,14.974ZM4.01,4.039a4.922,4.922,0,0,0,3.509,8.371h.008a4.921,4.921,0,0,0-.011-9.842H7.507A4.906,4.906,0,0,0,4.01,4.039Zm7.713-1.645a.75.75,0,1,0,.75-.75A.751.751,0,0,0,11.722,2.394ZM4.293,7.526a3.18,3.18,0,0,1,3.19-3.253,3.217,3.217,0,1,1,.075,6.433H7.527A3.184,3.184,0,0,1,4.293,7.526Z" transform="translate(0.499 0.5)" fill="#fff" stroke="rgba(0,0,0,0)" stroke-width="1"/>
</svg>
