<?xml version="1.0" encoding="UTF-8"?>
<svg id="Layer_2" data-name="Layer 2" xmlns="http://www.w3.org/2000/svg" viewBox="0 0 15.06 15">
  <defs>
    <style>
      .cls-1 {
        fill: #2e2d2d;
      }
    </style>
  </defs>
  <g id="Layer_1-2" data-name="Layer 1">
    <path id="Union_1" data-name="Union 1" class="cls-1" d="M3.98,14.97c-1.06.02-2.09-.37-2.86-1.11C.39,13.09,0,12.05.01,10.99c-.01-.81-.01-1.64-.01-2.44v-2.16c0-.76,0-1.55,0-2.32C-.12,1.96,1.47.15,3.57.01c.17-.01.33-.01.5,0,1.3-.01,2.47-.01,3.59-.01,1.18,0,2.28,0,3.36.02,2.09-.12,3.89,1.47,4.01,3.56,0,.13,0,.26,0,.39.04,2.35.04,4.73,0,7.07.02,1.05-.38,2.07-1.11,2.83-.76.73-1.78,1.13-2.84,1.11-1.13.02-2.31.03-3.5.03-1.16,0-2.37,0-3.6-.03ZM4.01,4.04c-1.9,1.94-1.88,5.06.06,6.96.92.9,2.16,1.41,3.45,1.41h0c2.72,0,4.92-2.21,4.92-4.93,0-2.72-2.21-4.92-4.93-4.92h0c-1.32,0-2.58.53-3.5,1.47ZM11.72,2.39c0,.41.34.75.75.75s.75-.34.75-.75-.34-.75-.75-.75-.75.34-.75.75h0ZM4.29,7.53c-.04-1.76,1.35-3.21,3.11-3.25.03,0,.06,0,.08,0,1.78-.04,3.25,1.36,3.3,3.14.04,1.78-1.36,3.25-3.14,3.3-.03,0-.06,0-.09,0h-.03c-1.76.03-3.21-1.38-3.23-3.13,0-.02,0-.03,0-.05Z"/>
  </g>
</svg>