<svg xmlns="http://www.w3.org/2000/svg" width="15.097" height="15" viewBox="0 0 15.097 15">
  <g id="Group_344" data-name="Group 344" transform="translate(-265.874 -905.868)">
    <path id="Path_76" data-name="Path 76" d="M17.256,16.881v9.982H20.34c0-.218,0-.4,0-.582,0-1.469-.018-2.939.012-4.408a5.215,5.215,0,0,1,.234-1.477,1.6,1.6,0,0,1,1.842-1.027A1.335,1.335,0,0,1,23.74,20.59a7.061,7.061,0,0,1,.111,1.33c.014,1.451,0,2.9.008,4.352,0,.2.021.391.032.58h3.038c0-.99.02-1.973.035-3.129.014-1.127.017-2.424-.062-3.715-.174-2.863-2.1-3.714-4.538-3.3a3.362,3.362,0,0,0-2.136,1.509V16.881Zm-5.085,9.987h3.066V16.886H12.171Zm1.514-11.394a1.8,1.8,0,1,0,.005-3.606,1.8,1.8,0,1,0-.005,3.606" transform="translate(254 894)" fill="#fff"/>
  </g>
</svg>
