<?xml version="1.0" encoding="UTF-8"?>
<svg id="Layer_2" data-name="Layer 2" xmlns="http://www.w3.org/2000/svg" viewBox="0 0 27.38 27.52">
  <defs>
    <style>
      .cls-1, .cls-2 {
        isolation: isolate;
      }

      .cls-2 {
        font-family: Montserrat-Bold, Montserrat;
        font-size: 13.43px;
        font-weight: 700;
      }

      .cls-2, .cls-3 {
        fill: #fff;
      }
    </style>
  </defs>
  <g id="Layer_1-2" data-name="Layer 1">
    <g>
      <path id="Path_852" data-name="Path 852" class="cls-3" d="M0,27.52c.35-1.27.68-2.49,1.01-3.71.28-1.04.57-2.08.85-3.12.03-.14.01-.29-.05-.42C-1.62,14.08.26,6.31,6.12,2.36,8.83.44,12.18-.35,15.46.14c5.66.83,9.46,4.04,11.29,9.45,2.25,7.19-1.76,14.84-8.95,17.09-.76.24-1.54.41-2.33.51-2.73.36-5.5-.12-7.94-1.39-.2-.11-.43-.14-.65-.07-2.2.59-4.41,1.17-6.61,1.74-.07.02-.15.03-.27.05M3.27,24.29c.09-.02.13-.03.18-.04,1.24-.32,2.47-.64,3.71-.98.25-.08.53-.04.75.1,3.11,1.93,6.99,2.19,10.33.68,5.75-2.48,8.39-9.16,5.9-14.9-1.71-3.96-5.53-6.61-9.84-6.82-2.79-.15-5.53.75-7.68,2.53-2.51,1.99-4.04,4.97-4.18,8.17-.16,2.41.48,4.81,1.82,6.83.12.16.15.37.08.56-.36,1.28-.7,2.56-1.06,3.88"/>
      <g id="B" class="cls-1">
        <text class="cls-2" transform="translate(8.63 18.57)"><tspan x="0" y="0">B</tspan></text>
      </g>
    </g>
  </g>
</svg>
