<svg id="Group_391" data-name="Group 391" xmlns="http://www.w3.org/2000/svg" xmlns:xlink="http://www.w3.org/1999/xlink" width="69.85" height="70" viewBox="0 0 69.85 70">
  <defs>
    <clipPath id="clip-path">
      <rect id="Rectangle_280" data-name="Rectangle 280" width="69.85" height="70" fill="#1d1d1f"/>
    </clipPath>
  </defs>
  <g id="Group_390" data-name="Group 390" clip-path="url(#clip-path)">
    <path id="Path_1607" data-name="Path 1607" d="M29.719,70H26.027C-.187,68.19-9.866,33.788,12.366,18.946c.841-.561,3.684-1.9,4.093-2.333.315-.338,1-2.036,1.341-2.624C27.942-3.353,52.422-4.941,64.423,11.3,75.044,25.674,69.4,46.068,53.369,53.386A28.3,28.3,0,0,1,29.719,70M50.774,4.238A27.955,27.955,0,0,0,43.4,2.8L31.974,14.216l-.2.41a18.87,18.87,0,0,1,4.582.955,10.3,10.3,0,0,0,2.385.76ZM39.289,2.871A25.277,25.277,0,0,0,21.541,13.217a12.241,12.241,0,0,0-1.255,2.093,41.22,41.22,0,0,1,7.789-1.165ZM53.438,5.5,41.345,17.575l5.122,3.886L58.694,9.209c.042-.234-1.925-1.7-2.272-1.939A22.964,22.964,0,0,0,53.438,5.5M52.143,28.573,64.291,16.445c.06-.233-.522-1.162-.692-1.449a26.952,26.952,0,0,0-2.913-3.92L48.46,23.328a29.782,29.782,0,0,1,3.684,5.245M36.418,18.457c-2.381-.656-4.883-1.5-7.38-1.3L16.994,29.182a.463.463,0,0,0-.123.4,20.771,20.771,0,0,0,.308,2.442,44.788,44.788,0,0,0,1.192,4.62Zm-11.485-1.23a23.416,23.416,0,0,0-6.392,1.536A25.824,25.824,0,0,0,17,25.155Zm30.491,20.78L66.973,26.52c.4-.751-1.075-7.386-1.5-7.378l-11.9,11.9ZM37.45,30.493l7.026-7.065c.031-.171-.828-.848-1.02-1-.535-.435-1.245-.944-1.824-1.321-.451-.294-2.074-1.383-2.517-1.261L19.639,39.3A19.835,19.835,0,0,0,21.4,42.289c.248.353,1.672,2.318,1.938,2.271l5.76-5.732m10.318-6.5a1.367,1.367,0,0,1-1.97-1.833M31.011,40.735l-5.8,5.817a24.288,24.288,0,0,0,5.158,3.6l19.7-19.492c.168-.654-2.91-4.739-3.605-5.369L39.42,32.327M29.1,38.827a1.371,1.371,0,0,1,1.909,1.908M49.543,54.688A27.883,27.883,0,0,1,15.088,20.507a25.132,25.132,0,1,0,33.2,36.275,12.24,12.24,0,0,0,1.255-2.093m5.2-5.2A24.784,24.784,0,0,0,66.906,30.624L55.767,41.7a34.448,34.448,0,0,1-1.027,7.791M51.456,33.359,33.339,51.407a20.986,20.986,0,0,0,7.109,1.5L52.9,40.6a27.042,27.042,0,0,0-1.442-7.241m-.17,17.878a24.808,24.808,0,0,0,1.537-6.529l-8.065,8a19.454,19.454,0,0,0,6.528-1.469" transform="translate(0 0)" fill="#1d1d1f"/>
  </g>
</svg>
