<svg id="Group_393" data-name="Group 393" xmlns="http://www.w3.org/2000/svg" xmlns:xlink="http://www.w3.org/1999/xlink" width="72.758" height="70" viewBox="0 0 72.758 70">
  <defs>
    <clipPath id="clip-path">
      <rect id="Rectangle_281" data-name="Rectangle 281" width="72.758" height="70" fill="#1d1d1f"/>
    </clipPath>
  </defs>
  <g id="Group_392" data-name="Group 392" clip-path="url(#clip-path)">
    <path id="Path_1608" data-name="Path 1608" d="M0,25.068a8.373,8.373,0,0,1,15.559-2.984h2.487V4.536A4.7,4.7,0,0,1,20.891.417,18.143,18.143,0,0,1,28.92.483c1.008.4,2.625,2.109,2.625,3.2v18.4H67.424c1.4-1.085,3.948-5.332,5.319-2.051l.015,48.309c0,1.148-.838,1.668-1.917,1.635-21.346-.132-42.732.234-64.054-.185A8.827,8.827,0,0,1,0,62.581ZM28.7,11.285V4.109a4.694,4.694,0,0,0-.366-.629A2.349,2.349,0,0,0,26.79,2.9a26.169,26.169,0,0,0-4.376.039c-.408.069-1.384.6-1.384,1.031v7.318Zm0,2.842H21.03V52.919h2.416V22.013c0-.461.854-1.065,1.347-1.071.565-.007,1.5.649,1.5,1.213V52.919H28.7ZM6.821,20.948A5.082,5.082,0,0,0,3.243,24.12a8.294,8.294,0,0,0-.4,1.3V55.192a8.543,8.543,0,0,1,10.941,0V25.566a9.237,9.237,0,0,0-.634-1.924,5.071,5.071,0,0,0-3.487-2.694V43.754a3.923,3.923,0,0,1-.514.622,1.508,1.508,0,0,1-2.327-1.19Zm63.09,39.5V23.789l-3.969,3.927c1.789,1.944-.117,3.986-2.1,2.2L60.538,33.1c.721.716,1.245,1.543.429,2.424-1.154,1.247-2.361-.389-2.566-.3l-3.116,3.153c1.808,1.921-.177,4.076-2.091,2.194l-3.313,3.185c.721.716,1.245,1.543.429,2.424-1.154,1.247-2.361-.389-2.566-.3l-3.116,3.153c1.808,1.921-.177,4.076-2.091,2.194l-3.313,3.185c2.066,1.8-.274,4.1-2.066,2.066L33.25,60.45ZM18.046,24.926,16.481,25c.033.288.142.55.151.844.361,11.9-.256,23.872-.041,35.78a1.392,1.392,0,0,1-1.734,1.234c-1.291-.205-1.048-1.745-1.283-2.7A5.455,5.455,0,0,0,3.157,59.7c-1.135,3.316,1.349,7.429,5.013,7.429h61.74V63.292H29.2c-.773,0-1.332-1.785-.64-2.345l35.95-36.021H31.545V54.837c0,.565-1.087.829-1.288,1.023-.335.325-3.8,5.12-3.9,5.437-.312.92-.044,2.042-1.558,2.007-1.555-.036-1.122-1.25-1.48-2.085-.154-.359-3.566-4.952-3.929-5.307-.525-.514-1.34-.57-1.34-1.644Zm8.668,30.835H22.877l1.918,2.7a7.581,7.581,0,0,0,.9-1.089c.125-.162,1.125-1.518,1.021-1.608" transform="translate(0 0)" fill="#1d1d1f"/>
  </g>
</svg>
