<svg id="Group_395" data-name="Group 395" xmlns="http://www.w3.org/2000/svg" xmlns:xlink="http://www.w3.org/1999/xlink" width="110.58" height="70" viewBox="0 0 110.58 70">
  <defs>
    <clipPath id="clip-path">
      <rect id="Rectangle_282" data-name="Rectangle 282" width="110.58" height="70" fill="#1d1d1f"/>
    </clipPath>
  </defs>
  <g id="Group_394" data-name="Group 394" clip-path="url(#clip-path)">
    <path id="Path_1609" data-name="Path 1609" d="M110.58,68.689c-.46.722-.812,1.338-1.822,1.31H1.834A1.855,1.855,0,0,1,0,67.944V2.056A1.97,1.97,0,0,1,1.253.074L108.758,0c1.01-.028,1.362.588,1.822,1.31Zm-66.3-65H3.683v40.6L6.3,38.162A67.607,67.607,0,0,1,34.56,8.109Zm20.3,0C31.2,4.374,3.4,32.9,3.683,66.313h60.9Zm42.327,38.656a44.714,44.714,0,0,0-3.7-14.978A40.977,40.977,0,0,0,68.253,3.687V42.342Zm0-38.656H84.234L91.428,7.83a46.643,46.643,0,0,1,11.6,11.724l3.881,6.809Zm-.216,42.327H84.881v20.3c11.206.047,21.246-9.069,21.811-20.3m-33.041.432a7,7,0,0,0-5.183,5.183h5.183Zm7.343,5.183a5.087,5.087,0,0,0-3.671-5.183V51.3l.324.324Zm0,3.671H68.469c.6,6.213,6.384,10.966,12.525,11.014Zm25.914,11.014V57.675a47.488,47.488,0,0,1-5.069,5.836c-1.145,1-2.508,1.716-3.569,2.8Zm-36.28,0-2.373-2.373,0,2.376Z" transform="translate(0 0)" fill="#1d1d1f"/>
  </g>
</svg>
