<?xml version="1.0" encoding="UTF-8"?><svg id="Layer_2" xmlns="http://www.w3.org/2000/svg" viewBox="0 0 102.35 111.63"><defs><style>.cls-1{fill:#da9777;}</style></defs><g id="Layer_1-2"><g><path class="cls-1" d="M80.46,47.39c.54-.77,1.04-1.45,1.52-2.14,3.02-4.11,2.68-9.78-.8-13.5-1.18-1.33-2.71-2.31-4.41-2.83-.39-.12-.77-.27-1.25-.44,1.84-2.81,2.25-6.31,1.11-9.47-.77-2.34-2.36-4.31-4.48-5.55-2.76-1.65-6.11-1.97-9.12-.86-3.19,1.08-5.12,3.57-6.87,6.35-.67-.68-1.22-1.33-1.87-1.87-4.03-3.55-10.18-3.15-13.73,.88-.14,.16-.28,.32-.41,.49-1.91,2.42-3.63,5-5.43,7.51-4.09,5.74-8.17,11.48-12.25,17.23l-.84,1.19c-.08-.81-.1-1.31-.18-1.8-.58-3.63-.96-7.31-1.8-10.87-.91-3.84-3.73-6.02-7.47-6.88-3.34-.97-6.93,.14-9.13,2.83-1.35,1.53-2.05,3.53-1.95,5.58,.76,12.89-.35,25.73-.99,38.58-.22,4.4-.21,8.73,1.07,12.99,1.91,6.39,5.63,12.08,10.71,16.4,.22,.21,.43,.44,.62,.68l4.93,3.5h0c2.04,1.12,4.02,2.33,6.12,3.33,5.3,2.52,10.82,3.64,16.67,2.4,3.51-.74,6.82-2.23,9.71-4.35,3.98-2.91,7.46-6.46,10.3-10.49,8.18-11.56,16.39-23.11,24.61-34.64,2.28-2.85,2.59-6.81,.79-9.99-1.12-2.02-2.97-3.55-5.18-4.26Zm-.72,10.65c-4.32,6.05-8.63,12.1-12.92,18.16h0c-3.93,5.52-7.86,11.03-11.77,16.56-2.21,3.16-4.88,5.97-7.94,8.32-5.42,4.14-11.37,5.48-17.92,3.17-5.66-1.99-10.79-5.23-15.02-9.48-4.76-4.54-7.59-10.73-7.92-17.29-.13-2.83,.19-5.68,.3-8.52,.35-9.01,.74-18.03,1.02-27.04,.08-2.7-.15-5.41-.23-8.12-.05-1.53,.43-2.43,1.47-2.82,2.05-.62,4.22,.51,4.89,2.55,.28,1.11,.52,2.23,.71,3.36,.79,4.31,1.1,8.68,.95,13.06-.14,1.72,.82,3.35,2.4,4.06,1.43,.82,3.21,.7,4.52-.3,.63-.49,1.17-1.08,1.61-1.74,6.84-9.58,13.66-19.18,20.48-28.77,.34-.52,.74-1,1.19-1.43,1.48-1.27,3.71-1.11,4.98,.37,1.1,1.28,1.14,3.16,.1,4.49-4.7,6.63-9.41,13.25-14.12,19.87-.22,.31-.45,.62-.65,.94-.76,1.27-.52,2.9,.58,3.89,1.06,.98,2.66,1.08,3.84,.25,.48-.39,.91-.86,1.25-1.37,6.95-9.76,13.89-19.52,20.83-29.28,.26-.37,.52-.74,.81-1.09,1.2-1.42,3.14-1.96,4.91-1.38,1.73,.6,2.9,2.21,2.93,4.03-.02,1.19-.45,2.33-1.22,3.24-6.95,9.76-13.89,19.52-20.82,29.29-.33,.44-.62,.92-.86,1.42-.56,1.29-.18,2.79,.92,3.66,1.11,.86,2.66,.88,3.78,.04,.44-.39,.82-.85,1.14-1.34,5.13-7.17,10.26-14.35,15.39-21.53,.3-.42,.61-.85,.95-1.24,1.27-1.41,3.32-1.81,5.03-.99,2.2,1.17,3.04,3.9,1.86,6.1-.1,.2-.22,.39-.36,.57-5.35,7.45-10.59,14.97-15.87,22.46-1.34,1.9-1.21,3.74,.34,4.87,1.55,1.12,3.43,.63,4.8-1.3,2.98-4.19,5.96-8.38,8.93-12.57,.2-.28,.4-.57,.62-.84,.67-.89,1.83-1.26,2.89-.93,.98,.23,1.72,1.03,1.89,2.02,.17,.93-.09,1.9-.71,2.62Z"/><path class="cls-1" d="M29.31,10.95c.3,0,.57-.16,.72-.41,1.34-2,3.05-3.72,5.05-5.07,4.57-3.18,10.05-4.37,16.28-3.55,.46,.06,.88-.26,.94-.72,.06-.46-.26-.88-.72-.94-8.33-1.1-14.13,1.51-17.52,3.89-2.17,1.47-4.02,3.36-5.46,5.55-.08,.13-.12,.27-.12,.42,0,.46,.37,.84,.83,.84Z"/><path class="cls-1" d="M33.99,12.4c1.02-1.52,2.33-2.83,3.85-3.86,3.63-2.45,8.07-3.42,12.39-2.7,.46,.06,.88-.26,.94-.72s-.26-.88-.72-.94c-4.76-.77-9.64,.31-13.63,3.03-1.69,1.15-3.14,2.62-4.26,4.33-.08,.13-.11,.27-.12,.42,0,.46,.37,.84,.83,.84h0c.29,0,.57-.15,.72-.4Z"/><path class="cls-1" d="M102.16,51.47c-.31-2.6-1.13-5.12-2.41-7.4-.24-.38-.75-.49-1.13-.26-.39,.24-.52,.75-.28,1.15,1.16,2.11,1.9,4.43,2.18,6.82,.72,5.52-.74,10.94-4.34,16.09-.1,.14-.15,.31-.15,.48,0,.46,.37,.84,.83,.84h0c.27,0,.53-.14,.68-.36,4.82-6.89,5.16-13.24,4.61-17.34Z"/><path class="cls-1" d="M98.16,52.52c-.24-2.03-.88-3.99-1.88-5.78-.25-.37-.74-.49-1.12-.26-.4,.24-.53,.75-.29,1.14,.05,.08,4.89,8.05-1.66,17.43-.1,.14-.15,.31-.15,.48,0,.46,.37,.84,.83,.84h0c.27,0,.53-.13,.69-.35,2.88-3.87,4.16-8.71,3.59-13.5Z"/></g></g></svg>