<?xml version="1.0" encoding="UTF-8"?>
<svg id="Layer_2" data-name="Layer 2" xmlns="http://www.w3.org/2000/svg" viewBox="0 0 171.84 74">
  <defs>
    <style>
      .cls-1 {
        fill: #1d1d1b;
      }
    </style>
  </defs>
  <g id="Layer_1-2" data-name="Layer 1">
    <g>
      <g>
        <rect class="cls-1" y="0" width="8.11" height="69.33"/>
        <polygon class="cls-1" points="45.37 69.34 37.26 69.34 28.97 0 34.62 0 37.08 0 37.3 1.81 45.37 69.34"/>
        <path class="cls-1" d="M27.4,31.59C27.09,20.57,25.12,9.96,21.72,0h-8.71c4.02,10.8,6.23,22.49,6.23,34.67s-2.2,23.86-6.21,34.66h8.7c3.4-9.96,5.37-20.56,5.68-31.58.03-1.02.05-2.05.05-3.08s-.01-2.06-.05-3.08h0Z"/>
      </g>
      <g>
        <path class="cls-1" d="M58.14,63.37c1.55,0,2.67,1.15,2.67,2.7,0,.1-.01.3-.03.4-.02.15-.13.25-.27.25h-4.25c.06.99.93,1.92,1.98,1.92.62,0,1.12-.24,1.46-.44.21-.12.3-.19.41-.03.09.12.16.22.25.34.1.13.16.22-.06.38-.35.28-1.15.68-2.17.68-1.79,0-2.89-1.4-2.89-3.1s1.11-3.1,2.89-3.1h0ZM59.79,65.9c-.04-.86-.75-1.62-1.65-1.62-.99,0-1.76.71-1.86,1.62h3.51Z"/>
        <path class="cls-1" d="M62.43,59.37c0-.15.13-.28.28-.28h.46c.15,0,.28.13.28.28v9.77c0,.15-.13.28-.28.28h-.46c-.15,0-.28-.13-.28-.28v-9.77Z"/>
        <path class="cls-1" d="M68.03,63.37c1.55,0,2.67,1.15,2.67,2.7,0,.1-.01.3-.03.4-.01.15-.13.25-.27.25h-4.25c.06.99.93,1.92,1.98,1.92.62,0,1.12-.24,1.46-.44.21-.12.3-.19.41-.03.09.12.16.22.25.34.1.13.16.22-.06.38-.35.28-1.15.68-2.17.68-1.79,0-2.89-1.4-2.89-3.1s1.11-3.1,2.89-3.1h0ZM69.68,65.9c-.04-.86-.75-1.62-1.65-1.62-.99,0-1.76.71-1.86,1.62h3.51Z"/>
        <path class="cls-1" d="M71.49,63.86c-.09-.19,0-.34.22-.34h.46c.13,0,.22.07.26.16l1.83,4.22h.01l1.95-4.22c.04-.09.13-.16.25-.16h.38c.22,0,.31.15.22.34l-2.52,5.56c-.03.07-.12.15-.25.15h-.07c-.13,0-.22-.07-.25-.15l-2.49-5.56h0Z"/>
        <path class="cls-1" d="M80.31,65.68c.63,0,1.25.19,1.25.19.02-1.09-.12-1.59-.96-1.59s-1.5.22-1.77.32c-.15.06-.24-.01-.28-.15l-.12-.37c-.06-.18.03-.26.16-.32.09-.04.94-.38,2.05-.38,1.5,0,1.87.77,1.87,2.49v3.28c0,.15-.13.28-.28.28h-.28c-.16,0-.21-.09-.25-.22l-.12-.4c-.31.31-.92.77-1.83.77-1.03,0-1.82-.75-1.82-1.93s.84-1.96,2.36-1.96h0ZM79.92,68.69c.74,0,1.37-.46,1.62-.83v-1.17c-.18-.1-.59-.24-1.24-.24-.83,0-1.42.41-1.42,1.18,0,.59.4,1.05,1.03,1.05h0Z"/>
        <path class="cls-1" d="M84.96,64.41h-.75c-.16,0-.28-.13-.28-.28v-.33c0-.16.12-.28.28-.28h.75v-1.64c0-.15.13-.28.28-.28l.47-.03c.15,0,.26.13.26.28v1.67h1.71c.16,0,.28.12.28.28v.33c0,.15-.12.28-.28.28h-1.71v3.45c0,.59.15.71.49.71.37,0,.89-.22,1.08-.32.22-.12.28-.03.35.09l.22.37c.1.18.06.27-.1.37-.21.13-1,.5-1.7.5-1.18,0-1.36-.71-1.36-1.62v-3.54h0Z"/>
        <path class="cls-1" d="M89.42,60.1c0-.4.31-.71.69-.71s.71.31.71.71-.31.69-.71.69-.69-.31-.69-.69ZM89.62,63.8c0-.15.13-.28.28-.28h.46c.15,0,.28.13.28.28v5.34c0,.15-.13.28-.28.28h-.46c-.15,0-.28-.13-.28-.28v-5.34Z"/>
        <path class="cls-1" d="M92.74,63.8c0-.15.13-.28.28-.28h.28c.13,0,.21.06.24.18l.13.46s.84-.78,2.07-.78c1.71,0,2.29,1.12,2.29,2.66v3.11c0,.15-.13.28-.28.28h-.47c-.15,0-.28-.13-.28-.28v-3.11c0-1.12-.5-1.67-1.33-1.67-1.11,0-1.9.84-1.9.84v3.94c0,.15-.13.28-.28.28h-.46c-.15,0-.28-.13-.28-.28v-5.34h0Z"/>
        <path class="cls-1" d="M100.44,67.45s-.47-.61-.47-1.48c0-1.37.96-2.6,2.49-2.6h2.49c.16,0,.28.12.28.28v.25c0,.1-.06.24-.16.25l-.8.16s.66.49.66,1.65c0,1.34-.96,2.51-2.48,2.51-.94,0-1.4-.37-1.4-.37,0,0-.65.3-.65.89,0,.37.27.72.81.72h2.12c1.24,0,2.21.61,2.21,1.89s-1.27,2.39-3.06,2.39c-1.98,0-2.83-1.06-2.83-2.04,0-.89.71-1.28.86-1.37v-.04c-.38-.1-1.08-.49-1.08-1.4,0-1.12.99-1.7.99-1.7h0ZM102.49,73.04c.97,0,1.98-.55,1.98-1.4,0-.19-.09-.96-1.12-.96h-1.64s-.99.26-.99,1.14c0,.71.77,1.22,1.77,1.22h0ZM103.95,65.94c0-.97-.59-1.65-1.48-1.65s-1.55.68-1.55,1.65.65,1.65,1.55,1.65,1.48-.68,1.48-1.65Z"/>
        <path class="cls-1" d="M109.25,63.85c-.09-.19,0-.32.22-.32h.65c.12,0,.21.07.25.16l2.18,4.52h.02l2.07-4.52c.04-.09.15-.16.25-.16h.56c.22,0,.32.15.22.34l-4.53,9.81c-.04.09-.15.18-.25.18h-.55c-.22,0-.34-.16-.24-.37l1.89-4.07-2.74-5.56h0Z"/>
        <path class="cls-1" d="M119.48,63.37c1.64,0,2.94,1.42,2.94,3.09s-1.3,3.11-2.94,3.11-2.94-1.42-2.94-3.11,1.3-3.09,2.94-3.09h0ZM119.48,68.61c1.08,0,1.92-.96,1.92-2.15s-.84-2.11-1.92-2.11-1.92.94-1.92,2.11.84,2.15,1.92,2.15Z"/>
        <path class="cls-1" d="M124.01,63.8c0-.15.13-.28.28-.28h.47c.15,0,.28.13.28.28v3.11c0,1.12.5,1.67,1.33,1.67,1.12,0,1.76-.84,1.76-.84v-3.94c0-.15.13-.28.28-.28h.46c.15,0,.28.13.28.28v5.34c0,.15-.13.28-.28.28h-.28c-.16,0-.22-.1-.27-.25l-.1-.38s-.69.78-1.92.78c-1.71,0-2.29-1.11-2.29-2.67v-3.1h0Z"/>
        <path class="cls-1" d="M131.25,63.8c0-.15.13-.28.28-.28h.28c.12,0,.22.07.25.21l.12.43s.55-.78,1.77-.78c.44,0,1.18.07,1.03.49l-.18.5c-.07.19-.21.19-.35.13-.13-.06-.35-.12-.58-.12-1.12,0-1.61.83-1.61.83v3.94c0,.15-.13.28-.28.28h-.46c-.15,0-.28-.13-.28-.28v-5.34h0Z"/>
        <path class="cls-1" d="M139.1,68.6c.06-.09.16-.3.21-.37.07-.12.24-.15.4-.04,0,0,.63.52,1.39.52.6,0,.96-.31.96-.71,0-.52-.44-.75-1.3-1.18-.78-.38-1.68-.9-1.68-1.9,0-.62.5-1.53,1.87-1.53.77,0,1.36.27,1.64.46.13.09.18.3.09.46l-.12.24c-.09.16-.3.21-.43.13,0,0-.63-.35-1.18-.35-.66,0-.84.34-.84.59,0,.49.49.71,1.09,1,1.02.49,1.93.94,1.93,2.01,0,.86-.83,1.67-2.04,1.67-.99,0-1.59-.41-1.92-.66-.07-.06-.12-.21-.07-.31h0Z"/>
        <path class="cls-1" d="M145.09,64.41h-.75c-.16,0-.28-.13-.28-.28v-.33c0-.16.12-.28.28-.28h.75v-1.64c0-.15.13-.28.28-.28l.47-.03c.15,0,.26.13.26.28v1.67h1.71c.16,0,.28.12.28.28v.33c0,.15-.12.28-.28.28h-1.71v3.45c0,.59.15.71.49.71.37,0,.89-.22,1.08-.32.22-.12.28-.03.35.09l.22.37c.1.18.06.27-.1.37-.21.13-1,.5-1.7.5-1.18,0-1.36-.71-1.36-1.62v-3.54h0Z"/>
        <path class="cls-1" d="M151.69,65.68c.63,0,1.25.19,1.25.19.01-1.09-.12-1.59-.96-1.59s-1.5.22-1.77.32c-.15.06-.24-.01-.28-.15l-.12-.37c-.06-.18.03-.26.16-.32.09-.04.94-.38,2.05-.38,1.5,0,1.87.77,1.87,2.49v3.28c0,.15-.13.28-.28.28h-.28c-.16,0-.21-.09-.25-.22l-.12-.4c-.31.31-.92.77-1.83.77-1.03,0-1.82-.75-1.82-1.93s.84-1.96,2.36-1.96h0ZM151.31,68.69c.74,0,1.37-.46,1.62-.83v-1.17c-.18-.1-.59-.24-1.24-.24-.83,0-1.42.41-1.42,1.18,0,.59.4,1.05,1.03,1.05h0Z"/>
        <path class="cls-1" d="M156.34,64.41h-.75c-.16,0-.28-.13-.28-.28v-.33c0-.16.12-.28.28-.28h.75v-1.64c0-.15.13-.28.28-.28l.47-.03c.15,0,.26.13.26.28v1.67h1.71c.16,0,.28.12.28.28v.33c0,.15-.12.28-.28.28h-1.71v3.45c0,.59.15.71.49.71.37,0,.89-.22,1.08-.32.22-.12.28-.03.35.09l.22.37c.1.18.06.27-.1.37-.21.13-1,.5-1.7.5-1.18,0-1.36-.71-1.36-1.62v-3.54h0Z"/>
        <path class="cls-1" d="M160.93,63.8c0-.15.13-.28.28-.28h.47c.15,0,.28.13.28.28v3.11c0,1.12.5,1.67,1.33,1.67,1.12,0,1.76-.84,1.76-.84v-3.94c0-.15.13-.28.28-.28h.46c.15,0,.28.13.28.28v5.34c0,.15-.13.28-.28.28h-.28c-.16,0-.22-.1-.27-.25l-.1-.38s-.69.78-1.92.78c-1.71,0-2.29-1.11-2.29-2.67v-3.1h0Z"/>
        <path class="cls-1" d="M167.81,68.6c.06-.09.16-.3.21-.37.07-.12.24-.15.4-.04,0,0,.63.52,1.39.52.6,0,.96-.31.96-.71,0-.52-.44-.75-1.3-1.18-.78-.38-1.68-.9-1.68-1.9,0-.62.5-1.53,1.87-1.53.77,0,1.36.27,1.64.46.13.09.18.3.09.46l-.12.24c-.09.16-.3.21-.43.13,0,0-.63-.35-1.18-.35-.66,0-.84.34-.84.59,0,.49.49.71,1.09,1,1.02.49,1.93.94,1.93,2.01,0,.86-.83,1.67-2.04,1.67-.99,0-1.59-.41-1.92-.66-.07-.06-.12-.21-.07-.31h0Z"/>
      </g>
      <g>
        <path class="cls-1" d="M61.94,0c1.76,0,3.17,1.4,3.2,3.17v18.87c-.04,1.76-1.44,3.17-3.2,3.17h-7.03V0h7.03ZM62.59,3.89c0-.94-.65-1.3-1.37-1.3h-3.71v20.06h3.71c.72,0,1.37-.36,1.37-1.33V3.89h0Z"/>
        <path class="cls-1" d="M85.97,22.65c-.29.65-.72,1.66-.83,1.87-.18.32-.58.68-1.4.68h-5.76V.72c.04-.4.36-.72.79-.72h6.73l-.86,1.87c-.14.32-.54.72-1.37.72h-2.09c-.36,0-.61.25-.61.61v7.49h3.89c-.29.65-.72,1.69-.83,1.91-.18.32-.54.68-1.37.68h-1.08c-.32,0-.61.29-.61.61v8.75h5.4Z"/>
        <path class="cls-1" d="M107.44,1.87c-.14.32-.54.68-1.37.68h-2.02c-.36,0-.61.29-.65.61v22.04h-1.84c-.61,0-.72-.36-.72-.54V2.56h-3.64V.79C97.21.36,97.57,0,98,0h10.3l-.86,1.87h0Z"/>
        <path class="cls-1" d="M128.57,32.31c-.14.32-.54.68-1.37.68h-2.02c-.36,0-.61.29-.65.61v22.04h-1.84c-.61,0-.72-.36-.72-.54v-22.11h-3.64v-1.76c0-.43.36-.79.79-.79h10.3l-.86,1.87h0Z"/>
        <path class="cls-1" d="M129.01,25.2h-2.84l-2.27-17.35-2.27,17.35h-2.84l3.82-25.2h1.4c1.08,0,1.26.68,1.37,1.37l3.64,23.84h0Z"/>
        <path class="cls-1" d="M145.5,0c.76,0,1.04.58,1.04,1.01v24.2h-1.84c-.61,0-.72-.36-.76-.54V0h1.55,0Z"/>
        <path class="cls-1" d="M170.86,22.65c-.29.65-.72,1.66-.83,1.87-.18.32-.58.68-1.4.68h-6.19V0h1.8c.43.04.79.36.79.79v21.86h5.83,0Z"/>
        <path class="cls-1" d="M66.22,55.64h-2.56v-13l-1.94,8.64h-.79c-1.51,0-1.8-1.51-1.94-2.05l-1.51-6.59v13h-2.56v-25.2h1.58c1.01,0,1.15.94,1.15.94l2.99,14.47,2.84-14.51c.04-.11.22-.9,1.15-.9h1.58v25.2h0Z"/>
        <path class="cls-1" d="M87.09,55.64h-2.84l-2.27-17.35-2.27,17.35h-2.84l3.82-25.2h1.4c1.08,0,1.26.68,1.37,1.37l3.64,23.84h0Z"/>
        <path class="cls-1" d="M104.12,36.78v-2.92c0-.79-.61-1.4-1.37-1.4s-1.37.61-1.37,1.4v2.41c0,1.48,1.12,3.38,1.12,3.38l3.1,5.83c1.26,2.3,1.15,4,1.15,4v3.2c0,1.76-1.44,3.2-3.24,3.2h-1.62c-1.73-.07-3.1-1.48-3.13-3.2v-2.59c0-.83.4-1.22.72-1.4.22-.07,1.26-.54,1.91-.83v4.39c0,.76.61,1.37,1.37,1.37s1.37-.61,1.37-1.41v-2.88c0-1.48-1.12-3.42-1.12-3.42l-3.1-5.8c-1.26-2.3-1.15-4-1.15-4v-2.59c0-1.76,1.44-3.35,3.24-3.35h1.62c1.73.04,3.13,1.62,3.13,3.35v.97c0,.83-.4,1.22-.72,1.4-.22.11-1.22.58-1.91.86h0Z"/>
        <path class="cls-1" d="M149.24,53.09c-.29.65-.72,1.66-.83,1.87-.18.32-.58.68-1.41.68h-5.76v-24.48c.04-.4.36-.72.79-.72h6.73l-.86,1.87c-.14.32-.54.72-1.37.72h-2.09c-.36,0-.61.25-.61.61v7.49h3.89c-.29.65-.72,1.69-.83,1.91-.18.32-.54.68-1.37.68h-1.08c-.32,0-.61.29-.61.61v8.75h5.4Z"/>
        <path class="cls-1" d="M168.91,55.64v-9.22c0-1.22-.65-1.62-1.33-1.62h-3.21v10.84h-2.59v-25.2h6.56c1.73,0,3.17,1.4,3.17,3.17v7.25s.16,2.76-1.24,2.76c1.39,0,1.24,2.69,1.24,2.69v9.34h-2.59,0ZM167.58,42.36c.68,0,1.33-.29,1.33-1.44v-6.77c0-.94-.65-1.3-1.33-1.3h-3.21v9.51h3.21Z"/>
      </g>
    </g>
  </g>
</svg>