<?xml version="1.0" encoding="UTF-8"?>
<svg id="Layer_2" data-name="Layer 2" xmlns="http://www.w3.org/2000/svg" viewBox="0 0 1920 1027.74">
  <defs>
    <style>
      .cls-1 {
        fill: #1d1d1b;
      }
    </style>
  </defs>
  <g id="Layer_1-2" data-name="Layer 1">
    <g>
      <rect class="cls-1" x="785.96" y=".03" width="62.2" height="531.91"/>
      <polygon class="cls-1" points="1134.04 531.94 1071.84 531.94 1008.22 .03 1051.58 .03 1070.42 .03 1072.08 13.89 1134.04 531.94"/>
      <path class="cls-1" d="M996.16,242.36c-2.34-84.56-17.45-165.98-43.54-242.36h-66.84c30.86,82.86,47.77,172.55,47.77,266.02s-16.91,183.07-47.68,265.93h66.75c26.09-76.38,41.2-157.7,43.54-242.27.27-7.83.36-15.74.36-23.66s-.09-15.83-.36-23.66h0Z"/>
    </g>
    <g>
      <path class="cls-1" d="M54.67,632.92c13.73,0,24.65,10.92,24.93,24.65v146.78c-.28,13.73-11.2,24.65-24.93,24.65H0v-196.09h54.67ZM59.71,663.17c0-7.28-5.04-10.09-10.65-10.09h-28.9v156.03h28.9c5.6,0,10.65-2.8,10.65-10.36v-135.58Z"/>
      <path class="cls-1" d="M255.25,809.11c-2.24,5.04-5.6,12.89-6.44,14.57-1.4,2.52-4.48,5.32-10.93,5.32h-44.82v-190.48c.28-3.08,2.8-5.6,6.16-5.6h52.38l-6.72,14.56c-1.12,2.52-4.2,5.6-10.64,5.6h-16.25c-2.8,0-4.76,1.96-4.76,4.77v58.26h30.25c-2.24,5.04-5.6,13.17-6.44,14.84-1.4,2.52-4.2,5.33-10.65,5.33h-8.4c-2.52,0-4.76,2.24-4.76,4.76v68.07h42.02,0Z"/>
      <path class="cls-1" d="M416.62,647.48c-1.12,2.52-4.2,5.32-10.65,5.32h-15.69c-2.8,0-4.76,2.24-5.04,4.77v171.43h-14.29c-4.76,0-5.6-2.8-5.6-4.2v-172h-28.29v-13.72c0-3.36,2.8-6.16,6.16-6.16h80.12l-6.72,14.56h0Z"/>
      <path class="cls-1" d="M1585.95,647.48c-1.12,2.52-4.2,5.32-10.65,5.32h-15.69c-2.8,0-4.76,2.24-5.04,4.77v171.43h-14.29c-4.76,0-5.6-2.8-5.6-4.2v-172h-28.29v-13.72c0-3.36,2.8-6.16,6.16-6.16h80.12l-6.72,14.56h0Z"/>
      <path class="cls-1" d="M572.94,829h-22.13l-17.65-135.02-17.65,135.02h-22.13l29.69-196.09h10.92c8.4,0,9.81,5.32,10.65,10.64l28.29,185.44h.01Z"/>
      <path class="cls-1" d="M682.76,632.92c5.88,0,8.12,4.48,8.12,7.85v188.24h-14.29c-4.76,0-5.6-2.8-5.88-4.2v-191.89h12.05Z"/>
      <path class="cls-1" d="M875.5,809.11c-2.24,5.04-5.6,12.89-6.44,14.57-1.4,2.52-4.48,5.32-10.92,5.32h-48.18v-196.09h14.01c3.36.28,6.16,2.8,6.16,6.16v170.03h45.38-.01Z"/>
      <path class="cls-1" d="M1101.3,829h-19.89v-101.12l-15.12,67.23h-6.16c-11.77,0-14.01-11.77-15.13-15.97l-11.77-51.26v101.12h-19.89v-196.09h12.33c7.84,0,8.96,7.28,8.96,7.28l23.25,112.61,22.13-112.89c.28-.84,1.68-7,8.97-7h12.33v196.09h0Z"/>
      <path class="cls-1" d="M1263.22,829h-22.13l-17.65-135.02-17.65,135.02h-22.13l29.69-196.09h10.92c8.4,0,9.8,5.32,10.64,10.64l28.29,185.44h.02Z"/>
      <path class="cls-1" d="M1395.73,682.22v-22.69c0-6.16-4.76-10.92-10.64-10.92s-10.65,4.76-10.65,10.92v18.77c0,11.48,8.69,26.33,8.69,26.33l24.09,45.38c9.8,17.93,8.96,31.09,8.96,31.09v24.93c0,13.73-11.2,24.93-25.21,24.93h-12.61c-13.45-.56-24.09-11.48-24.37-24.93v-20.17c0-6.44,3.08-9.52,5.6-10.92,1.68-.56,9.8-4.2,14.84-6.44v34.17c0,5.88,4.77,10.65,10.65,10.65s10.64-4.77,10.64-10.93v-22.41c0-11.48-8.69-26.61-8.69-26.61l-24.09-45.1c-9.8-17.93-8.96-31.09-8.96-31.09v-20.17c0-13.73,11.2-26.05,25.21-26.05h12.61c13.44.28,24.37,12.61,24.37,26.05v7.56c0,6.44-3.08,9.52-5.6,10.92-1.68.84-9.52,4.48-14.84,6.72h0Z"/>
      <path class="cls-1" d="M1746.76,809.11c-2.24,5.04-5.6,12.89-6.44,14.57-1.4,2.52-4.49,5.32-10.93,5.32h-44.82v-190.48c.28-3.08,2.8-5.6,6.16-5.6h52.38l-6.72,14.56c-1.12,2.52-4.2,5.6-10.64,5.6h-16.25c-2.8,0-4.76,1.96-4.76,4.77v58.26h30.25c-2.24,5.04-5.61,13.17-6.44,14.84-1.4,2.52-4.21,5.33-10.65,5.33h-8.4c-2.52,0-4.76,2.24-4.76,4.76v68.07h42.02,0Z"/>
      <path class="cls-1" d="M1899.79,829v-71.71c0-9.52-5.04-12.61-10.36-12.61h-25v84.32h-20.17v-196.09h51.05c13.44,0,24.65,10.92,24.65,24.65v56.42s1.22,21.46-9.65,21.46c10.83,0,9.65,20.92,9.65,20.92v72.64h-20.17ZM1889.42,725.63c5.32,0,10.36-2.24,10.36-11.2v-52.66c0-7.28-5.04-10.08-10.36-10.08h-25v73.95h25Z"/>
    </g>
    <g>
      <path class="cls-1" d="M447.99,929.44c14.34,0,24.71,10.65,24.71,24.99,0,.95-.14,2.73-.27,3.68-.14,1.37-1.23,2.33-2.46,2.33h-39.32c.54,9.15,8.6,17.75,18.3,17.75,5.73,0,10.38-2.18,13.52-4.1,1.91-1.09,2.73-1.78,3.82-.27.82,1.09,1.5,2.05,2.32,3.14.95,1.23,1.5,2.05-.55,3.55-3.28,2.59-10.65,6.28-20.07,6.28-16.52,0-26.76-12.97-26.76-28.68s10.24-28.67,26.76-28.67h0ZM463.28,952.79c-.41-7.92-6.96-15.02-15.29-15.02-9.15,0-16.25,6.55-17.2,15.02h32.5,0Z"/>
      <path class="cls-1" d="M487.71,892.44c0-1.36,1.23-2.59,2.59-2.59h4.23c1.36,0,2.6,1.23,2.6,2.59v90.39c0,1.36-1.23,2.59-2.6,2.59h-4.23c-1.36,0-2.59-1.23-2.59-2.59v-90.39Z"/>
      <path class="cls-1" d="M539.46,929.44c14.34,0,24.71,10.65,24.71,24.99,0,.95-.14,2.73-.27,3.68-.14,1.37-1.23,2.33-2.46,2.33h-39.32c.54,9.15,8.6,17.75,18.3,17.75,5.73,0,10.38-2.18,13.52-4.1,1.91-1.09,2.73-1.78,3.82-.27.82,1.09,1.5,2.05,2.32,3.14.95,1.23,1.5,2.05-.55,3.55-3.28,2.59-10.65,6.28-20.07,6.28-16.52,0-26.76-12.97-26.76-28.68s10.24-28.67,26.76-28.67h0ZM554.75,952.79c-.41-7.92-6.96-15.02-15.29-15.02-9.15,0-16.25,6.55-17.2,15.02h32.5-.01Z"/>
      <path class="cls-1" d="M571.53,933.94c-.82-1.77,0-3.14,2.05-3.14h4.23c1.23,0,2.05.68,2.46,1.5l16.93,39.05h.14l18.02-39.05c.41-.82,1.23-1.5,2.32-1.5h3.55c2.05,0,2.87,1.37,2.05,3.14l-23.35,51.47c-.27.68-1.09,1.37-2.32,1.37h-.68c-1.23,0-2.05-.69-2.32-1.37l-23.07-51.47h-.01Z"/>
      <path class="cls-1" d="M653.04,950.74c5.87,0,11.61,1.78,11.61,1.78.14-10.11-1.09-14.75-8.87-14.75s-13.93,2.05-16.38,3.01c-1.36.54-2.18-.14-2.6-1.37l-1.09-3.42c-.54-1.63.28-2.46,1.5-3,.82-.41,8.74-3.55,18.98-3.55,13.93,0,17.34,7.1,17.34,23.08v30.31c0,1.36-1.23,2.59-2.59,2.59h-2.6c-1.5,0-1.91-.82-2.32-2.05l-1.09-3.69c-2.87,2.87-8.47,7.1-16.93,7.1-9.56,0-16.8-6.97-16.8-17.89s7.78-18.16,21.85-18.16h0ZM649.49,978.59c6.83,0,12.7-4.23,15.02-7.65v-10.79c-1.64-.95-5.46-2.18-11.47-2.18-7.65,0-13.11,3.82-13.11,10.92,0,5.46,3.69,9.7,9.56,9.7h0Z"/>
      <path class="cls-1" d="M696.04,939h-6.96c-1.5,0-2.6-1.23-2.6-2.59v-3.01c0-1.5,1.09-2.59,2.6-2.59h6.96v-15.16c0-1.37,1.23-2.59,2.59-2.59l4.37-.27c1.37,0,2.46,1.23,2.46,2.59v15.43h15.84c1.5,0,2.6,1.09,2.6,2.59v3.01c0,1.36-1.09,2.59-2.6,2.59h-15.84v31.94c0,5.46,1.36,6.55,4.51,6.55,3.41,0,8.19-2.05,9.97-3,2.05-1.09,2.59-.27,3.28.82l2.05,3.42c.96,1.64.54,2.46-.96,3.42-1.91,1.23-9.28,4.64-15.7,4.64-10.92,0-12.56-6.55-12.56-15.02v-32.77h-.01Z"/>
      <path class="cls-1" d="M737.27,899.13c0-3.69,2.87-6.56,6.42-6.56s6.55,2.87,6.55,6.56-2.87,6.41-6.55,6.41-6.42-2.87-6.42-6.41ZM739.18,933.4c0-1.36,1.23-2.59,2.59-2.59h4.23c1.36,0,2.6,1.23,2.6,2.59v49.43c0,1.36-1.23,2.59-2.6,2.59h-4.23c-1.36,0-2.59-1.23-2.59-2.59v-49.43Z"/>
      <path class="cls-1" d="M767.99,933.4c0-1.36,1.23-2.59,2.59-2.59h2.6c1.23,0,1.91.54,2.18,1.64l1.23,4.23s7.78-7.24,19.11-7.24c15.84,0,21.16,10.38,21.16,24.58v28.81c0,1.36-1.23,2.59-2.6,2.59h-4.37c-1.36,0-2.59-1.23-2.59-2.59v-28.81c0-10.38-4.64-15.43-12.29-15.43-10.24,0-17.61,7.78-17.61,7.78v36.46c0,1.36-1.23,2.59-2.59,2.59h-4.23c-1.36,0-2.59-1.23-2.59-2.59v-49.43h0Z"/>
      <path class="cls-1" d="M839.25,967.13s-4.37-5.6-4.37-13.66c0-12.69,8.87-24.03,23.07-24.03h23.08c1.5,0,2.59,1.09,2.59,2.6v2.32c0,.95-.55,2.18-1.5,2.32l-7.37,1.5s6.14,4.51,6.14,15.29c0,12.43-8.87,23.21-22.94,23.21-8.74,0-12.97-3.42-12.97-3.42,0,0-6.01,2.73-6.01,8.19,0,3.42,2.46,6.69,7.51,6.69h19.66c11.47,0,20.48,5.6,20.48,17.48s-11.74,22.12-28.26,22.12c-18.3,0-26.21-9.83-26.21-18.84,0-8.19,6.55-11.88,7.92-12.7v-.41c-3.55-.96-9.97-4.51-9.97-12.97,0-10.38,9.15-15.7,9.15-15.7h0ZM858.23,1018.87c9.01,0,18.29-5.05,18.29-12.97,0-1.77-.82-8.87-10.38-8.87h-15.16s-9.15,2.46-9.15,10.51c0,6.55,7.1,11.33,16.38,11.33h.02ZM871.74,953.2c0-9.01-5.46-15.29-13.65-15.29s-14.34,6.28-14.34,15.29,6.01,15.29,14.34,15.29,13.65-6.28,13.65-15.29Z"/>
      <path class="cls-1" d="M920.75,933.81c-.82-1.77,0-3,2.05-3h6.01c1.09,0,1.91.68,2.32,1.5l20.21,41.78h.14l19.11-41.78c.41-.82,1.37-1.5,2.32-1.5h5.19c2.05,0,3,1.37,2.05,3.14l-41.91,90.8c-.41.82-1.36,1.64-2.32,1.64h-5.05c-2.05,0-3.14-1.5-2.18-3.42l17.48-37.68-25.39-51.47h-.03Z"/>
      <path class="cls-1" d="M1015.36,929.44c15.16,0,27.17,13.11,27.17,28.53s-12.01,28.81-27.17,28.81-27.17-13.11-27.17-28.81,12.01-28.53,27.17-28.53h0ZM1015.36,977.91c9.97,0,17.75-8.87,17.75-19.94s-7.78-19.52-17.75-19.52-17.75,8.74-17.75,19.52,7.78,19.94,17.75,19.94Z"/>
      <path class="cls-1" d="M1057.27,933.4c0-1.36,1.23-2.59,2.6-2.59h4.37c1.36,0,2.59,1.23,2.59,2.59v28.81c0,10.38,4.64,15.43,12.29,15.43,10.38,0,16.25-7.78,16.25-7.78v-36.46c0-1.36,1.23-2.59,2.59-2.59h4.23c1.37,0,2.6,1.23,2.6,2.59v49.43c0,1.36-1.23,2.59-2.6,2.59h-2.59c-1.5,0-2.05-.95-2.46-2.32l-.96-3.55s-6.42,7.24-17.75,7.24c-15.84,0-21.16-10.24-21.16-24.72v-28.67Z"/>
      <path class="cls-1" d="M1124.16,933.4c0-1.36,1.23-2.59,2.59-2.59h2.6c1.09,0,2.05.68,2.32,1.91l1.09,3.96s5.05-7.24,16.38-7.24c4.09,0,10.92.69,9.56,4.51l-1.64,4.65c-.68,1.77-1.91,1.77-3.28,1.23-1.23-.54-3.28-1.09-5.33-1.09-10.38,0-14.88,7.64-14.88,7.64v36.46c0,1.36-1.23,2.59-2.59,2.59h-4.23c-1.36,0-2.59-1.23-2.59-2.59v-49.43h0Z"/>
      <path class="cls-1" d="M1196.79,977.78c.54-.82,1.5-2.73,1.91-3.42.68-1.09,2.18-1.37,3.69-.41,0,0,5.87,4.78,12.83,4.78,5.6,0,8.87-2.87,8.87-6.55,0-4.78-4.1-6.96-12.01-10.92-7.24-3.55-15.56-8.33-15.56-17.61,0-5.74,4.64-14.2,17.34-14.2,7.1,0,12.56,2.46,15.15,4.23,1.23.82,1.64,2.73.82,4.23l-1.09,2.18c-.82,1.5-2.73,1.91-3.96,1.23,0,0-5.87-3.28-10.92-3.28-6.14,0-7.78,3.14-7.78,5.46,0,4.51,4.51,6.55,10.11,9.28,9.42,4.51,17.88,8.74,17.88,18.57,0,7.92-7.65,15.43-18.84,15.43-9.15,0-14.75-3.82-17.75-6.14-.68-.54-1.09-1.91-.68-2.87h0Z"/>
      <path class="cls-1" d="M1252.22,939h-6.96c-1.5,0-2.6-1.23-2.6-2.59v-3.01c0-1.5,1.09-2.59,2.6-2.59h6.96v-15.16c0-1.37,1.23-2.59,2.6-2.59l4.37-.27c1.36,0,2.46,1.23,2.46,2.59v15.43h15.84c1.5,0,2.6,1.09,2.6,2.59v3.01c0,1.36-1.09,2.59-2.6,2.59h-15.84v31.94c0,5.46,1.36,6.55,4.51,6.55,3.41,0,8.19-2.05,9.97-3,2.05-1.09,2.59-.27,3.28.82l2.05,3.42c.96,1.64.54,2.46-.96,3.42-1.91,1.23-9.29,4.64-15.7,4.64-10.92,0-12.56-6.55-12.56-15.02v-32.77h-.02Z"/>
      <path class="cls-1" d="M1313.24,950.74c5.87,0,11.61,1.78,11.61,1.78.14-10.11-1.09-14.75-8.87-14.75s-13.93,2.05-16.38,3.01c-1.36.54-2.18-.14-2.6-1.37l-1.09-3.42c-.54-1.63.28-2.46,1.5-3,.82-.41,8.74-3.55,18.98-3.55,13.93,0,17.34,7.1,17.34,23.08v30.31c0,1.36-1.23,2.59-2.59,2.59h-2.6c-1.5,0-1.91-.82-2.32-2.05l-1.09-3.69c-2.87,2.87-8.47,7.1-16.93,7.1-9.56,0-16.8-6.97-16.8-17.89s7.78-18.16,21.85-18.16h-.01ZM1309.69,978.59c6.83,0,12.7-4.23,15.02-7.65v-10.79c-1.64-.95-5.46-2.18-11.47-2.18-7.65,0-13.11,3.82-13.11,10.92,0,5.46,3.69,9.7,9.56,9.7h0Z"/>
      <path class="cls-1" d="M1356.25,939h-6.96c-1.5,0-2.6-1.23-2.6-2.59v-3.01c0-1.5,1.09-2.59,2.6-2.59h6.96v-15.16c0-1.37,1.23-2.59,2.6-2.59l4.37-.27c1.36,0,2.46,1.23,2.46,2.59v15.43h15.84c1.5,0,2.6,1.09,2.6,2.59v3.01c0,1.36-1.09,2.59-2.6,2.59h-15.84v31.94c0,5.46,1.36,6.55,4.51,6.55,3.41,0,8.19-2.05,9.97-3,2.05-1.09,2.59-.27,3.28.82l2.05,3.42c.96,1.64.54,2.46-.96,3.42-1.91,1.23-9.29,4.64-15.7,4.64-10.92,0-12.56-6.55-12.56-15.02v-32.77h-.02Z"/>
      <path class="cls-1" d="M1398.7,933.4c0-1.36,1.23-2.59,2.6-2.59h4.37c1.36,0,2.59,1.23,2.59,2.59v28.81c0,10.38,4.64,15.43,12.29,15.43,10.38,0,16.25-7.78,16.25-7.78v-36.46c0-1.36,1.23-2.59,2.6-2.59h4.23c1.37,0,2.6,1.23,2.6,2.59v49.43c0,1.36-1.23,2.59-2.6,2.59h-2.59c-1.5,0-2.05-.95-2.46-2.32l-.96-3.55s-6.42,7.24-17.75,7.24c-15.84,0-21.16-10.24-21.16-24.72v-28.67h-.01Z"/>
      <path class="cls-1" d="M1462.32,977.78c.54-.82,1.5-2.73,1.91-3.42.68-1.09,2.18-1.37,3.69-.41,0,0,5.87,4.78,12.83,4.78,5.6,0,8.87-2.87,8.87-6.55,0-4.78-4.1-6.96-12.01-10.92-7.24-3.55-15.56-8.33-15.56-17.61,0-5.74,4.64-14.2,17.34-14.2,7.1,0,12.56,2.46,15.15,4.23,1.23.82,1.64,2.73.82,4.23l-1.09,2.18c-.82,1.5-2.73,1.91-3.96,1.23,0,0-5.87-3.28-10.92-3.28-6.14,0-7.78,3.14-7.78,5.46,0,4.51,4.51,6.55,10.11,9.28,9.42,4.51,17.88,8.74,17.88,18.57,0,7.92-7.65,15.43-18.84,15.43-9.15,0-14.75-3.82-17.75-6.14-.68-.54-1.09-1.91-.68-2.87h0Z"/>
    </g>
  </g>
</svg>