<svg id="Group_6" data-name="Group 6" xmlns="http://www.w3.org/2000/svg" xmlns:xlink="http://www.w3.org/1999/xlink" width="17.055" height="17" viewBox="0 0 17.055 17">
  <defs>
    <clipPath id="clip-path">
      <rect id="Rectangle_4" data-name="Rectangle 4" width="17.055" height="17" fill="#fe6e42"/>
    </clipPath>
  </defs>
  <g id="Group_5" data-name="Group 5" clip-path="url(#clip-path)">
    <path id="Path_15" data-name="Path 15" d="M8,.026a4.216,4.216,0,0,1,2.566.513c1.681,1.374,3.565,2.723,5.16,4.188A3.684,3.684,0,0,1,17,7.113c.168,2.186-.125,4.59-.006,6.8a3.607,3.607,0,0,1-2.144,2.828,9.206,9.206,0,0,1-3.163.221,1.748,1.748,0,0,1-1.446-1.378c-.148-1.212.339-3.327-.443-4.291a1.606,1.606,0,0,0-2.506-.042c-.856.983-.307,3.122-.487,4.366a1.768,1.768,0,0,1-1.4,1.342,9.7,9.7,0,0,1-3.143-.2A3.59,3.59,0,0,1,.053,13.838c-.17-2.161.132-4.541,0-6.725a3.768,3.768,0,0,1,.8-1.907C2.511,3.795,4.2,2.217,5.946.913A4.227,4.227,0,0,1,8,.026M3.456,15.289H5.087l.06-.06V12.007a4.017,4.017,0,0,1,.7-1.687,3.337,3.337,0,0,1,5.712.566,4.248,4.248,0,0,1,.351,1.121v3.222l.06.06H13.6a1.813,1.813,0,0,0,1.68-1.5c0-1.993.165-4.131.052-6.117a2.22,2.22,0,0,0-.6-1.551L9.916,2.146a2.437,2.437,0,0,0-2.959.137C5.375,3.457,3.907,4.931,2.321,6.119a2.219,2.219,0,0,0-.6,1.551c-.114,1.986.049,4.125.052,6.117A1.829,1.829,0,0,0,3.107,15.24Z" transform="translate(0 -0.001)" fill="#fe6e42"/>
  </g>
</svg>
